<svg width="36" height="36" viewBox="0 0 36 36" fill="none" xmlns="http://www.w3.org/2000/svg">
<g clip-path="url(#clip0_21086_10978)">
<path d="M28.6526 26.3027C28.0133 26.3026 27.3884 26.4921 26.8568 26.8472C26.3252 27.2023 25.9108 27.707 25.6661 28.2976C25.4214 28.8882 25.3573 29.5381 25.482 30.1651C25.6066 30.7921 25.9144 31.368 26.3664 31.8201C26.8184 32.2722 27.3943 32.5801 28.0213 32.7048C28.6483 32.8296 29.2982 32.7656 29.8888 32.521C30.4794 32.2764 30.9842 31.8621 31.3394 31.3306C31.6946 30.7991 31.8842 30.1741 31.8842 29.5349C31.883 28.6781 31.5422 27.8568 30.9364 27.2509C30.3306 26.645 29.5094 26.3041 28.6526 26.3027ZM28.6526 31.6414C28.2358 31.6415 27.8283 31.518 27.4817 31.2865C27.1351 31.0551 26.865 30.726 26.7054 30.3409C26.5459 29.9559 26.5041 29.5322 26.5854 29.1234C26.6667 28.7146 26.8674 28.3391 27.1621 28.0443C27.4568 27.7496 27.8323 27.5489 28.2411 27.4676C28.6499 27.3863 29.0736 27.4281 29.4587 27.5877C29.8437 27.7472 30.1728 28.0174 30.4043 28.364C30.6358 28.7106 30.7593 29.1181 30.7592 29.5349C30.7584 30.0933 30.5363 30.6287 30.1414 31.0236C29.7465 31.4185 29.2111 31.6407 28.6526 31.6414Z" fill="#0087C7"/>
<path d="M2.91487 32.4193H22.6806L23.1587 33.2631C23.2965 33.5076 23.5043 33.7053 23.7555 33.8307C24.0066 33.9561 24.2895 34.0035 24.5677 33.9667L25.9453 33.7896C26.0081 33.7818 26.0716 33.7947 26.1264 33.8264C26.1811 33.8581 26.224 33.9068 26.2485 33.9651L26.7789 35.2492C26.8849 35.5081 27.0657 35.7295 27.2981 35.8852C27.5306 36.0408 27.8042 36.1235 28.0839 36.1228H28.0901L29.1898 36.1189C29.4703 36.1187 29.7444 36.0346 29.9767 35.8774C30.2091 35.7202 30.3891 35.4972 30.4937 35.2369L30.996 33.9994C31.0204 33.9404 31.0635 33.8911 31.1187 33.8591C31.1739 33.8271 31.2381 33.8141 31.3014 33.8222L32.625 33.9999C32.9029 34.0383 33.1859 33.993 33.4379 33.8698C33.6899 33.7465 33.8994 33.551 34.0397 33.3081L34.5909 32.3557C34.732 32.1133 34.7974 31.8343 34.7787 31.5544C34.7599 31.2745 34.6579 31.0067 34.4857 30.7852L33.75 29.8324C33.7098 29.7801 33.6887 29.7157 33.6903 29.6498C33.6918 29.5838 33.7159 29.5205 33.7584 29.4701L34.5375 28.5521C34.7199 28.3388 34.8343 28.0758 34.866 27.7969C34.8977 27.518 34.8452 27.236 34.7152 26.9872L34.209 26.0113C34.088 25.7767 33.9031 25.581 33.6757 25.4468C33.4483 25.3127 33.1876 25.2455 32.9237 25.2531V8.38593C32.9231 7.913 32.735 7.4596 32.4006 7.12513C32.0663 6.79066 31.6129 6.60242 31.14 6.60168H20.034C19.9339 6.60174 19.8351 6.57885 19.7452 6.53478C19.6553 6.4907 19.5767 6.42661 19.5154 6.34743L17.0865 3.23118C16.9193 3.01677 16.7052 2.84346 16.4607 2.72451C16.2162 2.60557 15.9477 2.54414 15.6757 2.54493H5.97656C5.50288 2.54627 5.04907 2.73538 4.7146 3.07079C4.38013 3.40621 4.19231 3.86056 4.19231 4.33424V6.20512H2.91487C2.44041 6.20556 1.98549 6.39421 1.64993 6.72965C1.31438 7.0651 1.1256 7.51996 1.125 7.99443V30.63C1.1256 31.1045 1.31438 31.5593 1.64993 31.8948C1.98549 32.2302 2.44041 32.4189 2.91487 32.4193ZM33.2111 26.5288L33.7174 27.5053C33.7439 27.556 33.7547 27.6134 33.7483 27.6703C33.7418 27.7271 33.7185 27.7808 33.6814 27.8242L32.9017 28.7428C32.6937 28.9901 32.5763 29.3011 32.569 29.6242C32.5617 29.9474 32.665 30.2633 32.8618 30.5197L33.5976 31.476C33.6324 31.5211 33.6531 31.5755 33.657 31.6324C33.6609 31.6893 33.6479 31.746 33.6195 31.7955L33.0682 32.7472C33.0395 32.7967 32.9967 32.8365 32.9454 32.8616C32.894 32.8867 32.8364 32.8961 32.7797 32.8884L31.4544 32.7067C31.1431 32.6634 30.8262 32.7254 30.5542 32.8829C30.2822 33.0403 30.0706 33.2842 29.9531 33.5758L29.4508 34.8133C29.4295 34.8663 29.3929 34.9118 29.3456 34.9439C29.2983 34.9759 29.2425 34.9932 29.1853 34.9933L28.0856 34.9972C28.0287 34.9973 27.9729 34.9805 27.9256 34.9488C27.8782 34.9172 27.8413 34.8722 27.8196 34.8195L27.2891 33.5353C27.1819 33.2769 27.0006 33.0561 26.7681 32.9006C26.5355 32.7452 26.2622 32.662 25.9824 32.6617C25.9224 32.6618 25.8625 32.6658 25.803 32.6736L24.4254 32.8507C24.3687 32.8589 24.3108 32.8496 24.2595 32.8239C24.2083 32.7983 24.1661 32.7576 24.1386 32.7073L23.5952 31.7511C23.567 31.7015 23.5543 31.6447 23.5586 31.5879C23.5629 31.5311 23.5841 31.4768 23.6194 31.4321L24.5194 30.2863C24.707 30.0457 24.8121 29.751 24.8192 29.446C24.8263 29.1409 24.735 28.8417 24.5587 28.5926L23.715 27.4057C23.6817 27.3593 23.663 27.3039 23.6614 27.2468C23.6598 27.1897 23.6753 27.1334 23.706 27.0851L24.2927 26.1553C24.3232 26.107 24.3673 26.0689 24.4195 26.0458C24.4716 26.0227 24.5295 26.0155 24.5857 26.0254L25.7878 26.2374C26.1051 26.2909 26.4311 26.2352 26.7126 26.0794C26.9941 25.9236 27.2144 25.6769 27.3375 25.3796L27.7999 24.2496C27.8212 24.1966 27.858 24.1512 27.9055 24.1193C27.9529 24.0874 28.0088 24.0705 28.0659 24.0707H29.1656C29.2227 24.0704 29.2786 24.0873 29.326 24.1191C29.3734 24.1508 29.4102 24.1961 29.4317 24.249L29.9998 25.6384C30.1134 25.9187 30.3144 26.1549 30.5729 26.312C30.8314 26.469 31.1336 26.5386 31.4347 26.5102L32.3595 26.427H32.3646L32.9271 26.3764C32.9843 26.3696 33.0423 26.3806 33.0931 26.4078C33.1439 26.4351 33.1851 26.4773 33.2111 26.5288ZM5.31731 4.33424C5.31686 4.15879 5.38601 3.99033 5.5096 3.86579C5.63319 3.74126 5.80112 3.67082 5.97656 3.66993H15.6757C15.7767 3.6696 15.8764 3.69234 15.9673 3.7364C16.0581 3.78046 16.1377 3.84469 16.2 3.92418L18.6255 7.03593C18.792 7.25038 19.0052 7.42405 19.2488 7.54374C19.4925 7.66343 19.7603 7.726 20.0317 7.72668H31.14C31.3148 7.72683 31.4824 7.79633 31.606 7.91993C31.7296 8.04353 31.7991 8.21113 31.7992 8.38593V25.3476L31.3335 25.3897C31.2724 25.3953 31.2111 25.381 31.1586 25.3491C31.1062 25.3172 31.0653 25.2694 31.0421 25.2126L30.474 23.8232C30.3685 23.5631 30.1875 23.3406 29.9545 23.1842C29.7214 23.0278 29.4469 22.9447 29.1662 22.9457H28.0687C27.7881 22.9447 27.5135 23.0278 27.2805 23.1842C27.0474 23.3406 26.8665 23.5631 26.7609 23.8232L26.2986 24.9532C26.2741 25.0142 26.2293 25.0648 26.1718 25.0966C26.1143 25.1284 26.0476 25.1393 25.983 25.1276L24.7809 24.9156C24.5046 24.8659 24.2197 24.9001 23.9629 25.0138C23.7062 25.1275 23.4894 25.3154 23.3404 25.5534L22.7537 26.4838C22.6478 26.6527 22.5791 26.8423 22.5522 27.0399C22.5254 27.2375 22.5409 27.4385 22.5979 27.6296H5.97656C5.80181 27.6293 5.6343 27.5598 5.51073 27.4362C5.38716 27.3126 5.31761 27.1451 5.31731 26.9704V4.33424ZM2.25 7.99443C2.25015 7.81819 2.32026 7.64922 2.44494 7.52466C2.56961 7.40009 2.73864 7.33012 2.91487 7.33012H4.19231V26.9704C4.19291 27.4434 4.38108 27.8969 4.71556 28.2314C5.05005 28.5658 5.50353 28.754 5.97656 28.7546H23.2931L23.643 29.2446C23.6789 29.2952 23.6975 29.356 23.696 29.418C23.6946 29.48 23.6733 29.5399 23.6351 29.5888L22.7351 30.7352C22.6104 30.9005 22.5242 31.0915 22.4826 31.2943H2.91487C2.73868 31.2942 2.56974 31.2241 2.4451 31.0996C2.32046 30.9751 2.2503 30.8062 2.25 30.63V7.99443Z" fill="#0087C7"/>
<path d="M9.24219 13.5575H22.7911V14.4283C22.7911 14.5775 22.8504 14.7205 22.9559 14.826C23.0614 14.9315 23.2044 14.9908 23.3536 14.9908C23.5028 14.9908 23.6459 14.9315 23.7514 14.826C23.8569 14.7205 23.9161 14.5775 23.9161 14.4283V13.5575H27.8716C28.0208 13.5575 28.1639 13.4983 28.2694 13.3928C28.3749 13.2873 28.4341 13.1442 28.4341 12.995C28.4341 12.8458 28.3749 12.7028 28.2694 12.5973C28.1639 12.4918 28.0208 12.4325 27.8716 12.4325H23.9161V11.5623C23.9161 11.4131 23.8569 11.2701 23.7514 11.1646C23.6459 11.0591 23.5028 10.9998 23.3536 10.9998C23.2044 10.9998 23.0614 11.0591 22.9559 11.1646C22.8504 11.2701 22.7911 11.4131 22.7911 11.5623V12.4325H9.24219C9.093 12.4325 8.94993 12.4918 8.84444 12.5973C8.73895 12.7028 8.67969 12.8458 8.67969 12.995C8.67969 13.1442 8.73895 13.2873 8.84444 13.3928C8.94993 13.4983 9.093 13.5575 9.24219 13.5575Z" fill="#0087C7"/>
<path d="M9.24219 18.0447H14.2608V18.9154C14.2608 19.0646 14.3201 19.2077 14.4256 19.3132C14.5311 19.4187 14.6741 19.4779 14.8233 19.4779C14.9725 19.4779 15.1156 19.4187 15.2211 19.3132C15.3265 19.2077 15.3858 19.0646 15.3858 18.9154V18.0447H27.8733C28.0225 18.0447 28.1656 17.9854 28.2711 17.8799C28.3766 17.7744 28.4358 17.6314 28.4358 17.4822C28.4358 17.333 28.3766 17.1899 28.2711 17.0844C28.1656 16.9789 28.0225 16.9197 27.8733 16.9197H15.3858V16.0495C15.3858 15.9003 15.3265 15.7572 15.2211 15.6517C15.1156 15.5462 14.9725 15.487 14.8233 15.487C14.6741 15.487 14.5311 15.5462 14.4256 15.6517C14.3201 15.7572 14.2608 15.9003 14.2608 16.0495V16.9197H9.24219C9.093 16.9197 8.94993 16.9789 8.84444 17.0844C8.73895 17.1899 8.67969 17.333 8.67969 17.4822C8.67969 17.6314 8.73895 17.7744 8.84444 17.8799C8.94993 17.9854 9.093 18.0447 9.24219 18.0447Z" fill="#0087C7"/>
<path d="M9.24219 22.5317H20.5389V23.4019C20.5389 23.5511 20.5981 23.6942 20.7036 23.7996C20.8091 23.9051 20.9522 23.9644 21.1014 23.9644C21.2506 23.9644 21.3936 23.9051 21.4991 23.7996C21.6046 23.6942 21.6639 23.5511 21.6639 23.4019V22.5317H27.8716C28.0208 22.5317 28.1639 22.4725 28.2694 22.367C28.3749 22.2615 28.4341 22.1184 28.4341 21.9692C28.4341 21.82 28.3749 21.677 28.2694 21.5715C28.1639 21.466 28.0208 21.4067 27.8716 21.4067H21.6639V20.536C21.6639 20.3868 21.6046 20.2437 21.4991 20.1382C21.3936 20.0327 21.2506 19.9735 21.1014 19.9735C20.9522 19.9735 20.8091 20.0327 20.7036 20.1382C20.5981 20.2437 20.5389 20.3868 20.5389 20.536V21.4067H9.24219C9.093 21.4067 8.94993 21.466 8.84444 21.5715C8.73895 21.677 8.67969 21.82 8.67969 21.9692C8.67969 22.1184 8.73895 22.2615 8.84444 22.367C8.94993 22.4725 9.093 22.5317 9.24219 22.5317Z" fill="#0087C7"/>
</g>
<defs>
<clipPath id="clip0_21086_10978">
<rect width="36" height="36" fill="white"/>
</clipPath>
</defs>
</svg>
