<svg width="36" height="36" viewBox="0 0 36 36" fill="none" xmlns="http://www.w3.org/2000/svg">
<path d="M17.9993 14C18.7371 14 19.3327 13.5533 19.3327 13C19.3327 12.4467 18.7371 12 17.9993 12C17.2616 12 16.666 12.4467 16.666 13C16.666 13.5533 17.2616 14 17.9993 14ZM17.9993 12.6667C18.2482 12.6667 18.4438 12.8133 18.4438 13C18.4438 13.1867 18.2482 13.3333 17.9993 13.3333C17.7505 13.3333 17.5549 13.1867 17.5549 13C17.5549 12.8133 17.7505 12.6667 17.9993 12.6667Z" fill="#0087C7"/>
<path d="M17.1105 4.66667H18.8882C19.1371 4.66667 19.3327 4.52 19.3327 4.33333C19.3327 4.14667 19.1371 4 18.8882 4H17.1105C16.8616 4 16.666 4.14667 16.666 4.33333C16.666 4.52 16.8616 4.66667 17.1105 4.66667Z" fill="#0087C7"/>
<path d="M17.1105 6.66667H18.8882C19.1371 6.66667 19.3327 6.52 19.3327 6.33333C19.3327 6.14667 19.1371 6 18.8882 6H17.1105C16.8616 6 16.666 6.14667 16.666 6.33333C16.666 6.52 16.8616 6.66667 17.1105 6.66667Z" fill="#0087C7"/>
<path d="M17.1105 8.66666H18.8882C19.1371 8.66666 19.3327 8.37333 19.3327 7.99999C19.3327 7.62666 19.1371 7.33333 18.8882 7.33333H17.1105C16.8616 7.33333 16.666 7.62666 16.666 7.99999C16.666 8.37333 16.8616 8.66666 17.1105 8.66666Z" fill="#0087C7"/>
<path d="M17.1105 10H18.8882C19.1371 10 19.3327 9.85333 19.3327 9.66666C19.3327 9.47999 19.1371 9.33333 18.8882 9.33333H17.1105C16.8616 9.33333 16.666 9.47999 16.666 9.66666C16.666 9.85333 16.8616 10 17.1105 10Z" fill="#0087C7"/>
<path d="M27.2339 0.666664H25.5549C24.3964 0.666664 23.4561 1.61366 23.4561 2.78049V14.6179C23.4561 15.7847 24.3964 16.7317 25.5549 16.7317H25.9747V18.465C25.1519 18.6341 24.5055 19.2852 24.3376 20.1138H20.0561C19.8882 19.2852 19.2418 18.6341 18.4191 18.465V16.7317H18.8389C19.9974 16.7317 20.9376 15.7847 20.9376 14.6179V2.78049C20.9376 1.61366 19.9974 0.666664 18.8389 0.666664H17.1598C16.0013 0.666664 15.0611 1.61366 15.0611 2.78049V14.6179C15.0611 15.7847 16.0013 16.7317 17.1598 16.7317H17.5796V18.465C16.7569 18.6341 16.1105 19.2852 15.9426 20.1138H11.6611C11.4932 19.2852 10.8468 18.6341 10.024 18.465V16.7317H10.4438C11.6023 16.7317 12.5426 15.7847 12.5426 14.6179V2.78049C12.5426 1.61366 11.6023 0.666664 10.4438 0.666664H8.76478C7.60626 0.666664 6.66602 1.61366 6.66602 2.78049V14.6179C6.66602 15.7847 7.60626 16.7317 8.76478 16.7317H9.18453V18.465C8.2275 18.6595 7.50552 19.5135 7.50552 20.5366C7.50552 21.7034 8.44577 22.6504 9.60429 22.6504C10.6201 22.6504 11.468 21.9232 11.6611 20.9593H15.9426C16.1105 21.788 16.7569 22.439 17.5796 22.6081V23.5213C14.5322 23.7411 12.1228 26.2946 12.1228 29.4146C12.1228 32.5346 14.7589 35.3333 17.9993 35.3333C21.2398 35.3333 23.8759 32.6784 23.8759 29.4146C23.8759 26.1509 21.4665 23.7327 18.4191 23.5213V22.6081C19.2418 22.439 19.8882 21.788 20.0561 20.9593H24.3376C24.5307 21.9232 25.3786 22.6504 26.3944 22.6504C27.5529 22.6504 28.4932 21.7034 28.4932 20.5366C28.4932 19.5135 27.7712 18.6595 26.8142 18.465V16.7317H27.2339C28.3924 16.7317 29.3327 15.7847 29.3327 14.6179V2.78049C29.3327 1.61366 28.3924 0.666664 27.2339 0.666664ZM28.4932 14.6179C28.4932 15.3197 27.9307 15.8862 27.2339 15.8862H25.5549C24.8581 15.8862 24.2956 15.3197 24.2956 14.6179V2.78049C24.2956 2.0787 24.8581 1.51219 25.5549 1.51219H27.2339C27.9307 1.51219 28.4932 2.0787 28.4932 2.78049V14.6179ZM26.3944 21.8049C25.8487 21.8049 25.387 21.4498 25.2107 20.9593C25.1603 20.8241 25.1352 20.6888 25.1352 20.5366C25.1352 20.3844 25.1687 20.2491 25.2107 20.1138C25.3366 19.7587 25.6137 19.4712 25.9747 19.3444C26.109 19.2937 26.2433 19.2683 26.3944 19.2683C26.5455 19.2683 26.6798 19.3021 26.8142 19.3444C27.3011 19.5219 27.6537 19.987 27.6537 20.5366C27.6537 21.2384 27.0912 21.8049 26.3944 21.8049ZM19.1831 20.9593C19.0068 21.4498 18.545 21.8049 17.9993 21.8049C17.4537 21.8049 16.9919 21.4498 16.8156 20.9593C16.7653 20.8241 16.7401 20.6888 16.7401 20.5366C16.7401 20.3844 16.7737 20.2491 16.8156 20.1138C16.9416 19.7587 17.2186 19.4712 17.5796 19.3444C17.7139 19.2937 17.8482 19.2683 17.9993 19.2683C18.1505 19.2683 18.2848 19.3021 18.4191 19.3444C18.7717 19.4712 19.0571 19.7502 19.1831 20.1138C19.2334 20.2491 19.2586 20.3844 19.2586 20.5366C19.2586 20.6888 19.225 20.8241 19.1831 20.9593ZM15.9006 2.78049C15.9006 2.0787 16.4631 1.51219 17.1598 1.51219H18.8389C19.5356 1.51219 20.0981 2.0787 20.0981 2.78049V14.6179C20.0981 15.3197 19.5356 15.8862 18.8389 15.8862H17.1598C16.4631 15.8862 15.9006 15.3197 15.9006 14.6179V2.78049ZM10.788 20.9593C10.6117 21.4498 10.15 21.8049 9.60429 21.8049C8.9075 21.8049 8.34503 21.2384 8.34503 20.5366C8.34503 19.987 8.69762 19.5219 9.18453 19.3444C9.31886 19.2937 9.45318 19.2683 9.60429 19.2683C9.7554 19.2683 9.88972 19.3021 10.024 19.3444C10.3766 19.4712 10.6621 19.7502 10.788 20.1138C10.8384 20.2491 10.8635 20.3844 10.8635 20.5366C10.8635 20.6888 10.83 20.8241 10.788 20.9593ZM7.50552 2.78049C7.50552 2.0787 8.06799 1.51219 8.76478 1.51219H10.4438C11.1406 1.51219 11.7031 2.0787 11.7031 2.78049V14.6179C11.7031 15.3197 11.1406 15.8862 10.4438 15.8862H8.76478C8.06799 15.8862 7.50552 15.3197 7.50552 14.6179V2.78049ZM17.9993 34.4878C15.2206 34.4878 12.9623 32.2133 12.9623 29.4146C12.9623 26.6159 15.2206 24.3415 17.9993 24.3415C20.7781 24.3415 23.0364 26.6159 23.0364 29.4146C23.0364 32.2133 20.7781 34.4878 17.9993 34.4878Z" fill="#0087C7"/>
<path d="M26.334 12C25.7807 12 25.334 12.4467 25.334 13C25.334 13.5533 25.7807 14 26.334 14C26.8873 14 27.334 13.5533 27.334 13C27.334 12.4467 26.8873 12 26.334 12ZM26.334 13.3333C26.1473 13.3333 26.0007 13.1867 26.0007 13C26.0007 12.8133 26.1473 12.6667 26.334 12.6667C26.5207 12.6667 26.6673 12.8133 26.6673 13C26.6673 13.1867 26.5207 13.3333 26.334 13.3333Z" fill="#0087C7"/>
<path d="M27.0007 4H25.6673C25.4807 4 25.334 4.14667 25.334 4.33333C25.334 4.52 25.4807 4.66667 25.6673 4.66667H27.0007C27.1873 4.66667 27.334 4.52 27.334 4.33333C27.334 4.14667 27.1873 4 27.0007 4Z" fill="#0087C7"/>
<path d="M27.0007 6H25.6673C25.4807 6 25.334 6.14667 25.334 6.33333C25.334 6.52 25.4807 6.66667 25.6673 6.66667H27.0007C27.1873 6.66667 27.334 6.52 27.334 6.33333C27.334 6.14667 27.1873 6 27.0007 6Z" fill="#0087C7"/>
<path d="M27.0007 7.33333H25.6673C25.4807 7.33333 25.334 7.62666 25.334 7.99999C25.334 8.37333 25.4807 8.66666 25.6673 8.66666H27.0007C27.1873 8.66666 27.334 8.37333 27.334 7.99999C27.334 7.62666 27.1873 7.33333 27.0007 7.33333Z" fill="#0087C7"/>
<path d="M27.0007 9.33333H25.6673C25.4807 9.33333 25.334 9.47999 25.334 9.66666C25.334 9.85333 25.4807 10 25.6673 10H27.0007C27.1873 10 27.334 9.85333 27.334 9.66666C27.334 9.47999 27.1873 9.33333 27.0007 9.33333Z" fill="#0087C7"/>
<path d="M9.66602 14C10.2193 14 10.666 13.5533 10.666 13C10.666 12.4467 10.2193 12 9.66602 12C9.11268 12 8.66602 12.4467 8.66602 13C8.66602 13.5533 9.11268 14 9.66602 14ZM9.66602 12.6667C9.85268 12.6667 9.99935 12.8133 9.99935 13C9.99935 13.1867 9.85268 13.3333 9.66602 13.3333C9.47935 13.3333 9.33268 13.1867 9.33268 13C9.33268 12.8133 9.47935 12.6667 9.66602 12.6667Z" fill="#0087C7"/>
<path d="M8.99935 4.66667H10.3327C10.5193 4.66667 10.666 4.52 10.666 4.33333C10.666 4.14667 10.5193 4 10.3327 4H8.99935C8.81268 4 8.66602 4.14667 8.66602 4.33333C8.66602 4.52 8.81268 4.66667 8.99935 4.66667Z" fill="#0087C7"/>
<path d="M8.99935 6.66667H10.3327C10.5193 6.66667 10.666 6.52 10.666 6.33333C10.666 6.14667 10.5193 6 10.3327 6H8.99935C8.81268 6 8.66602 6.14667 8.66602 6.33333C8.66602 6.52 8.81268 6.66667 8.99935 6.66667Z" fill="#0087C7"/>
<path d="M8.99935 8.66666H10.3327C10.5193 8.66666 10.666 8.37333 10.666 7.99999C10.666 7.62666 10.5193 7.33333 10.3327 7.33333H8.99935C8.81268 7.33333 8.66602 7.62666 8.66602 7.99999C8.66602 8.37333 8.81268 8.66666 8.99935 8.66666Z" fill="#0087C7"/>
<path d="M8.99935 10H10.3327C10.5193 10 10.666 9.85333 10.666 9.66666C10.666 9.47999 10.5193 9.33333 10.3327 9.33333H8.99935C8.81268 9.33333 8.66602 9.47999 8.66602 9.66666C8.66602 9.85333 8.81268 10 8.99935 10Z" fill="#0087C7"/>
<path d="M19.5022 28.8615C19.9467 28.4867 20.2222 27.957 20.2222 27.3704C20.2222 26.2459 19.2267 25.3333 18 25.3333C16.7733 25.3333 15.7778 26.2459 15.7778 27.3704C15.7778 27.9652 16.0622 28.4948 16.4978 28.8615C15.0311 29.4074 14 30.7193 14 32.2593C14 32.4874 14.1956 32.6667 14.4444 32.6667H21.5556C21.8044 32.6667 22 32.4874 22 32.2593C22 30.7274 20.96 29.4074 19.5022 28.8615ZM14.9244 31.8518C15.1378 30.4748 16.4356 29.4074 18 29.4074C19.5644 29.4074 20.8622 30.4748 21.0756 31.8518H14.9156H14.9244ZM16.6667 27.3704C16.6667 26.6941 17.2622 26.1481 18 26.1481C18.7378 26.1481 19.3333 26.6941 19.3333 27.3704C19.3333 28.0467 18.7378 28.5926 18 28.5926C17.2622 28.5926 16.6667 28.0467 16.6667 27.3704Z" fill="#0087C7"/>
</svg>
