<svg width="36" height="36" viewBox="0 0 36 36" fill="none" xmlns="http://www.w3.org/2000/svg">
<path d="M24.7067 20.4706C24.3056 20.4706 23.9223 20.6561 23.6549 20.9795C23.3875 21.3028 23.2594 21.7356 23.3035 22.167L23.5966 25.041C23.6593 25.6548 24.1366 26.1176 24.7067 26.1176C25.2768 26.1176 25.7541 25.6548 25.8167 25.041L26.1099 22.167C26.154 21.7356 26.0258 21.3028 25.7585 20.9795C25.4911 20.6561 25.1077 20.4706 24.7067 20.4706ZM25.3722 22.0787L25.079 24.9528C25.0579 25.1586 24.8978 25.3139 24.7067 25.3139C24.5156 25.3139 24.3555 25.1586 24.3343 24.9528L24.0412 22.0787C24.02 21.8712 24.0792 21.6712 24.2079 21.5156C24.3367 21.3601 24.5138 21.2743 24.7067 21.2743C24.8995 21.2743 25.0767 21.3601 25.2055 21.5156C25.3342 21.6712 25.3934 21.8712 25.3722 22.0787Z" fill="#0087C7"/>
<path d="M24.7067 26.8235C23.9282 26.8235 23.2949 27.2985 23.2949 27.8823C23.2949 28.4662 23.9282 28.9412 24.7067 28.9412C25.4852 28.9412 26.1185 28.4662 26.1185 27.8823C26.1185 27.2985 25.4852 26.8235 24.7067 26.8235ZM24.7067 28.2694C24.4222 28.2694 24.1906 28.0958 24.1906 27.8823C24.1906 27.6689 24.4222 27.4953 24.7067 27.4953C24.9911 27.4953 25.2228 27.6689 25.2228 27.8823C25.2228 28.0958 24.9911 28.2694 24.7067 28.2694Z" fill="#0087C7"/>
<path d="M5.64648 5.64706H7.76413V6.35294H5.64648V5.64706Z" fill="#0087C7"/>
<path d="M9.17578 5.64706H11.2934V6.35294H9.17578V5.64706Z" fill="#0087C7"/>
<path d="M12.7051 5.64706H14.8227V6.35294H12.7051V5.64706Z" fill="#0087C7"/>
<path d="M5.64648 13.4118H7.76413V14.1176H5.64648V13.4118Z" fill="#0087C7"/>
<path d="M9.17578 13.4118H11.2934V14.1176H9.17578V13.4118Z" fill="#0087C7"/>
<path d="M12.7051 13.4118H14.8227V14.1176H12.7051V13.4118Z" fill="#0087C7"/>
<path d="M24.7417 10.2142C23.5538 10.2142 22.4381 10.3054 21.4314 10.4725H21.1369V9.3927H22.4363L22.8465 8.9825V3.23372L22.4363 2.82353H3.23439L2.82422 3.23372V8.9825L3.23439 9.3927H4.53381V10.4725H3.23439L2.82422 10.8827V16.6316L3.23439 17.0418H5.09813V27.7523L5.5083 28.1625H8.36591C8.55249 28.9653 9.2735 29.5652 10.1321 29.5652C10.9906 29.5652 11.7119 28.9653 11.8985 28.1625H16.3074V29.7036C16.3074 30.2013 16.5433 30.6916 16.9887 31.1213C18.2792 32.3697 21.3225 33.1765 24.7417 33.1765C29.55 33.1765 33.1759 31.6834 33.1759 29.7036V13.7493C33.1766 13.7291 33.1772 13.7088 33.1772 13.6885C33.1772 11.7079 29.5506 10.2142 24.7417 10.2142ZM3.64457 3.64392H22.0262V8.57231H3.64457V3.64392ZM20.3166 9.3927V10.4715H5.35416V9.3927H20.3166ZM32.3568 13.6877H32.3555V13.7301C32.2875 14.9745 29.1797 16.3424 24.7417 16.3424C20.3036 16.3424 17.1958 14.9745 17.1278 13.7301V13.6877H17.1265C17.1278 12.4326 20.255 11.0346 24.7417 11.0346C29.2283 11.0346 32.3555 12.4326 32.3568 13.6877ZM30.1095 24.7566C30.1095 27.7166 27.7016 30.1245 24.7417 30.1245C21.7817 30.1245 19.3738 27.7166 19.3738 24.7566C19.3738 21.7967 21.7817 19.3887 24.7417 19.3887C27.7016 19.3887 30.1095 21.7967 30.1095 24.7566ZM18.6618 25.9128C17.7069 25.4601 17.1491 24.9171 17.1278 24.3969V20.567C17.6443 21.0157 18.3938 21.4115 19.3456 21.7297C18.8414 22.6251 18.5535 23.6579 18.5535 24.7566C18.5535 25.1517 18.5908 25.5381 18.6618 25.9128ZM10.0343 18.9358C10.582 18.9358 11.0274 19.3812 11.0274 19.9287C11.0274 20.4764 10.582 20.9218 10.0343 20.9218C9.48668 20.9218 9.04125 20.4764 9.04125 19.9287C9.04125 19.3812 9.48668 18.9358 10.0343 18.9358ZM10.4432 21.6957C11.2468 21.5098 11.8477 20.7881 11.8477 19.9287C11.8477 19.0694 11.2468 18.3478 10.4432 18.1619V17.0418H16.3074V19.0271H16.3068C16.3068 19.0396 16.3071 19.0521 16.3074 19.0646V22.817H10.4432V21.6957ZM3.64457 11.2929H18.5232C17.1341 11.9071 16.3062 12.7422 16.3062 13.6885C16.3062 13.7088 16.3067 13.7291 16.3074 13.7493V16.2214H3.64457V11.2929ZM10.1321 28.7448C9.58473 28.7448 9.13931 28.2994 9.13931 27.7517C9.13931 27.204 9.58473 26.7586 10.1321 26.7586C10.6797 26.7586 11.1251 27.204 11.1251 27.7517C11.1251 28.2994 10.6797 28.7448 10.1321 28.7448ZM11.8988 27.3421C11.7127 26.5387 10.9911 25.9382 10.1321 25.9382C9.27304 25.9382 8.55167 26.5387 8.36559 27.3421H5.91848V17.0418H9.62287V18.1625C8.82056 18.3494 8.2209 19.0703 8.2209 19.9287C8.2209 20.7872 8.82056 21.5082 9.62287 21.6951V23.2272L10.033 23.6374H16.3074V24.366H16.3068C16.3068 24.3801 16.3071 24.3942 16.3074 24.4083V27.3421H11.8988ZM24.7417 32.3561C21.5734 32.3561 18.6871 31.6229 17.5588 30.5312C17.2726 30.2555 17.1278 29.9771 17.1278 29.7036V25.9101C17.5678 26.2908 18.1785 26.6329 18.9446 26.9225C19.8244 29.2697 22.0911 30.9449 24.7417 30.9449C27.3923 30.9449 29.659 29.2697 30.5387 26.9223C31.3049 26.6327 31.9156 26.2905 32.3555 25.9096V29.7036C32.3555 30.9582 29.2286 32.3561 24.7417 32.3561ZM30.8215 25.9125C30.8926 25.538 30.9299 25.1516 30.9299 24.7566C30.9299 23.6582 30.6421 22.6257 30.1381 21.7305C31.0898 21.4125 31.8392 21.0166 32.3555 20.5677V24.366C32.3555 24.8954 31.7949 25.4509 30.8215 25.9125ZM29.6706 21.0191C28.5394 19.5309 26.7509 18.5683 24.7417 18.5683C22.7328 18.5683 20.9445 19.5306 19.8133 21.0184C18.1701 20.5069 17.1537 19.7676 17.1278 19.0549V15.2351C18.4615 16.397 21.2984 17.1628 24.7417 17.1628C28.1849 17.1628 31.0218 16.397 32.3555 15.2351V19.0271C32.3555 19.7491 31.3346 20.5015 29.6706 21.0191Z" fill="#0087C7"/>
</svg>
