<svg width="36" height="36" viewBox="0 0 36 36" fill="none" xmlns="http://www.w3.org/2000/svg">
<path d="M23.2089 32.4138C20.9717 33.2948 18.571 33.6043 16.2006 33.3175C13.8301 33.0307 11.5562 32.1555 9.56234 30.7626C9.43298 30.6758 9.27677 30.6464 9.12725 30.6807C8.97773 30.715 8.84681 30.8102 8.76259 30.946C8.67837 31.0817 8.64756 31.2472 8.67678 31.4069C8.706 31.5665 8.79291 31.7076 8.91887 31.7999C11.0654 33.3024 13.5145 34.2463 16.0679 34.5551C18.6213 34.864 21.2072 34.5292 23.6163 33.5778C23.6885 33.5497 23.7548 33.5066 23.8113 33.4512C23.8679 33.3957 23.9136 33.3289 23.9458 33.2546C23.978 33.1803 23.996 33.0999 23.9989 33.0182C24.0018 32.9364 23.9895 32.8548 23.9627 32.7782C23.9359 32.7015 23.895 32.6312 23.8426 32.5714C23.7901 32.5115 23.7271 32.4633 23.657 32.4294C23.587 32.3955 23.5113 32.3767 23.4344 32.374C23.3575 32.3714 23.2809 32.3849 23.2089 32.4138Z" fill="#0087C7"/>
<path d="M6.91885 26.65C6.841 26.6418 6.76229 26.6494 6.68744 26.6723C6.61258 26.6952 6.54312 26.733 6.48321 26.7834C6.42331 26.8338 6.37418 26.8957 6.33877 26.9655C6.30337 27.0353 6.28241 27.1115 6.27716 27.1896L6.2128 27.9353C-2.31107 18.0729 4.88393 2.4678 17.9399 2.51922C20.9528 2.5164 23.9 3.39888 26.4152 5.05694C26.5466 5.14249 26.7065 5.17254 26.8601 5.14051C27.0136 5.10849 27.1481 5.017 27.2344 4.88605C27.3206 4.7551 27.3514 4.59536 27.3201 4.44175C27.2888 4.28815 27.1979 4.15319 27.0673 4.06638C24.3585 2.28097 21.1844 1.33063 17.9397 1.33348C3.9374 1.27913 -3.82775 17.9601 5.2243 28.6047L4.38386 28.487C4.30674 28.4762 4.22825 28.4807 4.15287 28.5002C4.07748 28.5197 4.00668 28.5539 3.94451 28.6008C3.81895 28.6955 3.73616 28.8361 3.71435 28.9918C3.69254 29.1475 3.73349 29.3055 3.8282 29.431C3.92291 29.5565 4.06362 29.6393 4.21937 29.6611L6.59856 29.9943C6.67831 30.0054 6.7595 30.0003 6.83719 29.9791C6.91487 29.9579 6.98741 29.921 7.05039 29.8709C7.11337 29.8207 7.16546 29.7582 7.20348 29.6873C7.24151 29.6163 7.26467 29.5384 7.27155 29.4582L7.45862 27.2915C7.46533 27.2139 7.45669 27.1358 7.43319 27.0616C7.40969 26.9874 7.3718 26.9185 7.32167 26.859C7.27155 26.7994 7.21017 26.7503 7.14106 26.7144C7.07194 26.6786 6.99643 26.6567 6.91885 26.65Z" fill="#0087C7"/>
<path d="M29.1692 9.37931C29.3201 9.3978 29.472 9.35498 29.5918 9.26024C29.7115 9.16549 29.7893 9.02655 29.808 8.87384L29.9014 8.10746C31.6426 10.1546 32.8104 12.6369 33.2833 15.296C33.7561 17.9551 33.5168 20.694 32.5901 23.2277C32.5407 23.3712 32.5487 23.5286 32.6126 23.6662C32.6764 23.8037 32.7909 23.9105 32.9316 23.9635C33.0722 24.0165 33.2278 24.0116 33.3649 23.9499C33.5021 23.8881 33.6098 23.7744 33.6651 23.6331C34.6652 20.8981 34.9218 17.9414 34.408 15.0718C33.8942 12.2022 32.629 9.52487 30.7444 7.31959L31.6344 7.43086C31.7091 7.44017 31.785 7.43448 31.8575 7.41411C31.9301 7.39375 31.998 7.35911 32.0573 7.31217C32.1167 7.26523 32.1663 7.20692 32.2034 7.14055C32.2405 7.07419 32.2643 7.00108 32.2735 6.92539C32.2827 6.8497 32.2771 6.77293 32.257 6.69944C32.2369 6.62595 32.2027 6.5572 32.1563 6.4971C32.11 6.437 32.0524 6.38673 31.9868 6.34917C31.9213 6.31161 31.8491 6.28748 31.7744 6.27818L29.5796 6.00404C29.4288 5.98607 29.277 6.02872 29.1569 6.12283C29.0975 6.16971 29.0479 6.228 29.0108 6.29435C28.9737 6.3607 28.9499 6.43382 28.9408 6.5095L28.6703 8.7321C28.6611 8.80777 28.6667 8.88454 28.6868 8.95802C28.7069 9.0315 28.7411 9.10025 28.7874 9.16035C28.8337 9.22045 28.8913 9.27072 28.9568 9.30829C29.0223 9.34586 29.0945 9.36999 29.1692 9.37931Z" fill="#0087C7"/>
<path d="M29.3314 24C27.9174 24.0016 26.5618 24.5659 25.5619 25.569C24.5621 26.5722 23.9997 27.9322 23.998 29.3508C24.2662 36.4396 34.3976 36.4377 34.6647 29.3508C34.6631 27.9321 34.1006 26.5721 33.1008 25.569C32.101 24.5659 30.7454 24.0016 29.3314 24ZM29.3314 33.4426C28.2501 33.4414 27.2135 33.0099 26.4489 32.2428C25.6843 31.4757 25.2542 30.4357 25.2529 29.3508C25.4445 23.9353 33.219 23.9367 33.4098 29.3509C33.4085 30.4357 32.9784 31.4757 32.2139 32.2428C31.4493 33.0099 30.4127 33.4414 29.3314 33.4426Z" fill="#0087C7"/>
<path d="M31.0527 28.1161L28.5832 30.0093L27.5968 29.332C27.5326 29.2878 27.4603 29.2567 27.384 29.2404C27.3077 29.2241 27.229 29.2229 27.1523 29.237C27.0756 29.2511 27.0024 29.2801 26.9369 29.3224C26.8715 29.3647 26.815 29.4194 26.7708 29.4835C26.7265 29.5476 26.6954 29.6197 26.6791 29.6958C26.6628 29.7719 26.6617 29.8505 26.6759 29.927C26.6901 30.0035 26.7192 30.0765 26.7616 30.1417C26.8041 30.207 26.859 30.2633 26.9233 30.3074L28.2656 31.229C28.369 31.3 28.4923 31.3364 28.6177 31.3331C28.7432 31.3299 28.8644 31.287 28.964 31.2108L31.7761 29.0551C31.8976 28.9583 31.9762 28.8177 31.995 28.6637C32.0138 28.5096 31.9712 28.3544 31.8764 28.2314C31.7816 28.1083 31.6422 28.0273 31.4882 28.0058C31.3342 27.9842 31.1778 28.0238 31.0527 28.1161Z" fill="#0087C7"/>
<path d="M25.998 8.4762C25.9977 8.1732 25.8679 7.88271 25.6371 7.66846C25.4064 7.45421 25.0936 7.33369 24.7673 7.33334H11.2288C10.9025 7.33369 10.5897 7.45421 10.3589 7.66846C10.1282 7.88271 9.99842 8.1732 9.99805 8.4762V14.1905C9.99842 14.4935 10.1282 14.784 10.3589 14.9982C10.5897 15.2125 10.9025 15.333 11.2288 15.3333H24.7673C25.0936 15.333 25.4064 15.2125 25.6371 14.9982C25.8679 14.784 25.9977 14.4935 25.998 14.1905V8.4762ZM11.2288 14.1905V8.4762H14.9211V9.04763C14.9211 9.19918 14.986 9.34453 15.1014 9.45169C15.2168 9.55885 15.3733 9.61906 15.5365 9.61906C15.6997 9.61906 15.8562 9.55885 15.9716 9.45169C16.0871 9.34453 16.1519 9.19918 16.1519 9.04763V8.4762H19.8442V9.04763C19.8442 9.19918 19.909 9.34453 20.0244 9.45169C20.1398 9.55885 20.2964 9.61906 20.4596 9.61906C20.6228 9.61906 20.7793 9.55885 20.8947 9.45169C21.0101 9.34453 21.075 9.19918 21.075 9.04763V8.4762H24.7673L24.7679 14.1905H11.2288Z" fill="#0087C7"/>
<path d="M24.7673 16.6667H11.2288C10.9025 16.6671 10.5897 16.7976 10.3589 17.0297C10.1282 17.2618 9.99842 17.5765 9.99805 17.9048V24.0953C9.99842 24.4235 10.1282 24.7382 10.3589 24.9703C10.5897 25.2024 10.9025 25.333 11.2288 25.3334H24.7673C25.0936 25.333 25.4064 25.2024 25.6371 24.9703C25.8679 24.7382 25.9977 24.4235 25.998 24.0953V17.9048C25.9977 17.5765 25.8679 17.2618 25.6371 17.0297C25.4064 16.7976 25.0936 16.6671 24.7673 16.6667ZM11.2288 24.0953V17.9048H14.9211V18.5238C14.9211 18.688 14.986 18.8455 15.1014 18.9616C15.2168 19.0777 15.3733 19.1429 15.5365 19.1429C15.6997 19.1429 15.8562 19.0777 15.9716 18.9616C16.0871 18.8455 16.1519 18.688 16.1519 18.5238V17.9048H19.8442V18.5238C19.8442 18.688 19.909 18.8455 20.0244 18.9616C20.1398 19.0777 20.2964 19.1429 20.4596 19.1429C20.6228 19.1429 20.7793 19.0777 20.8947 18.9616C21.0101 18.8455 21.075 18.688 21.075 18.5238V17.9048H24.7673L24.7679 24.0953H11.2288Z" fill="#0087C7"/>
</svg>
