<svg width="64" height="64" viewBox="0 0 64 64" fill="none" xmlns="http://www.w3.org/2000/svg">
<path d="M26.8467 1.64709C14.3402 1.64709 4.32422 11.8426 4.32422 24.1783C4.32422 36.3291 13.9729 46.183 25.9056 46.6765V51.6195C23.6322 51.9759 21.8276 53.7503 21.4283 56.0092H7.88212C7.36236 56.0092 6.94094 56.4302 6.94094 56.9504C6.94094 57.4706 7.36236 57.8916 7.88212 57.8916H21.4283C21.8756 60.4226 24.086 62.353 26.7433 62.353C29.4006 62.353 31.6106 60.4226 32.0579 57.8916H45.6041C46.1239 57.8916 46.5453 57.4706 46.5453 56.9504C46.5453 56.4302 46.1239 56.0092 45.6041 56.0092H32.0604C31.681 53.8079 29.9941 52.0838 27.7879 51.6542V46.6664C31.6092 46.5083 35.3011 45.3982 38.5787 43.3895C40.8455 45.2923 43.7443 46.3998 46.8279 46.3998C53.9115 46.3998 59.6749 40.6324 59.6749 33.5432C59.6749 26.4596 53.9115 20.6958 46.8279 20.6958C44.2807 20.6958 41.8246 21.4572 39.7312 22.8484C39.7073 22.0816 39.6702 21.3307 39.605 20.6204C39.5577 20.102 39.1138 19.7215 38.582 19.7684C38.0646 19.8162 37.6831 20.2739 37.7309 20.7914C37.8017 21.5653 37.838 22.3913 37.8573 23.2372H27.7879V20.6581C27.7879 20.1379 27.3665 19.7169 26.8467 19.7169C26.327 19.7169 25.9056 20.1379 25.9056 20.6581V23.2372H15.8287C15.9322 18.9449 16.7383 14.9901 18.0373 11.7673C20.5188 12.819 23.1819 13.4226 25.906 13.5368V15.8438C25.906 16.364 26.3274 16.7849 26.8472 16.7849C27.367 16.7849 27.7884 16.364 27.7884 15.8438V13.537C30.5088 13.4233 33.1654 12.8222 35.6387 11.775C35.9439 12.5263 36.225 13.3201 36.4777 14.1553C36.628 14.6526 37.1528 14.9329 37.651 14.7831C38.1487 14.6324 38.4299 14.1076 38.2792 13.6094C37.9991 12.6836 37.685 11.8019 37.3407 10.9676C38.5042 10.355 39.6127 9.64019 40.6562 8.82608C43.2951 11.2011 45.3454 14.2639 46.497 17.8235C46.6574 18.319 47.1859 18.591 47.6822 18.4292C48.1772 18.2693 48.4483 17.739 48.2884 17.2445C45.2591 7.88344 36.5468 1.64709 26.8467 1.64709ZM20.2898 4.60378C20.3163 4.59493 20.3427 4.58563 20.3692 4.57678C20.38 4.57333 20.3912 4.57104 20.4019 4.56747C19.1522 5.79966 18.039 7.38399 17.1027 9.25083C16.2069 8.77266 15.3416 8.23406 14.522 7.62502C16.2559 6.329 18.195 5.30286 20.2898 4.60378ZM6.23041 25.1195H13.9468C14.0506 29.7275 14.9129 33.9362 16.3271 37.3905C15.1762 37.9977 14.079 38.7052 13.0447 39.5093C9.06721 35.9251 6.48771 30.8201 6.23041 25.1195ZM33.2309 43.7964C34.2007 42.8449 35.0998 41.6747 35.9031 40.3008C36.2839 40.9187 36.7166 41.4946 37.1885 42.0317C35.5936 42.9576 34.419 43.4122 33.2309 43.7964ZM27.7879 44.7337V36.6731C30.2508 36.7815 32.6239 37.3197 34.8632 38.2719C32.9823 41.9998 30.4576 44.2939 27.7879 44.7337ZM25.9056 44.7376C23.1125 44.2937 20.6139 41.8959 18.8013 38.2769C21.0403 37.3323 23.4477 36.7992 25.9056 36.6868V44.7376ZM20.3975 43.7769C18.3548 43.1083 16.3141 42.0626 14.5218 40.7241C15.3407 40.1142 16.2054 39.5752 17.1009 39.0964C18.0365 40.9618 19.1488 42.5451 20.3975 43.7769ZM30.2631 56.9504C30.2631 58.8916 28.6841 60.4706 26.7433 60.4706C24.8022 60.4706 23.2231 58.8916 23.2231 56.9504C23.2231 55.0092 24.8022 53.4302 26.7433 53.4302H26.8247C28.7525 53.4752 30.2631 55.0221 30.2631 56.9504ZM57.7925 33.5432C57.7925 39.5947 52.8739 44.5175 46.8279 44.5175C40.7732 44.5175 35.8633 39.5966 35.8633 33.5432C35.8633 30.4614 37.168 27.5083 39.4428 25.4385C41.4676 23.5938 44.0903 22.5782 46.8279 22.5782C52.8739 22.5782 57.7925 27.4973 57.7925 33.5432ZM37.1369 25.1195C35.12 27.4405 33.9809 30.4347 33.9809 33.5432C33.9809 34.3828 34.067 35.2051 34.2232 36.0083C32.1611 35.2897 30.0071 34.8803 27.7879 34.7907V25.1195H37.1369ZM25.9056 34.8079C23.1795 34.9219 20.5159 35.5261 18.0352 36.5786C16.7374 33.3583 15.9322 29.4073 15.8287 25.1195H25.9056L25.9056 34.8079ZM13.9468 23.2372H6.23041C6.48759 17.5338 9.06698 12.4265 13.0445 8.84056C14.0799 9.64364 15.1778 10.35 16.329 10.9564C14.9136 14.4133 14.0506 18.6253 13.9468 23.2372ZM18.8034 10.0693C20.6159 6.45087 23.1139 4.05369 25.906 3.60976V11.6579C23.45 11.5456 21.0431 11.0131 18.8034 10.0693ZM27.7884 11.6579V3.61585C30.4901 4.05886 33.0059 6.38733 34.8651 10.0791C32.6356 11.0166 30.2381 11.5463 27.7884 11.6579ZM36.5557 9.26933C35.5941 7.36377 34.4602 5.7706 33.2027 4.54117C35.3428 5.23165 37.3647 6.26371 39.1744 7.61585C38.344 8.23625 37.466 8.78438 36.5557 9.26933Z" fill="black"/>
<path d="M45.8841 35.3813V38.0423C45.8841 38.5625 46.3055 38.9835 46.8252 38.9835C47.345 38.9835 47.7664 38.5625 47.7664 38.0423V35.3813C49.3509 34.9619 50.5279 33.5296 50.5279 31.8153C50.5279 29.773 48.8671 28.1122 46.8252 28.1122C44.7839 28.1122 43.123 29.773 43.123 31.8153C43.123 33.5295 44.2999 34.9618 45.8841 35.3813ZM46.8252 29.9945C47.8289 29.9945 48.6456 30.8116 48.6456 31.8153C48.6456 32.819 47.8289 33.6352 46.8252 33.6352C45.8216 33.6352 45.0054 32.819 45.0054 31.8153C45.0054 30.8116 45.8216 29.9945 46.8252 29.9945Z" fill="black"/>
</svg>
