<svg width="64" height="64" viewBox="0 0 64 64" fill="none" xmlns="http://www.w3.org/2000/svg">
<path d="M63 54H59V19C59 17.346 57.654 16 56 16H49C49 14.897 48.103 14 47 14V12C48.103 12 49 11.103 49 10V4C49 2.897 48.103 2 47 2H29C27.897 2 27 2.897 27 4V10C27 11.103 27.897 12 29 12V14C27.897 14 27 14.897 27 16H8C6.346 16 5 17.346 5 19V54H1C0.448 54 0 54.448 0 55V59C0 60.654 1.346 62 3 62H61C62.654 62 64 60.654 64 59V55C64 54.448 63.552 54 63 54ZM45 24V26H31V24H45ZM29 34V28H47V34H29ZM29 24V26C27.897 26 27 26.897 27 28V34C27 35.103 27.897 36 29 36H37V40H24.899C24.434 37.721 22.415 36 20 36C17.243 36 15 38.243 15 41C15 43.757 17.243 46 20 46C22.414 46 24.434 44.279 24.899 42H38C38.552 42 39 41.552 39 41V36H47C48.103 36 49 35.103 49 34V28C49 26.897 48.103 26 47 26V24C48.103 24 49 23.103 49 22H53V50H11V22H27C27 23.103 27.897 24 29 24ZM23 41C23 42.654 21.654 44 20 44C18.346 44 17 42.654 17 41C17 39.346 18.346 38 20 38C21.654 38 23 39.346 23 41ZM29 4H47V10H29V4ZM31 12H45V14H31V12ZM29 16H47V22H29V16ZM7 19C7 18.449 7.449 18 8 18H27V20H10C9.448 20 9 20.448 9 21V51C9 51.552 9.448 52 10 52H54C54.552 52 55 51.552 55 51V21C55 20.448 54.552 20 54 20H49V18H56C56.551 18 57 18.449 57 19V54H39C38.845 54 38.691 54.036 38.553 54.105L36.764 55H27.236L25.447 54.105C25.309 54.036 25.155 54 25 54H7V19ZM62 59C62 59.551 61.551 60 61 60H3C2.449 60 2 59.551 2 59V56H24.764L26.553 56.895C26.691 56.964 26.845 57 27 57H37C37.155 57 37.309 56.964 37.447 56.895L39.236 56H62V59Z" fill="black"/>
<path d="M32 8H33C33.552 8 34 7.552 34 7C34 6.448 33.552 6 33 6H32C31.448 6 31 6.448 31 7C31 7.552 31.448 8 32 8Z" fill="black"/>
<path d="M32 20H33C33.552 20 34 19.552 34 19C34 18.448 33.552 18 33 18H32C31.448 18 31 18.448 31 19C31 19.552 31.448 20 32 20Z" fill="black"/>
<path d="M33 30H32C31.448 30 31 30.448 31 31C31 31.552 31.448 32 32 32H33C33.552 32 34 31.552 34 31C34 30.448 33.552 30 33 30Z" fill="black"/>
<path d="M14 26C14.5523 26 15 25.5523 15 25C15 24.4477 14.5523 24 14 24C13.4477 24 13 24.4477 13 25C13 25.5523 13.4477 26 14 26Z" fill="black"/>
<path d="M22 26C22.5523 26 23 25.5523 23 25C23 24.4477 22.5523 24 22 24C21.4477 24 21 24.4477 21 25C21 25.5523 21.4477 26 22 26Z" fill="black"/>
<path d="M18 26C18.5523 26 19 25.5523 19 25C19 24.4477 18.5523 24 18 24C17.4477 24 17 24.4477 17 25C17 25.5523 17.4477 26 18 26Z" fill="black"/>
<path d="M20 42C20.5523 42 21 41.5523 21 41C21 40.4477 20.5523 40 20 40C19.4477 40 19 40.4477 19 41C19 41.5523 19.4477 42 20 42Z" fill="black"/>
</svg>
