<svg width="64" height="64" viewBox="0 0 64 64" fill="none" xmlns="http://www.w3.org/2000/svg">
<path d="M28.1579 46.2222H26.3602C25.5475 46.2222 24.8887 46.7528 24.8887 47.4074C24.8887 48.0619 25.5475 48.5925 26.3602 48.5925H28.1579C28.9705 48.5925 29.6294 48.0619 29.6294 47.4074C29.6294 46.7528 28.9705 46.2222 28.1579 46.2222Z" fill="black"/>
<path d="M32.0005 9.48145C29.3867 9.48145 27.2598 11.6253 27.2598 14.2605C27.2598 14.8697 27.3726 15.4646 27.5903 16.0127C27.3726 16.5546 27.2598 17.1439 27.2598 17.7506C27.2598 20.3796 29.3867 22.5185 32.0005 22.5185C34.6143 22.5185 36.7412 20.3796 36.7412 17.7506C36.7412 17.1439 36.6302 16.5528 36.4169 16.0078C36.6302 15.4571 36.7412 14.8641 36.7412 14.2605C36.7412 11.6253 34.6143 9.48145 32.0005 9.48145ZM33.9179 16.665C34.1008 16.973 34.2013 17.359 34.2013 17.7506C34.2013 18.971 33.2141 19.9643 32.0005 19.9643C30.787 19.9643 29.7997 18.971 29.7997 17.7506C29.7997 17.3615 29.8977 16.9967 30.0831 16.6956C30.2078 16.4935 30.2735 16.2491 30.2735 16.0115C30.2735 15.7783 30.2102 15.5494 30.0899 15.3499C29.8971 15.03 29.7997 14.664 29.7997 14.2605C29.7997 13.0339 30.787 12.0356 32.0005 12.0356C33.2141 12.0356 34.2013 13.0339 34.2013 14.2605C34.2013 14.664 34.1039 15.0369 33.9117 15.3692C33.6798 15.7702 33.6822 16.2659 33.9179 16.665Z" fill="black"/>
<path d="M22.5192 10.6666C21.8647 10.6666 21.334 11.2043 21.334 11.8675V24.8732C21.334 25.5363 21.8647 26.074 22.5192 26.074C23.1737 26.074 23.7044 25.5363 23.7044 24.8732V11.8675C23.7044 11.2043 23.1737 10.6666 22.5192 10.6666Z" fill="black"/>
<path d="M18.9625 10.6666C18.308 10.6666 17.7773 11.1723 17.7773 11.796V19.0187C17.7773 19.6424 18.308 20.1481 18.9625 20.1481C19.617 20.1481 20.1477 19.6424 20.1477 19.0187V11.796C20.1477 11.1723 19.617 10.6666 18.9625 10.6666Z" fill="black"/>
<path d="M58.2547 39.8789H48.2945V36.6114C48.2945 34.2834 50.2175 32.39 52.5817 32.39C54.9459 32.39 56.8688 34.2834 56.8688 36.6114C56.8688 37.2827 57.4216 37.827 58.1033 37.827C58.7851 37.827 59.3379 37.2827 59.3379 36.6114C59.3379 32.9431 56.307 29.9587 52.5817 29.9587C52.5102 29.9587 52.441 29.9671 52.3701 29.9693V17.1728C52.3701 14.4247 50.1108 12.1887 47.333 12.1887H41.8662V8.58165C41.8662 6.46383 40.1163 4.74072 37.9649 4.74072H16.7781C14.6273 4.74072 12.8774 6.46383 12.8774 8.58165V12.1887H7.39547C4.62498 12.1887 2.37109 14.4134 2.37109 17.1485V43.0895V47.2468C2.37109 47.4112 2.38194 47.5631 2.39943 47.7762C2.39965 47.7791 2.40191 47.802 2.40236 47.808C2.40236 47.8076 2.40236 47.8083 2.40236 47.808C2.42248 48.0572 2.67317 50.8081 3.84374 51.9596C4.67019 52.774 5.75825 53.2827 6.92166 53.3937C7.07839 53.4085 7.23512 53.4222 7.42018 53.4222H20.142L17.7694 56.828H15.1517C14.47 56.828 13.9172 57.3723 13.9172 58.0436C13.9172 58.7149 14.47 59.2592 15.1517 59.2592H18.4195H36.3301H39.5979C40.2796 59.2592 40.8324 58.7149 40.8324 58.0436C40.8324 57.3723 40.2796 56.828 39.5979 56.828H36.9802L34.6076 53.4222H43.5318V53.5041C43.5318 55.337 45.046 56.828 46.9069 56.828H58.2547C60.1161 56.828 61.6304 55.337 61.6304 53.5041V43.2028C61.6304 41.3699 60.1161 39.8789 58.2547 39.8789ZM20.7633 56.828L23.1329 53.4269H31.6167L33.9864 56.828H20.7633ZM15.3465 8.58165C15.3465 7.80409 15.9884 7.17195 16.7781 7.17195H37.9649C38.7545 7.17195 39.3971 7.80409 39.3971 8.58165V13.3926C39.3971 13.3968 39.3947 13.4002 39.3947 13.4043C39.3947 13.4085 39.3971 13.4119 39.3971 13.4161V35.6076H15.3465V8.58165ZM7.39547 14.6199H12.8774V35.6076H10.9797C10.298 35.6076 9.7452 36.1519 9.7452 36.8233C9.7452 37.4946 10.298 38.0389 10.9797 38.0389H14.1119H40.6317H43.7638C44.4456 38.0389 44.9984 37.4946 44.9984 36.8233C44.9984 36.1519 44.4456 35.6076 43.7638 35.6076H41.8662V14.6199H47.333C48.749 14.6199 49.901 15.7649 49.901 17.1728V30.5077C47.5061 31.5316 45.8254 33.881 45.8254 36.6114V40.0697C44.9275 40.3716 44.1958 41.0245 43.8175 41.8739H4.84018V17.1485C4.84018 15.7542 5.98671 14.6199 7.39547 14.6199ZM7.41596 50.9909C6.34659 50.9844 5.03187 49.2204 4.85766 47.5435C4.84922 47.4385 4.84018 47.3465 4.84018 47.2468V44.3051H43.5318V50.9909H7.41596ZM59.1613 53.5041C59.1613 53.9961 58.7544 54.3968 58.2547 54.3968H46.9069C46.4071 54.3968 46.0009 53.9961 46.0009 53.5041V43.2028C46.0009 42.7108 46.4071 42.3101 46.9069 42.3101H47.0361C47.0445 42.3103 47.0515 42.3149 47.06 42.3149H58.1033C58.1118 42.3149 58.1188 42.3103 58.1272 42.3101H58.2547C58.7544 42.3101 59.1613 42.7108 59.1613 43.2028V53.5041Z" fill="black"/>
</svg>
