<svg width="64" height="64" viewBox="0 0 64 64" fill="none" xmlns="http://www.w3.org/2000/svg">
<g clip-path="url(#clip0_21086_3369)">
<path d="M39.9786 14.483C39.9786 12.9049 39.5107 11.3623 38.634 10.0502C37.7572 8.73813 36.5111 7.71547 35.0532 7.11158C33.5952 6.5077 31.991 6.3497 30.4433 6.65757C28.8955 6.96544 27.4738 7.72536 26.358 8.84122C25.2422 9.95708 24.4823 11.3788 24.1744 12.9265C23.8666 14.4742 24.0246 16.0785 24.6285 17.5364C25.2324 18.9943 26.2551 20.2404 27.5672 21.1171C28.8793 21.9939 30.4219 22.4618 32 22.4618C34.1154 22.4594 36.1434 21.618 37.6392 20.1222C39.135 18.6264 39.9763 16.5984 39.9786 14.483ZM26.0212 14.483C26.0212 13.3005 26.3719 12.1446 27.0289 11.1614C27.6858 10.1782 28.6196 9.41187 29.712 8.95936C30.8045 8.50684 32.0066 8.38844 33.1664 8.61913C34.3262 8.84982 35.3915 9.41924 36.2276 10.2554C37.0638 11.0915 37.6332 12.1568 37.8639 13.3166C38.0946 14.4764 37.9762 15.6785 37.5236 16.771C37.0711 17.8634 36.3048 18.7972 35.3216 19.4541C34.3384 20.1111 33.1825 20.4618 32 20.4618C30.4149 20.46 28.8952 19.8295 27.7743 18.7087C26.6535 17.5878 26.023 16.0681 26.0212 14.483ZM33.725 50.1596C33.725 50.4248 33.6196 50.6792 33.4321 50.8667C33.2446 51.0543 32.9902 51.1596 32.725 51.1596H31.275C31.0098 51.1596 30.7554 51.0543 30.5679 50.8667C30.3804 50.6792 30.275 50.4248 30.275 50.1596C30.275 49.8944 30.3804 49.6401 30.5679 49.4525C30.7554 49.265 31.0098 49.1596 31.275 49.1596H32.725C32.9902 49.1596 33.2446 49.265 33.4321 49.4525C33.6196 49.6401 33.725 49.8944 33.725 50.1596ZM33.725 55.2707C33.725 55.536 33.6196 55.7903 33.4321 55.9779C33.2446 56.1654 32.9902 56.2707 32.725 56.2707H31.275C31.0098 56.2707 30.7554 56.1654 30.5679 55.9779C30.3804 55.7903 30.275 55.536 30.275 55.2707C30.275 55.0055 30.3804 54.7512 30.5679 54.5636C30.7554 54.3761 31.0098 54.2707 31.275 54.2707H32.725C32.9902 54.2707 33.2446 54.3761 33.4321 54.5636C33.6196 54.7512 33.725 55.0055 33.725 55.2707ZM33.725 60.382C33.725 60.6472 33.6196 60.9016 33.4321 61.0891C33.2446 61.2766 32.9902 61.382 32.725 61.382H31.275C31.0098 61.382 30.7554 61.2766 30.5679 61.0891C30.3804 60.9016 30.275 60.6472 30.275 60.382C30.275 60.1168 30.3804 59.8624 30.5679 59.6749C30.7554 59.4874 31.0098 59.382 31.275 59.382H32.725C32.9902 59.382 33.2446 59.4874 33.4321 59.6749C33.6196 59.8624 33.725 60.1168 33.725 60.382ZM12.1551 50.1596C12.1551 50.4248 12.0498 50.6792 11.8622 50.8667C11.6747 51.0543 11.4203 51.1596 11.1551 51.1596H9.70512C9.43991 51.1596 9.18555 51.0543 8.99802 50.8667C8.81048 50.6792 8.70512 50.4248 8.70512 50.1596C8.70512 49.8944 8.81048 49.6401 8.99802 49.4525C9.18555 49.265 9.43991 49.1596 9.70512 49.1596H11.1551C11.4203 49.1596 11.6747 49.265 11.8622 49.4525C12.0498 49.6401 12.1551 49.8944 12.1551 50.1596ZM12.1551 55.2707C12.1551 55.536 12.0498 55.7903 11.8622 55.9779C11.6747 56.1654 11.4203 56.2707 11.1551 56.2707H9.70512C9.43991 56.2707 9.18555 56.1654 8.99802 55.9779C8.81048 55.7903 8.70512 55.536 8.70512 55.2707C8.70512 55.0055 8.81048 54.7512 8.99802 54.5636C9.18555 54.3761 9.43991 54.2707 9.70512 54.2707H11.1551C11.4203 54.2707 11.6747 54.3761 11.8622 54.5636C12.0498 54.7512 12.1551 55.0055 12.1551 55.2707ZM12.1551 60.382C12.1551 60.6472 12.0498 60.9016 11.8622 61.0891C11.6747 61.2766 11.4203 61.382 11.1551 61.382H9.70512C9.43991 61.382 9.18555 61.2766 8.99802 61.0891C8.81048 60.9016 8.70512 60.6472 8.70512 60.382C8.70512 60.1168 8.81048 59.8624 8.99802 59.6749C9.18555 59.4874 9.43991 59.382 9.70512 59.382H11.1551C11.4203 59.382 11.6747 59.4874 11.8622 59.6749C12.0498 59.8624 12.1551 60.1168 12.1551 60.382ZM54.5698 40.2839V34.5849C54.5698 34.3197 54.4644 34.0653 54.2769 33.8778C54.0893 33.6902 53.835 33.5849 53.5698 33.5849H33V28.9036H34.2396C34.5048 28.9036 34.7592 28.7983 34.9467 28.6107C35.1343 28.4232 35.2396 28.1688 35.2396 27.9036V26.4486C36.2648 26.1725 37.2497 25.7642 38.1695 25.234L39.199 26.2635C39.2919 26.3564 39.4021 26.43 39.5234 26.4803C39.6448 26.5305 39.7748 26.5564 39.9061 26.5564C40.0375 26.5564 40.1675 26.5305 40.2888 26.4803C40.4102 26.43 40.5204 26.3564 40.6133 26.2635L43.7805 23.0964C43.8734 23.0035 43.9471 22.8933 43.9973 22.7719C44.0476 22.6506 44.0735 22.5205 44.0735 22.3892C44.0735 22.2578 44.0476 22.1278 43.9973 22.0065C43.9471 21.8851 43.8734 21.7749 43.7805 21.682L42.751 20.6526C43.2812 19.7327 43.6895 18.7477 43.9656 17.7225H45.4205C45.6857 17.7225 45.9401 17.6171 46.1276 17.4296C46.3151 17.2421 46.4205 16.9877 46.4205 16.7225V12.2435C46.4205 11.9783 46.3151 11.7239 46.1276 11.5364C45.9401 11.3489 45.6857 11.2435 45.4205 11.2435H43.9655C43.6894 10.2184 43.2811 9.23347 42.751 8.31363L43.7805 7.28387C43.968 7.09635 44.0733 6.84204 44.0733 6.57688C44.0733 6.31171 43.968 6.0574 43.7805 5.86987L40.6134 2.70263C40.5205 2.60976 40.4103 2.5361 40.2889 2.48584C40.1676 2.43558 40.0376 2.40971 39.9062 2.40971C39.7749 2.40971 39.6449 2.43558 39.5236 2.48584C39.4022 2.5361 39.292 2.60976 39.1991 2.70263L38.1695 3.73225C37.2497 3.20209 36.2648 2.79384 35.2396 2.51775V1.0625C35.2396 0.797284 35.1343 0.54293 34.9467 0.355393C34.7592 0.167857 34.5048 0.0625 34.2396 0.0625H29.7605C29.4953 0.0625 29.2409 0.167857 29.0534 0.355393C28.8659 0.54293 28.7605 0.797284 28.7605 1.0625V2.51763C27.7353 2.79362 26.7504 3.20184 25.8305 3.732L24.801 2.7025C24.7081 2.60964 24.5979 2.53597 24.4766 2.48571C24.3552 2.43546 24.2252 2.40959 24.0939 2.40959C23.9625 2.40959 23.8325 2.43546 23.7112 2.48571C23.5899 2.53597 23.4796 2.60964 23.3867 2.7025L20.2195 5.86975C20.1266 5.96261 20.053 6.07285 20.0027 6.19418C19.9525 6.31551 19.9266 6.44555 19.9266 6.57688C19.9266 6.7082 19.9525 6.83824 20.0027 6.95957C20.053 7.0809 20.1266 7.19114 20.2195 7.284L21.249 8.3135C20.7188 9.23339 20.3105 10.2183 20.0344 11.2435H18.5796C18.3144 11.2435 18.0601 11.3489 17.8725 11.5364C17.685 11.7239 17.5796 11.9783 17.5796 12.2435V16.7225C17.5796 16.9877 17.685 17.2421 17.8725 17.4296C18.0601 17.6171 18.3144 17.7225 18.5796 17.7225H20.0344C20.3105 18.7478 20.7188 19.7328 21.249 20.6528L20.2196 21.682C20.1267 21.7749 20.0531 21.8851 20.0028 22.0065C19.9525 22.1278 19.9267 22.2578 19.9267 22.3892C19.9267 22.5205 19.9525 22.6506 20.0028 22.7719C20.0531 22.8933 20.1267 23.0035 20.2196 23.0964L23.3869 26.2635C23.4797 26.3564 23.59 26.43 23.7113 26.4803C23.8326 26.5305 23.9627 26.5564 24.094 26.5564C24.2253 26.5564 24.3554 26.5305 24.4767 26.4803C24.598 26.43 24.7083 26.3564 24.8011 26.2635L25.8306 25.234C26.7505 25.7643 27.7354 26.1726 28.7606 26.4486V27.9036C28.7606 28.1688 28.866 28.4232 29.0535 28.6107C29.2411 28.7983 29.4954 28.9036 29.7606 28.9036H31V33.5849H10.4303C10.165 33.5849 9.91068 33.6902 9.72314 33.8778C9.53561 34.0653 9.43025 34.3197 9.43025 34.5849V40.2839C4.7455 40.4469 0.0625 41.7614 0.0625 44.4351V59.7685C0.0625 62.6329 5.4375 63.9375 10.4303 63.9375C15.423 63.9375 20.7981 62.6329 20.7981 59.7685V44.4351C20.7981 41.7614 16.115 40.4469 11.4303 40.2839V35.5849H31V40.2839C26.3152 40.4464 21.6322 41.7614 21.6322 44.4351V59.7685C21.6322 62.6329 27.0072 63.9375 32 63.9375C36.9928 63.9375 42.3677 62.6329 42.3677 59.7685V44.4351C42.3677 41.7614 37.6848 40.4469 33 40.2839V35.5849H52.5698V40.2839C47.885 40.4464 43.2019 41.7614 43.2019 44.4351V59.7685C43.2019 62.6329 48.5769 63.9375 53.5698 63.9375C58.5626 63.9375 63.9375 62.6329 63.9375 59.7685V44.4351C63.9375 41.7614 59.2545 40.4469 54.5698 40.2839ZM29.956 24.675C28.6276 24.4112 27.3643 23.8876 26.2388 23.1343C26.0463 23.0058 25.8153 22.9481 25.5851 22.9709C25.3549 22.9937 25.1398 23.0956 24.9762 23.2593L24.0936 24.1421L22.3406 22.389L23.2232 21.5065C23.3869 21.343 23.4888 21.1278 23.5116 20.8976C23.5344 20.6674 23.4767 20.4364 23.3482 20.244C22.595 19.1184 22.0714 17.8551 21.8075 16.5266C21.7623 16.2998 21.6398 16.0957 21.461 15.949C21.2822 15.8023 21.058 15.7221 20.8267 15.7221H19.5796V13.2435H20.8267C21.058 13.2435 21.2822 13.1634 21.461 13.0167C21.6398 12.87 21.7623 12.6659 21.8075 12.4391C22.0715 11.1107 22.595 9.84741 23.3482 8.72175C23.4767 8.52933 23.5344 8.29834 23.5116 8.06814C23.4888 7.83794 23.3869 7.62275 23.2232 7.45925L22.3405 6.5765L24.0935 4.8235L24.9761 5.70625C25.1396 5.8699 25.3548 5.9718 25.585 5.99459C25.8152 6.01738 26.0462 5.95966 26.2386 5.83125C27.3642 5.07808 28.6274 4.55453 29.9557 4.29063C30.1826 4.24541 30.3867 4.12296 30.5334 3.94414C30.6801 3.76531 30.7603 3.54117 30.7603 3.30988V2.0625H33.2394V3.30988C33.2394 3.54117 33.3195 3.76531 33.4662 3.94414C33.6129 4.12296 33.817 4.24541 34.0439 4.29063C35.3723 4.55461 36.6356 5.07819 37.7612 5.83138C37.9537 5.95978 38.1847 6.01751 38.4149 5.99471C38.6451 5.97192 38.8602 5.87002 39.0238 5.70638L39.9065 4.8235L41.6594 6.5765L40.7766 7.4595C40.613 7.623 40.5111 7.83819 40.4883 8.06839C40.4655 8.29859 40.5232 8.52958 40.6516 8.722C41.4049 9.84753 41.9284 11.1107 42.1922 12.4391C42.2375 12.6659 42.36 12.87 42.5388 13.0167C42.7176 13.1634 42.9417 13.2435 43.173 13.2435H44.4204V15.7225H43.173C42.9417 15.7225 42.7175 15.8027 42.5387 15.9494C42.3599 16.0961 42.2374 16.3003 42.1922 16.5271C41.9284 17.8555 41.4049 19.1187 40.6516 20.2442C40.5232 20.4367 40.4655 20.6677 40.4883 20.8979C40.5111 21.1281 40.613 21.3432 40.7766 21.5068L41.6594 22.3894L39.9064 24.1425L39.0238 23.2596C38.8602 23.096 38.6451 22.9941 38.4149 22.9713C38.1847 22.9485 37.9537 23.0062 37.7612 23.1346C36.6357 23.8877 35.3725 24.4112 34.0441 24.675C33.8173 24.7202 33.6132 24.8427 33.4665 25.0215C33.3198 25.2003 33.2396 25.4245 33.2396 25.6558V26.9031H30.7605V25.6562C30.7606 25.4249 30.6805 25.2006 30.5338 25.0217C30.3871 24.8428 30.1829 24.7202 29.956 24.675ZM16.7339 61.0625C15.0651 61.6271 12.8264 61.9375 10.4303 61.9375C8.03413 61.9375 5.7955 61.6266 4.12675 61.0625C2.4125 60.4822 2.0625 59.8943 2.0625 59.7685V57.2541C4.07875 58.3226 7.32788 58.8264 10.4303 58.8264C13.5326 58.8264 16.7819 58.3226 18.7981 57.2541V59.7685C18.7981 59.8943 18.4478 60.4822 16.7339 61.0625ZM16.7339 55.9514C15.0651 56.516 12.8264 56.8264 10.4303 56.8264C8.03413 56.8264 5.7955 56.5155 4.12675 55.9514C2.4125 55.3712 2.0625 54.7831 2.0625 54.6574V52.143C4.07875 53.2115 7.32788 53.7154 10.4303 53.7154C13.5326 53.7154 16.7819 53.2115 18.7981 52.143V54.6574C18.7981 54.7831 18.4478 55.3712 16.7339 55.9509V55.9514ZM16.7339 50.8404C15.0651 51.4049 12.8264 51.7154 10.4303 51.7154C8.03413 51.7154 5.7955 51.4044 4.12675 50.8404C2.4125 50.2601 2.0625 49.672 2.0625 49.5462V47.0319C3.8625 47.9859 6.646 48.4896 9.43025 48.5865V48.7531H11.4303V48.5865C14.2145 48.4896 16.9977 47.9859 18.7981 47.0319V49.5462C18.7981 49.672 18.4478 50.2601 16.7339 50.8399V50.8404ZM18.7981 44.4356C18.7981 44.5614 18.4481 45.1494 16.7339 45.7291C15.0651 46.2938 12.8264 46.6041 10.4303 46.6041C8.03413 46.6041 5.7955 46.2933 4.12675 45.7291C2.4125 45.1489 2.0625 44.5609 2.0625 44.4351C2.0625 44.3094 2.4125 43.7214 4.12675 43.1416C5.7955 42.5771 8.03413 42.2666 10.4303 42.2666C12.8264 42.2666 15.0651 42.5775 16.7339 43.1416C18.4478 43.7214 18.7981 44.3095 18.7981 44.4351V44.4356ZM38.3036 61.0625C36.6347 61.6271 34.3961 61.9375 32 61.9375C29.6039 61.9375 27.3652 61.6266 25.6964 61.0625C23.9825 60.4827 23.6322 59.8948 23.6322 59.769V57.2541C25.6485 58.3226 28.8975 58.8264 32 58.8264C35.1025 58.8264 38.3515 58.3226 40.3677 57.2541V59.7685C40.3677 59.8943 40.0175 60.4822 38.3036 61.0625ZM38.3036 55.9514C36.6347 56.516 34.3961 56.8264 32 56.8264C29.6039 56.8264 27.3652 56.5155 25.6964 55.9514C23.9825 55.3717 23.6322 54.7836 23.6322 54.6579V52.143C25.6485 53.2115 28.8975 53.7154 32 53.7154C35.1025 53.7154 38.3515 53.2115 40.3677 52.143V54.6574C40.3677 54.7831 40.0175 55.3712 38.3036 55.9509V55.9514ZM38.3036 50.8404C36.6347 51.4049 34.3961 51.7154 32 51.7154C29.6039 51.7154 27.3652 51.4044 25.6964 50.8404C23.9825 50.2606 23.6322 49.6725 23.6322 49.5467V47.0319C25.6485 48.1004 28.8975 48.6041 32 48.6041C35.1025 48.6041 38.3515 48.1004 40.3677 47.0319V49.5462C40.3677 49.672 40.0175 50.2601 38.3036 50.8399V50.8404ZM40.3677 44.4356C40.3677 44.5614 40.0177 45.1494 38.3036 45.7291C36.6347 46.2938 34.3961 46.6041 32 46.6041C29.6039 46.6041 27.3652 46.2933 25.6964 45.7291C23.9825 45.1494 23.6322 44.5614 23.6322 44.4356C23.6322 44.3099 23.9822 43.7219 25.6964 43.1421C27.3652 42.5776 29.6039 42.2671 32 42.2671C34.3961 42.2671 36.6347 42.578 38.3036 43.1421C40.0175 43.7214 40.3677 44.3095 40.3677 44.4351V44.4356ZM47.2661 43.1421C48.9349 42.5776 51.1736 42.2671 53.5698 42.2671C55.9659 42.2671 58.2045 42.578 59.8732 43.1421C61.5871 43.7219 61.9375 44.31 61.9375 44.4356C61.9375 44.5612 61.5875 45.1494 59.8732 45.7291C58.2045 46.2938 55.9659 46.6041 53.5698 46.6041C51.1736 46.6041 48.9349 46.2933 47.2661 45.7291C45.5522 45.1494 45.2019 44.5614 45.2019 44.4356C45.2019 44.3099 45.5522 43.7214 47.2661 43.1416V43.1421ZM59.8732 61.0625C58.2045 61.6271 55.9659 61.9375 53.5698 61.9375C51.1736 61.9375 48.9349 61.6266 47.2661 61.0625C45.5522 60.4827 45.2019 59.8948 45.2019 59.769V57.2541C47.2181 58.3226 50.4673 58.8264 53.5698 58.8264C56.6723 58.8264 59.9213 58.3226 61.9375 57.2541V59.7685C61.9375 59.8943 61.5875 60.4822 59.8732 61.0625ZM59.8732 55.9514C58.2045 56.516 55.9659 56.8264 53.5698 56.8264C51.1736 56.8264 48.9349 56.5155 47.2661 55.9514C45.5522 55.3717 45.2019 54.7836 45.2019 54.6579V52.143C47.2181 53.2115 50.4673 53.7154 53.5698 53.7154C56.6723 53.7154 59.9213 53.2115 61.9375 52.143V54.6574C61.9375 54.7831 61.5875 55.3712 59.8732 55.9509V55.9514ZM59.8732 50.8404C58.2045 51.4049 55.9659 51.7154 53.5698 51.7154C51.1736 51.7154 48.9349 51.4044 47.2661 50.8404C45.5522 50.2606 45.2019 49.6725 45.2019 49.5467V47.0319C47.0019 47.9859 49.7855 48.4896 52.5698 48.5865V48.7531H54.5698V48.5865C57.354 48.4896 60.1372 47.9859 61.9375 47.0319V49.5462C61.9375 49.672 61.5875 50.2601 59.8732 50.8399V50.8404ZM55.2945 50.1601C55.2945 50.4253 55.1891 50.6797 55.0016 50.8672C54.8141 51.0548 54.5597 51.1601 54.2945 51.1601H52.8445C52.5793 51.1601 52.3249 51.0548 52.1374 50.8672C51.9499 50.6797 51.8445 50.4253 51.8445 50.1601C51.8445 49.8949 51.9499 49.6406 52.1374 49.453C52.3249 49.2655 52.5793 49.1601 52.8445 49.1601H54.2945C54.5596 49.1601 54.8139 49.2654 55.0014 49.4528C55.189 49.6403 55.2944 49.8945 55.2945 50.1596V50.1601ZM55.2945 55.2713C55.2945 55.5365 55.1891 55.7908 55.0016 55.9784C54.8141 56.1659 54.5597 56.2713 54.2945 56.2713H52.8445C52.5793 56.2713 52.3249 56.1659 52.1374 55.9784C51.9499 55.7908 51.8445 55.5365 51.8445 55.2713C51.8445 55.006 51.9499 54.7517 52.1374 54.5641C52.3249 54.3766 52.5793 54.2713 52.8445 54.2713H54.2945C54.5596 54.2713 54.8139 54.3765 55.0014 54.564C55.189 54.7514 55.2944 55.0056 55.2945 55.2707V55.2713ZM55.2945 60.3825C55.2945 60.6477 55.1891 60.9021 55.0016 61.0896C54.8141 61.2771 54.5597 61.3825 54.2945 61.3825H52.8445C52.5793 61.3825 52.3249 61.2771 52.1374 61.0896C51.9499 60.9021 51.8445 60.6477 51.8445 60.3825C51.8445 60.1173 51.9499 59.8629 52.1374 59.6754C52.3249 59.4879 52.5793 59.3825 52.8445 59.3825H54.2945C54.5596 59.3825 54.8139 59.4878 55.0014 59.6752C55.189 59.8626 55.2944 60.1169 55.2945 60.382V60.3825Z" fill="black"/>
</g>
<defs>
<clipPath id="clip0_21086_3369">
<rect width="64" height="64" fill="white"/>
</clipPath>
</defs>
</svg>
