<svg width="779" height="396" viewBox="0 0 779 396" fill="none" xmlns="http://www.w3.org/2000/svg">
<foreignObject x="0" y="0" width="0" height="0"><div xmlns="http://www.w3.org/1999/xhtml" style="backdrop-filter:blur(0px);clip-path:url(#bgblur_0_20068_8424_clip_path);height:100%;width:100%"></div></foreignObject><ellipse data-figma-bg-blur-radius="0" cx="389.855" cy="168.456" rx="97.855" ry="97.4556" fill="#0087C7" fill-opacity="0.04"/>
<ellipse cx="389.902" cy="168.503" rx="81.8787" ry="81.4793" fill="#0087C7" fill-opacity="0.1"/>
<g filter="url(#filter0_dddd_20068_8424)">
<rect x="320.405" y="99.405" width="139.534" height="138.727" rx="69.3636" fill="#0087C7"/>
<path d="M444 156.716H336.345V180.822H444V156.716Z" fill="#0087C7"/>
<path d="M388.511 169.472V168.127H387.775V161.889H385.83V166.277C385.003 165.496 383.906 165.066 382.768 165.076C382.096 165.066 381.43 165.195 380.811 165.455C380.192 165.715 379.633 166.101 379.17 166.587C378.694 167.06 378.318 167.623 378.064 168.245C377.81 168.866 377.685 169.532 377.694 170.203C377.684 170.873 377.808 171.539 378.058 172.161C378.309 172.783 378.68 173.348 379.151 173.825C379.603 174.31 380.15 174.695 380.759 174.955C381.368 175.216 382.025 175.347 382.687 175.339C383.856 175.337 384.98 174.895 385.839 174.102V175.038H387.775V169.472H388.511ZM384.954 172.553C384.674 172.84 384.339 173.069 383.97 173.225C383.601 173.381 383.204 173.462 382.803 173.462C382.388 173.468 381.977 173.384 381.597 173.218C381.217 173.051 380.878 172.806 380.601 172.497C380.011 171.891 379.68 171.08 379.675 170.235C379.671 169.39 379.994 168.576 380.576 167.963C380.864 167.664 381.209 167.426 381.59 167.262C381.971 167.098 382.381 167.012 382.796 167.009C383.211 167.006 383.622 167.086 384.006 167.244C384.389 167.403 384.737 167.636 385.029 167.931C385.323 168.241 385.552 168.607 385.704 169.007C385.855 169.407 385.926 169.832 385.911 170.26C385.925 170.688 385.847 171.115 385.682 171.511C385.517 171.906 385.269 172.262 384.954 172.553Z" fill="white"/>
<path d="M388.905 166.025H388.082V166.847H388.905V166.025Z" fill="white"/>
<path d="M389.606 167.754H388.845V168.514H389.606V167.754Z" fill="white"/>
<path d="M391.002 163.521H390.523V164H391.002V163.521Z" fill="white"/>
<path d="M392.711 162.171H392.521V162.362H392.711V162.171Z" fill="white"/>
<path d="M392.051 161.919H391.54V162.429H392.051V161.919Z" fill="white"/>
<path d="M392.833 161.644H392.583V161.894H392.833V161.644Z" fill="white"/>
<path d="M391.798 162.951H391.467V163.282H391.798V162.951Z" fill="white"/>
<path d="M389.26 169.453H388.87V169.843H389.26V169.453Z" fill="white"/>
<path d="M391.744 166.229H390.513V167.46H391.744V166.229Z" fill="white"/>
<path d="M390.626 164.774H389.51V165.89H390.626V164.774Z" fill="white"/>
<path d="M391.373 169.945H390.849V170.469H391.373V169.945Z" fill="white"/>
<path d="M390.328 162.551H389.557V163.322H390.328V162.551Z" fill="white"/>
<path d="M388.7 171.69H388.191V172.198H388.7V171.69Z" fill="white"/>
<path d="M392.203 170.881H391.321V171.763H392.203V170.881Z" fill="white"/>
<path d="M390.548 170.523H389.198V171.873H390.548V170.523Z" fill="white"/>
<path d="M391.306 168.246H390.01V169.542H391.306V168.246Z" fill="white"/>
<path d="M390.994 172.467H390.066V173.395H390.994V172.467Z" fill="white"/>
<path d="M391.803 168.036H391.338V168.501H391.803V168.036Z" fill="white"/>
<path d="M389.84 166.81H389.665V166.985H389.84V166.81Z" fill="white"/>
<path d="M391.824 173.373H391.332V173.865H391.824V173.373Z" fill="white"/>
<path d="M392.599 173.93H392.276V174.253H392.599V173.93Z" fill="white"/>
<path d="M393.5 161.289V161.558H392.962L392.903 161.591V162.604H392.4V163.613H391.959V164.226H391.152V165.153H391.978V166.229H392.497V167.036H392.166V168.267H392.545V168.773H391.792V170.601H392.548V171.424H392.914V172.034H391.749V172.758H392.311V173.191H392.58V173.537H392.903V174.237H393.115V174.392H393.462V174.661C393.637 174.736 393.817 174.799 394 174.85C394.915 175.06 395.855 175.151 396.794 175.118H401.795V172.551H397.401C396.181 172.551 395.284 172.321 394.712 171.862C393.893 171.201 393.484 169.806 393.484 167.678C393.484 166.097 393.753 165.005 394.29 164.401C394.925 163.667 395.931 163.301 397.31 163.301H401.817V160.746H396.917C395.754 160.709 394.594 160.893 393.5 161.289ZM393.36 161.983H393.053V161.677H393.36V161.983ZM395.675 174.054H395.982V174.36H395.675V174.054ZM394.062 172.846H394.79V173.572H394.062V172.846ZM394.126 163.677H393.691V163.242H394.129L394.126 163.677ZM394.686 162.427H393.925V161.663H394.686V162.427ZM395.116 161.351H394.807V161.042H395.116V161.351ZM395.855 162.696H395.546V162.389H395.842L395.855 162.696Z" fill="white"/>
<path d="M393.39 161.351H393.247V161.494H393.39V161.351Z" fill="white"/>
<path d="M393.299 174.495H393.124V174.669H393.299V174.495Z" fill="white"/>
<path d="M410.921 166.272C410.091 165.494 408.992 165.068 407.855 165.083C407.184 165.072 406.517 165.2 405.897 165.459C405.277 165.718 404.717 166.101 404.252 166.586C403.778 167.057 403.404 167.618 403.151 168.236C402.897 168.854 402.771 169.516 402.779 170.184C402.77 170.854 402.895 171.519 403.146 172.141C403.398 172.762 403.77 173.327 404.241 173.803C404.692 174.29 405.24 174.677 405.85 174.94C406.459 175.202 407.117 175.335 407.78 175.328C408.945 175.325 410.065 174.884 410.921 174.094V175.027H412.865V165.317H410.921V166.272ZM410.068 172.542C409.787 172.839 409.447 173.073 409.07 173.231C408.694 173.39 408.288 173.468 407.88 173.462C407.466 173.468 407.055 173.385 406.675 173.22C406.296 173.055 405.955 172.811 405.677 172.505C405.088 171.897 404.757 171.085 404.755 170.238C404.752 169.391 405.078 168.577 405.664 167.966C405.941 167.657 406.282 167.411 406.663 167.246C407.044 167.081 407.456 167 407.871 167.009C408.285 167 408.695 167.077 409.076 167.237C409.457 167.396 409.801 167.633 410.084 167.934C410.383 168.238 410.617 168.599 410.772 168.996C410.928 169.393 411.001 169.817 410.988 170.243C411.002 170.669 410.927 171.093 410.769 171.489C410.611 171.885 410.372 172.243 410.068 172.542Z" fill="white"/>
<path d="M421.478 165.64C420.895 165.271 420.219 165.078 419.529 165.083C418.439 165.081 417.39 165.501 416.603 166.256V165.317H414.627V175.038H416.603V171.359C416.573 170.576 416.622 169.793 416.751 169.02C416.859 168.642 417.042 168.29 417.289 167.985C417.53 167.67 417.837 167.412 418.187 167.226C418.518 167.05 418.887 166.958 419.263 166.958C419.578 166.949 419.891 167.003 420.185 167.116C420.418 167.215 420.62 167.376 420.768 167.581C420.943 167.83 421.069 168.109 421.139 168.404C421.254 169.057 421.299 169.721 421.274 170.383V175.035H423.234V170.052C423.234 168.756 423.092 167.818 422.804 167.175C422.525 166.543 422.064 166.008 421.478 165.64Z" fill="white"/>
<path d="M432.591 166.272C431.762 165.492 430.662 165.063 429.523 165.075C428.852 165.065 428.185 165.192 427.565 165.451C426.945 165.71 426.385 166.094 425.92 166.579C425.445 167.05 425.07 167.612 424.817 168.232C424.564 168.851 424.438 169.515 424.447 170.184C424.438 170.855 424.563 171.52 424.814 172.141C425.066 172.762 425.438 173.328 425.909 173.804C426.36 174.293 426.908 174.683 427.519 174.947C428.129 175.211 428.788 175.345 429.453 175.339C430.619 175.335 431.74 174.895 432.597 174.105V175.038H434.538V165.317H432.597L432.591 166.272ZM431.736 172.543C431.455 172.839 431.115 173.073 430.738 173.232C430.362 173.39 429.956 173.468 429.548 173.462C429.134 173.468 428.723 173.386 428.343 173.221C427.964 173.056 427.623 172.812 427.345 172.505C426.756 171.897 426.425 171.085 426.423 170.238C426.42 169.392 426.746 168.577 427.332 167.966C427.609 167.657 427.95 167.412 428.331 167.247C428.712 167.081 429.124 167 429.54 167.009C429.953 167 430.363 167.078 430.744 167.237C431.125 167.396 431.469 167.634 431.752 167.934C432.051 168.238 432.285 168.599 432.44 168.996C432.596 169.393 432.669 169.818 432.656 170.244C432.67 170.669 432.595 171.094 432.437 171.489C432.279 171.885 432.04 172.244 431.736 172.543Z" fill="white"/>
<path d="M438.084 161.884H436.124V175.038H438.084V161.884Z" fill="white"/>
<path d="M355.353 161.884H353.393V175.038H355.353V161.884Z" fill="white"/>
<path d="M361.546 165.075C360.875 165.066 360.211 165.195 359.593 165.456C358.976 165.716 358.419 166.102 357.959 166.589C357.023 167.561 356.5 168.858 356.5 170.207C356.5 171.556 357.023 172.853 357.959 173.825C358.427 174.302 358.986 174.681 359.602 174.94C360.219 175.198 360.881 175.331 361.55 175.331C362.218 175.331 362.88 175.198 363.497 174.94C364.113 174.681 364.672 174.302 365.141 173.825C366.074 172.851 366.593 171.553 366.59 170.204C366.587 168.855 366.062 167.56 365.124 166.589C364.666 166.102 364.111 165.715 363.495 165.454C362.879 165.194 362.215 165.065 361.546 165.075ZM363.697 172.497C363.415 172.788 363.077 173.019 362.704 173.177C362.33 173.336 361.929 173.417 361.524 173.417C361.119 173.417 360.717 173.336 360.344 173.177C359.971 173.019 359.633 172.788 359.351 172.497C359.064 172.199 358.839 171.848 358.688 171.462C358.538 171.077 358.467 170.665 358.477 170.252C358.469 169.829 358.546 169.409 358.702 169.016C358.858 168.623 359.09 168.265 359.386 167.963C359.657 167.661 359.989 167.419 360.359 167.253C360.73 167.088 361.131 167.002 361.537 167.002C361.943 167.002 362.345 167.088 362.715 167.253C363.086 167.419 363.418 167.661 363.689 167.963C363.986 168.263 364.22 168.618 364.377 169.009C364.535 169.401 364.612 169.819 364.605 170.241C364.617 170.659 364.544 171.076 364.389 171.465C364.235 171.854 364.003 172.208 363.707 172.505L363.697 172.497Z" fill="white"/>
<path d="M374.373 168.996C374.404 169.779 374.354 170.563 374.225 171.335C374.117 171.712 373.934 172.063 373.688 172.368C373.444 172.685 373.134 172.944 372.779 173.126C372.474 173.283 372.139 173.373 371.797 173.392C371.454 173.411 371.112 173.357 370.792 173.234C370.558 173.135 370.356 172.974 370.208 172.768C370.033 172.52 369.907 172.241 369.837 171.946C369.722 171.293 369.677 170.629 369.703 169.967V165.317H367.745V170.303C367.745 171.596 367.885 172.537 368.173 173.18C368.449 173.811 368.907 174.345 369.488 174.715C370.071 175.085 370.749 175.278 371.44 175.272C372.529 175.273 373.576 174.853 374.363 174.099V175.038H376.339V165.317H374.363L374.373 168.996Z" fill="white"/>
<path d="M349.649 161.3H348.95V161.999H349.649V161.3Z" fill="white"/>
<path d="M350.289 162.228H349.369V163.148H350.289V162.228Z" fill="white"/>
<path d="M351.047 163.118H350.617V163.548H351.047V163.118Z" fill="white"/>
<path d="M352.397 162.997H352.077V163.317H352.397V162.997Z" fill="white"/>
<path d="M352.338 161.553H352.147V161.744H352.338V161.553Z" fill="white"/>
<path d="M351.699 162.193H350.957V162.935H351.699V162.193Z" fill="white"/>
<path d="M351.529 160.636H350.591V161.575H351.529V160.636Z" fill="white"/>
<path d="M352.823 160.668H352.293V161.198H352.823V160.668Z" fill="white"/>
<path d="M350.205 161.502H349.947V161.76H350.205V161.502Z" fill="white"/>
<path d="M350.055 160.381H349.501V160.934H350.055V160.381Z" fill="white"/>
<path d="M349.649 173.024H348.95V173.723H349.649V173.024Z" fill="white"/>
<path d="M350.289 173.949H349.369V174.868H350.289V173.949Z" fill="white"/>
<path d="M351.047 174.839H350.617V175.269H351.047V174.839Z" fill="white"/>
<path d="M352.397 174.721H352.077V175.04H352.397V174.721Z" fill="white"/>
<path d="M352.338 173.276H352.147V173.467H352.338V173.276Z" fill="white"/>
<path d="M351.699 173.916H350.957V174.659H351.699V173.916Z" fill="white"/>
<path d="M348.749 172.784H349.056V172.481H348.615V172.537H348.042V172.481H347.798C346.573 172.481 345.677 172.25 345.109 171.789C344.291 171.128 343.882 169.733 343.88 167.606C343.88 166.024 344.149 164.932 344.687 164.328C345.318 163.596 346.324 163.23 347.706 163.228H348.481V162.795H349.056V162.257H348.763V161.05H349.056V160.649H348.615V160.8H348.042V160.649H347.308C346.412 160.636 345.518 160.734 344.646 160.942V161.115H344.31V161.042C344.033 161.127 343.763 161.235 343.503 161.365C342.495 161.899 341.7 162.763 341.25 163.812C340.694 165.092 340.426 166.479 340.462 167.874C340.462 170.594 341.152 172.55 342.533 173.742C343.064 174.213 343.695 174.559 344.377 174.755C345.292 174.965 346.23 175.055 347.168 175.024H348.44V174.486H349.056V173.949H348.763L348.749 172.784ZM348.04 161.561H348.395V161.916H348.04V161.561ZM348.093 162.099V162.892H347.3V162.099H348.093ZM347.174 160.94H347.747V161.513H347.174V160.94ZM345.996 161.381H346.991V162.386H345.996V161.381ZM345.789 162.873H346.125V163.207H345.789V162.873ZM345.2 161.066H345.614V161.48H345.2V161.066ZM344.662 162.255H345.2V162.792H344.662V162.255ZM344.108 163.892H343.947V163.731H344.114L344.108 163.892ZM343.872 161.644H344.103V161.873H343.872V161.644ZM344.364 173.475H344.133V173.244H344.364V173.475ZM344.407 172.357H344.074V172.023H344.407V172.357ZM345.214 174.508H344.676V173.97H345.214V174.508ZM345.622 173.19H345.208V172.776H345.622V173.19ZM346.133 174.919H345.797V174.586H346.133V174.919ZM346.999 174.088H346.004V173.094H346.999V174.088ZM347.182 173.225V172.653H347.755V173.225H347.182ZM348.099 174.607H347.306V173.801H348.099V174.607ZM348.4 173.626H348.045V173.274H348.4V173.626Z" fill="white"/>
<path d="M351.529 172.36H350.591V173.298H351.529V172.36Z" fill="white"/>
<path d="M352.823 172.392H352.293V172.922H352.823V172.392Z" fill="white"/>
<path d="M350.205 173.226H349.947V173.484H350.205V173.226Z" fill="white"/>
<path d="M350.055 172.101H349.501V172.655H350.055V172.101Z" fill="white"/>
</g>
<path d="M618.5 189.798L618.75 190.231L619 190.087V189.798H618.5ZM618.854 170.146C618.658 169.951 618.342 169.951 618.146 170.146L614.964 173.328C614.769 173.524 614.769 173.84 614.964 174.036C615.16 174.231 615.476 174.231 615.672 174.036L618.5 171.207L621.328 174.036C621.524 174.231 621.84 174.231 622.036 174.036C622.231 173.84 622.231 173.524 622.036 173.328L618.854 170.146ZM596.5 202.5L596.75 202.933L618.75 190.231L618.5 189.798L618.25 189.365L596.25 202.067L596.5 202.5ZM618.5 189.798H619V170.5H618.5H618V189.798H618.5Z" fill="#0087C7"/>
<path d="M618.5 189.798L618.25 190.231L618 190.087V189.798H618.5ZM618.146 170.146C618.342 169.951 618.658 169.951 618.854 170.146L622.036 173.328C622.231 173.524 622.231 173.84 622.036 174.036C621.84 174.231 621.524 174.231 621.328 174.036L618.5 171.207L615.672 174.036C615.476 174.231 615.16 174.231 614.964 174.036C614.769 173.84 614.769 173.524 614.964 173.328L618.146 170.146ZM640.5 202.5L640.25 202.933L618.25 190.231L618.5 189.798L618.75 189.365L640.75 202.067L640.5 202.5ZM618.5 189.798H618V170.5H618.5H619V189.798H618.5Z" fill="#0087C7"/>
<path d="M563.54 163.783L599.08 184.54L563.54 205.297L528 184.54L563.54 163.783Z" fill="#AEBEE9"/>
<path d="M528.06 184.54L563.538 205.236V240.714L528.06 220.019V184.54Z" fill="#E3EEFB"/>
<path d="M563.54 240.714L599.018 220.018V184.54L563.54 205.236V240.714Z" fill="#768ECF"/>
<path d="M674.54 163.783L710.08 184.54L674.54 205.297L639 184.54L674.54 163.783Z" fill="#AEBEE9"/>
<path d="M639.06 184.54L674.538 205.236V240.714L639.06 220.019V184.54Z" fill="#E3EEFB"/>
<path d="M674.54 240.714L710.018 220.018V184.54L674.54 205.236V240.714Z" fill="#768ECF"/>
<path d="M618.54 92.7827L654.08 113.54L618.54 134.297L583 113.54L618.54 92.7827Z" fill="#AEBEE9"/>
<path d="M583.06 113.54L618.538 134.236V169.714L583.06 149.019V113.54Z" fill="#E3EEFB"/>
<path d="M618.54 169.714L654.018 149.018V113.54L618.54 134.236V169.714Z" fill="#768ECF"/>
<path d="M241 131.219C240.953 131.246 240.892 131.27 240.844 131.297C240.381 131.546 239.892 131.789 239.366 132.026C239.282 132.063 239.19 132.099 239.106 132.137C238.629 132.342 238.127 132.544 237.604 132.74L237.177 132.901C236.574 133.119 235.95 133.331 235.289 133.537L234.899 133.652C234.318 133.829 233.719 133.999 233.103 134.164L232.598 134.3C231.876 134.487 231.131 134.667 230.364 134.843L229.847 134.956C229.179 135.105 228.498 135.244 227.804 135.382C227.62 135.418 227.441 135.455 227.256 135.49C226.439 135.648 225.597 135.797 224.729 135.937C224.524 135.971 224.32 136.003 224.115 136.035C223.364 136.158 222.599 136.275 221.823 136.387L221.279 136.466C220.375 136.594 219.455 136.713 218.519 136.826C218.292 136.854 218.061 136.879 217.832 136.906C217.015 137.003 216.175 137.095 215.331 137.182L214.826 137.234C213.858 137.333 212.879 137.422 211.892 137.501L211.148 137.561C210.243 137.633 209.333 137.699 208.416 137.761L208.044 137.786C207.023 137.852 206.001 137.906 204.979 137.957L204.219 137.999C203.246 138.044 202.272 138.083 201.297 138.115L201.054 138.124C200.011 138.157 198.969 138.182 197.925 138.199L197.161 138.211C196.109 138.226 195.057 138.236 194.006 138.236C192.956 138.236 191.904 138.226 190.851 138.211L190.087 138.199C189.042 138.181 188 138.156 186.959 138.124L186.715 138.115C185.739 138.083 184.765 138.044 183.793 137.999L183.029 137.962C182.007 137.912 180.985 137.856 179.964 137.791L179.592 137.765C178.676 137.705 177.765 137.638 176.86 137.565L176.116 137.505C175.13 137.422 174.152 137.333 173.182 137.239L172.669 137.192C171.825 137.106 170.994 137.014 170.168 136.917C169.939 136.89 169.708 136.865 169.481 136.836C168.546 136.723 167.626 136.603 166.721 136.477L166.177 136.398C165.4 136.286 164.636 136.168 163.885 136.046C163.68 136.013 163.476 135.981 163.271 135.947C162.409 135.805 161.567 135.655 160.744 135.5C160.56 135.466 160.38 135.429 160.196 135.392C159.498 135.254 158.817 135.112 158.153 134.967L157.636 134.853C156.868 134.678 156.123 134.497 155.402 134.311L154.898 134.174C154.281 134.01 153.682 133.839 153.101 133.663L152.711 133.547C152.054 133.341 151.426 133.13 150.823 132.912L150.396 132.75C149.873 132.554 149.375 132.353 148.894 132.147C148.811 132.11 148.718 132.074 148.634 132.036C148.108 131.8 147.613 131.556 147.156 131.307C147.109 131.28 147.047 131.256 147 131.23V147.182C147 150.917 164.88 156.129 193.998 156.129C223.116 156.129 240.996 150.917 240.996 147.182L241 131.219Z" fill="url(#paint0_linear_20068_8424)"/>
<path d="M241 152.02C240.953 152.046 240.892 152.071 240.844 152.097C240.381 152.346 239.892 152.589 239.366 152.826C239.282 152.863 239.19 152.899 239.106 152.937C238.629 153.142 238.127 153.344 237.604 153.54L237.177 153.701C236.574 153.919 235.95 154.131 235.289 154.337L234.899 154.453C234.318 154.629 233.719 154.799 233.103 154.964L232.598 155.1C231.876 155.287 231.131 155.468 230.364 155.643L229.847 155.756C229.179 155.905 228.498 156.044 227.804 156.183C227.62 156.218 227.441 156.255 227.256 156.29C226.439 156.448 225.597 156.597 224.729 156.737C224.524 156.772 224.32 156.803 224.115 156.836C223.364 156.958 222.599 157.075 221.823 157.187L221.279 157.267C220.375 157.393 219.455 157.513 218.519 157.626C218.292 157.655 218.061 157.679 217.832 157.706C217.015 157.803 216.175 157.896 215.331 157.982L214.826 158.035C213.858 158.134 212.879 158.223 211.892 158.301L211.148 158.361C210.243 158.433 209.333 158.499 208.416 158.561L208.044 158.587C207.023 158.652 206.001 158.707 204.979 158.758L204.219 158.799C203.246 158.844 202.272 158.883 201.297 158.916L201.054 158.924C200.011 158.957 198.969 158.983 197.925 158.999L197.161 159.011C196.109 159.026 195.057 159.036 194.006 159.036C192.956 159.036 191.904 159.026 190.851 159.011L190.087 158.999C189.042 158.981 188 158.956 186.959 158.924L186.715 158.916C185.739 158.883 184.765 158.844 183.793 158.799L183.029 158.762C182.007 158.712 180.985 158.656 179.964 158.591L179.592 158.565C178.676 158.505 177.765 158.438 176.86 158.365L176.116 158.306C175.13 158.223 174.152 158.134 173.182 158.039L172.669 157.992C171.825 157.907 170.994 157.814 170.168 157.717C169.939 157.69 169.708 157.665 169.481 157.636C168.546 157.523 167.626 157.403 166.721 157.277L166.177 157.198C165.4 157.087 164.636 156.97 163.885 156.846C163.68 156.813 163.476 156.782 163.271 156.747C162.409 156.605 161.567 156.456 160.744 156.3C160.56 156.266 160.38 156.229 160.196 156.193C159.498 156.054 158.817 155.912 158.153 155.767L157.636 155.653C156.868 155.479 156.123 155.299 155.402 155.111L154.898 154.975C154.281 154.81 153.682 154.639 153.101 154.464L152.711 154.347C152.054 154.141 151.426 153.93 150.823 153.712L150.396 153.551C149.873 153.354 149.375 153.153 148.894 152.947C148.811 152.91 148.718 152.874 148.634 152.836C148.108 152.6 147.613 152.357 147.156 152.108C147.109 152.081 147.047 152.057 147 152.03V167.983C147 171.718 164.88 176.929 193.998 176.929C223.116 176.929 240.996 171.718 240.996 167.983L241 152.02Z" fill="url(#paint1_linear_20068_8424)"/>
<path d="M241 172.82C240.953 172.846 240.892 172.871 240.844 172.897C240.381 173.146 239.892 173.389 239.366 173.626C239.282 173.663 239.19 173.699 239.106 173.737C238.629 173.942 238.127 174.144 237.604 174.34L237.177 174.501C236.574 174.719 235.95 174.931 235.289 175.137L234.899 175.253C234.318 175.429 233.719 175.599 233.103 175.764L232.598 175.9C231.876 176.087 231.131 176.268 230.364 176.443L229.847 176.556C229.179 176.705 228.498 176.844 227.804 176.983C227.62 177.018 227.441 177.055 227.256 177.09C226.439 177.248 225.597 177.397 224.729 177.537C224.524 177.572 224.32 177.603 224.115 177.636C223.364 177.758 222.599 177.875 221.823 177.987L221.279 178.067C220.375 178.193 219.455 178.313 218.519 178.426C218.292 178.455 218.061 178.479 217.832 178.506C217.015 178.603 216.175 178.696 215.331 178.782L214.826 178.835C213.858 178.934 212.879 179.023 211.892 179.101L211.148 179.161C210.243 179.233 209.333 179.299 208.416 179.361L208.044 179.387C207.023 179.452 206.001 179.507 204.979 179.558L204.219 179.599C203.246 179.644 202.272 179.683 201.297 179.716L201.054 179.724C200.011 179.757 198.969 179.783 197.925 179.799L197.161 179.811C196.109 179.826 195.057 179.836 194.006 179.836C192.956 179.836 191.904 179.826 190.851 179.811L190.087 179.799C189.042 179.781 188 179.756 186.959 179.724L186.715 179.716C185.739 179.683 184.765 179.644 183.793 179.599L183.029 179.562C182.007 179.512 180.985 179.456 179.964 179.391L179.592 179.365C178.676 179.305 177.765 179.238 176.86 179.165L176.116 179.106C175.13 179.023 174.152 178.934 173.182 178.839L172.669 178.792C171.825 178.707 170.994 178.614 170.168 178.517C169.939 178.49 169.708 178.465 169.481 178.436C168.546 178.323 167.626 178.203 166.721 178.077L166.177 177.998C165.4 177.887 164.636 177.77 163.885 177.646C163.68 177.613 163.476 177.582 163.271 177.547C162.409 177.405 161.567 177.256 160.744 177.1C160.56 177.066 160.38 177.029 160.196 176.993C159.498 176.854 158.817 176.712 158.153 176.567L157.636 176.453C156.868 176.279 156.123 176.099 155.402 175.911L154.898 175.775C154.281 175.61 153.682 175.439 153.101 175.264L152.711 175.147C152.054 174.941 151.426 174.73 150.823 174.512L150.396 174.351C149.873 174.154 149.375 173.953 148.894 173.747C148.811 173.71 148.718 173.674 148.634 173.636C148.108 173.4 147.613 173.157 147.156 172.908C147.109 172.881 147.047 172.857 147 172.83V188.783C147 192.518 164.88 197.729 193.998 197.729C223.116 197.729 240.996 192.518 240.996 188.783L241 172.82Z" fill="url(#paint2_linear_20068_8424)"/>
<path d="M241 193.62C240.953 193.646 240.892 193.671 240.844 193.697C240.381 193.946 239.892 194.189 239.366 194.426C239.282 194.463 239.19 194.499 239.106 194.537C238.629 194.742 238.127 194.944 237.604 195.14L237.177 195.301C236.574 195.519 235.95 195.731 235.289 195.937L234.899 196.053C234.318 196.229 233.719 196.399 233.103 196.564L232.598 196.7C231.876 196.887 231.131 197.068 230.364 197.243L229.847 197.356C229.179 197.505 228.498 197.644 227.804 197.783C227.62 197.818 227.441 197.855 227.256 197.89C226.439 198.048 225.597 198.197 224.729 198.337C224.524 198.372 224.32 198.403 224.115 198.436C223.364 198.558 222.599 198.675 221.823 198.787L221.279 198.867C220.375 198.993 219.455 199.113 218.519 199.226C218.292 199.255 218.061 199.279 217.832 199.306C217.015 199.403 216.175 199.496 215.331 199.582L214.826 199.635C213.858 199.734 212.879 199.823 211.892 199.901L211.148 199.961C210.243 200.033 209.333 200.099 208.416 200.161L208.044 200.187C207.023 200.252 206.001 200.307 204.979 200.358L204.219 200.399C203.246 200.444 202.272 200.483 201.297 200.516L201.054 200.524C200.011 200.557 198.969 200.583 197.925 200.599L197.161 200.611C196.109 200.626 195.057 200.636 194.006 200.636C192.956 200.636 191.904 200.626 190.851 200.611L190.087 200.599C189.042 200.581 188 200.556 186.959 200.524L186.715 200.516C185.739 200.483 184.765 200.444 183.793 200.399L183.029 200.362C182.007 200.312 180.985 200.256 179.964 200.191L179.592 200.165C178.676 200.105 177.765 200.038 176.86 199.965L176.116 199.906C175.13 199.823 174.152 199.734 173.182 199.639L172.669 199.592C171.825 199.507 170.994 199.414 170.168 199.317C169.939 199.29 169.708 199.265 169.481 199.236C168.546 199.123 167.626 199.003 166.721 198.877L166.177 198.798C165.4 198.687 164.636 198.57 163.885 198.446C163.68 198.413 163.476 198.382 163.271 198.347C162.409 198.205 161.567 198.056 160.744 197.9C160.56 197.866 160.38 197.829 160.196 197.793C159.498 197.654 158.817 197.512 158.153 197.367L157.636 197.253C156.868 197.079 156.123 196.899 155.402 196.711L154.898 196.575C154.281 196.41 153.682 196.239 153.101 196.064L152.711 195.947C152.054 195.741 151.426 195.53 150.823 195.312L150.396 195.151C149.873 194.954 149.375 194.753 148.894 194.547C148.811 194.51 148.718 194.474 148.634 194.436C148.108 194.2 147.613 193.957 147.156 193.708C147.109 193.681 147.047 193.657 147 193.63V209.583C147 213.318 164.88 218.529 193.998 218.529C223.116 218.529 240.996 213.318 240.996 209.583L241 193.62Z" fill="url(#paint3_linear_20068_8424)"/>
<path d="M241 215.091C240.953 215.118 240.892 215.142 240.844 215.168C240.381 215.417 239.892 215.66 239.366 215.897C239.282 215.934 239.19 215.97 239.106 216.008C238.629 216.213 238.127 216.415 237.604 216.611L237.177 216.772C236.574 216.99 235.95 217.202 235.289 217.408L234.899 217.524C234.318 217.7 233.719 217.87 233.103 218.036L232.598 218.171C231.876 218.358 231.131 218.539 230.364 218.714L229.847 218.827C229.179 218.976 228.498 219.115 227.804 219.254C227.62 219.289 227.441 219.326 227.256 219.361C226.439 219.519 225.597 219.668 224.729 219.808C224.524 219.843 224.32 219.874 224.115 219.907C223.364 220.029 222.599 220.146 221.823 220.258L221.279 220.338C220.375 220.464 219.455 220.584 218.519 220.697C218.292 220.726 218.061 220.75 217.832 220.777C217.015 220.874 216.175 220.967 215.331 221.053L214.826 221.106C213.858 221.205 212.879 221.294 211.892 221.372L211.148 221.432C210.243 221.504 209.333 221.57 208.416 221.632L208.044 221.658C207.023 221.723 206.001 221.778 204.979 221.829L204.219 221.87C203.246 221.915 202.272 221.954 201.297 221.987L201.054 221.995C200.011 222.028 198.969 222.054 197.925 222.07L197.161 222.082C196.109 222.097 195.057 222.107 194.006 222.107C192.956 222.107 191.904 222.097 190.851 222.082L190.087 222.07C189.042 222.052 188 222.027 186.959 221.995L186.715 221.987C185.739 221.954 184.765 221.915 183.793 221.87L183.029 221.833C182.007 221.783 180.985 221.727 179.964 221.662L179.592 221.636C178.676 221.576 177.765 221.509 176.86 221.436L176.116 221.377C175.13 221.294 174.152 221.205 173.182 221.11L172.669 221.063C171.825 220.978 170.994 220.885 170.168 220.788C169.939 220.761 169.708 220.736 169.481 220.707C168.546 220.594 167.626 220.474 166.721 220.348L166.177 220.269C165.4 220.158 164.636 220.041 163.885 219.917C163.68 219.884 163.476 219.853 163.271 219.819C162.409 219.676 161.567 219.527 160.744 219.371C160.56 219.337 160.38 219.3 160.196 219.264C159.498 219.125 158.817 218.983 158.153 218.838L157.636 218.724C156.868 218.55 156.123 218.37 155.402 218.182L154.898 218.046C154.281 217.881 153.682 217.71 153.101 217.535L152.711 217.418C152.054 217.212 151.426 217.001 150.823 216.783L150.396 216.622C149.873 216.425 149.375 216.224 148.894 216.018C148.811 215.981 148.718 215.945 148.634 215.907C148.108 215.671 147.613 215.428 147.156 215.179C147.109 215.152 147.047 215.128 147 215.101V231.054C147 234.789 164.88 240 193.998 240C223.116 240 240.996 234.789 240.996 231.054L241 215.091Z" fill="url(#paint4_linear_20068_8424)"/>
<path d="M241 110.419C240.953 110.446 240.892 110.47 240.844 110.497C240.381 110.746 239.892 110.989 239.366 111.226C239.282 111.263 239.19 111.299 239.106 111.337C238.629 111.542 238.127 111.744 237.604 111.933L237.177 112.094C236.574 112.312 235.95 112.523 235.289 112.729L234.899 112.845C234.318 113.021 233.719 113.192 233.103 113.357L232.598 113.492C231.876 113.68 231.131 113.86 230.364 114.036L229.847 114.148C229.179 114.298 228.498 114.436 227.804 114.575C227.62 114.611 227.441 114.648 227.256 114.682C226.439 114.84 225.597 114.989 224.729 115.13C224.524 115.164 224.32 115.195 224.115 115.228C223.364 115.35 222.599 115.468 221.823 115.58L221.279 115.659C220.375 115.786 219.455 115.906 218.519 116.018C218.292 116.046 218.061 116.072 217.832 116.099C217.015 116.196 216.175 116.288 215.331 116.375L214.826 116.427C213.858 116.526 212.879 116.615 211.892 116.694L211.148 116.753C210.243 116.825 209.333 116.892 208.416 116.953L208.044 116.978C207.023 117.044 206.001 117.099 204.979 117.15L204.219 117.199C203.246 117.244 202.272 117.283 201.297 117.315L201.054 117.324C200.011 117.357 198.969 117.382 197.925 117.399L197.161 117.411C196.109 117.426 195.057 117.436 194.006 117.436C192.956 117.436 191.904 117.426 190.851 117.411L190.087 117.399C189.042 117.381 188 117.356 186.959 117.324L186.715 117.315C185.739 117.283 184.765 117.244 183.793 117.199L183.029 117.162C182.007 117.112 180.985 117.056 179.964 116.991L179.592 116.965C178.676 116.905 177.765 116.838 176.86 116.765L176.116 116.705C175.13 116.622 174.152 116.533 173.182 116.439L172.669 116.392C171.825 116.306 170.994 116.214 170.168 116.117C169.939 116.09 169.708 116.065 169.481 116.036C168.546 115.923 167.626 115.803 166.721 115.677L166.177 115.598C165.4 115.486 164.636 115.368 163.885 115.246C163.68 115.213 163.476 115.181 163.271 115.147C162.409 115.005 161.567 114.855 160.744 114.7C160.56 114.666 160.38 114.629 160.196 114.592C159.498 114.454 158.817 114.312 158.153 114.167L157.636 114.053C156.868 113.878 156.123 113.697 155.402 113.511L154.898 113.374C154.281 113.21 153.682 113.039 153.101 112.863L152.711 112.747C152.054 112.541 151.426 112.33 150.823 112.112L150.396 111.95C149.873 111.754 149.375 111.553 148.894 111.354C148.811 111.317 148.718 111.281 148.634 111.244C148.108 111.007 147.613 110.764 147.156 110.515C147.109 110.488 147.047 110.464 147 110.438V126.382C147 130.11 164.88 135.329 193.998 135.329C223.116 135.329 240.996 130.11 240.996 126.382L241 110.419Z" fill="url(#paint5_linear_20068_8424)"/>
<path d="M241 105.946C241 101.006 219.958 97 194.002 97C168.045 97 147.004 101.006 147.004 105.946C147.004 110.887 168.045 114.892 194.002 114.892C219.958 114.892 241 110.887 241 105.946Z" fill="url(#paint6_linear_20068_8424)"/>
<path d="M318.483 170L241.852 170" stroke="#0087C7" stroke-linecap="round" stroke-dasharray="1 5"/>
<path d="M313 176L319 170L313 164" stroke="#0087C7" stroke-linecap="round" stroke-linejoin="round"/>
<path d="M519.569 170L455.71 170" stroke="#0087C7" stroke-linecap="round" stroke-dasharray="1 5"/>
<path d="M514 176L520 170L514 164" stroke="#0087C7" stroke-linecap="round" stroke-linejoin="round"/>
<path d="M116 264C116 258.477 120.477 254 126 254H261C266.523 254 271 258.477 271 264V302C271 307.523 266.523 312 261 312H126C120.477 312 116 307.523 116 302V264Z" fill="white" fill-opacity="0.3"/>
<path d="M126 254.5H261C266.247 254.5 270.5 258.753 270.5 264V302C270.5 307.247 266.247 311.5 261 311.5H126C120.753 311.5 116.5 307.247 116.5 302V264C116.5 258.753 120.753 254.5 126 254.5Z" stroke="black" stroke-opacity="0.2"/>
<path d="M136.996 288V279.06H140.152C140.744 279.06 141.264 279.172 141.712 279.396C142.16 279.62 142.508 279.94 142.756 280.356C143.012 280.772 143.14 281.26 143.14 281.82C143.14 282.452 142.98 282.988 142.66 283.428C142.34 283.868 141.908 284.184 141.364 284.376L143.44 288H142.072L139.888 284.124L140.668 284.58H138.172V288H136.996ZM138.172 283.5H140.188C140.54 283.5 140.848 283.432 141.112 283.296C141.376 283.16 141.58 282.964 141.724 282.708C141.876 282.452 141.952 282.156 141.952 281.82C141.952 281.476 141.876 281.18 141.724 280.932C141.58 280.676 141.376 280.48 141.112 280.344C140.848 280.208 140.54 280.14 140.188 280.14H138.172V283.5ZM147.258 288.144C146.634 288.144 146.078 287.996 145.59 287.7C145.102 287.404 144.718 287 144.438 286.488C144.158 285.968 144.018 285.388 144.018 284.748C144.018 284.1 144.154 283.524 144.426 283.02C144.706 282.516 145.082 282.12 145.554 281.832C146.034 281.536 146.57 281.388 147.162 281.388C147.642 281.388 148.066 281.476 148.434 281.652C148.81 281.82 149.126 282.052 149.382 282.348C149.646 282.636 149.846 282.968 149.982 283.344C150.126 283.712 150.198 284.096 150.198 284.496C150.198 284.584 150.19 284.684 150.174 284.796C150.166 284.9 150.154 285 150.138 285.096H144.834V284.136H149.49L148.962 284.568C149.034 284.152 148.994 283.78 148.842 283.452C148.69 283.124 148.466 282.864 148.17 282.672C147.874 282.48 147.538 282.384 147.162 282.384C146.786 282.384 146.442 282.48 146.13 282.672C145.818 282.864 145.574 283.14 145.398 283.5C145.23 283.852 145.162 284.272 145.194 284.76C145.162 285.232 145.234 285.648 145.41 286.008C145.594 286.36 145.85 286.636 146.178 286.836C146.514 287.028 146.878 287.124 147.27 287.124C147.702 287.124 148.066 287.024 148.362 286.824C148.658 286.624 148.898 286.368 149.082 286.056L150.018 286.536C149.89 286.832 149.69 287.104 149.418 287.352C149.154 287.592 148.838 287.784 148.47 287.928C148.11 288.072 147.706 288.144 147.258 288.144ZM151.653 288V278.916H152.769V288H151.653ZM156.397 288.144C155.973 288.144 155.597 288.068 155.269 287.916C154.949 287.756 154.697 287.54 154.513 287.268C154.329 286.988 154.237 286.668 154.237 286.308C154.237 285.964 154.309 285.656 154.453 285.384C154.605 285.104 154.837 284.868 155.149 284.676C155.469 284.484 155.869 284.348 156.349 284.268L158.749 283.872V284.808L156.601 285.168C156.185 285.24 155.881 285.372 155.689 285.564C155.505 285.756 155.413 285.992 155.413 286.272C155.413 286.536 155.517 286.756 155.725 286.932C155.941 287.108 156.209 287.196 156.529 287.196C156.937 287.196 157.289 287.112 157.585 286.944C157.889 286.768 158.125 286.532 158.293 286.236C158.469 285.94 158.557 285.612 158.557 285.252V283.608C158.557 283.256 158.425 282.972 158.161 282.756C157.905 282.532 157.565 282.42 157.141 282.42C156.773 282.42 156.445 282.516 156.157 282.708C155.877 282.892 155.669 283.14 155.533 283.452L154.561 282.948C154.681 282.652 154.873 282.388 155.137 282.156C155.401 281.916 155.709 281.728 156.061 281.592C156.413 281.456 156.781 281.388 157.165 281.388C157.661 281.388 158.097 281.484 158.473 281.676C158.849 281.86 159.141 282.12 159.349 282.456C159.565 282.784 159.673 283.168 159.673 283.608V288H158.581V286.776L158.785 286.848C158.649 287.104 158.465 287.328 158.233 287.52C158.001 287.712 157.729 287.864 157.417 287.976C157.105 288.088 156.765 288.144 156.397 288.144ZM163.914 288.072C163.282 288.072 162.794 287.892 162.45 287.532C162.114 287.172 161.946 286.664 161.946 286.008V282.6H160.77V281.532H161.01C161.298 281.532 161.526 281.444 161.694 281.268C161.862 281.092 161.946 280.86 161.946 280.572V280.044H163.062V281.532H164.514V282.6H163.062V285.972C163.062 286.188 163.094 286.376 163.158 286.536C163.23 286.696 163.346 286.824 163.506 286.92C163.666 287.008 163.878 287.052 164.142 287.052C164.198 287.052 164.266 287.048 164.346 287.04C164.434 287.032 164.514 287.024 164.586 287.016V288C164.482 288.024 164.366 288.04 164.238 288.048C164.11 288.064 164.002 288.072 163.914 288.072ZM166.044 288V281.532H167.16V288H166.044ZM166.044 280.5V279.06H167.16V280.5H166.044ZM171.963 288.144C171.339 288.144 170.775 288 170.271 287.712C169.767 287.416 169.367 287.012 169.071 286.5C168.775 285.988 168.627 285.408 168.627 284.76C168.627 284.112 168.771 283.536 169.059 283.032C169.355 282.528 169.755 282.128 170.259 281.832C170.763 281.536 171.331 281.388 171.963 281.388C172.587 281.388 173.151 281.536 173.655 281.832C174.159 282.12 174.555 282.516 174.843 283.02C175.139 283.524 175.287 284.104 175.287 284.76C175.287 285.416 175.135 286 174.831 286.512C174.527 287.016 174.123 287.416 173.619 287.712C173.123 288 172.571 288.144 171.963 288.144ZM171.963 287.064C172.363 287.064 172.723 286.964 173.043 286.764C173.371 286.564 173.627 286.288 173.811 285.936C174.003 285.584 174.099 285.192 174.099 284.76C174.099 284.32 174.003 283.932 173.811 283.596C173.627 283.252 173.371 282.98 173.043 282.78C172.723 282.572 172.363 282.468 171.963 282.468C171.555 282.468 171.187 282.572 170.859 282.78C170.539 282.98 170.283 283.252 170.091 283.596C169.899 283.932 169.803 284.32 169.803 284.76C169.803 285.192 169.899 285.584 170.091 285.936C170.283 286.288 170.539 286.564 170.859 286.764C171.187 286.964 171.555 287.064 171.963 287.064ZM176.743 288V281.532H177.835V282.792L177.655 282.684C177.815 282.276 178.071 281.96 178.423 281.736C178.783 281.504 179.203 281.388 179.683 281.388C180.147 281.388 180.559 281.492 180.919 281.7C181.287 281.908 181.575 282.196 181.783 282.564C181.999 282.932 182.107 283.348 182.107 283.812V288H180.979V284.172C180.979 283.812 180.915 283.508 180.787 283.26C180.659 283.012 180.475 282.82 180.235 282.684C180.003 282.54 179.735 282.468 179.431 282.468C179.127 282.468 178.855 282.54 178.615 282.684C178.383 282.82 178.199 283.016 178.063 283.272C177.927 283.52 177.859 283.82 177.859 284.172V288H176.743ZM185.6 288.144C185.176 288.144 184.8 288.068 184.472 287.916C184.152 287.756 183.9 287.54 183.716 287.268C183.532 286.988 183.44 286.668 183.44 286.308C183.44 285.964 183.512 285.656 183.656 285.384C183.808 285.104 184.04 284.868 184.352 284.676C184.672 284.484 185.072 284.348 185.552 284.268L187.952 283.872V284.808L185.804 285.168C185.388 285.24 185.084 285.372 184.892 285.564C184.708 285.756 184.616 285.992 184.616 286.272C184.616 286.536 184.72 286.756 184.928 286.932C185.144 287.108 185.412 287.196 185.732 287.196C186.14 287.196 186.492 287.112 186.788 286.944C187.092 286.768 187.328 286.532 187.496 286.236C187.672 285.94 187.76 285.612 187.76 285.252V283.608C187.76 283.256 187.628 282.972 187.364 282.756C187.108 282.532 186.768 282.42 186.344 282.42C185.976 282.42 185.648 282.516 185.36 282.708C185.08 282.892 184.872 283.14 184.736 283.452L183.764 282.948C183.884 282.652 184.076 282.388 184.34 282.156C184.604 281.916 184.912 281.728 185.264 281.592C185.616 281.456 185.984 281.388 186.368 281.388C186.864 281.388 187.3 281.484 187.676 281.676C188.052 281.86 188.344 282.12 188.552 282.456C188.768 282.784 188.876 283.168 188.876 283.608V288H187.784V286.776L187.988 286.848C187.852 287.104 187.668 287.328 187.436 287.52C187.204 287.712 186.932 287.864 186.62 287.976C186.308 288.088 185.968 288.144 185.6 288.144ZM190.606 288V278.916H191.722V288H190.606ZM195.66 288V279.06H198.588C199.492 279.06 200.28 279.244 200.952 279.612C201.624 279.98 202.144 280.5 202.512 281.172C202.88 281.836 203.064 282.62 203.064 283.524C203.064 284.42 202.88 285.204 202.512 285.876C202.144 286.548 201.624 287.072 200.952 287.448C200.28 287.816 199.492 288 198.588 288H195.66ZM196.836 286.92H198.6C199.264 286.92 199.836 286.78 200.316 286.5C200.804 286.22 201.18 285.828 201.444 285.324C201.708 284.812 201.84 284.212 201.84 283.524C201.84 282.828 201.704 282.228 201.432 281.724C201.168 281.22 200.792 280.832 200.304 280.56C199.824 280.28 199.256 280.14 198.6 280.14H196.836V286.92ZM206.237 288.144C205.813 288.144 205.437 288.068 205.109 287.916C204.789 287.756 204.537 287.54 204.353 287.268C204.169 286.988 204.077 286.668 204.077 286.308C204.077 285.964 204.149 285.656 204.293 285.384C204.445 285.104 204.677 284.868 204.989 284.676C205.309 284.484 205.709 284.348 206.189 284.268L208.589 283.872V284.808L206.441 285.168C206.025 285.24 205.721 285.372 205.529 285.564C205.345 285.756 205.253 285.992 205.253 286.272C205.253 286.536 205.357 286.756 205.565 286.932C205.781 287.108 206.049 287.196 206.369 287.196C206.777 287.196 207.129 287.112 207.425 286.944C207.729 286.768 207.965 286.532 208.133 286.236C208.309 285.94 208.397 285.612 208.397 285.252V283.608C208.397 283.256 208.265 282.972 208.001 282.756C207.745 282.532 207.405 282.42 206.981 282.42C206.613 282.42 206.285 282.516 205.997 282.708C205.717 282.892 205.509 283.14 205.373 283.452L204.401 282.948C204.521 282.652 204.713 282.388 204.977 282.156C205.241 281.916 205.549 281.728 205.901 281.592C206.253 281.456 206.621 281.388 207.005 281.388C207.501 281.388 207.937 281.484 208.313 281.676C208.689 281.86 208.981 282.12 209.189 282.456C209.405 282.784 209.513 283.168 209.513 283.608V288H208.421V286.776L208.625 286.848C208.489 287.104 208.305 287.328 208.073 287.52C207.841 287.712 207.569 287.864 207.257 287.976C206.945 288.088 206.605 288.144 206.237 288.144ZM213.754 288.072C213.122 288.072 212.634 287.892 212.29 287.532C211.954 287.172 211.786 286.664 211.786 286.008V282.6H210.61V281.532H210.85C211.138 281.532 211.366 281.444 211.534 281.268C211.702 281.092 211.786 280.86 211.786 280.572V280.044H212.902V281.532H214.354V282.6H212.902V285.972C212.902 286.188 212.934 286.376 212.998 286.536C213.07 286.696 213.186 286.824 213.346 286.92C213.506 287.008 213.718 287.052 213.982 287.052C214.038 287.052 214.106 287.048 214.186 287.04C214.274 287.032 214.354 287.024 214.426 287.016V288C214.322 288.024 214.206 288.04 214.078 288.048C213.95 288.064 213.842 288.072 213.754 288.072ZM217.698 288.144C217.274 288.144 216.898 288.068 216.57 287.916C216.25 287.756 215.998 287.54 215.814 287.268C215.63 286.988 215.538 286.668 215.538 286.308C215.538 285.964 215.61 285.656 215.754 285.384C215.906 285.104 216.138 284.868 216.45 284.676C216.77 284.484 217.17 284.348 217.65 284.268L220.05 283.872V284.808L217.902 285.168C217.486 285.24 217.182 285.372 216.99 285.564C216.806 285.756 216.714 285.992 216.714 286.272C216.714 286.536 216.818 286.756 217.026 286.932C217.242 287.108 217.51 287.196 217.83 287.196C218.238 287.196 218.59 287.112 218.886 286.944C219.19 286.768 219.426 286.532 219.594 286.236C219.77 285.94 219.858 285.612 219.858 285.252V283.608C219.858 283.256 219.726 282.972 219.462 282.756C219.206 282.532 218.866 282.42 218.442 282.42C218.074 282.42 217.746 282.516 217.458 282.708C217.178 282.892 216.97 283.14 216.834 283.452L215.862 282.948C215.982 282.652 216.174 282.388 216.438 282.156C216.702 281.916 217.01 281.728 217.362 281.592C217.714 281.456 218.082 281.388 218.465 281.388C218.962 281.388 219.398 281.484 219.774 281.676C220.15 281.86 220.442 282.12 220.65 282.456C220.866 282.784 220.974 283.168 220.974 283.608V288H219.882V286.776L220.086 286.848C219.95 287.104 219.766 287.328 219.534 287.52C219.302 287.712 219.03 287.864 218.718 287.976C218.406 288.088 218.066 288.144 217.698 288.144ZM226.052 288.144C225.532 288.144 225.056 288.028 224.624 287.796C224.2 287.564 223.872 287.236 223.64 286.812L223.796 286.62V288H222.704V278.916H223.82V282.924L223.652 282.648C223.892 282.264 224.22 281.96 224.636 281.736C225.052 281.504 225.528 281.388 226.064 281.388C226.672 281.388 227.216 281.536 227.696 281.832C228.184 282.128 228.568 282.532 228.848 283.044C229.128 283.548 229.268 284.124 229.268 284.772C229.268 285.404 229.128 285.976 228.848 286.488C228.568 287 228.184 287.404 227.696 287.7C227.216 287.996 226.668 288.144 226.052 288.144ZM225.968 287.064C226.376 287.064 226.74 286.964 227.06 286.764C227.38 286.564 227.628 286.292 227.804 285.948C227.988 285.596 228.08 285.204 228.08 284.772C228.08 284.324 227.988 283.932 227.804 283.596C227.628 283.252 227.38 282.98 227.06 282.78C226.74 282.572 226.376 282.468 225.968 282.468C225.56 282.468 225.192 282.568 224.864 282.768C224.544 282.968 224.288 283.244 224.096 283.596C223.912 283.94 223.82 284.332 223.82 284.772C223.82 285.204 223.912 285.596 224.096 285.948C224.288 286.292 224.544 286.564 224.864 286.764C225.192 286.964 225.56 287.064 225.968 287.064ZM232.627 288.144C232.203 288.144 231.827 288.068 231.499 287.916C231.179 287.756 230.927 287.54 230.743 287.268C230.559 286.988 230.467 286.668 230.467 286.308C230.467 285.964 230.539 285.656 230.683 285.384C230.835 285.104 231.067 284.868 231.379 284.676C231.699 284.484 232.099 284.348 232.579 284.268L234.979 283.872V284.808L232.831 285.168C232.415 285.24 232.111 285.372 231.919 285.564C231.735 285.756 231.643 285.992 231.643 286.272C231.643 286.536 231.747 286.756 231.955 286.932C232.171 287.108 232.439 287.196 232.759 287.196C233.167 287.196 233.519 287.112 233.815 286.944C234.119 286.768 234.355 286.532 234.523 286.236C234.699 285.94 234.787 285.612 234.787 285.252V283.608C234.787 283.256 234.655 282.972 234.391 282.756C234.135 282.532 233.795 282.42 233.371 282.42C233.003 282.42 232.675 282.516 232.387 282.708C232.107 282.892 231.899 283.14 231.763 283.452L230.791 282.948C230.911 282.652 231.103 282.388 231.367 282.156C231.631 281.916 231.939 281.728 232.291 281.592C232.643 281.456 233.011 281.388 233.395 281.388C233.891 281.388 234.327 281.484 234.703 281.676C235.079 281.86 235.371 282.12 235.579 282.456C235.795 282.784 235.903 283.168 235.903 283.608V288H234.811V286.776L235.015 286.848C234.879 287.104 234.695 287.328 234.463 287.52C234.231 287.712 233.959 287.864 233.647 287.976C233.335 288.088 232.995 288.144 232.627 288.144ZM239.95 288.144C239.302 288.144 238.738 287.984 238.258 287.664C237.778 287.344 237.438 286.912 237.238 286.368L238.126 285.936C238.31 286.32 238.562 286.624 238.882 286.848C239.202 287.072 239.558 287.184 239.95 287.184C240.302 287.184 240.594 287.1 240.826 286.932C241.058 286.764 241.174 286.544 241.174 286.272C241.174 286.08 241.118 285.928 241.006 285.816C240.902 285.696 240.774 285.604 240.622 285.54C240.47 285.468 240.33 285.416 240.202 285.384L239.23 285.108C238.646 284.94 238.218 284.7 237.946 284.388C237.682 284.076 237.55 283.712 237.55 283.296C237.55 282.912 237.646 282.58 237.838 282.3C238.038 282.012 238.306 281.788 238.642 281.628C238.986 281.468 239.37 281.388 239.794 281.388C240.362 281.388 240.87 281.532 241.318 281.82C241.774 282.108 242.098 282.512 242.29 283.032L241.378 283.452C241.234 283.116 241.018 282.852 240.73 282.66C240.442 282.46 240.118 282.36 239.758 282.36C239.43 282.36 239.17 282.444 238.978 282.612C238.786 282.772 238.69 282.976 238.69 283.224C238.69 283.408 238.738 283.56 238.834 283.68C238.93 283.792 239.046 283.88 239.182 283.944C239.318 284 239.45 284.048 239.578 284.088L240.634 284.4C241.162 284.552 241.57 284.788 241.858 285.108C242.154 285.428 242.302 285.812 242.302 286.26C242.302 286.62 242.202 286.944 242.002 287.232C241.802 287.52 241.526 287.744 241.174 287.904C240.822 288.064 240.414 288.144 239.95 288.144ZM246.738 288.144C246.114 288.144 245.558 287.996 245.07 287.7C244.582 287.404 244.198 287 243.918 286.488C243.638 285.968 243.498 285.388 243.498 284.748C243.498 284.1 243.634 283.524 243.906 283.02C244.186 282.516 244.562 282.12 245.034 281.832C245.514 281.536 246.05 281.388 246.642 281.388C247.122 281.388 247.546 281.476 247.914 281.652C248.29 281.82 248.606 282.052 248.862 282.348C249.126 282.636 249.326 282.968 249.462 283.344C249.606 283.712 249.678 284.096 249.678 284.496C249.678 284.584 249.67 284.684 249.654 284.796C249.646 284.9 249.634 285 249.618 285.096H244.314V284.136H248.97L248.442 284.568C248.514 284.152 248.474 283.78 248.322 283.452C248.17 283.124 247.946 282.864 247.65 282.672C247.354 282.48 247.018 282.384 246.642 282.384C246.266 282.384 245.922 282.48 245.61 282.672C245.298 282.864 245.054 283.14 244.878 283.5C244.71 283.852 244.642 284.272 244.674 284.76C244.642 285.232 244.714 285.648 244.89 286.008C245.074 286.36 245.33 286.636 245.658 286.836C245.994 287.028 246.358 287.124 246.75 287.124C247.182 287.124 247.546 287.024 247.842 286.824C248.138 286.624 248.378 286.368 248.562 286.056L249.498 286.536C249.37 286.832 249.17 287.104 248.898 287.352C248.634 287.592 248.318 287.784 247.95 287.928C247.59 288.072 247.186 288.144 246.738 288.144Z" fill="black"/>
<path d="M525 264C525 258.477 529.477 254 535 254H702C707.523 254 712 258.477 712 264V302C712 307.523 707.523 312 702 312H535C529.477 312 525 307.523 525 302V264Z" fill="white" fill-opacity="0.3"/>
<path d="M535 254.5H702C707.247 254.5 711.5 258.753 711.5 264V302C711.5 307.247 707.247 311.5 702 311.5H535C529.753 311.5 525.5 307.247 525.5 302V264C525.5 258.753 529.753 254.5 535 254.5Z" stroke="black" stroke-opacity="0.2"/>
<path d="M545.996 288V279.06H549.152C549.744 279.06 550.264 279.172 550.712 279.396C551.16 279.62 551.508 279.94 551.756 280.356C552.012 280.772 552.14 281.26 552.14 281.82C552.14 282.452 551.98 282.988 551.66 283.428C551.34 283.868 550.908 284.184 550.364 284.376L552.44 288H551.072L548.888 284.124L549.668 284.58H547.172V288H545.996ZM547.172 283.5H549.188C549.54 283.5 549.848 283.432 550.112 283.296C550.376 283.16 550.58 282.964 550.724 282.708C550.876 282.452 550.952 282.156 550.952 281.82C550.952 281.476 550.876 281.18 550.724 280.932C550.58 280.676 550.376 280.48 550.112 280.344C549.848 280.208 549.54 280.14 549.188 280.14H547.172V283.5ZM556.258 288.144C555.634 288.144 555.078 287.996 554.59 287.7C554.102 287.404 553.718 287 553.438 286.488C553.158 285.968 553.018 285.388 553.018 284.748C553.018 284.1 553.154 283.524 553.426 283.02C553.706 282.516 554.082 282.12 554.554 281.832C555.034 281.536 555.57 281.388 556.162 281.388C556.642 281.388 557.066 281.476 557.434 281.652C557.81 281.82 558.126 282.052 558.382 282.348C558.646 282.636 558.846 282.968 558.982 283.344C559.126 283.712 559.198 284.096 559.198 284.496C559.198 284.584 559.19 284.684 559.174 284.796C559.166 284.9 559.154 285 559.138 285.096H553.834V284.136H558.49L557.962 284.568C558.034 284.152 557.994 283.78 557.842 283.452C557.69 283.124 557.466 282.864 557.17 282.672C556.874 282.48 556.538 282.384 556.162 282.384C555.786 282.384 555.442 282.48 555.13 282.672C554.818 282.864 554.574 283.14 554.398 283.5C554.23 283.852 554.162 284.272 554.194 284.76C554.162 285.232 554.234 285.648 554.41 286.008C554.594 286.36 554.85 286.636 555.178 286.836C555.514 287.028 555.878 287.124 556.27 287.124C556.702 287.124 557.066 287.024 557.362 286.824C557.658 286.624 557.898 286.368 558.082 286.056L559.018 286.536C558.89 286.832 558.69 287.104 558.418 287.352C558.154 287.592 557.838 287.784 557.47 287.928C557.11 288.072 556.706 288.144 556.258 288.144ZM562.467 288.144C562.043 288.144 561.667 288.068 561.339 287.916C561.019 287.756 560.767 287.54 560.583 287.268C560.399 286.988 560.307 286.668 560.307 286.308C560.307 285.964 560.379 285.656 560.523 285.384C560.675 285.104 560.907 284.868 561.219 284.676C561.539 284.484 561.939 284.348 562.419 284.268L564.819 283.872V284.808L562.671 285.168C562.255 285.24 561.951 285.372 561.759 285.564C561.575 285.756 561.483 285.992 561.483 286.272C561.483 286.536 561.587 286.756 561.795 286.932C562.011 287.108 562.279 287.196 562.599 287.196C563.007 287.196 563.359 287.112 563.655 286.944C563.959 286.768 564.195 286.532 564.363 286.236C564.539 285.94 564.627 285.612 564.627 285.252V283.608C564.627 283.256 564.495 282.972 564.231 282.756C563.975 282.532 563.635 282.42 563.211 282.42C562.843 282.42 562.515 282.516 562.227 282.708C561.947 282.892 561.739 283.14 561.603 283.452L560.631 282.948C560.751 282.652 560.943 282.388 561.207 282.156C561.471 281.916 561.779 281.728 562.131 281.592C562.483 281.456 562.851 281.388 563.235 281.388C563.731 281.388 564.167 281.484 564.543 281.676C564.919 281.86 565.211 282.12 565.419 282.456C565.635 282.784 565.743 283.168 565.743 283.608V288H564.651V286.776L564.855 286.848C564.719 287.104 564.535 287.328 564.303 287.52C564.071 287.712 563.799 287.864 563.487 287.976C563.175 288.088 562.835 288.144 562.467 288.144ZM567.473 288V278.916H568.589V288H567.473ZM572.949 288.072C572.317 288.072 571.829 287.892 571.485 287.532C571.149 287.172 570.981 286.664 570.981 286.008V282.6H569.805V281.532H570.045C570.333 281.532 570.561 281.444 570.729 281.268C570.897 281.092 570.981 280.86 570.981 280.572V280.044H572.097V281.532H573.549V282.6H572.097V285.972C572.097 286.188 572.129 286.376 572.193 286.536C572.265 286.696 572.381 286.824 572.541 286.92C572.701 287.008 572.913 287.052 573.177 287.052C573.233 287.052 573.301 287.048 573.381 287.04C573.469 287.032 573.549 287.024 573.621 287.016V288C573.517 288.024 573.401 288.04 573.273 288.048C573.145 288.064 573.037 288.072 572.949 288.072ZM575.079 288V281.532H576.195V288H575.079ZM575.079 280.5V279.06H576.195V280.5H575.079ZM577.927 288V281.532H579.019V282.852L578.863 282.648C579.023 282.24 579.279 281.928 579.631 281.712C579.983 281.496 580.379 281.388 580.819 281.388C581.323 281.388 581.775 281.528 582.175 281.808C582.583 282.088 582.863 282.456 583.015 282.912L582.703 282.924C582.871 282.42 583.155 282.04 583.555 281.784C583.955 281.52 584.399 281.388 584.887 281.388C585.335 281.388 585.739 281.492 586.099 281.7C586.467 281.908 586.759 282.196 586.975 282.564C587.191 282.932 587.299 283.348 587.299 283.812V288H586.171V284.172C586.171 283.812 586.107 283.508 585.979 283.26C585.851 283.012 585.675 282.82 585.451 282.684C585.235 282.54 584.979 282.468 584.683 282.468C584.395 282.468 584.135 282.54 583.903 282.684C583.679 282.82 583.499 283.016 583.363 283.272C583.235 283.52 583.171 283.82 583.171 284.172V288H582.043V284.172C582.043 283.812 581.979 283.508 581.851 283.26C581.723 283.012 581.547 282.82 581.323 282.684C581.107 282.54 580.851 282.468 580.555 282.468C580.267 282.468 580.007 282.54 579.775 282.684C579.551 282.82 579.371 283.016 579.235 283.272C579.107 283.52 579.043 283.82 579.043 284.172V288H577.927ZM591.86 288.144C591.236 288.144 590.68 287.996 590.192 287.7C589.704 287.404 589.32 287 589.04 286.488C588.76 285.968 588.62 285.388 588.62 284.748C588.62 284.1 588.756 283.524 589.028 283.02C589.308 282.516 589.684 282.12 590.156 281.832C590.636 281.536 591.172 281.388 591.764 281.388C592.244 281.388 592.668 281.476 593.036 281.652C593.412 281.82 593.728 282.052 593.984 282.348C594.248 282.636 594.448 282.968 594.584 283.344C594.728 283.712 594.8 284.096 594.8 284.496C594.8 284.584 594.792 284.684 594.776 284.796C594.768 284.9 594.756 285 594.74 285.096H589.436V284.136H594.092L593.564 284.568C593.636 284.152 593.596 283.78 593.444 283.452C593.292 283.124 593.068 282.864 592.772 282.672C592.476 282.48 592.14 282.384 591.764 282.384C591.388 282.384 591.044 282.48 590.732 282.672C590.42 282.864 590.176 283.14 590 283.5C589.832 283.852 589.764 284.272 589.796 284.76C589.764 285.232 589.836 285.648 590.012 286.008C590.196 286.36 590.452 286.636 590.78 286.836C591.116 287.028 591.48 287.124 591.872 287.124C592.304 287.124 592.668 287.024 592.964 286.824C593.26 286.624 593.5 286.368 593.684 286.056L594.62 286.536C594.492 286.832 594.292 287.104 594.02 287.352C593.756 287.592 593.44 287.784 593.072 287.928C592.712 288.072 592.308 288.144 591.86 288.144ZM598.461 288V279.06H601.389C602.293 279.06 603.081 279.244 603.753 279.612C604.425 279.98 604.945 280.5 605.313 281.172C605.681 281.836 605.865 282.62 605.865 283.524C605.865 284.42 605.681 285.204 605.313 285.876C604.945 286.548 604.425 287.072 603.753 287.448C603.081 287.816 602.293 288 601.389 288H598.461ZM599.637 286.92H601.401C602.065 286.92 602.637 286.78 603.117 286.5C603.605 286.22 603.981 285.828 604.245 285.324C604.509 284.812 604.641 284.212 604.641 283.524C604.641 282.828 604.505 282.228 604.233 281.724C603.969 281.22 603.593 280.832 603.105 280.56C602.625 280.28 602.057 280.14 601.401 280.14H599.637V286.92ZM609.037 288.144C608.613 288.144 608.237 288.068 607.909 287.916C607.589 287.756 607.337 287.54 607.153 287.268C606.969 286.988 606.877 286.668 606.877 286.308C606.877 285.964 606.949 285.656 607.093 285.384C607.245 285.104 607.477 284.868 607.789 284.676C608.109 284.484 608.509 284.348 608.989 284.268L611.389 283.872V284.808L609.241 285.168C608.825 285.24 608.521 285.372 608.329 285.564C608.145 285.756 608.053 285.992 608.053 286.272C608.053 286.536 608.157 286.756 608.365 286.932C608.581 287.108 608.849 287.196 609.169 287.196C609.577 287.196 609.929 287.112 610.225 286.944C610.529 286.768 610.765 286.532 610.933 286.236C611.109 285.94 611.197 285.612 611.197 285.252V283.608C611.197 283.256 611.065 282.972 610.801 282.756C610.545 282.532 610.205 282.42 609.781 282.42C609.413 282.42 609.085 282.516 608.797 282.708C608.517 282.892 608.309 283.14 608.173 283.452L607.201 282.948C607.321 282.652 607.513 282.388 607.777 282.156C608.041 281.916 608.349 281.728 608.701 281.592C609.053 281.456 609.421 281.388 609.805 281.388C610.301 281.388 610.737 281.484 611.113 281.676C611.489 281.86 611.781 282.12 611.989 282.456C612.205 282.784 612.313 283.168 612.313 283.608V288H611.221V286.776L611.425 286.848C611.289 287.104 611.105 287.328 610.873 287.52C610.641 287.712 610.369 287.864 610.057 287.976C609.745 288.088 609.405 288.144 609.037 288.144ZM616.555 288.072C615.923 288.072 615.435 287.892 615.091 287.532C614.755 287.172 614.587 286.664 614.587 286.008V282.6H613.411V281.532H613.651C613.939 281.532 614.167 281.444 614.335 281.268C614.503 281.092 614.587 280.86 614.587 280.572V280.044H615.703V281.532H617.155V282.6H615.703V285.972C615.703 286.188 615.735 286.376 615.799 286.536C615.871 286.696 615.987 286.824 616.146 286.92C616.307 287.008 616.519 287.052 616.783 287.052C616.839 287.052 616.907 287.048 616.987 287.04C617.075 287.032 617.155 287.024 617.227 287.016V288C617.123 288.024 617.007 288.04 616.879 288.048C616.751 288.064 616.643 288.072 616.555 288.072ZM620.498 288.144C620.074 288.144 619.698 288.068 619.37 287.916C619.05 287.756 618.798 287.54 618.614 287.268C618.43 286.988 618.338 286.668 618.338 286.308C618.338 285.964 618.41 285.656 618.554 285.384C618.706 285.104 618.938 284.868 619.25 284.676C619.57 284.484 619.97 284.348 620.45 284.268L622.85 283.872V284.808L620.702 285.168C620.286 285.24 619.982 285.372 619.79 285.564C619.606 285.756 619.514 285.992 619.514 286.272C619.514 286.536 619.618 286.756 619.826 286.932C620.042 287.108 620.31 287.196 620.63 287.196C621.038 287.196 621.39 287.112 621.686 286.944C621.99 286.768 622.226 286.532 622.394 286.236C622.57 285.94 622.658 285.612 622.658 285.252V283.608C622.658 283.256 622.526 282.972 622.262 282.756C622.006 282.532 621.666 282.42 621.242 282.42C620.874 282.42 620.546 282.516 620.258 282.708C619.978 282.892 619.77 283.14 619.634 283.452L618.662 282.948C618.782 282.652 618.974 282.388 619.238 282.156C619.502 281.916 619.81 281.728 620.162 281.592C620.514 281.456 620.882 281.388 621.266 281.388C621.762 281.388 622.198 281.484 622.574 281.676C622.95 281.86 623.242 282.12 623.45 282.456C623.666 282.784 623.774 283.168 623.774 283.608V288H622.682V286.776L622.886 286.848C622.75 287.104 622.566 287.328 622.334 287.52C622.102 287.712 621.83 287.864 621.518 287.976C621.206 288.088 620.866 288.144 620.498 288.144ZM629.355 288L626.847 279.06H628.083L630.183 286.932H629.895L632.079 279.06H633.315L635.487 286.932H635.187L637.299 279.06H638.535L636.027 288H634.719L632.535 280.164H632.847L630.663 288H629.355ZM640.948 288.144C640.524 288.144 640.148 288.068 639.82 287.916C639.5 287.756 639.248 287.54 639.064 287.268C638.88 286.988 638.788 286.668 638.788 286.308C638.788 285.964 638.86 285.656 639.004 285.384C639.156 285.104 639.388 284.868 639.7 284.676C640.02 284.484 640.42 284.348 640.9 284.268L643.3 283.872V284.808L641.152 285.168C640.736 285.24 640.432 285.372 640.24 285.564C640.056 285.756 639.964 285.992 639.964 286.272C639.964 286.536 640.068 286.756 640.276 286.932C640.492 287.108 640.76 287.196 641.08 287.196C641.488 287.196 641.84 287.112 642.136 286.944C642.44 286.768 642.676 286.532 642.844 286.236C643.02 285.94 643.108 285.612 643.108 285.252V283.608C643.108 283.256 642.976 282.972 642.712 282.756C642.456 282.532 642.116 282.42 641.692 282.42C641.324 282.42 640.996 282.516 640.708 282.708C640.428 282.892 640.22 283.14 640.084 283.452L639.112 282.948C639.232 282.652 639.424 282.388 639.688 282.156C639.952 281.916 640.26 281.728 640.612 281.592C640.964 281.456 641.332 281.388 641.715 281.388C642.212 281.388 642.648 281.484 643.024 281.676C643.4 281.86 643.692 282.12 643.9 282.456C644.116 282.784 644.224 283.168 644.224 283.608V288H643.132V286.776L643.336 286.848C643.2 287.104 643.016 287.328 642.784 287.52C642.552 287.712 642.28 287.864 641.968 287.976C641.656 288.088 641.316 288.144 640.948 288.144ZM645.954 288V281.532H647.046V282.72L646.926 282.552C647.078 282.184 647.31 281.912 647.622 281.736C647.934 281.552 648.314 281.46 648.762 281.46H649.158V282.516H648.594C648.138 282.516 647.77 282.66 647.49 282.948C647.21 283.228 647.07 283.628 647.07 284.148V288H645.954ZM653.125 288.144C652.501 288.144 651.945 287.996 651.457 287.7C650.969 287.404 650.585 287 650.305 286.488C650.025 285.968 649.885 285.388 649.885 284.748C649.885 284.1 650.021 283.524 650.293 283.02C650.573 282.516 650.949 282.12 651.421 281.832C651.901 281.536 652.437 281.388 653.029 281.388C653.509 281.388 653.933 281.476 654.301 281.652C654.677 281.82 654.993 282.052 655.249 282.348C655.513 282.636 655.713 282.968 655.849 283.344C655.993 283.712 656.065 284.096 656.065 284.496C656.065 284.584 656.057 284.684 656.041 284.796C656.033 284.9 656.021 285 656.005 285.096H650.701V284.136H655.357L654.829 284.568C654.901 284.152 654.861 283.78 654.709 283.452C654.557 283.124 654.333 282.864 654.037 282.672C653.741 282.48 653.405 282.384 653.029 282.384C652.653 282.384 652.309 282.48 651.997 282.672C651.685 282.864 651.441 283.14 651.265 283.5C651.097 283.852 651.029 284.272 651.061 284.76C651.029 285.232 651.101 285.648 651.277 286.008C651.461 286.36 651.717 286.636 652.045 286.836C652.381 287.028 652.745 287.124 653.137 287.124C653.569 287.124 653.933 287.024 654.229 286.824C654.525 286.624 654.765 286.368 654.949 286.056L655.885 286.536C655.757 286.832 655.557 287.104 655.285 287.352C655.021 287.592 654.705 287.784 654.337 287.928C653.977 288.072 653.573 288.144 653.125 288.144ZM657.52 288V278.916H658.636V282.792L658.432 282.684C658.592 282.276 658.848 281.96 659.2 281.736C659.56 281.504 659.98 281.388 660.46 281.388C660.924 281.388 661.336 281.492 661.696 281.7C662.064 281.908 662.352 282.196 662.56 282.564C662.776 282.932 662.884 283.348 662.884 283.812V288H661.756V284.172C661.756 283.812 661.688 283.508 661.552 283.26C661.424 283.012 661.244 282.82 661.012 282.684C660.78 282.54 660.512 282.468 660.208 282.468C659.912 282.468 659.644 282.54 659.404 282.684C659.164 282.82 658.976 283.016 658.84 283.272C658.704 283.52 658.636 283.82 658.636 284.172V288H657.52ZM667.553 288.144C666.929 288.144 666.365 288 665.861 287.712C665.357 287.416 664.957 287.012 664.661 286.5C664.365 285.988 664.217 285.408 664.217 284.76C664.217 284.112 664.361 283.536 664.649 283.032C664.945 282.528 665.345 282.128 665.849 281.832C666.353 281.536 666.921 281.388 667.553 281.388C668.177 281.388 668.741 281.536 669.245 281.832C669.749 282.12 670.145 282.516 670.433 283.02C670.729 283.524 670.877 284.104 670.877 284.76C670.877 285.416 670.725 286 670.421 286.512C670.117 287.016 669.713 287.416 669.209 287.712C668.713 288 668.161 288.144 667.553 288.144ZM667.553 287.064C667.953 287.064 668.313 286.964 668.633 286.764C668.961 286.564 669.217 286.288 669.401 285.936C669.593 285.584 669.689 285.192 669.689 284.76C669.689 284.32 669.593 283.932 669.401 283.596C669.217 283.252 668.961 282.98 668.633 282.78C668.313 282.572 667.953 282.468 667.553 282.468C667.145 282.468 666.777 282.572 666.449 282.78C666.129 282.98 665.873 283.252 665.681 283.596C665.489 283.932 665.393 284.32 665.393 284.76C665.393 285.192 665.489 285.584 665.681 285.936C665.873 286.288 666.129 286.564 666.449 286.764C666.777 286.964 667.145 287.064 667.553 287.064ZM674.625 288.144C674.161 288.144 673.741 288.036 673.365 287.82C672.997 287.604 672.709 287.304 672.501 286.92C672.301 286.528 672.201 286.08 672.201 285.576V281.532H673.317V285.456C673.317 285.776 673.381 286.056 673.509 286.296C673.645 286.536 673.829 286.724 674.061 286.86C674.301 286.996 674.573 287.064 674.877 287.064C675.181 287.064 675.449 286.996 675.681 286.86C675.921 286.724 676.105 286.528 676.233 286.272C676.369 286.016 676.437 285.712 676.437 285.36V281.532H677.565V288H676.473V286.74L676.653 286.848C676.501 287.256 676.241 287.576 675.873 287.808C675.513 288.032 675.097 288.144 674.625 288.144ZM681.61 288.144C680.962 288.144 680.398 287.984 679.918 287.664C679.438 287.344 679.098 286.912 678.898 286.368L679.786 285.936C679.97 286.32 680.222 286.624 680.542 286.848C680.862 287.072 681.218 287.184 681.61 287.184C681.962 287.184 682.254 287.1 682.486 286.932C682.718 286.764 682.834 286.544 682.834 286.272C682.834 286.08 682.778 285.928 682.666 285.816C682.562 285.696 682.434 285.604 682.282 285.54C682.13 285.468 681.99 285.416 681.862 285.384L680.89 285.108C680.306 284.94 679.878 284.7 679.606 284.388C679.342 284.076 679.21 283.712 679.21 283.296C679.21 282.912 679.306 282.58 679.498 282.3C679.698 282.012 679.966 281.788 680.302 281.628C680.646 281.468 681.03 281.388 681.454 281.388C682.022 281.388 682.53 281.532 682.978 281.82C683.434 282.108 683.758 282.512 683.95 283.032L683.038 283.452C682.894 283.116 682.678 282.852 682.39 282.66C682.102 282.46 681.778 282.36 681.418 282.36C681.09 282.36 680.83 282.444 680.638 282.612C680.446 282.772 680.35 282.976 680.35 283.224C680.35 283.408 680.398 283.56 680.494 283.68C680.59 283.792 680.706 283.88 680.842 283.944C680.978 284 681.11 284.048 681.238 284.088L682.294 284.4C682.822 284.552 683.23 284.788 683.518 285.108C683.814 285.428 683.962 285.812 683.962 286.26C683.962 286.62 683.862 286.944 683.662 287.232C683.462 287.52 683.186 287.744 682.834 287.904C682.482 288.064 682.074 288.144 681.61 288.144ZM688.399 288.144C687.775 288.144 687.219 287.996 686.731 287.7C686.243 287.404 685.859 287 685.579 286.488C685.299 285.968 685.159 285.388 685.159 284.748C685.159 284.1 685.295 283.524 685.567 283.02C685.847 282.516 686.223 282.12 686.695 281.832C687.175 281.536 687.711 281.388 688.303 281.388C688.783 281.388 689.207 281.476 689.575 281.652C689.951 281.82 690.267 282.052 690.523 282.348C690.787 282.636 690.987 282.968 691.123 283.344C691.267 283.712 691.339 284.096 691.339 284.496C691.339 284.584 691.331 284.684 691.315 284.796C691.307 284.9 691.295 285 691.279 285.096H685.975V284.136H690.631L690.103 284.568C690.175 284.152 690.135 283.78 689.983 283.452C689.831 283.124 689.607 282.864 689.311 282.672C689.015 282.48 688.679 282.384 688.303 282.384C687.927 282.384 687.583 282.48 687.271 282.672C686.959 282.864 686.715 283.14 686.539 283.5C686.371 283.852 686.303 284.272 686.335 284.76C686.303 285.232 686.375 285.648 686.551 286.008C686.735 286.36 686.991 286.636 687.319 286.836C687.655 287.028 688.019 287.124 688.411 287.124C688.843 287.124 689.207 287.024 689.503 286.824C689.799 286.624 690.039 286.368 690.223 286.056L691.159 286.536C691.031 286.832 690.831 287.104 690.559 287.352C690.295 287.592 689.979 287.784 689.611 287.928C689.251 288.072 688.847 288.144 688.399 288.144Z" fill="black"/>
<defs>
<clipPath id="bgblur_0_20068_8424_clip_path" transform="translate(0 0)"><ellipse cx="389.855" cy="168.456" rx="97.855" ry="97.4556"/>
</clipPath><filter id="filter0_dddd_20068_8424" x="300.016" y="96.0068" width="180.312" height="214.336" filterUnits="userSpaceOnUse" color-interpolation-filters="sRGB">
<feFlood flood-opacity="0" result="BackgroundImageFix"/>
<feColorMatrix in="SourceAlpha" type="matrix" values="0 0 0 0 0 0 0 0 0 0 0 0 0 0 0 0 0 0 127 0" result="hardAlpha"/>
<feOffset dy="3.39814"/>
<feGaussianBlur stdDeviation="3.39814"/>
<feColorMatrix type="matrix" values="0 0 0 0 0.298039 0 0 0 0 0.286275 0 0 0 0 0.894118 0 0 0 0.1 0"/>
<feBlend mode="normal" in2="BackgroundImageFix" result="effect1_dropShadow_20068_8424"/>
<feColorMatrix in="SourceAlpha" type="matrix" values="0 0 0 0 0 0 0 0 0 0 0 0 0 0 0 0 0 0 127 0" result="hardAlpha"/>
<feOffset dy="12.743"/>
<feGaussianBlur stdDeviation="6.37151"/>
<feColorMatrix type="matrix" values="0 0 0 0 0.298039 0 0 0 0 0.286275 0 0 0 0 0.894118 0 0 0 0.09 0"/>
<feBlend mode="normal" in2="effect1_dropShadow_20068_8424" result="effect2_dropShadow_20068_8424"/>
<feColorMatrix in="SourceAlpha" type="matrix" values="0 0 0 0 0 0 0 0 0 0 0 0 0 0 0 0 0 0 127 0" result="hardAlpha"/>
<feOffset dy="28.8842"/>
<feGaussianBlur stdDeviation="8.49535"/>
<feColorMatrix type="matrix" values="0 0 0 0 0.298039 0 0 0 0 0.286275 0 0 0 0 0.894118 0 0 0 0.05 0"/>
<feBlend mode="normal" in2="effect2_dropShadow_20068_8424" result="effect3_dropShadow_20068_8424"/>
<feColorMatrix in="SourceAlpha" type="matrix" values="0 0 0 0 0 0 0 0 0 0 0 0 0 0 0 0 0 0 127 0" result="hardAlpha"/>
<feOffset dy="51.8217"/>
<feGaussianBlur stdDeviation="10.1944"/>
<feColorMatrix type="matrix" values="0 0 0 0 0.298039 0 0 0 0 0.286275 0 0 0 0 0.894118 0 0 0 0.01 0"/>
<feBlend mode="normal" in2="effect3_dropShadow_20068_8424" result="effect4_dropShadow_20068_8424"/>
<feBlend mode="normal" in="SourceGraphic" in2="effect4_dropShadow_20068_8424" result="shape"/>
</filter>
<linearGradient id="paint0_linear_20068_8424" x1="194" y1="97" x2="194" y2="239.782" gradientUnits="userSpaceOnUse">
<stop stop-color="#768ECF"/>
<stop offset="1" stop-color="white"/>
</linearGradient>
<linearGradient id="paint1_linear_20068_8424" x1="194" y1="97" x2="194" y2="239.782" gradientUnits="userSpaceOnUse">
<stop stop-color="#768ECF"/>
<stop offset="1" stop-color="white"/>
</linearGradient>
<linearGradient id="paint2_linear_20068_8424" x1="194" y1="97" x2="194" y2="239.782" gradientUnits="userSpaceOnUse">
<stop stop-color="#768ECF"/>
<stop offset="1" stop-color="white"/>
</linearGradient>
<linearGradient id="paint3_linear_20068_8424" x1="194" y1="97" x2="194" y2="239.782" gradientUnits="userSpaceOnUse">
<stop stop-color="#768ECF"/>
<stop offset="1" stop-color="white"/>
</linearGradient>
<linearGradient id="paint4_linear_20068_8424" x1="194" y1="97" x2="194" y2="239.782" gradientUnits="userSpaceOnUse">
<stop stop-color="#768ECF"/>
<stop offset="1" stop-color="white"/>
</linearGradient>
<linearGradient id="paint5_linear_20068_8424" x1="194" y1="97" x2="194" y2="239.782" gradientUnits="userSpaceOnUse">
<stop stop-color="#768ECF"/>
<stop offset="1" stop-color="white"/>
</linearGradient>
<linearGradient id="paint6_linear_20068_8424" x1="194" y1="97" x2="194" y2="239.782" gradientUnits="userSpaceOnUse">
<stop stop-color="#768ECF"/>
<stop offset="1" stop-color="white"/>
</linearGradient>
</defs>
</svg>
