<svg width="779" height="396" viewBox="0 0 779 396" fill="none" xmlns="http://www.w3.org/2000/svg">
<path d="M146.667 128.4H118.37C117.151 128.4 116.054 127.722 115.508 126.631L114.667 124.948C113.756 123.13 111.93 122 109.897 122H93.3333C90.3925 122 88 124.393 88 127.333V174.267C88 177.207 90.3925 179.6 93.3333 179.6H106.199C109.529 183.509 114.476 186 120 186C125.524 186 130.473 183.509 133.801 179.6H146.667C149.607 179.6 152 177.207 152 174.267V133.733C152 130.793 149.607 128.4 146.667 128.4ZM93.3333 124.133H109.897C111.116 124.133 112.212 124.812 112.758 125.902L113.6 127.585C114.511 129.404 116.337 130.533 118.37 130.533H146.667C148.431 130.533 149.867 131.969 149.867 133.733V138.028C148.973 137.35 147.872 136.933 146.667 136.933V135.867C146.667 134.102 145.231 132.667 143.467 132.667H96.5333C94.7691 132.667 93.3333 134.102 93.3333 135.867V143.333C92.128 143.333 91.0272 143.75 90.1333 144.428V127.333C90.1333 125.569 91.5691 124.133 93.3333 124.133ZM144.533 136.933H130.101C128.105 136.933 126.231 138.089 125.326 139.886L124.499 141.563C123.956 142.639 122.832 143.333 121.632 143.333H95.4667V135.867C95.4667 135.278 95.9445 134.8 96.5333 134.8H143.467C144.055 134.8 144.533 135.278 144.533 135.867V136.933ZM121.067 151.921C129.038 152.45 135.417 158.829 135.946 166.8H121.067V151.921ZM118.933 167.425L107.973 178.385C105.507 175.569 104 171.894 104 167.867C104 159.404 110.608 152.474 118.933 151.921V167.425ZM120 183.867C115.972 183.867 112.298 182.359 109.482 179.893L120.442 168.933H135.946C135.393 177.259 128.463 183.867 120 183.867ZM149.867 174.267C149.867 176.031 148.431 177.467 146.667 177.467H135.356C137.105 174.678 138.133 171.394 138.133 167.867C138.133 157.868 129.999 149.733 120 149.733C110.001 149.733 101.867 157.868 101.867 167.867C101.867 171.394 102.895 174.678 104.644 177.467H93.3333C91.5691 177.467 90.1333 176.031 90.1333 174.267V148.667C90.1333 146.902 91.5691 145.467 93.3333 145.467H121.632C123.629 145.467 125.502 144.311 126.407 142.514L127.234 140.837C127.777 139.761 128.901 139.067 130.101 139.067H146.667C148.431 139.067 149.867 140.502 149.867 142.267V174.267Z" fill="black"/>
<path d="M100.598 220V206.59H104.972C106.388 206.59 107.618 206.878 108.662 207.454C109.718 208.018 110.534 208.804 111.11 209.812C111.686 210.808 111.974 211.966 111.974 213.286C111.974 214.594 111.686 215.758 111.11 216.778C110.534 217.786 109.718 218.578 108.662 219.154C107.618 219.718 106.388 220 104.972 220H100.598ZM103.046 217.84H105.026C105.938 217.84 106.724 217.654 107.384 217.282C108.056 216.898 108.578 216.37 108.95 215.698C109.322 215.014 109.508 214.21 109.508 213.286C109.508 212.35 109.322 211.546 108.95 210.874C108.578 210.202 108.056 209.68 107.384 209.308C106.724 208.936 105.938 208.75 105.026 208.75H103.046V217.84ZM116.659 220.216C115.975 220.216 115.381 220.102 114.877 219.874C114.373 219.646 113.983 219.322 113.707 218.902C113.431 218.47 113.293 217.972 113.293 217.408C113.293 216.868 113.413 216.388 113.653 215.968C113.893 215.536 114.265 215.176 114.769 214.888C115.273 214.6 115.909 214.396 116.677 214.276L119.881 213.754V215.554L117.127 216.022C116.659 216.106 116.311 216.256 116.083 216.472C115.855 216.688 115.741 216.97 115.741 217.318C115.741 217.654 115.867 217.924 116.119 218.128C116.383 218.32 116.707 218.416 117.091 218.416C117.583 218.416 118.015 218.314 118.387 218.11C118.771 217.894 119.065 217.6 119.269 217.228C119.485 216.856 119.593 216.448 119.593 216.004V213.484C119.593 213.064 119.425 212.716 119.089 212.44C118.765 212.152 118.333 212.008 117.793 212.008C117.289 212.008 116.839 212.146 116.443 212.422C116.059 212.686 115.777 213.04 115.597 213.484L113.671 212.548C113.863 212.032 114.163 211.588 114.571 211.216C114.991 210.832 115.483 210.532 116.047 210.316C116.611 210.1 117.223 209.992 117.883 209.992C118.687 209.992 119.395 210.142 120.007 210.442C120.619 210.73 121.093 211.138 121.429 211.666C121.777 212.182 121.951 212.788 121.951 213.484V220H119.719V218.326L120.223 218.29C119.971 218.71 119.671 219.064 119.323 219.352C118.975 219.628 118.579 219.844 118.135 220C117.691 220.144 117.199 220.216 116.659 220.216ZM128.418 220.108C127.314 220.108 126.456 219.808 125.844 219.208C125.244 218.596 124.944 217.738 124.944 216.634V212.314H123.252V210.208H123.432C123.912 210.208 124.284 210.082 124.548 209.83C124.812 209.578 124.944 209.212 124.944 208.732V207.976H127.302V210.208H129.552V212.314H127.302V216.508C127.302 216.832 127.356 217.108 127.464 217.336C127.584 217.564 127.764 217.738 128.004 217.858C128.256 217.978 128.574 218.038 128.958 218.038C129.042 218.038 129.138 218.032 129.246 218.02C129.366 218.008 129.48 217.996 129.588 217.984V220C129.42 220.024 129.228 220.048 129.012 220.072C128.796 220.096 128.598 220.108 128.418 220.108ZM134.325 220.216C133.641 220.216 133.047 220.102 132.543 219.874C132.039 219.646 131.649 219.322 131.373 218.902C131.097 218.47 130.959 217.972 130.959 217.408C130.959 216.868 131.079 216.388 131.319 215.968C131.559 215.536 131.931 215.176 132.435 214.888C132.939 214.6 133.575 214.396 134.343 214.276L137.547 213.754V215.554L134.793 216.022C134.325 216.106 133.977 216.256 133.749 216.472C133.521 216.688 133.407 216.97 133.407 217.318C133.407 217.654 133.533 217.924 133.785 218.128C134.049 218.32 134.373 218.416 134.757 218.416C135.249 218.416 135.681 218.314 136.053 218.11C136.437 217.894 136.731 217.6 136.935 217.228C137.151 216.856 137.259 216.448 137.259 216.004V213.484C137.259 213.064 137.091 212.716 136.755 212.44C136.431 212.152 135.999 212.008 135.459 212.008C134.955 212.008 134.505 212.146 134.109 212.422C133.725 212.686 133.443 213.04 133.263 213.484L131.337 212.548C131.529 212.032 131.829 211.588 132.237 211.216C132.657 210.832 133.149 210.532 133.713 210.316C134.277 210.1 134.889 209.992 135.549 209.992C136.353 209.992 137.061 210.142 137.673 210.442C138.285 210.73 138.759 211.138 139.095 211.666C139.443 212.182 139.617 212.788 139.617 213.484V220H137.385V218.326L137.889 218.29C137.637 218.71 137.337 219.064 136.989 219.352C136.641 219.628 136.245 219.844 135.801 220C135.357 220.144 134.865 220.216 134.325 220.216Z" fill="black"/>
<rect x="215" y="103" width="100" height="100" rx="50" fill="#0087C7"/>
<path d="M309.66 143H220.342V163H309.66V143Z" fill="#0087C7"/>
<path d="M263.624 153.583V152.468H263.012V147.292H261.4V150.933C260.713 150.285 259.803 149.928 258.859 149.936C258.302 149.928 257.749 150.035 257.235 150.251C256.722 150.467 256.258 150.786 255.874 151.19C255.479 151.582 255.166 152.05 254.956 152.565C254.746 153.081 254.641 153.633 254.649 154.19C254.641 154.746 254.744 155.298 254.951 155.814C255.159 156.33 255.467 156.8 255.858 157.195C256.233 157.597 256.687 157.917 257.192 158.133C257.697 158.349 258.242 158.458 258.792 158.451C259.761 158.449 260.694 158.083 261.406 157.425V158.201H263.012V153.583H263.624ZM260.672 156.14C260.44 156.378 260.162 156.568 259.856 156.697C259.55 156.827 259.22 156.894 258.888 156.894C258.544 156.899 258.202 156.83 257.887 156.691C257.572 156.553 257.29 156.349 257.06 156.093C256.572 155.59 256.296 154.918 256.293 154.217C256.289 153.515 256.557 152.84 257.04 152.332C257.279 152.084 257.565 151.886 257.881 151.75C258.197 151.614 258.538 151.543 258.882 151.54C259.226 151.538 259.567 151.604 259.886 151.735C260.204 151.867 260.493 152.061 260.735 152.305C260.979 152.563 261.169 152.866 261.294 153.198C261.42 153.529 261.479 153.883 261.466 154.237C261.478 154.593 261.414 154.947 261.276 155.275C261.139 155.603 260.933 155.898 260.672 156.14Z" fill="white"/>
<path d="M263.948 150.723H263.266V151.406H263.948V150.723Z" fill="white"/>
<path d="M264.532 152.158H263.9V152.789H264.532V152.158Z" fill="white"/>
<path d="M265.688 148.646H265.291V149.043H265.688V148.646Z" fill="white"/>
<path d="M267.11 147.526H266.951V147.685H267.11V147.526Z" fill="white"/>
<path d="M266.559 147.317H266.135V147.741H266.559V147.317Z" fill="white"/>
<path d="M267.209 147.089H267.002V147.297H267.209V147.089Z" fill="white"/>
<path d="M266.351 148.174H266.076V148.448H266.351V148.174Z" fill="white"/>
<path d="M264.245 153.568H263.922V153.891H264.245V153.568Z" fill="white"/>
<path d="M266.307 150.893H265.285V151.915H266.307V150.893Z" fill="white"/>
<path d="M265.377 149.686H264.451V150.612H265.377V149.686Z" fill="white"/>
<path d="M265.998 153.976H265.562V154.411H265.998V153.976Z" fill="white"/>
<path d="M265.132 147.841H264.492V148.481H265.132V147.841Z" fill="white"/>
<path d="M263.779 155.424H263.357V155.846H263.779V155.424Z" fill="white"/>
<path d="M266.687 154.752H265.955V155.484H266.687V154.752Z" fill="white"/>
<path d="M265.313 154.456H264.193V155.575H265.313V154.456Z" fill="white"/>
<path d="M265.942 152.566H264.867V153.641H265.942V152.566Z" fill="white"/>
<path d="M265.682 156.069H264.912V156.838H265.682V156.069Z" fill="white"/>
<path d="M266.355 152.392H265.969V152.778H266.355V152.392Z" fill="white"/>
<path d="M264.725 151.375H264.58V151.52H264.725V151.375Z" fill="white"/>
<path d="M266.373 156.82H265.965V157.229H266.373V156.82Z" fill="white"/>
<path d="M267.014 157.282H266.746V157.55H267.014V157.282Z" fill="white"/>
<path d="M267.762 146.795V147.018H267.316L267.267 147.045V147.886H266.85V148.722H266.484V149.231H265.814V150.001H266.499V150.893H266.93V151.562H266.655V152.584H266.97V153.003H266.345V154.52H266.972V155.203H267.276V155.709H266.31V156.31H266.776V156.669H266.999V156.957H267.267V157.537H267.443V157.666H267.731V157.889C267.876 157.951 268.025 158.003 268.177 158.045C268.937 158.22 269.716 158.295 270.495 158.268H274.644V156.138H270.999C269.986 156.138 269.243 155.947 268.768 155.567C268.088 155.018 267.749 153.861 267.749 152.095C267.749 150.784 267.972 149.877 268.418 149.376C268.944 148.768 269.779 148.464 270.923 148.464H274.662V146.344H270.597C269.632 146.313 268.67 146.466 267.762 146.795ZM267.646 147.37H267.392V147.116H267.646V147.37ZM269.567 157.385H269.821V157.639H269.567V157.385ZM268.228 156.383H268.833V156.986H268.228V156.383ZM268.282 148.776H267.92V148.414H268.284L268.282 148.776ZM268.746 147.738H268.115V147.105H268.746V147.738ZM269.103 146.846H268.846V146.59H269.103V146.846ZM269.716 147.962H269.46V147.707H269.705L269.716 147.962Z" fill="white"/>
<path d="M267.671 146.846H267.553V146.964H267.671V146.846Z" fill="white"/>
<path d="M267.594 157.751H267.449V157.896H267.594V157.751Z" fill="white"/>
<path d="M282.216 150.929C281.528 150.283 280.617 149.93 279.673 149.942C279.116 149.933 278.563 150.039 278.048 150.254C277.534 150.469 277.069 150.787 276.684 151.19C276.291 151.58 275.98 152.045 275.77 152.558C275.56 153.071 275.455 153.62 275.461 154.174C275.454 154.73 275.558 155.282 275.766 155.798C275.975 156.313 276.284 156.782 276.675 157.177C277.049 157.581 277.503 157.902 278.009 158.12C278.515 158.338 279.06 158.448 279.611 158.442C280.577 158.439 281.507 158.074 282.216 157.418V158.192H283.829V150.137H282.216V150.929ZM281.509 156.131C281.276 156.377 280.994 156.571 280.681 156.703C280.369 156.834 280.032 156.899 279.693 156.894C279.35 156.899 279.009 156.83 278.694 156.694C278.379 156.557 278.097 156.354 277.866 156.1C277.377 155.596 277.103 154.921 277.101 154.219C277.099 153.517 277.369 152.841 277.855 152.334C278.085 152.078 278.368 151.874 278.684 151.737C279 151.6 279.342 151.533 279.687 151.54C280.029 151.532 280.37 151.597 280.686 151.729C281.002 151.861 281.287 152.058 281.523 152.307C281.77 152.56 281.964 152.859 282.093 153.189C282.222 153.518 282.283 153.87 282.272 154.224C282.284 154.577 282.222 154.929 282.091 155.257C281.959 155.585 281.761 155.883 281.509 156.131Z" fill="white"/>
<path d="M290.973 150.404C290.49 150.098 289.928 149.938 289.356 149.942C288.452 149.94 287.581 150.289 286.929 150.915V150.137H285.289V158.201H286.929V155.149C286.903 154.5 286.944 153.85 287.051 153.208C287.141 152.895 287.293 152.603 287.498 152.35C287.698 152.089 287.952 151.874 288.243 151.72C288.517 151.574 288.824 151.498 289.135 151.497C289.396 151.49 289.657 151.535 289.9 151.629C290.094 151.711 290.261 151.845 290.384 152.015C290.529 152.221 290.634 152.453 290.692 152.698C290.787 153.239 290.824 153.79 290.804 154.34V158.199H292.43V154.065C292.43 152.99 292.312 152.211 292.073 151.678C291.842 151.153 291.459 150.709 290.973 150.404Z" fill="white"/>
<path d="M300.195 150.929C299.507 150.281 298.595 149.926 297.65 149.936C297.093 149.927 296.539 150.033 296.025 150.248C295.511 150.462 295.046 150.781 294.66 151.183C294.266 151.574 293.955 152.041 293.745 152.555C293.535 153.068 293.431 153.619 293.438 154.175C293.431 154.731 293.535 155.282 293.743 155.798C293.951 156.313 294.26 156.782 294.651 157.177C295.025 157.583 295.48 157.907 295.987 158.126C296.493 158.345 297.04 158.456 297.592 158.451C298.559 158.448 299.489 158.083 300.2 157.427V158.201H301.81V150.137H300.2L300.195 150.929ZM299.486 156.131C299.252 156.377 298.97 156.571 298.658 156.703C298.345 156.834 298.009 156.899 297.67 156.894C297.326 156.899 296.986 156.831 296.671 156.694C296.356 156.557 296.074 156.354 295.843 156.1C295.354 155.596 295.079 154.922 295.077 154.219C295.075 153.517 295.346 152.841 295.832 152.334C296.062 152.078 296.345 151.874 296.661 151.737C296.977 151.6 297.319 151.533 297.663 151.54C298.006 151.533 298.346 151.597 298.662 151.729C298.979 151.861 299.264 152.058 299.499 152.307C299.747 152.56 299.941 152.86 300.07 153.189C300.199 153.518 300.26 153.87 300.249 154.224C300.26 154.577 300.198 154.929 300.067 155.257C299.936 155.586 299.738 155.883 299.486 156.131Z" fill="white"/>
<path d="M304.751 147.288H303.125V158.201H304.751V147.288Z" fill="white"/>
<path d="M236.113 147.288H234.486V158.201H236.113V147.288Z" fill="white"/>
<path d="M241.251 149.936C240.695 149.928 240.143 150.035 239.631 150.251C239.118 150.468 238.657 150.788 238.275 151.192C237.498 151.998 237.064 153.074 237.064 154.194C237.064 155.313 237.498 156.389 238.275 157.195C238.663 157.591 239.127 157.905 239.638 158.12C240.15 158.334 240.699 158.445 241.254 158.445C241.809 158.445 242.358 158.334 242.869 158.12C243.381 157.905 243.845 157.591 244.233 157.195C245.007 156.387 245.438 155.31 245.436 154.191C245.433 153.072 244.998 151.997 244.22 151.192C243.84 150.787 243.379 150.466 242.868 150.25C242.357 150.034 241.806 149.927 241.251 149.936ZM243.035 156.093C242.801 156.335 242.521 156.527 242.211 156.658C241.902 156.789 241.569 156.857 241.233 156.857C240.896 156.857 240.564 156.789 240.254 156.658C239.944 156.527 239.664 156.335 239.43 156.093C239.192 155.846 239.005 155.555 238.88 155.235C238.756 154.915 238.696 154.573 238.705 154.23C238.698 153.88 238.762 153.531 238.891 153.205C239.021 152.879 239.214 152.582 239.459 152.332C239.684 152.081 239.959 151.88 240.266 151.743C240.574 151.606 240.907 151.535 241.244 151.535C241.581 151.535 241.914 151.606 242.221 151.743C242.529 151.88 242.804 152.081 243.029 152.332C243.275 152.58 243.469 152.875 243.6 153.2C243.731 153.524 243.795 153.872 243.789 154.221C243.799 154.569 243.738 154.914 243.61 155.237C243.482 155.56 243.289 155.854 243.044 156.1L243.035 156.093Z" fill="white"/>
<path d="M251.894 153.189C251.919 153.838 251.878 154.488 251.771 155.129C251.681 155.442 251.53 155.733 251.325 155.986C251.123 156.249 250.866 156.464 250.571 156.615C250.318 156.745 250.04 156.82 249.756 156.836C249.472 156.851 249.188 156.806 248.922 156.704C248.728 156.622 248.561 156.489 248.438 156.318C248.293 156.113 248.189 155.881 248.13 155.636C248.035 155.094 247.998 154.544 248.019 153.994V150.137H246.395V154.273C246.395 155.346 246.511 156.127 246.749 156.66C246.979 157.183 247.358 157.627 247.84 157.934C248.324 158.24 248.887 158.401 249.46 158.395C250.363 158.397 251.232 158.048 251.885 157.423V158.201H253.524V150.137H251.885L251.894 153.189Z" fill="white"/>
<path d="M231.381 146.804H230.801V147.384H231.381V146.804Z" fill="white"/>
<path d="M231.911 147.573H231.148V148.336H231.911V147.573Z" fill="white"/>
<path d="M232.541 148.312H232.184V148.669H232.541V148.312Z" fill="white"/>
<path d="M233.66 148.211H233.395V148.477H233.66V148.211Z" fill="white"/>
<path d="M233.612 147.013H233.453V147.172H233.612V147.013Z" fill="white"/>
<path d="M233.081 147.544H232.465V148.16H233.081V147.544Z" fill="white"/>
<path d="M232.941 146.253H232.162V147.031H232.941V146.253Z" fill="white"/>
<path d="M234.012 146.279H233.572V146.719H234.012V146.279Z" fill="white"/>
<path d="M231.843 146.971H231.629V147.185H231.843V146.971Z" fill="white"/>
<path d="M231.717 146.041H231.258V146.5H231.717V146.041Z" fill="white"/>
<path d="M231.381 156.53H230.801V157.11H231.381V156.53Z" fill="white"/>
<path d="M231.911 157.298H231.148V158.061H231.911V157.298Z" fill="white"/>
<path d="M232.541 158.036H232.184V158.393H232.541V158.036Z" fill="white"/>
<path d="M233.66 157.938H233.395V158.204H233.66V157.938Z" fill="white"/>
<path d="M233.612 156.74H233.453V156.898H233.612V156.74Z" fill="white"/>
<path d="M233.081 157.271H232.465V157.887H233.081V157.271Z" fill="white"/>
<path d="M230.634 156.332H230.889V156.08H230.523V156.127H230.048V156.08H229.845C228.829 156.08 228.085 155.889 227.614 155.506C226.935 154.958 226.596 153.8 226.594 152.035C226.594 150.723 226.817 149.817 227.263 149.316C227.787 148.709 228.622 148.405 229.769 148.403H230.411V148.044H230.889V147.598H230.645V146.596H230.889V146.264H230.523V146.389H230.048V146.264H229.438C228.695 146.252 227.953 146.334 227.23 146.507V146.65H226.951V146.589C226.721 146.66 226.497 146.749 226.282 146.857C225.445 147.301 224.785 148.017 224.412 148.887C223.951 149.95 223.728 151.1 223.759 152.258C223.759 154.514 224.331 156.137 225.476 157.126C225.918 157.517 226.44 157.804 227.007 157.967C227.766 158.141 228.544 158.216 229.322 158.19H230.378V157.744H230.889V157.298H230.645L230.634 156.332ZM230.045 147.02H230.34V147.314H230.045V147.02ZM230.09 147.466V148.124H229.432V147.466H230.09ZM229.327 146.505H229.802V146.98H229.327V146.505ZM228.35 146.871H229.175V147.705H228.35V146.871ZM228.178 148.109H228.457V148.385H228.178V148.109ZM227.689 146.61H228.033V146.953H227.689V146.61ZM227.243 147.596H227.689V148.042H227.243V147.596ZM226.784 148.954H226.65V148.82H226.788L226.784 148.954ZM226.587 147.089H226.779V147.279H226.587V147.089ZM226.996 156.905H226.804V156.713H226.996V156.905ZM227.031 155.977H226.755V155.7H227.031V155.977ZM227.701 157.762H227.254V157.316H227.701V157.762ZM228.04 156.669H227.696V156.325H228.04V156.669ZM228.464 158.103H228.185V157.826H228.464V158.103ZM229.182 157.414H228.356V156.588H229.182V157.414ZM229.334 156.698V156.222H229.809V156.698H229.334ZM230.094 157.844H229.436V157.175H230.094V157.844ZM230.344 157.03H230.05V156.738H230.344V157.03Z" fill="white"/>
<path d="M232.941 155.979H232.162V156.758H232.941V155.979Z" fill="white"/>
<path d="M234.012 156.006H233.572V156.446H234.012V156.006Z" fill="white"/>
<path d="M231.843 156.698H231.629V156.912H231.843V156.698Z" fill="white"/>
<path d="M231.717 155.765H231.258V156.225H231.717V155.765Z" fill="white"/>
<path d="M265 243.755L265 207.404" stroke="#0087C7" stroke-linecap="round"/>
<path d="M271 238L265 244L259 238" stroke="#0087C7" stroke-linecap="round" stroke-linejoin="round"/>
<path d="M271 213L265 207L259 213" stroke="#0087C7" stroke-linecap="round" stroke-linejoin="round"/>
<path d="M248.489 274V260.59H250.937V271.84H256.679V274H248.489ZM258.263 274V260.59H260.711V271.84H266.453V274H258.263ZM268.036 274V260.59H270.376L275.398 267.412H274.282L279.196 260.59H281.536V274H279.07V263.38L280.024 263.614L274.93 270.4H274.642L269.674 263.614L270.484 263.38V274H268.036Z" fill="black"/>
<path d="M434.348 183.659H411.714C411.537 183.009 411.2 182.417 410.737 181.939C410.274 181.461 409.699 181.114 409.069 180.931V175.015C409.058 174.742 408.945 174.483 408.753 174.294C408.562 174.105 408.307 173.999 408.042 173.999C407.776 173.999 407.521 174.105 407.33 174.294C407.139 174.483 407.026 174.742 407.014 175.015V180.931C406.384 181.114 405.81 181.461 405.347 181.939C404.884 182.416 404.548 183.009 404.371 183.659H381.737C381.599 183.653 381.461 183.676 381.331 183.727C381.201 183.778 381.083 183.855 380.983 183.954C380.882 184.053 380.803 184.171 380.748 184.303C380.694 184.434 380.666 184.576 380.666 184.719C380.666 184.862 380.694 185.004 380.748 185.135C380.803 185.267 380.882 185.385 380.983 185.484C381.083 185.583 381.201 185.66 381.331 185.711C381.461 185.762 381.599 185.785 381.737 185.779H404.371C404.592 186.608 405.071 187.34 405.734 187.862C406.397 188.383 407.208 188.666 408.043 188.666C408.877 188.666 409.688 188.383 410.351 187.862C411.015 187.34 411.493 186.608 411.714 185.779H434.348C434.613 185.767 434.863 185.65 435.047 185.453C435.23 185.255 435.333 184.993 435.333 184.719C435.333 184.445 435.23 184.182 435.047 183.985C434.863 183.788 434.613 183.671 434.348 183.659ZM408.043 186.549C407.691 186.549 407.348 186.442 407.056 186.24C406.764 186.039 406.537 185.753 406.402 185.419C406.268 185.084 406.233 184.716 406.301 184.361C406.37 184.006 406.539 183.679 406.787 183.423C407.036 183.167 407.352 182.993 407.696 182.922C408.041 182.852 408.397 182.888 408.722 183.026C409.046 183.165 409.323 183.4 409.519 183.701C409.714 184.002 409.818 184.356 409.818 184.718C409.817 185.203 409.629 185.669 409.297 186.012C408.964 186.355 408.513 186.548 408.043 186.549Z" fill="black"/>
<path d="M426.724 127.399C423.441 127.399 420.499 127.831 418.062 128.548V127.967C418.062 123.126 409.262 119.332 398.028 119.332C386.795 119.332 378 123.126 378 127.967V162.693C378 167.538 386.797 171.332 398.028 171.332C409.26 171.332 418.062 167.538 418.062 162.693V161.049C420.499 161.761 423.441 162.2 426.724 162.2C435.433 162.2 442 159.306 442 155.468V134.128C442 130.292 435.433 127.399 426.724 127.399ZM416.022 148.095C414.057 149.074 407.522 151.935 398.167 151.935C388.864 151.935 382.07 149.054 380.04 148.081V141.23C382.767 142.461 389.313 144.92 398.167 144.92C407.021 144.92 413.346 142.498 416.022 141.255V148.095ZM416.022 139.556C414.054 140.534 407.499 143.397 398.167 143.397C388.864 143.397 382.07 140.515 380.04 139.541V131.801C383.266 134.665 390.018 136.604 398.028 136.604C406.038 136.604 412.795 134.67 416.022 131.801V139.556ZM380.04 149.759C382.767 150.99 389.313 153.447 398.167 153.447C407.021 153.447 413.346 151.026 416.022 149.782V156.633C414.057 157.612 407.522 160.473 398.167 160.473C388.864 160.473 382.07 157.591 380.04 156.617V149.759ZM398.028 121.348C408.631 121.348 416.022 124.837 416.022 127.967C416.022 131.096 408.639 134.59 398.028 134.59C387.418 134.59 380.04 131.1 380.04 127.967C380.04 124.834 387.427 121.348 398.028 121.348ZM398.028 169.317C387.427 169.317 380.04 165.826 380.04 162.693V158.295C382.767 159.526 389.313 161.983 398.167 161.983C407.021 161.983 413.346 159.564 416.022 158.32V162.693C416.022 165.826 408.631 169.317 398.028 169.317ZM439.96 155.463C439.96 157.69 434.3 160.179 426.724 160.179C423.319 160.179 420.351 159.658 418.062 158.902V153.493C420.924 154.231 423.869 154.605 426.827 154.603C433.149 154.603 437.774 152.963 439.96 151.99V155.463ZM439.96 150.312C438.316 151.104 433.533 153.088 426.827 153.088C423.864 153.085 420.916 152.687 418.062 151.905V146.612C420.924 147.35 423.869 147.723 426.827 147.722C433.149 147.722 437.774 146.08 439.96 145.108V150.312ZM439.96 143.431C438.316 144.222 433.533 146.204 426.827 146.204C423.865 146.203 420.917 145.806 418.062 145.025V139.687C420.497 140.41 423.434 140.847 426.724 140.847C432.528 140.847 437.368 139.557 439.96 137.563V143.431ZM426.724 138.837C423.319 138.837 420.351 138.317 418.062 137.561V130.69C420.351 129.934 423.319 129.415 426.724 129.415C434.3 129.415 439.96 131.906 439.96 134.128C439.96 136.35 434.3 138.842 426.724 138.842V138.837Z" fill="black"/>
<path d="M372.269 220L367.589 206.59H370.253L373.925 217.696H373.403L377.075 206.59H379.739L375.077 220H372.269ZM384.787 220.216C383.779 220.216 382.897 219.988 382.141 219.532C381.385 219.076 380.797 218.458 380.377 217.678C379.957 216.898 379.747 216.034 379.747 215.086C379.747 214.102 379.957 213.232 380.377 212.476C380.809 211.708 381.391 211.102 382.123 210.658C382.867 210.214 383.695 209.992 384.607 209.992C385.375 209.992 386.047 210.118 386.623 210.37C387.211 210.622 387.709 210.97 388.117 211.414C388.525 211.858 388.837 212.368 389.053 212.944C389.269 213.508 389.377 214.12 389.377 214.78C389.377 214.948 389.365 215.122 389.341 215.302C389.329 215.482 389.299 215.638 389.251 215.77H381.691V213.97H387.919L386.803 214.816C386.911 214.264 386.881 213.772 386.713 213.34C386.557 212.908 386.293 212.566 385.921 212.314C385.561 212.062 385.123 211.936 384.607 211.936C384.115 211.936 383.677 212.062 383.293 212.314C382.909 212.554 382.615 212.914 382.411 213.394C382.219 213.862 382.147 214.432 382.195 215.104C382.147 215.704 382.225 216.238 382.429 216.706C382.645 217.162 382.957 217.516 383.365 217.768C383.785 218.02 384.265 218.146 384.805 218.146C385.345 218.146 385.801 218.032 386.173 217.804C386.557 217.576 386.857 217.27 387.073 216.886L388.981 217.822C388.789 218.29 388.489 218.704 388.081 219.064C387.673 219.424 387.187 219.706 386.623 219.91C386.071 220.114 385.459 220.216 384.787 220.216ZM395.88 220.216C394.908 220.216 394.032 219.994 393.252 219.55C392.484 219.094 391.878 218.482 391.434 217.714C390.99 216.934 390.768 216.058 390.768 215.086C390.768 214.114 390.99 213.244 391.434 212.476C391.878 211.708 392.484 211.102 393.252 210.658C394.032 210.214 394.908 209.992 395.88 209.992C396.576 209.992 397.224 210.118 397.824 210.37C398.424 210.61 398.94 210.946 399.372 211.378C399.816 211.798 400.134 212.302 400.326 212.89L398.256 213.79C398.076 213.298 397.77 212.902 397.338 212.602C396.918 212.302 396.432 212.152 395.88 212.152C395.364 212.152 394.902 212.278 394.494 212.53C394.098 212.782 393.786 213.13 393.558 213.574C393.33 214.018 393.216 214.528 393.216 215.104C393.216 215.68 393.33 216.19 393.558 216.634C393.786 217.078 394.098 217.426 394.494 217.678C394.902 217.93 395.364 218.056 395.88 218.056C396.444 218.056 396.936 217.906 397.356 217.606C397.776 217.306 398.076 216.904 398.256 216.4L400.326 217.336C400.134 217.888 399.822 218.386 399.39 218.83C398.958 219.262 398.442 219.604 397.842 219.856C397.242 220.096 396.588 220.216 395.88 220.216ZM406.58 220.108C405.476 220.108 404.618 219.808 404.006 219.208C403.406 218.596 403.106 217.738 403.106 216.634V212.314H401.414V210.208H401.594C402.074 210.208 402.446 210.082 402.71 209.83C402.974 209.578 403.106 209.212 403.106 208.732V207.976H405.464V210.208H407.714V212.314H405.464V216.508C405.464 216.832 405.518 217.108 405.626 217.336C405.746 217.564 405.926 217.738 406.166 217.858C406.418 217.978 406.736 218.038 407.12 218.038C407.204 218.038 407.3 218.032 407.408 218.02C407.528 218.008 407.642 217.996 407.75 217.984V220C407.582 220.024 407.39 220.048 407.174 220.072C406.958 220.096 406.76 220.108 406.58 220.108ZM414.251 220.216C413.291 220.216 412.415 219.994 411.623 219.55C410.843 219.106 410.219 218.5 409.751 217.732C409.295 216.964 409.067 216.088 409.067 215.104C409.067 214.12 409.295 213.244 409.751 212.476C410.219 211.708 410.843 211.102 411.623 210.658C412.403 210.214 413.279 209.992 414.251 209.992C415.211 209.992 416.081 210.214 416.861 210.658C417.641 211.102 418.259 211.708 418.715 212.476C419.183 213.232 419.417 214.108 419.417 215.104C419.417 216.088 419.183 216.964 418.715 217.732C418.247 218.5 417.623 219.106 416.843 219.55C416.063 219.994 415.199 220.216 414.251 220.216ZM414.251 218.056C414.779 218.056 415.241 217.93 415.637 217.678C416.045 217.426 416.363 217.078 416.591 216.634C416.831 216.178 416.951 215.668 416.951 215.104C416.951 214.528 416.831 214.024 416.591 213.592C416.363 213.148 416.045 212.8 415.637 212.548C415.241 212.284 414.779 212.152 414.251 212.152C413.711 212.152 413.237 212.284 412.829 212.548C412.421 212.8 412.097 213.148 411.857 213.592C411.629 214.024 411.515 214.528 411.515 215.104C411.515 215.668 411.629 216.178 411.857 216.634C412.097 217.078 412.421 217.426 412.829 217.678C413.237 217.93 413.711 218.056 414.251 218.056ZM421.205 220V210.208H423.419V212.386L423.239 212.062C423.467 211.33 423.821 210.82 424.301 210.532C424.793 210.244 425.381 210.1 426.065 210.1H426.641V212.188H425.795C425.123 212.188 424.583 212.398 424.175 212.818C423.767 213.226 423.563 213.802 423.563 214.546V220H421.205ZM428.136 220V206.59H432.51C433.926 206.59 435.156 206.878 436.2 207.454C437.256 208.018 438.072 208.804 438.648 209.812C439.224 210.808 439.512 211.966 439.512 213.286C439.512 214.594 439.224 215.758 438.648 216.778C438.072 217.786 437.256 218.578 436.2 219.154C435.156 219.718 433.926 220 432.51 220H428.136ZM430.584 217.84H432.564C433.476 217.84 434.262 217.654 434.922 217.282C435.594 216.898 436.116 216.37 436.488 215.698C436.86 215.014 437.046 214.21 437.046 213.286C437.046 212.35 436.86 211.546 436.488 210.874C436.116 210.202 435.594 209.68 434.922 209.308C434.262 208.936 433.476 208.75 432.564 208.75H430.584V217.84ZM441.46 220V206.59H447.112C448 206.59 448.756 206.746 449.38 207.058C450.016 207.358 450.502 207.79 450.838 208.354C451.186 208.906 451.36 209.578 451.36 210.37C451.36 210.982 451.192 211.558 450.856 212.098C450.532 212.626 450.01 213.064 449.29 213.412V212.278C449.95 212.53 450.472 212.842 450.856 213.214C451.24 213.586 451.51 214 451.666 214.456C451.822 214.912 451.9 215.392 451.9 215.896C451.9 217.18 451.474 218.188 450.622 218.92C449.782 219.64 448.612 220 447.112 220H441.46ZM443.908 217.84H447.364C448 217.84 448.504 217.666 448.876 217.318C449.26 216.958 449.452 216.484 449.452 215.896C449.452 215.308 449.26 214.834 448.876 214.474C448.504 214.114 448 213.934 447.364 213.934H443.908V217.84ZM443.908 211.792H447.238C447.742 211.792 448.144 211.648 448.444 211.36C448.744 211.06 448.894 210.676 448.894 210.208C448.894 209.74 448.744 209.368 448.444 209.092C448.144 208.816 447.742 208.678 447.238 208.678H443.908V211.792Z" fill="black"/>
<rect x="505" y="103" width="100" height="100" rx="50" fill="#0087C7"/>
<path d="M599.66 143H510.342V163H599.66V143Z" fill="#0087C7"/>
<path d="M553.624 153.583V152.468H553.012V147.292H551.4V150.933C550.713 150.285 549.803 149.928 548.859 149.936C548.302 149.928 547.749 150.035 547.235 150.251C546.722 150.467 546.258 150.786 545.874 151.19C545.479 151.582 545.166 152.05 544.956 152.565C544.746 153.081 544.641 153.633 544.649 154.19C544.641 154.746 544.744 155.298 544.951 155.814C545.159 156.33 545.467 156.8 545.858 157.195C546.233 157.597 546.687 157.917 547.192 158.133C547.697 158.349 548.242 158.458 548.792 158.451C549.761 158.449 550.694 158.083 551.406 157.425V158.201H553.012V153.583H553.624ZM550.672 156.14C550.44 156.378 550.162 156.568 549.856 156.697C549.55 156.827 549.22 156.894 548.888 156.894C548.544 156.899 548.202 156.83 547.887 156.691C547.572 156.553 547.29 156.349 547.06 156.093C546.572 155.59 546.296 154.918 546.293 154.217C546.289 153.515 546.557 152.84 547.04 152.332C547.279 152.084 547.565 151.886 547.881 151.75C548.197 151.614 548.538 151.543 548.882 151.54C549.226 151.538 549.567 151.604 549.886 151.735C550.204 151.867 550.493 152.061 550.735 152.305C550.979 152.563 551.169 152.866 551.294 153.198C551.42 153.529 551.479 153.883 551.466 154.237C551.478 154.593 551.414 154.947 551.276 155.275C551.139 155.603 550.933 155.898 550.672 156.14Z" fill="white"/>
<path d="M553.948 150.723H553.266V151.406H553.948V150.723Z" fill="white"/>
<path d="M554.532 152.158H553.9V152.789H554.532V152.158Z" fill="white"/>
<path d="M555.688 148.646H555.291V149.043H555.688V148.646Z" fill="white"/>
<path d="M557.11 147.526H556.951V147.685H557.11V147.526Z" fill="white"/>
<path d="M556.559 147.317H556.135V147.741H556.559V147.317Z" fill="white"/>
<path d="M557.209 147.089H557.002V147.297H557.209V147.089Z" fill="white"/>
<path d="M556.351 148.174H556.076V148.448H556.351V148.174Z" fill="white"/>
<path d="M554.245 153.568H553.922V153.891H554.245V153.568Z" fill="white"/>
<path d="M556.307 150.893H555.285V151.915H556.307V150.893Z" fill="white"/>
<path d="M555.377 149.686H554.451V150.612H555.377V149.686Z" fill="white"/>
<path d="M555.998 153.976H555.562V154.411H555.998V153.976Z" fill="white"/>
<path d="M555.132 147.841H554.492V148.481H555.132V147.841Z" fill="white"/>
<path d="M553.779 155.424H553.357V155.846H553.779V155.424Z" fill="white"/>
<path d="M556.687 154.752H555.955V155.484H556.687V154.752Z" fill="white"/>
<path d="M555.313 154.456H554.193V155.575H555.313V154.456Z" fill="white"/>
<path d="M555.942 152.566H554.867V153.641H555.942V152.566Z" fill="white"/>
<path d="M555.682 156.069H554.912V156.838H555.682V156.069Z" fill="white"/>
<path d="M556.355 152.392H555.969V152.778H556.355V152.392Z" fill="white"/>
<path d="M554.725 151.375H554.58V151.52H554.725V151.375Z" fill="white"/>
<path d="M556.373 156.82H555.965V157.229H556.373V156.82Z" fill="white"/>
<path d="M557.014 157.282H556.746V157.55H557.014V157.282Z" fill="white"/>
<path d="M557.762 146.795V147.018H557.316L557.267 147.045V147.886H556.85V148.722H556.484V149.231H555.814V150.001H556.499V150.893H556.93V151.562H556.655V152.584H556.97V153.003H556.345V154.52H556.972V155.203H557.276V155.709H556.31V156.31H556.776V156.669H556.999V156.957H557.267V157.537H557.443V157.666H557.731V157.889C557.876 157.951 558.025 158.003 558.177 158.045C558.937 158.22 559.716 158.295 560.495 158.268H564.644V156.138H560.999C559.986 156.138 559.243 155.947 558.768 155.567C558.088 155.018 557.749 153.861 557.749 152.095C557.749 150.784 557.972 149.877 558.418 149.376C558.944 148.768 559.779 148.464 560.923 148.464H564.662V146.344H560.597C559.632 146.313 558.67 146.466 557.762 146.795ZM557.646 147.37H557.392V147.116H557.646V147.37ZM559.567 157.385H559.821V157.639H559.567V157.385ZM558.228 156.383H558.833V156.986H558.228V156.383ZM558.282 148.776H557.92V148.414H558.284L558.282 148.776ZM558.746 147.738H558.115V147.105H558.746V147.738ZM559.103 146.846H558.846V146.59H559.103V146.846ZM559.716 147.962H559.46V147.707H559.705L559.716 147.962Z" fill="white"/>
<path d="M557.671 146.846H557.553V146.964H557.671V146.846Z" fill="white"/>
<path d="M557.594 157.751H557.449V157.896H557.594V157.751Z" fill="white"/>
<path d="M572.216 150.929C571.528 150.283 570.617 149.93 569.673 149.942C569.116 149.933 568.563 150.039 568.048 150.254C567.534 150.469 567.069 150.787 566.684 151.19C566.291 151.58 565.98 152.045 565.77 152.558C565.56 153.071 565.455 153.62 565.461 154.174C565.454 154.73 565.558 155.282 565.766 155.798C565.975 156.313 566.284 156.782 566.675 157.177C567.049 157.581 567.503 157.902 568.009 158.12C568.515 158.338 569.06 158.448 569.611 158.442C570.577 158.439 571.507 158.074 572.216 157.418V158.192H573.829V150.137H572.216V150.929ZM571.509 156.131C571.276 156.377 570.994 156.571 570.681 156.703C570.369 156.834 570.032 156.899 569.693 156.894C569.35 156.899 569.009 156.83 568.694 156.694C568.379 156.557 568.097 156.354 567.866 156.1C567.377 155.596 567.103 154.921 567.101 154.219C567.099 153.517 567.369 152.841 567.855 152.334C568.085 152.078 568.368 151.874 568.684 151.737C569 151.6 569.342 151.533 569.687 151.54C570.029 151.532 570.37 151.597 570.686 151.729C571.002 151.861 571.287 152.058 571.523 152.307C571.77 152.56 571.964 152.859 572.093 153.189C572.222 153.518 572.283 153.87 572.272 154.224C572.284 154.577 572.222 154.929 572.091 155.257C571.959 155.585 571.761 155.883 571.509 156.131Z" fill="white"/>
<path d="M580.973 150.404C580.49 150.098 579.928 149.938 579.356 149.942C578.452 149.94 577.581 150.289 576.929 150.915V150.137H575.289V158.201H576.929V155.149C576.903 154.5 576.944 153.85 577.051 153.208C577.141 152.895 577.293 152.603 577.498 152.35C577.698 152.089 577.952 151.874 578.243 151.72C578.517 151.574 578.824 151.498 579.135 151.497C579.396 151.49 579.657 151.535 579.9 151.629C580.094 151.711 580.261 151.845 580.384 152.015C580.529 152.221 580.634 152.453 580.692 152.698C580.787 153.239 580.824 153.79 580.804 154.34V158.199H582.43V154.065C582.43 152.99 582.312 152.211 582.073 151.678C581.842 151.153 581.459 150.709 580.973 150.404Z" fill="white"/>
<path d="M590.195 150.929C589.507 150.281 588.595 149.926 587.65 149.936C587.093 149.927 586.539 150.033 586.025 150.248C585.511 150.462 585.046 150.781 584.66 151.183C584.266 151.574 583.955 152.041 583.745 152.555C583.535 153.068 583.431 153.619 583.438 154.175C583.431 154.731 583.535 155.282 583.743 155.798C583.951 156.313 584.26 156.782 584.651 157.177C585.025 157.583 585.48 157.907 585.987 158.126C586.493 158.345 587.04 158.456 587.592 158.451C588.559 158.448 589.489 158.083 590.2 157.427V158.201H591.81V150.137H590.2L590.195 150.929ZM589.486 156.131C589.252 156.377 588.97 156.571 588.658 156.703C588.345 156.834 588.009 156.899 587.67 156.894C587.326 156.899 586.986 156.831 586.671 156.694C586.356 156.557 586.074 156.354 585.843 156.1C585.354 155.596 585.079 154.922 585.077 154.219C585.075 153.517 585.346 152.841 585.832 152.334C586.062 152.078 586.345 151.874 586.661 151.737C586.977 151.6 587.319 151.533 587.663 151.54C588.006 151.533 588.346 151.597 588.662 151.729C588.979 151.861 589.264 152.058 589.499 152.307C589.747 152.56 589.941 152.86 590.07 153.189C590.199 153.518 590.26 153.87 590.249 154.224C590.26 154.577 590.198 154.929 590.067 155.257C589.936 155.586 589.738 155.883 589.486 156.131Z" fill="white"/>
<path d="M594.751 147.288H593.125V158.201H594.751V147.288Z" fill="white"/>
<path d="M526.113 147.288H524.486V158.201H526.113V147.288Z" fill="white"/>
<path d="M531.251 149.936C530.695 149.928 530.143 150.035 529.631 150.251C529.118 150.468 528.657 150.788 528.275 151.192C527.498 151.998 527.064 153.074 527.064 154.194C527.064 155.313 527.498 156.389 528.275 157.195C528.663 157.591 529.127 157.905 529.638 158.12C530.15 158.334 530.699 158.445 531.254 158.445C531.809 158.445 532.358 158.334 532.869 158.12C533.381 157.905 533.845 157.591 534.233 157.195C535.007 156.387 535.438 155.31 535.436 154.191C535.433 153.072 534.998 151.997 534.22 151.192C533.84 150.787 533.379 150.466 532.868 150.25C532.357 150.034 531.806 149.927 531.251 149.936ZM533.035 156.093C532.801 156.335 532.521 156.527 532.211 156.658C531.902 156.789 531.569 156.857 531.233 156.857C530.896 156.857 530.564 156.789 530.254 156.658C529.944 156.527 529.664 156.335 529.43 156.093C529.192 155.846 529.005 155.555 528.88 155.235C528.756 154.915 528.696 154.573 528.705 154.23C528.698 153.88 528.762 153.531 528.891 153.205C529.021 152.879 529.214 152.582 529.459 152.332C529.684 152.081 529.959 151.88 530.266 151.743C530.574 151.606 530.907 151.535 531.244 151.535C531.581 151.535 531.914 151.606 532.221 151.743C532.529 151.88 532.804 152.081 533.029 152.332C533.275 152.58 533.469 152.875 533.6 153.2C533.731 153.524 533.795 153.872 533.789 154.221C533.799 154.569 533.738 154.914 533.61 155.237C533.482 155.56 533.289 155.854 533.044 156.1L533.035 156.093Z" fill="white"/>
<path d="M541.894 153.189C541.919 153.838 541.878 154.488 541.771 155.129C541.681 155.442 541.53 155.733 541.325 155.986C541.123 156.249 540.866 156.464 540.571 156.615C540.318 156.745 540.04 156.82 539.756 156.836C539.472 156.851 539.188 156.806 538.922 156.704C538.728 156.622 538.561 156.489 538.438 156.318C538.293 156.113 538.189 155.881 538.13 155.636C538.035 155.094 537.998 154.544 538.019 153.994V150.137H536.395V154.273C536.395 155.346 536.511 156.127 536.749 156.66C536.979 157.183 537.358 157.627 537.84 157.934C538.324 158.24 538.887 158.401 539.46 158.395C540.363 158.397 541.232 158.048 541.885 157.423V158.201H543.524V150.137H541.885L541.894 153.189Z" fill="white"/>
<path d="M521.381 146.804H520.801V147.384H521.381V146.804Z" fill="white"/>
<path d="M521.911 147.573H521.148V148.336H521.911V147.573Z" fill="white"/>
<path d="M522.541 148.312H522.184V148.669H522.541V148.312Z" fill="white"/>
<path d="M523.66 148.211H523.395V148.477H523.66V148.211Z" fill="white"/>
<path d="M523.612 147.013H523.453V147.172H523.612V147.013Z" fill="white"/>
<path d="M523.081 147.544H522.465V148.16H523.081V147.544Z" fill="white"/>
<path d="M522.941 146.253H522.162V147.031H522.941V146.253Z" fill="white"/>
<path d="M524.012 146.279H523.572V146.719H524.012V146.279Z" fill="white"/>
<path d="M521.843 146.971H521.629V147.185H521.843V146.971Z" fill="white"/>
<path d="M521.717 146.041H521.258V146.5H521.717V146.041Z" fill="white"/>
<path d="M521.381 156.53H520.801V157.11H521.381V156.53Z" fill="white"/>
<path d="M521.911 157.298H521.148V158.061H521.911V157.298Z" fill="white"/>
<path d="M522.541 158.036H522.184V158.393H522.541V158.036Z" fill="white"/>
<path d="M523.66 157.938H523.395V158.204H523.66V157.938Z" fill="white"/>
<path d="M523.612 156.74H523.453V156.898H523.612V156.74Z" fill="white"/>
<path d="M523.081 157.271H522.465V157.887H523.081V157.271Z" fill="white"/>
<path d="M520.634 156.332H520.889V156.08H520.523V156.127H520.048V156.08H519.845C518.829 156.08 518.085 155.889 517.614 155.506C516.935 154.958 516.596 153.8 516.594 152.035C516.594 150.723 516.817 149.817 517.263 149.316C517.787 148.709 518.622 148.405 519.769 148.403H520.411V148.044H520.889V147.598H520.645V146.596H520.889V146.264H520.523V146.389H520.048V146.264H519.438C518.695 146.252 517.953 146.334 517.23 146.507V146.65H516.951V146.589C516.721 146.66 516.497 146.749 516.282 146.857C515.445 147.301 514.785 148.017 514.412 148.887C513.951 149.95 513.728 151.1 513.759 152.258C513.759 154.514 514.331 156.137 515.476 157.126C515.918 157.517 516.44 157.804 517.007 157.967C517.766 158.141 518.544 158.216 519.322 158.19H520.378V157.744H520.889V157.298H520.645L520.634 156.332ZM520.045 147.02H520.34V147.314H520.045V147.02ZM520.09 147.466V148.124H519.432V147.466H520.09ZM519.327 146.505H519.802V146.98H519.327V146.505ZM518.35 146.871H519.175V147.705H518.35V146.871ZM518.178 148.109H518.457V148.385H518.178V148.109ZM517.689 146.61H518.033V146.953H517.689V146.61ZM517.243 147.596H517.689V148.042H517.243V147.596ZM516.784 148.954H516.65V148.82H516.788L516.784 148.954ZM516.587 147.089H516.779V147.279H516.587V147.089ZM516.996 156.905H516.804V156.713H516.996V156.905ZM517.031 155.977H516.755V155.7H517.031V155.977ZM517.701 157.762H517.254V157.316H517.701V157.762ZM518.04 156.669H517.696V156.325H518.04V156.669ZM518.464 158.103H518.185V157.826H518.464V158.103ZM519.182 157.414H518.356V156.588H519.182V157.414ZM519.334 156.698V156.222H519.809V156.698H519.334ZM520.094 157.844H519.436V157.175H520.094V157.844ZM520.344 157.03H520.05V156.738H520.344V157.03Z" fill="white"/>
<path d="M522.941 155.979H522.162V156.758H522.941V155.979Z" fill="white"/>
<path d="M524.012 156.006H523.572V156.446H524.012V156.006Z" fill="white"/>
<path d="M521.843 156.698H521.629V156.912H521.843V156.698Z" fill="white"/>
<path d="M521.717 155.765H521.258V156.225H521.717V155.765Z" fill="white"/>
<path d="M555 243.755L555 207.404" stroke="#0087C7" stroke-linecap="round"/>
<path d="M561 238L555 244L549 238" stroke="#0087C7" stroke-linecap="round" stroke-linejoin="round"/>
<path d="M561 213L555 207L549 213" stroke="#0087C7" stroke-linecap="round" stroke-linejoin="round"/>
<path d="M538.489 274V260.59H540.937V271.84H546.679V274H538.489ZM548.263 274V260.59H550.711V271.84H556.453V274H548.263ZM558.036 274V260.59H560.376L565.398 267.412H564.282L569.196 260.59H571.536V274H569.07V263.38L570.024 263.614L564.93 270.4H564.642L559.674 263.614L560.484 263.38V274H558.036Z" fill="black"/>
<path d="M669.334 168.44C669.334 171.759 672.02 174.459 675.322 174.459C677.154 174.459 678.776 173.609 679.875 172.302L694.36 180.706C694.151 181.318 694.013 181.964 694.013 182.647C694.013 185.966 696.699 188.667 700.001 188.667C703.302 188.667 705.988 185.966 705.988 182.647C705.988 181.964 705.85 181.318 705.641 180.706L720.127 172.302C721.226 173.609 722.847 174.459 724.68 174.459C727.981 174.459 730.667 171.759 730.667 168.44C730.667 165.518 728.583 163.08 725.832 162.538V145.462C728.583 144.921 730.667 142.482 730.667 139.56C730.667 136.241 727.981 133.541 724.68 133.541C722.847 133.541 721.226 134.391 720.127 135.698L705.641 127.294C705.85 126.682 705.988 126.036 705.988 125.353C705.988 122.034 703.302 119.333 700.001 119.333C696.699 119.333 694.013 122.034 694.013 125.353C694.013 126.036 694.151 126.682 694.36 127.294L679.875 135.698C678.776 134.391 677.154 133.541 675.322 133.541C672.02 133.541 669.334 136.241 669.334 139.56C669.334 142.482 671.418 144.921 674.17 145.462V162.538C671.418 163.08 669.334 165.518 669.334 168.44ZM675.322 172.147C673.287 172.147 671.633 170.485 671.633 168.44C671.633 166.396 673.287 164.732 675.322 164.732C677.356 164.732 679.01 166.395 679.01 168.44C679.01 170.486 677.356 172.147 675.322 172.147ZM700.001 186.357C697.966 186.357 696.312 184.694 696.312 182.648C696.312 180.603 697.966 178.941 700.001 178.941C702.035 178.941 703.689 180.604 703.689 182.648C703.689 184.693 702.035 186.357 700.001 186.357ZM728.368 168.44C728.368 170.485 726.714 172.147 724.68 172.147C722.645 172.147 720.991 170.485 720.991 168.44C720.991 166.396 722.645 164.732 724.68 164.732C726.714 164.732 728.368 166.395 728.368 168.44ZM724.68 135.853C726.714 135.853 728.368 137.515 728.368 139.56C728.368 141.604 726.714 143.268 724.68 143.268C722.645 143.268 720.991 141.605 720.991 139.56C720.991 137.514 722.645 135.853 724.68 135.853ZM700.001 121.643C702.035 121.643 703.689 123.306 703.689 125.352C703.689 127.397 702.035 129.059 700.001 129.059C697.966 129.059 696.312 127.396 696.312 125.352C696.312 123.307 697.966 121.643 700.001 121.643ZM695.513 129.293C696.612 130.555 698.206 131.37 700.001 131.37C701.795 131.37 703.39 130.555 704.488 129.293L719.008 137.718C718.82 138.302 718.691 138.914 718.691 139.56C718.691 142.483 720.777 144.923 723.531 145.462V162.536C720.777 163.076 718.691 165.516 718.691 168.439C718.691 169.086 718.82 169.698 719.008 170.281L704.488 178.705C703.389 177.444 701.795 176.629 700.001 176.629C698.206 176.629 696.611 177.444 695.513 178.705L680.993 170.281C681.182 169.696 681.31 169.085 681.31 168.439C681.31 165.516 679.224 163.076 676.47 162.536V145.462C679.224 144.923 681.31 142.483 681.31 139.56C681.31 138.913 681.182 138.301 680.993 137.718L695.513 129.293ZM671.633 139.56C671.633 137.515 673.287 135.853 675.322 135.853C677.356 135.853 679.01 137.515 679.01 139.56C679.01 141.604 677.356 143.268 675.322 143.268C673.287 143.268 671.633 141.605 671.633 139.56Z" fill="black"/>
<path d="M699.999 171.333C709.557 171.333 717.333 163.558 717.333 154C717.333 144.442 709.558 136.667 699.999 136.667C690.441 136.667 682.666 144.442 682.666 154C682.666 163.558 690.441 171.333 699.999 171.333ZM699.999 138.907C708.321 138.907 715.091 145.677 715.091 153.999C715.091 162.32 708.321 169.091 699.999 169.091C691.678 169.091 684.907 162.32 684.907 153.999C684.907 145.677 691.678 138.907 699.999 138.907Z" fill="black"/>
<path d="M691.365 160.555C691.972 160.837 692.68 160.566 692.953 159.95L694.32 156.898H700.345L701.712 159.95C701.913 160.401 702.348 160.667 702.802 160.667C702.968 160.667 703.137 160.63 703.3 160.555C703.902 160.273 704.166 159.544 703.89 158.929L698.421 146.715C698.226 146.28 697.8 146 697.332 146C696.865 146 696.439 146.28 696.244 146.715L690.775 158.929C690.5 159.544 690.763 160.272 691.365 160.555ZM697.332 150.17L699.247 154.445H695.417L697.332 150.17Z" fill="black"/>
<path d="M706.667 160.667C707.405 160.667 708.001 160.117 708.001 159.44V147.226C708.001 146.549 707.405 146 706.667 146C705.93 146 705.334 146.549 705.334 147.226V159.44C705.334 160.117 705.93 160.667 706.667 160.667Z" fill="black"/>
<path d="M665.586 220V206.59H670.572C671.484 206.59 672.288 206.758 672.984 207.094C673.692 207.418 674.244 207.898 674.64 208.534C675.036 209.158 675.234 209.92 675.234 210.82C675.234 211.744 675.012 212.53 674.568 213.178C674.136 213.826 673.548 214.306 672.804 214.618L675.882 220H673.11L669.816 214.114L671.4 215.05H668.034V220H665.586ZM668.034 212.89H670.608C671.052 212.89 671.436 212.806 671.76 212.638C672.084 212.458 672.336 212.212 672.516 211.9C672.696 211.588 672.786 211.228 672.786 210.82C672.786 210.4 672.696 210.04 672.516 209.74C672.336 209.428 672.084 209.188 671.76 209.02C671.436 208.84 671.052 208.75 670.608 208.75H668.034V212.89ZM676.388 220L681.014 206.59H684.182L688.808 220H686.144L685.19 217.12H680.006L679.034 220H676.388ZM680.708 214.96H684.488L682.256 208.282H682.94L680.708 214.96ZM696.11 220.216C695.15 220.216 694.262 220.042 693.446 219.694C692.63 219.346 691.916 218.86 691.304 218.236C690.692 217.612 690.212 216.88 689.864 216.04C689.528 215.2 689.36 214.282 689.36 213.286C689.36 212.29 689.522 211.372 689.846 210.532C690.182 209.68 690.65 208.948 691.25 208.336C691.862 207.712 692.576 207.232 693.392 206.896C694.208 206.548 695.096 206.374 696.056 206.374C697.016 206.374 697.874 206.536 698.63 206.86C699.398 207.184 700.046 207.616 700.574 208.156C701.102 208.684 701.48 209.266 701.708 209.902L699.53 210.946C699.278 210.25 698.852 209.686 698.252 209.254C697.652 208.822 696.92 208.606 696.056 208.606C695.216 208.606 694.472 208.804 693.824 209.2C693.188 209.596 692.69 210.142 692.33 210.838C691.982 211.534 691.808 212.35 691.808 213.286C691.808 214.222 691.988 215.044 692.348 215.752C692.72 216.448 693.23 216.994 693.878 217.39C694.526 217.786 695.27 217.984 696.11 217.984C696.794 217.984 697.424 217.852 698 217.588C698.576 217.312 699.038 216.928 699.386 216.436C699.734 215.932 699.908 215.338 699.908 214.654V213.628L701.024 214.6H696.056V212.53H702.356V213.88C702.356 214.912 702.182 215.824 701.834 216.616C701.486 217.408 701.012 218.074 700.412 218.614C699.824 219.142 699.158 219.544 698.414 219.82C697.67 220.084 696.902 220.216 696.11 220.216ZM706.394 220L711.02 206.59H714.188L718.814 220H716.15L715.196 217.12H710.012L709.04 220H706.394ZM710.714 214.96H714.494L712.262 208.282H712.946L710.714 214.96ZM720.307 220V206.59H725.311C726.223 206.59 727.027 206.758 727.723 207.094C728.431 207.418 728.983 207.898 729.379 208.534C729.775 209.158 729.973 209.92 729.973 210.82C729.973 211.708 729.769 212.47 729.361 213.106C728.965 213.73 728.419 214.21 727.723 214.546C727.027 214.882 726.223 215.05 725.311 215.05H722.755V220H720.307ZM722.755 212.89H725.347C725.791 212.89 726.175 212.806 726.499 212.638C726.823 212.458 727.075 212.212 727.255 211.9C727.435 211.588 727.525 211.228 727.525 210.82C727.525 210.4 727.435 210.04 727.255 209.74C727.075 209.428 726.823 209.188 726.499 209.02C726.175 208.84 725.791 208.75 725.347 208.75H722.755V212.89ZM731.979 220V206.59H734.427V220H731.979Z" fill="black"/>
<path d="M212.684 152.039L165.526 152.039" stroke="#0087C7" stroke-linecap="round" stroke-dasharray="1 5"/>
<path d="M206.961 146L213 152.039L206.961 158.077" stroke="#0087C7" stroke-width="1.00646" stroke-linecap="round" stroke-linejoin="round"/>
<path d="M364.684 152.039L317.526 152.039" stroke="#0087C7" stroke-linecap="round" stroke-dasharray="1 5"/>
<path d="M358.961 146L365 152.039L358.961 158.077" stroke="#0087C7" stroke-width="1.00646" stroke-linecap="round" stroke-linejoin="round"/>
<path d="M502.684 152.039L455.526 152.039" stroke="#0087C7" stroke-linecap="round" stroke-dasharray="1 5"/>
<path d="M496.961 146L503 152.039L496.961 158.077" stroke="#0087C7" stroke-width="1.00646" stroke-linecap="round" stroke-linejoin="round"/>
<path d="M654.684 152.039L607.526 152.039" stroke="#0087C7" stroke-linecap="round" stroke-dasharray="1 5"/>
<path d="M648.961 146L655 152.039L648.961 158.077" stroke="#0087C7" stroke-width="1.00646" stroke-linecap="round" stroke-linejoin="round"/>
</svg>
