<svg width="36" height="36" viewBox="0 0 36 36" fill="none" xmlns="http://www.w3.org/2000/svg">
<g clip-path="url(#clip0_20738_1266)">
<path d="M30.954 20.4648C31.128 20.3564 31.3382 20.3213 31.5379 20.3676L31.611 20.3884C31.6829 20.4128 31.7511 20.4479 31.8131 20.4922C31.8956 20.5514 31.9655 20.6264 32.0191 20.7125C32.0728 20.7988 32.1091 20.8947 32.1257 20.9949C32.1423 21.0951 32.1388 21.1975 32.1158 21.2964C31.3906 24.3976 29.6644 27.1743 27.2038 29.1962C24.8132 31.1606 21.8585 32.3065 18.7734 32.4712V34.875C18.7734 35.0801 18.6922 35.2771 18.5471 35.4221C18.4021 35.5672 18.2051 35.6484 18 35.6484C17.7949 35.6484 17.5979 35.5672 17.4529 35.4221C17.3078 35.2771 17.2266 35.0801 17.2266 34.875V31.7197C17.2266 31.5146 17.3079 31.3176 17.4529 31.1726C17.5979 31.0276 17.7949 30.9463 18 30.9463L18.2834 30.943C24.2166 30.817 29.2611 26.7423 30.6101 20.946C30.6566 20.7464 30.7801 20.5732 30.954 20.4648Z" fill="#0087C7"/>
<path d="M4.28027 17.2266C4.48535 17.2266 4.68235 17.3079 4.82739 17.4529C4.97244 17.5979 5.05371 17.7949 5.05371 18C5.05371 24.0553 9.16592 29.2395 15.0546 30.6096C15.2543 30.656 15.4268 30.7799 15.5352 30.954C15.6436 31.1281 15.6784 31.3381 15.6319 31.5379C15.5854 31.7377 15.4616 31.9107 15.2875 32.0191C15.1133 32.1275 14.9033 32.1623 14.7036 32.1158C11.6025 31.3905 8.82574 29.6644 6.80383 27.2038C4.83944 24.8132 3.6935 21.8585 3.52881 18.7734H1.125C0.919871 18.7734 0.722928 18.6922 0.577881 18.5471C0.432834 18.4021 0.351563 18.2051 0.351562 18C0.351563 17.7949 0.432833 17.5979 0.577881 17.4529C0.722929 17.3078 0.919872 17.2266 1.125 17.2266H4.28027Z" fill="#0087C7"/>
<path d="M20.1341 15.7654C20.2364 15.7633 20.3382 15.7812 20.4335 15.8187C20.5288 15.8562 20.616 15.9126 20.6895 15.984C20.7629 16.0555 20.8218 16.1408 20.8619 16.235C20.9021 16.3293 20.9228 16.4309 20.9235 16.5333C20.9241 16.6359 20.9048 16.7379 20.8658 16.8327C20.8273 16.9263 20.77 17.0108 20.6988 17.0826L20.6993 17.0832L17.8654 19.9957C17.794 20.0691 17.7087 20.128 17.6144 20.1682C17.5201 20.2083 17.4186 20.229 17.3161 20.2297H17.3112C17.1061 20.2297 16.9091 20.1484 16.764 20.0034L15.3078 18.5471C15.236 18.4753 15.1791 18.3899 15.1403 18.2961C15.1014 18.2022 15.0809 18.1016 15.0809 18C15.0809 17.8984 15.1014 17.7978 15.1403 17.7039C15.1791 17.6101 15.236 17.5247 15.3078 17.4529C15.3796 17.3811 15.4651 17.3242 15.5588 17.2853C15.6525 17.2466 15.753 17.2266 15.8544 17.2266C15.9559 17.2266 16.0567 17.2465 16.1505 17.2853C16.2442 17.3242 16.3297 17.3811 16.4015 17.4529L17.3035 18.3549L19.5908 16.0043C19.6606 15.9312 19.744 15.8723 19.8364 15.8313C19.9301 15.7897 20.0316 15.7675 20.1341 15.7654Z" fill="#0087C7"/>
<path fill-rule="evenodd" clip-rule="evenodd" d="M18.2961 10.0102C19.7736 10.0649 21.2092 10.5286 22.4418 11.3522C23.7565 12.2307 24.7815 13.4794 25.3867 14.9403C25.9917 16.4011 26.1499 18.0087 25.8415 19.5595C25.533 21.1104 24.7717 22.5354 23.6536 23.6536C22.5354 24.7717 21.1104 25.533 19.5595 25.8415C18.0087 26.1499 16.4011 25.9917 14.9403 25.3867C13.4794 24.7815 12.2307 23.7565 11.3522 22.4418C10.4737 21.127 10.0052 19.5812 10.0052 18C10.0077 15.8805 10.8505 13.8479 12.3492 12.3492C13.848 10.8504 15.8804 10.0076 18 10.0052L18.2961 10.0102ZM17.9995 11.5521C16.7243 11.5522 15.4776 11.9302 14.4174 12.6387C13.3571 13.3472 12.5307 14.3543 12.0427 15.5325C11.5546 16.7107 11.4269 18.0072 11.6757 19.2579C11.9245 20.5088 12.5389 21.6575 13.4407 22.5593C14.3425 23.4611 15.4912 24.0755 16.7421 24.3243C17.9928 24.5731 19.2893 24.4454 20.4675 23.9573C21.6457 23.4693 22.6528 22.6429 23.3613 21.5826C24.0698 20.5224 24.4478 19.2757 24.4479 18.0005L24.4396 17.6808C24.359 16.0876 23.6905 14.5763 22.5571 13.4429C21.3482 12.234 19.7091 11.5541 17.9995 11.5521Z" fill="#0087C7"/>
<path fill-rule="evenodd" clip-rule="evenodd" d="M18 6.5929C24.2901 6.5929 29.4071 11.7099 29.4071 18C29.4071 24.2901 24.2901 29.4071 18 29.4071C11.7099 29.4071 6.5929 24.2901 6.5929 18C6.5929 11.7099 11.7099 6.5929 18 6.5929ZM18 8.13977C12.5634 8.13977 8.13977 12.5632 8.13977 18C8.13977 23.4368 12.5634 27.8602 18 27.8602C23.4366 27.8602 27.8602 23.4367 27.8602 18C27.8602 12.5633 23.4366 8.13977 18 8.13977Z" fill="#0087C7"/>
<path d="M20.7125 3.98199C20.8867 3.87369 21.0967 3.83882 21.2964 3.88531C24.3974 4.61024 27.1737 6.33643 29.1956 8.79675C31.16 11.1871 32.3064 14.1417 32.4712 17.2266H34.875C35.0801 17.2266 35.2771 17.3078 35.4221 17.4529C35.5672 17.5979 35.6484 17.7949 35.6484 18C35.6484 18.2051 35.5672 18.4021 35.4221 18.5471C35.2771 18.6922 35.0801 18.7734 34.875 18.7734H31.7197C31.5146 18.7734 31.3176 18.6921 31.1726 18.5471C31.0276 18.4021 30.9463 18.2051 30.9463 18C30.9463 11.9457 26.8341 6.76218 20.9454 5.39209C20.7458 5.34555 20.5726 5.22172 20.4642 5.04767C20.3559 4.87349 20.321 4.66299 20.3676 4.4632C20.4141 4.26345 20.5384 4.09035 20.7125 3.98199Z" fill="#0087C7"/>
<path d="M18 0.351562C18.2051 0.351562 18.4021 0.432834 18.5471 0.577881C18.6922 0.722928 18.7734 0.919871 18.7734 1.125V4.28027C18.7734 4.4854 18.6922 4.68235 18.5471 4.82739C18.4202 4.95433 18.2534 5.0323 18.0764 5.04987L18 5.05371C11.9446 5.05371 6.76038 9.16566 5.39044 15.054C5.36811 15.1527 5.32675 15.246 5.26849 15.3287C5.20961 15.4122 5.13472 15.4835 5.04822 15.538C4.96171 15.5924 4.86501 15.6292 4.76422 15.6462C4.66354 15.6631 4.56043 15.66 4.461 15.6368C4.3615 15.6137 4.26762 15.5707 4.18469 15.511C4.10173 15.4513 4.03118 15.3756 3.9776 15.2886C3.92407 15.2016 3.88807 15.1049 3.87213 15.004C3.85619 14.9031 3.86066 14.8001 3.88477 14.7008C4.61029 11.6006 6.33615 8.82527 8.7962 6.80383C11.1868 4.83943 14.1415 3.69293 17.2266 3.52826V1.125C17.2266 0.919872 17.3078 0.722929 17.4529 0.577881C17.5979 0.432833 17.7949 0.351563 18 0.351562Z" fill="#0087C7"/>
</g>
<defs>
<clipPath id="clip0_20738_1266">
<rect width="36" height="36" fill="white"/>
</clipPath>
</defs>
</svg>
