<svg width="36" height="36" viewBox="0 0 36 36" fill="none" xmlns="http://www.w3.org/2000/svg">
<path d="M34.3124 29.4244H32.653V13.41C32.653 11.6764 31.2451 10.2656 29.5142 10.2656H12.1634C11.9372 9.72731 11.6346 9.2295 11.2673 8.78569L11.9012 8.15512C12.1217 7.93575 12.1229 7.58025 11.9035 7.35975C11.6841 7.13869 11.3281 7.13812 11.1081 7.3575L10.4719 7.99031C9.79862 7.43344 8.99819 7.02844 8.12406 6.81244V6.35344H8.28831C8.80637 6.35344 9.22825 5.93156 9.22825 5.4135V4.54444C9.22825 4.02638 8.80637 3.6045 8.28831 3.6045H5.12425C4.60619 3.6045 4.18431 4.02638 4.18431 4.54444V5.4135C4.18431 5.93156 4.60619 6.35344 5.12425 6.35344H5.2885V6.81244C4.41437 7.02844 3.61337 7.43344 2.94006 7.99031L2.30388 7.35806C2.08394 7.13925 1.72787 7.13981 1.5085 7.36031C1.28912 7.58081 1.29025 7.93631 1.51075 8.15569L2.14469 8.78625C1.29812 9.81 0.789062 11.1217 0.789062 12.5505C0.789062 14.5654 1.80325 16.3462 3.34562 17.415V29.4249H1.68625C1.37575 29.4249 1.12375 29.6769 1.12375 29.9874V31.0877C1.12375 32.7577 2.48219 34.1162 4.15225 34.1162H31.8452C33.5153 34.1162 34.8737 32.7577 34.8737 31.0877V29.9874C34.8737 29.6769 34.6217 29.4249 34.3112 29.4249L34.3124 29.4244ZM5.30987 4.7295H8.10325V5.22844H5.30987V4.7295ZM31.528 13.41V29.4244H22.7811V11.3906H29.5142C30.6246 11.3906 31.528 12.2962 31.528 13.41ZM6.41406 6.35569H6.99906V6.64819C6.90175 6.64312 6.80556 6.63356 6.70656 6.63356C6.60756 6.63356 6.51194 6.64369 6.41406 6.64819V6.35569ZM1.91519 12.5505C1.91519 9.90844 4.0645 7.75912 6.70656 7.75912C9.34862 7.75912 11.4985 9.90844 11.4985 12.5505C11.4985 15.1926 9.34919 17.3424 6.70656 17.3424C4.06394 17.3424 1.91519 15.1931 1.91519 12.5505ZM4.47175 18.0253C5.16194 18.3082 5.91569 18.4669 6.70656 18.4669C9.96906 18.4669 12.6235 15.8124 12.6235 12.5499C12.6235 12.1528 12.583 11.7658 12.5076 11.3901H21.6561V29.4238H4.47175V18.0253ZM33.7499 31.0871C33.7499 32.1367 32.896 32.9906 31.8464 32.9906H4.15337C3.10375 32.9906 2.24987 32.1367 2.24987 31.0871V30.5494H33.7499V31.0871Z" fill="#0087C7"/>
<path d="M20.975 31.0911H15.0254C14.7149 31.0911 14.4629 31.3431 14.4629 31.6536C14.4629 31.9641 14.7149 32.2161 15.0254 32.2161H20.975C21.2855 32.2161 21.5375 31.9641 21.5375 31.6536C21.5375 31.3431 21.2855 31.0911 20.975 31.0911Z" fill="#0087C7"/>
<path d="M7.26953 12.5505V9.396C7.26953 9.0855 7.01753 8.8335 6.70703 8.8335C6.39653 8.8335 6.14453 9.0855 6.14453 9.396V12.5505C6.14453 12.861 6.39653 13.113 6.70703 13.113C7.01753 13.113 7.26953 12.861 7.26953 12.5505Z" fill="#0087C7"/>
<path d="M20.0045 17.6873H17.345C17.0345 17.6873 16.7825 17.9393 16.7825 18.2498V21.8588H15.248V19.9148C15.248 19.6043 14.996 19.3523 14.6855 19.3523H12.026C11.7155 19.3523 11.4635 19.6043 11.4635 19.9148V21.8588H9.36653C9.05603 21.8588 8.80403 22.1108 8.80403 22.4213V24.0278H6.70703C6.39653 24.0278 6.14453 24.2798 6.14453 24.5903V27.3859C6.14453 27.6964 6.39653 27.9484 6.70703 27.9484H20.0045C20.315 27.9484 20.567 27.6964 20.567 27.3859V18.2498C20.567 17.9393 20.315 17.6873 20.0045 17.6873ZM7.26953 25.1528H8.80403V26.8234H7.26953V25.1528ZM9.92903 24.5903V22.9838H11.4635V26.8234H9.92903V24.5903ZM12.5885 22.4213V20.4773H14.123V26.8234H12.5885V22.4213ZM15.248 22.9838H16.7825V26.8234H15.248V22.9838ZM19.442 26.8234H17.9075V18.8123H19.442V26.8234Z" fill="#0087C7"/>
<path d="M24.6045 14.4377H24.8233C25.1338 14.4377 25.3858 14.1857 25.3858 13.8752C25.3858 13.5647 25.1338 13.3127 24.8233 13.3127H24.6045C24.294 13.3127 24.042 13.5647 24.042 13.8752C24.042 14.1857 24.294 14.4377 24.6045 14.4377Z" fill="#0087C7"/>
<path d="M26.4902 14.4377H28.9799C29.2904 14.4377 29.5424 14.1857 29.5424 13.8752C29.5424 13.5647 29.2904 13.3127 28.9799 13.3127H26.4902C26.1797 13.3127 25.9277 13.5647 25.9277 13.8752C25.9277 14.1857 26.1797 14.4377 26.4902 14.4377Z" fill="#0087C7"/>
<path d="M24.6045 16.6894H24.8233C25.1338 16.6894 25.3858 16.4374 25.3858 16.1269C25.3858 15.8164 25.1338 15.5644 24.8233 15.5644H24.6045C24.294 15.5644 24.042 15.8164 24.042 16.1269C24.042 16.4374 24.294 16.6894 24.6045 16.6894Z" fill="#0087C7"/>
<path d="M26.4902 16.6894H29.8652C30.1757 16.6894 30.4277 16.4374 30.4277 16.1269C30.4277 15.8164 30.1757 15.5644 29.8652 15.5644H26.4902C26.1797 15.5644 25.9277 15.8164 25.9277 16.1269C25.9277 16.4374 26.1797 16.6894 26.4902 16.6894Z" fill="#0087C7"/>
<path d="M24.6045 18.9411H24.8233C25.1338 18.9411 25.3858 18.6891 25.3858 18.3786C25.3858 18.0681 25.1338 17.8161 24.8233 17.8161H24.6045C24.294 17.8161 24.042 18.0681 24.042 18.3786C24.042 18.6891 24.294 18.9411 24.6045 18.9411Z" fill="#0087C7"/>
<path d="M26.4902 18.9411H29.2937C29.6042 18.9405 29.8562 18.6879 29.8562 18.3774C29.8562 18.0669 29.6042 17.8149 29.2937 17.8149H26.4902C26.1797 17.8155 25.9277 18.0681 25.9277 18.3786C25.9277 18.6891 26.1797 18.9411 26.4902 18.9411Z" fill="#0087C7"/>
<path d="M24.6045 21.1927H24.8233C25.1338 21.1927 25.3858 20.9407 25.3858 20.6302C25.3858 20.3197 25.1338 20.0677 24.8233 20.0677H24.6045C24.294 20.0677 24.042 20.3197 24.042 20.6302C24.042 20.9407 24.294 21.1927 24.6045 21.1927Z" fill="#0087C7"/>
<path d="M26.4902 21.1927H29.8652C30.1757 21.1927 30.4277 20.9407 30.4277 20.6302C30.4277 20.3197 30.1757 20.0677 29.8652 20.0677H26.4902C26.1797 20.0677 25.9277 20.3197 25.9277 20.6302C25.9277 20.9407 26.1797 21.1927 26.4902 21.1927Z" fill="#0087C7"/>
<path d="M24.6045 23.445H24.8233C25.1338 23.445 25.3858 23.193 25.3858 22.8825C25.3858 22.572 25.1338 22.32 24.8233 22.32H24.6045C24.294 22.32 24.042 22.572 24.042 22.8825C24.042 23.193 24.294 23.445 24.6045 23.445Z" fill="#0087C7"/>
<path d="M26.4902 23.445H28.8128C29.1233 23.445 29.3753 23.193 29.3753 22.8825C29.3753 22.572 29.1233 22.32 28.8128 22.32H26.4902C26.1797 22.32 25.9277 22.572 25.9277 22.8825C25.9277 23.193 26.1797 23.445 26.4902 23.445Z" fill="#0087C7"/>
<path d="M24.6045 25.6967H24.8233C25.1338 25.6967 25.3858 25.4447 25.3858 25.1342C25.3858 24.8237 25.1338 24.5717 24.8233 24.5717H24.6045C24.294 24.5717 24.042 24.8237 24.042 25.1342C24.042 25.4447 24.294 25.6967 24.6045 25.6967Z" fill="#0087C7"/>
<path d="M26.4902 25.6967H29.8652C30.1757 25.6967 30.4277 25.4447 30.4277 25.1342C30.4277 24.8237 30.1757 24.5717 29.8652 24.5717H26.4902C26.1797 24.5717 25.9277 24.8237 25.9277 25.1342C25.9277 25.4447 26.1797 25.6967 26.4902 25.6967Z" fill="#0087C7"/>
<path d="M24.8223 26.8234H24.6035C24.293 26.8234 24.041 27.0754 24.041 27.3859C24.041 27.6964 24.293 27.9484 24.6035 27.9484H24.8223C25.1328 27.9484 25.3848 27.6964 25.3848 27.3859C25.3848 27.0754 25.1328 26.8234 24.8223 26.8234Z" fill="#0087C7"/>
<path d="M26.4902 27.9484H28.7819C29.0924 27.9484 29.3444 27.6964 29.3444 27.3859C29.3444 27.0754 29.0924 26.8234 28.7819 26.8234H26.4902C26.1797 26.8234 25.9277 27.0754 25.9277 27.3859C25.9277 27.6964 26.1797 27.9484 26.4902 27.9484Z" fill="#0087C7"/>
</svg>
