<svg width="36" height="36" viewBox="0 0 36 36" fill="none" xmlns="http://www.w3.org/2000/svg">
<g clip-path="url(#clip0_20738_11359)">
<path d="M18 4.8C16.0696 4.79853 14.1626 5.22324 12.4152 6.0438C12.4092 6.0438 12.4026 6.0438 12.3966 6.0492L12.39 6.0552C11.2659 6.58618 10.2223 7.27294 9.28983 8.0952C9.26147 8.11539 9.23514 8.1383 9.21123 8.1636C6.91401 10.2205 5.40994 13.0171 4.96034 16.0676C4.51074 19.1181 5.14401 22.2298 6.75014 24.8619C8.35627 27.4941 10.8338 29.4804 13.7522 30.4758C16.6706 31.4712 19.8455 31.4127 22.7252 30.3106C25.605 29.2085 28.0077 27.1323 29.5159 24.4428C31.024 21.7533 31.5423 18.6205 30.9807 15.5885C30.4192 12.5566 28.8132 9.81726 26.4418 7.84636C24.0704 5.87546 21.0835 4.79758 18 4.8ZM12.5592 7.6014C12.6141 7.70308 12.6975 7.7865 12.7992 7.8414L13.7952 8.415L12.7992 8.961C12.6977 9.01604 12.6143 9.09942 12.5592 9.201L11.9856 10.197L11.4396 9.201C11.3846 9.09942 11.3012 9.01604 11.1996 8.961L10.5528 8.607C11.141 8.13994 11.7718 7.72914 12.4368 7.38L12.5592 7.6014ZM18 30C15.6173 30.0019 13.2881 29.2939 11.3095 27.9662C9.33095 26.6386 7.79284 24.7515 6.89148 22.5459C5.99011 20.3402 5.76636 17.916 6.24878 15.5827C6.7312 13.2493 7.89792 11.1126 9.60003 9.4452C9.61083 9.4518 9.61923 9.4602 9.63063 9.4662L10.4706 9.9276L10.9326 10.7712C11.0375 10.9621 11.1918 11.1214 11.3793 11.2323C11.5668 11.3432 11.7807 11.4017 11.9985 11.4017C12.2164 11.4017 12.4302 11.3432 12.6177 11.2323C12.8053 11.1214 12.9595 10.9621 13.0644 10.7712L13.5258 9.9312L14.3778 9.465C14.5703 9.35407 14.7294 9.19347 14.8386 9H16.8C16.9592 9 17.1118 9.06321 17.2243 9.17574C17.3368 9.28826 17.4 9.44087 17.4 9.6V10.8H16.8C16.3307 10.7998 15.8799 10.983 15.5437 11.3103C15.2075 11.6377 15.0124 12.0835 15 12.5526C13.1663 13.2537 11.6361 14.575 10.6751 16.287C9.71415 17.9989 9.38318 19.9934 9.73969 21.924C10.0962 23.8546 11.1176 25.5993 12.6266 26.8551C14.1356 28.111 16.0368 28.7986 18 28.7986C19.9632 28.7986 21.8644 28.111 23.3734 26.8551C24.8824 25.5993 25.9039 23.8546 26.2604 21.924C26.6169 19.9934 26.2859 17.9989 25.325 16.287C24.364 14.575 22.8338 13.2537 21 12.5526C20.9877 12.0835 20.7926 11.6377 20.4564 11.3103C20.1201 10.983 19.6693 10.7998 19.2 10.8H18.6V9.6C18.6 9.12261 18.4104 8.66477 18.0728 8.32721C17.7353 7.98964 17.2774 7.8 16.8 7.8H14.8374C14.7261 7.60564 14.5647 7.44466 14.37 7.3338L13.53 6.873C15.1711 6.21324 16.9378 5.92454 18.7035 6.02757C20.4693 6.1306 22.1904 6.6228 23.7436 7.46894C25.2969 8.31507 26.6438 9.4942 27.6879 10.9219C28.732 12.3496 29.4475 13.9905 29.7832 15.7271C30.1188 17.4637 30.0663 19.253 29.6294 20.9669C29.1925 22.6809 28.382 24.277 27.2559 25.641C26.1299 27.005 24.7161 28.1031 23.116 28.8567C21.5158 29.6103 19.7688 30.0007 18 30ZM20.2158 13.5492C21.8478 14.077 23.2376 15.1701 24.1353 16.6316C25.0329 18.0932 25.3793 19.8271 25.1121 21.5214C24.845 23.2156 23.9817 24.7588 22.6779 25.8731C21.374 26.9875 19.7152 27.5998 18 27.5998C16.2849 27.5998 14.626 26.9875 13.3222 25.8731C12.0183 24.7588 11.1551 23.2156 10.8879 21.5214C10.6207 19.8271 10.9671 18.0932 11.8648 16.6316C12.7624 15.1701 14.1523 14.077 15.7842 13.5492C15.9051 13.5102 16.0104 13.4339 16.0851 13.3313C16.1598 13.2286 16.2001 13.105 16.2 12.978V12.6C16.2 12.4409 16.2632 12.2883 16.3758 12.1757C16.4883 12.0632 16.6409 12 16.8 12H19.2C19.3592 12 19.5118 12.0632 19.6243 12.1757C19.7368 12.2883 19.8 12.4409 19.8 12.6V12.978C19.8 13.105 19.8402 13.2286 19.9149 13.3313C19.9897 13.4339 20.095 13.5102 20.2158 13.5492Z" fill="#0087C7"/>
<path d="M34.9161 15.1146L33.1833 14.4222C32.799 12.7863 32.1505 11.224 31.2633 9.7968L31.9965 8.0796C32.1182 7.80716 32.1606 7.50593 32.1189 7.21047C32.0772 6.91502 31.953 6.6373 31.7607 6.4092C31.1009 5.62486 30.3748 4.89878 29.5905 4.239C29.3629 4.046 29.0855 3.9211 28.7901 3.87865C28.4948 3.8362 28.1934 3.87791 27.9207 3.999L26.2029 4.7358C24.7757 3.84863 23.2134 3.20012 21.5775 2.8158L20.8839 1.08C20.7739 0.805532 20.5909 0.566393 20.3548 0.388497C20.1186 0.210601 19.8382 0.100733 19.5441 0.0708C18.5168 -0.0228879 17.4832 -0.0228879 16.4559 0.0708C16.161 0.100736 15.88 0.210996 15.6434 0.389575C15.4069 0.568154 15.2239 0.808207 15.1143 1.0836L14.4219 2.8164C12.786 3.20072 11.2237 3.84923 9.79648 4.7364L8.07928 4.0026C7.80667 3.88107 7.50533 3.83878 7.2098 3.88059C6.91427 3.9224 6.63649 4.04661 6.40828 4.239C5.62408 4.89893 4.89801 5.625 4.23808 6.4092C4.04579 6.63709 3.92162 6.91457 3.87981 7.2098C3.83799 7.50503 3.88023 7.80607 4.00168 8.0784L4.73548 9.7968C3.84831 11.224 3.1998 12.7863 2.81548 14.4222L1.07968 15.1158C0.805215 15.2258 0.566076 15.4087 0.38818 15.6449C0.210284 15.8811 0.100416 16.1614 0.0704832 16.4556C-0.0234944 17.4829 -0.0234944 18.5165 0.0704832 19.5438C0.10042 19.8387 0.210679 20.1197 0.389258 20.3562C0.567837 20.5928 0.807891 20.7758 1.08328 20.8854L2.81608 21.5778C3.2004 23.2137 3.84891 24.776 4.73608 26.2032L4.00228 27.9204C3.88037 28.1928 3.83782 28.4941 3.87953 28.7896C3.92125 29.0851 4.04553 29.3628 4.23808 29.5908C4.89806 30.3753 5.62434 31.1016 6.40888 31.7616C6.63678 31.9539 6.91425 32.0781 7.20948 32.1199C7.50472 32.1617 7.80576 32.1195 8.07808 31.998L9.79648 31.2642C11.2237 32.1514 12.786 32.7999 14.4219 33.1842L15.1155 34.92C15.2256 35.1947 15.4086 35.434 15.6449 35.6122C15.8811 35.7904 16.1615 35.9006 16.4559 35.931C16.9833 35.9778 17.5209 36.0006 18.0441 36.0006C18.5673 36.0006 19.0767 35.9778 19.5441 35.931C19.8388 35.9004 20.1195 35.7898 20.3558 35.6112C20.5922 35.4326 20.7752 35.1927 20.8851 34.9176L21.5775 33.1848C23.2134 32.8005 24.7757 32.152 26.2029 31.2648L27.9201 31.998C28.1925 32.1199 28.4938 32.1625 28.7893 32.1208C29.0848 32.079 29.3625 31.9548 29.5905 31.7622C30.375 31.1026 31.1011 30.3765 31.7607 29.592C31.9533 29.3642 32.0778 29.0866 32.1197 28.7912C32.1616 28.4958 32.1193 28.1946 31.9977 27.9222L31.2639 26.2038C32.1511 24.7766 32.7996 23.2143 33.1839 21.5784L34.9197 20.8842C35.1944 20.7741 35.4337 20.5911 35.6119 20.3548C35.7901 20.1186 35.9003 19.8381 35.9307 19.5438C36.0241 18.5155 36.0241 17.4809 35.9307 16.4526C35.8995 16.1583 35.7885 15.8781 35.6097 15.6423C35.4309 15.4065 35.1911 15.224 34.9161 15.1146ZM34.7361 19.4376C34.7257 19.5115 34.6959 19.5813 34.6496 19.6398C34.6033 19.6984 34.5422 19.7435 34.4727 19.7706L32.4441 20.58C32.3526 20.6166 32.2715 20.6751 32.2079 20.7504C32.1444 20.8258 32.1004 20.9156 32.0799 21.012C31.7152 22.7238 31.0392 24.354 30.0855 25.8216C30.0319 25.9041 29.9994 25.9986 29.991 26.0966C29.9825 26.1947 29.9983 26.2933 30.0369 26.3838L30.8943 28.3932C30.9272 28.4616 30.9398 28.538 30.9305 28.6133C30.9213 28.6886 30.8906 28.7596 30.8421 28.818C30.2245 29.5525 29.5445 30.2322 28.8099 30.8496C28.7514 30.8963 28.6807 30.9252 28.6063 30.9329C28.5319 30.9407 28.4568 30.927 28.3899 30.8934L26.3817 30.0366C26.2912 29.998 26.1926 29.9822 26.0945 29.9907C25.9965 29.9992 25.902 30.0316 25.8195 30.0852C24.3519 31.0389 22.7217 31.7149 21.0099 32.0796C20.9135 32.1002 20.8237 32.1441 20.7483 32.2077C20.673 32.2712 20.6144 32.3523 20.5779 32.4438L19.7691 34.4682C19.7418 34.5393 19.6958 34.6016 19.6359 34.6485C19.576 34.6954 19.5044 34.7252 19.4289 34.7346C18.4744 34.8211 17.5141 34.8211 16.5597 34.7346C16.4858 34.7242 16.416 34.6944 16.3574 34.6481C16.2989 34.6018 16.2538 34.5407 16.2267 34.4712L15.4197 32.4444C15.3831 32.3529 15.3246 32.2718 15.2492 32.2083C15.1739 32.1447 15.0841 32.1008 14.9877 32.0802C13.2759 31.7155 11.6456 31.0395 10.1781 30.0858C10.0957 30.0319 10.0012 29.9993 9.90309 29.9908C9.805 29.9823 9.70632 29.9983 9.61588 30.0372L7.60648 30.8946C7.53807 30.9272 7.46181 30.9396 7.38659 30.9305C7.31138 30.9213 7.24031 30.891 7.18168 30.843C6.44737 30.225 5.76766 29.5449 5.15008 28.8102C5.10377 28.7515 5.07507 28.6809 5.06731 28.6066C5.05956 28.5322 5.07307 28.4572 5.10628 28.3902L5.96308 26.382C6.00171 26.2915 6.01748 26.1929 6.009 26.0948C6.00053 25.9968 5.96807 25.9023 5.91448 25.8198C4.96078 24.3523 4.28477 22.722 3.92008 21.0102C3.89952 20.9138 3.85554 20.824 3.79202 20.7486C3.7285 20.6733 3.6474 20.6148 3.55588 20.5782L1.53088 19.7718C1.45993 19.7445 1.39774 19.6984 1.35093 19.6385C1.30411 19.5786 1.27445 19.5071 1.26508 19.4316C1.17772 18.477 1.17772 17.5164 1.26508 16.5618C1.27549 16.4881 1.30531 16.4184 1.35149 16.36C1.39767 16.3016 1.45855 16.2565 1.52788 16.2294L3.55528 15.42C3.6468 15.3834 3.7279 15.3249 3.79142 15.2496C3.85494 15.1742 3.89892 15.0844 3.91948 14.988C4.28417 13.2762 4.96019 11.646 5.91388 10.1784C5.96747 10.0959 5.99993 10.0014 6.0084 9.90337C6.01688 9.80533 6.00111 9.70671 5.96248 9.6162L5.10508 7.6062C5.07238 7.53782 5.05987 7.46153 5.06901 7.38628C5.07815 7.31104 5.10856 7.23996 5.15668 7.1814C5.77464 6.44743 6.45454 5.76793 7.18888 5.1504C7.24753 5.10406 7.31812 5.07529 7.39246 5.06743C7.4668 5.05957 7.54184 5.07294 7.60888 5.106L9.61708 5.9628C9.70759 6.00142 9.80621 6.01719 9.90425 6.00872C10.0023 6.00024 10.0967 5.96778 10.1793 5.9142C11.6468 4.9605 13.2771 4.28448 14.9889 3.9198C15.0853 3.89924 15.1751 3.85526 15.2504 3.79174C15.3258 3.72822 15.3843 3.64712 15.4209 3.5556L16.2297 1.5312C16.257 1.46025 16.3031 1.39805 16.363 1.35124C16.4229 1.30443 16.4944 1.27476 16.5699 1.2654C17.5245 1.17833 18.4851 1.17833 19.4397 1.2654C19.5134 1.27581 19.583 1.30563 19.6415 1.35181C19.6999 1.39799 19.7449 1.45886 19.7721 1.5282L20.5797 3.5556C20.6162 3.64712 20.6748 3.72822 20.7501 3.79174C20.8255 3.85526 20.9153 3.89924 21.0117 3.9198C22.7235 4.28448 24.3537 4.9605 25.8213 5.9142C25.9038 5.96778 25.9983 6.00024 26.0963 6.00872C26.1944 6.01719 26.293 6.00142 26.3835 5.9628L28.3929 5.1054C28.4613 5.0727 28.5376 5.06019 28.6128 5.06933C28.688 5.07847 28.7591 5.10888 28.8177 5.157C29.5518 5.77481 30.2313 6.45472 30.8487 7.1892C30.895 7.24788 30.9237 7.31846 30.9316 7.39279C30.9394 7.46711 30.9261 7.54214 30.8931 7.6092L30.0363 9.6174C29.9977 9.70791 29.9819 9.80653 29.9904 9.90457C29.9988 10.0026 30.0313 10.0971 30.0849 10.1796C31.0386 11.6472 31.7146 13.2774 32.0793 14.9892C32.0998 15.0856 32.1438 15.1754 32.2073 15.2508C32.2709 15.3261 32.352 15.3846 32.4435 15.4212L34.4679 16.23C34.538 16.2569 34.5997 16.302 34.6464 16.3608C34.6932 16.4196 34.7233 16.4898 34.7337 16.5642V16.5702C34.8204 17.5248 34.8206 18.4853 34.7343 19.44L34.7361 19.4376Z" fill="#0087C7"/>
<path d="M19.4686 20.46L18.6004 20.0292V18C18.6004 17.8409 18.5372 17.6883 18.4247 17.5757C18.3121 17.4632 18.1595 17.4 18.0004 17.4C17.8413 17.4 17.6887 17.4632 17.5761 17.5757C17.4636 17.6883 17.4004 17.8409 17.4004 18V20.4C17.3998 20.512 17.4305 20.6219 17.4892 20.7174C17.5478 20.8128 17.632 20.8899 17.7322 20.94L18.9322 21.54C19.0027 21.5752 19.0795 21.5962 19.1581 21.6018C19.2367 21.6073 19.3157 21.5973 19.3905 21.5724C19.4652 21.5474 19.5344 21.508 19.5939 21.4563C19.6534 21.4046 19.7022 21.3417 19.7374 21.2712C19.7726 21.2007 19.7936 21.1239 19.7992 21.0453C19.8047 20.9666 19.7947 20.8877 19.7698 20.8129C19.7448 20.7382 19.7054 20.669 19.6537 20.6095C19.602 20.55 19.5391 20.5012 19.4686 20.466V20.46Z" fill="#0087C7"/>
<path d="M18.0004 16.2C18.1595 16.2 18.3121 16.1368 18.4247 16.0243C18.5372 15.9117 18.6004 15.7591 18.6004 15.6V15C18.6004 14.8409 18.5372 14.6883 18.4247 14.5757C18.3121 14.4632 18.1595 14.4 18.0004 14.4C17.8413 14.4 17.6886 14.4632 17.5761 14.5757C17.4636 14.6883 17.4004 14.8409 17.4004 15V15.6C17.4004 15.7591 17.4636 15.9117 17.5761 16.0243C17.6886 16.1368 17.8413 16.2 18.0004 16.2Z" fill="#0087C7"/>
<path d="M14.6057 16.1574C14.4925 16.0481 14.341 15.9876 14.1837 15.989C14.0263 15.9904 13.8758 16.0535 13.7646 16.1647C13.6534 16.2759 13.5903 16.4264 13.5889 16.5838C13.5875 16.7411 13.648 16.8926 13.7573 17.0058L14.1815 17.43C14.2947 17.5393 14.4462 17.5998 14.6035 17.5984C14.7609 17.597 14.9113 17.5339 15.0226 17.4227C15.1338 17.3114 15.1969 17.161 15.1983 17.0036C15.1997 16.8463 15.1392 16.6948 15.0299 16.5816L14.6057 16.1574Z" fill="#0087C7"/>
<path d="M13.8 20.4C13.8 20.2409 13.7368 20.0883 13.6243 19.9757C13.5117 19.8632 13.3591 19.8 13.2 19.8H12.6C12.4409 19.8 12.2883 19.8632 12.1757 19.9757C12.0632 20.0883 12 20.2409 12 20.4C12 20.5591 12.0632 20.7117 12.1757 20.8243C12.2883 20.9368 12.4409 21 12.6 21H13.2C13.3591 21 13.5117 20.9368 13.6243 20.8243C13.7368 20.7117 13.8 20.5591 13.8 20.4Z" fill="#0087C7"/>
<path d="M14.1816 23.37L13.7574 23.7942C13.7001 23.8496 13.6544 23.9158 13.6229 23.989C13.5915 24.0622 13.5749 24.1409 13.5742 24.2206C13.5735 24.3002 13.5887 24.3792 13.6189 24.453C13.6491 24.5267 13.6936 24.5937 13.75 24.65C13.8063 24.7064 13.8733 24.7509 13.947 24.7811C14.0208 24.8113 14.0998 24.8264 14.1794 24.8258C14.2591 24.8251 14.3378 24.8085 14.411 24.7771C14.4842 24.7456 14.5504 24.6999 14.6058 24.6426L15.03 24.2184C15.0873 24.1631 15.133 24.0968 15.1645 24.0236C15.1959 23.9504 15.2125 23.8717 15.2131 23.792C15.2138 23.7124 15.1987 23.6334 15.1685 23.5596C15.1383 23.4859 15.0938 23.4189 15.0374 23.3626C14.9811 23.3062 14.9141 23.2617 14.8404 23.2315C14.7666 23.2013 14.6876 23.1862 14.608 23.1869C14.5283 23.1875 14.4496 23.2041 14.3763 23.2355C14.3031 23.267 14.2369 23.3127 14.1816 23.37Z" fill="#0087C7"/>
<path d="M18.0004 24.6C17.8413 24.6 17.6886 24.6632 17.5761 24.7757C17.4636 24.8883 17.4004 25.0409 17.4004 25.2V25.8C17.4004 25.9591 17.4636 26.1117 17.5761 26.2243C17.6886 26.3368 17.8413 26.4 18.0004 26.4C18.1595 26.4 18.3121 26.3368 18.4247 26.2243C18.5372 26.1117 18.6004 25.9591 18.6004 25.8V25.2C18.6004 25.0409 18.5372 24.8883 18.4247 24.7757C18.3121 24.6632 18.1595 24.6 18.0004 24.6Z" fill="#0087C7"/>
<path d="M21.3945 24.6426C21.5076 24.7519 21.6592 24.8124 21.8165 24.811C21.9738 24.8096 22.1243 24.7465 22.2356 24.6353C22.3468 24.524 22.4099 24.3736 22.4113 24.2162C22.4127 24.0589 22.3522 23.9074 22.2429 23.7942L21.8187 23.37C21.7633 23.3127 21.6971 23.267 21.6239 23.2355C21.5507 23.2041 21.472 23.1875 21.3923 23.1869C21.3127 23.1862 21.2336 23.2013 21.1599 23.2315C21.0862 23.2617 21.0192 23.3062 20.9628 23.3626C20.9065 23.4189 20.862 23.4859 20.8318 23.5596C20.8016 23.6334 20.7864 23.7124 20.7871 23.792C20.7878 23.8717 20.8044 23.9504 20.8358 24.0236C20.8673 24.0968 20.913 24.1631 20.9703 24.2184L21.3945 24.6426Z" fill="#0087C7"/>
<path d="M22.2002 20.4C22.2002 20.5591 22.2634 20.7117 22.3759 20.8243C22.4885 20.9368 22.6411 21 22.8002 21H23.4002C23.5593 21 23.7119 20.9368 23.8245 20.8243C23.937 20.7117 24.0002 20.5591 24.0002 20.4C24.0002 20.2409 23.937 20.0883 23.8245 19.9757C23.7119 19.8632 23.5593 19.8 23.4002 19.8H22.8002C22.6411 19.8 22.4885 19.8632 22.3759 19.9757C22.2634 20.0883 22.2002 20.2409 22.2002 20.4Z" fill="#0087C7"/>
<path d="M21.3938 17.6058C21.5529 17.6058 21.7055 17.5425 21.818 17.43L22.2422 17.0058C22.3515 16.8926 22.412 16.7411 22.4106 16.5838C22.4093 16.4264 22.3462 16.2759 22.2349 16.1647C22.1237 16.0535 21.9732 15.9904 21.8159 15.989C21.6585 15.9876 21.507 16.0481 21.3938 16.1574L20.9696 16.5816C20.8857 16.6655 20.8286 16.7724 20.8055 16.8888C20.7823 17.0051 20.7942 17.1258 20.8396 17.2354C20.885 17.345 20.9619 17.4387 21.0605 17.5046C21.1592 17.5706 21.2752 17.6058 21.3938 17.6058Z" fill="#0087C7"/>
</g>
<defs>
<clipPath id="clip0_20738_11359">
<rect width="36" height="36" fill="white"/>
</clipPath>
</defs>
</svg>
