<svg width="36" height="36" viewBox="0 0 36 36" fill="none" xmlns="http://www.w3.org/2000/svg">
<path d="M31.1304 3H23.1C22.0692 3 21.2304 3.8382 21.2304 4.869V8.2842H14.769V4.869C14.769 3.8382 13.9308 3 12.9 3H4.869C3.8382 3 3 3.8382 3 4.869V12.9C3 13.9308 3.8382 14.769 4.869 14.769H8.2842V21.231H4.869C3.8382 21.231 3 22.0692 3 23.1V31.131C3 32.1618 3.8382 33 4.869 33H12.9C13.9308 33 14.769 32.1618 14.769 31.131V27.7158H21.2304V31.131C21.2304 32.1618 22.0692 33 23.1 33H31.1304C32.1612 33 33 32.1618 33 31.131V23.1C33 22.0692 32.1612 21.231 31.1304 21.231H27.7152V14.769H31.1304C32.1612 14.769 33 13.9308 33 12.9V4.869C33 3.8382 32.1612 3 31.1304 3ZM4.869 13.569C4.5 13.569 4.2 13.269 4.2 12.9V4.869C4.2 4.5 4.5 4.2 4.869 4.2H12.9C13.269 4.2 13.569 4.5 13.569 4.869V8.2842H11.6082C11.3322 7.0326 10.218 6.0918 8.8848 6.0918C7.3452 6.0918 6.0924 7.3446 6.0924 8.8842C6.0924 10.2174 7.0332 11.3322 8.2848 11.6076V13.5684L4.869 13.569ZM8.8848 10.4766C8.007 10.4766 7.2924 9.7626 7.2924 8.8842C7.2924 8.0058 8.0064 7.2918 8.8848 7.2918C9.7632 7.2918 10.4772 8.0058 10.4772 8.8842C10.4772 9.7626 9.7626 10.4766 8.8848 10.4766ZM9.4848 11.6082C10.5426 11.3748 11.3754 10.5426 11.6082 9.4848H13.569V12.9C13.569 13.269 13.269 13.569 12.9 13.569H9.4848V11.6082ZM13.569 31.131C13.569 31.5 13.269 31.8 12.9 31.8H4.869C4.5 31.8 4.2 31.5 4.2 31.131V23.1C4.2 22.731 4.5 22.431 4.869 22.431H8.2842V24.3918C7.0326 24.6678 6.0918 25.782 6.0918 27.1152C6.0918 28.6548 7.3446 29.9076 8.8842 29.9076C10.2174 29.9076 11.3322 28.9668 11.6076 27.7152H13.5684L13.569 31.131ZM13.569 26.5152H11.6082C11.3748 25.4574 10.5426 24.6246 9.4848 24.3918V22.431H12.9C13.269 22.431 13.569 22.731 13.569 23.1V26.5152ZM8.8848 25.5234C9.7626 25.5234 10.4772 26.2374 10.4772 27.1158C10.4772 27.9942 9.7632 28.7082 8.8848 28.7082C8.0064 28.7082 7.2924 27.9942 7.2924 27.1158C7.2924 26.2374 8.0064 25.5234 8.8848 25.5234ZM31.1304 22.431C31.4994 22.431 31.8 22.731 31.8 23.1V31.131C31.8 31.5 31.5 31.8 31.1304 31.8H23.1C22.731 31.8 22.4304 31.5 22.4304 31.131V27.7158H24.3912C24.6672 28.9674 25.7814 29.9082 27.1146 29.9082C28.6542 29.9082 29.907 28.6554 29.907 27.1158C29.907 25.7826 28.9662 24.6678 27.7146 24.3924V22.4316H31.1304V22.431ZM27.1152 25.5234C27.993 25.5234 28.7076 26.2374 28.7076 27.1158C28.7076 27.9942 27.993 28.7082 27.1152 28.7082C26.2374 28.7082 25.5228 27.9942 25.5228 27.1158C25.5228 26.2374 26.2374 25.5234 27.1152 25.5234ZM26.5152 24.3918C25.4574 24.6252 24.6246 25.4574 24.3918 26.5152H22.431V23.1C22.431 22.731 22.731 22.431 23.1006 22.431H26.5158L26.5152 24.3918ZM26.5152 21.231H23.1C22.0692 21.231 21.2304 22.0692 21.2304 23.1V26.5152H14.769V23.1C14.769 22.0692 13.9308 21.231 12.9 21.231H9.4848V14.769H12.9C13.9308 14.769 14.769 13.9308 14.769 12.9V9.4848H21.2304V12.9C21.2304 13.9308 22.0692 14.769 23.1 14.769H26.5152V21.231ZM24.3918 9.4848C24.6252 10.5426 25.4574 11.3754 26.5152 11.6082V13.569H23.1C22.731 13.569 22.4304 13.269 22.4304 12.9V9.4848H24.3918ZM27.1152 10.4766C26.2374 10.4766 25.5228 9.7626 25.5228 8.8842C25.5228 8.0058 26.2368 7.2918 27.1152 7.2918C27.9936 7.2918 28.7076 8.0058 28.7076 8.8842C28.7076 9.7626 27.993 10.4766 27.1152 10.4766ZM31.8 12.9C31.8 13.269 31.5 13.569 31.1304 13.569H27.7152V11.6082C28.9668 11.3322 29.9076 10.218 29.9076 8.8848C29.9076 7.3452 28.6548 6.0924 27.1152 6.0924C25.782 6.0924 24.6672 7.0332 24.3918 8.2848H22.431V4.869C22.4304 4.5 22.731 4.2 23.1 4.2H31.1304C31.5 4.2 31.8 4.5 31.8 4.869V12.9Z" fill="#0087C7"/>
</svg>
