<svg width="36" height="36" viewBox="0 0 36 36" fill="none" xmlns="http://www.w3.org/2000/svg">
<path d="M24.7362 6.87065L24.7526 6.87046C25.0969 6.86174 25.3734 6.57988 25.3734 6.23346C25.3734 5.88704 25.0969 5.60518 24.7526 5.59645L24.7362 5.59627H18.9126C18.5607 5.59627 18.2754 5.88154 18.2754 6.23346C18.2754 6.58538 18.5607 6.87065 18.9126 6.87065H24.7362Z" fill="#0087C7"/>
<mask id="mask0_19936_8457" style="mask-type:luminance" maskUnits="userSpaceOnUse" x="1" y="1" width="34" height="34">
<path d="M1.6875 1.6875H34.3125V34.3125H1.6875V1.6875Z" fill="white"/>
</mask>
<g mask="url(#mask0_19936_8457)">
<path d="M31.0965 9.48644C31.0965 9.71809 30.9085 9.90624 30.6763 9.90624H27.9733C27.708 9.90624 27.4705 10.0706 27.377 10.3189L26.9648 11.4139L24.9776 10.0216C24.8705 9.94649 24.7428 9.90624 24.612 9.90624H12.9708C12.7382 9.90624 12.5498 9.71771 12.5498 9.48541V3.38274C12.5498 3.15045 12.7382 2.96196 12.9708 2.96196H30.6763C30.9085 2.96196 31.0965 3.15007 31.0965 3.38181V9.48644ZM32.3709 3.38181C32.3709 2.44593 31.612 1.68753 30.6763 1.68753H12.9708C12.0345 1.68753 11.2754 2.44641 11.2754 3.38274V9.48541C11.2754 10.4218 12.0345 11.1806 12.9708 11.1806H24.4109L26.9061 12.9289L26.9213 12.9393C27.0801 13.0439 27.2777 13.0722 27.46 13.0158C27.6481 12.9577 27.7987 12.8158 27.8681 12.6316L28.4143 11.1806H30.6763C31.612 11.1806 32.3709 10.4223 32.3709 9.48644V3.38181Z" fill="#0087C7"/>
<path d="M31.0965 30.7547C31.0965 30.9863 30.9085 31.1745 30.6763 31.1745H27.9733C27.708 31.1745 27.4705 31.3389 27.377 31.5872L26.9648 32.6822L24.9776 31.2898C24.8705 31.2147 24.7428 31.1745 24.612 31.1745H12.9708C12.7381 31.1745 12.5498 30.986 12.5498 30.7537V24.651C12.5498 24.4187 12.7382 24.2302 12.9708 24.2302H30.6763C30.9085 24.2302 31.0965 24.4183 31.0965 24.6501V30.7547ZM32.3709 24.6501C32.3709 23.7142 31.612 22.9558 30.6763 22.9558H12.9708C12.0345 22.9558 11.2754 23.7147 11.2754 24.651V30.7537C11.2754 31.6901 12.0345 32.4489 12.9708 32.4489H24.4109L26.9061 34.1972L26.9213 34.2076C27.0801 34.3121 27.2777 34.3404 27.46 34.2841C27.6481 34.2259 27.7987 34.0841 27.8681 33.8998L28.4143 32.4489H30.6763C31.612 32.4489 32.3709 31.6905 32.3709 30.7547V24.6501Z" fill="#0087C7"/>
<path d="M3.62891 20.1206C3.62891 21.0564 4.38774 21.8148 5.32342 21.8148H7.58544L8.13167 23.2657L8.13839 23.2829C8.21048 23.4588 8.35761 23.5937 8.53985 23.65C8.72797 23.7081 8.93239 23.6761 9.09364 23.5631L11.5888 21.8148H23.029C23.9652 21.8148 24.7244 21.0559 24.7244 20.1196V14.0169C24.7244 13.0806 23.9652 12.3217 23.029 12.3217H5.32342C4.38771 12.3217 3.62891 13.0801 3.62891 14.016V20.1206ZM4.90329 14.016C4.90329 13.7842 5.09125 13.5961 5.32342 13.5961H23.029C23.2616 13.5961 23.45 13.7846 23.45 14.0169V20.1196C23.45 20.3519 23.2616 20.5404 23.029 20.5404H11.3878C11.2569 20.5404 11.1293 20.5806 11.0221 20.6557L9.03498 22.0481L8.62278 20.9531C8.52931 20.7048 8.29175 20.5404 8.02643 20.5404H5.32342C5.09123 20.5404 4.90329 20.3522 4.90329 20.1206V14.016Z" fill="#0087C7"/>
</g>
</svg>
