<svg width="36" height="36" viewBox="0 0 36 36" fill="none" xmlns="http://www.w3.org/2000/svg">
<path d="M30.375 2.8125H27.5625C27.2531 2.8125 27 3.06562 27 3.375C27 3.68438 27.2531 3.9375 27.5625 3.9375H30.375C31.3031 3.9375 32.0625 4.69688 32.0625 5.625V15.75C32.0625 16.6781 31.3031 17.4375 30.375 17.4375H28.6425C28.3725 15.8456 26.9831 14.625 25.3125 14.625C23.6419 14.625 22.2525 15.8456 21.9825 17.4375H18.5625V14.0175C20.1544 13.7475 21.375 12.3581 21.375 10.6875C21.375 9.01687 20.1544 7.6275 18.5625 7.3575V5.625C18.5625 4.69688 19.3219 3.9375 20.25 3.9375H25.3125C25.6219 3.9375 25.875 3.68438 25.875 3.375C25.875 3.06562 25.6219 2.8125 25.3125 2.8125H20.25C18.6975 2.8125 17.4375 4.0725 17.4375 5.625V7.875C17.4375 8.18438 17.6906 8.4375 18 8.4375C19.2431 8.4375 20.25 9.44437 20.25 10.6875C20.25 11.9306 19.2431 12.9375 18 12.9375C17.6906 12.9375 17.4375 13.1906 17.4375 13.5V18C17.4375 18.3094 17.6906 18.5625 18 18.5625H22.5C22.8094 18.5625 23.0625 18.3094 23.0625 18C23.0625 16.7569 24.0694 15.75 25.3125 15.75C26.5556 15.75 27.5625 16.7569 27.5625 18C27.5625 18.3094 27.8156 18.5625 28.125 18.5625H30.375C31.9275 18.5625 33.1875 17.3025 33.1875 15.75V5.625C33.1875 4.0725 31.9275 2.8125 30.375 2.8125Z" fill="#0087C7"/>
<path d="M25.875 32.0625H20.25C19.3219 32.0625 18.5625 31.3031 18.5625 30.375V28.6425C20.1544 28.3725 21.375 26.9831 21.375 25.3125C21.375 23.6419 20.1544 22.2525 18.5625 21.9825V20.25C18.5625 19.9406 18.3094 19.6875 18 19.6875C17.6906 19.6875 17.4375 19.9406 17.4375 20.25V22.5C17.4375 22.8094 17.6906 23.0625 18 23.0625C19.2431 23.0625 20.25 24.0694 20.25 25.3125C20.25 26.5556 19.2431 27.5625 18 27.5625C17.6906 27.5625 17.4375 27.8156 17.4375 28.125V30.375C17.4375 31.9275 18.6975 33.1875 20.25 33.1875H25.875C26.1844 33.1875 26.4375 32.9344 26.4375 32.625C26.4375 32.3156 26.1844 32.0625 25.875 32.0625Z" fill="#0087C7"/>
<path d="M32.4 19.1475C32.1019 19.2319 31.9275 19.5412 32.0119 19.8394C32.0456 19.9631 32.0625 20.0981 32.0625 20.25V30.375C32.0625 31.3031 31.3031 32.0625 30.375 32.0625H28.125C27.8156 32.0625 27.5625 32.3156 27.5625 32.625C27.5625 32.9344 27.8156 33.1875 28.125 33.1875H30.375C31.9275 33.1875 33.1875 31.9275 33.1875 30.375V20.25C33.1875 19.9969 33.1594 19.7606 33.0919 19.5356C33.0075 19.2375 32.6981 19.0631 32.4 19.1475Z" fill="#0087C7"/>
<path d="M16.4644 2.90813C16.2394 2.84625 16.0031 2.8125 15.75 2.8125H5.625C4.0725 2.8125 2.8125 4.0725 2.8125 5.625V15.75C2.8125 17.3025 4.0725 18.5625 5.625 18.5625H7.875C8.18438 18.5625 8.4375 18.3094 8.4375 18C8.4375 16.7569 9.44437 15.75 10.6875 15.75C11.9306 15.75 12.9375 16.7569 12.9375 18C12.9375 18.3094 13.1906 18.5625 13.5 18.5625H15.75C16.0594 18.5625 16.3125 18.3094 16.3125 18C16.3125 17.6906 16.0594 17.4375 15.75 17.4375H14.0175C13.7475 15.8456 12.3581 14.625 10.6875 14.625C9.01687 14.625 7.6275 15.8456 7.3575 17.4375H5.625C4.69688 17.4375 3.9375 16.6781 3.9375 15.75V5.625C3.9375 4.69688 4.69688 3.9375 5.625 3.9375H15.75C15.9019 3.9375 16.0369 3.95438 16.1606 3.98813C16.4644 4.0725 16.7681 3.89813 16.8525 3.6C16.9369 3.30188 16.7625 2.9925 16.4644 2.90813Z" fill="#0087C7"/>
<path d="M9.5625 19.6875C5.83875 19.6875 2.8125 22.7137 2.8125 26.4375C2.8125 30.1612 5.83875 33.1875 9.5625 33.1875C10.6256 33.1875 11.6831 32.9344 12.6225 32.4562C12.8981 32.3156 13.0106 31.9781 12.87 31.6969C12.7294 31.4212 12.3919 31.3087 12.1106 31.4494C11.3344 31.8487 10.4513 32.0569 9.5625 32.0569C6.46312 32.0569 3.9375 29.5312 3.9375 26.4319C3.9375 23.3325 6.46312 20.8069 9.5625 20.8069C12.6619 20.8069 15.1875 23.3325 15.1875 26.4319C15.1875 27.8269 14.6756 29.16 13.7475 30.1894C13.5394 30.42 13.5563 30.7744 13.7869 30.9825C14.0175 31.1906 14.3719 31.1737 14.58 30.9431C15.6994 29.7056 16.3125 28.1081 16.3125 26.4319C16.3125 22.7081 13.2862 19.6819 9.5625 19.6819V19.6875Z" fill="#0087C7"/>
<path d="M11.9918 24.1538L8.35801 27.5456L7.13739 26.4038C6.91239 26.19 6.55239 26.2069 6.34426 26.4319C6.13051 26.6569 6.14739 27.0169 6.37239 27.225L7.98114 28.7269C8.08801 28.8281 8.22864 28.8788 8.36364 28.8788C8.49864 28.8788 8.63926 28.8281 8.74614 28.7269L12.7624 24.975C12.9874 24.7613 12.9986 24.4069 12.7905 24.1819C12.5768 23.9569 12.2224 23.94 11.9974 24.1538H11.9918Z" fill="#0087C7"/>
</svg>
