<svg width="34" height="34" viewBox="0 0 34 34" fill="none" xmlns="http://www.w3.org/2000/svg">
<path d="M30.0181 28.1561C31.7759 28.1561 33.2057 26.7263 33.2057 24.9685V3.88572C33.2057 2.12791 31.7759 0.698112 30.0181 0.698112H3.98058C2.22277 0.698112 0.792969 2.12791 0.792969 3.88572V24.9755C0.792969 26.7293 2.22011 28.1561 3.97395 28.1561H13.6485C14.0608 29.1909 13.6613 30.1045 11.1906 31.9434H10.0261C9.65102 31.9434 9.34688 32.2475 9.34688 32.6226C9.34688 32.9978 9.65102 33.3019 10.0261 33.3019H23.9546C24.3297 33.3019 24.6339 32.9978 24.6339 32.6226C24.6339 32.2475 24.3297 31.9434 23.9546 31.9434H22.7902C20.3195 30.1045 19.92 29.1909 20.3322 28.1561H30.0181ZM3.98058 2.0566H30.0181C31.0094 2.0566 31.8472 2.89438 31.8472 3.88572V22.5309L2.15146 22.534V3.88572C2.15146 2.87714 2.97199 2.0566 3.98058 2.0566ZM2.15146 24.9755V23.8925L31.8472 23.8894V24.9685C31.8472 25.9771 31.0267 26.7976 30.0181 26.7976C-1.46674 26.7944 36.9842 26.7974 3.97395 26.7976C2.96901 26.7976 2.15146 25.9801 2.15146 24.9755ZM20.6138 31.9434H13.367C14.5996 30.8427 15.4126 29.6478 15.067 28.1561H18.9138C18.5681 29.6478 19.3811 30.8427 20.6138 31.9434Z" fill="#0087C7"/>
<path d="M14.6821 25.3453C14.6821 24.9702 14.378 24.666 14.0029 24.666H13.9959C13.6208 24.666 13.3203 24.9702 13.3203 25.3453C13.3203 25.7204 13.6278 26.0245 14.0029 26.0245C14.378 26.0245 14.6821 25.7204 14.6821 25.3453Z" fill="#0087C7"/>
<path d="M16.9934 26.0245C17.3686 26.0245 17.6727 25.7204 17.6727 25.3453C17.6727 24.9702 17.3686 24.666 16.9934 24.666H16.9861C16.611 24.666 16.3105 24.9702 16.3105 25.3453C16.3105 25.7204 16.6183 26.0245 16.9934 26.0245Z" fill="#0087C7"/>
<path d="M19.9856 26.0245C20.3607 26.0245 20.6649 25.7204 20.6649 25.3453C20.6649 24.9702 20.3607 24.666 19.9856 24.666H19.9787C19.6036 24.666 19.3027 24.9702 19.3027 25.3453C19.3027 25.7204 19.6105 26.0245 19.9856 26.0245Z" fill="#0087C7"/>
<path d="M16.2104 21.1252C19.1486 21.1252 21.8954 19.6162 23.4957 17.2846C23.7083 16.9755 23.6297 16.5526 23.3203 16.3403C23.0105 16.1267 22.588 16.207 22.376 16.5158C22.2429 16.7097 22.0942 16.889 21.9453 17.0677L21.7227 16.8451C21.4573 16.5798 21.0275 16.5798 20.7622 16.8451C20.4968 17.1104 20.4968 17.5403 20.7622 17.8056L20.9844 18.0278C19.8286 18.9899 18.4057 19.5863 16.8897 19.725V19.4095C16.8897 19.0344 16.5855 18.7303 16.2104 18.7303C15.8353 18.7303 15.5312 19.0344 15.5312 19.4095V19.7323C13.9802 19.5917 12.5646 18.9776 11.4318 18.0328L11.659 17.8056C11.9243 17.5403 11.9243 17.1104 11.659 16.8451C11.3937 16.5798 10.9638 16.5798 10.6985 16.8451L10.4713 17.0723C9.52651 15.9395 8.91239 14.5239 8.77181 12.9729H9.0946C9.46971 12.9729 9.77384 12.6688 9.77384 12.2937C9.77384 11.9186 9.46971 11.6145 9.0946 11.6145H8.77181C8.91243 10.0634 9.52659 8.64782 10.4715 7.51494L10.6985 7.74196C10.9638 8.00729 11.3937 8.0073 11.659 7.74196C11.9243 7.47663 11.9243 7.0468 11.659 6.78147L11.432 6.55445C12.5648 5.6097 13.9803 4.99567 15.5312 4.85509V5.17755C15.5312 5.55266 15.8353 5.85679 16.2104 5.85679C16.5855 5.85679 16.8897 5.55266 16.8897 5.17755V4.85509C18.4407 4.99567 19.8563 5.6097 20.9891 6.55449L20.7622 6.78147C20.4968 7.0468 20.4968 7.47663 20.7622 7.74196C21.0275 8.00729 21.4573 8.0073 21.7227 7.74196L21.9497 7.51494C23.0311 8.81145 23.6838 10.4774 23.6838 12.2937C23.6838 12.4228 23.6665 12.5503 23.6599 12.6789L23.1488 12.0493C22.9123 11.7584 22.4852 11.7143 22.1933 11.9501C21.9021 12.1866 21.8576 12.6141 22.0941 12.9056L23.5786 14.7347C23.7915 14.9967 24.2495 15.0648 24.5342 14.8339L26.3676 13.3457C26.6588 13.1093 26.7032 12.6817 26.4668 12.3902C26.2303 12.099 25.8028 12.0556 25.5112 12.2911L25.0176 12.6918C25.0236 12.5588 25.0423 12.427 25.0423 12.2937C25.0423 7.44656 21.1008 3.46219 16.2104 3.46219C11.3641 3.46219 7.37891 7.40244 7.37891 12.2937C7.37891 17.1394 11.3184 21.1252 16.2104 21.1252Z" fill="#0087C7"/>
<path d="M12.5566 12.8539V14.7676C12.5566 15.1427 12.8608 15.4468 13.2359 15.4468C13.611 15.4468 13.9151 15.1427 13.9151 14.7676V12.8539C13.9151 12.4788 13.611 12.1746 13.2359 12.1746C12.8608 12.1746 12.5566 12.4788 12.5566 12.8539Z" fill="#0087C7"/>
<path d="M16.2105 10.6573C15.8354 10.6573 15.5312 10.9614 15.5312 11.3365V14.7676C15.5312 15.1427 15.8354 15.4468 16.2105 15.4468C16.5856 15.4468 16.8897 15.1427 16.8897 14.7676V11.3365C16.8897 10.9614 16.5856 10.6573 16.2105 10.6573Z" fill="#0087C7"/>
<path d="M18.5078 9.8195V14.7676C18.5078 15.1427 18.8119 15.4468 19.1871 15.4468C19.5622 15.4468 19.8663 15.1427 19.8663 14.7676V9.8195C19.8663 9.44439 19.5622 9.14026 19.1871 9.14026C18.8119 9.14026 18.5078 9.44439 18.5078 9.8195Z" fill="#0087C7"/>
</svg>
