<svg width="36" height="36" viewBox="0 0 36 36" fill="none" xmlns="http://www.w3.org/2000/svg">
<g clip-path="url(#clip0_20738_4211)">
<path d="M31.1997 1.80003H10.243C10.042 1.80003 9.85448 1.69925 9.74315 1.53196L9.26326 0.805089C8.93015 0.301175 8.36559 -0.0014672 7.76147 -2.33583e-06H4.79922C3.80516 -2.33583e-06 2.99919 0.805968 2.99919 1.80003V19.8003C3.00124 21.4565 4.34306 22.7983 5.99924 22.8004H17.3994V25.8004H5.99924C5.66788 25.8004 5.39923 26.0691 5.39923 26.4004V30.0606C3.89012 30.3685 2.85944 31.7692 3.01442 33.3014C3.16911 34.8337 4.45907 36 5.99924 36C7.5394 36 8.82936 34.8337 8.98405 33.3014C9.13874 31.7692 8.10835 30.3685 6.59925 30.0606V27.0005H17.3994V30.0606C15.8903 30.3685 14.8596 31.7692 15.0146 33.3014C15.1693 34.8337 16.4593 36 17.9994 36C19.5396 36 20.8296 34.8337 20.9843 33.3014C21.1389 31.7692 20.1086 30.3685 18.5995 30.0606V27.0005H29.3996V30.0606C27.8905 30.3685 26.8598 31.7692 27.0148 33.3014C27.1695 34.8337 28.4595 36 29.9996 36C31.5398 36 32.8298 34.8337 32.9845 33.3014C33.1391 31.7692 32.1088 30.3685 30.5997 30.0606V26.4004C30.5997 26.0691 30.331 25.8004 29.9996 25.8004H18.5995V22.8004H29.9996C31.6558 22.7983 32.9976 21.4565 32.9997 19.8003V3.60006C32.9997 2.606 32.1937 1.80003 31.1997 1.80003ZM7.79927 33.0006C7.79927 33.9946 6.9933 34.8006 5.99924 34.8006C5.00518 34.8006 4.19921 33.9946 4.19921 33.0006C4.19921 32.0065 5.00518 31.2005 5.99924 31.2005C6.9933 31.2005 7.79927 32.0065 7.79927 33.0006ZM19.7995 33.0006C19.7995 33.9946 18.9935 34.8006 17.9994 34.8006C17.0054 34.8006 16.1994 33.9946 16.1994 33.0006C16.1994 32.0065 17.0054 31.2005 17.9994 31.2005C18.9935 31.2005 19.7995 32.0065 19.7995 33.0006ZM31.7997 33.0006C31.7997 33.9946 30.9937 34.8006 29.9996 34.8006C29.0056 34.8006 28.1996 33.9946 28.1996 33.0006C28.1996 32.0065 29.0056 31.2005 29.9996 31.2005C30.9937 31.2005 31.7997 32.0065 31.7997 33.0006ZM31.7997 19.8003C31.7997 20.7944 30.9937 21.6004 29.9996 21.6004H8.38375C8.78073 21.0841 8.99694 20.4516 8.99929 19.8003V6.0001C8.99929 5.66875 9.26794 5.40009 9.5993 5.40009H28.1996V4.20007H9.5993C8.60524 4.20007 7.79927 5.00604 7.79927 6.0001V19.8003C7.79927 20.7944 6.9933 21.6004 5.99924 21.6004C5.00518 21.6004 4.19921 20.7944 4.19921 19.8003V1.80003C4.19921 1.46867 4.46786 1.20002 4.79922 1.20002H7.76147C7.96275 1.19973 8.15054 1.30051 8.26187 1.46809L8.74176 2.19554C9.07517 2.69887 9.63914 3.00122 10.243 3.00005H31.1997C31.531 3.00005 31.7997 3.26871 31.7997 3.60006V19.8003Z" fill="#0087C7"/>
<path d="M10.1992 6.00011H11.3992V7.20013H10.1992V6.00011Z" fill="#0087C7"/>
<path d="M12.5996 6.00011H13.7996V7.20013H12.5996V6.00011Z" fill="#0087C7"/>
<path d="M29.3994 4.20007H30.5994V5.40009H29.3994V4.20007Z" fill="#0087C7"/>
<path d="M17.9997 7.80013C15.0172 7.80013 12.5996 10.2177 12.5996 13.2002C12.5996 16.1827 15.0172 18.6003 17.9997 18.6003C20.9822 18.6003 23.3998 16.1827 23.3998 13.2002C23.3966 10.2192 20.9807 7.80335 17.9997 7.80013ZM17.9997 17.4003C15.6799 17.4003 13.7996 15.52 13.7996 13.2002C13.7996 10.8805 15.6799 9.00015 17.9997 9.00015C20.3195 9.00015 22.1998 10.8805 22.1998 13.2002C22.1968 15.5185 20.318 17.3974 17.9997 17.4003Z" fill="#0087C7"/>
<path d="M17.4 13.5518L16.0242 12.176L15.1758 13.0244L16.9758 14.8245C17.2102 15.0586 17.5899 15.0586 17.8243 14.8245L20.8243 11.8244L19.9759 10.976L17.4 13.5518Z" fill="#0087C7"/>
<path d="M27 19.2003H28.2V20.4003H27V19.2003Z" fill="#0087C7"/>
<path d="M29.3994 19.2003H30.5994V20.4003H29.3994V19.2003Z" fill="#0087C7"/>
</g>
<defs>
<clipPath id="clip0_20738_4211">
<rect width="36" height="36" fill="white"/>
</clipPath>
</defs>
</svg>
