<svg width="64" height="64" viewBox="0 0 64 64" fill="none" xmlns="http://www.w3.org/2000/svg">
<path d="M56.1541 58.217C55.7779 58.0194 55.309 58.162 55.1089 58.5397C54.5312 59.6323 53.4014 60.3115 52.1604 60.3115H16.4731C14.6302 60.3115 13.1312 58.8152 13.1312 56.9762V13.2321C13.1312 11.3925 14.6303 9.89621 16.4731 9.89621H45.0905V17.2719C45.0905 18.9441 46.4508 20.3044 48.123 20.3044H55.4957V37.267C55.4957 37.6943 55.8419 38.0406 56.2693 38.0406C56.6965 38.0406 57.0429 37.6944 57.0429 37.267V19.5315C57.0429 19.3577 56.9582 19.1228 56.8193 18.984L51.1423 13.3071L50.4588 12.6231V7.26632C50.4588 4.44118 48.1603 2.14233 45.3348 2.14233H10.1237C7.29861 2.14233 5 4.44118 5 7.26632V50.5283C5 53.3535 7.29849 55.6523 10.1237 55.6523H11.5841V56.9764C11.5841 59.6686 13.7771 61.8587 16.4729 61.8587H52.1604C53.9761 61.8587 55.6302 60.864 56.4765 59.2625C56.6763 58.8848 56.5318 58.4171 56.1541 58.217ZM46.6376 17.272V10.9901L49.8104 14.1629L54.4019 18.7573H48.1229C47.3038 18.7575 46.6376 18.0908 46.6376 17.272ZM10.1237 54.1052C8.15151 54.1052 6.54704 52.5007 6.54704 50.5282V7.26632C6.54704 5.29384 8.15151 3.68938 10.1237 3.68938H45.3347C47.307 3.68938 48.9117 5.29384 48.9117 7.26632V11.0751L46.414 8.57588C46.3002 8.4621 46.0613 8.34929 45.8671 8.34929H16.4731C13.7773 8.34929 11.5842 10.54 11.5842 13.2322V54.1053H10.1237V54.1052Z" fill="black"/>
<path d="M30.8665 14.3273C30.8665 13.9001 30.5203 13.5537 30.093 13.5537H18.5236C18.0964 13.5537 17.75 13.8999 17.75 14.3273C17.75 14.7546 18.0962 15.1009 18.5236 15.1009H30.093C30.5203 15.1009 30.8665 14.7545 30.8665 14.3273Z" fill="black"/>
<path d="M18.5255 17.6167C18.0983 17.6167 17.752 17.9629 17.752 18.3903C17.752 18.8176 18.0982 19.1639 18.5255 19.1639H24.31C24.7373 19.1639 25.0836 18.8176 25.0836 18.3903C25.0836 17.9629 24.7374 17.6167 24.31 17.6167H18.5255Z" fill="black"/>
<path d="M56.8901 39.5862H30.1572C28.9936 39.5862 28.0469 40.5331 28.0469 41.6965V54.4694C28.0469 55.6328 28.9936 56.5791 30.1572 56.5791H56.8901C58.0537 56.5791 59.0004 55.6328 59.0004 54.4694V41.6965C59.0004 40.5331 58.0537 39.5862 56.8901 39.5862ZM57.4534 54.4693C57.4534 54.7793 57.2008 55.032 56.8901 55.032H30.1572C29.8466 55.032 29.5939 54.7794 29.5939 54.4693V41.6965C29.5939 41.3859 29.8465 41.1332 30.1572 41.1332H56.8901C57.2007 41.1332 57.4534 41.3858 57.4534 41.6965V54.4693Z" fill="black"/>
<path d="M41.0233 42.3706C38.7541 42.3706 36.9082 44.2167 36.9082 46.486V53.0206C36.9082 53.4478 37.2544 53.7941 37.6818 53.7941C38.109 53.7941 38.4554 53.4479 38.4554 53.0206V49.8841H43.5918V53.0206C43.5918 53.4478 43.938 53.7941 44.3654 53.7941C44.7926 53.7941 45.139 53.4479 45.139 53.0206V46.486C45.1387 44.2167 43.2926 42.3706 41.0233 42.3706ZM38.4552 48.3371V46.486C38.4552 45.0701 39.6074 43.9176 41.0233 43.9176C42.4396 43.9176 43.5917 45.0701 43.5917 46.486V48.3371H38.4552Z" fill="black"/>
<path d="M49.3654 42.3706C48.9382 42.3706 48.5918 42.7168 48.5918 43.1442V53.0206C48.5918 53.4478 48.938 53.7941 49.3654 53.7941C49.7926 53.7941 50.139 53.4479 50.139 53.0206V43.1442C50.1388 42.7168 49.7926 42.3706 49.3654 42.3706Z" fill="black"/>
<path d="M42.95 29.6264V28.1663C42.95 27.3137 42.2619 26.6181 41.4117 26.6066C41.2887 26.2247 41.1352 25.8542 40.9521 25.4977C41.5453 24.8885 41.5402 23.9101 40.9371 23.307L39.905 22.2749C39.3019 21.6718 38.3225 21.6669 37.714 22.2604C37.3575 22.078 36.987 21.9245 36.6055 21.8017C36.5946 20.9508 35.899 20.262 35.0457 20.262H33.586C32.7328 20.262 32.0374 20.9502 32.0263 21.8011C31.6447 21.9237 31.2743 22.0772 30.9177 22.2604C30.3091 21.6676 29.3305 21.6718 28.7268 22.2749L27.6943 23.307C27.0912 23.9101 27.0861 24.8879 27.6795 25.4977C27.4963 25.8542 27.3428 26.2253 27.2199 26.6066C26.3697 26.6181 25.6816 27.3131 25.6816 28.1663V29.6264C25.6816 30.4797 26.3697 31.1746 27.2199 31.1861C27.3429 31.5674 27.4964 31.9385 27.6795 32.2951C27.0861 32.9043 27.0912 33.8827 27.6943 34.4858L28.7268 35.518C29.3299 36.1211 30.3081 36.126 30.9177 35.5325C31.2743 35.7156 31.6448 35.8691 32.0263 35.9918C32.0374 36.8426 32.7328 37.5309 33.586 37.5309H35.0457C35.899 37.5309 36.5946 36.842 36.6055 35.9912C36.9871 35.8685 37.3575 35.715 37.714 35.5325C38.3232 36.1259 39.3019 36.1217 39.905 35.518L40.9371 34.4858C41.5402 33.8827 41.5453 32.9049 40.9521 32.2951C41.1353 31.9385 41.2888 31.568 41.4117 31.1861C42.2619 31.1746 42.95 30.4791 42.95 29.6264ZM41.3903 29.6391H40.8237C40.4638 29.6391 40.1516 29.8869 40.0701 30.2374C39.9235 30.869 39.6755 31.4678 39.3328 32.0165C39.1421 32.3223 39.1878 32.7188 39.4422 32.9732L39.8432 33.3919L38.7933 34.4241L38.3916 34.0229C38.1372 33.7684 37.7414 33.7232 37.4356 33.9135C36.8872 34.255 36.2886 34.5027 35.6568 34.6495C35.3063 34.7311 35.0583 35.0435 35.0583 35.4031L35.0456 35.9839L33.5732 35.9712V35.4037C33.5732 35.0442 33.3251 34.7317 32.9747 34.6501C32.3438 34.5039 31.7449 34.2556 31.1953 33.9135C31.069 33.8343 30.9273 33.7963 30.7865 33.7963C30.5865 33.7963 30.3882 33.8737 30.239 34.0229L29.8205 34.4241L28.788 33.3738L29.189 32.9732C29.4434 32.7187 29.489 32.3223 29.2983 32.0171C28.9559 31.4672 28.7079 30.869 28.5613 30.2374C28.4797 29.8869 28.1676 29.6391 27.8077 29.6391L27.2284 29.6264L27.2409 28.1537H27.8077C28.1676 28.1537 28.4797 27.9059 28.5613 27.5554C28.7079 26.9238 28.9559 26.3256 29.2983 25.7756C29.489 25.4704 29.4433 25.0741 29.189 24.8196L28.788 24.4007L29.838 23.3686L30.2389 23.7699C30.493 24.0237 30.8891 24.0709 31.1953 23.8792C31.7449 23.5372 32.3438 23.2888 32.9747 23.1426C33.3252 23.061 33.5732 22.7486 33.5732 22.389L33.5859 21.8089L35.0583 21.8216V22.3896C35.0583 22.7491 35.3064 23.0616 35.6568 23.1432C36.2886 23.29 36.8872 23.5378 37.4356 23.8792C37.7414 24.069 38.1372 24.0242 38.3916 23.7699L38.8111 23.3686L39.8432 24.4189L39.4422 24.8196C39.1877 25.0741 39.1421 25.4704 39.3328 25.7762C39.6755 26.325 39.9236 26.9238 40.0701 27.5554C40.1516 27.9059 40.4638 28.1537 40.8237 28.1537H41.3903L41.4029 28.1663L41.3903 29.6391Z" fill="black"/>
<path d="M34.3155 24.8167C32.0662 24.8167 30.2363 26.6465 30.2363 28.8958C30.2363 31.1452 32.0662 32.975 34.3155 32.975C36.5648 32.975 38.3949 31.1452 38.3949 28.8958C38.3949 26.6465 36.5648 24.8167 34.3155 24.8167ZM34.3155 31.4279C32.9192 31.4279 31.7834 30.2918 31.7834 28.8957C31.7834 27.4998 32.9192 26.3636 34.3155 26.3636C35.7118 26.3636 36.8479 27.4997 36.8479 28.8957C36.8479 30.2918 35.7118 31.4279 34.3155 31.4279Z" fill="black"/>
</svg>
