<svg width="64" height="64" viewBox="0 0 64 64" fill="none" xmlns="http://www.w3.org/2000/svg">
<path d="M18.1064 39.4828C15.7444 39.4828 13.8312 41.3962 13.8312 43.7586C13.8312 46.121 15.7444 48.0345 18.1064 48.0345C20.4684 48.0345 22.3815 46.121 22.3815 43.7586C22.3815 41.3962 20.4684 39.4828 18.1064 39.4828ZM18.1064 45.8966C16.9307 45.8966 15.9688 44.9345 15.9688 43.7586C15.9688 42.5828 16.9307 41.6207 18.1064 41.6207C19.282 41.6207 20.2439 42.5828 20.2439 43.7586C20.2439 44.9345 19.282 45.8966 18.1064 45.8966ZM30.9317 48.0345C33.2937 48.0345 35.2069 46.121 35.2069 43.7586C35.2069 41.3962 33.2937 39.4828 30.9317 39.4828C28.5697 39.4828 26.6566 41.3962 26.6566 43.7586C26.6566 46.121 28.5697 48.0345 30.9317 48.0345ZM30.9317 41.6207C32.1074 41.6207 33.0693 42.5828 33.0693 43.7586C33.0693 44.9345 32.1074 45.8966 30.9317 45.8966C29.7561 45.8966 28.7942 44.9345 28.7942 43.7586C28.7942 42.5828 29.7561 41.6207 30.9317 41.6207ZM45.8947 37.3448H44.7725C44.2167 27.2324 35.8374 19.1724 25.5878 19.1724H23.4503C13.2007 19.1724 4.82141 27.2324 4.26564 37.3448H3.14342C1.96776 37.3448 1.00586 38.3069 1.00586 39.4828V48.0345C1.00586 49.2103 1.96776 50.1724 3.14342 50.1724H8.48733V59.7931C8.48733 61.5569 9.93018 63 11.6937 63H37.3444C39.1079 63 40.5508 61.5569 40.5508 59.7931V56.5862H41.6195C43.383 56.5862 44.8259 55.1431 44.8259 53.3793V50.1724H45.8947C47.0703 50.1724 48.0322 49.2103 48.0322 48.0345V39.4828C48.0322 38.3069 47.0703 37.3448 45.8947 37.3448ZM23.4503 21.3103H25.5878C34.6511 21.3103 42.0791 28.4083 42.6349 37.3448H40.5508V36.2759C40.5508 34.5121 39.1079 33.069 37.3444 33.069H25.5878V30.7386C26.8276 30.3003 27.7254 29.1245 27.7254 27.7241C27.7254 25.9603 26.2825 24.5172 24.519 24.5172C22.7556 24.5172 21.3127 25.9603 21.3127 27.7241C21.3127 29.1138 22.2105 30.2897 23.4503 30.7386V33.069H11.6937C9.93018 33.069 8.48733 34.5121 8.48733 36.2759V37.3448H6.4032C6.95897 28.4083 14.3763 21.3103 23.4503 21.3103ZM24.519 28.7931C23.9312 28.7931 23.4503 28.3121 23.4503 27.7241C23.4503 27.1362 23.9312 26.6552 24.519 26.6552C25.1069 26.6552 25.5878 27.1362 25.5878 27.7241C25.5878 28.3121 25.1069 28.7931 24.519 28.7931ZM3.14342 48.0345V39.4828H8.48733V48.0345H3.14342ZM38.4132 59.7931C38.4132 60.381 37.9323 60.8621 37.3444 60.8621H11.6937C11.1058 60.8621 10.6249 60.381 10.6249 59.7931V36.2759C10.6249 35.6879 11.1058 35.2069 11.6937 35.2069H37.3444C37.9323 35.2069 38.4132 35.6879 38.4132 36.2759V54.4483H35.2069C35.2069 53.2724 34.245 52.3103 33.0693 52.3103H28.7942C27.6185 52.3103 26.6566 53.2724 26.6566 54.4483V56.5862C26.6566 57.7621 27.6185 58.7241 28.7942 58.7241H33.0693C34.245 58.7241 35.2069 57.7621 35.2069 56.5862H38.4132V59.7931ZM33.0693 56.5862H28.7942V54.4483H33.0693V56.5862ZM42.6883 53.3793C42.6883 53.9672 42.2074 54.4483 41.6195 54.4483H40.5508V50.1724H42.6883V53.3793ZM45.8947 48.0345H40.5508V39.4828H45.8947V48.0345ZM60.8576 1H39.482C38.3063 1 37.3444 1.96207 37.3444 3.13793V18.1034C37.3444 19.2793 38.3063 20.2414 39.482 20.2414H41.6195V23.4483C41.6195 23.8759 41.8761 24.2714 42.2822 24.4317C42.4104 24.4852 42.5494 24.5172 42.6883 24.5172C42.9662 24.5172 43.2441 24.4103 43.4472 24.2072L47.4123 20.2414H60.8683C62.044 20.2414 63.0059 19.2793 63.0059 18.1034V3.13793C63.0059 1.96207 62.044 1 60.8683 1H60.8576ZM60.8576 18.1034H46.9635C46.6749 18.1034 46.4077 18.221 46.2046 18.4135L43.7571 20.8614V19.1617C43.7571 18.5738 43.2762 18.0928 42.6883 18.0928H39.482V3.13793H60.8576V18.1034ZM41.6195 6.34483C41.6195 5.7569 42.1005 5.27586 42.6883 5.27586H57.6513C58.2391 5.27586 58.72 5.7569 58.72 6.34483C58.72 6.93276 58.2391 7.41379 57.6513 7.41379H42.6883C42.1005 7.41379 41.6195 6.93276 41.6195 6.34483ZM41.6195 10.6207C41.6195 10.0328 42.1005 9.55172 42.6883 9.55172H57.6513C58.2391 9.55172 58.72 10.0328 58.72 10.6207C58.72 11.2086 58.2391 11.6897 57.6513 11.6897H42.6883C42.1005 11.6897 41.6195 11.2086 41.6195 10.6207ZM41.6195 14.8966C41.6195 14.3086 42.1005 13.8276 42.6883 13.8276H57.6513C58.2391 13.8276 58.72 14.3086 58.72 14.8966C58.72 15.4845 58.2391 15.9655 57.6513 15.9655H42.6883C42.1005 15.9655 41.6195 15.4845 41.6195 14.8966Z" fill="black"/>
</svg>
