<svg width="64" height="64" viewBox="0 0 64 64" fill="none" xmlns="http://www.w3.org/2000/svg">
<path d="M13.9995 31.9999H14.9995V29.9999H13.9995C12.1997 30.0007 10.433 29.5157 8.88584 28.5961C7.33867 27.6765 6.06838 26.3563 5.20895 24.775C4.34952 23.1936 3.93282 21.4095 4.0028 19.6111C4.07279 17.8126 4.62686 16.0663 5.60658 14.5565C6.5863 13.0467 7.95535 11.8293 9.5693 11.0327C11.1832 10.2361 12.9823 9.88985 14.7766 10.0305C16.5709 10.1711 18.2941 10.7934 19.7642 11.8317C21.2343 12.87 22.397 14.2859 23.1295 15.9299C20.9425 17.546 19.236 19.7262 18.1924 22.2374C17.1489 24.7485 16.8076 27.4961 17.2051 30.1863C17.6026 32.8764 18.724 35.4079 20.4492 37.5099C22.1744 39.6119 24.4386 41.2054 26.9995 42.1199V56.9999C26.9995 58.326 27.5263 59.5978 28.464 60.5354C29.4017 61.4731 30.6734 61.9999 31.9995 61.9999C33.3256 61.9999 34.5974 61.4731 35.5351 60.5354C36.4727 59.5978 36.9995 58.326 36.9995 56.9999V42.1199C38.9664 41.4416 40.7707 40.3615 42.2977 38.9483C43.8246 37.5351 45.0409 35.8197 45.8692 33.9112C46.6975 32.0026 47.1197 29.9426 47.109 27.862C47.0982 25.7815 46.6548 23.7259 45.8068 21.826C44.9589 19.9261 43.7249 18.2233 42.1834 16.826C40.6419 15.4286 38.8266 14.3673 36.8528 13.7093C34.879 13.0513 32.7899 12.8112 30.7183 13.0041C28.6467 13.197 26.6379 13.8188 24.8195 14.8299C23.9404 12.9762 22.5969 11.3812 20.9195 10.1999C22.3325 7.89305 24.43 6.08447 26.9196 5.02618C29.4092 3.9679 32.167 3.71265 34.8085 4.29599C37.4501 4.87934 39.8439 6.27222 41.6563 8.28053C43.4687 10.2888 44.6094 12.8125 44.9195 15.4999L45.1395 17.4499L46.5895 16.1099C47.5478 15.2292 48.7064 14.5955 49.965 14.2639C51.2235 13.9323 52.544 13.9128 53.8118 14.207C55.0796 14.5013 56.2565 15.1004 57.2404 15.9524C58.2242 16.8045 58.9854 17.8837 59.4577 19.0965C59.9301 20.3092 60.0994 21.6189 59.951 22.912C59.8027 24.205 59.341 25.4423 58.6062 26.5165C57.8714 27.5908 56.8856 28.4695 55.7343 29.0765C54.583 29.6835 53.301 30.0005 51.9995 29.9999H48.9995V31.9999H51.9995C53.5531 32.0007 55.0855 31.6394 56.4752 30.9448C57.8649 30.2502 59.0736 29.2414 60.0055 27.9983C60.9374 26.7553 61.5669 25.3122 61.844 23.7835C62.1211 22.2548 62.0382 20.6826 61.6018 19.1915C61.1655 17.7004 60.3878 16.3315 59.3303 15.1934C58.2729 14.0552 56.9648 13.1791 55.5098 12.6345C54.0548 12.0899 52.4929 11.8917 50.948 12.0559C49.4031 12.22 47.9176 12.7418 46.6095 13.5799C45.9311 10.68 44.4048 8.04772 42.2251 6.01835C40.0453 3.98897 37.3109 2.65439 34.37 2.18462C31.4291 1.71485 28.4149 2.13115 25.7114 3.3805C23.0079 4.62984 20.7376 6.65567 19.1895 9.19991C17.5645 8.41289 15.7828 8.00273 13.9772 7.99999C12.1716 7.99725 10.3886 8.40201 8.76121 9.1841C7.13378 9.9662 5.70382 11.1055 4.57789 12.517C3.45195 13.9285 2.65906 15.576 2.2583 17.3365C1.85754 19.0971 1.85924 20.9254 2.26328 22.6852C2.66732 24.445 3.46327 26.091 4.59184 27.5004C5.7204 28.9099 7.15248 30.0465 8.78136 30.8255C10.4102 31.6046 12.1939 32.006 13.9995 31.9999ZM34.9995 56.9999C34.9995 57.7956 34.6835 58.5586 34.1208 59.1212C33.5582 59.6838 32.7952 59.9999 31.9995 59.9999C31.2039 59.9999 30.4408 59.6838 29.8782 59.1212C29.3156 58.5586 28.9995 57.7956 28.9995 56.9999V46.9999H34.9995V56.9999ZM34.9995 44.9999H28.9995V42.6999C30.9795 43.0999 33.0195 43.0999 34.9995 42.6999V44.9999ZM31.9995 14.9999C34.5707 14.9999 37.0841 15.7623 39.2219 17.1908C41.3598 18.6193 43.026 20.6496 44.01 23.025C44.9939 25.4005 45.2513 28.0143 44.7497 30.5361C44.2481 33.0578 43.01 35.3742 41.1919 37.1923C39.3738 39.0104 37.0574 40.2485 34.5357 40.7501C32.0139 41.2517 29.4001 40.9943 27.0246 40.0103C24.6492 39.0264 22.6189 37.3602 21.1904 35.2223C19.762 33.0845 18.9995 30.5711 18.9995 27.9999C18.9995 24.5521 20.3692 21.2455 22.8071 18.8075C25.2451 16.3695 28.5517 14.9999 31.9995 14.9999Z" fill="black"/>
<path d="M6 49C6 49.5933 6.17595 50.1734 6.50559 50.6667C6.83524 51.1601 7.30377 51.5446 7.85195 51.7716C8.40013 51.9987 9.00333 52.0581 9.58527 51.9424C10.1672 51.8266 10.7018 51.5409 11.1213 51.1213C11.5409 50.7018 11.8266 50.1672 11.9424 49.5853C12.0581 49.0033 11.9987 48.4001 11.7716 47.852C11.5446 47.3038 11.1601 46.8352 10.6667 46.5056C10.1734 46.1759 9.59334 46 9 46C8.20435 46 7.44129 46.3161 6.87868 46.8787C6.31607 47.4413 6 48.2044 6 49ZM10 49C10 49.1978 9.94135 49.3911 9.83147 49.5556C9.72159 49.72 9.56541 49.8482 9.38268 49.9239C9.19996 49.9996 8.99889 50.0194 8.80491 49.9808C8.61093 49.9422 8.43275 49.847 8.29289 49.7071C8.15304 49.5673 8.0578 49.3891 8.01921 49.1951C7.98063 49.0011 8.00043 48.8 8.07612 48.6173C8.15181 48.4346 8.27998 48.2784 8.44443 48.1685C8.60888 48.0586 8.80222 48 9 48C9.26522 48 9.51957 48.1054 9.70711 48.2929C9.89464 48.4804 10 48.7348 10 49Z" fill="black"/>
<path d="M16 62C16.5933 62 17.1734 61.8241 17.6667 61.4944C18.1601 61.1648 18.5446 60.6962 18.7716 60.148C18.9987 59.5999 19.0581 58.9967 18.9424 58.4147C18.8266 57.8328 18.5409 57.2982 18.1213 56.8787C17.7018 56.4591 17.1672 56.1734 16.5853 56.0576C16.0033 55.9419 15.4001 56.0013 14.8519 56.2284C14.3038 56.4554 13.8352 56.8399 13.5056 57.3333C13.1759 57.8266 13 58.4067 13 59C13 59.7957 13.3161 60.5587 13.8787 61.1213C14.4413 61.6839 15.2044 62 16 62ZM16 58C16.1978 58 16.3911 58.0586 16.5556 58.1685C16.72 58.2784 16.8482 58.4346 16.9239 58.6173C16.9996 58.8 17.0194 59.0011 16.9808 59.1951C16.9422 59.3891 16.847 59.5673 16.7071 59.7071C16.5673 59.847 16.3891 59.9422 16.1951 59.9808C16.0011 60.0194 15.8 59.9996 15.6173 59.9239C15.4346 59.8482 15.2784 59.72 15.1685 59.5556C15.0586 59.3911 15 59.1978 15 59C15 58.7348 15.1054 58.4804 15.2929 58.2929C15.4804 58.1054 15.7348 58 16 58Z" fill="black"/>
<path d="M15 52H17V54H15V52Z" fill="black"/>
<path d="M15 35H13V38.32L8 40.32V44H10V41.68L15 39.68V35Z" fill="black"/>
<path d="M15 44H17V50H15V44Z" fill="black"/>
<path d="M55 52C55.5933 52 56.1734 51.8241 56.6667 51.4944C57.1601 51.1648 57.5446 50.6962 57.7716 50.148C57.9987 49.5999 58.0581 48.9967 57.9424 48.4147C57.8266 47.8328 57.5409 47.2982 57.1213 46.8787C56.7018 46.4591 56.1672 46.1734 55.5853 46.0576C55.0033 45.9419 54.4001 46.0013 53.852 46.2284C53.3038 46.4554 52.8352 46.8399 52.5056 47.3333C52.1759 47.8266 52 48.4067 52 49C52 49.7957 52.3161 50.5587 52.8787 51.1213C53.4413 51.6839 54.2044 52 55 52ZM55 48C55.1978 48 55.3911 48.0586 55.5556 48.1685C55.72 48.2784 55.8482 48.4346 55.9239 48.6173C55.9996 48.8 56.0194 49.0011 55.9808 49.1951C55.9422 49.3891 55.847 49.5673 55.7071 49.7071C55.5673 49.847 55.3891 49.9422 55.1951 49.9808C55.0011 50.0194 54.8 49.9996 54.6173 49.9239C54.4346 49.8482 54.2784 49.72 54.1685 49.5556C54.0586 49.3911 54 49.1978 54 49C54 48.7348 54.1054 48.4804 54.2929 48.2929C54.4804 48.1054 54.7348 48 55 48Z" fill="black"/>
<path d="M45 59C45 59.5933 45.1759 60.1734 45.5056 60.6667C45.8352 61.1601 46.3038 61.5446 46.852 61.7716C47.4001 61.9987 48.0033 62.0581 48.5853 61.9424C49.1672 61.8266 49.7018 61.5409 50.1213 61.1213C50.5409 60.7018 50.8266 60.1672 50.9424 59.5853C51.0581 59.0033 50.9987 58.4001 50.7716 57.852C50.5446 57.3038 50.1601 56.8352 49.6667 56.5056C49.1734 56.1759 48.5933 56 48 56C47.2044 56 46.4413 56.3161 45.8787 56.8787C45.3161 57.4413 45 58.2044 45 59ZM48 58C48.1978 58 48.3911 58.0586 48.5556 58.1685C48.72 58.2784 48.8482 58.4346 48.9239 58.6173C48.9996 58.8 49.0194 59.0011 48.9808 59.1951C48.9422 59.3891 48.847 59.5673 48.7071 59.7071C48.5673 59.847 48.3891 59.9422 48.1951 59.9808C48.0011 60.0194 47.8 59.9996 47.6173 59.9239C47.4346 59.8482 47.2784 59.72 47.1685 59.5556C47.0586 59.3911 47 59.1978 47 59C47 58.7348 47.1054 58.4804 47.2929 58.2929C47.4804 58.1054 47.7348 58 48 58Z" fill="black"/>
<path d="M47 52H49V54H47V52Z" fill="black"/>
<path d="M54 44H56V40.32L51 38.32V35H49V39.68L54 41.68V44Z" fill="black"/>
<path d="M47 44H49V50H47V44Z" fill="black"/>
<path d="M32 39C34.1756 39 36.3023 38.3549 38.1113 37.1462C39.9202 35.9375 41.3301 34.2195 42.1627 32.2095C42.9952 30.1995 43.2131 27.9878 42.7886 25.854C42.3642 23.7202 41.3166 21.7602 39.7782 20.2218C38.2398 18.6835 36.2798 17.6358 34.146 17.2114C32.0122 16.7869 29.8005 17.0048 27.7905 17.8373C25.7805 18.6699 24.0625 20.0798 22.8538 21.8887C21.6451 23.6977 21 25.8244 21 28C21 30.9174 22.1589 33.7153 24.2218 35.7782C26.2847 37.8411 29.0826 39 32 39ZM32 19C33.78 19 35.5201 19.5278 37.0001 20.5168C38.4802 21.5057 39.6337 22.9113 40.3149 24.5559C40.9961 26.2004 41.1743 28.01 40.8271 29.7558C40.4798 31.5016 39.6226 33.1053 38.364 34.364C37.1053 35.6226 35.5016 36.4798 33.7558 36.8271C32.01 37.1743 30.2004 36.9961 28.5558 36.3149C26.9113 35.6337 25.5057 34.4802 24.5168 33.0001C23.5278 31.5201 23 29.78 23 28C23 25.6131 23.9482 23.3239 25.636 21.636C27.3239 19.9482 29.6131 19 32 19Z" fill="black"/>
<path d="M27 30H29V32H27V30Z" fill="black"/>
<path d="M31 30H33V32H31V30Z" fill="black"/>
<path d="M35 30H37V32H35V30Z" fill="black"/>
<path d="M9 18H11V20H9V18Z" fill="black"/>
<path d="M13 18H15V20H13V18Z" fill="black"/>
<path d="M49 18H51V20H49V18Z" fill="black"/>
<path d="M53 18H55V20H53V18Z" fill="black"/>
</svg>
