<svg width="64" height="64" viewBox="0 0 64 64" fill="none" xmlns="http://www.w3.org/2000/svg">
<path d="M27.3219 21.7097C25.8333 21.7097 24.4056 21.1183 23.353 20.0657C22.3003 19.0131 21.709 17.5854 21.709 16.0968V12.3548C21.709 10.8662 22.3003 9.43855 23.353 8.38592C24.4056 7.3333 25.8333 6.74194 27.3219 6.74194C28.8105 6.74194 30.2382 7.3333 31.2908 8.38592C32.3434 9.43855 32.9348 10.8662 32.9348 12.3548V16.0968C32.9348 17.5854 32.3434 19.0131 31.2908 20.0657C30.2382 21.1183 28.8105 21.7097 27.3219 21.7097ZM27.3219 8.61291C26.3295 8.61291 25.3777 9.00715 24.6759 9.7089C23.9742 10.4106 23.58 11.3624 23.58 12.3548V16.0968C23.58 17.0892 23.9742 18.041 24.6759 18.7427C25.3777 19.4445 26.3295 19.8387 27.3219 19.8387C28.3143 19.8387 29.2661 19.4445 29.9678 18.7427C30.6696 18.041 31.0638 17.0892 31.0638 16.0968V12.3548C31.0638 11.3624 30.6696 10.4106 29.9678 9.7089C29.2661 9.00715 28.3143 8.61291 27.3219 8.61291Z" fill="black"/>
<path d="M27.5879 17.6965L28.9107 16.3738L33.5867 21.0498L32.2639 22.3725L27.5879 17.6965Z" fill="black"/>
<path d="M55.388 27.3225H53.5171V17.0322C53.5171 16.2878 53.2214 15.574 52.6951 15.0477C52.1688 14.5214 51.4549 14.2257 50.7106 14.2257C49.9663 14.2257 49.2525 14.5214 48.7262 15.0477C48.1999 15.574 47.9042 16.2878 47.9042 17.0322V27.3225H46.0332V17.0322C46.0332 15.7916 46.526 14.6019 47.4032 13.7247C48.2804 12.8475 49.4701 12.3547 50.7106 12.3547C51.9512 12.3547 53.1409 12.8475 54.0181 13.7247C54.8952 14.6019 55.388 15.7916 55.388 17.0322V27.3225Z" fill="black"/>
<path d="M46.9668 20.7742H54.4507V22.6451H46.9668V20.7742Z" fill="black"/>
<path d="M46.9683 34.8063C46.8456 34.8095 46.7238 34.7839 46.6128 34.7315C46.442 34.6613 46.2957 34.5421 46.1925 34.389C46.0893 34.2358 46.0337 34.0555 46.0328 33.8709V31.0644H43.2264C42.4821 31.0644 41.7682 30.7687 41.2419 30.2424C40.7156 29.7161 40.4199 29.0023 40.4199 28.258V11.4192C40.4199 10.6749 40.7156 9.9611 41.2419 9.43478C41.7682 8.90847 42.4821 8.61279 43.2264 8.61279H58.1941C58.9384 8.61279 59.6523 8.90847 60.1786 9.43478C60.7049 9.9611 61.0006 10.6749 61.0006 11.4192V28.258C61.0006 29.0023 60.7049 29.7161 60.1786 30.2424C59.6523 30.7687 58.9384 31.0644 58.1941 31.0644H51.0938L47.6325 34.535C47.5451 34.6218 47.4414 34.6903 47.3274 34.7369C47.2135 34.7835 47.0914 34.8071 46.9683 34.8063ZM43.2264 10.4838C42.9783 10.4838 42.7403 10.5823 42.5649 10.7578C42.3894 10.9332 42.2909 11.1711 42.2909 11.4192V28.258C42.2909 28.5061 42.3894 28.744 42.5649 28.9194C42.7403 29.0949 42.9783 29.1934 43.2264 29.1934H46.9683C47.2164 29.1934 47.4544 29.292 47.6298 29.4674C47.8052 29.6429 47.9038 29.8808 47.9038 30.1289V31.6163L50.0461 29.4647C50.1335 29.378 50.2371 29.3094 50.3511 29.2629C50.4651 29.2163 50.5871 29.1927 50.7102 29.1934H58.1941C58.4422 29.1934 58.6802 29.0949 58.8556 28.9194C59.031 28.744 59.1296 28.5061 59.1296 28.258V11.4192C59.1296 11.1711 59.031 10.9332 58.8556 10.7578C58.6802 10.5823 58.4422 10.4838 58.1941 10.4838H43.2264Z" fill="black"/>
<path d="M56.3226 61.0001H7.67742C7.06317 61.0001 6.45494 60.8791 5.88745 60.6441C5.31996 60.409 4.80432 60.0645 4.36998 59.6301C3.4928 58.7529 3 57.5632 3 56.3227V52.5807C3 52.3326 3.09856 52.0947 3.274 51.9193C3.44943 51.7438 3.68738 51.6453 3.93548 51.6453H60.0645C60.3126 51.6453 60.5506 51.7438 60.726 51.9193C60.9014 52.0947 61 52.3326 61 52.5807V56.3227C61 57.5632 60.5072 58.7529 59.63 59.6301C58.7528 60.5073 57.5631 61.0001 56.3226 61.0001ZM4.87097 53.5162V56.3227C4.87097 57.067 5.16665 57.7808 5.69296 58.3071C6.21927 58.8335 6.9331 59.1291 7.67742 59.1291H56.3226C57.0669 59.1291 57.7807 58.8335 58.307 58.3071C58.8334 57.7808 59.129 57.067 59.129 56.3227V53.5162H4.87097Z" fill="black"/>
<path d="M45.0977 57.258H18.9041C18.1598 57.258 17.446 56.9623 16.9196 56.436C16.3933 55.9097 16.0977 55.1959 16.0977 54.4515V52.5806H17.9686V54.4515C17.9686 54.6996 18.0672 54.9376 18.2426 55.113C18.4181 55.2885 18.656 55.387 18.9041 55.387H45.0977C45.3458 55.387 45.5837 55.2885 45.7591 55.113C45.9346 54.9376 46.0331 54.6996 46.0331 54.4515V52.5806H47.9041V54.4515C47.9041 55.1959 47.6084 55.9097 47.0821 56.436C46.5558 56.9623 45.842 57.258 45.0977 57.258Z" fill="black"/>
<path d="M57.2578 30.1292H59.1288V52.5808H57.2578V30.1292Z" fill="black"/>
<path d="M6.74206 52.5806H4.87109V22.6451C4.87109 21.9008 5.16677 21.1869 5.69308 20.6606C6.2194 20.1343 6.93323 19.8386 7.67755 19.8386H17.0324V21.7096H7.67755C7.42944 21.7096 7.1915 21.8081 7.01606 21.9836C6.84062 22.159 6.74206 22.397 6.74206 22.6451V52.5806Z" fill="black"/>
<path d="M31.0654 29.1935C30.9423 29.1943 30.8202 29.1707 30.7063 29.1241C30.5923 29.0776 30.4886 29.009 30.4012 28.9223L26.9399 25.4516H18.9041C18.1598 25.4516 17.446 25.1559 16.9196 24.6296C16.3933 24.1033 16.0977 23.3895 16.0977 22.6452V5.80645C16.0977 5.06213 16.3933 4.3483 16.9196 3.82199C17.446 3.29568 18.1598 3 18.9041 3H35.7428C36.4871 3 37.201 3.29568 37.7273 3.82199C38.2536 4.3483 38.5493 5.06213 38.5493 5.80645V22.6452C38.5493 23.3895 38.2536 24.1033 37.7273 24.6296C37.201 25.1559 36.4871 25.4516 35.7428 25.4516H32.0009V28.2581C32 28.4428 31.9444 28.623 31.8412 28.7762C31.738 28.9293 31.5917 29.0485 31.4209 29.1187C31.3099 29.1711 31.1881 29.1967 31.0654 29.1935ZM18.9041 4.87097C18.656 4.87097 18.4181 4.96953 18.2426 5.14496C18.0672 5.3204 17.9686 5.55835 17.9686 5.80645V22.6452C17.9686 22.8933 18.0672 23.1312 18.2426 23.3066C18.4181 23.4821 18.656 23.5806 18.9041 23.5806H27.3235C27.4466 23.5799 27.5686 23.6035 27.6826 23.6501C27.7966 23.6966 27.9002 23.7652 27.9877 23.8519L30.1299 26.0035V24.5161C30.1299 24.268 30.2285 24.0301 30.4039 23.8546C30.5793 23.6792 30.8173 23.5806 31.0654 23.5806H35.7428C35.9909 23.5806 36.2289 23.4821 36.4043 23.3066C36.5797 23.1312 36.6783 22.8933 36.6783 22.6452V5.80645C36.6783 5.55835 36.5797 5.3204 36.4043 5.14496C36.2289 4.96953 35.9909 4.87097 35.7428 4.87097H18.9041Z" fill="black"/>
<path d="M54.452 49.7741H9.54877C9.30066 49.7741 9.06272 49.6756 8.88728 49.5001C8.71184 49.3247 8.61328 49.0867 8.61328 48.8386V24.5161C8.61328 24.2679 8.71184 24.03 8.88728 23.8546C9.06272 23.6791 9.30066 23.5806 9.54877 23.5806H14.2262V25.4515H10.4842V47.9031H53.5165V30.129H55.3875V48.8386C55.3875 49.0867 55.2889 49.3247 55.1135 49.5001C54.938 49.6756 54.7001 49.7741 54.452 49.7741Z" fill="black"/>
<path d="M37.6133 19.8386H41.3552V21.7096H37.6133V19.8386Z" fill="black"/>
<path d="M37.6135 44.1612H13.291C13.0428 44.1612 12.8049 44.0627 12.6295 43.8872C12.454 43.7118 12.3555 43.4738 12.3555 43.2257V31.9999C12.3555 31.7518 12.454 31.5139 12.6295 31.3384C12.8049 31.163 13.0428 31.0645 13.291 31.0645H37.6135C37.8616 31.0645 38.0996 31.163 38.275 31.3384C38.4505 31.5139 38.549 31.7518 38.549 31.9999V43.2257C38.549 43.4738 38.4505 43.7118 38.275 43.8872C38.0996 44.0627 37.8616 44.1612 37.6135 44.1612ZM14.2264 42.2903H36.678V32.9354H14.2264V42.2903Z" fill="black"/>
<path d="M16.0977 34.8064H34.8073V36.6774H16.0977V34.8064Z" fill="black"/>
<path d="M17.9668 38.5483H32.9345V40.4193H17.9668V38.5483Z" fill="black"/>
</svg>
