<svg width="80" height="80" viewBox="0 0 80 80" fill="none" xmlns="http://www.w3.org/2000/svg">
<g clip-path="url(#clip0_20318_16581)">
<path d="M6.66732 7.99992C7.4037 7.99992 8.00065 7.40297 8.00065 6.66659C8.00065 5.93021 7.4037 5.33325 6.66732 5.33325C5.93094 5.33325 5.33398 5.93021 5.33398 6.66659C5.33398 7.40297 5.93094 7.99992 6.66732 7.99992Z" fill="black"/>
<path d="M11.9993 7.99992C12.7357 7.99992 13.3327 7.40297 13.3327 6.66659C13.3327 5.93021 12.7357 5.33325 11.9993 5.33325C11.263 5.33325 10.666 5.93021 10.666 6.66659C10.666 7.40297 11.263 7.99992 11.9993 7.99992Z" fill="black"/>
<path d="M17.3333 7.99992C18.0697 7.99992 18.6667 7.40297 18.6667 6.66659C18.6667 5.93021 18.0697 5.33325 17.3333 5.33325C16.597 5.33325 16 5.93021 16 6.66659C16 7.40297 16.597 7.99992 17.3333 7.99992Z" fill="black"/>
<path d="M31.9993 7.99992H39.9993C40.7357 7.99992 41.3327 7.40297 41.3327 6.66659C41.3327 5.93021 40.7357 5.33325 39.9993 5.33325H31.9993C31.263 5.33325 30.666 5.93021 30.666 6.66659C30.666 7.40297 31.263 7.99992 31.9993 7.99992Z" fill="black"/>
<path d="M6.66732 19.9999H9.33398C10.0704 19.9999 10.6673 19.403 10.6673 18.6666C10.6673 17.9302 10.0704 17.3333 9.33398 17.3333H6.66732C5.93094 17.3333 5.33398 17.9302 5.33398 18.6666C5.33398 19.403 5.93094 19.9999 6.66732 19.9999Z" fill="black"/>
<path d="M14.6673 19.9999H26.6673C27.4037 19.9999 28.0007 19.403 28.0007 18.6666C28.0007 17.9302 27.4037 17.3333 26.6673 17.3333H14.6673C13.9309 17.3333 13.334 17.9302 13.334 18.6666C13.334 19.403 13.9309 19.9999 14.6673 19.9999Z" fill="black"/>
<path d="M31.9993 19.9999H43.9994C44.7357 19.9999 45.3327 19.403 45.3327 18.6666C45.3327 17.9302 44.7357 17.3333 43.9994 17.3333H31.9993C31.263 17.3333 30.666 17.9302 30.666 18.6666C30.666 19.403 31.263 19.9999 31.9993 19.9999Z" fill="black"/>
<path d="M22.6673 22.6667C21.9309 22.6667 21.334 23.2637 21.334 24.0001C21.334 24.7365 21.9309 25.3334 22.6673 25.3334H25.334C26.0704 25.3334 26.6673 24.7365 26.6673 24.0001C26.6673 23.2637 26.0704 22.6667 25.334 22.6667H22.6673Z" fill="black"/>
<path d="M30.6673 25.3334H42.6673C43.4037 25.3334 44.0007 24.7365 44.0007 24.0001C44.0007 23.2637 43.4037 22.6667 42.6673 22.6667H30.6673C29.9309 22.6667 29.334 23.2637 29.334 24.0001C29.334 24.7365 29.9309 25.3334 30.6673 25.3334Z" fill="black"/>
<path d="M6.66732 25.3334H17.334C18.0704 25.3334 18.6673 24.7365 18.6673 24.0001C18.6673 23.2637 18.0704 22.6667 17.334 22.6667H6.66732C5.93094 22.6667 5.33398 23.2637 5.33398 24.0001C5.33398 24.7365 5.93094 25.3334 6.66732 25.3334Z" fill="black"/>
<path d="M29.334 32H8.00065C6.52789 32 5.33398 33.1939 5.33398 34.6667V38.6667C5.33398 40.1394 6.52789 41.3333 8.00065 41.3333H29.334C30.8067 41.3333 32.0006 40.1394 32.0006 38.6667V34.6667C32.0006 33.1939 30.8067 32 29.334 32ZM8.00065 38.6667V34.6667H29.334V38.6667H8.00065Z" fill="black"/>
<path d="M77.3333 34.6667H73.3333V32C73.3263 30.311 72.2591 28.8083 70.6667 28.2453V4C70.6667 1.79086 68.8758 0 66.6667 0H4C1.79086 0 0 1.79086 0 4V57.3333C0 59.5425 1.79086 61.3333 4 61.3333H45.1613C47.3401 63.5616 50.2326 64.9533 53.3333 65.2653V72C50.3878 72 48 74.3878 48 77.3333V78.6667C48 79.403 48.597 80 49.3333 80H65.3333C66.0697 80 66.6667 79.403 66.6667 78.6667V77.3333C66.6667 74.3878 64.2789 72 61.3333 72V65.2653C67.6782 64.6173 72.679 59.5729 73.272 53.2227C77.146 52.5988 79.9956 49.2572 80 45.3333V37.3333C80 35.8606 78.8061 34.6667 77.3333 34.6667ZM4 2.66667H66.6667C67.403 2.66667 68 3.26362 68 4V10.6667H2.66667V4C2.66667 3.26362 3.26362 2.66667 4 2.66667ZM4 58.6667C3.26362 58.6667 2.66667 58.0697 2.66667 57.3333V13.3333H68V28H45.3333C43.1242 28 41.3333 29.7909 41.3333 32V34.6667H37.3333C35.8606 34.6667 34.6667 35.8606 34.6667 37.3333V45.3333C34.671 49.2572 37.5207 52.5988 41.3947 53.2227C41.5721 55.1426 42.1669 57.0006 43.1373 58.6667H4ZM41.3333 50.4987C38.9803 49.8872 37.3365 47.7645 37.3333 45.3333V37.3333H41.3333V50.4987ZM64 77.3333H50.6667C50.6667 75.8606 51.8606 74.6667 53.3333 74.6667H61.3333C62.8061 74.6667 64 75.8606 64 77.3333ZM56 72V65.3333H58.6667V72H56ZM60 62.6667H54.6667C48.7784 62.6601 44.0066 57.8883 44 52V32C44 31.2636 44.597 30.6667 45.3333 30.6667H69.3333C70.0697 30.6667 70.6667 31.2636 70.6667 32V52C70.6601 57.8883 65.8883 62.6601 60 62.6667ZM77.3333 45.3333C77.3302 47.7645 75.6864 49.8872 73.3333 50.4987V37.3333H77.3333V45.3333Z" fill="black"/>
<path d="M66.2336 40.7667L61.3456 40.0747L59.1762 35.7893C58.8203 35.1004 58.1097 34.6677 57.3342 34.6677C56.5588 34.6677 55.8482 35.1004 55.4922 35.7893L53.3229 40.0747L48.4336 40.7667C47.6527 40.8709 47.0021 41.4161 46.7629 42.1667C46.5253 42.9024 46.7329 43.7092 47.2962 44.2387L50.8176 47.584L49.9896 52.288C49.8574 53.0442 50.1679 53.8097 50.7896 54.26C51.1453 54.5248 51.5768 54.6678 52.0202 54.668C52.3513 54.667 52.6775 54.588 52.9722 54.4374L57.3336 52.2014L61.6962 54.4374C62.398 54.7999 63.2449 54.7311 63.8789 54.26C64.5022 53.8109 64.8131 53.0444 64.6789 52.288L63.8522 47.584L67.3736 44.2387C67.9369 43.7092 68.1446 42.9024 67.9069 42.1667C67.6673 41.4153 67.0154 40.8699 66.2336 40.7667ZM61.7589 45.8894C61.2676 46.3533 61.0421 47.0331 61.1589 47.6987L61.8256 51.508L58.2789 49.692C57.6825 49.3881 56.9766 49.3881 56.3802 49.692L52.8336 51.508L53.5002 47.6973C53.6157 47.032 53.3899 46.353 52.8989 45.8894L50.0989 43.2227L54.0002 42.6667C54.6667 42.5757 55.2464 42.1644 55.5522 41.5654L57.3336 38.056L59.1149 41.572C59.4221 42.1688 60.0017 42.5776 60.6669 42.6667L64.5709 43.2187L61.7589 45.8894Z" fill="black"/>
</g>
<defs>
<clipPath id="clip0_20318_16581">
<rect width="80" height="80" fill="white"/>
</clipPath>
</defs>
</svg>
