<svg width="80" height="80" viewBox="0 0 80 80" fill="none" xmlns="http://www.w3.org/2000/svg">
<path d="M69.6305 11.5556H38.1899C36.8352 11.5556 35.6169 10.8018 35.0101 9.59053L34.0749 7.72031C33.0628 5.69957 31.0338 4.44446 28.7748 4.44446H10.3712C7.10368 4.44446 4.44531 7.10283 4.44531 10.3704V62.5185C4.44531 65.7861 7.10368 68.4445 10.3712 68.4445H24.6669C28.3659 72.7882 33.8628 75.5556 40.0009 75.5556C46.1389 75.5556 51.637 72.7882 55.3348 68.4445H69.6305C72.8981 68.4445 75.5564 65.7861 75.5564 62.5185V17.4815C75.5564 14.2139 72.8981 11.5556 69.6305 11.5556ZM10.3712 6.81483H28.7748C30.1295 6.81483 31.3478 7.56861 31.9546 8.77987L32.8898 10.6501C33.9019 12.6708 35.9309 13.9259 38.1899 13.9259H69.6305C71.5908 13.9259 73.1861 15.5212 73.1861 17.4815V22.253C72.1929 21.5005 70.9698 21.0371 69.6305 21.0371V19.8519C69.6305 17.8916 68.0352 16.2963 66.0749 16.2963H13.9268C11.9665 16.2963 10.3712 17.8916 10.3712 19.8519V28.1482C9.03198 28.1482 7.80887 28.6116 6.81568 29.3642V10.3704C6.81568 8.41009 8.41094 6.81483 10.3712 6.81483ZM67.2601 21.0371H51.2246C49.0059 21.0371 46.9247 22.3206 45.9185 24.3176L45 26.1808C44.3967 27.3766 43.1475 28.1482 41.8142 28.1482H12.7416V19.8519C12.7416 19.1976 13.2726 18.6667 13.9268 18.6667H66.0749C66.7292 18.6667 67.2601 19.1976 67.2601 19.8519V21.0371ZM41.1861 37.6901C50.0429 38.2779 57.1304 45.3653 57.7182 54.2222H41.1861V37.6901ZM38.8157 54.9168L26.6379 67.0945C23.8978 63.9656 22.2231 59.8827 22.2231 55.4074C22.2231 46.0042 29.5653 38.304 38.8157 37.6901V54.9168ZM40.0009 73.1852C35.5256 73.1852 31.4426 71.5105 28.3138 68.7704L40.4915 56.5926H57.7182C57.1043 65.843 49.4041 73.1852 40.0009 73.1852ZM73.1861 62.5185C73.1861 64.4788 71.5908 66.0741 69.6305 66.0741H57.0628C59.0065 62.976 60.149 59.3268 60.149 55.4074C60.149 44.2975 51.1108 35.2593 40.0009 35.2593C28.8909 35.2593 19.8527 44.2975 19.8527 55.4074C19.8527 59.3268 20.9952 62.976 22.9389 66.0741H10.3712C8.41094 66.0741 6.81568 64.4788 6.81568 62.5185V34.0741C6.81568 32.1138 8.41094 30.5185 10.3712 30.5185H41.8142C44.0329 30.5185 46.1141 29.235 47.1203 27.2379L48.0388 25.3748C48.6421 24.179 49.8912 23.4074 51.2246 23.4074H69.6305C71.5908 23.4074 73.1861 25.0027 73.1861 26.963V62.5185Z" fill="black"/>
</svg>
