<svg width="56" height="45" viewBox="0 0 56 45" fill="none" xmlns="http://www.w3.org/2000/svg">
<path d="M31.5461 44.6643V31.2338C31.5461 22.8007 33.5243 15.9292 37.4806 10.6195C41.541 5.20563 47.5274 1.6658 55.44 0V10.151C51.9002 10.9839 49.0891 12.5456 47.0069 14.836C44.9246 17.0224 43.5711 19.6773 42.9465 22.8007H52.3166V44.6643H31.5461ZM0 44.6643V31.2338C0 22.8007 1.97814 15.9292 5.93442 10.6195C9.99481 5.20563 15.9292 1.6658 23.7377 0V10.151C20.1979 10.9839 17.3868 12.5456 15.3046 14.836C13.2223 17.0224 11.8688 19.6773 11.2442 22.8007H20.6143V44.6643H0Z" fill="#D2DBFD"/>
</svg>
