<svg t="1767062964526" class="icon" viewBox="0 0 1024 1024" version="1.1" xmlns="http://www.w3.org/2000/svg" p-id="20507" width="200" height="200"><path d="M0 0m128 0l768 0q128 0 128 128l0 768q0 128-128 128l-768 0q-128 0-128-128l0-768q0-128 128-128Z" fill="#5865F2" p-id="20508"></path><path d="M764.224 285.056a1.824 1.824 0 0 0-0.928-0.864 587.872 587.872 0 0 0-145.056-44.96 2.208 2.208 0 0 0-2.336 1.088 409.152 409.152 0 0 0-18.048 37.088 542.784 542.784 0 0 0-162.912 0 375.168 375.168 0 0 0-18.336-37.088 2.304 2.304 0 0 0-2.368-1.088 586.208 586.208 0 0 0-145.056 44.96 2.08 2.08 0 0 0-0.96 0.832 601.024 601.024 0 0 0-105.28 405.408 2.432 2.432 0 0 0 0.928 1.664 591.04 591.04 0 0 0 177.952 89.92 2.304 2.304 0 0 0 2.496-0.832 421.984 421.984 0 0 0 36.416-59.2 2.24 2.24 0 0 0-1.248-3.2 389.248 389.248 0 0 1-55.584-26.496 2.272 2.272 0 0 1-0.224-3.776q5.632-4.192 11.04-8.64a2.208 2.208 0 0 1 2.304-0.32 421.6 421.6 0 0 0 358.144 0 2.208 2.208 0 0 1 2.336 0.288q5.44 4.48 11.072 8.672a2.272 2.272 0 0 1-0.192 3.776 365.312 365.312 0 0 1-55.616 26.464 2.272 2.272 0 0 0-1.216 3.2 473.984 473.984 0 0 0 36.448 59.264 2.272 2.272 0 0 0 2.496 0.864 589.088 589.088 0 0 0 178.24-89.92 2.272 2.272 0 0 0 0.928-1.632 597.056 597.056 0 0 0-105.376-405.472z m-366.08 324.48a72.256 72.256 0 0 1 0-143.584 72.256 72.256 0 0 1 0 143.584z m236.8 0a72.256 72.256 0 0 1 0-143.584 72.256 72.256 0 0 1 0 143.584z" fill="#FFFFFF" p-id="20509"></path></svg>