<svg width="33" height="32" viewBox="0 0 33 32" fill="none" xmlns="http://www.w3.org/2000/svg">
<path d="M10.058 0.987241C11.1565 -0.121348 12.9488 -0.33203 14.2847 0.537451C15.3257 1.21632 15.8429 2.21566 15.8362 3.53549C15.8318 4.22884 15.8346 5.26943 15.8446 6.65726C15.8446 6.67621 15.8357 6.69516 15.8179 6.71411C15.8078 6.72303 15.7939 6.72749 15.7761 6.72749C14.3872 6.72972 13.3462 6.73529 12.6529 6.74421C11.3332 6.76204 10.33 6.25317 9.64339 5.2176C8.76228 3.8883 8.95789 2.09416 10.058 0.987241Z" fill="#36C5F0"/>
<path d="M21.0324 0.027741L20.7348 0.0272215C18.961 0.0241253 17.5205 1.4597 17.5174 3.23367L17.5023 11.9118C17.4992 13.6857 18.9346 15.1263 20.7085 15.1294L21.0061 15.1299C22.7799 15.133 24.2204 13.6975 24.2235 11.9235L24.2386 3.24541C24.2417 1.47143 22.8062 0.0308371 21.0324 0.027741Z" fill="#2EB67D"/>
<path d="M12.5768 8.42544L3.90278 8.44058C2.12804 8.44368 0.691834 9.88503 0.694932 11.6599L0.695445 11.9542C0.698543 13.7291 2.13977 15.1654 3.91451 15.1623L12.5885 15.1472C14.3633 15.1441 15.7995 13.7027 15.7964 11.9279L15.7958 11.6336C15.7928 9.85867 14.3515 8.42235 12.5768 8.42544Z" fill="#36C5F0"/>
<path d="M31.6778 9.38776C32.7863 10.4863 32.9986 12.2788 32.1292 13.6148C31.4504 14.657 30.4512 15.1748 29.1315 15.1681C28.4382 15.1648 27.3971 15.1681 26.0083 15.1782C25.9904 15.1782 25.9721 15.1693 25.9531 15.1514C25.9442 15.1425 25.9397 15.1286 25.9397 15.1096C25.9375 13.7218 25.9308 12.6806 25.9197 11.9862C25.9018 10.6663 26.4107 9.66254 27.4461 8.97476C28.7737 8.09357 30.5693 8.28753 31.6778 9.38776Z" fill="#2EB67D"/>
<path d="M1.65317 22.6122C0.544678 21.5137 0.334014 19.7195 1.20342 18.3835C1.88223 17.3424 2.88149 16.8246 4.2012 16.8302C4.8945 16.8346 5.93556 16.8319 7.32438 16.8218C7.34333 16.8218 7.36172 16.8307 7.37956 16.8486C7.38848 16.8575 7.39293 16.8714 7.39293 16.8904C7.39516 18.2793 7.40129 19.3205 7.41133 20.0138C7.42916 21.3337 6.92033 22.3375 5.88485 23.0252C4.55733 23.9064 2.76334 23.7108 1.65317 22.6122Z" fill="#E01E5A"/>
<path d="M12.5945 16.8684L12.3003 16.8689C10.5255 16.872 9.08932 18.3134 9.09242 20.0883L9.10756 28.763C9.11065 30.5379 10.5519 31.9742 12.3266 31.9711L12.6209 31.9706C14.3956 31.9675 15.8318 30.5262 15.8287 28.7513L15.8136 20.0765C15.8105 18.3016 14.3693 16.8653 12.5945 16.8684Z" fill="#E01E5A"/>
<path d="M29.4257 16.8469H20.745C18.9712 16.8469 17.5332 18.285 17.5332 20.059V20.3499C17.5332 22.1239 18.9712 23.562 20.745 23.562H29.4257C31.1996 23.562 32.6375 22.1239 32.6375 20.3499V20.059C32.6375 18.285 31.1996 16.8469 29.4257 16.8469Z" fill="#ECB22E"/>
<path d="M23.2763 31.0128C22.1779 32.1213 20.3856 32.332 19.0497 31.4626C18.0075 30.7837 17.4898 29.7843 17.4964 28.4645C17.4998 27.7712 17.4964 26.7306 17.4864 25.3427C17.4864 25.3238 17.4959 25.3048 17.5148 25.2859C17.5238 25.277 17.5377 25.2725 17.5566 25.2725C18.9443 25.2703 19.9848 25.2642 20.6781 25.2541C21.9979 25.2363 23.0016 25.7452 23.6893 26.7807C24.5704 28.1084 24.3748 29.9042 23.2763 31.0128Z" fill="#ECB22E"/>
</svg>
