<svg width="708" height="320" viewBox="0 0 708 320" fill="none" xmlns="http://www.w3.org/2000/svg">
<rect x="0.5" y="143.5" width="338" height="176" rx="12" fill="white" fill-opacity="0.3"/>
<rect x="1" y="144" width="337" height="175" rx="11.5" stroke="black" stroke-opacity="0.2"/>
<path d="M26.464 189.668C25.7267 189.668 25.0453 189.537 24.42 189.276C23.804 189.005 23.2627 188.627 22.796 188.142C22.3387 187.657 21.984 187.087 21.732 186.434C21.48 185.781 21.354 185.067 21.354 184.292C21.354 183.508 21.48 182.789 21.732 182.136C21.984 181.483 22.3387 180.913 22.796 180.428C23.2533 179.943 23.7947 179.569 24.42 179.308C25.0453 179.037 25.7267 178.902 26.464 178.902C27.1827 178.902 27.8267 179.028 28.396 179.28C28.9747 179.532 29.46 179.859 29.852 180.26C30.2533 180.661 30.538 181.091 30.706 181.548L29.446 182.122C29.2033 181.543 28.8253 181.077 28.312 180.722C27.7987 180.358 27.1827 180.176 26.464 180.176C25.736 180.176 25.0873 180.349 24.518 180.694C23.958 181.039 23.5193 181.52 23.202 182.136C22.8847 182.752 22.726 183.471 22.726 184.292C22.726 185.104 22.8847 185.818 23.202 186.434C23.5193 187.05 23.958 187.531 24.518 187.876C25.0873 188.221 25.736 188.394 26.464 188.394C27.1827 188.394 27.7987 188.217 28.312 187.862C28.8253 187.498 29.2033 187.027 29.446 186.448L30.706 187.022C30.538 187.479 30.2533 187.909 29.852 188.31C29.46 188.711 28.9747 189.038 28.396 189.29C27.8267 189.542 27.1827 189.668 26.464 189.668ZM32.5722 189.5V179.07H36.2542C36.9448 179.07 37.5515 179.201 38.0742 179.462C38.5968 179.723 39.0028 180.097 39.2922 180.582C39.5908 181.067 39.7402 181.637 39.7402 182.29C39.7402 183.027 39.5535 183.653 39.1802 184.166C38.8068 184.679 38.3028 185.048 37.6682 185.272L40.0902 189.5H38.4942L35.9462 184.978L36.8562 185.51H33.9442V189.5H32.5722ZM33.9442 184.25H36.2962C36.7068 184.25 37.0662 184.171 37.3742 184.012C37.6822 183.853 37.9202 183.625 38.0882 183.326C38.2655 183.027 38.3542 182.682 38.3542 182.29C38.3542 181.889 38.2655 181.543 38.0882 181.254C37.9202 180.955 37.6822 180.727 37.3742 180.568C37.0662 180.409 36.7068 180.33 36.2962 180.33H33.9442V184.25ZM41.6503 189.5V179.07H48.4403V180.33H43.0223V183.634H48.1603V184.894H43.0223V188.24H48.4403V189.5H41.6503ZM49.1325 189.5L52.8705 179.07H54.4945L58.2325 189.5H56.7625L55.9085 187.05H51.4565L50.6025 189.5H49.1325ZM51.8905 185.79H55.4745L53.4865 180.064H53.8785L51.8905 185.79ZM60.6695 189.5V180.33H57.8415V179.07H64.8415V180.33H62.0555V189.5H60.6695ZM66.164 189.5V179.07H72.954V180.33H67.536V183.634H72.674V184.894H67.536V188.24H72.954V189.5H66.164ZM78.8941 189.5V180.33H76.0661V179.07H83.0661V180.33H80.2801V189.5H78.8941ZM82.6833 189.5L86.4213 179.07H88.0453L91.7833 189.5H90.3133L89.4593 187.05H85.0073L84.1533 189.5H82.6833ZM85.4413 185.79H89.0253L87.0373 180.064H87.4293L85.4413 185.79ZM93.0975 189.5V179.07H97.4795C98.1049 179.07 98.6415 179.182 99.0895 179.406C99.5469 179.63 99.8969 179.947 100.14 180.358C100.392 180.759 100.518 181.24 100.518 181.8C100.518 182.313 100.382 182.78 100.112 183.2C99.8502 183.611 99.4629 183.933 98.9495 184.166L98.9355 183.648C99.3835 183.816 99.7522 184.04 100.042 184.32C100.34 184.591 100.564 184.908 100.714 185.272C100.863 185.627 100.938 186.005 100.938 186.406C100.938 187.367 100.63 188.123 100.014 188.674C99.3975 189.225 98.5575 189.5 97.4935 189.5H93.0975ZM94.4695 188.24H97.5495C98.1562 188.24 98.6415 188.077 99.0055 187.75C99.3695 187.423 99.5515 186.98 99.5515 186.42C99.5515 185.86 99.3695 185.417 99.0055 185.09C98.6415 184.754 98.1562 184.586 97.5495 184.586H94.4695V188.24ZM94.4695 183.354H97.4515C97.9555 183.354 98.3615 183.209 98.6695 182.92C98.9775 182.621 99.1315 182.243 99.1315 181.786C99.1315 181.31 98.9775 180.946 98.6695 180.694C98.3615 180.442 97.9555 180.316 97.4515 180.316H94.4695V183.354ZM102.791 189.5V179.07H104.163V188.24H108.741V189.5H102.791ZM110.283 189.5V179.07H117.073V180.33H111.655V183.634H116.793V184.894H111.655V188.24H117.073V189.5H110.283Z" fill="#48AF6A"/>
<path d="M123.013 189.5V180.33H120.185V179.07H127.185V180.33H124.399V189.5H123.013ZM129.732 189.668C129.237 189.668 128.798 189.579 128.416 189.402C128.042 189.215 127.748 188.963 127.534 188.646C127.319 188.319 127.212 187.946 127.212 187.526C127.212 187.125 127.296 186.765 127.464 186.448C127.641 186.121 127.912 185.846 128.276 185.622C128.649 185.398 129.116 185.239 129.676 185.146L132.476 184.684V185.776L129.97 186.196C129.484 186.28 129.13 186.434 128.906 186.658C128.691 186.882 128.584 187.157 128.584 187.484C128.584 187.792 128.705 188.049 128.948 188.254C129.2 188.459 129.512 188.562 129.886 188.562C130.362 188.562 130.772 188.464 131.118 188.268C131.472 188.063 131.748 187.787 131.944 187.442C132.149 187.097 132.252 186.714 132.252 186.294V184.376C132.252 183.965 132.098 183.634 131.79 183.382C131.491 183.121 131.094 182.99 130.6 182.99C130.17 182.99 129.788 183.102 129.452 183.326C129.125 183.541 128.882 183.83 128.724 184.194L127.59 183.606C127.73 183.261 127.954 182.953 128.262 182.682C128.57 182.402 128.929 182.183 129.34 182.024C129.75 181.865 130.18 181.786 130.628 181.786C131.206 181.786 131.715 181.898 132.154 182.122C132.592 182.337 132.933 182.64 133.176 183.032C133.428 183.415 133.554 183.863 133.554 184.376V189.5H132.28V188.072L132.518 188.156C132.359 188.455 132.144 188.716 131.874 188.94C131.603 189.164 131.286 189.341 130.922 189.472C130.558 189.603 130.161 189.668 129.732 189.668ZM139.478 189.668C138.872 189.668 138.316 189.533 137.812 189.262C137.318 188.991 136.935 188.609 136.664 188.114L136.846 187.89V189.5H135.572V178.902H136.874V183.578L136.678 183.256C136.958 182.808 137.341 182.453 137.826 182.192C138.312 181.921 138.867 181.786 139.492 181.786C140.202 181.786 140.836 181.959 141.396 182.304C141.966 182.649 142.414 183.121 142.74 183.718C143.067 184.306 143.23 184.978 143.23 185.734C143.23 186.471 143.067 187.139 142.74 187.736C142.414 188.333 141.966 188.805 141.396 189.15C140.836 189.495 140.197 189.668 139.478 189.668ZM139.38 188.408C139.856 188.408 140.281 188.291 140.654 188.058C141.028 187.825 141.317 187.507 141.522 187.106C141.737 186.695 141.844 186.238 141.844 185.734C141.844 185.211 141.737 184.754 141.522 184.362C141.317 183.961 141.028 183.643 140.654 183.41C140.281 183.167 139.856 183.046 139.38 183.046C138.904 183.046 138.475 183.163 138.092 183.396C137.719 183.629 137.42 183.951 137.196 184.362C136.982 184.763 136.874 185.221 136.874 185.734C136.874 186.238 136.982 186.695 137.196 187.106C137.42 187.507 137.719 187.825 138.092 188.058C138.475 188.291 138.904 188.408 139.38 188.408ZM144.938 189.5V178.902H146.24V189.5H144.938ZM151.732 189.668C151.004 189.668 150.355 189.495 149.786 189.15C149.217 188.805 148.769 188.333 148.442 187.736C148.115 187.129 147.952 186.453 147.952 185.706C147.952 184.95 148.111 184.278 148.428 183.69C148.755 183.102 149.193 182.64 149.744 182.304C150.304 181.959 150.929 181.786 151.62 181.786C152.18 181.786 152.675 181.889 153.104 182.094C153.543 182.29 153.911 182.561 154.21 182.906C154.518 183.242 154.751 183.629 154.91 184.068C155.078 184.497 155.162 184.945 155.162 185.412C155.162 185.515 155.153 185.631 155.134 185.762C155.125 185.883 155.111 186 155.092 186.112H148.904V184.992H154.336L153.72 185.496C153.804 185.011 153.757 184.577 153.58 184.194C153.403 183.811 153.141 183.508 152.796 183.284C152.451 183.06 152.059 182.948 151.62 182.948C151.181 182.948 150.78 183.06 150.416 183.284C150.052 183.508 149.767 183.83 149.562 184.25C149.366 184.661 149.287 185.151 149.324 185.72C149.287 186.271 149.371 186.756 149.576 187.176C149.791 187.587 150.089 187.909 150.472 188.142C150.864 188.366 151.289 188.478 151.746 188.478C152.25 188.478 152.675 188.361 153.02 188.128C153.365 187.895 153.645 187.596 153.86 187.232L154.952 187.792C154.803 188.137 154.569 188.455 154.252 188.744C153.944 189.024 153.575 189.248 153.146 189.416C152.726 189.584 152.255 189.668 151.732 189.668ZM160.763 189.5V180.26H158.789V179.07H162.149V189.5H160.763ZM166.669 191.6C165.913 190.732 165.339 189.771 164.947 188.716C164.555 187.652 164.359 186.523 164.359 185.328C164.359 184.124 164.555 182.995 164.947 181.94C165.339 180.885 165.913 179.929 166.669 179.07H167.789C167.117 180.022 166.609 181.03 166.263 182.094C165.918 183.149 165.745 184.227 165.745 185.328C165.745 186.429 165.918 187.512 166.263 188.576C166.609 189.631 167.117 190.639 167.789 191.6H166.669ZM169.683 189.5V187.82H171.041V189.5H169.683ZM174.126 189.5V187.82H175.484V189.5H174.126ZM178.569 189.5V187.82H179.927V189.5H178.569ZM181.837 191.6C182.499 190.639 183.003 189.631 183.349 188.576C183.694 187.512 183.867 186.429 183.867 185.328C183.867 184.227 183.694 183.149 183.349 182.094C183.003 181.03 182.499 180.022 181.837 179.07H182.957C183.713 179.929 184.282 180.885 184.665 181.94C185.057 182.995 185.253 184.124 185.253 185.328C185.253 186.523 185.057 187.652 184.665 188.716C184.282 189.771 183.713 190.732 182.957 191.6H181.837ZM187.538 191.446V190.858C187.827 190.783 188.051 190.629 188.21 190.396C188.378 190.172 188.476 189.873 188.504 189.5H187.818V187.82H189.176V189.01C189.176 189.682 189.036 190.223 188.756 190.634C188.485 191.045 188.079 191.315 187.538 191.446ZM187.818 183.634V181.954H189.176V183.634H187.818Z" fill="black"/>
<path d="M198.5 183.5C198.5 177.977 202.977 173.5 208.5 173.5C214.023 173.5 218.5 177.977 218.5 183.5C218.5 189.023 214.023 193.5 208.5 193.5C202.977 193.5 198.5 189.023 198.5 183.5Z" fill="#4BCD6B"/>
<path d="M211.543 180.293C211.933 179.902 212.566 179.902 212.957 180.293C213.347 180.683 213.347 181.316 212.957 181.707L207.957 186.707C207.566 187.097 206.933 187.097 206.543 186.707L204.043 184.207C203.652 183.816 203.652 183.183 204.043 182.793C204.409 182.427 204.988 182.404 205.381 182.725L205.457 182.793L207.25 184.586L211.543 180.293Z" fill="white"/>
<path d="M21.662 221.5V211.07H25.078C26.1327 211.07 27.052 211.285 27.836 211.714C28.62 212.143 29.2267 212.75 29.656 213.534C30.0853 214.309 30.3 215.223 30.3 216.278C30.3 217.323 30.0853 218.238 29.656 219.022C29.2267 219.806 28.62 220.417 27.836 220.856C27.052 221.285 26.1327 221.5 25.078 221.5H21.662ZM23.034 220.24H25.092C25.8667 220.24 26.534 220.077 27.094 219.75C27.6633 219.423 28.102 218.966 28.41 218.378C28.718 217.781 28.872 217.081 28.872 216.278C28.872 215.466 28.7133 214.766 28.396 214.178C28.088 213.59 27.6493 213.137 27.08 212.82C26.52 212.493 25.8573 212.33 25.092 212.33H23.034V220.24ZM32.039 221.5V211.07H35.721C36.4116 211.07 37.0183 211.201 37.541 211.462C38.0636 211.723 38.4696 212.097 38.759 212.582C39.0576 213.067 39.207 213.637 39.207 214.29C39.207 215.027 39.0203 215.653 38.647 216.166C38.2736 216.679 37.7696 217.048 37.135 217.272L39.557 221.5H37.961L35.413 216.978L36.323 217.51H33.411V221.5H32.039ZM33.411 216.25H35.763C36.1736 216.25 36.533 216.171 36.841 216.012C37.149 215.853 37.387 215.625 37.555 215.326C37.7323 215.027 37.821 214.682 37.821 214.29C37.821 213.889 37.7323 213.543 37.555 213.254C37.387 212.955 37.149 212.727 36.841 212.568C36.533 212.409 36.1736 212.33 35.763 212.33H33.411V216.25ZM46.1011 221.668C45.3637 221.668 44.6731 221.537 44.0291 221.276C43.3851 221.005 42.8204 220.627 42.3351 220.142C41.8591 219.657 41.4857 219.087 41.2151 218.434C40.9444 217.771 40.8091 217.053 40.8091 216.278C40.8091 215.494 40.9444 214.775 41.2151 214.122C41.4857 213.469 41.8591 212.899 42.3351 212.414C42.8204 211.929 43.3804 211.555 44.0151 211.294C44.6591 211.033 45.3544 210.902 46.1011 210.902C46.8477 210.902 47.5384 211.037 48.1731 211.308C48.8171 211.569 49.3771 211.943 49.8531 212.428C50.3384 212.904 50.7164 213.469 50.9871 214.122C51.2671 214.775 51.4071 215.494 51.4071 216.278C51.4071 217.053 51.2671 217.771 50.9871 218.434C50.7164 219.087 50.3384 219.657 49.8531 220.142C49.3771 220.627 48.8171 221.005 48.1731 221.276C47.5384 221.537 46.8477 221.668 46.1011 221.668ZM46.1011 220.394C46.6797 220.394 47.2071 220.291 47.6831 220.086C48.1591 219.871 48.5697 219.577 48.9151 219.204C49.2697 218.821 49.5404 218.383 49.7271 217.888C49.9231 217.384 50.0211 216.847 50.0211 216.278C50.0211 215.709 49.9231 215.177 49.7271 214.682C49.5404 214.187 49.2697 213.753 48.9151 213.38C48.5697 212.997 48.1591 212.703 47.6831 212.498C47.2071 212.283 46.6797 212.176 46.1011 212.176C45.5317 212.176 45.0091 212.283 44.5331 212.498C44.0571 212.703 43.6417 212.997 43.2871 213.38C42.9417 213.753 42.6711 214.187 42.4751 214.682C42.2791 215.177 42.1811 215.709 42.1811 216.278C42.1811 216.847 42.2791 217.384 42.4751 217.888C42.6711 218.383 42.9417 218.821 43.2871 219.204C43.6417 219.577 44.0571 219.871 44.5331 220.086C45.0091 220.291 45.5317 220.394 46.1011 220.394ZM53.4081 221.5V211.07H57.0901C57.7808 211.07 58.3874 211.201 58.9101 211.462C59.4328 211.723 59.8388 212.097 60.1281 212.582C60.4268 213.067 60.5761 213.637 60.5761 214.29C60.5761 214.943 60.4268 215.513 60.1281 215.998C59.8388 216.474 59.4328 216.847 58.9101 217.118C58.3968 217.379 57.7901 217.51 57.0901 217.51H54.7801V221.5H53.4081ZM54.7801 216.25H57.1321C57.5521 216.25 57.9161 216.171 58.2241 216.012C58.5321 215.853 58.7701 215.625 58.9381 215.326C59.1061 215.027 59.1901 214.682 59.1901 214.29C59.1901 213.889 59.1061 213.543 58.9381 213.254C58.7701 212.955 58.5321 212.727 58.2241 212.568C57.9161 212.409 57.5521 212.33 57.1321 212.33H54.7801V216.25ZM64.8515 221.5V211.07H66.2235V221.5H64.8515ZM68.5429 221.5V211.07H69.6909L75.6829 219.498L75.1649 219.554V211.07H76.5509V221.5H75.4029L69.4389 213.016L69.9149 212.96V221.5H68.5429ZM78.8788 221.5V211.07H82.2948C83.3495 211.07 84.2688 211.285 85.0528 211.714C85.8368 212.143 86.4435 212.75 86.8728 213.534C87.3021 214.309 87.5168 215.223 87.5168 216.278C87.5168 217.323 87.3021 218.238 86.8728 219.022C86.4435 219.806 85.8368 220.417 85.0528 220.856C84.2688 221.285 83.3495 221.5 82.2948 221.5H78.8788ZM80.2508 220.24H82.3088C83.0835 220.24 83.7508 220.077 84.3108 219.75C84.8801 219.423 85.3188 218.966 85.6268 218.378C85.9348 217.781 86.0888 217.081 86.0888 216.278C86.0888 215.466 85.9301 214.766 85.6128 214.178C85.3048 213.59 84.8661 213.137 84.2968 212.82C83.7368 212.493 83.0741 212.33 82.3088 212.33H80.2508V220.24ZM89.2558 221.5V211.07H96.0458V212.33H90.6278V215.634H95.7658V216.894H90.6278V220.24H96.0458V221.5H89.2558ZM96.738 221.5L100.14 216.208L96.822 211.07H98.39L101.204 215.452H100.616L103.43 211.07H104.998L101.68 216.208L105.082 221.5H103.514L100.616 216.964H101.204L98.292 221.5H96.738ZM192.623 221.668C191.885 221.668 191.195 221.537 190.551 221.276C189.907 221.005 189.342 220.627 188.857 220.142C188.381 219.657 188.007 219.087 187.737 218.434C187.466 217.771 187.331 217.053 187.331 216.278C187.331 215.494 187.466 214.775 187.737 214.122C188.007 213.469 188.381 212.899 188.857 212.414C189.342 211.929 189.902 211.555 190.537 211.294C191.181 211.033 191.876 210.902 192.623 210.902C193.369 210.902 194.06 211.037 194.695 211.308C195.339 211.569 195.899 211.943 196.375 212.428C196.86 212.904 197.238 213.469 197.509 214.122C197.789 214.775 197.929 215.494 197.929 216.278C197.929 217.053 197.789 217.771 197.509 218.434C197.238 219.087 196.86 219.657 196.375 220.142C195.899 220.627 195.339 221.005 194.695 221.276C194.06 221.537 193.369 221.668 192.623 221.668ZM192.623 220.394C193.201 220.394 193.729 220.291 194.205 220.086C194.681 219.871 195.091 219.577 195.437 219.204C195.791 218.821 196.062 218.383 196.249 217.888C196.445 217.384 196.543 216.847 196.543 216.278C196.543 215.709 196.445 215.177 196.249 214.682C196.062 214.187 195.791 213.753 195.437 213.38C195.091 212.997 194.681 212.703 194.205 212.498C193.729 212.283 193.201 212.176 192.623 212.176C192.053 212.176 191.531 212.283 191.055 212.498C190.579 212.703 190.163 212.997 189.809 213.38C189.463 213.753 189.193 214.187 188.997 214.682C188.801 215.177 188.703 215.709 188.703 216.278C188.703 216.847 188.801 217.384 188.997 217.888C189.193 218.383 189.463 218.821 189.809 219.204C190.163 219.577 190.579 219.871 191.055 220.086C191.531 220.291 192.053 220.394 192.623 220.394ZM199.93 221.5V211.07H201.078L207.07 219.498L206.552 219.554V211.07H207.938V221.5H206.79L200.826 213.016L201.302 212.96V221.5H199.93Z" fill="#48AF6A"/>
<path d="M108.666 221.5V213.954H109.968V221.5H108.666ZM108.666 212.75V211.07H109.968V212.75H108.666ZM111.988 221.5V213.954H113.262V215.424L113.052 215.298C113.239 214.822 113.538 214.453 113.948 214.192C114.368 213.921 114.858 213.786 115.418 213.786C115.96 213.786 116.44 213.907 116.86 214.15C117.29 214.393 117.626 214.729 117.868 215.158C118.12 215.587 118.246 216.073 118.246 216.614V221.5H116.93V217.034C116.93 216.614 116.856 216.259 116.706 215.97C116.557 215.681 116.342 215.457 116.062 215.298C115.792 215.13 115.479 215.046 115.124 215.046C114.77 215.046 114.452 215.13 114.172 215.298C113.902 215.457 113.687 215.685 113.528 215.984C113.37 216.273 113.29 216.623 113.29 217.034V221.5H111.988ZM123.54 221.668C122.83 221.668 122.191 221.495 121.622 221.15C121.062 220.805 120.618 220.333 120.292 219.736C119.965 219.139 119.802 218.471 119.802 217.734C119.802 216.978 119.965 216.306 120.292 215.718C120.618 215.121 121.062 214.649 121.622 214.304C122.191 213.959 122.83 213.786 123.54 213.786C124.165 213.786 124.72 213.921 125.206 214.192C125.691 214.453 126.074 214.808 126.354 215.256L126.144 215.578V210.902H127.46V221.5H126.186V219.89L126.354 220.114C126.092 220.609 125.71 220.991 125.206 221.262C124.711 221.533 124.156 221.668 123.54 221.668ZM123.652 220.408C124.128 220.408 124.552 220.291 124.926 220.058C125.299 219.825 125.593 219.507 125.808 219.106C126.032 218.695 126.144 218.238 126.144 217.734C126.144 217.221 126.032 216.763 125.808 216.362C125.593 215.951 125.299 215.629 124.926 215.396C124.552 215.163 124.128 215.046 123.652 215.046C123.185 215.046 122.76 215.167 122.378 215.41C122.004 215.643 121.71 215.961 121.496 216.362C121.281 216.754 121.174 217.211 121.174 217.734C121.174 218.238 121.281 218.695 121.496 219.106C121.71 219.507 122.004 219.825 122.378 220.058C122.751 220.291 123.176 220.408 123.652 220.408ZM132.947 221.668C132.219 221.668 131.57 221.495 131.001 221.15C130.431 220.805 129.983 220.333 129.657 219.736C129.33 219.129 129.167 218.453 129.167 217.706C129.167 216.95 129.325 216.278 129.643 215.69C129.969 215.102 130.408 214.64 130.959 214.304C131.519 213.959 132.144 213.786 132.835 213.786C133.395 213.786 133.889 213.889 134.319 214.094C134.757 214.29 135.126 214.561 135.425 214.906C135.733 215.242 135.966 215.629 136.125 216.068C136.293 216.497 136.377 216.945 136.377 217.412C136.377 217.515 136.367 217.631 136.349 217.762C136.339 217.883 136.325 218 136.307 218.112H130.119V216.992H135.551L134.935 217.496C135.019 217.011 134.972 216.577 134.795 216.194C134.617 215.811 134.356 215.508 134.011 215.284C133.665 215.06 133.273 214.948 132.835 214.948C132.396 214.948 131.995 215.06 131.631 215.284C131.267 215.508 130.982 215.83 130.777 216.25C130.581 216.661 130.501 217.151 130.539 217.72C130.501 218.271 130.585 218.756 130.791 219.176C131.005 219.587 131.304 219.909 131.687 220.142C132.079 220.366 132.503 220.478 132.961 220.478C133.465 220.478 133.889 220.361 134.235 220.128C134.58 219.895 134.86 219.596 135.075 219.232L136.167 219.792C136.017 220.137 135.784 220.455 135.467 220.744C135.159 221.024 134.79 221.248 134.361 221.416C133.941 221.584 133.469 221.668 132.947 221.668ZM137.084 221.5L139.73 217.72L137.098 213.954H138.666L140.92 217.23H140.122L142.348 213.954H143.93L141.298 217.72L143.916 221.5H142.348L140.122 218.224H140.906L138.68 221.5H137.084ZM147.508 221.5V213.954H148.782V215.424L148.572 215.298C148.759 214.822 149.057 214.453 149.468 214.192C149.888 213.921 150.378 213.786 150.938 213.786C151.479 213.786 151.96 213.907 152.38 214.15C152.809 214.393 153.145 214.729 153.388 215.158C153.64 215.587 153.766 216.073 153.766 216.614V221.5H152.45V217.034C152.45 216.614 152.375 216.259 152.226 215.97C152.077 215.681 151.862 215.457 151.582 215.298C151.311 215.13 150.999 215.046 150.644 215.046C150.289 215.046 149.972 215.13 149.692 215.298C149.421 215.457 149.207 215.685 149.048 215.984C148.889 216.273 148.81 216.623 148.81 217.034V221.5H147.508ZM157.841 221.668C157.346 221.668 156.908 221.579 156.525 221.402C156.152 221.215 155.858 220.963 155.643 220.646C155.428 220.319 155.321 219.946 155.321 219.526C155.321 219.125 155.405 218.765 155.573 218.448C155.75 218.121 156.021 217.846 156.385 217.622C156.758 217.398 157.225 217.239 157.785 217.146L160.585 216.684V217.776L158.079 218.196C157.594 218.28 157.239 218.434 157.015 218.658C156.8 218.882 156.693 219.157 156.693 219.484C156.693 219.792 156.814 220.049 157.057 220.254C157.309 220.459 157.622 220.562 157.995 220.562C158.471 220.562 158.882 220.464 159.227 220.268C159.582 220.063 159.857 219.787 160.053 219.442C160.258 219.097 160.361 218.714 160.361 218.294V216.376C160.361 215.965 160.207 215.634 159.899 215.382C159.6 215.121 159.204 214.99 158.709 214.99C158.28 214.99 157.897 215.102 157.561 215.326C157.234 215.541 156.992 215.83 156.833 216.194L155.699 215.606C155.839 215.261 156.063 214.953 156.371 214.682C156.679 214.402 157.038 214.183 157.449 214.024C157.86 213.865 158.289 213.786 158.737 213.786C159.316 213.786 159.824 213.898 160.263 214.122C160.702 214.337 161.042 214.64 161.285 215.032C161.537 215.415 161.663 215.863 161.663 216.376V221.5H160.389V220.072L160.627 220.156C160.468 220.455 160.254 220.716 159.983 220.94C159.712 221.164 159.395 221.341 159.031 221.472C158.667 221.603 158.27 221.668 157.841 221.668ZM163.682 221.5V213.954H164.956V215.494L164.774 215.256C164.96 214.78 165.259 214.416 165.67 214.164C166.08 213.912 166.542 213.786 167.056 213.786C167.644 213.786 168.171 213.949 168.638 214.276C169.114 214.603 169.44 215.032 169.618 215.564L169.254 215.578C169.45 214.99 169.781 214.547 170.248 214.248C170.714 213.94 171.232 213.786 171.802 213.786C172.324 213.786 172.796 213.907 173.216 214.15C173.645 214.393 173.986 214.729 174.238 215.158C174.49 215.587 174.616 216.073 174.616 216.614V221.5H173.3V217.034C173.3 216.614 173.225 216.259 173.076 215.97C172.926 215.681 172.721 215.457 172.46 215.298C172.208 215.13 171.909 215.046 171.564 215.046C171.228 215.046 170.924 215.13 170.654 215.298C170.392 215.457 170.182 215.685 170.024 215.984C169.874 216.273 169.8 216.623 169.8 217.034V221.5H168.484V217.034C168.484 216.614 168.409 216.259 168.26 215.97C168.11 215.681 167.905 215.457 167.644 215.298C167.392 215.13 167.093 215.046 166.748 215.046C166.412 215.046 166.108 215.13 165.838 215.298C165.576 215.457 165.366 215.685 165.208 215.984C165.058 216.273 164.984 216.623 164.984 217.034V221.5H163.682ZM179.937 221.668C179.209 221.668 178.56 221.495 177.991 221.15C177.422 220.805 176.974 220.333 176.647 219.736C176.32 219.129 176.157 218.453 176.157 217.706C176.157 216.95 176.316 216.278 176.633 215.69C176.96 215.102 177.398 214.64 177.949 214.304C178.509 213.959 179.134 213.786 179.825 213.786C180.385 213.786 180.88 213.889 181.309 214.094C181.748 214.29 182.116 214.561 182.415 214.906C182.723 215.242 182.956 215.629 183.115 216.068C183.283 216.497 183.367 216.945 183.367 217.412C183.367 217.515 183.358 217.631 183.339 217.762C183.33 217.883 183.316 218 183.297 218.112H177.109V216.992H182.541L181.925 217.496C182.009 217.011 181.962 216.577 181.785 216.194C181.608 215.811 181.346 215.508 181.001 215.284C180.656 215.06 180.264 214.948 179.825 214.948C179.386 214.948 178.985 215.06 178.621 215.284C178.257 215.508 177.972 215.83 177.767 216.25C177.571 216.661 177.492 217.151 177.529 217.72C177.492 218.271 177.576 218.756 177.781 219.176C177.996 219.587 178.294 219.909 178.677 220.142C179.069 220.366 179.494 220.478 179.951 220.478C180.455 220.478 180.88 220.361 181.225 220.128C181.57 219.895 181.85 219.596 182.065 219.232L183.157 219.792C183.008 220.137 182.774 220.455 182.457 220.744C182.149 221.024 181.78 221.248 181.351 221.416C180.931 221.584 180.46 221.668 179.937 221.668ZM215.597 221.584C214.86 221.584 214.291 221.374 213.889 220.954C213.497 220.534 213.301 219.941 213.301 219.176V215.2H211.929V213.954H212.209C212.545 213.954 212.811 213.851 213.007 213.646C213.203 213.441 213.301 213.17 213.301 212.834V212.218H214.603V213.954H216.297V215.2H214.603V219.134C214.603 219.386 214.641 219.605 214.715 219.792C214.799 219.979 214.935 220.128 215.121 220.24C215.308 220.343 215.555 220.394 215.863 220.394C215.929 220.394 216.008 220.389 216.101 220.38C216.204 220.371 216.297 220.361 216.381 220.352V221.5C216.26 221.528 216.125 221.547 215.975 221.556C215.826 221.575 215.7 221.584 215.597 221.584ZM220.199 221.668C219.704 221.668 219.265 221.579 218.883 221.402C218.509 221.215 218.215 220.963 218.001 220.646C217.786 220.319 217.679 219.946 217.679 219.526C217.679 219.125 217.763 218.765 217.931 218.448C218.108 218.121 218.379 217.846 218.743 217.622C219.116 217.398 219.583 217.239 220.143 217.146L222.943 216.684V217.776L220.437 218.196C219.951 218.28 219.597 218.434 219.373 218.658C219.158 218.882 219.051 219.157 219.051 219.484C219.051 219.792 219.172 220.049 219.415 220.254C219.667 220.459 219.979 220.562 220.353 220.562C220.829 220.562 221.239 220.464 221.585 220.268C221.939 220.063 222.215 219.787 222.411 219.442C222.616 219.097 222.719 218.714 222.719 218.294V216.376C222.719 215.965 222.565 215.634 222.257 215.382C221.958 215.121 221.561 214.99 221.067 214.99C220.637 214.99 220.255 215.102 219.919 215.326C219.592 215.541 219.349 215.83 219.191 216.194L218.057 215.606C218.197 215.261 218.421 214.953 218.729 214.682C219.037 214.402 219.396 214.183 219.807 214.024C220.217 213.865 220.647 213.786 221.095 213.786C221.673 213.786 222.182 213.898 222.621 214.122C223.059 214.337 223.4 214.64 223.643 215.032C223.895 215.415 224.021 215.863 224.021 216.376V221.5H222.747V220.072L222.985 220.156C222.826 220.455 222.611 220.716 222.341 220.94C222.07 221.164 221.753 221.341 221.389 221.472C221.025 221.603 220.628 221.668 220.199 221.668ZM229.945 221.668C229.339 221.668 228.783 221.533 228.279 221.262C227.785 220.991 227.402 220.609 227.131 220.114L227.313 219.89V221.5H226.039V210.902H227.341V215.578L227.145 215.256C227.425 214.808 227.808 214.453 228.293 214.192C228.779 213.921 229.334 213.786 229.959 213.786C230.669 213.786 231.303 213.959 231.863 214.304C232.433 214.649 232.881 215.121 233.207 215.718C233.534 216.306 233.697 216.978 233.697 217.734C233.697 218.471 233.534 219.139 233.207 219.736C232.881 220.333 232.433 220.805 231.863 221.15C231.303 221.495 230.664 221.668 229.945 221.668ZM229.847 220.408C230.323 220.408 230.748 220.291 231.121 220.058C231.495 219.825 231.784 219.507 231.989 219.106C232.204 218.695 232.311 218.238 232.311 217.734C232.311 217.211 232.204 216.754 231.989 216.362C231.784 215.961 231.495 215.643 231.121 215.41C230.748 215.167 230.323 215.046 229.847 215.046C229.371 215.046 228.942 215.163 228.559 215.396C228.186 215.629 227.887 215.951 227.663 216.362C227.449 216.763 227.341 217.221 227.341 217.734C227.341 218.238 227.449 218.695 227.663 219.106C227.887 219.507 228.186 219.825 228.559 220.058C228.942 220.291 229.371 220.408 229.847 220.408ZM235.404 221.5V210.902H236.706V221.5H235.404ZM242.199 221.668C241.471 221.668 240.822 221.495 240.253 221.15C239.683 220.805 239.235 220.333 238.909 219.736C238.582 219.129 238.419 218.453 238.419 217.706C238.419 216.95 238.577 216.278 238.895 215.69C239.221 215.102 239.66 214.64 240.211 214.304C240.771 213.959 241.396 213.786 242.087 213.786C242.647 213.786 243.141 213.889 243.571 214.094C244.009 214.29 244.378 214.561 244.677 214.906C244.985 215.242 245.218 215.629 245.377 216.068C245.545 216.497 245.629 216.945 245.629 217.412C245.629 217.515 245.619 217.631 245.601 217.762C245.591 217.883 245.577 218 245.559 218.112H239.371V216.992H244.803L244.187 217.496C244.271 217.011 244.224 216.577 244.047 216.194C243.869 215.811 243.608 215.508 243.263 215.284C242.917 215.06 242.525 214.948 242.087 214.948C241.648 214.948 241.247 215.06 240.883 215.284C240.519 215.508 240.234 215.83 240.029 216.25C239.833 216.661 239.753 217.151 239.791 217.72C239.753 218.271 239.837 218.756 240.043 219.176C240.257 219.587 240.556 219.909 240.939 220.142C241.331 220.366 241.755 220.478 242.213 220.478C242.717 220.478 243.141 220.361 243.487 220.128C243.832 219.895 244.112 219.596 244.327 219.232L245.419 219.792C245.269 220.137 245.036 220.455 244.719 220.744C244.411 221.024 244.042 221.248 243.613 221.416C243.193 221.584 242.721 221.668 242.199 221.668ZM249.746 221.5V213.954H251.02V215.424L250.81 215.298C250.997 214.822 251.296 214.453 251.706 214.192C252.126 213.921 252.616 213.786 253.176 213.786C253.718 213.786 254.198 213.907 254.618 214.15C255.048 214.393 255.384 214.729 255.626 215.158C255.878 215.587 256.004 216.073 256.004 216.614V221.5H254.688V217.034C254.688 216.614 254.614 216.259 254.464 215.97C254.315 215.681 254.1 215.457 253.82 215.298C253.55 215.13 253.237 215.046 252.882 215.046C252.528 215.046 252.21 215.13 251.93 215.298C251.66 215.457 251.445 215.685 251.286 215.984C251.128 216.273 251.048 216.623 251.048 217.034V221.5H249.746ZM260.079 221.668C259.585 221.668 259.146 221.579 258.763 221.402C258.39 221.215 258.096 220.963 257.881 220.646C257.667 220.319 257.559 219.946 257.559 219.526C257.559 219.125 257.643 218.765 257.811 218.448C257.989 218.121 258.259 217.846 258.623 217.622C258.997 217.398 259.463 217.239 260.023 217.146L262.823 216.684V217.776L260.317 218.196C259.832 218.28 259.477 218.434 259.253 218.658C259.039 218.882 258.931 219.157 258.931 219.484C258.931 219.792 259.053 220.049 259.295 220.254C259.547 220.459 259.86 220.562 260.233 220.562C260.709 220.562 261.12 220.464 261.465 220.268C261.82 220.063 262.095 219.787 262.291 219.442C262.497 219.097 262.599 218.714 262.599 218.294V216.376C262.599 215.965 262.445 215.634 262.137 215.382C261.839 215.121 261.442 214.99 260.947 214.99C260.518 214.99 260.135 215.102 259.799 215.326C259.473 215.541 259.23 215.83 259.071 216.194L257.937 215.606C258.077 215.261 258.301 214.953 258.609 214.682C258.917 214.402 259.277 214.183 259.687 214.024C260.098 213.865 260.527 213.786 260.975 213.786C261.554 213.786 262.063 213.898 262.501 214.122C262.94 214.337 263.281 214.64 263.523 215.032C263.775 215.415 263.901 215.863 263.901 216.376V221.5H262.627V220.072L262.865 220.156C262.707 220.455 262.492 220.716 262.221 220.94C261.951 221.164 261.633 221.341 261.269 221.472C260.905 221.603 260.509 221.668 260.079 221.668ZM265.92 221.5V213.954H267.194V215.494L267.012 215.256C267.199 214.78 267.497 214.416 267.908 214.164C268.319 213.912 268.781 213.786 269.294 213.786C269.882 213.786 270.409 213.949 270.876 214.276C271.352 214.603 271.679 215.032 271.856 215.564L271.492 215.578C271.688 214.99 272.019 214.547 272.486 214.248C272.953 213.94 273.471 213.786 274.04 213.786C274.563 213.786 275.034 213.907 275.454 214.15C275.883 214.393 276.224 214.729 276.476 215.158C276.728 215.587 276.854 216.073 276.854 216.614V221.5H275.538V217.034C275.538 216.614 275.463 216.259 275.314 215.97C275.165 215.681 274.959 215.457 274.698 215.298C274.446 215.13 274.147 215.046 273.802 215.046C273.466 215.046 273.163 215.13 272.892 215.298C272.631 215.457 272.421 215.685 272.262 215.984C272.113 216.273 272.038 216.623 272.038 217.034V221.5H270.722V217.034C270.722 216.614 270.647 216.259 270.498 215.97C270.349 215.681 270.143 215.457 269.882 215.298C269.63 215.13 269.331 215.046 268.986 215.046C268.65 215.046 268.347 215.13 268.076 215.298C267.815 215.457 267.605 215.685 267.446 215.984C267.297 216.273 267.222 216.623 267.222 217.034V221.5H265.92ZM282.175 221.668C281.447 221.668 280.799 221.495 280.229 221.15C279.66 220.805 279.212 220.333 278.885 219.736C278.559 219.129 278.395 218.453 278.395 217.706C278.395 216.95 278.554 216.278 278.871 215.69C279.198 215.102 279.637 214.64 280.187 214.304C280.747 213.959 281.373 213.786 282.063 213.786C282.623 213.786 283.118 213.889 283.547 214.094C283.986 214.29 284.355 214.561 284.653 214.906C284.961 215.242 285.195 215.629 285.353 216.068C285.521 216.497 285.605 216.945 285.605 217.412C285.605 217.515 285.596 217.631 285.577 217.762C285.568 217.883 285.554 218 285.535 218.112H279.347V216.992H284.779L284.163 217.496C284.247 217.011 284.201 216.577 284.023 216.194C283.846 215.811 283.585 215.508 283.239 215.284C282.894 215.06 282.502 214.948 282.063 214.948C281.625 214.948 281.223 215.06 280.859 215.284C280.495 215.508 280.211 215.83 280.005 216.25C279.809 216.661 279.73 217.151 279.767 217.72C279.73 218.271 279.814 218.756 280.019 219.176C280.234 219.587 280.533 219.909 280.915 220.142C281.307 220.366 281.732 220.478 282.189 220.478C282.693 220.478 283.118 220.361 283.463 220.128C283.809 219.895 284.089 219.596 284.303 219.232L285.395 219.792C285.246 220.137 285.013 220.455 284.695 220.744C284.387 221.024 284.019 221.248 283.589 221.416C283.169 221.584 282.698 221.668 282.175 221.668ZM287.835 223.446V222.858C288.124 222.783 288.348 222.629 288.507 222.396C288.675 222.172 288.773 221.873 288.801 221.5H288.115V219.82H289.473V221.01C289.473 221.682 289.333 222.223 289.053 222.634C288.782 223.045 288.376 223.315 287.835 223.446ZM288.115 215.634V213.954H289.473V215.634H288.115Z" fill="black"/>
<path d="M298.5 215.5C298.5 209.977 302.977 205.5 308.5 205.5C314.023 205.5 318.5 209.977 318.5 215.5C318.5 221.023 314.023 225.5 308.5 225.5C302.977 225.5 298.5 221.023 298.5 215.5Z" fill="#4BCD6B"/>
<path d="M311.543 212.293C311.933 211.902 312.566 211.902 312.957 212.293C313.347 212.683 313.347 213.316 312.957 213.707L307.957 218.707C307.566 219.097 306.933 219.097 306.543 218.707L304.043 216.207C303.652 215.816 303.652 215.183 304.043 214.793C304.409 214.427 304.988 214.404 305.381 214.725L305.457 214.793L307.25 216.586L311.543 212.293Z" fill="white"/>
<path d="M25.246 253.668C24.5833 253.668 23.9767 253.547 23.426 253.304C22.8753 253.052 22.4087 252.711 22.026 252.282C21.6433 251.853 21.368 251.372 21.2 250.84L22.39 250.35C22.642 251.022 23.0153 251.54 23.51 251.904C24.014 252.259 24.602 252.436 25.274 252.436C25.6847 252.436 26.044 252.371 26.352 252.24C26.66 252.109 26.898 251.927 27.066 251.694C27.2433 251.451 27.332 251.171 27.332 250.854C27.332 250.415 27.206 250.07 26.954 249.818C26.7113 249.557 26.352 249.361 25.876 249.23L23.958 248.642C23.202 248.409 22.6233 248.04 22.222 247.536C21.8207 247.032 21.62 246.453 21.62 245.8C21.62 245.231 21.7553 244.731 22.026 244.302C22.306 243.863 22.6887 243.523 23.174 243.28C23.6687 243.028 24.2287 242.902 24.854 242.902C25.4793 242.902 26.044 243.014 26.548 243.238C27.0613 243.462 27.4953 243.765 27.85 244.148C28.2047 244.521 28.466 244.951 28.634 245.436L27.458 245.926C27.234 245.338 26.898 244.895 26.45 244.596C26.002 244.288 25.4747 244.134 24.868 244.134C24.4947 244.134 24.1633 244.199 23.874 244.33C23.594 244.451 23.3747 244.633 23.216 244.876C23.0667 245.109 22.992 245.389 22.992 245.716C22.992 246.099 23.1133 246.439 23.356 246.738C23.5987 247.037 23.9673 247.265 24.462 247.424L26.212 247.942C27.0333 248.194 27.654 248.553 28.074 249.02C28.494 249.487 28.704 250.065 28.704 250.756C28.704 251.325 28.5547 251.829 28.256 252.268C27.9667 252.707 27.5607 253.052 27.038 253.304C26.5247 253.547 25.9273 253.668 25.246 253.668ZM30.7128 253.5V243.07H37.5028V244.33H32.0848V247.634H37.2228V248.894H32.0848V252.24H37.5028V253.5H30.7128ZM39.203 253.5V243.07H40.575V252.24H45.153V253.5H39.203ZM46.6952 253.5V243.07H53.4852V244.33H48.0672V247.634H53.2052V248.894H48.0672V252.24H53.4852V253.5H46.6952ZM59.9874 253.668C59.2501 253.668 58.5688 253.537 57.9434 253.276C57.3274 253.005 56.7861 252.627 56.3194 252.142C55.8621 251.657 55.5074 251.087 55.2554 250.434C55.0034 249.781 54.8774 249.067 54.8774 248.292C54.8774 247.508 55.0034 246.789 55.2554 246.136C55.5074 245.483 55.8621 244.913 56.3194 244.428C56.7768 243.943 57.3181 243.569 57.9434 243.308C58.5688 243.037 59.2501 242.902 59.9874 242.902C60.7061 242.902 61.3501 243.028 61.9194 243.28C62.4981 243.532 62.9834 243.859 63.3754 244.26C63.7768 244.661 64.0614 245.091 64.2294 245.548L62.9694 246.122C62.7268 245.543 62.3488 245.077 61.8354 244.722C61.3221 244.358 60.7061 244.176 59.9874 244.176C59.2594 244.176 58.6108 244.349 58.0414 244.694C57.4814 245.039 57.0428 245.52 56.7254 246.136C56.4081 246.752 56.2494 247.471 56.2494 248.292C56.2494 249.104 56.4081 249.818 56.7254 250.434C57.0428 251.05 57.4814 251.531 58.0414 251.876C58.6108 252.221 59.2594 252.394 59.9874 252.394C60.7061 252.394 61.3221 252.217 61.8354 251.862C62.3488 251.498 62.7268 251.027 62.9694 250.448L64.2294 251.022C64.0614 251.479 63.7768 251.909 63.3754 252.31C62.9834 252.711 62.4981 253.038 61.9194 253.29C61.3501 253.542 60.7061 253.668 59.9874 253.668ZM67.9156 253.5V244.33H65.0876V243.07H72.0876V244.33H69.3016V253.5H67.9156ZM85.2362 253.5V243.07H91.8442V244.33H86.6082V247.704H91.3542V248.964H86.6082V253.5H85.2362ZM93.3983 253.5V243.07H97.0803C97.771 243.07 98.3777 243.201 98.9003 243.462C99.423 243.723 99.829 244.097 100.118 244.582C100.417 245.067 100.566 245.637 100.566 246.29C100.566 247.027 100.38 247.653 100.006 248.166C99.633 248.679 99.129 249.048 98.4943 249.272L100.916 253.5H99.3203L96.7723 248.978L97.6823 249.51H94.7703V253.5H93.3983ZM94.7703 248.25H97.1223C97.533 248.25 97.8923 248.171 98.2003 248.012C98.5083 247.853 98.7463 247.625 98.9143 247.326C99.0917 247.027 99.1803 246.682 99.1803 246.29C99.1803 245.889 99.0917 245.543 98.9143 245.254C98.7463 244.955 98.5083 244.727 98.2003 244.568C97.8923 244.409 97.533 244.33 97.1223 244.33H94.7703V248.25ZM107.46 253.668C106.723 253.668 106.032 253.537 105.388 253.276C104.744 253.005 104.18 252.627 103.694 252.142C103.218 251.657 102.845 251.087 102.574 250.434C102.304 249.771 102.168 249.053 102.168 248.278C102.168 247.494 102.304 246.775 102.574 246.122C102.845 245.469 103.218 244.899 103.694 244.414C104.18 243.929 104.74 243.555 105.374 243.294C106.018 243.033 106.714 242.902 107.46 242.902C108.207 242.902 108.898 243.037 109.532 243.308C110.176 243.569 110.736 243.943 111.212 244.428C111.698 244.904 112.076 245.469 112.346 246.122C112.626 246.775 112.766 247.494 112.766 248.278C112.766 249.053 112.626 249.771 112.346 250.434C112.076 251.087 111.698 251.657 111.212 252.142C110.736 252.627 110.176 253.005 109.532 253.276C108.898 253.537 108.207 253.668 107.46 253.668ZM107.46 252.394C108.039 252.394 108.566 252.291 109.042 252.086C109.518 251.871 109.929 251.577 110.274 251.204C110.629 250.821 110.9 250.383 111.086 249.888C111.282 249.384 111.38 248.847 111.38 248.278C111.38 247.709 111.282 247.177 111.086 246.682C110.9 246.187 110.629 245.753 110.274 245.38C109.929 244.997 109.518 244.703 109.042 244.498C108.566 244.283 108.039 244.176 107.46 244.176C106.891 244.176 106.368 244.283 105.892 244.498C105.416 244.703 105.001 244.997 104.646 245.38C104.301 245.753 104.03 246.187 103.834 246.682C103.638 247.177 103.54 247.709 103.54 248.278C103.54 248.847 103.638 249.384 103.834 249.888C104.03 250.383 104.301 250.821 104.646 251.204C105.001 251.577 105.416 251.871 105.892 252.086C106.368 252.291 106.891 252.394 107.46 252.394ZM114.767 253.5V243.07H116.027L119.933 248.628H119.289L123.167 243.07H124.427V253.5H123.041V244.806L123.531 244.96L119.653 250.42H119.541L115.705 244.96L116.139 244.806V253.5H114.767Z" fill="#48AF6A"/>
<path d="M77.006 248.222L76.082 247.564L77.23 246.038L75.508 245.45L75.858 244.372L77.594 244.946V243.07H78.728V244.946L80.464 244.372L80.814 245.45L79.092 246.038L80.226 247.564L79.316 248.222L78.154 246.696L77.006 248.222ZM132.076 253.584C131.339 253.584 130.769 253.374 130.368 252.954C129.976 252.534 129.78 251.941 129.78 251.176V247.2H128.408V245.954H128.688C129.024 245.954 129.29 245.851 129.486 245.646C129.682 245.441 129.78 245.17 129.78 244.834V244.218H131.082V245.954H132.776V247.2H131.082V251.134C131.082 251.386 131.119 251.605 131.194 251.792C131.278 251.979 131.413 252.128 131.6 252.24C131.787 252.343 132.034 252.394 132.342 252.394C132.407 252.394 132.487 252.389 132.58 252.38C132.683 252.371 132.776 252.361 132.86 252.352V253.5C132.739 253.528 132.603 253.547 132.454 253.556C132.305 253.575 132.179 253.584 132.076 253.584ZM136.677 253.668C136.182 253.668 135.744 253.579 135.361 253.402C134.988 253.215 134.694 252.963 134.479 252.646C134.264 252.319 134.157 251.946 134.157 251.526C134.157 251.125 134.241 250.765 134.409 250.448C134.586 250.121 134.857 249.846 135.221 249.622C135.594 249.398 136.061 249.239 136.621 249.146L139.421 248.684V249.776L136.915 250.196C136.43 250.28 136.075 250.434 135.851 250.658C135.636 250.882 135.529 251.157 135.529 251.484C135.529 251.792 135.65 252.049 135.893 252.254C136.145 252.459 136.458 252.562 136.831 252.562C137.307 252.562 137.718 252.464 138.063 252.268C138.418 252.063 138.693 251.787 138.889 251.442C139.094 251.097 139.197 250.714 139.197 250.294V248.376C139.197 247.965 139.043 247.634 138.735 247.382C138.436 247.121 138.04 246.99 137.545 246.99C137.116 246.99 136.733 247.102 136.397 247.326C136.07 247.541 135.828 247.83 135.669 248.194L134.535 247.606C134.675 247.261 134.899 246.953 135.207 246.682C135.515 246.402 135.874 246.183 136.285 246.024C136.696 245.865 137.125 245.786 137.573 245.786C138.152 245.786 138.66 245.898 139.099 246.122C139.538 246.337 139.878 246.64 140.121 247.032C140.373 247.415 140.499 247.863 140.499 248.376V253.5H139.225V252.072L139.463 252.156C139.304 252.455 139.09 252.716 138.819 252.94C138.548 253.164 138.231 253.341 137.867 253.472C137.503 253.603 137.106 253.668 136.677 253.668ZM146.424 253.668C145.817 253.668 145.262 253.533 144.758 253.262C144.263 252.991 143.88 252.609 143.61 252.114L143.792 251.89V253.5H142.518V242.902H143.82V247.578L143.624 247.256C143.904 246.808 144.286 246.453 144.772 246.192C145.257 245.921 145.812 245.786 146.438 245.786C147.147 245.786 147.782 245.959 148.342 246.304C148.911 246.649 149.359 247.121 149.686 247.718C150.012 248.306 150.176 248.978 150.176 249.734C150.176 250.471 150.012 251.139 149.686 251.736C149.359 252.333 148.911 252.805 148.342 253.15C147.782 253.495 147.142 253.668 146.424 253.668ZM146.326 252.408C146.802 252.408 147.226 252.291 147.6 252.058C147.973 251.825 148.262 251.507 148.468 251.106C148.682 250.695 148.79 250.238 148.79 249.734C148.79 249.211 148.682 248.754 148.468 248.362C148.262 247.961 147.973 247.643 147.6 247.41C147.226 247.167 146.802 247.046 146.326 247.046C145.85 247.046 145.42 247.163 145.038 247.396C144.664 247.629 144.366 247.951 144.142 248.362C143.927 248.763 143.82 249.221 143.82 249.734C143.82 250.238 143.927 250.695 144.142 251.106C144.366 251.507 144.664 251.825 145.038 252.058C145.42 252.291 145.85 252.408 146.326 252.408ZM151.883 253.5V242.902H153.185V253.5H151.883ZM158.677 253.668C157.949 253.668 157.301 253.495 156.731 253.15C156.162 252.805 155.714 252.333 155.387 251.736C155.061 251.129 154.897 250.453 154.897 249.706C154.897 248.95 155.056 248.278 155.373 247.69C155.7 247.102 156.139 246.64 156.689 246.304C157.249 245.959 157.875 245.786 158.565 245.786C159.125 245.786 159.62 245.889 160.049 246.094C160.488 246.29 160.857 246.561 161.155 246.906C161.463 247.242 161.697 247.629 161.855 248.068C162.023 248.497 162.107 248.945 162.107 249.412C162.107 249.515 162.098 249.631 162.079 249.762C162.07 249.883 162.056 250 162.037 250.112H155.849V248.992H161.281L160.665 249.496C160.749 249.011 160.703 248.577 160.525 248.194C160.348 247.811 160.087 247.508 159.741 247.284C159.396 247.06 159.004 246.948 158.565 246.948C158.127 246.948 157.725 247.06 157.361 247.284C156.997 247.508 156.713 247.83 156.507 248.25C156.311 248.661 156.232 249.151 156.269 249.72C156.232 250.271 156.316 250.756 156.521 251.176C156.736 251.587 157.035 251.909 157.417 252.142C157.809 252.366 158.234 252.478 158.691 252.478C159.195 252.478 159.62 252.361 159.965 252.128C160.311 251.895 160.591 251.596 160.805 251.232L161.897 251.792C161.748 252.137 161.515 252.455 161.197 252.744C160.889 253.024 160.521 253.248 160.091 253.416C159.671 253.584 159.2 253.668 158.677 253.668ZM167.961 253.5L165.371 245.954H166.813L168.871 252.268L168.367 252.254L170.383 245.954H171.615L173.631 252.254L173.127 252.268L175.199 245.954H176.627L174.037 253.5H172.791L170.803 247.2H171.195L169.207 253.5H167.961ZM177.791 253.5V242.902H179.093V247.424L178.855 247.298C179.042 246.822 179.341 246.453 179.751 246.192C180.171 245.921 180.661 245.786 181.221 245.786C181.763 245.786 182.243 245.907 182.663 246.15C183.093 246.393 183.429 246.729 183.671 247.158C183.923 247.587 184.049 248.073 184.049 248.614V253.5H182.733V249.034C182.733 248.614 182.654 248.259 182.495 247.97C182.346 247.681 182.136 247.457 181.865 247.298C181.595 247.13 181.282 247.046 180.927 247.046C180.582 247.046 180.269 247.13 179.989 247.298C179.709 247.457 179.49 247.685 179.331 247.984C179.173 248.273 179.093 248.623 179.093 249.034V253.5H177.791ZM189.384 253.668C188.656 253.668 188.008 253.495 187.438 253.15C186.869 252.805 186.421 252.333 186.094 251.736C185.768 251.129 185.604 250.453 185.604 249.706C185.604 248.95 185.763 248.278 186.08 247.69C186.407 247.102 186.846 246.64 187.396 246.304C187.956 245.959 188.582 245.786 189.272 245.786C189.832 245.786 190.327 245.889 190.756 246.094C191.195 246.29 191.564 246.561 191.862 246.906C192.17 247.242 192.404 247.629 192.562 248.068C192.73 248.497 192.814 248.945 192.814 249.412C192.814 249.515 192.805 249.631 192.786 249.762C192.777 249.883 192.763 250 192.744 250.112H186.556V248.992H191.988L191.372 249.496C191.456 249.011 191.41 248.577 191.232 248.194C191.055 247.811 190.794 247.508 190.448 247.284C190.103 247.06 189.711 246.948 189.272 246.948C188.834 246.948 188.432 247.06 188.068 247.284C187.704 247.508 187.42 247.83 187.214 248.25C187.018 248.661 186.939 249.151 186.976 249.72C186.939 250.271 187.023 250.756 187.228 251.176C187.443 251.587 187.742 251.909 188.124 252.142C188.516 252.366 188.941 252.478 189.398 252.478C189.902 252.478 190.327 252.361 190.672 252.128C191.018 251.895 191.298 251.596 191.512 251.232L192.604 251.792C192.455 252.137 192.222 252.455 191.904 252.744C191.596 253.024 191.228 253.248 190.798 253.416C190.378 253.584 189.907 253.668 189.384 253.668ZM194.512 253.5V245.954H195.786V247.34L195.646 247.144C195.823 246.715 196.094 246.397 196.458 246.192C196.822 245.977 197.265 245.87 197.788 245.87H198.25V247.102H197.592C197.06 247.102 196.631 247.27 196.304 247.606C195.977 247.933 195.814 248.399 195.814 249.006V253.5H194.512ZM202.878 253.668C202.15 253.668 201.502 253.495 200.932 253.15C200.363 252.805 199.915 252.333 199.588 251.736C199.262 251.129 199.098 250.453 199.098 249.706C199.098 248.95 199.257 248.278 199.574 247.69C199.901 247.102 200.34 246.64 200.89 246.304C201.45 245.959 202.076 245.786 202.766 245.786C203.326 245.786 203.821 245.889 204.25 246.094C204.689 246.29 205.058 246.561 205.356 246.906C205.664 247.242 205.898 247.629 206.056 248.068C206.224 248.497 206.308 248.945 206.308 249.412C206.308 249.515 206.299 249.631 206.28 249.762C206.271 249.883 206.257 250 206.238 250.112H200.05V248.992H205.482L204.866 249.496C204.95 249.011 204.904 248.577 204.726 248.194C204.549 247.811 204.288 247.508 203.942 247.284C203.597 247.06 203.205 246.948 202.766 246.948C202.328 246.948 201.926 247.06 201.562 247.284C201.198 247.508 200.914 247.83 200.708 248.25C200.512 248.661 200.433 249.151 200.47 249.72C200.433 250.271 200.517 250.756 200.722 251.176C200.937 251.587 201.236 251.909 201.618 252.142C202.01 252.366 202.435 252.478 202.892 252.478C203.396 252.478 203.821 252.361 204.166 252.128C204.512 251.895 204.792 251.596 205.006 251.232L206.098 251.792C205.949 252.137 205.716 252.455 205.398 252.744C205.09 253.024 204.722 253.248 204.292 253.416C203.872 253.584 203.401 253.668 202.878 253.668ZM211.91 253.5V244.26H209.936V243.07H213.296V253.5H211.91ZM215.982 249.006V247.774H222.282V249.006H215.982ZM215.982 252.324V251.106H222.282V252.324H215.982ZM225.992 253.5V244.26H224.018V243.07H227.378V253.5H225.992ZM230.386 255.446V254.858C230.675 254.783 230.899 254.629 231.058 254.396C231.226 254.172 231.324 253.873 231.352 253.5H230.666V251.82H232.024V253.01C232.024 253.682 231.884 254.223 231.604 254.634C231.333 255.045 230.927 255.315 230.386 255.446ZM230.666 247.634V245.954H232.024V247.634H230.666Z" fill="black"/>
<path d="M241.5 247.5C241.5 241.977 245.977 237.5 251.5 237.5C257.023 237.5 261.5 241.977 261.5 247.5C261.5 253.023 257.023 257.5 251.5 257.5C245.977 257.5 241.5 253.023 241.5 247.5Z" fill="#FF9000"/>
<rect x="250.5" y="241.5" width="2" height="8" rx="1" fill="white"/>
<rect x="250.5" y="251.5" width="2" height="2" rx="1" fill="white"/>
<path d="M21.662 285.5V275.07H25.078C26.1327 275.07 27.052 275.285 27.836 275.714C28.62 276.143 29.2267 276.75 29.656 277.534C30.0853 278.309 30.3 279.223 30.3 280.278C30.3 281.323 30.0853 282.238 29.656 283.022C29.2267 283.806 28.62 284.417 27.836 284.856C27.052 285.285 26.1327 285.5 25.078 285.5H21.662ZM23.034 284.24H25.092C25.8667 284.24 26.534 284.077 27.094 283.75C27.6633 283.423 28.102 282.966 28.41 282.378C28.718 281.781 28.872 281.081 28.872 280.278C28.872 279.466 28.7133 278.766 28.396 278.178C28.088 277.59 27.6493 277.137 27.08 276.82C26.52 276.493 25.8573 276.33 25.092 276.33H23.034V284.24ZM32.039 285.5V275.07H38.829V276.33H33.411V279.634H38.549V280.894H33.411V284.24H38.829V285.5H32.039ZM40.5292 285.5V275.07H41.9012V284.24H46.4792V285.5H40.5292ZM48.0214 285.5V275.07H54.8114V276.33H49.3934V279.634H54.5314V280.894H49.3934V284.24H54.8114V285.5H48.0214ZM58.3316 285.5V276.33H55.5036V275.07H62.5036V276.33H59.7176V285.5H58.3316ZM63.8261 285.5V275.07H70.6161V276.33H65.1981V279.634H70.3361V280.894H65.1981V284.24H70.6161V285.5H63.8261ZM74.7362 285.5V275.07H81.3442V276.33H76.1082V279.704H80.8542V280.964H76.1082V285.5H74.7362ZM82.8983 285.5V275.07H86.5803C87.271 275.07 87.8777 275.201 88.4003 275.462C88.923 275.723 89.329 276.097 89.6183 276.582C89.917 277.067 90.0663 277.637 90.0663 278.29C90.0663 279.027 89.8797 279.653 89.5063 280.166C89.133 280.679 88.629 281.048 87.9943 281.272L90.4163 285.5H88.8203L86.2723 280.978L87.1823 281.51H84.2703V285.5H82.8983ZM84.2703 280.25H86.6223C87.033 280.25 87.3923 280.171 87.7003 280.012C88.0083 279.853 88.2463 279.625 88.4143 279.326C88.5917 279.027 88.6803 278.682 88.6803 278.29C88.6803 277.889 88.5917 277.543 88.4143 277.254C88.2463 276.955 88.0083 276.727 87.7003 276.568C87.3923 276.409 87.033 276.33 86.6223 276.33H84.2703V280.25ZM96.9605 285.668C96.2231 285.668 95.5325 285.537 94.8885 285.276C94.2445 285.005 93.6798 284.627 93.1945 284.142C92.7185 283.657 92.3451 283.087 92.0745 282.434C91.8038 281.771 91.6685 281.053 91.6685 280.278C91.6685 279.494 91.8038 278.775 92.0745 278.122C92.3451 277.469 92.7185 276.899 93.1945 276.414C93.6798 275.929 94.2398 275.555 94.8745 275.294C95.5185 275.033 96.2138 274.902 96.9605 274.902C97.7071 274.902 98.3978 275.037 99.0325 275.308C99.6765 275.569 100.236 275.943 100.712 276.428C101.198 276.904 101.576 277.469 101.846 278.122C102.126 278.775 102.266 279.494 102.266 280.278C102.266 281.053 102.126 281.771 101.846 282.434C101.576 283.087 101.198 283.657 100.712 284.142C100.236 284.627 99.6765 285.005 99.0325 285.276C98.3978 285.537 97.7071 285.668 96.9605 285.668ZM96.9605 284.394C97.5391 284.394 98.0665 284.291 98.5425 284.086C99.0185 283.871 99.4291 283.577 99.7745 283.204C100.129 282.821 100.4 282.383 100.586 281.888C100.782 281.384 100.88 280.847 100.88 280.278C100.88 279.709 100.782 279.177 100.586 278.682C100.4 278.187 100.129 277.753 99.7745 277.38C99.4291 276.997 99.0185 276.703 98.5425 276.498C98.0665 276.283 97.5391 276.176 96.9605 276.176C96.3911 276.176 95.8685 276.283 95.3925 276.498C94.9165 276.703 94.5011 276.997 94.1465 277.38C93.8011 277.753 93.5305 278.187 93.3345 278.682C93.1385 279.177 93.0405 279.709 93.0405 280.278C93.0405 280.847 93.1385 281.384 93.3345 281.888C93.5305 282.383 93.8011 282.821 94.1465 283.204C94.5011 283.577 94.9165 283.871 95.3925 284.086C95.8685 284.291 96.3911 284.394 96.9605 284.394ZM104.267 285.5V275.07H105.527L109.433 280.628H108.789L112.667 275.07H113.927V285.5H112.541V276.806L113.031 276.96L109.153 282.42H109.041L105.205 276.96L105.639 276.806V285.5H104.267Z" fill="#48AF6A"/>
<path d="M121.576 285.584C120.839 285.584 120.269 285.374 119.868 284.954C119.476 284.534 119.28 283.941 119.28 283.176V279.2H117.908V277.954H118.188C118.524 277.954 118.79 277.851 118.986 277.646C119.182 277.441 119.28 277.17 119.28 276.834V276.218H120.582V277.954H122.276V279.2H120.582V283.134C120.582 283.386 120.619 283.605 120.694 283.792C120.778 283.979 120.913 284.128 121.1 284.24C121.287 284.343 121.534 284.394 121.842 284.394C121.907 284.394 121.987 284.389 122.08 284.38C122.183 284.371 122.276 284.361 122.36 284.352V285.5C122.239 285.528 122.103 285.547 121.954 285.556C121.805 285.575 121.679 285.584 121.576 285.584ZM126.177 285.668C125.682 285.668 125.244 285.579 124.861 285.402C124.488 285.215 124.194 284.963 123.979 284.646C123.764 284.319 123.657 283.946 123.657 283.526C123.657 283.125 123.741 282.765 123.909 282.448C124.086 282.121 124.357 281.846 124.721 281.622C125.094 281.398 125.561 281.239 126.121 281.146L128.921 280.684V281.776L126.415 282.196C125.93 282.28 125.575 282.434 125.351 282.658C125.136 282.882 125.029 283.157 125.029 283.484C125.029 283.792 125.15 284.049 125.393 284.254C125.645 284.459 125.958 284.562 126.331 284.562C126.807 284.562 127.218 284.464 127.563 284.268C127.918 284.063 128.193 283.787 128.389 283.442C128.594 283.097 128.697 282.714 128.697 282.294V280.376C128.697 279.965 128.543 279.634 128.235 279.382C127.936 279.121 127.54 278.99 127.045 278.99C126.616 278.99 126.233 279.102 125.897 279.326C125.57 279.541 125.328 279.83 125.169 280.194L124.035 279.606C124.175 279.261 124.399 278.953 124.707 278.682C125.015 278.402 125.374 278.183 125.785 278.024C126.196 277.865 126.625 277.786 127.073 277.786C127.652 277.786 128.16 277.898 128.599 278.122C129.038 278.337 129.378 278.64 129.621 279.032C129.873 279.415 129.999 279.863 129.999 280.376V285.5H128.725V284.072L128.963 284.156C128.804 284.455 128.59 284.716 128.319 284.94C128.048 285.164 127.731 285.341 127.367 285.472C127.003 285.603 126.606 285.668 126.177 285.668ZM135.924 285.668C135.317 285.668 134.762 285.533 134.258 285.262C133.763 284.991 133.38 284.609 133.11 284.114L133.292 283.89V285.5H132.018V274.902H133.32V279.578L133.124 279.256C133.404 278.808 133.786 278.453 134.272 278.192C134.757 277.921 135.312 277.786 135.938 277.786C136.647 277.786 137.282 277.959 137.842 278.304C138.411 278.649 138.859 279.121 139.186 279.718C139.512 280.306 139.676 280.978 139.676 281.734C139.676 282.471 139.512 283.139 139.186 283.736C138.859 284.333 138.411 284.805 137.842 285.15C137.282 285.495 136.642 285.668 135.924 285.668ZM135.826 284.408C136.302 284.408 136.726 284.291 137.1 284.058C137.473 283.825 137.762 283.507 137.968 283.106C138.182 282.695 138.29 282.238 138.29 281.734C138.29 281.211 138.182 280.754 137.968 280.362C137.762 279.961 137.473 279.643 137.1 279.41C136.726 279.167 136.302 279.046 135.826 279.046C135.35 279.046 134.92 279.163 134.538 279.396C134.164 279.629 133.866 279.951 133.642 280.362C133.427 280.763 133.32 281.221 133.32 281.734C133.32 282.238 133.427 282.695 133.642 283.106C133.866 283.507 134.164 283.825 134.538 284.058C134.92 284.291 135.35 284.408 135.826 284.408ZM141.383 285.5V274.902H142.685V285.5H141.383ZM148.177 285.668C147.449 285.668 146.801 285.495 146.231 285.15C145.662 284.805 145.214 284.333 144.887 283.736C144.561 283.129 144.397 282.453 144.397 281.706C144.397 280.95 144.556 280.278 144.873 279.69C145.2 279.102 145.639 278.64 146.189 278.304C146.749 277.959 147.375 277.786 148.065 277.786C148.625 277.786 149.12 277.889 149.549 278.094C149.988 278.29 150.357 278.561 150.655 278.906C150.963 279.242 151.197 279.629 151.355 280.068C151.523 280.497 151.607 280.945 151.607 281.412C151.607 281.515 151.598 281.631 151.579 281.762C151.57 281.883 151.556 282 151.537 282.112H145.349V280.992H150.781L150.165 281.496C150.249 281.011 150.203 280.577 150.025 280.194C149.848 279.811 149.587 279.508 149.241 279.284C148.896 279.06 148.504 278.948 148.065 278.948C147.627 278.948 147.225 279.06 146.861 279.284C146.497 279.508 146.213 279.83 146.007 280.25C145.811 280.661 145.732 281.151 145.769 281.72C145.732 282.271 145.816 282.756 146.021 283.176C146.236 283.587 146.535 283.909 146.917 284.142C147.309 284.366 147.734 284.478 148.191 284.478C148.695 284.478 149.12 284.361 149.465 284.128C149.811 283.895 150.091 283.596 150.305 283.232L151.397 283.792C151.248 284.137 151.015 284.455 150.697 284.744C150.389 285.024 150.021 285.248 149.591 285.416C149.171 285.584 148.7 285.668 148.177 285.668ZM153.837 287.446V286.858C154.126 286.783 154.35 286.629 154.509 286.396C154.677 286.172 154.775 285.873 154.803 285.5H154.117V283.82H155.475V285.01C155.475 285.682 155.335 286.223 155.055 286.634C154.784 287.045 154.378 287.315 153.837 287.446ZM154.117 279.634V277.954H155.475V279.634H154.117Z" fill="black"/>
<path d="M164.5 279.5C164.5 273.977 168.977 269.5 174.5 269.5C180.023 269.5 184.5 273.977 184.5 279.5C184.5 285.023 180.023 289.5 174.5 289.5C168.977 289.5 164.5 285.023 164.5 279.5Z" fill="#E70000"/>
<path fill-rule="evenodd" clip-rule="evenodd" d="M170.793 275.793C171.183 275.402 171.817 275.402 172.207 275.793L174.5 278.086L176.793 275.793C177.183 275.402 177.817 275.402 178.207 275.793C178.598 276.183 178.598 276.817 178.207 277.207L175.914 279.5L178.207 281.793C178.598 282.183 178.598 282.817 178.207 283.207C177.817 283.598 177.183 283.598 176.793 283.207L174.5 280.914L172.207 283.207C171.817 283.598 171.183 283.598 170.793 283.207C170.402 282.817 170.402 282.183 170.793 281.793L173.086 279.5L170.793 277.207C170.402 276.817 170.402 276.183 170.793 275.793Z" fill="white"/>
<rect x="329" width="130" height="130" rx="65" fill="white"/>
<rect x="329.5" y="0.5" width="129" height="129" rx="64.5" stroke="black" stroke-opacity="0.15"/>
<path d="M369.212 33.5703C369.212 33.0531 369.632 32.6328 370.149 32.6328H396.083C396.601 32.6328 397.021 33.0531 397.021 33.5703C397.021 34.0875 396.601 34.5078 396.083 34.5078H370.149C369.63 34.5078 369.212 34.0875 369.212 33.5703ZM370.149 39.8766H396.083C396.601 39.8766 397.021 39.4563 397.021 38.9391C397.021 38.4219 396.601 38.0016 396.083 38.0016H370.149C369.632 38.0016 369.212 38.4219 369.212 38.9391C369.212 39.4563 369.63 39.8766 370.149 39.8766ZM370.149 45.2453H396.083C396.601 45.2453 397.021 44.825 397.021 44.3078C397.021 43.7906 396.601 43.3703 396.083 43.3703H370.149C369.632 43.3703 369.212 43.7906 369.212 44.3078C369.212 44.825 369.63 45.2453 370.149 45.2453ZM390.316 76.1188C382.562 76.1188 376.254 69.8094 376.254 62.0563C376.254 54.3031 382.563 47.9938 390.316 47.9938C398.069 47.9938 404.379 54.3031 404.379 62.0563C404.379 69.8094 398.071 76.1188 390.316 76.1188ZM402.504 62.0547C402.504 55.3344 397.037 49.8672 390.316 49.8672C383.596 49.8672 378.129 55.3344 378.129 62.0547C378.129 68.775 383.596 74.2422 390.316 74.2422C397.037 74.2422 402.504 68.7766 402.504 62.0547ZM396.26 57.1844L388.508 64.9359L384.373 60.8C384.007 60.4344 383.413 60.4344 383.048 60.8C382.682 61.1656 382.682 61.7594 383.048 62.1266L387.846 66.925C388.021 67.1 388.26 67.2 388.508 67.2C388.757 67.2 388.996 67.1016 389.171 66.925L397.587 58.5094C397.952 58.1438 397.952 57.55 397.587 57.1828C397.219 56.8188 396.626 56.8187 396.26 57.1844ZM398.501 93.8906V89.1687C398.501 86.0672 401.024 83.5453 404.124 83.5453H410.498C410.841 80.7062 410.863 78.1219 410.558 75.6812C407.537 74.2125 405.613 71.1859 405.613 67.8266C405.613 63.0156 409.558 59.1031 414.408 59.1031C414.998 59.1031 415.573 59.1625 416.13 59.2719V44.9734H401.316C400.799 44.9734 400.379 44.5531 400.379 44.0359V29.2188H368.74C367.085 29.2188 365.74 30.5641 365.74 32.2188V95.5859C365.74 97.2406 367.085 98.5859 368.74 98.5859H398.502V96.8156C398.502 96.2984 398.923 95.8781 399.44 95.8781H429.127C429.644 95.8781 430.065 96.2984 430.065 96.8156V101.719C430.065 102.236 429.644 102.656 429.127 102.656H399.44C398.923 102.656 398.502 102.236 398.502 101.719V100.463H368.74C366.051 100.463 363.865 98.275 363.865 95.5875V32.2188C363.865 29.5297 366.052 27.3438 368.74 27.3438H401.318C401.566 27.3438 401.805 27.4422 401.98 27.6188L417.732 43.3703C417.908 43.5469 418.007 43.7844 418.007 44.0328V59.8656C421.068 61.2328 423.205 64.2844 423.205 67.8234C423.205 71.1734 421.304 74.1875 418.315 75.6531C418.08 78.5031 418.088 81.0953 418.332 83.5437H424.438C427.538 83.5437 430.062 86.0672 430.062 89.1672V93.8891C430.062 94.4062 429.641 94.8266 429.124 94.8266H399.437C398.921 94.8281 398.501 94.4078 398.501 93.8906ZM400.376 100.781H428.188V97.7547H400.376V100.781ZM402.255 43.0969H414.807L402.255 30.5453V43.0969ZM412.39 83.5453H416.449C416.196 80.8766 416.21 78.0547 416.496 74.9406C416.527 74.5938 416.749 74.2922 417.073 74.1594C419.66 73.0922 421.332 70.6062 421.332 67.825C421.332 64.0484 418.227 60.9766 414.412 60.9766C410.596 60.9766 407.491 64.0484 407.491 67.825C407.491 70.6062 409.174 73.0969 411.779 74.1719C412.085 74.2984 412.302 74.5766 412.349 74.9047C412.737 77.5969 412.751 80.4313 412.39 83.5453ZM400.376 92.9531H428.188V89.1687C428.188 87.1016 426.507 85.4203 424.44 85.4203H404.124C402.057 85.4203 400.376 87.1016 400.376 89.1687V92.9531ZM369.148 82.6969H374.518C374.93 82.6969 375.28 82.9641 375.405 83.3359C376.629 83.2406 377.474 82.9359 377.873 82.4406C378.479 81.6859 378.179 80.3172 377.913 79.1094C377.648 77.9016 377.398 76.7594 378.037 75.9656C378.383 75.5328 378.905 75.3141 379.585 75.3141C382.251 75.3141 384.418 77.4828 384.418 80.1469V83.5031L386.737 83.4469C387.863 83.4188 388.89 83.8219 389.698 84.6109C390.505 85.4 390.932 86.4141 390.932 87.5422V90.9531C390.932 93 389.746 95.4391 387.48 96.1391C385.788 96.6625 384.158 96.875 382.602 96.875C379.98 96.875 377.563 96.2703 375.382 95.5234C375.241 95.8625 374.907 96.1016 374.516 96.1016H369.148C368.63 96.1016 368.21 95.6813 368.21 95.1641V83.6344C368.21 83.1172 368.629 82.6969 369.148 82.6969ZM375.455 85.2109V93.5625C378.894 94.8 382.66 95.6672 386.929 94.3484C388.262 93.9359 389.058 92.2984 389.058 90.9531V87.5422C389.058 86.9125 388.84 86.3922 388.388 85.9531C387.938 85.5141 387.41 85.3078 386.783 85.3219L383.504 85.4016C383.246 85.4094 383.007 85.3109 382.826 85.1359C382.644 84.9594 382.543 84.7172 382.543 84.4656V80.1484C382.543 78.5172 381.216 77.1906 379.585 77.1906C379.554 77.1906 379.527 77.1922 379.507 77.1938C379.48 77.5047 379.638 78.2188 379.744 78.7094C380.082 80.2484 380.502 82.1641 379.333 83.6172C378.574 84.5578 377.299 85.0828 375.455 85.2109ZM370.085 94.2266H373.58V84.5719H370.085V94.2266Z" fill="black"/>
<path d="M524.08 194.37L523.59 194.26C523.503 193.771 523.272 193.32 522.926 192.963C522.581 192.607 522.136 192.362 521.65 192.26L518.85 191.68L518.69 190.36C523.04 188.19 525.93 183.53 525.93 177.86C525.927 177.167 525.876 176.476 525.78 175.79C525.785 175.733 525.785 175.677 525.78 175.62C524.8 168.84 519.65 164 513 164C505.65 164 500.09 170 500.09 177.83C500.005 180.379 500.636 182.901 501.912 185.109C503.189 187.316 505.059 189.122 507.31 190.32L507.15 191.63L504.27 192.23C503.778 192.337 503.329 192.589 502.983 192.955C502.637 193.321 502.41 193.783 502.33 194.28L501.93 194.37C498.51 194.591 495.301 196.105 492.956 198.604C490.61 201.104 489.303 204.402 489.3 207.83V219.66C489.303 220.81 489.761 221.913 490.574 222.726C491.388 223.539 492.49 223.997 493.64 224H532.38C533.528 223.995 534.627 223.535 535.436 222.722C536.246 221.908 536.7 220.808 536.7 219.66V207.83C536.697 204.404 535.392 201.107 533.049 198.608C530.705 196.108 527.499 194.593 524.08 194.37ZM521.25 194.19C521.376 194.217 521.485 194.291 521.556 194.398C521.627 194.504 521.654 194.634 521.63 194.76C520.38 201.16 519.04 202.81 518.63 202.88C517.63 202.82 515.94 201.07 514.31 198.42C514.251 198.327 514.226 198.217 514.239 198.108C514.252 197.998 514.302 197.897 514.38 197.82L518.55 193.64L521.25 194.19ZM513 196.41L512.94 196.47L512.89 196.41L509.03 192.54L509.21 191.1C511.668 191.845 514.292 191.845 516.75 191.1L516.92 192.47L513 196.41ZM513 166C518.46 166 522.61 169.71 523.66 175.12C520.68 175.781 517.565 175.461 514.78 174.21L514.37 174.01C513.373 173.42 512.229 173.126 511.07 173.16C510.229 173.295 509.425 173.605 508.71 174.07L508.23 174.34C506.421 175.297 504.337 175.601 502.33 175.2C503.35 169.74 507.53 166 513 166ZM502.09 177.83C502.09 177.61 502.09 177.4 502.09 177.19C504.499 177.631 506.986 177.247 509.15 176.1L509.68 175.81C510.159 175.49 510.696 175.266 511.26 175.15C512.049 175.168 512.819 175.396 513.49 175.81L514 176C516.097 176.955 518.376 177.447 520.68 177.44C521.779 177.441 522.874 177.33 523.95 177.11C523.95 177.34 523.95 177.57 523.95 177.81C523.95 184.66 519.36 189.64 513.03 189.64C506.7 189.64 502.09 184.68 502.09 177.83ZM504.68 194.19L507.33 193.64L511.49 197.82C511.569 197.897 511.619 197.998 511.632 198.108C511.644 198.217 511.619 198.327 511.56 198.42C509.93 201.07 508.24 202.82 507.25 202.88C506.88 202.81 505.54 201.16 504.3 194.76C504.277 194.634 504.303 194.504 504.374 194.398C504.445 194.291 504.555 194.217 504.68 194.19ZM498 222H493.64C493.02 222 492.424 221.753 491.986 221.315C491.547 220.876 491.3 220.281 491.3 219.66V216.85L498.3 218.64L498 222ZM534.7 219.66C534.702 219.966 534.643 220.269 534.527 220.552C534.411 220.836 534.24 221.093 534.025 221.31C533.809 221.528 533.553 221.701 533.271 221.819C532.989 221.937 532.686 221.999 532.38 222H527.94L527.65 218.54L534.7 216.74V219.66ZM534.7 214.66L527.47 216.51L526.92 210.04C526.91 209.909 526.874 209.78 526.814 209.663C526.755 209.545 526.672 209.441 526.572 209.355C526.471 209.27 526.355 209.205 526.229 209.165C526.104 209.124 525.972 209.109 525.84 209.12C525.709 209.131 525.581 209.169 525.464 209.23C525.347 209.291 525.243 209.374 525.158 209.475C525.074 209.577 525.01 209.694 524.971 209.82C524.932 209.946 524.918 210.079 524.93 210.21L525.93 221.99H500L501 210.21C501.013 210.079 500.999 209.946 500.96 209.82C500.921 209.694 500.857 209.577 500.772 209.475C500.688 209.374 500.584 209.291 500.467 209.23C500.35 209.169 500.222 209.131 500.09 209.12C499.958 209.108 499.825 209.122 499.698 209.162C499.571 209.201 499.454 209.266 499.352 209.351C499.251 209.437 499.168 209.542 499.107 209.66C499.047 209.779 499.01 209.908 499 210.04L498.44 216.61L491.3 214.79V207.79C491.311 204.866 492.436 202.055 494.446 199.932C496.456 197.808 499.201 196.531 502.12 196.36H502.27L502.57 196.3C504.28 204.3 506.2 204.9 507.13 204.9H507.36C509.01 204.8 510.66 203.18 512.01 201.37V208C512.01 208.265 512.116 208.52 512.303 208.707C512.491 208.895 512.745 209 513.01 209C513.276 209 513.53 208.895 513.717 208.707C513.905 208.52 514.01 208.265 514.01 208V201.46C515.33 203.22 516.95 204.77 518.56 204.87H518.79C519.73 204.87 521.64 204.28 523.36 196.25L523.73 196.33H523.88C526.812 196.501 529.566 197.788 531.579 199.927C533.591 202.066 534.708 204.894 534.7 207.83V214.66ZM510 211.7H505.76C504.995 211.703 504.261 212.008 503.72 212.549C503.178 213.091 502.873 213.824 502.87 214.59V215.32C502.87 216.086 503.175 216.822 503.717 217.364C504.259 217.906 504.994 218.21 505.76 218.21H510C510.767 218.21 511.502 217.906 512.044 217.364C512.586 216.822 512.89 216.086 512.89 215.32V214.59C512.888 213.824 512.582 213.091 512.041 212.549C511.5 212.008 510.766 211.703 510 211.7ZM510.89 215.32C510.89 215.556 510.797 215.782 510.63 215.949C510.463 216.116 510.236 216.21 510 216.21H505.76C505.524 216.21 505.298 216.116 505.131 215.949C504.964 215.782 504.87 215.556 504.87 215.32V214.59C504.87 214.354 504.964 214.128 505.131 213.961C505.298 213.794 505.524 213.7 505.76 213.7H510C510.236 213.7 510.463 213.794 510.63 213.961C510.797 214.128 510.89 214.354 510.89 214.59V215.32Z" fill="black"/>
<path d="M519.377 304.409H518.264C517.596 304.409 517.15 304.849 517.15 305.51C517.15 306.17 517.596 306.61 518.264 306.61H519.377C520.045 306.61 520.491 306.17 520.491 305.51C520.491 304.849 520.045 304.409 519.377 304.409Z" fill="black"/>
<path d="M519.377 308.922H518.264C517.596 308.922 517.15 309.362 517.15 310.023C517.15 310.683 517.596 311.123 518.264 311.123H519.377C520.045 311.123 520.491 310.683 520.491 310.023C520.491 309.362 520.045 308.922 519.377 308.922Z" fill="black"/>
<path fill-rule="evenodd" clip-rule="evenodd" d="M500.752 260.677C503.077 256.517 508.046 254.643 515.438 255.056L515.489 255.081L517.811 255.4C520.806 256.278 523.467 257.379 525.134 259.9L525.133 259.915L526.164 262.331C526.156 262.33 526.148 262.329 526.14 262.328C526.585 263.869 526.696 265.85 526.474 268.382C526.484 268.383 526.494 268.385 526.504 268.386L526.458 268.454L526.166 270.477C526.157 270.476 526.148 270.474 526.14 270.473C526.028 271.024 525.917 271.684 525.806 272.344C526.696 273.005 527.587 274.766 527.587 276.637C527.601 276.639 527.615 276.641 527.629 276.642L527.601 276.677L527.006 278.936L527.026 278.954C526.916 279.065 526.806 279.282 526.696 279.499C526.251 280.27 525.583 281.37 524.247 281.921C523.356 282.251 523.579 285.113 519.904 288.085V292.048L520.795 293.258C525.806 293.919 536.384 295.9 537.497 302.284L539.168 311.861C539.279 312.521 538.722 313.182 538.054 313.182H487.946C487.278 313.182 486.721 312.521 486.833 311.861L488.503 302.284C489.616 296.01 500.195 293.919 505.317 293.258L505.985 292.158V288.085C503.535 286.214 502.533 283.792 502.088 282.471C502.088 282.361 501.754 282.031 501.531 281.921C498.079 280.6 496.854 274.546 500.306 272.454C499.638 270.143 498.413 264.859 500.752 260.677ZM518.011 300.633C517.677 301.294 516.675 301.404 516.229 300.854L512.889 297.111L509.548 300.854C509.103 301.404 508.101 301.294 507.767 300.633L505.094 295.46C498.302 296.34 491.287 298.652 490.619 302.615L489.171 310.87H496.966V305.367C496.966 304.706 497.411 304.266 498.079 304.266C498.747 304.266 499.193 304.706 499.193 305.367V310.87H526.696V305.367C526.696 304.706 527.142 304.266 527.81 304.266C528.478 304.266 528.923 304.706 528.923 305.367V310.87H536.718L535.27 302.615C534.602 298.652 527.699 296.451 521.129 295.46L518.011 300.633ZM507.099 294.579L508.992 298.212L511.219 295.68L507.544 293.809L507.099 294.579ZM514.67 295.68L516.898 298.212L519.013 294.579L518.456 293.809L514.67 295.68ZM517.677 289.516C516.118 290.286 514.559 290.617 512.889 290.617C511.219 290.617 509.548 290.286 508.101 289.516V291.717L512.889 294.139L517.677 291.717V289.516ZM518.902 267.941C518.679 267.941 518.345 268.052 518.011 268.272C513.446 271.794 507.544 274.656 501.754 273.996C499.527 274.656 500.417 278.949 502.31 279.719C503.09 279.94 503.869 280.71 504.203 281.591C506.096 287.314 512.666 290.176 517.677 286.874C520.238 285.223 521.352 282.801 521.686 281.591C522.02 280.82 522.799 280.05 523.467 279.829C524.135 279.609 524.358 279.169 524.803 278.178C525.917 276.197 524.803 273.996 524.247 273.885C523.133 273.665 520.683 269.593 520.127 268.602C519.904 268.162 519.459 267.941 518.902 267.941ZM516.007 257.264C509.437 256.714 505.094 258.035 502.979 261.117C500.529 264.859 501.976 270.253 502.422 272.014H503.424C508.88 272.014 514.002 268.602 516.563 266.621C518.345 265.3 520.906 265.74 522.02 267.721C522.576 268.822 523.133 269.703 523.801 270.583C525.806 260.126 521.24 258.805 516.898 257.484C516.675 257.374 516.341 257.264 516.007 257.264Z" fill="black"/>
<rect x="585" y="12" width="123" height="120" rx="8" fill="white"/>
<rect x="585.5" y="12.5" width="122" height="119" rx="7.5" stroke="black" stroke-opacity="0.4"/>
<rect x="609.5" y="24" width="74" height="74" rx="37" fill="white"/>
<g clip-path="url(#clip0_20523_12627)">
<path d="M671.61 46.4653C669.669 46.0084 667.133 45.725 664.398 45.6541V43.1055C664.398 41.575 662.548 40.413 658.743 39.5533C655.463 38.8123 651.115 38.4043 646.5 38.4043C643.989 38.4043 641.566 38.5237 639.3 38.759C638.833 38.8075 638.494 39.225 638.543 39.6917C638.591 40.1586 639.009 40.4968 639.475 40.4491C641.684 40.2199 644.047 40.1035 646.5 40.1035C650.993 40.1035 655.207 40.4967 658.368 41.2107C661.928 42.0151 662.699 42.9237 662.699 43.1055C662.699 43.2873 661.928 44.1958 658.368 45.0002C652.185 46.4654 640.815 46.4654 634.632 45.0002C631.072 44.1958 630.301 43.2872 630.301 43.1055C630.301 42.8947 631.23 41.8613 635.524 41.0235C635.984 40.9336 636.285 40.4874 636.195 40.0268C636.105 39.5664 635.66 39.2657 635.198 39.3556C630.759 40.2219 628.602 41.4484 628.602 43.1055V45.6541C625.867 45.725 623.331 46.0083 621.39 46.4653C618.772 47.0813 617.5 47.9462 617.5 49.1094V74.4844C617.5 75.6475 618.772 76.5123 621.39 77.1285C623.331 77.5853 625.867 77.8688 628.602 77.9396V78.9023C628.602 80.4328 630.452 81.5948 634.257 82.4545C640.684 83.9747 652.316 83.9747 658.743 82.4545C662.549 81.5947 664.399 80.4327 664.399 78.9023V77.9397C665.518 77.9108 666.608 77.8467 667.648 77.7469C668.116 77.702 668.458 77.2872 668.413 76.8201C668.368 76.3529 667.951 76.0106 667.486 76.0554C666.499 76.1499 665.463 76.2115 664.398 76.2398V71.5958C668.064 71.437 670.958 71.2263 673.801 70.0748V74.426C673.673 74.5961 673.024 75.0501 671.221 75.4742C670.764 75.5817 670.481 76.0392 670.589 76.4959C670.694 76.9562 671.166 77.2368 671.61 77.1284C674.228 76.5123 675.5 75.6474 675.5 74.4844V49.1094C675.5 47.9462 674.228 47.0813 671.61 46.4653ZM673.801 61.7385C672.271 63.0392 667.304 63.4716 664.398 63.5523V58.9083C668.064 58.7495 670.958 58.5388 673.801 57.3873V61.7385ZM628.602 57.2085C625.712 57.1312 620.713 56.6919 619.199 55.3948V51.0435C622.043 52.1949 624.935 52.4056 628.602 52.5646V57.2085ZM619.199 61.7385V57.3873C622.043 58.5388 624.936 58.7494 628.602 58.9083V63.5524C625.712 63.4749 620.713 63.0356 619.199 61.7385ZM630.301 63.2063C631.231 63.7213 632.546 64.1694 634.257 64.5562C640.684 66.0764 652.316 66.0764 658.743 64.5562C660.454 64.1694 661.769 63.7214 662.699 63.2063V69.9531C662.699 70.1348 661.929 71.0435 658.368 71.8479C652.185 73.313 640.815 73.313 634.632 71.8479C631.072 71.0435 630.301 70.1348 630.301 69.9531V63.2063ZM673.801 55.3948C672.271 56.6955 667.304 57.1279 664.398 57.2085V52.5646C668.064 52.4056 670.958 52.195 673.801 51.0435V55.3948ZM670.767 48.0184C672.714 48.4273 673.514 48.8869 673.748 49.1094C671.98 50.3881 667.402 50.768 664.398 50.8649V47.3537C666.776 47.4179 669.011 47.6496 670.767 48.0184ZM634.257 46.6576C640.684 48.1779 652.316 48.1779 658.743 46.6576C660.454 46.2709 661.769 45.8229 662.699 45.3078V52.0546C662.699 52.3097 661.524 53.525 656.097 54.3787C655.633 54.4516 655.317 54.8864 655.39 55.3499C655.46 55.8159 655.908 56.1317 656.361 56.0573C659.249 55.6029 661.365 54.9993 662.699 54.253V61.0038C662.699 61.1855 661.929 62.0941 658.368 62.8985C652.185 64.3637 640.815 64.3637 634.632 62.8985C631.072 62.0942 630.301 61.1856 630.301 61.0039V54.2571C631.231 54.7721 632.546 55.2202 634.257 55.607C637.537 56.3478 641.885 56.756 646.5 56.756C648.512 56.756 650.483 56.6784 652.359 56.5254C652.827 56.4873 653.175 56.0772 653.137 55.6096C653.098 55.1418 652.688 54.7953 652.221 54.8318C650.391 54.9811 648.466 55.0568 646.5 55.0568C642.007 55.0568 637.792 54.6636 634.632 53.9495C631.072 53.145 630.301 52.2364 630.301 52.0547V45.3079C631.231 45.8229 632.546 46.271 634.257 46.6576ZM622.233 48.0184C623.989 47.6496 626.224 47.4179 628.602 47.3539V50.8649C625.611 50.7705 621.007 50.3854 619.252 49.1095C619.486 48.8869 620.286 48.4272 622.233 48.0184ZM622.233 75.5754C620.095 75.1265 619.34 74.6163 619.199 74.4261V70.0748C619.774 70.339 620.497 70.5736 621.371 70.7802C621.815 70.8891 622.287 70.6089 622.393 70.1489C622.501 69.6922 622.218 69.2346 621.762 69.1266C619.972 68.7035 619.326 68.2518 619.199 68.0825V63.7313C622.043 64.8828 624.936 65.0934 628.602 65.2523V69.8965C627.575 69.8691 626.574 69.8108 625.618 69.7218C625.152 69.6789 624.737 70.0217 624.693 70.4889C624.65 70.9561 624.993 71.3702 625.46 71.4137C626.468 71.5075 627.522 71.5682 628.602 71.5962V76.24C626.224 76.1758 623.989 75.9441 622.233 75.5754ZM658.368 80.797C652.185 82.2621 640.815 82.2621 634.632 80.797C631.072 79.9927 630.301 79.084 630.301 78.9023V72.1555C631.231 72.6705 632.546 73.1187 634.257 73.5054C640.684 75.0256 652.316 75.0256 658.743 73.5054C660.454 73.1187 661.769 72.6706 662.699 72.1555V78.9023C662.699 79.084 661.928 79.9927 658.368 80.797ZM670.767 69.2316C669.011 69.6004 666.776 69.8321 664.398 69.8961V65.2521C668.064 65.0932 670.958 64.8825 673.801 63.731V68.0823C673.66 68.2725 672.905 68.7826 670.767 69.2316Z" fill="black"/>
</g>
<path d="M633.22 96.736L633.044 97.376C633.385 98.9013 633.828 100.272 634.372 101.488C634.831 100.112 635.092 98.528 635.156 96.736H633.22ZM633.604 103.248C633.092 102.224 632.639 101.045 632.244 99.712C632.02 100.213 631.769 100.709 631.492 101.2L630.452 99.904C631.337 98.144 631.929 95.792 632.228 92.848L633.86 93.136C633.753 93.9467 633.652 94.608 633.556 95.12H637.556V96.736H636.692C636.596 99.3067 636.137 101.493 635.316 103.296C636.073 104.523 636.985 105.493 638.052 106.208L637.092 107.632C636.111 106.917 635.247 105.979 634.5 104.816C633.732 105.979 632.799 106.955 631.7 107.744L630.804 106.304C631.956 105.547 632.889 104.528 633.604 103.248ZM627.62 100.464C627.545 100.699 627.465 100.923 627.38 101.136H630.58V102.544C630.335 103.451 629.86 104.261 629.156 104.976C629.721 105.221 630.308 105.504 630.916 105.824L630.004 107.168C629.353 106.784 628.628 106.405 627.828 106.032C626.804 106.683 625.487 107.221 623.876 107.648L623.076 106.208C624.207 105.952 625.188 105.632 626.02 105.248C625.263 104.939 624.596 104.672 624.02 104.448C624.404 103.808 624.74 103.2 625.028 102.624H623.46V101.136H625.684C625.919 100.485 626.025 100.197 626.004 100.272L627.62 100.464ZM627.572 104.336C628.233 103.813 628.724 103.243 629.044 102.624H626.724C626.585 102.891 626.367 103.28 626.068 103.792C626.409 103.899 626.911 104.08 627.572 104.336ZM625.012 93.168C625.364 93.744 625.679 94.3733 625.956 95.056L624.676 95.632C624.367 94.8853 624.02 94.2133 623.636 93.616L625.012 93.168ZM630.756 93.728C630.425 94.4213 630.02 95.0773 629.54 95.696L628.324 95.056C628.772 94.4053 629.145 93.7493 629.444 93.088L630.756 93.728ZM623.508 95.776H626.484V92.88H628.02V95.776H630.74V97.232H628.02V97.264C628.852 97.5947 629.7 97.9787 630.564 98.416L629.7 99.728C629.028 99.1947 628.468 98.7787 628.02 98.48V100.16H626.484V97.648C625.94 98.736 625.097 99.6907 623.956 100.512L623.124 99.168C624.18 98.5707 624.943 97.9253 625.412 97.232H623.508V95.776ZM639.78 107.52L639.428 105.952C639.897 106.027 640.281 106.064 640.58 106.064C640.921 106.064 641.092 105.861 641.092 105.456V102.224C640.249 102.523 639.711 102.709 639.476 102.784L639.044 101.136C639.748 100.976 640.431 100.784 641.092 100.56V97.36H639.364V95.744H641.092V92.912H642.724V95.744H644.084V97.36H642.724V99.904C643.247 99.6587 643.679 99.4453 644.02 99.264V100.896L642.724 101.536V105.872C642.724 106.971 642.196 107.52 641.14 107.52H639.78ZM646.196 100.624C646.004 103.28 645.401 105.637 644.388 107.696L643.076 106.528C644.111 104.501 644.639 101.883 644.66 98.672V93.36H653.428V97.6H650.548V99.104H653.78V100.624H650.548V102.16H653.076V107.664H651.54V107.008H647.94V107.664H646.404V102.16H648.916V100.624H646.196ZM648.916 97.6H646.276V98.88L646.26 99.104H648.916V97.6ZM647.94 105.536H651.54V103.632H647.94V105.536ZM651.796 94.88H646.276V96.128H651.796V94.88ZM663.348 92.752C663.657 93.3173 663.887 93.776 664.036 94.128H669.684V95.76H658.02V99.12C657.977 102.661 657.471 105.509 656.5 107.664L655.076 106.4C655.876 104.661 656.292 102.235 656.324 99.12V94.128H662.164C661.94 93.7227 661.711 93.3707 661.476 93.072L663.348 92.752ZM661.764 95.904L663.348 96.272L663.044 97.232H668.98V98.688H662.484C662.1 99.584 661.711 100.352 661.316 100.992H663.572V99.312H665.236V100.992H668.644V102.496H665.236V103.776H669.828V105.296H665.236V107.696H663.572V105.296H658.052V103.776H663.572V102.496H659.636L659.284 101.024C659.764 100.427 660.233 99.648 660.692 98.688H658.644V97.232H661.3C661.364 97.072 661.444 96.8533 661.54 96.576L661.764 95.904Z" fill="#26272B"/>
<path d="M581.172 68L458.365 68" stroke="#0087C7" stroke-linecap="round"/>
<path d="M576 62L582 68L576 74" stroke="#0087C7" stroke-linecap="round" stroke-linejoin="round"/>
<path d="M323.497 68L100.48 68" stroke="#0087C7" stroke-linecap="round"/>
<path d="M319 62L325 68L319 74" stroke="#0087C7" stroke-linecap="round" stroke-linejoin="round"/>
<mask id="mask0_20523_12627" style="mask-type:luminance" maskUnits="userSpaceOnUse" x="6" y="8" width="103" height="103">
<path d="M6 7.99999H109V111H6V7.99999Z" fill="white"/>
</mask>
<g mask="url(#mask0_20523_12627)">
<path d="M91.8611 58.4865V79.4442C91.8611 80.2808 92.4954 80.959 93.2779 80.959C94.0604 80.959 94.6947 80.2808 94.6947 79.4442V58.4865C94.6947 56.643 93.9499 54.8909 92.6546 53.6788L92.5925 53.6214L88.4464 49.848C87.8505 49.3058 86.9564 49.3827 86.4492 50.0198C85.9421 50.6568 86.014 51.6129 86.6098 52.1551L90.7558 55.9283L90.8206 55.989C91.4818 56.625 91.8611 57.5325 91.8611 58.4865Z" fill="black"/>
<path d="M64.4946 82.4251V83.5668L36.9801 83.564L28.6882 83.5212C28.6857 83.5211 28.6832 83.5212 28.6807 83.5212C28.0856 83.5212 27.3699 83.0972 26.5187 82.2574L26.5185 82.2573L16.9709 72.8422C13.5273 69.4465 11.7912 64.6843 11.8844 59.6548C11.9004 58.7954 11.2375 58.0853 10.4039 58.0689C9.59622 58.0529 8.92452 58.6938 8.86887 59.5153L8.86548 59.5952L8.86194 59.8672C8.82107 65.5735 10.8295 71.0939 14.8836 75.0916L24.4314 84.5069C25.3512 85.4141 26.8189 86.6307 28.6732 86.6339L36.965 86.6768L66.0042 86.6797C66.4046 86.6797 66.7888 86.5157 67.0719 86.2238C67.3551 85.9319 67.5141 85.536 67.5141 85.1232V82.4251C67.5141 76.4154 62.8815 71.4949 57.0564 71.3134L57.0565 71.3133L35.063 70.4611L26.6826 61.118L26.6285 61.0605C26.0572 60.485 25.1422 60.4666 24.5492 61.0319C23.937 61.6155 23.8996 62.6004 24.4657 63.2315L32.8938 72.6277C33.411 73.2044 34.1303 73.5431 34.8908 73.5694L56.9432 74.4241L57.0543 74.428C61.2064 74.6057 64.4945 78.129 64.4946 82.4251Z" fill="black"/>
<path d="M30.3193 90.5171C30.3193 93.1386 32.2019 95.2637 34.5242 95.2637H106.038C106.884 95.2637 107.569 94.4896 107.569 93.5346V87.174C107.569 84.531 105.671 82.3887 103.33 82.3887H34.5242C32.2019 82.3887 30.3193 84.5138 30.3193 87.1353V90.5171ZM33.3827 87.1353C33.3828 86.4236 33.8938 85.8468 34.5242 85.8468H103.33C103.979 85.8468 104.506 86.441 104.506 87.174V91.8056H34.5242C33.8938 91.8056 33.3827 91.2287 33.3827 90.5171V87.1353Z" fill="black"/>
<path d="M44.2198 93.7134C44.1055 92.8841 43.3347 92.3037 42.498 92.4169C41.6614 92.5302 41.0757 93.2943 41.19 94.1236L44.2198 93.7134ZM42.3551 110.952L42.355 110.952C44.599 110.948 46.3246 108.985 46.0209 106.782L44.2198 93.7134L41.19 94.1236L42.9909 107.192L42.995 107.228C43.0252 107.598 42.7299 107.921 42.3498 107.921L14.5901 107.969C12.2949 107.973 10.4448 106.106 10.4895 103.832L10.6243 96.9781L10.6239 96.8999C10.5986 96.0986 9.94321 95.449 9.12532 95.4332C8.28105 95.417 7.58334 96.0822 7.56688 96.919L7.43205 103.773C7.354 107.746 10.586 111.007 14.5953 111L42.3551 110.952Z" fill="black"/>
<path d="M8.89637 89.5407C9.72171 89.5561 10.4038 88.9268 10.4199 88.1352L11.04 57.609C11.0402 57.5997 11.0403 57.5903 11.0403 57.581C11.0403 56.7043 11.3005 54.9922 12.03 53.2893C12.6857 51.7585 13.6468 50.4035 14.958 49.5981L27.5849 52.946C32.7495 57.3249 36.092 63.3504 36.9884 69.9131C36.9888 69.9157 36.9892 69.9184 36.9896 69.921L37.3574 72.5037C37.4692 73.2882 38.2229 73.8373 39.0408 73.7301C39.8587 73.6229 40.4313 72.9 40.3195 72.1155L39.9525 69.5407C38.9464 62.1748 35.1509 55.4212 29.2888 50.5661C29.1213 50.4273 28.9236 50.326 28.7102 50.2694L15.1581 46.6762C14.8009 46.5815 14.4197 46.6174 14.0886 46.777C11.6307 47.9622 10.1363 50.1653 9.2648 52.1996C8.39703 54.2253 8.05587 56.2914 8.0509 57.5532L7.43095 88.0795C7.41491 88.8711 8.07102 89.5253 8.89637 89.5407Z" fill="black"/>
<path d="M50.3472 73.8057V85.2481C50.3472 86.0387 50.9876 86.6797 51.7777 86.6797C52.5678 86.6797 53.2083 86.0387 53.2083 85.2481V73.8057C53.2083 73.0151 52.5678 72.3741 51.7777 72.3741C50.9877 72.3741 50.3472 73.0151 50.3472 73.8057Z" fill="black"/>
<path d="M71.4557 81.9379V85.2344C71.4557 86.0326 72.1745 86.6797 73.0611 86.6797C73.9478 86.6797 74.6666 86.0326 74.6666 85.2344V81.9379C74.6666 79.8162 72.756 78.0964 70.3991 78.0964H64.8276C63.941 78.0964 63.2222 78.7434 63.2222 79.5416C63.2222 80.3398 63.941 80.9869 64.8276 80.9869H70.3991C70.9829 80.9869 71.4557 81.4127 71.4557 81.9379Z" fill="black"/>
<path d="M50.3472 93.9222V107.101C50.3472 109.255 52.1017 111 54.2659 111H103.343C105.677 111 107.569 109.117 107.569 106.795V93.9222C107.569 93.083 106.886 92.4028 106.042 92.4028C105.199 92.4028 104.515 93.0831 104.515 93.9222V106.795C104.515 107.439 103.99 107.961 103.343 107.961H54.2659C53.7886 107.961 53.4018 107.576 53.4017 107.101V93.9222C53.4017 93.083 52.7179 92.4028 51.8744 92.4028C51.031 92.4028 50.3472 93.083 50.3472 93.9222Z" fill="black"/>
<path d="M81.531 72.3347C83.5409 72.6367 85.4254 71.209 85.767 69.1047V69.1045L91.3905 34.4545C91.5258 33.6204 90.9887 32.8295 90.1906 32.688C89.3926 32.5465 88.636 33.108 88.5006 33.9421L82.8771 68.5921C82.8008 69.0619 82.3747 69.3779 81.9256 69.2983L78.2857 68.6529L78.2854 68.6527C77.8363 68.5732 77.5338 68.128 77.61 67.658H77.6098L85.0532 21.7967L85.0614 21.753C85.1561 21.3076 85.5695 21.0133 86.0049 21.0904L89.6447 21.736H89.6449C90.0939 21.8155 90.3965 22.2607 90.3203 22.7304L89.647 26.877L89.6363 26.9551C89.5455 27.76 90.0738 28.5066 90.8469 28.6437C91.62 28.7808 92.3542 28.2582 92.5225 27.4671L92.5371 27.3896L93.2102 23.2431V23.2429C93.5572 21.1051 92.1804 19.0778 90.1348 18.7154L90.135 18.7152L86.4952 18.0698C84.4816 17.7128 82.5709 19.1017 82.1806 21.1844L82.1632 21.2842L74.7199 67.1458V67.1461C74.3733 69.2836 75.7496 71.3112 77.7956 71.6736V71.6735L81.4352 72.319L81.531 72.3347Z" fill="black"/>
<path d="M80.4227 86.6782C81.2421 86.714 81.9402 86.1176 82.0176 85.3327L82.0232 85.2561L82.0295 85.1475C82.1925 82.8734 84.1426 81.0772 86.5236 81.0772H98.4111C98.6158 81.0773 98.7812 81.2383 98.7812 81.4369V85.1892C98.7812 86.0123 99.4676 86.6796 100.314 86.6796C101.161 86.6796 101.847 86.0123 101.847 85.1892V81.4369C101.847 79.5918 100.309 78.0964 98.4111 78.0964H86.5236C82.489 78.0964 79.193 81.1634 78.9649 85.0307L78.96 85.1222L78.9585 85.1989C78.9631 85.9874 79.6033 86.6423 80.4227 86.6782Z" fill="black"/>
<path d="M16.0692 40.8747C16.1795 40.9027 16.6853 40.9308 17.0681 40.8436C17.2063 40.7937 17.3362 40.7252 17.4536 40.6401L16.5212 39.4875C17.4536 40.64 17.4541 40.6397 17.4547 40.6394C17.4549 40.6392 17.4553 40.6388 17.4557 40.6385C17.4565 40.6379 17.4573 40.6372 17.4582 40.6365C17.4601 40.6351 17.4624 40.6336 17.4648 40.6318C17.4698 40.6282 17.4759 40.6236 17.4831 40.6182C17.4976 40.6075 17.5166 40.5932 17.5399 40.5754C17.5863 40.5399 17.6497 40.4903 17.7278 40.427C17.884 40.3003 18.0994 40.1177 18.3553 39.881C18.866 39.4085 19.5436 38.7146 20.2341 37.8108C21.6129 36.0062 23.0729 33.3236 23.3037 29.8807L23.3067 29.8503C23.3463 29.5373 23.6674 29.2603 24.0741 29.2973L24.1946 29.3069C26.6821 29.4738 28.8782 27.7706 29.1953 25.4293L29.2092 25.3154V25.3153L29.2464 24.972L29.2524 24.9236C29.39 23.9082 30.355 23.1745 31.437 23.2729C31.4425 23.2734 31.4482 23.2739 31.4537 23.2744L36.2519 23.6613L36.3492 23.6685C40.4639 23.9514 44.0944 21.116 44.5727 17.2261C45.0746 13.1433 41.9213 9.47215 37.5967 9.10471H37.5966L25.3232 8.06214L25.323 8.06228C17.3819 7.34546 10.3284 12.8554 9.56604 20.3735L8.95158 26.4326C8.45258 31.3512 10.1035 34.9288 11.9144 37.2723C12.8127 38.4349 13.7444 39.2874 14.4595 39.8537C14.8177 40.1373 15.1243 40.3512 15.3492 40.4983C15.4615 40.5717 15.5548 40.6294 15.6254 40.6714C15.6602 40.6921 15.692 40.7105 15.7197 40.726C15.7325 40.7331 15.7505 40.7431 15.7705 40.7536C15.7783 40.7577 15.7996 40.7689 15.8266 40.7818C15.8366 40.7866 15.8715 40.8034 15.9174 40.8219C15.9446 40.8327 16.0203 40.8595 16.0692 40.8747ZM16.412 37.6146C15.8517 37.1693 15.1086 36.4885 14.3897 35.5581C12.953 33.6987 11.588 30.8162 12.0045 26.7101V26.71L12.619 20.6509C13.2198 14.7261 18.7806 10.3842 25.0396 10.9531L25.0491 10.9539L37.3225 11.9965L37.4441 12.0083C39.9873 12.287 41.8241 14.4686 41.5263 16.8905C41.2404 19.2161 39.0847 20.9163 36.6293 20.7764L36.5122 20.7683L31.7139 20.3814L31.7138 20.3816C28.9426 20.138 26.4801 22.0529 26.1954 24.6752V24.6756L26.1582 25.019L26.1475 25.0979C26.0159 25.907 25.2381 26.4866 24.368 26.4073L24.3679 26.4072C22.301 26.2189 20.3798 27.6613 20.243 29.6964V29.6965C20.0587 32.4456 18.8926 34.6125 17.7491 36.1093C17.2669 36.7404 16.7939 37.2449 16.412 37.6146Z" fill="black"/>
<path d="M28.8289 53.7694C29.6384 53.8538 30.3625 53.2551 30.4824 52.4197L30.4922 52.3381L30.8113 48.9644L30.8118 48.9593C30.8697 48.3274 31.4046 47.8645 32.006 47.9256L35.3345 48.2647C37.7554 48.5122 39.912 46.6827 40.2044 44.1617L40.217 44.0412L40.7165 38.5848V38.5843C40.7245 38.4973 40.7921 38.4288 40.8762 38.4242H40.876L42.8893 38.3128H42.8895C45.4715 38.1697 46.925 35.1299 45.4911 32.8694L45.491 32.8695L43.2209 29.2901L43.1848 29.2301C43.0138 28.9326 42.9739 28.668 42.9813 28.3547C42.9858 28.1615 43.008 27.9645 43.0404 27.6963C43.0666 27.4788 43.1058 27.167 43.1139 26.8492C43.3551 24.1122 42.9717 21.4548 42.0909 19.0396L42.0611 18.9637C41.7357 18.191 40.8868 17.8139 40.1271 18.1195C39.3429 18.435 38.9508 19.3585 39.2511 20.1821L39.3178 20.3688C39.9946 22.3051 40.2812 24.4227 40.0818 26.6039C40.0775 26.6504 40.0751 26.6971 40.0748 26.7438C40.0739 26.8629 40.0578 27.0101 40.0234 27.2949C39.993 27.5471 39.95 27.8977 39.9412 28.2761C39.9222 29.0855 40.057 30.0476 40.6784 31.0422L40.6842 31.0516L42.9603 34.6402L42.9715 34.6592C43.0793 34.8573 42.9516 35.111 42.7293 35.1233V35.1235L40.716 35.2347L40.7155 35.2348C39.1288 35.323 37.8415 36.617 37.6895 38.2791L37.19 43.7354L37.1811 43.8123C37.0705 44.5987 36.3903 45.1638 35.6288 45.0858L35.6279 45.0856L32.2995 44.7466H32.2993C30.0268 44.5154 28.0062 46.2626 27.7852 48.6486L27.4661 52.0224L27.4603 52.1043C27.4214 52.9482 28.0193 53.6849 28.8289 53.7694Z" fill="black"/>
<path d="M16.1701 48.0487C17.1043 48.1147 17.9376 47.6287 18.073 46.9529L18.084 46.887L18.867 40.8859L18.8734 40.8198C18.9152 40.1374 18.2228 39.5434 17.2886 39.4774C16.3543 39.4113 15.5211 39.8974 15.3857 40.5731L15.3747 40.6392L14.5916 46.6401L14.5853 46.7064C14.5435 47.3888 15.2358 47.9826 16.1701 48.0487Z" fill="black"/>
</g>
<path d="M396 135L396 192C396 197.601 396 200.401 397.09 202.54C398.049 204.422 399.578 205.951 401.46 206.91C403.599 208 406.399 208 412 208L472 208" stroke="#0087C7" stroke-width="2" stroke-linecap="round" stroke-dasharray="1 5"/>
<path d="M390 140L396 134L402 140" stroke="#0087C7" stroke-linecap="round" stroke-linejoin="round"/>
<path d="M396 202L396 273C396 278.601 396 281.401 397.09 283.54C398.049 285.422 399.578 286.951 401.46 287.91C403.599 289 406.399 289 412 289L469 289" stroke="#0087C7" stroke-width="2" stroke-linecap="round" stroke-dasharray="1 5"/>
<path d="M457.5 206.5C457.5 200.977 461.977 196.5 467.5 196.5C473.023 196.5 477.5 200.977 477.5 206.5C477.5 212.023 473.023 216.5 467.5 216.5C461.977 216.5 457.5 212.023 457.5 206.5Z" fill="#4BCD6B"/>
<path d="M470.543 203.293C470.933 202.902 471.566 202.902 471.957 203.293C472.347 203.683 472.347 204.316 471.957 204.707L466.957 209.707C466.566 210.097 465.933 210.097 465.543 209.707L463.043 207.207C462.652 206.816 462.652 206.183 463.043 205.793C463.409 205.427 463.988 205.404 464.381 205.725L464.457 205.793L466.25 207.586L470.543 203.293Z" fill="white"/>
<path d="M457.5 289.5C457.5 283.977 461.977 279.5 467.5 279.5C473.023 279.5 477.5 283.977 477.5 289.5C477.5 295.023 473.023 299.5 467.5 299.5C461.977 299.5 457.5 295.023 457.5 289.5Z" fill="#4BCD6B"/>
<path d="M470.543 286.293C470.933 285.902 471.566 285.902 471.957 286.293C472.347 286.683 472.347 287.316 471.957 287.707L466.957 292.707C466.566 293.097 465.933 293.097 465.543 292.707L463.043 290.207C462.652 289.816 462.652 289.183 463.043 288.793C463.409 288.427 463.988 288.404 464.381 288.725L464.457 288.793L466.25 290.586L470.543 286.293Z" fill="white"/>
<defs>
<clipPath id="clip0_20523_12627">
<rect width="58" height="58" fill="white" transform="translate(617.5 32)"/>
</clipPath>
</defs>
</svg>
