<svg width="665" height="308" viewBox="0 0 665 308" fill="none" xmlns="http://www.w3.org/2000/svg">
<path d="M538 154L532.321 154.051C521.346 154.149 512.5 163.074 512.5 174.05L512.5 263C512.5 274.046 503.546 283 492.5 283L463 283" stroke="#0087C7" stroke-linecap="round" stroke-dasharray="3 3"/>
<path d="M538 154L532.321 153.949C521.346 153.851 512.5 144.926 512.5 133.95L512.5 45.5125C512.5 34.6015 503.755 25.7039 492.845 25.5155L463 25" stroke="#0087C7" stroke-linecap="round" stroke-dasharray="3 3"/>
<path d="M536 148L542 154L536 160" stroke="#0087C7" stroke-linecap="round" stroke-linejoin="round"/>
<rect x="549" y="102" width="80" height="80" rx="10" fill="white"/>
<rect x="549.5" y="102.5" width="79" height="79" rx="9.5" stroke="black" stroke-opacity="0.6"/>
<rect x="556" y="110" width="80" height="80" rx="10" fill="white"/>
<rect x="556.5" y="110.5" width="79" height="79" rx="9.5" stroke="black" stroke-opacity="0.6"/>
<rect x="563" y="118" width="80" height="80" rx="10" fill="white"/>
<rect x="563.5" y="118.5" width="79" height="79" rx="9.5" stroke="black" stroke-opacity="0.6"/>
<rect x="570" y="126" width="80" height="80" rx="10" fill="white"/>
<rect x="570.5" y="126.5" width="79" height="79" rx="9.5" stroke="black" stroke-opacity="0.6"/>
<rect x="577" y="134" width="80" height="80" rx="10" fill="white"/>
<rect x="577.5" y="134.5" width="79" height="79" rx="9.5" stroke="black" stroke-opacity="0.6"/>
<rect x="584" y="142" width="80" height="80" rx="10" fill="white"/>
<rect x="584.5" y="142.5" width="79" height="79" rx="9.5" stroke="black" stroke-opacity="0.6"/>
<path fill-rule="evenodd" clip-rule="evenodd" d="M623.337 206.347C623.49 206.5 623.692 206.595 623.908 206.616C624.124 206.637 624.341 206.583 624.521 206.463C624.702 206.344 624.835 206.166 624.898 205.96C624.961 205.754 624.95 205.532 624.867 205.333C624.784 205.134 624.634 204.97 624.442 204.868C624.251 204.767 624.03 204.734 623.817 204.776C623.604 204.818 623.413 204.932 623.275 205.099C623.137 205.265 623.062 205.474 623.062 205.689C623.062 205.811 623.086 205.933 623.133 206.045C623.18 206.158 623.25 206.261 623.337 206.347ZM623.303 203.48V199.304C623.303 199.214 623.321 199.124 623.356 199.04C623.391 198.956 623.442 198.879 623.507 198.815C623.572 198.751 623.648 198.7 623.733 198.665C623.818 198.63 623.908 198.612 624 198.612C624.091 198.612 624.182 198.63 624.267 198.665C624.351 198.7 624.428 198.751 624.493 198.815C624.558 198.879 624.609 198.956 624.644 199.04C624.679 199.124 624.697 199.214 624.697 199.304V203.48C625.229 203.645 625.683 203.994 625.977 204.463C626.272 204.932 626.388 205.49 626.303 206.037C626.219 206.583 625.941 207.082 625.518 207.442C625.095 207.802 624.557 208 624 208C623.443 208 622.904 207.802 622.482 207.442C622.059 207.082 621.78 206.583 621.696 206.037C621.612 205.49 621.728 204.932 622.022 204.463C622.317 203.994 622.771 203.645 623.303 203.48ZM645.575 170.397C645.637 170.17 645.61 169.929 645.501 169.722C645.487 169.701 645.474 169.679 645.463 169.657C645.336 169.46 645.14 169.316 644.912 169.256C644.684 169.195 644.441 169.222 644.232 169.33C644.211 169.344 644.189 169.356 644.167 169.367C643.967 169.493 643.823 169.688 643.762 169.914C643.701 170.141 643.728 170.381 643.837 170.589C643.851 170.61 643.863 170.632 643.875 170.654C643.972 170.807 644.113 170.929 644.279 171.004C644.445 171.079 644.629 171.104 644.809 171.077C644.99 171.05 645.158 170.971 645.294 170.85C645.43 170.73 645.528 170.572 645.575 170.397L645.575 170.397ZM643.09 171.858L639.447 173.945C639.287 174.035 639.099 174.058 638.922 174.011C638.745 173.963 638.594 173.848 638.502 173.69C638.41 173.533 638.385 173.346 638.431 173.17C638.477 172.994 638.592 172.843 638.749 172.75L642.394 170.662C642.285 170.181 642.334 169.678 642.534 169.227C642.733 168.775 643.073 168.399 643.503 168.153L643.508 168.15C644.043 167.844 644.678 167.762 645.274 167.921C645.87 168.08 646.378 168.467 646.687 168.998L646.688 169C646.966 169.479 647.062 170.042 646.959 170.585C646.856 171.128 646.56 171.617 646.125 171.962C645.69 172.308 645.144 172.487 644.588 172.468C644.031 172.449 643.5 172.232 643.09 171.858ZM644.913 194.744C645.032 194.713 645.144 194.658 645.242 194.584C645.34 194.509 645.422 194.416 645.483 194.31L645.484 194.311C645.546 194.204 645.586 194.087 645.602 193.966C645.618 193.844 645.61 193.721 645.578 193.603C645.546 193.484 645.491 193.373 645.415 193.276C645.34 193.179 645.246 193.098 645.139 193.036C645.033 192.975 644.914 192.936 644.792 192.92C644.67 192.904 644.545 192.912 644.426 192.944C644.307 192.975 644.195 193.03 644.097 193.105C644 193.18 643.917 193.273 643.856 193.379V193.379C643.732 193.594 643.699 193.848 643.763 194.086C643.828 194.325 643.985 194.528 644.2 194.652H644.201C644.308 194.713 644.425 194.753 644.548 194.769C644.67 194.784 644.794 194.776 644.913 194.744L644.913 194.744ZM642.395 193.337L638.753 191.25C638.673 191.205 638.603 191.145 638.546 191.073C638.49 191.002 638.448 190.92 638.424 190.832C638.4 190.744 638.393 190.652 638.405 190.562C638.416 190.472 638.446 190.385 638.491 190.306C638.537 190.227 638.598 190.158 638.671 190.103C638.744 190.047 638.827 190.007 638.915 189.983C639.004 189.96 639.096 189.954 639.187 189.967C639.278 189.979 639.365 190.009 639.444 190.055L643.089 192.143C643.498 191.768 644.03 191.55 644.587 191.531C645.144 191.511 645.69 191.69 646.125 192.036C646.561 192.381 646.857 192.87 646.96 193.414C647.063 193.958 646.966 194.52 646.687 194.999L646.686 195.001L646.687 195.002C646.384 195.525 645.886 195.908 645.301 196.072C644.716 196.235 644.09 196.165 643.556 195.877C643.521 195.861 643.487 195.841 643.455 195.819C643.039 195.567 642.713 195.192 642.523 194.747C642.333 194.302 642.288 193.809 642.395 193.337ZM602.424 193.603C602.363 193.829 602.389 194.071 602.499 194.278C602.513 194.299 602.525 194.321 602.537 194.343C602.663 194.541 602.86 194.684 603.088 194.745C603.316 194.806 603.558 194.779 603.768 194.671C603.789 194.657 603.811 194.644 603.833 194.633C604.032 194.508 604.177 194.312 604.238 194.086C604.299 193.86 604.272 193.619 604.163 193.412C604.149 193.391 604.136 193.369 604.125 193.347C604.028 193.193 603.887 193.072 603.721 192.997C603.555 192.922 603.371 192.896 603.19 192.923C603.01 192.95 602.842 193.029 602.706 193.15C602.57 193.271 602.472 193.428 602.425 193.603L602.424 193.603ZM604.91 192.142L608.553 190.055C608.713 189.965 608.902 189.942 609.079 189.989C609.256 190.037 609.406 190.152 609.498 190.31C609.59 190.467 609.616 190.654 609.569 190.83C609.523 191.006 609.408 191.157 609.251 191.25L605.606 193.338C605.715 193.819 605.666 194.322 605.466 194.773C605.266 195.225 604.927 195.601 604.497 195.847L604.492 195.85C603.957 196.156 603.322 196.238 602.726 196.079C602.129 195.92 601.621 195.533 601.313 195.002L601.311 195C601.033 194.521 600.937 193.958 601.041 193.415C601.144 192.872 601.44 192.383 601.875 192.038C602.31 191.692 602.855 191.513 603.412 191.532C603.969 191.551 604.5 191.768 604.91 192.142ZM603.087 169.256C602.968 169.287 602.856 169.342 602.758 169.416C602.66 169.491 602.578 169.584 602.516 169.69L602.515 169.689C602.391 169.904 602.357 170.158 602.422 170.397C602.487 170.636 602.644 170.84 602.86 170.964C603.076 171.087 603.333 171.12 603.573 171.056C603.814 170.992 604.019 170.836 604.144 170.621V170.621C604.268 170.406 604.301 170.152 604.236 169.914C604.172 169.675 604.015 169.472 603.8 169.348H603.799C603.692 169.287 603.574 169.247 603.452 169.231C603.33 169.216 603.206 169.224 603.087 169.256L603.087 169.256ZM605.605 170.663L609.247 172.75C609.405 172.842 609.52 172.992 609.567 173.168C609.614 173.344 609.589 173.531 609.498 173.688C609.407 173.846 609.257 173.961 609.08 174.009C608.903 174.058 608.715 174.034 608.555 173.945L604.911 171.857C604.502 172.232 603.97 172.45 603.413 172.469C602.856 172.489 602.31 172.31 601.875 171.964C601.439 171.619 601.143 171.13 601.04 170.586C600.937 170.042 601.034 169.48 601.313 169.001L601.314 168.999L601.313 168.998C601.616 168.475 602.114 168.092 602.699 167.928C603.284 167.765 603.91 167.835 604.444 168.123C604.479 168.139 604.513 168.159 604.546 168.181C604.961 168.433 605.287 168.808 605.477 169.253C605.667 169.698 605.712 170.191 605.605 170.663H605.605ZM624.663 157.653C624.509 157.5 624.308 157.405 624.092 157.384C623.876 157.363 623.659 157.417 623.479 157.537C623.298 157.656 623.165 157.834 623.102 158.04C623.039 158.246 623.05 158.468 623.133 158.667C623.216 158.866 623.366 159.03 623.557 159.132C623.749 159.233 623.97 159.266 624.182 159.224C624.395 159.182 624.587 159.068 624.725 158.901C624.862 158.735 624.937 158.526 624.937 158.311C624.938 158.189 624.913 158.067 624.866 157.955C624.819 157.842 624.75 157.739 624.663 157.653ZM624.697 160.52V164.696C624.697 164.879 624.624 165.055 624.493 165.185C624.362 165.315 624.185 165.388 624 165.388C623.815 165.388 623.638 165.315 623.507 165.185C623.376 165.055 623.303 164.879 623.303 164.696V160.52C622.771 160.355 622.317 160.006 622.022 159.537C621.728 159.068 621.612 158.51 621.696 157.963C621.78 157.417 622.059 156.918 622.482 156.558C622.904 156.198 623.443 156 624 156C624.557 156 625.095 156.198 625.518 156.558C625.941 156.918 626.219 157.417 626.303 157.963C626.388 158.51 626.272 159.068 625.977 159.537C625.683 160.006 625.229 160.355 624.697 160.52ZM631.523 170.096C629.608 169.417 626.949 168.996 624 168.996C621.05 168.996 618.391 169.417 616.477 170.096C614.778 170.699 613.727 171.447 613.727 172.197C613.727 172.947 614.778 173.695 616.477 174.298C618.391 174.977 621.051 175.397 624 175.397C626.949 175.397 629.608 174.977 631.523 174.298C633.222 173.695 634.273 172.947 634.273 172.197C634.273 171.447 633.222 170.699 631.523 170.096ZM616.782 177.666C616.956 177.725 617.099 177.849 617.181 178.012C617.262 178.175 617.276 178.364 617.219 178.537C617.161 178.71 617.037 178.853 616.874 178.936C616.711 179.019 616.521 179.035 616.346 178.98C616.241 178.945 616.106 178.899 615.945 178.84C615.81 178.792 615.682 178.743 615.559 178.695C615.474 178.661 615.397 178.611 615.332 178.548C615.266 178.484 615.214 178.409 615.178 178.325C615.142 178.242 615.123 178.152 615.122 178.062C615.121 177.971 615.138 177.881 615.172 177.797C615.206 177.713 615.257 177.636 615.32 177.571C615.384 177.507 615.46 177.455 615.544 177.419C615.628 177.384 615.719 177.365 615.81 177.364C615.901 177.363 615.992 177.379 616.077 177.413C616.19 177.458 616.304 177.502 616.419 177.543C616.506 177.574 616.627 177.615 616.782 177.666V177.666ZM616.782 184.203C616.956 184.262 617.099 184.386 617.181 184.549C617.262 184.712 617.276 184.901 617.219 185.074C617.161 185.246 617.037 185.39 616.874 185.473C616.711 185.556 616.521 185.572 616.346 185.517C616.241 185.482 616.107 185.436 615.945 185.377C615.81 185.329 615.682 185.28 615.559 185.231C615.472 185.199 615.393 185.15 615.326 185.087C615.259 185.024 615.205 184.948 615.168 184.864C615.13 184.779 615.11 184.689 615.109 184.597C615.107 184.505 615.124 184.414 615.159 184.328C615.193 184.243 615.244 184.166 615.309 184.1C615.374 184.035 615.452 183.983 615.537 183.948C615.623 183.913 615.715 183.895 615.807 183.895C615.9 183.896 615.991 183.914 616.077 183.95C616.191 183.995 616.305 184.039 616.419 184.08C616.506 184.112 616.627 184.153 616.782 184.203V184.203ZM616.782 190.74C616.956 190.798 617.099 190.923 617.181 191.086C617.262 191.249 617.276 191.437 617.219 191.61C617.161 191.783 617.037 191.927 616.874 192.01C616.711 192.093 616.521 192.108 616.346 192.054C616.241 192.019 616.107 191.973 615.946 191.914C615.811 191.866 615.682 191.817 615.559 191.768C615.474 191.735 615.396 191.685 615.33 191.622C615.265 191.558 615.212 191.483 615.176 191.399C615.14 191.316 615.121 191.226 615.119 191.135C615.118 191.044 615.135 190.954 615.169 190.869C615.203 190.785 615.254 190.708 615.318 190.643C615.382 190.578 615.459 190.527 615.543 190.491C615.627 190.455 615.718 190.437 615.809 190.436C615.901 190.435 615.992 190.453 616.077 190.487C616.191 190.532 616.305 190.575 616.42 190.617C616.507 190.648 616.628 190.689 616.782 190.74V190.74ZM635.665 172.3V178.729H635.668C635.668 178.764 635.667 178.798 635.665 178.832V185.266H635.668C635.668 185.3 635.667 185.334 635.665 185.368V191.803H635.668C635.668 193.203 634.263 194.401 631.991 195.207C629.936 195.936 627.109 196.388 624 196.388C620.89 196.388 618.064 195.937 616.008 195.207C614.046 194.511 612.73 193.522 612.409 192.363C612.358 192.265 612.332 192.156 612.332 192.046V172.197C612.332 172.19 612.332 172.183 612.332 172.176C612.346 170.785 613.748 169.595 616.008 168.792C618.064 168.063 620.89 167.611 624 167.611C627.109 167.611 629.936 168.063 631.992 168.792C634.263 169.598 635.668 170.797 635.668 172.197C635.668 172.231 635.667 172.265 635.665 172.3V172.3ZM634.276 178.729H634.273C634.273 179.479 633.222 180.227 631.523 180.83C629.608 181.51 626.949 181.93 624 181.93C621.05 181.93 618.391 181.51 616.477 180.83C614.778 180.227 613.727 179.479 613.727 178.729V174.453C614.428 174.943 615.196 175.329 616.008 175.601C618.064 176.331 620.89 176.782 624 176.782C627.109 176.782 629.936 176.331 631.991 175.601C632.805 175.329 633.574 174.942 634.276 174.451V178.73L634.276 178.729ZM634.276 185.266V180.984C633.574 181.474 632.805 181.861 631.992 182.134C629.936 182.863 627.109 183.315 624 183.315C620.89 183.315 618.064 182.863 616.008 182.134C615.196 181.861 614.428 181.475 613.727 180.985V185.266C613.727 186.016 614.778 186.764 616.477 187.367C618.392 188.046 621.051 188.466 624 188.466C626.949 188.466 629.608 188.046 631.523 187.367C633.222 186.764 634.273 186.016 634.273 185.266L634.276 185.266ZM613.727 191.803C613.727 192.553 614.778 193.301 616.477 193.904C618.391 194.583 621.051 195.004 624 195.004C626.949 195.004 629.608 194.583 631.523 193.904C633.222 193.301 634.273 192.553 634.273 191.803H634.276V187.52C633.574 188.011 632.805 188.398 631.992 188.67C629.936 189.4 627.109 189.851 624 189.851C620.89 189.851 618.064 189.4 616.008 188.67C615.196 188.398 614.428 188.012 613.727 187.522L613.727 191.803Z" fill="black"/>
<path d="M597.22 241.736L597.044 242.376C597.385 243.901 597.828 245.272 598.372 246.488C598.831 245.112 599.092 243.528 599.156 241.736H597.22ZM597.604 248.248C597.092 247.224 596.639 246.045 596.244 244.712C596.02 245.213 595.769 245.709 595.492 246.2L594.452 244.904C595.337 243.144 595.929 240.792 596.228 237.848L597.86 238.136C597.753 238.947 597.652 239.608 597.556 240.12H601.556V241.736H600.692C600.596 244.307 600.137 246.493 599.316 248.296C600.073 249.523 600.985 250.493 602.052 251.208L601.092 252.632C600.111 251.917 599.247 250.979 598.5 249.816C597.732 250.979 596.799 251.955 595.7 252.744L594.804 251.304C595.956 250.547 596.889 249.528 597.604 248.248ZM591.62 245.464C591.545 245.699 591.465 245.923 591.38 246.136H594.58V247.544C594.335 248.451 593.86 249.261 593.156 249.976C593.721 250.221 594.308 250.504 594.916 250.824L594.004 252.168C593.353 251.784 592.628 251.405 591.828 251.032C590.804 251.683 589.487 252.221 587.876 252.648L587.076 251.208C588.207 250.952 589.188 250.632 590.02 250.248C589.263 249.939 588.596 249.672 588.02 249.448C588.404 248.808 588.74 248.2 589.028 247.624H587.46V246.136H589.684C589.919 245.485 590.025 245.197 590.004 245.272L591.62 245.464ZM591.572 249.336C592.233 248.813 592.724 248.243 593.044 247.624H590.724C590.585 247.891 590.367 248.28 590.068 248.792C590.409 248.899 590.911 249.08 591.572 249.336ZM589.012 238.168C589.364 238.744 589.679 239.373 589.956 240.056L588.676 240.632C588.367 239.885 588.02 239.213 587.636 238.616L589.012 238.168ZM594.756 238.728C594.425 239.421 594.02 240.077 593.54 240.696L592.324 240.056C592.772 239.405 593.145 238.749 593.444 238.088L594.756 238.728ZM587.508 240.776H590.484V237.88H592.02V240.776H594.74V242.232H592.02V242.264C592.852 242.595 593.7 242.979 594.564 243.416L593.7 244.728C593.028 244.195 592.468 243.779 592.02 243.48V245.16H590.484V242.648C589.94 243.736 589.097 244.691 587.956 245.512L587.124 244.168C588.18 243.571 588.943 242.925 589.412 242.232H587.508V240.776ZM603.78 252.52L603.428 250.952C603.897 251.027 604.281 251.064 604.58 251.064C604.921 251.064 605.092 250.861 605.092 250.456V247.224C604.249 247.523 603.711 247.709 603.476 247.784L603.044 246.136C603.748 245.976 604.431 245.784 605.092 245.56V242.36H603.364V240.744H605.092V237.912H606.724V240.744H608.084V242.36H606.724V244.904C607.247 244.659 607.679 244.445 608.02 244.264V245.896L606.724 246.536V250.872C606.724 251.971 606.196 252.52 605.14 252.52H603.78ZM610.196 245.624C610.004 248.28 609.401 250.637 608.388 252.696L607.076 251.528C608.111 249.501 608.639 246.883 608.66 243.672V238.36H617.428V242.6H614.548V244.104H617.78V245.624H614.548V247.16H617.076V252.664H615.54V252.008H611.94V252.664H610.404V247.16H612.916V245.624H610.196ZM612.916 242.6H610.276V243.88L610.26 244.104H612.916V242.6ZM611.94 250.536H615.54V248.632H611.94V250.536ZM615.796 239.88H610.276V241.128H615.796V239.88ZM620.516 238.088C621.636 238.909 622.591 239.72 623.38 240.52L622.244 241.64C621.593 240.893 620.644 240.067 619.396 239.16L620.516 238.088ZM620.228 242.008C621.252 242.765 622.137 243.544 622.884 244.344L621.764 245.48C621.177 244.765 620.292 243.965 619.108 243.08L620.228 242.008ZM623.076 246.968C622.425 248.909 621.668 250.797 620.804 252.632L619.252 251.944C620.159 250.163 620.953 248.312 621.636 246.392L623.076 246.968ZM626.148 240.952H628.308C628.457 240.515 628.564 240.141 628.628 239.832H625.364V243.832C625.3 247.512 624.687 250.467 623.524 252.696L622.26 251.576C623.209 249.731 623.711 247.149 623.764 243.832V238.36H633.604V239.832H630.196C630.079 240.301 629.972 240.675 629.876 240.952H632.82V246.888H630.308V251.032C630.308 252.088 629.812 252.616 628.82 252.616H627.476L627.124 251.112C627.508 251.176 627.892 251.208 628.276 251.208C628.575 251.208 628.724 251.016 628.724 250.632V246.888H626.148V240.952ZM631.364 245.576V244.52H627.604V245.576H631.364ZM627.604 243.32H631.364V242.232H627.604V243.32ZM627.812 248.12C627.428 249.571 626.889 250.813 626.196 251.848L624.852 251C625.556 250.008 626.052 248.941 626.34 247.8L627.812 248.12ZM632.324 247.704C632.9 248.76 633.417 249.928 633.876 251.208L632.468 251.832C632.009 250.488 631.503 249.272 630.948 248.184L632.324 247.704ZM639.476 239.352C640.585 239.352 641.497 239.672 642.212 240.312C642.916 240.952 643.268 241.779 643.268 242.792C643.268 243.763 642.895 244.664 642.148 245.496C641.732 245.944 640.943 246.557 639.78 247.336C638.617 248.104 637.908 248.776 637.652 249.352H643.284V251H635.316C635.316 249.827 635.695 248.813 636.452 247.96C636.868 247.48 637.743 246.781 639.076 245.864C639.769 245.384 640.292 244.957 640.644 244.584C641.145 244.019 641.396 243.416 641.396 242.776C641.396 242.157 641.231 241.693 640.9 241.384C640.569 241.085 640.073 240.936 639.412 240.936C638.708 240.936 638.18 241.176 637.828 241.656C637.476 242.104 637.284 242.781 637.252 243.688H635.38C635.401 242.408 635.775 241.379 636.5 240.6C637.257 239.768 638.249 239.352 639.476 239.352ZM650.158 239.576V251H648.286V241.832C647.592 242.461 646.723 242.925 645.678 243.224V241.368C646.179 241.24 646.728 241.016 647.326 240.696C647.891 240.355 648.366 239.981 648.75 239.576H650.158ZM657.784 242.824H659.288V246.104H662.568V247.608H659.288V250.904H657.784V247.608H654.488V246.104H657.784V242.824Z" fill="black"/>
<rect x="95.5" y="0.5" width="375" height="307" rx="29.5" fill="white" stroke="#0087C7"/>
<rect y="103" width="190" height="103" rx="51.5" fill="#DAEEFA"/>
<g filter="url(#filter0_d_21204_12672)">
<rect x="20" y="123" width="150" height="63" rx="31.5" fill="#0087C7" shape-rendering="crispEdges"/>
<rect x="20.5" y="123.5" width="149" height="62" rx="31" stroke="#100A2F" stroke-opacity="0.17" shape-rendering="crispEdges"/>
<path d="M138.326 146.238L138.536 146.245V146.238H141.118V163.08H138.536V152.143L133.596 160.758H132.032L127.093 152.143V163.08H124.51V146.238H127.093V146.245L127.303 146.238L132.815 156.36L138.326 146.238ZM56.5613 146.238C58.6312 146.238 59.7576 146.775 60.0539 146.941L60.1514 146.995L59.6253 148.897L59.483 148.823C58.7021 148.42 57.6874 148.197 56.6257 148.197C53.2304 148.197 51.1217 150.582 51.1217 154.421C51.1217 158.218 53.1474 160.486 56.54 160.486C57.6364 160.486 58.7806 160.246 59.5254 159.859L59.6731 159.783L60.1274 161.645L60.0301 161.697C59.353 162.058 57.9793 162.445 56.1541 162.445C51.7359 162.445 48.8813 159.322 48.8813 154.49C48.8813 149.554 51.9676 146.238 56.5613 146.238ZM102.266 146.238V162.073H100.312V160.697C99.1777 161.856 97.8707 162.445 96.4234 162.445C94.845 162.445 93.4813 161.835 92.3706 160.635C91.262 159.437 90.6993 157.979 90.6993 156.301C90.6993 154.623 91.2685 153.167 92.3913 151.974C93.5148 150.781 94.9046 150.177 96.5221 150.177C97.9947 150.177 99.2673 150.75 100.312 151.881V146.238H102.266ZM64.007 146.555V162.445H61.9309V146.555H64.007ZM81.088 150.687V157.29C81.088 158.991 82.4722 160.377 84.1745 160.377C85.8763 160.377 87.2611 158.991 87.2611 157.29V150.687H89.2164V162.079H87.2611V161.357C86.3682 162.066 85.2858 162.447 84.1745 162.445C81.3944 162.445 79.1327 160.132 79.1327 157.29V150.687H81.088ZM116.711 145.92C119.708 145.92 122.137 148.456 122.137 151.585V156.779C122.137 159.909 119.708 162.445 116.711 162.445H108.791V145.92H116.711ZM71.5921 150.369C73.1936 150.369 74.5733 150.968 75.6932 152.15C76.6716 153.182 77.228 154.41 77.352 155.808H74.9182C74.7996 155.106 74.4808 154.476 73.9609 153.932C73.2912 153.23 72.4878 152.875 71.5734 152.875C70.6596 152.875 69.8589 153.23 69.1948 153.931C68.529 154.635 68.1912 155.484 68.1912 156.451C68.1912 157.42 68.5168 158.253 69.1592 158.927C69.7989 159.599 70.6145 159.94 71.5823 159.94C72.5159 159.94 73.3226 159.595 73.9796 158.917C74.5066 158.374 74.8224 157.732 74.9286 157.005H75.8314V157.961H76.8683V157.005H77.3532C77.2342 158.411 76.6853 159.642 75.7134 160.674C74.6071 161.849 73.2209 162.445 71.5924 162.445C69.9635 162.445 68.5741 161.849 67.4613 160.674C66.3497 159.502 65.7865 158.069 65.7865 156.417C65.7865 154.766 66.353 153.329 67.4717 152.149C68.591 150.968 69.9772 150.369 71.5924 150.369H71.5921ZM96.5622 152.195C95.4642 152.195 94.5365 152.608 93.8031 153.425C93.0667 154.246 92.6933 155.223 92.6933 156.331C92.6933 157.439 93.0764 158.42 93.8315 159.246C94.5849 160.071 95.4998 160.489 96.5521 160.489C97.5421 160.489 98.4389 160.096 99.2192 159.322C99.9963 158.551 100.391 157.558 100.391 156.372C100.391 155.183 100.024 154.178 99.302 153.385C98.5813 152.595 97.6589 152.195 96.5622 152.195ZM116.711 148.517H111.278V159.847H116.711C118.332 159.847 119.65 158.471 119.65 156.779V151.585C119.65 149.893 118.332 148.517 116.711 148.517ZM70.0849 155.771C70.2844 155.771 70.4606 155.851 70.6068 156.009C70.7536 156.168 70.8284 156.357 70.8284 156.574C70.8284 156.79 70.7551 156.977 70.611 157.13C70.5426 157.205 70.461 157.263 70.3709 157.303C70.2808 157.342 70.1842 157.362 70.0869 157.36C69.8752 157.36 69.6969 157.284 69.5566 157.132C69.4881 157.06 69.4341 156.973 69.3978 156.877C69.3615 156.781 69.3437 156.679 69.3455 156.575C69.3455 156.358 69.419 156.167 69.5649 156.009C69.7103 155.851 69.8847 155.771 70.0849 155.771V155.771ZM115.167 151.958C115.905 151.958 116.502 152.59 116.502 153.371C116.502 153.928 116.194 154.405 115.751 154.635V156.725H114.583V154.635C114.141 154.405 113.833 153.928 113.833 153.371C113.833 152.591 114.43 151.958 115.167 151.958Z" fill="white"/>
</g>
<rect x="202.5" y="78.5" width="89" height="43" rx="7.5" fill="white"/>
<rect x="202.5" y="78.5" width="89" height="43" rx="7.5" stroke="#21A240"/>
<path d="M233.88 101.424C233.336 101.968 232.744 102.512 232.104 103.056L231.624 101.456C233.661 99.7173 235.037 98.0427 235.752 96.432H231.992V94.976H234.264C234.008 94.3147 233.731 93.7067 233.432 93.152L234.872 92.736C235.256 93.6107 235.533 94.3573 235.704 94.976H237.272V96.256C236.899 97.3547 236.285 98.48 235.432 99.632C236.285 100.155 237.053 100.736 237.736 101.376L236.872 102.688C236.36 102.123 235.859 101.643 235.368 101.248V107.648H233.88V101.424ZM245.256 93.424V102.432H243.72V94.88H239.672V102.432H238.168V93.424H245.256ZM243.192 107.392C242.232 107.392 241.752 106.869 241.752 105.824V103.168C241.571 103.712 241.363 104.213 241.128 104.672C240.349 106.005 239.096 107.04 237.368 107.776L236.552 106.448C238.216 105.712 239.357 104.773 239.976 103.632C240.552 102.416 240.872 100.843 240.936 98.912V95.888H242.408V98.912C242.355 100.235 242.211 101.392 241.976 102.384H243.224V105.504C243.224 105.835 243.363 106 243.64 106H244.504C244.664 106 244.792 105.92 244.888 105.76C244.973 105.579 245.043 105.029 245.096 104.112L246.504 104.576C246.397 105.931 246.211 106.747 245.944 107.024C245.677 107.269 245.288 107.392 244.776 107.392H243.192ZM254.632 95.2C254.557 95.4133 254.451 95.6533 254.312 95.92H258.424V96.944C258.029 97.712 257.411 98.4053 256.568 99.024C257.517 99.4507 258.643 99.8133 259.944 100.112L259.16 101.248C257.667 100.843 256.381 100.357 255.304 99.792C254.109 100.389 252.621 100.891 250.84 101.296L250.184 100.08C251.784 99.8133 253.085 99.4667 254.088 99.04C253.576 98.688 253.128 98.32 252.744 97.936C252.328 98.3093 251.837 98.6773 251.272 99.04L250.44 97.936C251.837 97.1467 252.787 96.176 253.288 95.024L254.632 95.2ZM255.336 98.416C255.997 97.9893 256.52 97.5253 256.904 97.024H253.592C253.549 97.0667 253.528 97.0933 253.528 97.104C254.061 97.6053 254.664 98.0427 255.336 98.416ZM252.232 102.72C254.387 103.115 256.413 103.653 258.312 104.336L257.816 105.552C255.853 104.837 253.8 104.272 251.656 103.856L252.232 102.72ZM253.864 100.56C255.197 100.955 256.371 101.408 257.384 101.92L256.68 103.008C255.56 102.4 254.392 101.915 253.176 101.552L253.864 100.56ZM261.688 93.472V107.648H260.2V107.088H249.8V107.648H248.312V93.472H261.688ZM249.8 105.744H260.2V94.816H249.8V105.744Z" fill="#21A240"/>
<rect x="202.5" y="186.5" width="89" height="43" rx="7.5" fill="white"/>
<rect x="202.5" y="186.5" width="89" height="43" rx="7.5" stroke="#FF3C00"/>
<path d="M240.216 207.376C241.347 208.709 242.216 209.883 242.824 210.896L241.528 211.792C240.909 210.704 240.051 209.493 238.952 208.16L240.216 207.376ZM241.576 201.04C241.405 201.84 241.181 202.608 240.904 203.344H245.8C245.8 209.008 245.72 212.512 245.56 213.856C245.379 215.029 244.584 215.616 243.176 215.616C242.888 215.616 242.2 215.589 241.112 215.536L240.728 214.128C241.667 214.181 242.397 214.208 242.92 214.208C243.624 214.208 244.029 213.856 244.136 213.152C244.221 212.416 244.28 209.653 244.312 204.864H240.264C239.731 205.941 239.069 206.933 238.28 207.84L237.32 206.576C238.653 205.019 239.56 203.109 240.04 200.848L241.576 201.04ZM237.72 213.776C236.035 214.331 234.136 214.773 232.024 215.104L231.832 213.6C234.125 213.237 236.088 212.784 237.72 212.24V213.776ZM235.752 201.376C234.995 203.349 234.248 204.912 233.512 206.064C234.024 206.011 234.621 205.92 235.304 205.792C235.72 205.003 236.056 204.357 236.312 203.856L237.784 204.4C236.344 207.003 235.128 208.907 234.136 210.112C235.309 209.877 236.44 209.579 237.528 209.216V210.576C235.693 211.163 233.949 211.563 232.296 211.776L231.896 210.384C232.173 210.256 232.403 210.107 232.584 209.936C233.117 209.371 233.757 208.464 234.504 207.216L232.088 207.616L231.704 206.192C231.939 206.096 232.157 205.899 232.36 205.6C233.096 204.16 233.736 202.56 234.28 200.8L235.752 201.376ZM248.104 202.4H254.232V200.928H255.768V202.4H261.864V203.856H255.768V205.12H260.776V209.936H256.952C258.072 211.419 259.912 212.747 262.472 213.92L261.432 215.248C258.744 213.68 256.856 211.936 255.768 210.016V215.632H254.232V210.016C253.037 212.128 251.107 213.877 248.44 215.264L247.56 213.856C250.013 212.821 251.837 211.515 253.032 209.936H249.256V205.12H254.232V203.856H248.104V202.4ZM259.256 208.544V206.544H255.768V208.544H259.256ZM254.232 208.544V206.544H250.776V208.544H254.232Z" fill="#FF3C00"/>
<rect x="247.5" y="132.5" width="89" height="43" rx="7.5" fill="white"/>
<rect x="247.5" y="132.5" width="89" height="43" rx="7.5" stroke="#D47E07"/>
<path d="M278 146.912H279.536V151.648C280.859 152.597 282.181 153.653 283.504 154.816L282.56 156.24C281.408 155.035 280.4 154.069 279.536 153.344V161.632H278V146.912ZM271.856 153.2C272.677 153.627 273.44 154.128 274.144 154.704C274.773 153.435 275.211 152.027 275.456 150.48H272.608C271.851 152.251 270.827 153.733 269.536 154.928L268.48 153.616C270.272 151.952 271.488 149.712 272.128 146.896L273.648 147.152C273.488 147.856 273.323 148.48 273.152 149.024H276.944V150.368C276.4 155.211 274.059 158.864 269.92 161.328L268.88 160.032C270.821 158.944 272.341 157.568 273.44 155.904C272.693 155.296 271.899 154.789 271.056 154.384L271.856 153.2ZM293.472 147.6H298.848V148.688C298.368 150.331 297.856 151.851 297.312 153.248C298.443 154.859 299.013 156.165 299.024 157.168C299.024 158.085 298.827 158.731 298.432 159.104C297.995 159.477 297.136 159.664 295.856 159.664L295.408 158.144C295.952 158.208 296.411 158.24 296.784 158.24C297.147 158.208 297.376 158.123 297.472 157.984C297.557 157.867 297.611 157.595 297.632 157.168C297.611 156.165 297.003 154.859 295.808 153.248C296.32 152.064 296.816 150.629 297.296 148.944H294.928V161.664H293.472V147.6ZM285.072 148.304H288.096C287.968 147.835 287.824 147.403 287.664 147.008L289.216 146.752C289.344 147.168 289.477 147.685 289.616 148.304H292.656V149.744H285.072V148.304ZM284.768 152.672H286.736C286.501 151.947 286.213 151.275 285.872 150.656L287.248 150.16C287.568 150.875 287.872 151.712 288.16 152.672H289.616C290.011 151.829 290.347 150.96 290.624 150.064L292.016 150.544C291.707 151.397 291.408 152.107 291.12 152.672H292.752V154.128H284.768V152.672ZM292.096 155.28V161.36H290.64V160.592H287.04V161.392H285.568V155.28H292.096ZM287.04 159.184H290.64V156.656H287.04V159.184ZM301.6 148.144H307.232V146.912H308.768V148.144H314.4V149.552H308.768V150.72H313.472V152.128H308.768V153.296H314.96V154.688H309.312C309.685 155.541 310.155 156.325 310.72 157.04C311.552 156.624 312.347 156.005 313.104 155.184L314.16 156.208C313.424 156.944 312.571 157.547 311.6 158.016C312.581 158.976 313.771 159.717 315.168 160.24L314.336 161.584C311.424 160.379 309.285 158.08 307.92 154.688H307.52C306.965 155.456 306.293 156.155 305.504 156.784V159.792C306.677 159.419 307.781 159.029 308.816 158.624L309.104 160.016C307.44 160.667 305.701 161.216 303.888 161.664L303.376 160.368C303.803 160.187 304.016 159.931 304.016 159.6V157.792C303.184 158.272 302.309 158.704 301.392 159.088L300.592 157.76C302.971 156.949 304.736 155.925 305.888 154.688H301.04V153.296H307.232V152.128H302.528V150.72H307.232V149.552H301.6V148.144Z" fill="#D47E07"/>
<rect x="302.5" y="78.5" width="89" height="43" rx="7.5" fill="white"/>
<rect x="302.5" y="78.5" width="89" height="43" rx="7.5" stroke="#1156B7"/>
<path d="M316.248 94.336H320.472C320.643 93.856 320.808 93.3387 320.968 92.784L322.504 92.96C322.397 93.344 322.259 93.8027 322.088 94.336H330.072V95.824H321.496C320.888 97.2107 320.163 98.464 319.32 99.584V107.664H317.832V101.36C317.448 101.776 317.016 102.197 316.536 102.624L315.592 101.408C317.427 99.776 318.845 97.9147 319.848 95.824H316.248V94.336ZM320.392 101.856H324.904V100.56C325.757 100.08 326.573 99.52 327.352 98.88H321.608V97.488H329.256V98.88C328.371 99.712 327.421 100.475 326.408 101.168V101.856H330.28V103.328H326.408V105.936C326.408 107.045 325.864 107.6 324.776 107.6H322.792L322.392 106.16C322.936 106.192 323.528 106.208 324.168 106.208C324.659 106.208 324.904 105.957 324.904 105.456V103.328H320.392V101.856ZM332.968 99.28C332.669 99.728 332.344 100.187 331.992 100.656L331.48 99.024C332.685 97.264 333.565 95.216 334.12 92.88L335.496 93.52C335.208 94.5867 334.856 95.6053 334.44 96.576V107.68H332.968V99.28ZM336.6 93.424C337.496 94.2133 338.269 95.0133 338.92 95.824L337.784 96.96C337.24 96.1493 336.499 95.3067 335.56 94.432L336.6 93.424ZM334.904 97.76H338.008V104.128L339.08 102.896L339.448 104.384C338.627 105.429 337.736 106.373 336.776 107.216L336.184 105.824C336.419 105.621 336.536 105.392 336.536 105.136V99.168H334.904V97.76ZM339.544 94.656H341.336V92.912H342.728V94.656H344.408V95.44C344.739 94.768 345.005 94.1813 345.208 93.68L346.456 94.336C345.955 95.5627 345.373 96.688 344.712 97.712H346.232V99.088H343.72C343.421 99.4507 343.043 99.8613 342.584 100.32H345.544V107.616H344.12V107.008H341.528V107.616H340.104V102.144C339.848 102.283 339.565 102.427 339.256 102.576L338.488 101.392C339.725 100.816 340.835 100.048 341.816 99.088H339.304V97.712H341.336V95.952H339.544V94.656ZM343 97.712C343.405 97.1787 343.789 96.592 344.152 95.952H342.728V97.712H343ZM341.528 104.272V105.696H344.12V104.272H341.528ZM344.12 103.024V101.648H341.528V103.024H344.12ZM349.096 93.04C350.173 93.872 351.085 94.704 351.832 95.536L350.728 96.64C350.045 95.7867 349.155 94.9173 348.056 94.032L349.096 93.04ZM358.696 107.376C358.141 107.376 357.149 107.365 355.72 107.344C354.643 107.333 353.757 107.243 353.064 107.072C352.403 106.88 351.816 106.507 351.304 105.952C351.08 105.685 350.867 105.552 350.664 105.552C350.323 105.552 349.736 106.293 348.904 107.776L347.784 106.736C348.595 105.413 349.325 104.581 349.976 104.24V99.728H347.8V98.288H351.432V104.352C351.517 104.405 351.603 104.485 351.688 104.592C352.072 105.008 352.477 105.323 352.904 105.536C353.405 105.76 354.147 105.888 355.128 105.92C356.387 105.941 357.512 105.952 358.504 105.952L360.712 105.936C361.469 105.904 362.051 105.872 362.456 105.84L362.088 107.376H358.696ZM356.024 105.232L355.688 103.76C356.381 103.824 357.037 103.856 357.656 103.856C358.061 103.856 358.264 103.685 358.264 103.344V96.88H352.552V95.408H358.264V92.944H359.8V95.408H361.944V96.88H359.8V103.712C359.8 104.725 359.261 105.232 358.184 105.232H356.024ZM354.552 98.048C355.469 99.2107 356.179 100.224 356.68 101.088L355.4 101.984C354.909 101.056 354.221 100.005 353.336 98.832L354.552 98.048ZM370.36 93.408H377.384V98.256H370.36V93.408ZM375.912 96.896V94.752H371.848V96.896H375.912ZM369.864 99.488H377.912V100.864H374.552V102.528H377.416V103.888H374.552V105.664H378.296V107.104H369.256V105.664H373.016V103.888H370.232V102.528H373.016V100.864H369.864V99.488ZM363.88 97.136H366.088V95.2C365.341 95.296 364.712 95.3707 364.2 95.424L363.896 94C365.827 93.84 367.592 93.5147 369.192 93.024L369.72 94.464C369.08 94.6453 368.355 94.8107 367.544 94.96V97.136H369.384V98.592H367.544V99.264C368.152 99.84 368.877 100.581 369.72 101.488L368.872 102.768C368.285 101.819 367.843 101.131 367.544 100.704V107.584H366.088V100.912C365.565 102.299 364.92 103.536 364.152 104.624L363.48 102.928C364.589 101.669 365.4 100.224 365.912 98.592H363.88V97.136Z" fill="#1156B7"/>
<rect x="302.5" y="186.5" width="89" height="43" rx="7.5" fill="white"/>
<rect x="302.5" y="186.5" width="89" height="43" rx="7.5" stroke="#21A240"/>
<path d="M339.816 200.784C340.061 201.275 340.259 201.707 340.408 202.08H346.104V203.488H334.424V207.216C334.36 210.736 333.795 213.547 332.728 215.648L331.576 214.624C332.44 212.843 332.888 210.373 332.92 207.216V202.08H338.856C338.675 201.696 338.483 201.349 338.28 201.04L339.816 200.784ZM338.28 206.256C339.165 206.715 339.848 207.093 340.328 207.392C341.181 206.901 341.955 206.363 342.648 205.776H335.864V204.48H344.552V205.568C343.549 206.603 342.515 207.456 341.448 208.128L341.976 208.512L341.768 208.72H345.864V209.904C345.192 211.152 344.461 212.187 343.672 213.008L342.536 212.096C343.155 211.541 343.715 210.88 344.216 210.112H341.016V214.064C341.016 215.141 340.488 215.68 339.432 215.68H337.048L336.728 214.24C337.624 214.315 338.355 214.352 338.92 214.352C339.315 214.352 339.512 214.139 339.512 213.712V210.112H334.936V208.72H340.184C339.448 208.229 338.515 207.701 337.384 207.136L338.28 206.256ZM357.864 215.504L357.512 214.048C358.184 214.112 358.824 214.144 359.432 214.144C360.029 214.144 360.328 213.835 360.328 213.216V200.992H361.832V213.584C361.832 214.864 361.213 215.504 359.976 215.504H357.864ZM356.92 202.208H358.392V212.256H356.92V202.208ZM348.104 201.44H355.96V202.912H351.912C351.827 203.477 351.704 204.091 351.544 204.752H355.24V206.096C354.536 210.619 352.365 213.755 348.728 215.504L347.992 214.144C349.741 213.291 351.112 212.096 352.104 210.56C351.347 209.973 350.493 209.424 349.544 208.912C349.192 209.339 348.824 209.739 348.44 210.112L347.704 208.688C349.165 207.291 350.072 205.365 350.424 202.912H348.104V201.44ZM350.344 207.744C351.229 208.213 352.051 208.736 352.808 209.312C353.256 208.363 353.592 207.323 353.816 206.192H351.08C350.845 206.768 350.6 207.285 350.344 207.744Z" fill="#21A240"/>
<rect x="347.5" y="132.5" width="89" height="43" rx="7.5" fill="white"/>
<rect x="347.5" y="132.5" width="89" height="43" rx="7.5" stroke="#FF3C00"/>
<path d="M383.904 150.496C383.179 152.021 382.352 153.349 381.424 154.48L380.336 153.168C381.669 151.611 382.8 149.472 383.728 146.752L385.264 147.088C385.072 147.675 384.837 148.315 384.56 149.008H391.152V150.496H386.016V152.784H390.512V154.256H386.016V156.608H390.544V158.064H386.016V161.68H384.48V150.496H383.904ZM378.448 153.136C378.032 153.637 377.547 154.176 376.992 154.752L376.48 153.12C378.123 151.317 379.339 149.211 380.128 146.8L381.568 147.472C381.152 148.688 380.624 149.84 379.984 150.928V161.68H378.448V153.136ZM397.504 147.008H399.024V159.584H400.944V147.008H402.464V159.584H407.136V161.072H392.864V159.584H397.504V147.008ZM406.8 150.368C406.192 153.109 405.408 155.515 404.448 157.584L403.088 157.104C403.995 155.216 404.784 152.843 405.456 149.984L406.8 150.368ZM394.48 149.952C395.28 152.064 396.005 154.512 396.656 157.296L395.264 157.648C394.731 155.195 394.037 152.768 393.184 150.368L394.48 149.952Z" fill="#FF3C00"/>
<rect x="231.5" y="240.5" width="89" height="43" rx="7.5" fill="white"/>
<rect x="231.5" y="240.5" width="89" height="43" rx="7.5" stroke="#D47E07"/>
<path d="M269.6 256.144H275.232V254.912H276.768V256.144H282.4V257.552H276.768V258.72H281.472V260.128H276.768V261.296H282.96V262.688H277.312C277.685 263.541 278.155 264.325 278.72 265.04C279.552 264.624 280.347 264.005 281.104 263.184L282.16 264.208C281.424 264.944 280.571 265.547 279.6 266.016C280.581 266.976 281.771 267.717 283.168 268.24L282.336 269.584C279.424 268.379 277.285 266.08 275.92 262.688H275.52C274.965 263.456 274.293 264.155 273.504 264.784V267.792C274.677 267.419 275.781 267.029 276.816 266.624L277.104 268.016C275.44 268.667 273.701 269.216 271.888 269.664L271.376 268.368C271.803 268.187 272.016 267.931 272.016 267.6V265.792C271.184 266.272 270.309 266.704 269.392 267.088L268.592 265.76C270.971 264.949 272.736 263.925 273.888 262.688H269.04V261.296H275.232V260.128H270.528V258.72H275.232V257.552H269.6V256.144Z" fill="#D47E07"/>
<rect x="249.5" y="24.5" width="89" height="43" rx="7.5" fill="white"/>
<rect x="249.5" y="24.5" width="89" height="43" rx="7.5" stroke="#1156B7"/>
<path d="M263.248 40.336H267.472C267.643 39.856 267.808 39.3387 267.968 38.784L269.504 38.96C269.397 39.344 269.259 39.8027 269.088 40.336H277.072V41.824H268.496C267.888 43.2107 267.163 44.464 266.32 45.584V53.664H264.832V47.36C264.448 47.776 264.016 48.1973 263.536 48.624L262.592 47.408C264.427 45.776 265.845 43.9147 266.848 41.824H263.248V40.336ZM267.392 47.856H271.904V46.56C272.757 46.08 273.573 45.52 274.352 44.88H268.608V43.488H276.256V44.88C275.371 45.712 274.421 46.4747 273.408 47.168V47.856H277.28V49.328H273.408V51.936C273.408 53.0453 272.864 53.6 271.776 53.6H269.792L269.392 52.16C269.936 52.192 270.528 52.208 271.168 52.208C271.659 52.208 271.904 51.9573 271.904 51.456V49.328H267.392V47.856ZM279.968 45.28C279.669 45.728 279.344 46.1867 278.992 46.656L278.48 45.024C279.685 43.264 280.565 41.216 281.12 38.88L282.496 39.52C282.208 40.5867 281.856 41.6053 281.44 42.576V53.68H279.968V45.28ZM283.6 39.424C284.496 40.2133 285.269 41.0133 285.92 41.824L284.784 42.96C284.24 42.1493 283.499 41.3067 282.56 40.432L283.6 39.424ZM281.904 43.76H285.008V50.128L286.08 48.896L286.448 50.384C285.627 51.4293 284.736 52.3733 283.776 53.216L283.184 51.824C283.419 51.6213 283.536 51.392 283.536 51.136V45.168H281.904V43.76ZM286.544 40.656H288.336V38.912H289.728V40.656H291.408V41.44C291.739 40.768 292.005 40.1813 292.208 39.68L293.456 40.336C292.955 41.5627 292.373 42.688 291.712 43.712H293.232V45.088H290.72C290.421 45.4507 290.043 45.8613 289.584 46.32H292.544V53.616H291.12V53.008H288.528V53.616H287.104V48.144C286.848 48.2827 286.565 48.4267 286.256 48.576L285.488 47.392C286.725 46.816 287.835 46.048 288.816 45.088H286.304V43.712H288.336V41.952H286.544V40.656ZM290 43.712C290.405 43.1787 290.789 42.592 291.152 41.952H289.728V43.712H290ZM288.528 50.272V51.696H291.12V50.272H288.528ZM291.12 49.024V47.648H288.528V49.024H291.12ZM296.928 48.64C298.56 47.7227 300.096 46.608 301.536 45.296V42.544C302.965 41.84 304.069 41.264 304.848 40.816H297.104V39.392H307.136V40.816C305.813 41.7333 304.421 42.5867 302.96 43.376V45.632C304.24 46.496 305.605 47.5307 307.056 48.736L306.16 50.08C304.933 48.8853 303.867 47.9253 302.96 47.2V49.408C302.96 50.4533 302.469 50.976 301.488 50.976H300.032L299.648 49.568C300.032 49.6 300.464 49.616 300.944 49.616C301.339 49.616 301.536 49.376 301.536 48.896V46.992C300.256 48.176 298.896 49.216 297.456 50.112L296.928 48.64ZM307.088 42.4H308.544V53.68H307.088V52.912H296.912V53.664H295.456V42.384H296.912V51.504H307.088V42.4ZM298.528 42.864C299.499 43.76 300.235 44.5333 300.736 45.184L299.6 45.968C299.067 45.264 298.336 44.464 297.408 43.568L298.528 42.864ZM306.752 43.36C306.112 44.384 305.365 45.2747 304.512 46.032L303.424 45.264C304.245 44.56 304.949 43.728 305.536 42.768L306.752 43.36ZM320.672 42.656L320.48 43.376C320.853 45.0187 321.317 46.4587 321.872 47.696C322.373 46.2773 322.656 44.5973 322.72 42.656H320.672ZM321.184 49.264C320.629 48.1653 320.149 46.9227 319.744 45.536C319.456 46.208 319.189 46.7467 318.944 47.152L317.984 45.968C318.88 44.208 319.488 41.84 319.808 38.864L321.296 39.12C321.179 40.0053 321.072 40.6987 320.976 41.2H325.04V42.656H324.128C324.032 45.2587 323.563 47.472 322.72 49.296C323.531 50.608 324.469 51.616 325.536 52.32L324.656 53.6C323.643 52.864 322.752 51.8933 321.984 50.688C321.205 51.8933 320.256 52.896 319.136 53.696L318.336 52.4C319.531 51.6 320.48 50.5547 321.184 49.264ZM313.568 46.304L315.04 46.464L314.768 47.2H318.016V48.48C317.728 49.44 317.221 50.2827 316.496 51.008C317.275 51.36 317.899 51.6587 318.368 51.904L317.552 53.12C316.944 52.768 316.197 52.384 315.312 51.968C314.277 52.64 312.955 53.1893 311.344 53.616L310.608 52.32C311.803 52.032 312.832 51.68 313.696 51.264C313.195 51.0507 312.496 50.768 311.6 50.416C312.005 49.744 312.352 49.1253 312.64 48.56H310.976V47.2H313.248L313.568 46.304ZM315.056 50.416C315.749 49.8827 316.267 49.264 316.608 48.56H314.176C313.963 48.9867 313.723 49.408 313.456 49.824C314.064 50.0373 314.597 50.2347 315.056 50.416ZM312.448 39.2C312.789 39.7547 313.115 40.3893 313.424 41.104L312.24 41.648C311.909 40.848 311.557 40.1707 311.184 39.616L312.448 39.2ZM318.192 39.696C317.861 40.4 317.456 41.0667 316.976 41.696L315.856 41.104C316.293 40.4853 316.672 39.824 316.992 39.12L318.192 39.696ZM311.024 41.84H314.048V38.896H315.44V41.84H318.224V43.168H315.44V43.248C316.24 43.5787 317.104 43.9893 318.032 44.48L317.232 45.68C316.475 45.072 315.877 44.6293 315.44 44.352V46.144H314.048V43.44C313.525 44.592 312.645 45.6 311.408 46.464L310.656 45.232C311.755 44.6027 312.549 43.9147 313.04 43.168H311.024V41.84Z" fill="#1156B7"/>
<defs>
<filter id="filter0_d_21204_12672" x="0" y="123" width="190" height="103" filterUnits="userSpaceOnUse" color-interpolation-filters="sRGB">
<feFlood flood-opacity="0" result="BackgroundImageFix"/>
<feColorMatrix in="SourceAlpha" type="matrix" values="0 0 0 0 0 0 0 0 0 0 0 0 0 0 0 0 0 0 127 0" result="hardAlpha"/>
<feMorphology radius="4" operator="erode" in="SourceAlpha" result="effect1_dropShadow_21204_12672"/>
<feOffset dy="20"/>
<feGaussianBlur stdDeviation="12"/>
<feComposite in2="hardAlpha" operator="out"/>
<feColorMatrix type="matrix" values="0 0 0 0 0.0634347 0 0 0 0 0.0877091 0 0 0 0 0.791666 0 0 0 0.05 0"/>
<feBlend mode="normal" in2="BackgroundImageFix" result="effect1_dropShadow_21204_12672"/>
<feBlend mode="normal" in="SourceGraphic" in2="effect1_dropShadow_21204_12672" result="shape"/>
</filter>
</defs>
</svg>
