<svg width="628" height="332" viewBox="0 0 628 332" fill="none" xmlns="http://www.w3.org/2000/svg">
<rect x="10" y="156" width="384" height="176" rx="12" fill="white"/>
<rect x="10.5" y="156.5" width="383" height="175" rx="11.5" stroke="black" stroke-opacity="0.2"/>
<path d="M45.964 202.168C45.2267 202.168 44.5453 202.037 43.92 201.776C43.304 201.505 42.7627 201.127 42.296 200.642C41.8387 200.157 41.484 199.587 41.232 198.934C40.98 198.281 40.854 197.567 40.854 196.792C40.854 196.008 40.98 195.289 41.232 194.636C41.484 193.983 41.8387 193.413 42.296 192.928C42.7533 192.443 43.2947 192.069 43.92 191.808C44.5453 191.537 45.2267 191.402 45.964 191.402C46.6827 191.402 47.3267 191.528 47.896 191.78C48.4747 192.032 48.96 192.359 49.352 192.76C49.7533 193.161 50.038 193.591 50.206 194.048L48.946 194.622C48.7033 194.043 48.3253 193.577 47.812 193.222C47.2987 192.858 46.6827 192.676 45.964 192.676C45.236 192.676 44.5873 192.849 44.018 193.194C43.458 193.539 43.0193 194.02 42.702 194.636C42.3847 195.252 42.226 195.971 42.226 196.792C42.226 197.604 42.3847 198.318 42.702 198.934C43.0193 199.55 43.458 200.031 44.018 200.376C44.5873 200.721 45.236 200.894 45.964 200.894C46.6827 200.894 47.2987 200.717 47.812 200.362C48.3253 199.998 48.7033 199.527 48.946 198.948L50.206 199.522C50.038 199.979 49.7533 200.409 49.352 200.81C48.96 201.211 48.4747 201.538 47.896 201.79C47.3267 202.042 46.6827 202.168 45.964 202.168ZM52.0722 202V191.57H55.7542C56.4448 191.57 57.0515 191.701 57.5742 191.962C58.0968 192.223 58.5028 192.597 58.7922 193.082C59.0908 193.567 59.2402 194.137 59.2402 194.79C59.2402 195.527 59.0535 196.153 58.6802 196.666C58.3068 197.179 57.8028 197.548 57.1682 197.772L59.5902 202H57.9942L55.4462 197.478L56.3562 198.01H53.4442V202H52.0722ZM53.4442 196.75H55.7962C56.2068 196.75 56.5662 196.671 56.8742 196.512C57.1822 196.353 57.4202 196.125 57.5882 195.826C57.7655 195.527 57.8542 195.182 57.8542 194.79C57.8542 194.389 57.7655 194.043 57.5882 193.754C57.4202 193.455 57.1822 193.227 56.8742 193.068C56.5662 192.909 56.2068 192.83 55.7962 192.83H53.4442V196.75ZM61.1503 202V191.57H67.9403V192.83H62.5223V196.134H67.6603V197.394H62.5223V200.74H67.9403V202H61.1503ZM68.6325 202L72.3705 191.57H73.9945L77.7325 202H76.2625L75.4085 199.55H70.9565L70.1025 202H68.6325ZM71.3905 198.29H74.9745L72.9865 192.564H73.3785L71.3905 198.29ZM80.1695 202V192.83H77.3415V191.57H84.3415V192.83H81.5555V202H80.1695ZM85.664 202V191.57H92.454V192.83H87.036V196.134H92.174V197.394H87.036V200.74H92.454V202H85.664ZM98.3941 202V192.83H95.5661V191.57H102.566V192.83H99.7801V202H98.3941ZM102.183 202L105.921 191.57H107.545L111.283 202H109.813L108.959 199.55H104.507L103.653 202H102.183ZM104.941 198.29H108.525L106.537 192.564H106.929L104.941 198.29ZM112.598 202V191.57H116.98C117.605 191.57 118.142 191.682 118.59 191.906C119.047 192.13 119.397 192.447 119.64 192.858C119.892 193.259 120.018 193.74 120.018 194.3C120.018 194.813 119.882 195.28 119.612 195.7C119.35 196.111 118.963 196.433 118.45 196.666L118.436 196.148C118.884 196.316 119.252 196.54 119.542 196.82C119.84 197.091 120.064 197.408 120.214 197.772C120.363 198.127 120.438 198.505 120.438 198.906C120.438 199.867 120.13 200.623 119.514 201.174C118.898 201.725 118.058 202 116.994 202H112.598ZM113.97 200.74H117.05C117.656 200.74 118.142 200.577 118.506 200.25C118.87 199.923 119.052 199.48 119.052 198.92C119.052 198.36 118.87 197.917 118.506 197.59C118.142 197.254 117.656 197.086 117.05 197.086H113.97V200.74ZM113.97 195.854H116.952C117.456 195.854 117.862 195.709 118.17 195.42C118.478 195.121 118.632 194.743 118.632 194.286C118.632 193.81 118.478 193.446 118.17 193.194C117.862 192.942 117.456 192.816 116.952 192.816H113.97V195.854ZM122.291 202V191.57H123.663V200.74H128.241V202H122.291ZM129.783 202V191.57H136.573V192.83H131.155V196.134H136.293V197.394H131.155V200.74H136.573V202H129.783Z" fill="#48AF6A"/>
<path d="M142.513 202V192.83H139.685V191.57H146.685V192.83H143.899V202H142.513ZM149.232 202.168C148.737 202.168 148.298 202.079 147.916 201.902C147.542 201.715 147.248 201.463 147.034 201.146C146.819 200.819 146.712 200.446 146.712 200.026C146.712 199.625 146.796 199.265 146.964 198.948C147.141 198.621 147.412 198.346 147.776 198.122C148.149 197.898 148.616 197.739 149.176 197.646L151.976 197.184V198.276L149.47 198.696C148.984 198.78 148.63 198.934 148.406 199.158C148.191 199.382 148.084 199.657 148.084 199.984C148.084 200.292 148.205 200.549 148.448 200.754C148.7 200.959 149.012 201.062 149.386 201.062C149.862 201.062 150.272 200.964 150.618 200.768C150.972 200.563 151.248 200.287 151.444 199.942C151.649 199.597 151.752 199.214 151.752 198.794V196.876C151.752 196.465 151.598 196.134 151.29 195.882C150.991 195.621 150.594 195.49 150.1 195.49C149.67 195.49 149.288 195.602 148.952 195.826C148.625 196.041 148.382 196.33 148.224 196.694L147.09 196.106C147.23 195.761 147.454 195.453 147.762 195.182C148.07 194.902 148.429 194.683 148.84 194.524C149.25 194.365 149.68 194.286 150.128 194.286C150.706 194.286 151.215 194.398 151.654 194.622C152.092 194.837 152.433 195.14 152.676 195.532C152.928 195.915 153.054 196.363 153.054 196.876V202H151.78V200.572L152.018 200.656C151.859 200.955 151.644 201.216 151.374 201.44C151.103 201.664 150.786 201.841 150.422 201.972C150.058 202.103 149.661 202.168 149.232 202.168ZM158.978 202.168C158.372 202.168 157.816 202.033 157.312 201.762C156.818 201.491 156.435 201.109 156.164 200.614L156.346 200.39V202H155.072V191.402H156.374V196.078L156.178 195.756C156.458 195.308 156.841 194.953 157.326 194.692C157.812 194.421 158.367 194.286 158.992 194.286C159.702 194.286 160.336 194.459 160.896 194.804C161.466 195.149 161.914 195.621 162.24 196.218C162.567 196.806 162.73 197.478 162.73 198.234C162.73 198.971 162.567 199.639 162.24 200.236C161.914 200.833 161.466 201.305 160.896 201.65C160.336 201.995 159.697 202.168 158.978 202.168ZM158.88 200.908C159.356 200.908 159.781 200.791 160.154 200.558C160.528 200.325 160.817 200.007 161.022 199.606C161.237 199.195 161.344 198.738 161.344 198.234C161.344 197.711 161.237 197.254 161.022 196.862C160.817 196.461 160.528 196.143 160.154 195.91C159.781 195.667 159.356 195.546 158.88 195.546C158.404 195.546 157.975 195.663 157.592 195.896C157.219 196.129 156.92 196.451 156.696 196.862C156.482 197.263 156.374 197.721 156.374 198.234C156.374 198.738 156.482 199.195 156.696 199.606C156.92 200.007 157.219 200.325 157.592 200.558C157.975 200.791 158.404 200.908 158.88 200.908ZM164.438 202V191.402H165.74V202H164.438ZM171.232 202.168C170.504 202.168 169.855 201.995 169.286 201.65C168.717 201.305 168.269 200.833 167.942 200.236C167.615 199.629 167.452 198.953 167.452 198.206C167.452 197.45 167.611 196.778 167.928 196.19C168.255 195.602 168.693 195.14 169.244 194.804C169.804 194.459 170.429 194.286 171.12 194.286C171.68 194.286 172.175 194.389 172.604 194.594C173.043 194.79 173.411 195.061 173.71 195.406C174.018 195.742 174.251 196.129 174.41 196.568C174.578 196.997 174.662 197.445 174.662 197.912C174.662 198.015 174.653 198.131 174.634 198.262C174.625 198.383 174.611 198.5 174.592 198.612H168.404V197.492H173.836L173.22 197.996C173.304 197.511 173.257 197.077 173.08 196.694C172.903 196.311 172.641 196.008 172.296 195.784C171.951 195.56 171.559 195.448 171.12 195.448C170.681 195.448 170.28 195.56 169.916 195.784C169.552 196.008 169.267 196.33 169.062 196.75C168.866 197.161 168.787 197.651 168.824 198.22C168.787 198.771 168.871 199.256 169.076 199.676C169.291 200.087 169.589 200.409 169.972 200.642C170.364 200.866 170.789 200.978 171.246 200.978C171.75 200.978 172.175 200.861 172.52 200.628C172.865 200.395 173.145 200.096 173.36 199.732L174.452 200.292C174.303 200.637 174.069 200.955 173.752 201.244C173.444 201.524 173.075 201.748 172.646 201.916C172.226 202.084 171.755 202.168 171.232 202.168ZM180.263 202V192.76H178.289V191.57H181.649V202H180.263ZM186.169 204.1C185.413 203.232 184.839 202.271 184.447 201.216C184.055 200.152 183.859 199.023 183.859 197.828C183.859 196.624 184.055 195.495 184.447 194.44C184.839 193.385 185.413 192.429 186.169 191.57H187.289C186.617 192.522 186.109 193.53 185.763 194.594C185.418 195.649 185.245 196.727 185.245 197.828C185.245 198.929 185.418 200.012 185.763 201.076C186.109 202.131 186.617 203.139 187.289 204.1H186.169ZM189.183 202V200.32H190.541V202H189.183ZM193.626 202V200.32H194.984V202H193.626ZM198.069 202V200.32H199.427V202H198.069ZM201.337 204.1C201.999 203.139 202.503 202.131 202.849 201.076C203.194 200.012 203.367 198.929 203.367 197.828C203.367 196.727 203.194 195.649 202.849 194.594C202.503 193.53 201.999 192.522 201.337 191.57H202.457C203.213 192.429 203.782 193.385 204.165 194.44C204.557 195.495 204.753 196.624 204.753 197.828C204.753 199.023 204.557 200.152 204.165 201.216C203.782 202.271 203.213 203.232 202.457 204.1H201.337ZM207.038 203.946V203.358C207.327 203.283 207.551 203.129 207.71 202.896C207.878 202.672 207.976 202.373 208.004 202H207.318V200.32H208.676V201.51C208.676 202.182 208.536 202.723 208.256 203.134C207.985 203.545 207.579 203.815 207.038 203.946ZM207.318 196.134V194.454H208.676V196.134H207.318Z" fill="black"/>
<path d="M218 196C218 190.477 222.477 186 228 186C233.523 186 238 190.477 238 196C238 201.523 233.523 206 228 206C222.477 206 218 201.523 218 196Z" fill="#4BCD6B"/>
<path d="M231.043 192.793C231.433 192.402 232.066 192.402 232.457 192.793C232.847 193.183 232.847 193.816 232.457 194.207L227.457 199.207C227.066 199.597 226.433 199.597 226.043 199.207L223.543 196.707C223.152 196.316 223.152 195.683 223.543 195.293C223.909 194.927 224.488 194.904 224.881 195.225L224.957 195.293L226.75 197.086L231.043 192.793Z" fill="white"/>
<path d="M41.162 234V223.57H44.578C45.6327 223.57 46.552 223.785 47.336 224.214C48.12 224.643 48.7267 225.25 49.156 226.034C49.5853 226.809 49.8 227.723 49.8 228.778C49.8 229.823 49.5853 230.738 49.156 231.522C48.7267 232.306 48.12 232.917 47.336 233.356C46.552 233.785 45.6327 234 44.578 234H41.162ZM42.534 232.74H44.592C45.3667 232.74 46.034 232.577 46.594 232.25C47.1633 231.923 47.602 231.466 47.91 230.878C48.218 230.281 48.372 229.581 48.372 228.778C48.372 227.966 48.2133 227.266 47.896 226.678C47.588 226.09 47.1493 225.637 46.58 225.32C46.02 224.993 45.3573 224.83 44.592 224.83H42.534V232.74ZM51.539 234V223.57H55.221C55.9116 223.57 56.5183 223.701 57.041 223.962C57.5636 224.223 57.9696 224.597 58.259 225.082C58.5576 225.567 58.707 226.137 58.707 226.79C58.707 227.527 58.5203 228.153 58.147 228.666C57.7736 229.179 57.2696 229.548 56.635 229.772L59.057 234H57.461L54.913 229.478L55.823 230.01H52.911V234H51.539ZM52.911 228.75H55.263C55.6736 228.75 56.033 228.671 56.341 228.512C56.649 228.353 56.887 228.125 57.055 227.826C57.2323 227.527 57.321 227.182 57.321 226.79C57.321 226.389 57.2323 226.043 57.055 225.754C56.887 225.455 56.649 225.227 56.341 225.068C56.033 224.909 55.6736 224.83 55.263 224.83H52.911V228.75ZM65.6011 234.168C64.8637 234.168 64.1731 234.037 63.5291 233.776C62.8851 233.505 62.3204 233.127 61.8351 232.642C61.3591 232.157 60.9857 231.587 60.7151 230.934C60.4444 230.271 60.3091 229.553 60.3091 228.778C60.3091 227.994 60.4444 227.275 60.7151 226.622C60.9857 225.969 61.3591 225.399 61.8351 224.914C62.3204 224.429 62.8804 224.055 63.5151 223.794C64.1591 223.533 64.8544 223.402 65.6011 223.402C66.3477 223.402 67.0384 223.537 67.6731 223.808C68.3171 224.069 68.8771 224.443 69.3531 224.928C69.8384 225.404 70.2164 225.969 70.4871 226.622C70.7671 227.275 70.9071 227.994 70.9071 228.778C70.9071 229.553 70.7671 230.271 70.4871 230.934C70.2164 231.587 69.8384 232.157 69.3531 232.642C68.8771 233.127 68.3171 233.505 67.6731 233.776C67.0384 234.037 66.3477 234.168 65.6011 234.168ZM65.6011 232.894C66.1797 232.894 66.7071 232.791 67.1831 232.586C67.6591 232.371 68.0697 232.077 68.4151 231.704C68.7697 231.321 69.0404 230.883 69.2271 230.388C69.4231 229.884 69.5211 229.347 69.5211 228.778C69.5211 228.209 69.4231 227.677 69.2271 227.182C69.0404 226.687 68.7697 226.253 68.4151 225.88C68.0697 225.497 67.6591 225.203 67.1831 224.998C66.7071 224.783 66.1797 224.676 65.6011 224.676C65.0317 224.676 64.5091 224.783 64.0331 224.998C63.5571 225.203 63.1417 225.497 62.7871 225.88C62.4417 226.253 62.1711 226.687 61.9751 227.182C61.7791 227.677 61.6811 228.209 61.6811 228.778C61.6811 229.347 61.7791 229.884 61.9751 230.388C62.1711 230.883 62.4417 231.321 62.7871 231.704C63.1417 232.077 63.5571 232.371 64.0331 232.586C64.5091 232.791 65.0317 232.894 65.6011 232.894ZM72.9081 234V223.57H76.5901C77.2808 223.57 77.8874 223.701 78.4101 223.962C78.9328 224.223 79.3388 224.597 79.6281 225.082C79.9268 225.567 80.0761 226.137 80.0761 226.79C80.0761 227.443 79.9268 228.013 79.6281 228.498C79.3388 228.974 78.9328 229.347 78.4101 229.618C77.8968 229.879 77.2901 230.01 76.5901 230.01H74.2801V234H72.9081ZM74.2801 228.75H76.6321C77.0521 228.75 77.4161 228.671 77.7241 228.512C78.0321 228.353 78.2701 228.125 78.4381 227.826C78.6061 227.527 78.6901 227.182 78.6901 226.79C78.6901 226.389 78.6061 226.043 78.4381 225.754C78.2701 225.455 78.0321 225.227 77.7241 225.068C77.4161 224.909 77.0521 224.83 76.6321 224.83H74.2801V228.75ZM84.3515 234V223.57H85.7235V234H84.3515ZM88.0429 234V223.57H89.1909L95.1829 231.998L94.6649 232.054V223.57H96.0509V234H94.9029L88.9389 225.516L89.4149 225.46V234H88.0429ZM98.3788 234V223.57H101.795C102.849 223.57 103.769 223.785 104.553 224.214C105.337 224.643 105.943 225.25 106.373 226.034C106.802 226.809 107.017 227.723 107.017 228.778C107.017 229.823 106.802 230.738 106.373 231.522C105.943 232.306 105.337 232.917 104.553 233.356C103.769 233.785 102.849 234 101.795 234H98.3788ZM99.7508 232.74H101.809C102.583 232.74 103.251 232.577 103.811 232.25C104.38 231.923 104.819 231.466 105.127 230.878C105.435 230.281 105.589 229.581 105.589 228.778C105.589 227.966 105.43 227.266 105.113 226.678C104.805 226.09 104.366 225.637 103.797 225.32C103.237 224.993 102.574 224.83 101.809 224.83H99.7508V232.74ZM108.756 234V223.57H115.546V224.83H110.128V228.134H115.266V229.394H110.128V232.74H115.546V234H108.756ZM116.238 234L119.64 228.708L116.322 223.57H117.89L120.704 227.952H120.116L122.93 223.57H124.498L121.18 228.708L124.582 234H123.014L120.116 229.464H120.704L117.792 234H116.238ZM212.123 234.168C211.385 234.168 210.695 234.037 210.051 233.776C209.407 233.505 208.842 233.127 208.357 232.642C207.881 232.157 207.507 231.587 207.237 230.934C206.966 230.271 206.831 229.553 206.831 228.778C206.831 227.994 206.966 227.275 207.237 226.622C207.507 225.969 207.881 225.399 208.357 224.914C208.842 224.429 209.402 224.055 210.037 223.794C210.681 223.533 211.376 223.402 212.123 223.402C212.869 223.402 213.56 223.537 214.195 223.808C214.839 224.069 215.399 224.443 215.875 224.928C216.36 225.404 216.738 225.969 217.009 226.622C217.289 227.275 217.429 227.994 217.429 228.778C217.429 229.553 217.289 230.271 217.009 230.934C216.738 231.587 216.36 232.157 215.875 232.642C215.399 233.127 214.839 233.505 214.195 233.776C213.56 234.037 212.869 234.168 212.123 234.168ZM212.123 232.894C212.701 232.894 213.229 232.791 213.705 232.586C214.181 232.371 214.591 232.077 214.937 231.704C215.291 231.321 215.562 230.883 215.749 230.388C215.945 229.884 216.043 229.347 216.043 228.778C216.043 228.209 215.945 227.677 215.749 227.182C215.562 226.687 215.291 226.253 214.937 225.88C214.591 225.497 214.181 225.203 213.705 224.998C213.229 224.783 212.701 224.676 212.123 224.676C211.553 224.676 211.031 224.783 210.555 224.998C210.079 225.203 209.663 225.497 209.309 225.88C208.963 226.253 208.693 226.687 208.497 227.182C208.301 227.677 208.203 228.209 208.203 228.778C208.203 229.347 208.301 229.884 208.497 230.388C208.693 230.883 208.963 231.321 209.309 231.704C209.663 232.077 210.079 232.371 210.555 232.586C211.031 232.791 211.553 232.894 212.123 232.894ZM219.43 234V223.57H220.578L226.57 231.998L226.052 232.054V223.57H227.438V234H226.29L220.326 225.516L220.802 225.46V234H219.43Z" fill="#48AF6A"/>
<path d="M128.166 234V226.454H129.468V234H128.166ZM128.166 225.25V223.57H129.468V225.25H128.166ZM131.488 234V226.454H132.762V227.924L132.552 227.798C132.739 227.322 133.038 226.953 133.448 226.692C133.868 226.421 134.358 226.286 134.918 226.286C135.46 226.286 135.94 226.407 136.36 226.65C136.79 226.893 137.126 227.229 137.368 227.658C137.62 228.087 137.746 228.573 137.746 229.114V234H136.43V229.534C136.43 229.114 136.356 228.759 136.206 228.47C136.057 228.181 135.842 227.957 135.562 227.798C135.292 227.63 134.979 227.546 134.624 227.546C134.27 227.546 133.952 227.63 133.672 227.798C133.402 227.957 133.187 228.185 133.028 228.484C132.87 228.773 132.79 229.123 132.79 229.534V234H131.488ZM143.04 234.168C142.33 234.168 141.691 233.995 141.122 233.65C140.562 233.305 140.118 232.833 139.792 232.236C139.465 231.639 139.302 230.971 139.302 230.234C139.302 229.478 139.465 228.806 139.792 228.218C140.118 227.621 140.562 227.149 141.122 226.804C141.691 226.459 142.33 226.286 143.04 226.286C143.665 226.286 144.22 226.421 144.706 226.692C145.191 226.953 145.574 227.308 145.854 227.756L145.644 228.078V223.402H146.96V234H145.686V232.39L145.854 232.614C145.592 233.109 145.21 233.491 144.706 233.762C144.211 234.033 143.656 234.168 143.04 234.168ZM143.152 232.908C143.628 232.908 144.052 232.791 144.426 232.558C144.799 232.325 145.093 232.007 145.308 231.606C145.532 231.195 145.644 230.738 145.644 230.234C145.644 229.721 145.532 229.263 145.308 228.862C145.093 228.451 144.799 228.129 144.426 227.896C144.052 227.663 143.628 227.546 143.152 227.546C142.685 227.546 142.26 227.667 141.878 227.91C141.504 228.143 141.21 228.461 140.996 228.862C140.781 229.254 140.674 229.711 140.674 230.234C140.674 230.738 140.781 231.195 140.996 231.606C141.21 232.007 141.504 232.325 141.878 232.558C142.251 232.791 142.676 232.908 143.152 232.908ZM152.447 234.168C151.719 234.168 151.07 233.995 150.501 233.65C149.931 233.305 149.483 232.833 149.157 232.236C148.83 231.629 148.667 230.953 148.667 230.206C148.667 229.45 148.825 228.778 149.143 228.19C149.469 227.602 149.908 227.14 150.459 226.804C151.019 226.459 151.644 226.286 152.335 226.286C152.895 226.286 153.389 226.389 153.819 226.594C154.257 226.79 154.626 227.061 154.925 227.406C155.233 227.742 155.466 228.129 155.625 228.568C155.793 228.997 155.877 229.445 155.877 229.912C155.877 230.015 155.867 230.131 155.849 230.262C155.839 230.383 155.825 230.5 155.807 230.612H149.619V229.492H155.051L154.435 229.996C154.519 229.511 154.472 229.077 154.295 228.694C154.117 228.311 153.856 228.008 153.511 227.784C153.165 227.56 152.773 227.448 152.335 227.448C151.896 227.448 151.495 227.56 151.131 227.784C150.767 228.008 150.482 228.33 150.277 228.75C150.081 229.161 150.001 229.651 150.039 230.22C150.001 230.771 150.085 231.256 150.291 231.676C150.505 232.087 150.804 232.409 151.187 232.642C151.579 232.866 152.003 232.978 152.461 232.978C152.965 232.978 153.389 232.861 153.735 232.628C154.08 232.395 154.36 232.096 154.575 231.732L155.667 232.292C155.517 232.637 155.284 232.955 154.967 233.244C154.659 233.524 154.29 233.748 153.861 233.916C153.441 234.084 152.969 234.168 152.447 234.168ZM156.584 234L159.23 230.22L156.598 226.454H158.166L160.42 229.73H159.622L161.848 226.454H163.43L160.798 230.22L163.416 234H161.848L159.622 230.724H160.406L158.18 234H156.584ZM167.008 234V226.454H168.282V227.924L168.072 227.798C168.259 227.322 168.557 226.953 168.968 226.692C169.388 226.421 169.878 226.286 170.438 226.286C170.979 226.286 171.46 226.407 171.88 226.65C172.309 226.893 172.645 227.229 172.888 227.658C173.14 228.087 173.266 228.573 173.266 229.114V234H171.95V229.534C171.95 229.114 171.875 228.759 171.726 228.47C171.577 228.181 171.362 227.957 171.082 227.798C170.811 227.63 170.499 227.546 170.144 227.546C169.789 227.546 169.472 227.63 169.192 227.798C168.921 227.957 168.707 228.185 168.548 228.484C168.389 228.773 168.31 229.123 168.31 229.534V234H167.008ZM177.341 234.168C176.846 234.168 176.408 234.079 176.025 233.902C175.652 233.715 175.358 233.463 175.143 233.146C174.928 232.819 174.821 232.446 174.821 232.026C174.821 231.625 174.905 231.265 175.073 230.948C175.25 230.621 175.521 230.346 175.885 230.122C176.258 229.898 176.725 229.739 177.285 229.646L180.085 229.184V230.276L177.579 230.696C177.094 230.78 176.739 230.934 176.515 231.158C176.3 231.382 176.193 231.657 176.193 231.984C176.193 232.292 176.314 232.549 176.557 232.754C176.809 232.959 177.122 233.062 177.495 233.062C177.971 233.062 178.382 232.964 178.727 232.768C179.082 232.563 179.357 232.287 179.553 231.942C179.758 231.597 179.861 231.214 179.861 230.794V228.876C179.861 228.465 179.707 228.134 179.399 227.882C179.1 227.621 178.704 227.49 178.209 227.49C177.78 227.49 177.397 227.602 177.061 227.826C176.734 228.041 176.492 228.33 176.333 228.694L175.199 228.106C175.339 227.761 175.563 227.453 175.871 227.182C176.179 226.902 176.538 226.683 176.949 226.524C177.36 226.365 177.789 226.286 178.237 226.286C178.816 226.286 179.324 226.398 179.763 226.622C180.202 226.837 180.542 227.14 180.785 227.532C181.037 227.915 181.163 228.363 181.163 228.876V234H179.889V232.572L180.127 232.656C179.968 232.955 179.754 233.216 179.483 233.44C179.212 233.664 178.895 233.841 178.531 233.972C178.167 234.103 177.77 234.168 177.341 234.168ZM183.182 234V226.454H184.456V227.994L184.274 227.756C184.46 227.28 184.759 226.916 185.17 226.664C185.58 226.412 186.042 226.286 186.556 226.286C187.144 226.286 187.671 226.449 188.138 226.776C188.614 227.103 188.94 227.532 189.118 228.064L188.754 228.078C188.95 227.49 189.281 227.047 189.748 226.748C190.214 226.44 190.732 226.286 191.302 226.286C191.824 226.286 192.296 226.407 192.716 226.65C193.145 226.893 193.486 227.229 193.738 227.658C193.99 228.087 194.116 228.573 194.116 229.114V234H192.8V229.534C192.8 229.114 192.725 228.759 192.576 228.47C192.426 228.181 192.221 227.957 191.96 227.798C191.708 227.63 191.409 227.546 191.064 227.546C190.728 227.546 190.424 227.63 190.154 227.798C189.892 227.957 189.682 228.185 189.524 228.484C189.374 228.773 189.3 229.123 189.3 229.534V234H187.984V229.534C187.984 229.114 187.909 228.759 187.76 228.47C187.61 228.181 187.405 227.957 187.144 227.798C186.892 227.63 186.593 227.546 186.248 227.546C185.912 227.546 185.608 227.63 185.338 227.798C185.076 227.957 184.866 228.185 184.708 228.484C184.558 228.773 184.484 229.123 184.484 229.534V234H183.182ZM199.437 234.168C198.709 234.168 198.06 233.995 197.491 233.65C196.922 233.305 196.474 232.833 196.147 232.236C195.82 231.629 195.657 230.953 195.657 230.206C195.657 229.45 195.816 228.778 196.133 228.19C196.46 227.602 196.898 227.14 197.449 226.804C198.009 226.459 198.634 226.286 199.325 226.286C199.885 226.286 200.38 226.389 200.809 226.594C201.248 226.79 201.616 227.061 201.915 227.406C202.223 227.742 202.456 228.129 202.615 228.568C202.783 228.997 202.867 229.445 202.867 229.912C202.867 230.015 202.858 230.131 202.839 230.262C202.83 230.383 202.816 230.5 202.797 230.612H196.609V229.492H202.041L201.425 229.996C201.509 229.511 201.462 229.077 201.285 228.694C201.108 228.311 200.846 228.008 200.501 227.784C200.156 227.56 199.764 227.448 199.325 227.448C198.886 227.448 198.485 227.56 198.121 227.784C197.757 228.008 197.472 228.33 197.267 228.75C197.071 229.161 196.992 229.651 197.029 230.22C196.992 230.771 197.076 231.256 197.281 231.676C197.496 232.087 197.794 232.409 198.177 232.642C198.569 232.866 198.994 232.978 199.451 232.978C199.955 232.978 200.38 232.861 200.725 232.628C201.07 232.395 201.35 232.096 201.565 231.732L202.657 232.292C202.508 232.637 202.274 232.955 201.957 233.244C201.649 233.524 201.28 233.748 200.851 233.916C200.431 234.084 199.96 234.168 199.437 234.168ZM235.097 234.084C234.36 234.084 233.791 233.874 233.389 233.454C232.997 233.034 232.801 232.441 232.801 231.676V227.7H231.429V226.454H231.709C232.045 226.454 232.311 226.351 232.507 226.146C232.703 225.941 232.801 225.67 232.801 225.334V224.718H234.103V226.454H235.797V227.7H234.103V231.634C234.103 231.886 234.141 232.105 234.215 232.292C234.299 232.479 234.435 232.628 234.621 232.74C234.808 232.843 235.055 232.894 235.363 232.894C235.429 232.894 235.508 232.889 235.601 232.88C235.704 232.871 235.797 232.861 235.881 232.852V234C235.76 234.028 235.625 234.047 235.475 234.056C235.326 234.075 235.2 234.084 235.097 234.084ZM239.699 234.168C239.204 234.168 238.765 234.079 238.383 233.902C238.009 233.715 237.715 233.463 237.501 233.146C237.286 232.819 237.179 232.446 237.179 232.026C237.179 231.625 237.263 231.265 237.431 230.948C237.608 230.621 237.879 230.346 238.243 230.122C238.616 229.898 239.083 229.739 239.643 229.646L242.443 229.184V230.276L239.937 230.696C239.451 230.78 239.097 230.934 238.873 231.158C238.658 231.382 238.551 231.657 238.551 231.984C238.551 232.292 238.672 232.549 238.915 232.754C239.167 232.959 239.479 233.062 239.853 233.062C240.329 233.062 240.739 232.964 241.085 232.768C241.439 232.563 241.715 232.287 241.911 231.942C242.116 231.597 242.219 231.214 242.219 230.794V228.876C242.219 228.465 242.065 228.134 241.757 227.882C241.458 227.621 241.061 227.49 240.567 227.49C240.137 227.49 239.755 227.602 239.419 227.826C239.092 228.041 238.849 228.33 238.691 228.694L237.557 228.106C237.697 227.761 237.921 227.453 238.229 227.182C238.537 226.902 238.896 226.683 239.307 226.524C239.717 226.365 240.147 226.286 240.595 226.286C241.173 226.286 241.682 226.398 242.121 226.622C242.559 226.837 242.9 227.14 243.143 227.532C243.395 227.915 243.521 228.363 243.521 228.876V234H242.247V232.572L242.485 232.656C242.326 232.955 242.111 233.216 241.841 233.44C241.57 233.664 241.253 233.841 240.889 233.972C240.525 234.103 240.128 234.168 239.699 234.168ZM249.445 234.168C248.839 234.168 248.283 234.033 247.779 233.762C247.285 233.491 246.902 233.109 246.631 232.614L246.813 232.39V234H245.539V223.402H246.841V228.078L246.645 227.756C246.925 227.308 247.308 226.953 247.793 226.692C248.279 226.421 248.834 226.286 249.459 226.286C250.169 226.286 250.803 226.459 251.363 226.804C251.933 227.149 252.381 227.621 252.707 228.218C253.034 228.806 253.197 229.478 253.197 230.234C253.197 230.971 253.034 231.639 252.707 232.236C252.381 232.833 251.933 233.305 251.363 233.65C250.803 233.995 250.164 234.168 249.445 234.168ZM249.347 232.908C249.823 232.908 250.248 232.791 250.621 232.558C250.995 232.325 251.284 232.007 251.489 231.606C251.704 231.195 251.811 230.738 251.811 230.234C251.811 229.711 251.704 229.254 251.489 228.862C251.284 228.461 250.995 228.143 250.621 227.91C250.248 227.667 249.823 227.546 249.347 227.546C248.871 227.546 248.442 227.663 248.059 227.896C247.686 228.129 247.387 228.451 247.163 228.862C246.949 229.263 246.841 229.721 246.841 230.234C246.841 230.738 246.949 231.195 247.163 231.606C247.387 232.007 247.686 232.325 248.059 232.558C248.442 232.791 248.871 232.908 249.347 232.908ZM254.904 234V223.402H256.206V234H254.904ZM261.699 234.168C260.971 234.168 260.322 233.995 259.753 233.65C259.183 233.305 258.735 232.833 258.409 232.236C258.082 231.629 257.919 230.953 257.919 230.206C257.919 229.45 258.077 228.778 258.395 228.19C258.721 227.602 259.16 227.14 259.711 226.804C260.271 226.459 260.896 226.286 261.587 226.286C262.147 226.286 262.641 226.389 263.071 226.594C263.509 226.79 263.878 227.061 264.177 227.406C264.485 227.742 264.718 228.129 264.877 228.568C265.045 228.997 265.129 229.445 265.129 229.912C265.129 230.015 265.119 230.131 265.101 230.262C265.091 230.383 265.077 230.5 265.059 230.612H258.871V229.492H264.303L263.687 229.996C263.771 229.511 263.724 229.077 263.547 228.694C263.369 228.311 263.108 228.008 262.763 227.784C262.417 227.56 262.025 227.448 261.587 227.448C261.148 227.448 260.747 227.56 260.383 227.784C260.019 228.008 259.734 228.33 259.529 228.75C259.333 229.161 259.253 229.651 259.291 230.22C259.253 230.771 259.337 231.256 259.543 231.676C259.757 232.087 260.056 232.409 260.439 232.642C260.831 232.866 261.255 232.978 261.713 232.978C262.217 232.978 262.641 232.861 262.987 232.628C263.332 232.395 263.612 232.096 263.827 231.732L264.919 232.292C264.769 232.637 264.536 232.955 264.219 233.244C263.911 233.524 263.542 233.748 263.113 233.916C262.693 234.084 262.221 234.168 261.699 234.168ZM269.246 234V226.454H270.52V227.924L270.31 227.798C270.497 227.322 270.796 226.953 271.206 226.692C271.626 226.421 272.116 226.286 272.676 226.286C273.218 226.286 273.698 226.407 274.118 226.65C274.548 226.893 274.884 227.229 275.126 227.658C275.378 228.087 275.504 228.573 275.504 229.114V234H274.188V229.534C274.188 229.114 274.114 228.759 273.964 228.47C273.815 228.181 273.6 227.957 273.32 227.798C273.05 227.63 272.737 227.546 272.382 227.546C272.028 227.546 271.71 227.63 271.43 227.798C271.16 227.957 270.945 228.185 270.786 228.484C270.628 228.773 270.548 229.123 270.548 229.534V234H269.246ZM279.579 234.168C279.085 234.168 278.646 234.079 278.263 233.902C277.89 233.715 277.596 233.463 277.381 233.146C277.167 232.819 277.059 232.446 277.059 232.026C277.059 231.625 277.143 231.265 277.311 230.948C277.489 230.621 277.759 230.346 278.123 230.122C278.497 229.898 278.963 229.739 279.523 229.646L282.323 229.184V230.276L279.817 230.696C279.332 230.78 278.977 230.934 278.753 231.158C278.539 231.382 278.431 231.657 278.431 231.984C278.431 232.292 278.553 232.549 278.795 232.754C279.047 232.959 279.36 233.062 279.733 233.062C280.209 233.062 280.62 232.964 280.965 232.768C281.32 232.563 281.595 232.287 281.791 231.942C281.997 231.597 282.099 231.214 282.099 230.794V228.876C282.099 228.465 281.945 228.134 281.637 227.882C281.339 227.621 280.942 227.49 280.447 227.49C280.018 227.49 279.635 227.602 279.299 227.826C278.973 228.041 278.73 228.33 278.571 228.694L277.437 228.106C277.577 227.761 277.801 227.453 278.109 227.182C278.417 226.902 278.777 226.683 279.187 226.524C279.598 226.365 280.027 226.286 280.475 226.286C281.054 226.286 281.563 226.398 282.001 226.622C282.44 226.837 282.781 227.14 283.023 227.532C283.275 227.915 283.401 228.363 283.401 228.876V234H282.127V232.572L282.365 232.656C282.207 232.955 281.992 233.216 281.721 233.44C281.451 233.664 281.133 233.841 280.769 233.972C280.405 234.103 280.009 234.168 279.579 234.168ZM285.42 234V226.454H286.694V227.994L286.512 227.756C286.699 227.28 286.997 226.916 287.408 226.664C287.819 226.412 288.281 226.286 288.794 226.286C289.382 226.286 289.909 226.449 290.376 226.776C290.852 227.103 291.179 227.532 291.356 228.064L290.992 228.078C291.188 227.49 291.519 227.047 291.986 226.748C292.453 226.44 292.971 226.286 293.54 226.286C294.063 226.286 294.534 226.407 294.954 226.65C295.383 226.893 295.724 227.229 295.976 227.658C296.228 228.087 296.354 228.573 296.354 229.114V234H295.038V229.534C295.038 229.114 294.963 228.759 294.814 228.47C294.665 228.181 294.459 227.957 294.198 227.798C293.946 227.63 293.647 227.546 293.302 227.546C292.966 227.546 292.663 227.63 292.392 227.798C292.131 227.957 291.921 228.185 291.762 228.484C291.613 228.773 291.538 229.123 291.538 229.534V234H290.222V229.534C290.222 229.114 290.147 228.759 289.998 228.47C289.849 228.181 289.643 227.957 289.382 227.798C289.13 227.63 288.831 227.546 288.486 227.546C288.15 227.546 287.847 227.63 287.576 227.798C287.315 227.957 287.105 228.185 286.946 228.484C286.797 228.773 286.722 229.123 286.722 229.534V234H285.42ZM301.675 234.168C300.947 234.168 300.299 233.995 299.729 233.65C299.16 233.305 298.712 232.833 298.385 232.236C298.059 231.629 297.895 230.953 297.895 230.206C297.895 229.45 298.054 228.778 298.371 228.19C298.698 227.602 299.137 227.14 299.687 226.804C300.247 226.459 300.873 226.286 301.563 226.286C302.123 226.286 302.618 226.389 303.047 226.594C303.486 226.79 303.855 227.061 304.153 227.406C304.461 227.742 304.695 228.129 304.853 228.568C305.021 228.997 305.105 229.445 305.105 229.912C305.105 230.015 305.096 230.131 305.077 230.262C305.068 230.383 305.054 230.5 305.035 230.612H298.847V229.492H304.279L303.663 229.996C303.747 229.511 303.701 229.077 303.523 228.694C303.346 228.311 303.085 228.008 302.739 227.784C302.394 227.56 302.002 227.448 301.563 227.448C301.125 227.448 300.723 227.56 300.359 227.784C299.995 228.008 299.711 228.33 299.505 228.75C299.309 229.161 299.23 229.651 299.267 230.22C299.23 230.771 299.314 231.256 299.519 231.676C299.734 232.087 300.033 232.409 300.415 232.642C300.807 232.866 301.232 232.978 301.689 232.978C302.193 232.978 302.618 232.861 302.963 232.628C303.309 232.395 303.589 232.096 303.803 231.732L304.895 232.292C304.746 232.637 304.513 232.955 304.195 233.244C303.887 233.524 303.519 233.748 303.089 233.916C302.669 234.084 302.198 234.168 301.675 234.168ZM307.335 235.946V235.358C307.624 235.283 307.848 235.129 308.007 234.896C308.175 234.672 308.273 234.373 308.301 234H307.615V232.32H308.973V233.51C308.973 234.182 308.833 234.723 308.553 235.134C308.282 235.545 307.876 235.815 307.335 235.946ZM307.615 228.134V226.454H308.973V228.134H307.615Z" fill="black"/>
<path d="M318 228C318 222.477 322.477 218 328 218C333.523 218 338 222.477 338 228C338 233.523 333.523 238 328 238C322.477 238 318 233.523 318 228Z" fill="#4BCD6B"/>
<path d="M331.043 224.793C331.433 224.402 332.066 224.402 332.457 224.793C332.847 225.183 332.847 225.816 332.457 226.207L327.457 231.207C327.066 231.597 326.433 231.597 326.043 231.207L323.543 228.707C323.152 228.316 323.152 227.683 323.543 227.293C323.909 226.927 324.488 226.904 324.881 227.225L324.957 227.293L326.75 229.086L331.043 224.793Z" fill="white"/>
<path d="M44.746 266.168C44.0833 266.168 43.4767 266.047 42.926 265.804C42.3753 265.552 41.9087 265.211 41.526 264.782C41.1433 264.353 40.868 263.872 40.7 263.34L41.89 262.85C42.142 263.522 42.5153 264.04 43.01 264.404C43.514 264.759 44.102 264.936 44.774 264.936C45.1847 264.936 45.544 264.871 45.852 264.74C46.16 264.609 46.398 264.427 46.566 264.194C46.7433 263.951 46.832 263.671 46.832 263.354C46.832 262.915 46.706 262.57 46.454 262.318C46.2113 262.057 45.852 261.861 45.376 261.73L43.458 261.142C42.702 260.909 42.1233 260.54 41.722 260.036C41.3207 259.532 41.12 258.953 41.12 258.3C41.12 257.731 41.2553 257.231 41.526 256.802C41.806 256.363 42.1887 256.023 42.674 255.78C43.1687 255.528 43.7287 255.402 44.354 255.402C44.9793 255.402 45.544 255.514 46.048 255.738C46.5613 255.962 46.9953 256.265 47.35 256.648C47.7047 257.021 47.966 257.451 48.134 257.936L46.958 258.426C46.734 257.838 46.398 257.395 45.95 257.096C45.502 256.788 44.9747 256.634 44.368 256.634C43.9947 256.634 43.6633 256.699 43.374 256.83C43.094 256.951 42.8747 257.133 42.716 257.376C42.5667 257.609 42.492 257.889 42.492 258.216C42.492 258.599 42.6133 258.939 42.856 259.238C43.0987 259.537 43.4673 259.765 43.962 259.924L45.712 260.442C46.5333 260.694 47.154 261.053 47.574 261.52C47.994 261.987 48.204 262.565 48.204 263.256C48.204 263.825 48.0547 264.329 47.756 264.768C47.4667 265.207 47.0607 265.552 46.538 265.804C46.0247 266.047 45.4273 266.168 44.746 266.168ZM50.2128 266V255.57H57.0028V256.83H51.5848V260.134H56.7228V261.394H51.5848V264.74H57.0028V266H50.2128ZM58.703 266V255.57H60.075V264.74H64.653V266H58.703ZM66.1952 266V255.57H72.9852V256.83H67.5672V260.134H72.7052V261.394H67.5672V264.74H72.9852V266H66.1952ZM79.4874 266.168C78.7501 266.168 78.0688 266.037 77.4434 265.776C76.8274 265.505 76.2861 265.127 75.8194 264.642C75.3621 264.157 75.0074 263.587 74.7554 262.934C74.5034 262.281 74.3774 261.567 74.3774 260.792C74.3774 260.008 74.5034 259.289 74.7554 258.636C75.0074 257.983 75.3621 257.413 75.8194 256.928C76.2768 256.443 76.8181 256.069 77.4434 255.808C78.0688 255.537 78.7501 255.402 79.4874 255.402C80.2061 255.402 80.8501 255.528 81.4194 255.78C81.9981 256.032 82.4834 256.359 82.8754 256.76C83.2768 257.161 83.5614 257.591 83.7294 258.048L82.4694 258.622C82.2268 258.043 81.8488 257.577 81.3354 257.222C80.8221 256.858 80.2061 256.676 79.4874 256.676C78.7594 256.676 78.1108 256.849 77.5414 257.194C76.9814 257.539 76.5428 258.02 76.2254 258.636C75.9081 259.252 75.7494 259.971 75.7494 260.792C75.7494 261.604 75.9081 262.318 76.2254 262.934C76.5428 263.55 76.9814 264.031 77.5414 264.376C78.1108 264.721 78.7594 264.894 79.4874 264.894C80.2061 264.894 80.8221 264.717 81.3354 264.362C81.8488 263.998 82.2268 263.527 82.4694 262.948L83.7294 263.522C83.5614 263.979 83.2768 264.409 82.8754 264.81C82.4834 265.211 81.9981 265.538 81.4194 265.79C80.8501 266.042 80.2061 266.168 79.4874 266.168ZM87.4156 266V256.83H84.5876V255.57H91.5876V256.83H88.8016V266H87.4156ZM104.736 266V255.57H111.344V256.83H106.108V260.204H110.854V261.464H106.108V266H104.736ZM112.898 266V255.57H116.58C117.271 255.57 117.878 255.701 118.4 255.962C118.923 256.223 119.329 256.597 119.618 257.082C119.917 257.567 120.066 258.137 120.066 258.79C120.066 259.527 119.88 260.153 119.506 260.666C119.133 261.179 118.629 261.548 117.994 261.772L120.416 266H118.82L116.272 261.478L117.182 262.01H114.27V266H112.898ZM114.27 260.75H116.622C117.033 260.75 117.392 260.671 117.7 260.512C118.008 260.353 118.246 260.125 118.414 259.826C118.592 259.527 118.68 259.182 118.68 258.79C118.68 258.389 118.592 258.043 118.414 257.754C118.246 257.455 118.008 257.227 117.7 257.068C117.392 256.909 117.033 256.83 116.622 256.83H114.27V260.75ZM126.96 266.168C126.223 266.168 125.532 266.037 124.888 265.776C124.244 265.505 123.68 265.127 123.194 264.642C122.718 264.157 122.345 263.587 122.074 262.934C121.804 262.271 121.668 261.553 121.668 260.778C121.668 259.994 121.804 259.275 122.074 258.622C122.345 257.969 122.718 257.399 123.194 256.914C123.68 256.429 124.24 256.055 124.874 255.794C125.518 255.533 126.214 255.402 126.96 255.402C127.707 255.402 128.398 255.537 129.032 255.808C129.676 256.069 130.236 256.443 130.712 256.928C131.198 257.404 131.576 257.969 131.846 258.622C132.126 259.275 132.266 259.994 132.266 260.778C132.266 261.553 132.126 262.271 131.846 262.934C131.576 263.587 131.198 264.157 130.712 264.642C130.236 265.127 129.676 265.505 129.032 265.776C128.398 266.037 127.707 266.168 126.96 266.168ZM126.96 264.894C127.539 264.894 128.066 264.791 128.542 264.586C129.018 264.371 129.429 264.077 129.774 263.704C130.129 263.321 130.4 262.883 130.586 262.388C130.782 261.884 130.88 261.347 130.88 260.778C130.88 260.209 130.782 259.677 130.586 259.182C130.4 258.687 130.129 258.253 129.774 257.88C129.429 257.497 129.018 257.203 128.542 256.998C128.066 256.783 127.539 256.676 126.96 256.676C126.391 256.676 125.868 256.783 125.392 256.998C124.916 257.203 124.501 257.497 124.146 257.88C123.801 258.253 123.53 258.687 123.334 259.182C123.138 259.677 123.04 260.209 123.04 260.778C123.04 261.347 123.138 261.884 123.334 262.388C123.53 262.883 123.801 263.321 124.146 263.704C124.501 264.077 124.916 264.371 125.392 264.586C125.868 264.791 126.391 264.894 126.96 264.894ZM134.267 266V255.57H135.527L139.433 261.128H138.789L142.667 255.57H143.927V266H142.541V257.306L143.031 257.46L139.153 262.92H139.041L135.205 257.46L135.639 257.306V266H134.267Z" fill="#48AF6A"/>
<path d="M96.506 260.722L95.582 260.064L96.73 258.538L95.008 257.95L95.358 256.872L97.094 257.446V255.57H98.228V257.446L99.964 256.872L100.314 257.95L98.592 258.538L99.726 260.064L98.816 260.722L97.654 259.196L96.506 260.722ZM151.576 266.084C150.839 266.084 150.269 265.874 149.868 265.454C149.476 265.034 149.28 264.441 149.28 263.676V259.7H147.908V258.454H148.188C148.524 258.454 148.79 258.351 148.986 258.146C149.182 257.941 149.28 257.67 149.28 257.334V256.718H150.582V258.454H152.276V259.7H150.582V263.634C150.582 263.886 150.619 264.105 150.694 264.292C150.778 264.479 150.913 264.628 151.1 264.74C151.287 264.843 151.534 264.894 151.842 264.894C151.907 264.894 151.987 264.889 152.08 264.88C152.183 264.871 152.276 264.861 152.36 264.852V266C152.239 266.028 152.103 266.047 151.954 266.056C151.805 266.075 151.679 266.084 151.576 266.084ZM156.177 266.168C155.682 266.168 155.244 266.079 154.861 265.902C154.488 265.715 154.194 265.463 153.979 265.146C153.764 264.819 153.657 264.446 153.657 264.026C153.657 263.625 153.741 263.265 153.909 262.948C154.086 262.621 154.357 262.346 154.721 262.122C155.094 261.898 155.561 261.739 156.121 261.646L158.921 261.184V262.276L156.415 262.696C155.93 262.78 155.575 262.934 155.351 263.158C155.136 263.382 155.029 263.657 155.029 263.984C155.029 264.292 155.15 264.549 155.393 264.754C155.645 264.959 155.958 265.062 156.331 265.062C156.807 265.062 157.218 264.964 157.563 264.768C157.918 264.563 158.193 264.287 158.389 263.942C158.594 263.597 158.697 263.214 158.697 262.794V260.876C158.697 260.465 158.543 260.134 158.235 259.882C157.936 259.621 157.54 259.49 157.045 259.49C156.616 259.49 156.233 259.602 155.897 259.826C155.57 260.041 155.328 260.33 155.169 260.694L154.035 260.106C154.175 259.761 154.399 259.453 154.707 259.182C155.015 258.902 155.374 258.683 155.785 258.524C156.196 258.365 156.625 258.286 157.073 258.286C157.652 258.286 158.16 258.398 158.599 258.622C159.038 258.837 159.378 259.14 159.621 259.532C159.873 259.915 159.999 260.363 159.999 260.876V266H158.725V264.572L158.963 264.656C158.804 264.955 158.59 265.216 158.319 265.44C158.048 265.664 157.731 265.841 157.367 265.972C157.003 266.103 156.606 266.168 156.177 266.168ZM165.924 266.168C165.317 266.168 164.762 266.033 164.258 265.762C163.763 265.491 163.38 265.109 163.11 264.614L163.292 264.39V266H162.018V255.402H163.32V260.078L163.124 259.756C163.404 259.308 163.786 258.953 164.272 258.692C164.757 258.421 165.312 258.286 165.938 258.286C166.647 258.286 167.282 258.459 167.842 258.804C168.411 259.149 168.859 259.621 169.186 260.218C169.512 260.806 169.676 261.478 169.676 262.234C169.676 262.971 169.512 263.639 169.186 264.236C168.859 264.833 168.411 265.305 167.842 265.65C167.282 265.995 166.642 266.168 165.924 266.168ZM165.826 264.908C166.302 264.908 166.726 264.791 167.1 264.558C167.473 264.325 167.762 264.007 167.968 263.606C168.182 263.195 168.29 262.738 168.29 262.234C168.29 261.711 168.182 261.254 167.968 260.862C167.762 260.461 167.473 260.143 167.1 259.91C166.726 259.667 166.302 259.546 165.826 259.546C165.35 259.546 164.92 259.663 164.538 259.896C164.164 260.129 163.866 260.451 163.642 260.862C163.427 261.263 163.32 261.721 163.32 262.234C163.32 262.738 163.427 263.195 163.642 263.606C163.866 264.007 164.164 264.325 164.538 264.558C164.92 264.791 165.35 264.908 165.826 264.908ZM171.383 266V255.402H172.685V266H171.383ZM178.177 266.168C177.449 266.168 176.801 265.995 176.231 265.65C175.662 265.305 175.214 264.833 174.887 264.236C174.561 263.629 174.397 262.953 174.397 262.206C174.397 261.45 174.556 260.778 174.873 260.19C175.2 259.602 175.639 259.14 176.189 258.804C176.749 258.459 177.375 258.286 178.065 258.286C178.625 258.286 179.12 258.389 179.549 258.594C179.988 258.79 180.357 259.061 180.655 259.406C180.963 259.742 181.197 260.129 181.355 260.568C181.523 260.997 181.607 261.445 181.607 261.912C181.607 262.015 181.598 262.131 181.579 262.262C181.57 262.383 181.556 262.5 181.537 262.612H175.349V261.492H180.781L180.165 261.996C180.249 261.511 180.203 261.077 180.025 260.694C179.848 260.311 179.587 260.008 179.241 259.784C178.896 259.56 178.504 259.448 178.065 259.448C177.627 259.448 177.225 259.56 176.861 259.784C176.497 260.008 176.213 260.33 176.007 260.75C175.811 261.161 175.732 261.651 175.769 262.22C175.732 262.771 175.816 263.256 176.021 263.676C176.236 264.087 176.535 264.409 176.917 264.642C177.309 264.866 177.734 264.978 178.191 264.978C178.695 264.978 179.12 264.861 179.465 264.628C179.811 264.395 180.091 264.096 180.305 263.732L181.397 264.292C181.248 264.637 181.015 264.955 180.697 265.244C180.389 265.524 180.021 265.748 179.591 265.916C179.171 266.084 178.7 266.168 178.177 266.168ZM187.461 266L184.871 258.454H186.313L188.371 264.768L187.867 264.754L189.883 258.454H191.115L193.131 264.754L192.627 264.768L194.699 258.454H196.127L193.537 266H192.291L190.303 259.7H190.695L188.707 266H187.461ZM197.291 266V255.402H198.593V259.924L198.355 259.798C198.542 259.322 198.841 258.953 199.251 258.692C199.671 258.421 200.161 258.286 200.721 258.286C201.263 258.286 201.743 258.407 202.163 258.65C202.593 258.893 202.929 259.229 203.171 259.658C203.423 260.087 203.549 260.573 203.549 261.114V266H202.233V261.534C202.233 261.114 202.154 260.759 201.995 260.47C201.846 260.181 201.636 259.957 201.365 259.798C201.095 259.63 200.782 259.546 200.427 259.546C200.082 259.546 199.769 259.63 199.489 259.798C199.209 259.957 198.99 260.185 198.831 260.484C198.673 260.773 198.593 261.123 198.593 261.534V266H197.291ZM208.884 266.168C208.156 266.168 207.508 265.995 206.938 265.65C206.369 265.305 205.921 264.833 205.594 264.236C205.268 263.629 205.104 262.953 205.104 262.206C205.104 261.45 205.263 260.778 205.58 260.19C205.907 259.602 206.346 259.14 206.896 258.804C207.456 258.459 208.082 258.286 208.772 258.286C209.332 258.286 209.827 258.389 210.256 258.594C210.695 258.79 211.064 259.061 211.362 259.406C211.67 259.742 211.904 260.129 212.062 260.568C212.23 260.997 212.314 261.445 212.314 261.912C212.314 262.015 212.305 262.131 212.286 262.262C212.277 262.383 212.263 262.5 212.244 262.612H206.056V261.492H211.488L210.872 261.996C210.956 261.511 210.91 261.077 210.732 260.694C210.555 260.311 210.294 260.008 209.948 259.784C209.603 259.56 209.211 259.448 208.772 259.448C208.334 259.448 207.932 259.56 207.568 259.784C207.204 260.008 206.92 260.33 206.714 260.75C206.518 261.161 206.439 261.651 206.476 262.22C206.439 262.771 206.523 263.256 206.728 263.676C206.943 264.087 207.242 264.409 207.624 264.642C208.016 264.866 208.441 264.978 208.898 264.978C209.402 264.978 209.827 264.861 210.172 264.628C210.518 264.395 210.798 264.096 211.012 263.732L212.104 264.292C211.955 264.637 211.722 264.955 211.404 265.244C211.096 265.524 210.728 265.748 210.298 265.916C209.878 266.084 209.407 266.168 208.884 266.168ZM214.012 266V258.454H215.286V259.84L215.146 259.644C215.323 259.215 215.594 258.897 215.958 258.692C216.322 258.477 216.765 258.37 217.288 258.37H217.75V259.602H217.092C216.56 259.602 216.131 259.77 215.804 260.106C215.477 260.433 215.314 260.899 215.314 261.506V266H214.012ZM222.378 266.168C221.65 266.168 221.002 265.995 220.432 265.65C219.863 265.305 219.415 264.833 219.088 264.236C218.762 263.629 218.598 262.953 218.598 262.206C218.598 261.45 218.757 260.778 219.074 260.19C219.401 259.602 219.84 259.14 220.39 258.804C220.95 258.459 221.576 258.286 222.266 258.286C222.826 258.286 223.321 258.389 223.75 258.594C224.189 258.79 224.558 259.061 224.856 259.406C225.164 259.742 225.398 260.129 225.556 260.568C225.724 260.997 225.808 261.445 225.808 261.912C225.808 262.015 225.799 262.131 225.78 262.262C225.771 262.383 225.757 262.5 225.738 262.612H219.55V261.492H224.982L224.366 261.996C224.45 261.511 224.404 261.077 224.226 260.694C224.049 260.311 223.788 260.008 223.442 259.784C223.097 259.56 222.705 259.448 222.266 259.448C221.828 259.448 221.426 259.56 221.062 259.784C220.698 260.008 220.414 260.33 220.208 260.75C220.012 261.161 219.933 261.651 219.97 262.22C219.933 262.771 220.017 263.256 220.222 263.676C220.437 264.087 220.736 264.409 221.118 264.642C221.51 264.866 221.935 264.978 222.392 264.978C222.896 264.978 223.321 264.861 223.666 264.628C224.012 264.395 224.292 264.096 224.506 263.732L225.598 264.292C225.449 264.637 225.216 264.955 224.898 265.244C224.59 265.524 224.222 265.748 223.792 265.916C223.372 266.084 222.901 266.168 222.378 266.168ZM231.41 266V256.76H229.436V255.57H232.796V266H231.41ZM235.482 261.506V260.274H241.782V261.506H235.482ZM235.482 264.824V263.606H241.782V264.824H235.482ZM245.492 266V256.76H243.518V255.57H246.878V266H245.492ZM249.886 267.946V267.358C250.175 267.283 250.399 267.129 250.558 266.896C250.726 266.672 250.824 266.373 250.852 266H250.166V264.32H251.524V265.51C251.524 266.182 251.384 266.723 251.104 267.134C250.833 267.545 250.427 267.815 249.886 267.946ZM250.166 260.134V258.454H251.524V260.134H250.166Z" fill="black"/>
<path d="M261 260C261 254.477 265.477 250 271 250C276.523 250 281 254.477 281 260C281 265.523 276.523 270 271 270C265.477 270 261 265.523 261 260Z" fill="#FF9000"/>
<rect x="270" y="254" width="2" height="8" rx="1" fill="white"/>
<rect x="270" y="264" width="2" height="2" rx="1" fill="white"/>
<path d="M41.162 298V287.57H44.578C45.6327 287.57 46.552 287.785 47.336 288.214C48.12 288.643 48.7267 289.25 49.156 290.034C49.5853 290.809 49.8 291.723 49.8 292.778C49.8 293.823 49.5853 294.738 49.156 295.522C48.7267 296.306 48.12 296.917 47.336 297.356C46.552 297.785 45.6327 298 44.578 298H41.162ZM42.534 296.74H44.592C45.3667 296.74 46.034 296.577 46.594 296.25C47.1633 295.923 47.602 295.466 47.91 294.878C48.218 294.281 48.372 293.581 48.372 292.778C48.372 291.966 48.2133 291.266 47.896 290.678C47.588 290.09 47.1493 289.637 46.58 289.32C46.02 288.993 45.3573 288.83 44.592 288.83H42.534V296.74ZM51.539 298V287.57H58.329V288.83H52.911V292.134H58.049V293.394H52.911V296.74H58.329V298H51.539ZM60.0292 298V287.57H61.4012V296.74H65.9792V298H60.0292ZM67.5214 298V287.57H74.3114V288.83H68.8934V292.134H74.0314V293.394H68.8934V296.74H74.3114V298H67.5214ZM77.8316 298V288.83H75.0036V287.57H82.0036V288.83H79.2176V298H77.8316ZM83.3261 298V287.57H90.1161V288.83H84.6981V292.134H89.8361V293.394H84.6981V296.74H90.1161V298H83.3261ZM94.2362 298V287.57H100.844V288.83H95.6082V292.204H100.354V293.464H95.6082V298H94.2362ZM102.398 298V287.57H106.08C106.771 287.57 107.378 287.701 107.9 287.962C108.423 288.223 108.829 288.597 109.118 289.082C109.417 289.567 109.566 290.137 109.566 290.79C109.566 291.527 109.38 292.153 109.006 292.666C108.633 293.179 108.129 293.548 107.494 293.772L109.916 298H108.32L105.772 293.478L106.682 294.01H103.77V298H102.398ZM103.77 292.75H106.122C106.533 292.75 106.892 292.671 107.2 292.512C107.508 292.353 107.746 292.125 107.914 291.826C108.092 291.527 108.18 291.182 108.18 290.79C108.18 290.389 108.092 290.043 107.914 289.754C107.746 289.455 107.508 289.227 107.2 289.068C106.892 288.909 106.533 288.83 106.122 288.83H103.77V292.75ZM116.46 298.168C115.723 298.168 115.032 298.037 114.388 297.776C113.744 297.505 113.18 297.127 112.694 296.642C112.218 296.157 111.845 295.587 111.574 294.934C111.304 294.271 111.168 293.553 111.168 292.778C111.168 291.994 111.304 291.275 111.574 290.622C111.845 289.969 112.218 289.399 112.694 288.914C113.18 288.429 113.74 288.055 114.374 287.794C115.018 287.533 115.714 287.402 116.46 287.402C117.207 287.402 117.898 287.537 118.532 287.808C119.176 288.069 119.736 288.443 120.212 288.928C120.698 289.404 121.076 289.969 121.346 290.622C121.626 291.275 121.766 291.994 121.766 292.778C121.766 293.553 121.626 294.271 121.346 294.934C121.076 295.587 120.698 296.157 120.212 296.642C119.736 297.127 119.176 297.505 118.532 297.776C117.898 298.037 117.207 298.168 116.46 298.168ZM116.46 296.894C117.039 296.894 117.566 296.791 118.042 296.586C118.518 296.371 118.929 296.077 119.274 295.704C119.629 295.321 119.9 294.883 120.086 294.388C120.282 293.884 120.38 293.347 120.38 292.778C120.38 292.209 120.282 291.677 120.086 291.182C119.9 290.687 119.629 290.253 119.274 289.88C118.929 289.497 118.518 289.203 118.042 288.998C117.566 288.783 117.039 288.676 116.46 288.676C115.891 288.676 115.368 288.783 114.892 288.998C114.416 289.203 114.001 289.497 113.646 289.88C113.301 290.253 113.03 290.687 112.834 291.182C112.638 291.677 112.54 292.209 112.54 292.778C112.54 293.347 112.638 293.884 112.834 294.388C113.03 294.883 113.301 295.321 113.646 295.704C114.001 296.077 114.416 296.371 114.892 296.586C115.368 296.791 115.891 296.894 116.46 296.894ZM123.767 298V287.57H125.027L128.933 293.128H128.289L132.167 287.57H133.427V298H132.041V289.306L132.531 289.46L128.653 294.92H128.541L124.705 289.46L125.139 289.306V298H123.767Z" fill="#48AF6A"/>
<path d="M141.076 298.084C140.339 298.084 139.769 297.874 139.368 297.454C138.976 297.034 138.78 296.441 138.78 295.676V291.7H137.408V290.454H137.688C138.024 290.454 138.29 290.351 138.486 290.146C138.682 289.941 138.78 289.67 138.78 289.334V288.718H140.082V290.454H141.776V291.7H140.082V295.634C140.082 295.886 140.119 296.105 140.194 296.292C140.278 296.479 140.413 296.628 140.6 296.74C140.787 296.843 141.034 296.894 141.342 296.894C141.407 296.894 141.487 296.889 141.58 296.88C141.683 296.871 141.776 296.861 141.86 296.852V298C141.739 298.028 141.603 298.047 141.454 298.056C141.305 298.075 141.179 298.084 141.076 298.084ZM145.677 298.168C145.182 298.168 144.744 298.079 144.361 297.902C143.988 297.715 143.694 297.463 143.479 297.146C143.264 296.819 143.157 296.446 143.157 296.026C143.157 295.625 143.241 295.265 143.409 294.948C143.586 294.621 143.857 294.346 144.221 294.122C144.594 293.898 145.061 293.739 145.621 293.646L148.421 293.184V294.276L145.915 294.696C145.43 294.78 145.075 294.934 144.851 295.158C144.636 295.382 144.529 295.657 144.529 295.984C144.529 296.292 144.65 296.549 144.893 296.754C145.145 296.959 145.458 297.062 145.831 297.062C146.307 297.062 146.718 296.964 147.063 296.768C147.418 296.563 147.693 296.287 147.889 295.942C148.094 295.597 148.197 295.214 148.197 294.794V292.876C148.197 292.465 148.043 292.134 147.735 291.882C147.436 291.621 147.04 291.49 146.545 291.49C146.116 291.49 145.733 291.602 145.397 291.826C145.07 292.041 144.828 292.33 144.669 292.694L143.535 292.106C143.675 291.761 143.899 291.453 144.207 291.182C144.515 290.902 144.874 290.683 145.285 290.524C145.696 290.365 146.125 290.286 146.573 290.286C147.152 290.286 147.66 290.398 148.099 290.622C148.538 290.837 148.878 291.14 149.121 291.532C149.373 291.915 149.499 292.363 149.499 292.876V298H148.225V296.572L148.463 296.656C148.304 296.955 148.09 297.216 147.819 297.44C147.548 297.664 147.231 297.841 146.867 297.972C146.503 298.103 146.106 298.168 145.677 298.168ZM155.424 298.168C154.817 298.168 154.262 298.033 153.758 297.762C153.263 297.491 152.88 297.109 152.61 296.614L152.792 296.39V298H151.518V287.402H152.82V292.078L152.624 291.756C152.904 291.308 153.286 290.953 153.772 290.692C154.257 290.421 154.812 290.286 155.438 290.286C156.147 290.286 156.782 290.459 157.342 290.804C157.911 291.149 158.359 291.621 158.686 292.218C159.012 292.806 159.176 293.478 159.176 294.234C159.176 294.971 159.012 295.639 158.686 296.236C158.359 296.833 157.911 297.305 157.342 297.65C156.782 297.995 156.142 298.168 155.424 298.168ZM155.326 296.908C155.802 296.908 156.226 296.791 156.6 296.558C156.973 296.325 157.262 296.007 157.468 295.606C157.682 295.195 157.79 294.738 157.79 294.234C157.79 293.711 157.682 293.254 157.468 292.862C157.262 292.461 156.973 292.143 156.6 291.91C156.226 291.667 155.802 291.546 155.326 291.546C154.85 291.546 154.42 291.663 154.038 291.896C153.664 292.129 153.366 292.451 153.142 292.862C152.927 293.263 152.82 293.721 152.82 294.234C152.82 294.738 152.927 295.195 153.142 295.606C153.366 296.007 153.664 296.325 154.038 296.558C154.42 296.791 154.85 296.908 155.326 296.908ZM160.883 298V287.402H162.185V298H160.883ZM167.677 298.168C166.949 298.168 166.301 297.995 165.731 297.65C165.162 297.305 164.714 296.833 164.387 296.236C164.061 295.629 163.897 294.953 163.897 294.206C163.897 293.45 164.056 292.778 164.373 292.19C164.7 291.602 165.139 291.14 165.689 290.804C166.249 290.459 166.875 290.286 167.565 290.286C168.125 290.286 168.62 290.389 169.049 290.594C169.488 290.79 169.857 291.061 170.155 291.406C170.463 291.742 170.697 292.129 170.855 292.568C171.023 292.997 171.107 293.445 171.107 293.912C171.107 294.015 171.098 294.131 171.079 294.262C171.07 294.383 171.056 294.5 171.037 294.612H164.849V293.492H170.281L169.665 293.996C169.749 293.511 169.703 293.077 169.525 292.694C169.348 292.311 169.087 292.008 168.741 291.784C168.396 291.56 168.004 291.448 167.565 291.448C167.127 291.448 166.725 291.56 166.361 291.784C165.997 292.008 165.713 292.33 165.507 292.75C165.311 293.161 165.232 293.651 165.269 294.22C165.232 294.771 165.316 295.256 165.521 295.676C165.736 296.087 166.035 296.409 166.417 296.642C166.809 296.866 167.234 296.978 167.691 296.978C168.195 296.978 168.62 296.861 168.965 296.628C169.311 296.395 169.591 296.096 169.805 295.732L170.897 296.292C170.748 296.637 170.515 296.955 170.197 297.244C169.889 297.524 169.521 297.748 169.091 297.916C168.671 298.084 168.2 298.168 167.677 298.168ZM173.337 299.946V299.358C173.626 299.283 173.85 299.129 174.009 298.896C174.177 298.672 174.275 298.373 174.303 298H173.617V296.32H174.975V297.51C174.975 298.182 174.835 298.723 174.555 299.134C174.284 299.545 173.878 299.815 173.337 299.946ZM173.617 292.134V290.454H174.975V292.134H173.617Z" fill="black"/>
<path d="M184 292C184 286.477 188.477 282 194 282C199.523 282 204 286.477 204 292C204 297.523 199.523 302 194 302C188.477 302 184 297.523 184 292Z" fill="#E70000"/>
<path fill-rule="evenodd" clip-rule="evenodd" d="M190.293 288.293C190.683 287.902 191.317 287.902 191.707 288.293L194 290.586L196.293 288.293C196.683 287.902 197.317 287.902 197.707 288.293C198.098 288.683 198.098 289.317 197.707 289.707L195.414 292L197.707 294.293C198.098 294.683 198.098 295.317 197.707 295.707C197.317 296.098 196.683 296.098 196.293 295.707L194 293.414L191.707 295.707C191.317 296.098 190.683 296.098 190.293 295.707C189.902 295.317 189.902 294.683 190.293 294.293L192.586 292L190.293 289.707C189.902 289.317 189.902 288.683 190.293 288.293Z" fill="white"/>
<path d="M567 126.576L567 212.05" stroke="#0087C7" stroke-linecap="round"/>
<path d="M561 132L567 126L573 132" stroke="#0087C7" stroke-linecap="round" stroke-linejoin="round"/>
<path d="M400.755 251L512.755 251" stroke="black" stroke-opacity="0.6" stroke-linecap="round" stroke-dasharray="1 5"/>
<path d="M406 257L400 251L406 245" stroke="black" stroke-opacity="0.6" stroke-linecap="round" stroke-linejoin="round"/>
<g clip-path="url(#clip0_20590_24314)">
<path d="M573.59 248.205C570.979 248.205 568.855 250.329 568.855 252.94C568.855 255.55 570.98 257.674 573.59 257.674C576.201 257.674 578.325 255.55 578.325 252.94C578.325 250.329 576.201 248.205 573.59 248.205ZM573.59 254.686C572.627 254.686 571.843 253.903 571.843 252.94C571.843 251.977 572.627 251.193 573.59 251.193C574.554 251.193 575.337 251.977 575.337 252.94C575.337 253.903 574.553 254.686 573.59 254.686Z" fill="black"/>
<path d="M557.094 277.779H552.496C551.671 277.779 551.002 278.448 551.002 279.273C551.002 280.099 551.671 280.767 552.496 280.767H557.094C557.92 280.767 558.588 280.098 558.588 279.273C558.588 278.448 557.92 277.779 557.094 277.779Z" fill="black"/>
<path d="M563.526 278.702C563.489 278.61 563.343 278.359 563.204 278.216C562.857 277.869 562.341 277.71 561.855 277.808C561.76 277.828 561.666 277.855 561.576 277.893C561.485 277.931 561.399 277.977 561.317 278.031C561.236 278.085 561.16 278.148 561.09 278.216C561.023 278.286 560.959 278.361 560.905 278.443C560.797 278.607 560.723 278.783 560.682 278.981C560.584 279.505 560.76 279.999 561.09 280.33C561.232 280.467 561.384 280.573 561.576 280.652C561.748 280.725 561.948 280.768 562.148 280.768C562.989 280.768 563.642 280.077 563.642 279.274C563.642 279.074 563.599 278.874 563.526 278.702Z" fill="black"/>
<path d="M570.425 222.052L573.056 219.422C573.639 218.838 573.639 217.892 573.056 217.309C572.472 216.725 571.526 216.725 570.943 217.309L567.256 220.996C566.672 221.579 566.672 222.525 567.256 223.108L570.943 226.795C571.526 227.379 572.472 227.379 573.056 226.795C573.639 226.212 573.639 225.266 573.056 224.683L570.425 222.052Z" fill="black"/>
<path d="M589.063 220.998L585.376 217.311C584.792 216.727 583.847 216.727 583.263 217.311C582.68 217.894 582.68 218.84 583.263 219.423L585.894 222.054L583.263 224.685C582.319 225.629 583.001 227.235 584.319 227.235C585.389 227.235 585.475 226.503 589.063 223.111C589.646 222.527 589.646 221.581 589.063 220.998Z" fill="black"/>
<path d="M580.579 215.29C579.803 215.008 578.947 215.407 578.665 216.183L574.524 227.56C574.241 228.335 574.641 229.193 575.417 229.475C576.198 229.759 577.051 229.352 577.331 228.582L581.472 217.205C581.754 216.429 581.354 215.572 580.579 215.29Z" fill="black"/>
<path d="M527.731 254.578C527.734 254.58 527.734 254.581 527.731 254.578V254.578Z" fill="black"/>
<path d="M598.543 240.191C546.611 240.358 548.473 239.774 546.826 240.668C545.552 241.361 544.761 242.691 544.761 244.14V246.252L540.672 243.766V242.714C546.071 239.889 549.614 234.453 549.614 227.919C549.614 227.911 549.614 227.904 549.614 227.896C550.389 227.731 551.121 227.437 551.78 227.02C551.832 226.993 551.884 226.963 551.933 226.929C553.521 225.86 554.33 224.273 554.368 222.713C554.351 222.652 554.571 220.652 552.757 218.899C553.942 213.324 553.543 208.901 551.563 205.748C549.657 202.713 546.827 201.703 545.309 201.371C545.114 201.329 544.944 201.227 544.831 201.086C540.621 195.84 531.274 194.453 523.089 197.861C522.327 198.178 521.967 199.053 522.284 199.815C522.602 200.577 523.476 200.936 524.238 200.62C531.125 197.752 539.147 198.778 542.5 202.957C543.039 203.629 543.81 204.103 544.67 204.291C545.73 204.523 547.706 205.227 549.032 207.337C550.487 209.654 550.815 213.023 550.016 217.365C549.469 217.213 548.289 217.024 547.741 217.15C547.198 217.216 544.845 217.366 543.225 215.311C542.269 214.099 540.549 213.852 539.311 214.75C535.988 217.158 526.542 220.916 518.377 217.329C518.101 217.16 517.849 217.114 517.581 217.111C517.555 217.111 517.576 217.107 517.455 217.113C516.794 217.123 516.15 217.22 515.54 217.402C514.414 212.523 515.193 207.573 518.818 204.098L518.819 204.098C519.414 203.527 519.434 202.581 518.863 201.986C518.292 201.39 517.346 201.37 516.75 201.941C512.071 206.427 511.127 212.878 512.853 218.969C509.766 222.056 511.534 226.968 516.12 227.908C516.19 229.509 516.312 230.932 516.517 231.8C517.138 234.421 518.346 236.79 520.11 238.845C521.506 240.468 523.136 241.783 524.93 242.754V243.753L518.102 247.782C518.082 247.787 511.918 249.493 512.313 249.385C508.886 250.309 506.54 252.746 505.876 256.072C505.872 256.09 505.869 256.108 505.866 256.127L500.611 288.789C499.833 293.623 503.57 298 508.459 298C514.125 298 551.773 298 557.33 298C559.169 298 560.927 297.353 562.317 296.193C563.076 297.283 564.336 298 565.763 298H581.489C583.804 298 585.687 296.117 585.687 293.802C585.687 291.488 583.804 289.605 581.489 289.605H580.908V287.322H586.9C587.726 287.322 588.394 286.653 588.394 285.828C588.394 285.003 587.726 284.334 586.9 284.334H580.908V264.713C582.24 263.956 581.699 261.92 580.171 261.92H567.263C565.629 261.92 565.187 264.184 566.702 264.799V284.334C546.84 284.334 548.398 284.421 548.029 284.052C547.622 283.645 547.748 286.051 547.748 244.14C547.748 243.617 548.17 243.179 548.709 243.179C601.799 243.22 598.597 243.076 598.999 243.294C599.31 243.463 599.503 243.787 599.503 244.14V283.373C599.503 283.739 599.3 284.056 598.999 284.219C598.628 284.421 598.743 284.297 593.872 284.334C593.047 284.334 592.378 285.003 592.378 285.828C592.378 286.654 593.047 287.322 593.872 287.322C598.317 287.2 599.705 287.795 601.334 286.166C602.08 285.42 602.491 284.428 602.491 283.373V244.14C602.491 241.95 600.715 240.191 598.543 240.191ZM549.615 220.38C551.932 221.307 552 223.828 549.615 224.783V220.38ZM516.043 224.773C513.677 223.807 513.752 221.306 516.065 220.38C516.044 221.547 516.027 223.13 516.043 224.773ZM569.691 264.914H577.92V289.605H569.691V264.914ZM566.703 287.322V289.605C565.882 289.618 565.676 289.57 565.098 289.663C565.054 289.034 564.993 288.855 564.755 287.322H566.703ZM565.763 292.593C568.384 292.593 580.097 292.593 581.49 292.593C582.157 292.593 582.699 293.135 582.699 293.802C582.699 294.47 582.156 295.012 581.49 295.012H565.763C565.096 295.012 564.553 294.469 564.553 293.802C564.553 293.135 565.096 292.593 565.763 292.593ZM544.381 249.519L537.935 254.651C540.745 247.507 540.709 247.785 540.672 247.263L544.381 249.519ZM522.376 236.897C518.271 232.116 519.164 227.717 519.054 220.778C526.499 223.172 535.759 220.927 540.95 217.251C542.747 219.469 545.057 220.042 546.627 220.145C546.628 220.872 546.618 223.594 546.625 227.922C546.626 240.62 530.716 246.594 522.376 236.897ZM528.624 248.572L527.919 246.75C527.919 245.126 527.919 245.07 527.919 244.002C531.081 244.959 534.47 244.934 537.684 243.946C537.684 245.18 537.684 245.185 537.684 247.131L537.12 248.565C534.544 250.298 531.196 250.298 528.624 248.572ZM535.57 252.503C535.562 252.525 533.104 258.769 533.112 258.75C533.031 258.956 532.818 258.947 532.838 258.936C532.637 258.936 532.611 258.864 532.561 258.74C532.553 258.719 530.153 252.521 530.144 252.497C531.869 252.957 533.724 252.991 535.57 252.503ZM524.942 247.215C524.995 247.633 525.151 247.771 527.753 254.596C527.665 254.525 527.609 254.479 527.575 254.452C527.629 254.496 527.717 254.567 527.732 254.579C527.683 254.539 526.696 253.738 521.302 249.363L524.942 247.215ZM527.564 254.443C527.519 254.407 527.531 254.416 527.564 254.443V254.443ZM512.33 249.382C512.289 249.397 512.247 249.413 512.207 249.432C512.231 249.421 512.272 249.401 512.33 249.382ZM525.611 295.012V289.763C528.356 290.22 530.554 292.319 531.157 295.012H525.611ZM540.043 295.012H534.473C535.078 292.311 537.286 290.208 540.043 289.759V295.012ZM540.506 286.705C537.264 286.914 534.447 288.702 532.815 291.307C531.188 288.709 528.381 286.924 525.149 286.707C524.882 286.178 524.513 285.71 524.062 285.333C525.922 283.735 526.996 281.339 527.452 278.939C530.887 278.939 534.699 278.939 538.178 278.939C538.633 281.334 539.706 283.739 541.581 285.344C541.136 285.718 540.77 286.181 540.506 286.705ZM540.973 277.37C540.932 276.575 540.276 275.952 539.481 275.952H537.934C534.943 275.952 529.136 275.952 526.149 275.952C525.357 275.952 524.703 276.575 524.658 277.365C524.657 277.384 524.54 279.254 523.636 281.051C521.429 285.437 517.42 284.082 515.848 284.335L518.704 265.032C518.825 264.216 518.261 263.456 517.445 263.336C516.629 263.214 515.869 263.779 515.749 264.595L512.828 284.334H511.288C510.462 284.334 509.794 285.003 509.794 285.828C509.794 286.654 510.463 287.322 511.288 287.322C514.395 287.322 518.388 287.322 521.31 287.322C522.033 287.322 522.621 287.91 522.623 288.632V295.012H508.459C505.409 295.012 503.076 292.281 503.561 289.263L508.811 256.631C509.739 252.074 514.01 252.272 518.348 250.814C519.156 251.47 522.229 253.962 523.439 254.944V264.54C523.439 265.365 524.108 266.034 524.933 266.034C525.758 266.034 526.427 265.365 526.427 264.54V257.368L529.974 260.246C531.217 262.48 534.451 262.484 535.699 260.253L539.25 257.424V264.54C539.25 265.365 539.919 266.034 540.744 266.034C541.57 266.034 542.238 265.365 542.238 264.54V255.045L544.76 253.036C544.775 285.413 544.73 283.34 544.794 283.861C543.608 283.348 542.682 282.417 541.994 281.05C541.09 279.254 540.974 277.384 540.973 277.37ZM561.729 287.322L562.071 289.447C562.541 292.367 560.283 295.012 557.33 295.012H543.031V288.632C543.033 287.909 543.622 287.322 544.345 287.322C546.097 287.322 558.831 287.322 561.729 287.322Z" fill="black"/>
<path d="M596.87 224.574C596.045 224.574 595.377 225.243 595.377 226.068V234.188C593.932 233.076 592.98 231.346 590.657 231.346H562.568C562.082 231.346 561.671 230.936 561.671 230.45V214.316C561.671 213.83 562.082 213.42 562.568 213.42H594.48C594.966 213.42 595.376 213.83 595.376 214.316V219.096C595.376 219.921 596.045 220.59 596.87 220.59C597.695 220.59 598.364 219.921 598.364 219.096V214.316C598.364 212.174 596.622 210.432 594.48 210.432H562.568C560.426 210.432 558.684 212.174 558.684 214.316V230.45C558.684 232.592 560.426 234.334 562.568 234.334H590.657C591.399 234.334 591.549 234.857 593.747 236.744C595.529 238.363 598.364 237.086 598.364 234.701V226.068C598.364 225.243 597.696 224.574 596.87 224.574Z" fill="black"/>
</g>
<path d="M535.62 310.576H539.796C541.641 310.576 543.044 311.088 544.004 312.112C544.921 313.083 545.38 314.475 545.38 316.288C545.38 318.091 544.921 319.483 544.004 320.464C543.044 321.488 541.641 322 539.796 322H535.62V310.576ZM537.492 312.176V320.4H539.444C540.863 320.4 541.903 320.069 542.564 319.408C543.204 318.736 543.524 317.696 543.524 316.288C543.524 314.837 543.204 313.792 542.564 313.152C541.913 312.501 540.873 312.176 539.444 312.176H537.492ZM547.136 310.576H552.368C553.509 310.576 554.4 310.848 555.04 311.392C555.637 311.904 555.936 312.592 555.936 313.456C555.936 314.085 555.781 314.629 555.472 315.088C555.173 315.493 554.736 315.808 554.16 316.032C554.906 316.171 555.472 316.475 555.856 316.944C556.229 317.403 556.416 318.016 556.416 318.784C556.416 319.936 556.021 320.784 555.232 321.328C554.56 321.776 553.61 322 552.384 322H547.136V310.576ZM549.008 312.112V315.376H551.872C552.65 315.376 553.216 315.243 553.568 314.976C553.898 314.699 554.064 314.267 554.064 313.68C554.064 313.136 553.898 312.741 553.568 312.496C553.216 312.24 552.661 312.112 551.904 312.112H549.008ZM549.008 316.912V320.464H552.112C552.826 320.464 553.381 320.352 553.776 320.128C554.288 319.84 554.544 319.381 554.544 318.752C554.544 318.101 554.357 317.632 553.984 317.344C553.6 317.056 552.992 316.912 552.16 316.912H549.008ZM561.431 310.576H563.559L567.927 322H565.927L564.887 319.136H560.103L559.062 322H557.062L561.431 310.576ZM560.663 317.6H564.327L562.535 312.592H562.471L560.663 317.6Z" fill="#26272B"/>
<path d="M496.663 65L149.856 65" stroke="#0087C7" stroke-linecap="round"/>
<path d="M493 59L499 65L493 71" stroke="#0087C7" stroke-linecap="round" stroke-linejoin="round"/>
<rect x="505" width="123" height="120" rx="60" fill="white"/>
<rect x="505.5" y="0.5" width="122" height="119" rx="59.5" stroke="black" stroke-opacity="0.4"/>
<rect x="529.5" y="12" width="74" height="74" rx="37" fill="white"/>
<g clip-path="url(#clip1_20590_24314)">
<path d="M591.61 34.4653C589.669 34.0084 587.133 33.725 584.398 33.6541V31.1055C584.398 29.575 582.548 28.413 578.743 27.5533C575.463 26.8123 571.115 26.4043 566.5 26.4043C563.989 26.4043 561.566 26.5237 559.3 26.759C558.833 26.8075 558.494 27.225 558.543 27.6917C558.591 28.1586 559.009 28.4968 559.475 28.4491C561.684 28.2199 564.047 28.1035 566.5 28.1035C570.993 28.1035 575.207 28.4967 578.368 29.2107C581.928 30.0151 582.699 30.9237 582.699 31.1055C582.699 31.2873 581.928 32.1958 578.368 33.0002C572.185 34.4654 560.815 34.4654 554.632 33.0002C551.072 32.1958 550.301 31.2872 550.301 31.1055C550.301 30.8947 551.23 29.8613 555.524 29.0235C555.984 28.9336 556.285 28.4874 556.195 28.0268C556.105 27.5664 555.66 27.2657 555.198 27.3556C550.759 28.2219 548.602 29.4484 548.602 31.1055V33.6541C545.867 33.725 543.331 34.0083 541.39 34.4653C538.772 35.0813 537.5 35.9462 537.5 37.1094V62.4844C537.5 63.6475 538.772 64.5123 541.39 65.1285C543.331 65.5853 545.867 65.8688 548.602 65.9396V66.9023C548.602 68.4328 550.452 69.5948 554.257 70.4545C560.684 71.9747 572.316 71.9747 578.743 70.4545C582.549 69.5947 584.399 68.4327 584.399 66.9023V65.9397C585.518 65.9108 586.608 65.8467 587.648 65.7469C588.116 65.702 588.458 65.2872 588.413 64.8201C588.368 64.3529 587.951 64.0106 587.486 64.0554C586.499 64.1499 585.463 64.2115 584.398 64.2398V59.5958C588.064 59.437 590.958 59.2263 593.801 58.0748V62.426C593.673 62.5961 593.024 63.0501 591.221 63.4742C590.764 63.5817 590.481 64.0392 590.589 64.4959C590.694 64.9562 591.166 65.2368 591.61 65.1284C594.228 64.5123 595.5 63.6474 595.5 62.4844V37.1094C595.5 35.9462 594.228 35.0813 591.61 34.4653ZM593.801 49.7385C592.271 51.0392 587.304 51.4716 584.398 51.5523V46.9083C588.064 46.7495 590.958 46.5388 593.801 45.3873V49.7385ZM548.602 45.2085C545.712 45.1312 540.713 44.6919 539.199 43.3948V39.0435C542.043 40.1949 544.935 40.4056 548.602 40.5646V45.2085ZM539.199 49.7385V45.3873C542.043 46.5388 544.936 46.7494 548.602 46.9083V51.5524C545.712 51.4749 540.713 51.0356 539.199 49.7385ZM550.301 51.2063C551.231 51.7213 552.546 52.1694 554.257 52.5562C560.684 54.0764 572.316 54.0764 578.743 52.5562C580.454 52.1694 581.769 51.7214 582.699 51.2063V57.9531C582.699 58.1348 581.929 59.0435 578.368 59.8479C572.185 61.313 560.815 61.313 554.632 59.8479C551.072 59.0435 550.301 58.1348 550.301 57.9531V51.2063ZM593.801 43.3948C592.271 44.6955 587.304 45.1279 584.398 45.2085V40.5646C588.064 40.4056 590.958 40.195 593.801 39.0435V43.3948ZM590.767 36.0184C592.714 36.4273 593.514 36.8869 593.748 37.1094C591.98 38.3881 587.402 38.768 584.398 38.8649V35.3537C586.776 35.4179 589.011 35.6496 590.767 36.0184ZM554.257 34.6576C560.684 36.1779 572.316 36.1779 578.743 34.6576C580.454 34.2709 581.769 33.8229 582.699 33.3078V40.0546C582.699 40.3097 581.524 41.525 576.097 42.3787C575.633 42.4516 575.317 42.8864 575.39 43.3499C575.46 43.8159 575.908 44.1317 576.361 44.0573C579.249 43.6029 581.365 42.9993 582.699 42.253V49.0038C582.699 49.1855 581.929 50.0941 578.368 50.8985C572.185 52.3637 560.815 52.3637 554.632 50.8985C551.072 50.0942 550.301 49.1856 550.301 49.0039V42.2571C551.231 42.7721 552.546 43.2202 554.257 43.607C557.537 44.3478 561.885 44.756 566.5 44.756C568.512 44.756 570.483 44.6784 572.359 44.5254C572.827 44.4873 573.175 44.0772 573.137 43.6096C573.098 43.1418 572.688 42.7953 572.221 42.8318C570.391 42.9811 568.466 43.0568 566.5 43.0568C562.007 43.0568 557.792 42.6636 554.632 41.9495C551.072 41.145 550.301 40.2364 550.301 40.0547V33.3079C551.231 33.8229 552.546 34.271 554.257 34.6576ZM542.233 36.0184C543.989 35.6496 546.224 35.4179 548.602 35.3539V38.8649C545.611 38.7705 541.007 38.3854 539.252 37.1095C539.486 36.8869 540.286 36.4272 542.233 36.0184ZM542.233 63.5754C540.095 63.1265 539.34 62.6163 539.199 62.4261V58.0748C539.774 58.339 540.497 58.5736 541.371 58.7802C541.815 58.8891 542.287 58.6089 542.393 58.1489C542.501 57.6922 542.218 57.2346 541.762 57.1266C539.972 56.7035 539.326 56.2518 539.199 56.0825V51.7313C542.043 52.8828 544.936 53.0934 548.602 53.2523V57.8965C547.575 57.8691 546.574 57.8108 545.618 57.7218C545.152 57.6789 544.737 58.0217 544.693 58.4889C544.65 58.9561 544.993 59.3702 545.46 59.4137C546.468 59.5075 547.522 59.5682 548.602 59.5962V64.24C546.224 64.1758 543.989 63.9441 542.233 63.5754ZM578.368 68.797C572.185 70.2621 560.815 70.2621 554.632 68.797C551.072 67.9927 550.301 67.084 550.301 66.9023V60.1555C551.231 60.6705 552.546 61.1187 554.257 61.5054C560.684 63.0256 572.316 63.0256 578.743 61.5054C580.454 61.1187 581.769 60.6706 582.699 60.1555V66.9023C582.699 67.084 581.928 67.9927 578.368 68.797ZM590.767 57.2316C589.011 57.6004 586.776 57.8321 584.398 57.8961V53.2521C588.064 53.0932 590.958 52.8825 593.801 51.731V56.0823C593.66 56.2725 592.905 56.7826 590.767 57.2316Z" fill="black"/>
</g>
<path d="M556.12 82.576H560.296C562.141 82.576 563.544 83.088 564.504 84.112C565.421 85.0827 565.88 86.4747 565.88 88.288C565.88 90.0907 565.421 91.4827 564.504 92.464C563.544 93.488 562.141 94 560.296 94H556.12V82.576ZM557.992 84.176V92.4H559.944C561.363 92.4 562.403 92.0693 563.064 91.408C563.704 90.736 564.024 89.696 564.024 88.288C564.024 86.8373 563.704 85.792 563.064 85.152C562.413 84.5013 561.373 84.176 559.944 84.176H557.992ZM567.636 82.576H572.868C574.009 82.576 574.9 82.848 575.54 83.392C576.137 83.904 576.436 84.592 576.436 85.456C576.436 86.0853 576.281 86.6293 575.972 87.088C575.673 87.4933 575.236 87.808 574.66 88.032C575.406 88.1707 575.972 88.4747 576.356 88.944C576.729 89.4027 576.916 90.016 576.916 90.784C576.916 91.936 576.521 92.784 575.732 93.328C575.06 93.776 574.11 94 572.884 94H567.636V82.576ZM569.508 84.112V87.376H572.372C573.15 87.376 573.716 87.2427 574.068 86.976C574.398 86.6987 574.564 86.2667 574.564 85.68C574.564 85.136 574.398 84.7413 574.068 84.496C573.716 84.24 573.161 84.112 572.404 84.112H569.508ZM569.508 88.912V92.464H572.612C573.326 92.464 573.881 92.352 574.276 92.128C574.788 91.84 575.044 91.3813 575.044 90.752C575.044 90.1013 574.857 89.632 574.484 89.344C574.1 89.056 573.492 88.912 572.66 88.912H569.508Z" fill="#26272B"/>
<path d="M105.02 54.6528C104.548 54.6528 104.077 54.4534 103.732 54.127C103.406 53.7824 103.207 53.311 103.207 52.8395C103.207 52.368 103.406 51.8966 103.732 51.552C104.421 50.8811 105.636 50.8811 106.307 51.552C106.634 51.8966 106.833 52.368 106.833 52.8395C106.833 53.3291 106.634 53.7824 106.307 54.127C105.963 54.4534 105.491 54.6528 105.02 54.6528Z" fill="black"/>
<path d="M43.3666 87.2935C42.8951 87.2935 42.4236 87.094 42.0791 86.7676C41.7527 86.4231 41.5532 85.9516 41.5532 85.4801C41.5532 85.0087 41.7527 84.5372 42.0791 84.1927C42.7682 83.5217 43.965 83.5217 44.654 84.1927C44.9804 84.5372 45.1799 85.0087 45.1799 85.4801C45.1799 85.9516 44.9804 86.4231 44.654 86.7676C44.3095 87.094 43.838 87.2935 43.3666 87.2935Z" fill="black"/>
<path d="M105.02 69.1593C104.019 69.1593 103.207 68.3469 103.207 67.346V60.0926C103.207 59.0917 104.019 58.2793 105.02 58.2793C106.021 58.2793 106.833 59.0917 106.833 60.0926V67.346C106.833 68.3469 106.021 69.1593 105.02 69.1593Z" fill="black"/>
<path d="M105.02 47.3999C104.019 47.3999 103.207 46.5875 103.207 45.5866V24.7333C103.207 23.7323 104.019 22.9199 105.02 22.9199C106.021 22.9199 106.833 23.7323 106.833 24.7333V45.5866C106.833 46.5875 106.021 47.3999 105.02 47.3999Z" fill="black"/>
<path d="M43.3666 80.0405C42.3656 80.0405 41.5532 79.2281 41.5532 78.2271V56.8153C41.5532 55.8143 42.3656 55.002 43.3666 55.002C44.3675 55.002 45.1799 55.8143 45.1799 56.8153V78.2271C45.1799 79.2281 44.3675 80.0405 43.3666 80.0405Z" fill="black"/>
<path d="M43.3666 101.8C42.3656 101.8 41.5532 100.988 41.5532 99.9866V92.7333C41.5532 91.7323 42.3656 90.9199 43.3666 90.9199C44.3675 90.9199 45.1799 91.7323 45.1799 92.7333V99.9866C45.1799 100.988 44.3675 101.8 43.3666 101.8Z" fill="black"/>
<path d="M67.1742 100.908C66.1732 100.908 65.3608 100.096 65.3608 99.0947V70.9735C65.3608 69.9725 66.1732 69.1602 67.1742 69.1602C68.1751 69.1602 68.9875 69.9725 68.9875 70.9735V99.0947C68.9875 100.096 68.1769 100.908 67.1742 100.908Z" fill="black"/>
<path d="M101.393 72.7865C100.392 72.7865 99.5801 71.9742 99.5801 70.9732C99.5801 69.9722 100.392 69.1599 101.393 69.1599C102.393 69.1599 103.207 68.3457 103.207 67.3465C103.207 66.3456 104.019 65.5332 105.02 65.5332C106.021 65.5332 106.833 66.3456 106.833 67.3465C106.833 70.3458 104.393 72.7865 101.393 72.7865Z" fill="black"/>
<path d="M101.393 72.7868H43.3666C42.3656 72.7868 41.5532 71.9744 41.5532 70.9735C41.5532 69.9725 42.3656 69.1602 43.3666 69.1602H101.393C102.394 69.1602 103.207 69.9725 103.207 70.9735C103.207 71.9744 102.394 72.7868 101.393 72.7868Z" fill="black"/>
<path d="M94.1399 41.0524H67.6C66.599 41.0524 65.7866 40.2401 65.7866 39.2391C65.7866 38.2382 66.599 37.4258 67.6 37.4258H94.1399C95.1409 37.4258 95.9532 38.2382 95.9532 39.2391C95.9532 40.2401 95.1409 41.0524 94.1399 41.0524Z" fill="black"/>
<path d="M94.1399 48.3064H69.6327C68.6317 48.3064 67.8193 47.494 67.8193 46.493C67.8193 45.4921 68.6317 44.6797 69.6327 44.6797H94.1399C95.1408 44.6797 95.9532 45.4921 95.9532 46.493C95.9532 47.494 95.1408 48.3064 94.1399 48.3064Z" fill="black"/>
<path d="M94.14 55.5603H66.0243C65.0233 55.5603 64.2109 54.7479 64.2109 53.7469C64.2109 52.746 65.0233 51.9336 66.0243 51.9336H94.14C95.141 51.9336 95.9533 52.746 95.9533 53.7469C95.9533 54.7479 95.141 55.5603 94.14 55.5603Z" fill="black"/>
<path d="M86.8868 33.8005H52.4335C51.4325 33.8005 50.6201 32.9881 50.6201 31.9872C50.6201 30.9862 51.4325 30.1738 52.4335 30.1738H86.8868C87.8877 30.1738 88.7001 30.9862 88.7001 31.9872C88.7001 32.9881 87.8877 33.8005 86.8868 33.8005Z" fill="black"/>
<path d="M69.66 22.9193C68.6591 22.9193 67.8467 22.107 67.8467 21.106V17.4793C67.8467 16.4784 68.6591 15.666 69.66 15.666C70.661 15.666 71.4733 16.4784 71.4733 17.4793V21.106C71.4733 22.107 70.661 22.9193 69.66 22.9193Z" fill="black"/>
<path d="M34.3001 33.7927C33.2992 33.7927 32.4868 32.9803 32.4868 31.9793V24.7333C32.4868 23.7323 33.2992 22.9199 34.3001 22.9199C35.3011 22.9199 36.1135 23.7323 36.1135 24.7333V31.9793C36.1135 32.9803 35.3011 33.7927 34.3001 33.7927Z" fill="black"/>
<path d="M34.3001 26.5463C33.2992 26.5463 32.4868 25.7339 32.4868 24.733C32.4868 21.7337 34.9276 19.293 37.9268 19.293C38.9278 19.293 39.7402 20.1053 39.7402 21.1063C39.7402 22.1073 38.9278 22.9196 37.9268 22.9196C36.9277 22.9196 36.1135 23.7338 36.1135 24.733C36.1135 25.7339 35.3011 26.5463 34.3001 26.5463Z" fill="black"/>
<path d="M101.393 22.9196H37.9266C36.9257 22.9196 36.1133 22.1073 36.1133 21.1063C36.1133 20.1053 36.9257 19.293 37.9266 19.293H101.393C102.394 19.293 103.207 20.1053 103.207 21.1063C103.207 22.1073 102.394 22.9196 101.393 22.9196Z" fill="black"/>
<path d="M105.02 26.5463C104.019 26.5463 103.207 25.7339 103.207 24.733C103.207 23.7338 102.393 22.9196 101.393 22.9196C100.392 22.9196 99.5801 22.1073 99.5801 21.1063C99.5801 20.1053 100.392 19.293 101.393 19.293C104.393 19.293 106.833 21.7337 106.833 24.733C106.833 25.7339 106.021 26.5463 105.02 26.5463Z" fill="black"/>
<path d="M23.13 53.0249C22.3629 53.0249 21.6485 52.5334 21.4037 51.761C21.099 50.8072 21.6267 49.7862 22.5805 49.4834C28.4285 47.6175 34.7045 47.2494 40.732 48.4208C41.7148 48.6112 42.3568 49.5632 42.1682 50.546C41.9778 51.5289 41.0294 52.1635 40.0429 51.9822C34.6084 50.925 28.9526 51.2587 23.683 52.9396C23.4981 52.9958 23.3131 53.0249 23.13 53.0249Z" fill="black"/>
<path d="M40.3875 52.0131C39.7057 52.0131 39.0511 51.6269 38.7428 50.965C38.3203 50.0583 38.712 48.9794 39.6204 48.5551L56.4881 40.6907C57.3911 40.2663 58.4755 40.658 58.898 41.5683C59.3205 42.475 58.9288 43.5539 58.0203 43.9782L41.1527 51.8427C40.9061 51.9605 40.645 52.0131 40.3875 52.0131Z" fill="black"/>
<path d="M60.3214 50.7217C59.6396 50.7217 58.9849 50.3355 58.6767 49.6754C58.2542 48.7688 58.6459 47.688 59.5525 47.2655C61.0141 46.5837 60.4501 45.1802 60.3214 44.9064C60.1944 44.6325 59.4891 43.3016 58.0184 43.9797C57.1136 44.4041 56.031 44.0124 55.6085 43.1021C55.186 42.1954 55.5777 41.1165 56.4862 40.6922C59.6486 39.2143 62.4647 40.9225 63.6071 43.3741C64.7495 45.8239 64.2491 49.077 61.0848 50.5531C60.84 50.6673 60.5789 50.7217 60.3214 50.7217Z" fill="black"/>
<path d="M43.367 58.6277C42.6852 58.6277 42.0306 58.2415 41.7223 57.5814C41.2998 56.673 41.6915 55.594 42.5982 55.1715L59.5528 47.2654C60.4595 46.8393 61.5402 47.2346 61.9628 48.1412C62.3853 49.0497 61.9936 50.1287 61.0869 50.5512L44.1322 58.4573C43.8856 58.5733 43.6245 58.6277 43.367 58.6277Z" fill="black"/>
<path d="M50.2011 106.333C49.6951 106.333 49.191 106.122 48.8338 105.711C48.1756 104.954 48.2553 103.81 49.0097 103.152L65.9843 88.366C66.7405 87.7078 67.8847 87.7876 68.5429 88.5419C69.2012 89.2981 69.1214 90.4423 68.367 91.1005L51.3924 105.886C51.0479 106.186 50.6236 106.333 50.2011 106.333Z" fill="black"/>
<path d="M84.1486 106.333C83.7261 106.333 83.3018 106.186 82.959 105.886L65.9844 91.1005C65.2283 90.4423 65.1503 89.2981 65.8085 88.5419C66.465 87.7876 67.611 87.7078 68.3671 88.366L85.3418 103.152C86.0979 103.81 86.1759 104.954 85.5177 105.711C85.1586 106.122 84.6563 106.333 84.1486 106.333Z" fill="black"/>
<path d="M17.9798 78.6729C16.9789 78.6729 16.1665 77.8605 16.1665 76.8595V58.1532C16.1665 57.1522 16.9789 56.3398 17.9798 56.3398C18.9808 56.3398 19.7932 57.1522 19.7932 58.1532V76.8595C19.7932 77.8605 18.9808 78.6729 17.9798 78.6729Z" fill="black"/>
<path d="M17.9798 59.9654C16.9789 59.9654 16.1665 59.153 16.1665 58.152C16.1665 54.1282 18.7541 50.6412 22.6057 49.4734C23.5631 49.1815 24.5767 49.7255 24.8669 50.6829C25.157 51.6422 24.6148 52.654 23.6574 52.9441C21.3454 53.6459 19.7932 55.7385 19.7932 58.152C19.7932 59.153 18.9808 59.9654 17.9798 59.9654Z" fill="black"/>
<path d="M25.2333 101.799C24.2323 101.799 23.4199 100.987 23.4199 99.9861V60.12C23.4199 59.119 24.2323 58.3066 25.2333 58.3066C26.2342 58.3066 27.0466 59.119 27.0466 60.12V99.9861C27.0466 100.987 26.2342 101.799 25.2333 101.799Z" fill="black"/>
<path d="M34.3003 51.3692C28.5539 51.3692 23.6978 46.5131 23.6978 40.7666C23.6978 35.0202 28.5539 30.1641 34.3003 30.1641C40.0468 30.1641 44.9029 35.0184 44.9029 40.7666C44.9029 46.5149 40.0468 51.3692 34.3003 51.3692ZM34.3003 33.7925C30.5195 33.7925 27.3244 36.9876 27.3244 40.7684C27.3244 44.5492 30.5195 47.7443 34.3003 47.7443C38.0811 47.7443 41.2762 44.5492 41.2762 40.7684C41.2762 36.9858 38.0811 33.7925 34.3003 33.7925Z" fill="black"/>
<path d="M34.3001 101.799C33.2992 101.799 32.4868 100.986 32.4868 99.9855V76.8583C32.4868 75.8573 33.2992 75.0449 34.3001 75.0449C35.3011 75.0449 36.1135 75.8573 36.1135 76.8583V99.9855C36.1135 100.986 35.3011 101.799 34.3001 101.799Z" fill="black"/>
<path d="M21.6065 82.1804C18.9028 82.1804 16.1665 80.3525 16.1665 76.8583C16.1665 75.8573 16.9789 75.0449 17.9798 75.0449C18.9808 75.0449 19.7932 75.8573 19.7932 76.8583C19.7932 78.4721 21.3037 78.5537 21.6065 78.5537C21.9093 78.5537 23.4198 78.4721 23.4198 76.8583C23.4198 75.8573 24.2322 75.0449 25.2332 75.0449C26.2341 75.0449 27.0465 75.8573 27.0465 76.8583C27.0465 80.3525 24.3102 82.1804 21.6065 82.1804Z" fill="black"/>
<path d="M38.8335 106.185C37.2124 106.185 35.6855 105.641 34.5341 104.651C33.214 103.516 32.4868 101.859 32.4868 99.9872C32.4868 98.9862 33.2992 98.1738 34.3001 98.1738C35.3011 98.1738 36.1135 98.9862 36.1135 99.9872C36.1135 102.486 38.556 102.558 38.8335 102.558C39.1109 102.558 41.5535 102.486 41.5535 99.9872C41.5535 98.9862 42.3659 98.1738 43.3668 98.1738C44.3678 98.1738 45.1802 98.9862 45.1802 99.9872C45.1802 104.056 41.9869 106.185 38.8335 106.185Z" fill="black"/>
<path d="M29.7666 106.185C28.1455 106.185 26.6186 105.641 25.4672 104.651C24.1471 103.516 23.4199 101.859 23.4199 99.9872C23.4199 98.9862 24.2323 98.1738 25.2333 98.1738C26.2342 98.1738 27.0466 98.9862 27.0466 99.9872C27.0466 102.486 29.4891 102.558 29.7666 102.558C30.044 102.558 32.4866 102.486 32.4866 99.9872C32.4866 98.9862 33.299 98.1738 34.2999 98.1738C35.3009 98.1738 36.1133 98.9862 36.1133 99.9872C36.1133 104.056 32.92 106.185 29.7666 106.185Z" fill="black"/>
<path d="M45.62 124.576H49.796C51.6413 124.576 53.044 125.088 54.004 126.112C54.9213 127.083 55.38 128.475 55.38 130.288C55.38 132.091 54.9213 133.483 54.004 134.464C53.044 135.488 51.6413 136 49.796 136H45.62V124.576ZM47.492 126.176V134.4H49.444C50.8627 134.4 51.9027 134.069 52.564 133.408C53.204 132.736 53.524 131.696 53.524 130.288C53.524 128.837 53.204 127.792 52.564 127.152C51.9133 126.501 50.8733 126.176 49.444 126.176H47.492ZM57.1356 124.576H62.3676C63.509 124.576 64.3996 124.848 65.0396 125.392C65.637 125.904 65.9356 126.592 65.9356 127.456C65.9356 128.085 65.781 128.629 65.4716 129.088C65.173 129.493 64.7356 129.808 64.1596 130.032C64.9063 130.171 65.4716 130.475 65.8556 130.944C66.229 131.403 66.4156 132.016 66.4156 132.784C66.4156 133.936 66.021 134.784 65.2316 135.328C64.5596 135.776 63.6103 136 62.3836 136H57.1356V124.576ZM59.0076 126.112V129.376H61.8716C62.6503 129.376 63.2156 129.243 63.5676 128.976C63.8983 128.699 64.0636 128.267 64.0636 127.68C64.0636 127.136 63.8983 126.741 63.5676 126.496C63.2156 126.24 62.661 126.112 61.9036 126.112H59.0076ZM59.0076 130.912V134.464H62.1116C62.8263 134.464 63.381 134.352 63.7756 134.128C64.2876 133.84 64.5436 133.381 64.5436 132.752C64.5436 132.101 64.357 131.632 63.9836 131.344C63.5996 131.056 62.9916 130.912 62.1596 130.912H59.0076ZM71.4305 124.576H73.5585L77.9265 136H75.9265L74.8865 133.136H70.1025L69.0625 136H67.0625L71.4305 124.576ZM70.6625 131.6H74.3265L72.5345 126.592H72.4705L70.6625 131.6Z" fill="#26272B"/>
<defs>
<clipPath id="clip0_20590_24314">
<rect width="102" height="102" fill="white" transform="translate(500.5 196)"/>
</clipPath>
<clipPath id="clip1_20590_24314">
<rect width="58" height="58" fill="white" transform="translate(537.5 20)"/>
</clipPath>
</defs>
</svg>
