<svg width="112" height="30" viewBox="0 0 112 30" fill="none" xmlns="http://www.w3.org/2000/svg">
<path fill-rule="evenodd" clip-rule="evenodd" d="M9.94388 3.63981C13.1696 0.0340405 18.5114 -1.02371 22.9031 1.0576C28.7381 3.8232 30.8667 10.8682 27.6899 16.3026L20.5435 28.5142C20.1441 29.1966 19.4869 29.6945 18.7162 29.8986C17.9456 30.1026 17.1245 29.9962 16.4332 29.6026L25.0852 14.8155C27.3901 10.8713 25.8485 5.75886 21.6182 3.74594C18.4441 2.23569 14.5639 2.99014 12.219 5.58745C10.9256 7.0133 10.1994 8.8542 10.1752 10.7687C10.151 12.6833 10.8304 14.5415 12.0873 15.9989C12.3132 16.2604 12.5563 16.5069 12.815 16.7369L7.76398 25.385C7.56645 25.723 7.30347 26.0194 6.99002 26.257C6.67659 26.4947 6.31883 26.6691 5.9372 26.7701C5.55556 26.8712 5.15751 26.897 4.76578 26.8461C4.37405 26.7951 3.99631 26.6685 3.65411 26.4734L9.13756 17.0846C8.3499 15.9627 7.78427 14.7037 7.47048 13.374L4.11031 19.1388C3.71089 19.8212 3.05371 20.3191 2.28306 20.5232C1.51241 20.7272 0.691293 20.6208 0 20.2272L8.68939 5.35699C9.05107 4.74632 9.47115 4.1713 9.94388 3.63981ZM19.9731 8.37304C22.0658 9.56709 22.7886 12.2226 21.5777 14.2893L13.2451 28.5125C12.8457 29.1949 12.1885 29.6927 11.4179 29.8968C10.6472 30.1009 9.8261 29.9944 9.13481 29.6009L16.8719 16.359C16.251 16.2299 15.666 15.9693 15.1571 15.595C14.6482 15.2207 14.2276 14.7418 13.9244 14.1914C13.621 13.6408 13.4422 13.0319 13.4004 12.4065C13.3585 11.7811 13.4545 11.1542 13.6817 10.569C13.9089 9.98383 14.2621 9.45429 14.7166 9.01706C15.1712 8.57983 15.7164 8.24532 16.3145 8.03654C16.9127 7.82776 17.5495 7.74972 18.1812 7.80782C18.8129 7.86592 19.4242 8.05876 19.9731 8.37304ZM16.9422 11.0461C16.7991 11.1547 16.6789 11.2901 16.5887 11.4446C16.4527 11.6773 16.3893 11.9445 16.4071 12.2127C16.4249 12.4807 16.5228 12.7376 16.6883 12.9507C16.8539 13.1637 17.0797 13.3236 17.3372 13.4099C17.5947 13.4963 17.8723 13.5052 18.135 13.4357C18.3976 13.3661 18.6334 13.2213 18.8127 13.0192C18.992 12.8172 19.1067 12.5673 19.1422 12.3009C19.1777 12.0345 19.1324 11.7638 19.0122 11.5228C18.8919 11.2819 18.702 11.0816 18.4666 10.9473C18.3102 10.858 18.1376 10.8002 17.9586 10.7769C17.7796 10.7536 17.5977 10.7654 17.4233 10.8116C17.2489 10.8578 17.0855 10.9375 16.9422 11.0461Z" fill="black"/>
<path fill-rule="evenodd" clip-rule="evenodd" d="M9.94388 3.63981C13.1696 0.0340405 18.5114 -1.02371 22.9031 1.0576C28.7381 3.8232 30.8667 10.8682 27.6899 16.3026L20.5435 28.5142C20.1441 29.1966 19.4869 29.6945 18.7162 29.8986C17.9456 30.1026 17.1245 29.9962 16.4332 29.6026L25.0852 14.8155C27.3901 10.8713 25.8485 5.75886 21.6182 3.74594C18.4441 2.23569 14.5639 2.99014 12.219 5.58745C10.9256 7.0133 10.1994 8.8542 10.1752 10.7687C10.151 12.6833 10.8304 14.5415 12.0873 15.9989C12.3132 16.2604 12.5563 16.5069 12.815 16.7369L7.76398 25.385C7.56645 25.723 7.30347 26.0194 6.99002 26.257C6.67659 26.4947 6.31883 26.6691 5.9372 26.7701C5.55556 26.8712 5.15751 26.897 4.76578 26.8461C4.37405 26.7951 3.99631 26.6685 3.65411 26.4734L9.13756 17.0846C8.3499 15.9627 7.78427 14.7037 7.47048 13.374L4.11031 19.1388C3.71089 19.8212 3.05371 20.3191 2.28306 20.5232C1.51241 20.7272 0.691293 20.6208 0 20.2272L8.68939 5.35699C9.05107 4.74632 9.47115 4.1713 9.94388 3.63981ZM19.9731 8.37304C22.0658 9.56709 22.7886 12.2226 21.5777 14.2893L13.2451 28.5125C12.8457 29.1949 12.1885 29.6927 11.4179 29.8968C10.6472 30.1009 9.8261 29.9944 9.13481 29.6009L16.8719 16.359C16.251 16.2299 15.666 15.9693 15.1571 15.595C14.6482 15.2207 14.2276 14.7418 13.9244 14.1914C13.621 13.6408 13.4422 13.0319 13.4004 12.4065C13.3585 11.7811 13.4545 11.1542 13.6817 10.569C13.9089 9.98383 14.2621 9.45429 14.7166 9.01706C15.1712 8.57983 15.7164 8.24532 16.3145 8.03654C16.9127 7.82776 17.5495 7.74972 18.1812 7.80782C18.8129 7.86592 19.4242 8.05876 19.9731 8.37304ZM16.9422 11.0461C16.7991 11.1547 16.6789 11.2901 16.5887 11.4446C16.4527 11.6773 16.3893 11.9445 16.4071 12.2127C16.4249 12.4807 16.5228 12.7376 16.6883 12.9507C16.8539 13.1637 17.0797 13.3236 17.3372 13.4099C17.5947 13.4963 17.8723 13.5052 18.135 13.4357C18.3976 13.3661 18.6334 13.2213 18.8127 13.0192C18.992 12.8172 19.1067 12.5673 19.1422 12.3009C19.1777 12.0345 19.1324 11.7638 19.0122 11.5228C18.8919 11.2819 18.702 11.0816 18.4666 10.9473C18.3102 10.858 18.1376 10.8002 17.9586 10.7769C17.7796 10.7536 17.5977 10.7654 17.4233 10.8116C17.2489 10.8578 17.0855 10.9375 16.9422 11.0461Z" fill="black"/>
<path fill-rule="evenodd" clip-rule="evenodd" d="M34.6162 22.7997L40.8612 6.97937H44.5227L50.7677 22.7997H47.2769L45.9318 19.2559H39.452L38.107 22.7997H34.6162ZM44.8644 16.4083C44.4373 15.1708 44.0566 14.0633 43.7221 13.086C43.3876 12.1087 43.046 11.0997 42.6973 10.059C42.3486 11.0997 42.0034 12.1087 41.6618 13.086C41.3273 14.0633 40.9465 15.1708 40.5196 16.4083H44.8644ZM51.8245 8.66684C51.8245 8.16062 51.9811 7.7528 52.2942 7.44343C52.6074 7.13406 53.0201 6.97937 53.5326 6.97937C54.0449 6.97937 54.4577 7.13406 54.7709 7.44343C55.084 7.7528 55.2406 8.16062 55.2406 8.66684C55.2406 9.17316 55.084 9.5809 54.7709 9.89033C54.4577 10.1997 54.0449 10.3544 53.5326 10.3544C53.0201 10.3544 52.6074 10.1997 52.2942 9.89033C51.9811 9.5809 51.8245 9.17316 51.8245 8.66684ZM51.9953 22.7997V12.2528H55.0697V22.7997H51.9953ZM57.6745 12.2528V22.7997H60.7489V18.1485C60.7489 17.0375 61.0016 16.1833 61.5069 15.5856C62.0122 14.9809 62.6776 14.6786 63.5032 14.6786C63.9017 14.6786 64.3073 14.7454 64.7201 14.879L65.1472 12.2528C64.6561 12.1122 64.1792 12.0418 63.7167 12.0418C62.3573 12.0418 61.2898 12.6149 60.5141 13.761V12.2528H57.6745ZM66.3213 22.7997V6.97937H69.3958V13.297C69.8442 12.9032 70.3566 12.5974 70.9331 12.3794C71.5095 12.1544 72.1322 12.0418 72.8011 12.0418C73.8047 12.0418 74.6978 12.2809 75.4806 12.759C76.2635 13.2302 76.8791 13.8805 77.3274 14.7102C77.7758 15.5329 78 16.4716 78 17.5263C78 18.5809 77.7758 19.5232 77.3274 20.3528C76.8791 21.1755 76.2635 21.8259 75.4806 22.304C74.6978 22.7751 73.8047 23.0106 72.8011 23.0106C72.1109 23.0106 71.4668 22.8946 70.869 22.6625C70.2712 22.4235 69.7481 22.0895 69.2998 21.6606L69.225 22.7997H66.3213ZM72.411 20.3739C73.1938 20.3739 73.8415 20.1032 74.3538 19.5618C74.8663 19.0204 75.1225 18.3418 75.1225 17.5263C75.1225 16.7106 74.8663 16.0321 74.3538 15.4907C73.8415 14.9493 73.1938 14.6786 72.411 14.6786C71.6281 14.6786 70.9805 14.9493 70.4681 15.4907C69.9557 16.0321 69.6994 16.7106 69.6994 17.5263C69.6994 18.3418 69.9557 19.0204 70.4681 19.5618C70.9805 20.1032 71.6281 20.3739 72.411 20.3739ZM83.1371 17.4102L80.6391 12.2528H77.4259L82.4005 22.2724L79.9666 28.0731H83.2011L89.8407 12.2528H86.5961L83.7136 19.1294C83.6424 18.7848 83.557 18.4684 83.4573 18.1802C83.3577 17.8918 83.2509 17.6352 83.1371 17.4102ZM90.2576 12.2528H92.0186V9.61613H95.0935V12.2528H97.6875V14.8895H95.0935V18.7708C95.0935 19.27 95.2537 19.6637 95.5733 19.952C95.9007 20.2333 96.3134 20.3739 96.8122 20.3739C97.1818 20.3739 97.5626 20.293 97.9538 20.1313V22.6204C97.2783 22.8805 96.6123 23.0106 95.9576 23.0106C94.6911 23.0106 93.7159 22.6767 93.0327 22.0087C92.3572 21.3337 92.0186 20.3704 92.0186 19.1188V14.8895H90.2576V12.2528ZM103.516 19.8571C103.003 19.4914 102.651 19.0168 102.459 18.4333H110.786V17.5157C110.786 16.454 110.543 15.5118 110.06 14.6891C109.576 13.8664 108.914 13.2196 108.074 12.7485C107.241 12.2774 106.288 12.0418 105.213 12.0418C104.132 12.0418 103.163 12.2809 102.31 12.759C101.463 13.2302 100.793 13.877 100.302 14.6997C99.8112 15.5153 99.5666 16.447 99.5666 17.4946C99.5666 18.5563 99.8224 19.5055 100.335 20.3422C100.847 21.172 101.555 21.8259 102.459 22.304C103.363 22.7751 104.406 23.0106 105.587 23.0106C106.327 23.0106 107.099 22.891 107.904 22.652C108.714 22.4129 109.533 21.9735 110.359 21.3337L108.502 19.1399C108.103 19.5125 107.658 19.8184 107.167 20.0575C106.683 20.2895 106.071 20.4055 105.331 20.4055C104.64 20.4055 104.035 20.2228 103.516 19.8571ZM107.439 16.1997C107.27 15.8261 107.026 15.5089 106.708 15.2482C106.245 14.8684 105.69 14.6786 105.043 14.6786C104.388 14.6786 103.818 14.872 103.334 15.2587C103.01 15.5218 102.761 15.8356 102.588 16.1997H107.439Z" fill="black"/>
</svg>
