<svg width="118" height="24" viewBox="0 0 118 24" fill="none" xmlns="http://www.w3.org/2000/svg">
<path fill-rule="evenodd" clip-rule="evenodd" d="M97.4205 5.4791C98.9135 5.32191 100.587 5.46963 101.751 6.42481C102.924 7.38838 103.359 8.89191 103.496 10.4183C103.637 11.9951 103.606 13.4432 103.404 14.7624C103.214 15.9996 102.705 17.3939 101.831 18.2291C100.542 19.4591 98.1763 19.5097 96.5673 19.1065C95.6585 18.8785 94.9904 18.3352 94.5631 17.4768C94.5593 17.468 94.5525 17.4611 94.5442 17.4568C94.5359 17.4527 94.5266 17.4514 94.5177 17.4536C94.5087 17.4559 94.5006 17.4614 94.4951 17.4691C94.4896 17.4769 94.4869 17.4865 94.4875 17.4961V24H91.0274L91.0158 5.75654C91.0158 5.7346 91.0243 5.71347 91.0392 5.69795C91.0542 5.68245 91.0745 5.67366 91.0956 5.67363H94.4204C94.4394 5.67363 94.4577 5.68141 94.4711 5.69531C94.4846 5.70927 94.4923 5.72831 94.4923 5.74805V7.14229C94.4921 7.15039 94.4945 7.15835 94.4991 7.16484C94.5036 7.17132 94.5101 7.17602 94.5177 7.17832C94.5252 7.18062 94.5335 7.18055 94.5411 7.17773C94.5486 7.17491 94.5549 7.16957 94.5594 7.16279C95.2016 6.12959 96.216 5.6063 97.4205 5.4791ZM97.1655 8.04492C96.2219 8.06052 95.2966 8.40127 94.8561 9.30967C94.418 10.2144 94.3032 11.2824 94.3078 12.3C94.3136 13.3188 94.4388 14.3857 94.8874 15.2845C95.3372 16.1881 96.2659 16.5192 97.2095 16.524C98.2991 16.53 99.2254 16.2384 99.6427 15.1392C99.9777 14.256 100.049 13.2181 100.045 12.2689C100.04 11.3197 99.9568 10.2815 99.6125 9.40313C99.1847 8.30761 98.2551 8.02694 97.1655 8.04492Z" fill="white"/>
<path fill-rule="evenodd" clip-rule="evenodd" d="M110.521 5.57754C111.638 5.39515 112.779 5.38162 113.943 5.53682C115.102 5.69163 116.243 6.24487 116.974 7.19766C117.753 8.20924 117.995 9.99351 118 11.2559V11.3256L117.868 13.0705C117.866 13.093 117.857 13.1141 117.841 13.13C117.826 13.1459 117.805 13.1555 117.783 13.1569L109.604 13.7039C109.598 13.7042 109.591 13.7058 109.586 13.7086C109.58 13.7113 109.575 13.7152 109.571 13.72C109.567 13.7248 109.563 13.7306 109.561 13.7367C109.559 13.7427 109.558 13.7491 109.558 13.7555C109.655 15.6814 110.917 16.3955 112.61 16.5023C114.244 16.6063 115.807 16.3199 117.299 15.6431C117.307 15.6395 117.316 15.6382 117.324 15.639C117.333 15.6398 117.341 15.6428 117.349 15.6478C117.356 15.6527 117.362 15.6597 117.366 15.6677C117.37 15.6756 117.373 15.6844 117.373 15.6935V18.2795C117.373 18.3155 117.363 18.3508 117.345 18.3812C117.326 18.4115 117.3 18.4358 117.269 18.4512C115.486 19.3224 113.219 19.4279 111.274 19.2671C109.088 19.0859 107.353 18.168 106.605 15.9961C106.206 14.8405 106.12 13.5456 106.125 12.2112C106.138 8.98803 107.045 6.14394 110.521 5.57754ZM113.214 8.16973C112.481 8.05293 111.808 8.0811 111.195 8.25469C109.867 8.63029 109.547 9.9024 109.495 11.1624C109.494 11.1702 109.496 11.178 109.498 11.1853C109.501 11.1924 109.505 11.1989 109.511 11.2043C109.516 11.2097 109.523 11.2139 109.53 11.2166C109.537 11.2193 109.544 11.2206 109.552 11.2201L114.705 10.7965C114.729 10.7947 114.75 10.7835 114.766 10.7657C114.782 10.7479 114.79 10.7245 114.79 10.7004C114.783 10.2388 114.71 9.78478 114.571 9.33838C114.361 8.66886 113.908 8.27936 113.214 8.16973Z" fill="white"/>
<path fill-rule="evenodd" clip-rule="evenodd" d="M57.5957 5.63174C59.3971 5.27896 61.7711 5.24532 63.3499 6.2833C64.472 7.02128 64.9461 8.0388 65.1767 9.35273C65.3823 10.5271 65.4076 11.7695 65.2523 13.0799C65.2497 13.1003 65.2402 13.1192 65.2258 13.1332C65.2114 13.1472 65.1929 13.1557 65.1734 13.1569L56.98 13.7039C56.9652 13.7048 56.9513 13.7119 56.9414 13.7232C56.9314 13.7347 56.9261 13.7498 56.9267 13.7651C57.0252 15.7391 58.3456 16.4137 60.0647 16.5073C61.6969 16.5961 63.241 16.3016 64.697 15.624C64.7022 15.6214 64.7081 15.6204 64.7139 15.6208C64.7197 15.6212 64.7253 15.623 64.7303 15.6264C64.7352 15.6297 64.7392 15.6344 64.7421 15.6398C64.745 15.6453 64.7468 15.6515 64.7469 15.6577V18.312C64.7468 18.3362 64.7399 18.36 64.7274 18.3806C64.715 18.4011 64.6972 18.4176 64.6761 18.4283C62.935 19.2899 60.8413 19.4064 58.9078 19.2876C56.9962 19.17 55.2956 18.5675 54.3265 16.8035C53.5986 15.4787 53.4629 13.6764 53.4942 12.0601C53.5244 10.5517 53.7098 9.03119 54.4447 7.8C55.1449 6.628 56.1954 5.90534 57.5957 5.63174ZM60.5817 8.16709C59.8491 8.0511 59.1762 8.08029 58.5634 8.25469C57.235 8.63032 56.9163 9.90243 56.8641 11.1624C56.8637 11.1702 56.865 11.178 56.8678 11.1853C56.8705 11.1924 56.8748 11.1989 56.8802 11.2043C56.8855 11.2097 56.8918 11.2139 56.8988 11.2166C56.9058 11.2193 56.9133 11.2206 56.9208 11.2201L62.0748 10.7941C62.0981 10.7923 62.1198 10.7812 62.1355 10.7634C62.1512 10.7456 62.1598 10.7222 62.1594 10.698C62.1525 10.2365 62.079 9.78242 61.9392 9.33604C61.729 8.66644 61.2765 8.27669 60.5817 8.16709Z" fill="white"/>
<path fill-rule="evenodd" clip-rule="evenodd" d="M50.2138 0.183691C50.223 0.183706 50.2323 0.185593 50.2409 0.189258C50.2494 0.192935 50.2572 0.198315 50.2637 0.205078C50.2703 0.211866 50.2754 0.219945 50.2789 0.228809C50.2825 0.23769 50.2843 0.247321 50.2843 0.256934V19.0356C50.2843 19.0468 50.2801 19.0574 50.2725 19.0652C50.2649 19.0731 50.2545 19.0775 50.2437 19.0775H47.2193C47.2037 19.0776 47.1884 19.0719 47.1765 19.0611C47.1646 19.0503 47.1567 19.0353 47.1545 19.0189L46.9401 17.3388C46.939 17.3322 46.9359 17.3262 46.9314 17.3215C46.9269 17.3167 46.9211 17.3136 46.9147 17.3124C46.9084 17.3112 46.9019 17.312 46.8961 17.3147C46.8903 17.3176 46.8852 17.3222 46.882 17.3279C46.3442 18.3895 45.476 19.0176 44.2774 19.212C43.0277 19.4148 41.5184 19.3692 40.3928 18.8748C38.916 18.2244 38.1613 16.5899 37.9399 15.0059C37.6246 12.7559 37.6282 10.1183 38.5045 8.00391C39.1127 6.5368 40.1961 5.6871 41.7548 5.45508C42.6922 5.31588 43.6194 5.33556 44.536 5.51397C45.5754 5.71559 46.335 6.28529 46.8149 7.22285C46.8174 7.2288 46.822 7.23376 46.8276 7.23662C46.8332 7.23945 46.8396 7.23992 46.8456 7.23838C46.8517 7.2368 46.8572 7.23312 46.8609 7.22783C46.8645 7.22256 46.8664 7.21615 46.8659 7.20967V0.253125C46.866 0.234693 46.8731 0.216941 46.8857 0.203906C46.8983 0.190927 46.9153 0.183702 46.9331 0.183691H50.2138ZM46.8439 10.4089C46.4742 8.62092 45.3798 7.86952 43.6109 8.06748C42.3624 8.20788 41.6771 9.14521 41.5114 10.362C41.3676 11.4164 41.338 12.488 41.4222 13.5768C41.4814 14.3256 41.5672 15.0756 41.9578 15.648C42.2863 16.128 42.7225 16.4164 43.2665 16.5132C44.5903 16.7496 46.2539 16.5648 46.6967 14.976C47.1156 13.4784 47.1646 11.956 46.8439 10.4089Z" fill="white"/>
<path fill-rule="evenodd" clip-rule="evenodd" d="M25.5257 5.6124C27.384 5.4012 29.4464 5.29572 31.2281 5.67012C33.3506 6.11773 34.5654 7.42573 34.5689 9.72012C34.5735 13.0385 34.5732 16.1408 34.5677 19.0271C34.5677 19.0399 34.5629 19.0521 34.5542 19.0611C34.5455 19.0701 34.5338 19.0752 34.5215 19.0752H31.5758C31.5561 19.0752 31.537 19.0681 31.5214 19.0553C31.5058 19.0424 31.4948 19.0245 31.4901 19.0043L31.1643 17.6124C31.1625 17.6043 31.1584 17.597 31.1525 17.5913C31.1466 17.5857 31.139 17.5821 31.1311 17.5808C31.1231 17.5795 31.1149 17.5805 31.1076 17.584C31.1004 17.5875 31.0943 17.5933 31.0902 17.6004C30.1524 19.254 27.5486 19.464 25.9048 19.248C25.0203 19.1328 23.9239 18.7091 23.3687 17.9171C22.9375 17.3027 22.6913 16.6304 22.6303 15.9C22.5306 14.7144 22.6486 13.5408 23.3453 12.6C24.2796 11.3388 26.1194 11.0807 27.5522 11.0555C27.5604 11.0555 28.7088 11.0532 30.9974 11.0484C31.011 11.0485 31.0245 11.0455 31.0371 11.0399C31.0497 11.0344 31.0612 11.0262 31.0707 11.0159C31.0802 11.0056 31.0878 10.9933 31.0927 10.9799C31.0976 10.9665 31.0999 10.9523 31.0995 10.938C31.0728 10.0644 31.0855 9.07204 30.1188 8.71201C29.5268 8.49201 28.8223 8.39276 28.0055 8.41436C26.9815 8.44156 26.1614 8.51451 25.5455 8.63291C25.5376 8.63448 25.5295 8.63406 25.5218 8.63203C25.514 8.62999 25.5068 8.62616 25.5006 8.6209C25.4944 8.61563 25.4894 8.60906 25.486 8.60156C25.4825 8.59406 25.4806 8.58584 25.4806 8.57754V5.66397C25.4806 5.65108 25.4852 5.63864 25.4936 5.6291C25.5019 5.61959 25.5134 5.61363 25.5257 5.6124ZM31.06 13.4675C29.689 13.4627 28.7078 13.4648 28.1166 13.4736C27.2009 13.4869 26.19 13.6932 26.0509 14.7539C25.8874 15.9959 26.5286 16.572 27.6693 16.6392C29.0661 16.7196 30.2324 16.3379 31.0786 15.1427C31.1245 15.078 31.1491 15.0003 31.1491 14.9209V13.5589C31.1491 13.5347 31.1398 13.5115 31.1232 13.4944C31.1064 13.4773 31.0837 13.4675 31.06 13.4675Z" fill="white"/>
<path d="M19.2035 0.181055C19.2124 0.181055 19.2214 0.183063 19.2297 0.186621C19.238 0.190179 19.2456 0.195286 19.252 0.201855C19.2583 0.208427 19.2632 0.216415 19.2666 0.225C19.2701 0.233559 19.272 0.242693 19.272 0.251953C19.2704 7.84955 19.2712 12.7357 19.2743 14.9101C19.2754 15.5988 19.3276 16.2791 20.1379 16.3787C20.4199 16.4139 20.7183 16.4077 21.0328 16.3597C21.0395 16.3588 21.0464 16.3594 21.0528 16.3614C21.0593 16.3635 21.0653 16.3669 21.0703 16.3714C21.0753 16.3759 21.0794 16.3816 21.0821 16.3878C21.0849 16.394 21.0862 16.4009 21.0861 16.4077V19.0512C21.086 19.0826 21.0749 19.113 21.0548 19.1364C21.0347 19.1598 21.0071 19.1748 20.9772 19.1783C19.971 19.3007 19.0173 19.2868 18.1162 19.1364C16.1641 18.8112 15.7815 17.3197 15.7803 15.5701C15.7772 8.52532 15.7769 3.4144 15.7792 0.237598C15.7795 0.222574 15.7855 0.208289 15.7958 0.197754C15.8062 0.187231 15.8202 0.181075 15.8347 0.181055H19.2035Z" fill="white"/>
<path fill-rule="evenodd" clip-rule="evenodd" d="M72.1948 1.83721C73.3254 1.79401 74.383 1.79914 75.3675 1.85273C76.5626 1.91753 78.2631 2.2321 79.1638 3.00967C80.1978 3.90125 80.5144 5.01236 80.7091 6.42832C80.8915 7.76028 80.8344 9.03153 80.5376 10.2419C80.2664 11.3499 79.6802 12.2148 78.7791 12.8364C77.6454 13.6188 75.714 13.7795 74.2974 13.7663C73.8345 13.7623 73.1901 13.7645 72.364 13.7725C72.3146 13.7725 72.2787 13.7611 72.2563 13.7388C72.2076 13.6892 72.1728 13.6976 72.1519 13.764C72.1497 13.7703 72.1486 13.777 72.1494 13.7833L72.212 14.7829C72.2136 14.8115 72.2056 14.8397 72.1892 14.8629C72.1727 14.8861 72.1488 14.9029 72.1218 14.9101L71.7703 14.9977C71.7537 15.0017 71.7362 15.0013 71.7199 14.9965C71.7035 14.9917 71.6887 14.9825 71.6767 14.9701L71.578 14.8667C71.5762 14.8649 71.5741 14.8637 71.5718 14.8629C71.5694 14.8621 71.5669 14.8617 71.5645 14.862C71.562 14.8624 71.5597 14.8635 71.5577 14.8649C71.5556 14.8664 71.5538 14.8683 71.5526 14.8705L71.534 14.9051C71.5312 14.9102 71.5298 14.916 71.53 14.9218C71.5303 14.9275 71.532 14.933 71.5351 14.9376L72.1158 15.714C72.12 15.7194 72.1231 15.7257 72.1249 15.7324C72.1266 15.7392 72.1271 15.7463 72.1263 15.7532C72.1254 15.7601 72.1232 15.7668 72.1198 15.7729C72.1164 15.7789 72.1119 15.7842 72.1065 15.7884L71.4852 16.2853C71.476 16.2929 71.4695 16.3036 71.4663 16.3154C71.4632 16.3273 71.4636 16.3398 71.4677 16.3512C71.4718 16.3626 71.4793 16.3722 71.4891 16.3787C71.499 16.3852 71.5107 16.3882 71.5224 16.3872L72.1158 16.3477C72.1258 16.3468 72.136 16.3481 72.1455 16.3515C72.1549 16.3549 72.1635 16.3605 72.1708 16.3676C72.1782 16.3747 72.1842 16.3832 72.1883 16.3928C72.1924 16.4024 72.1947 16.4128 72.1948 16.4232C72.1995 16.6752 72.2121 17.0173 72.1669 17.286C72.146 17.4108 72.0447 17.4755 71.8631 17.4803C71.8335 17.4812 71.8052 17.4938 71.7842 17.5154C71.7631 17.537 71.7506 17.5662 71.7495 17.5969C71.7418 17.82 71.8176 17.938 71.9768 17.9508C71.9984 17.9523 72.0193 17.9599 72.0369 17.973C72.0545 17.9862 72.0683 18.0043 72.0766 18.0252C72.1856 18.302 72.2236 18.6284 72.1911 19.0043C72.1898 19.0211 72.1834 19.037 72.1728 19.0497C72.1622 19.0624 72.148 19.0714 72.1322 19.0752L71.4121 19.2551C71.4038 19.2572 71.3952 19.2575 71.3868 19.256C71.3784 19.2544 71.3704 19.2509 71.3633 19.246C71.3563 19.241 71.3501 19.2347 71.3456 19.2272C71.341 19.2197 71.3381 19.2111 71.3368 19.2023C71.3013 18.9072 71.3086 18.6272 71.3588 18.3624C71.3628 18.34 71.3712 18.3187 71.3834 18.2997C71.3955 18.2807 71.4113 18.2645 71.4296 18.252C71.4435 18.2432 71.454 18.2365 71.4609 18.2317C71.4666 18.2278 71.4706 18.2218 71.4725 18.215C71.4744 18.2083 71.4741 18.201 71.4714 18.1945C71.4686 18.1881 71.4636 18.183 71.4576 18.1799C71.4514 18.1768 71.4444 18.1758 71.4378 18.1775L71.1978 18.2376C71.1785 18.2426 71.158 18.2393 71.1408 18.2285C71.1237 18.2177 71.1111 18.2002 71.1061 18.1799L70.9719 17.6016C70.9669 17.5804 70.97 17.5581 70.9806 17.5395C70.9913 17.5208 71.0084 17.5073 71.0286 17.502L71.4378 17.3868C71.4488 17.3838 71.4583 17.3768 71.4649 17.3672C71.4714 17.3576 71.4745 17.3458 71.4736 17.3341C71.4713 17.3133 71.4501 17.2859 71.4099 17.2523C71.385 17.232 71.366 17.2041 71.3555 17.1721C71.299 17.0057 71.3011 16.802 71.3614 16.5612C71.3642 16.5505 71.3641 16.5392 71.3617 16.5284C71.3592 16.5176 71.3544 16.5074 71.3473 16.4991C71.3402 16.4908 71.3311 16.4845 71.321 16.4807C71.311 16.4768 71.3001 16.4756 71.2895 16.4771C71.2864 16.4779 71.2763 16.4801 71.2593 16.4833C71.2359 16.488 71.2116 16.4858 71.1893 16.4771C71.167 16.4685 71.1475 16.4536 71.1329 16.4341L70.5903 15.7069C70.5812 15.6952 70.5689 15.6858 70.5545 15.6803C70.512 15.6635 70.4687 15.6628 70.4247 15.6779C70.4149 15.6813 70.4043 15.6828 70.394 15.6817C70.3836 15.6807 70.3735 15.6774 70.3644 15.6721C70.3552 15.6668 70.347 15.6597 70.3407 15.651C70.3343 15.6423 70.3297 15.6323 70.3271 15.6217L70.2414 15.2555C70.2395 15.2472 70.2396 15.2386 70.2414 15.2303C70.2432 15.222 70.2469 15.2141 70.2521 15.2074C70.2573 15.2007 70.264 15.1953 70.2716 15.1916C70.2791 15.1879 70.2874 15.186 70.2958 15.186C70.3546 15.1868 70.4409 15.166 70.5545 15.1236C70.607 15.1036 70.6484 15.1029 70.6786 15.1213C70.7086 15.1389 70.7296 15.1744 70.7412 15.2279C70.743 15.236 70.7467 15.2437 70.7519 15.2499C70.7571 15.2561 70.7637 15.2608 70.7711 15.2637C70.7785 15.2665 70.7865 15.2675 70.7942 15.2663C70.8019 15.2651 70.8092 15.2619 70.8153 15.2569L71.3021 14.8655C71.3144 14.8558 71.3244 14.8432 71.3312 14.8286C71.338 14.8141 71.3416 14.7981 71.3416 14.7817V14.4659C71.3416 14.4613 71.3404 14.4567 71.3382 14.4527C71.336 14.4487 71.3328 14.4452 71.3289 14.4431C71.278 14.4143 71.2219 14.4157 71.1609 14.4469C71.1029 14.4765 71.0935 14.5152 71.1329 14.5632C71.1407 14.5736 71.1612 14.5867 71.1944 14.6027C71.2121 14.612 71.2262 14.6273 71.2345 14.6458C71.2427 14.6643 71.2444 14.6851 71.2395 14.7047C71.2249 14.7663 71.1831 14.81 71.1143 14.8356C71.1054 14.839 71.0959 14.8404 71.0864 14.8397C71.0769 14.8391 71.0674 14.8364 71.059 14.8318C71.0507 14.8273 71.0434 14.821 71.0376 14.8134C71.0317 14.8058 71.0275 14.797 71.0252 14.7876C70.9889 14.6516 70.905 14.6173 70.7736 14.6845C70.7645 14.6891 70.7544 14.6914 70.7443 14.6915C70.7342 14.6915 70.7243 14.6892 70.7152 14.6848C70.7061 14.6803 70.6979 14.6736 70.6915 14.6654C70.6852 14.6573 70.6808 14.6478 70.6786 14.6376L70.6216 14.3903C70.6196 14.3814 70.6195 14.3721 70.6213 14.3631C70.6231 14.3541 70.6268 14.3456 70.632 14.3382C70.6373 14.3308 70.6442 14.3245 70.652 14.32C70.6598 14.3156 70.6686 14.313 70.6774 14.3124L70.8027 14.3039C70.8128 14.3031 70.8228 14.3002 70.8317 14.2951C70.8407 14.29 70.8485 14.2829 70.8545 14.2743C70.8606 14.2658 70.8646 14.256 70.8667 14.2456C70.8687 14.2352 70.8688 14.2243 70.8664 14.214L70.7319 13.6368C70.7295 13.6275 70.729 13.6176 70.7307 13.6081C70.7325 13.5985 70.7362 13.5891 70.7417 13.5812C70.7472 13.5732 70.7546 13.5667 70.7629 13.5618C70.7711 13.5569 70.7802 13.5537 70.7897 13.5527C71.0316 13.5295 71.2331 13.4521 71.3938 13.3201C71.4105 13.307 71.4296 13.2976 71.4499 13.2926C71.4703 13.2876 71.4916 13.287 71.512 13.2911C71.5598 13.3007 71.5852 13.3051 71.5884 13.3043C71.667 13.2769 71.7318 13.2172 71.7692 13.1376C71.8066 13.058 71.8137 12.9646 71.789 12.8771C71.7457 12.7236 71.7728 12.6024 71.8702 12.5136C71.8768 12.5076 71.882 12.5001 71.8857 12.4919C71.8894 12.4837 71.8916 12.4749 71.8919 12.4658C71.8922 12.4567 71.8908 12.4476 71.8877 12.4392C71.8845 12.4307 71.8797 12.4228 71.8736 12.4163C71.6974 12.2308 71.5107 12.1865 71.3137 12.2833C71.2857 12.2969 71.2548 12.3026 71.224 12.3003C71.1932 12.298 71.1633 12.2877 71.1374 12.2701C71.0633 12.219 71.0047 12.1931 70.9614 12.1931C70.9175 12.1932 70.8741 12.1796 70.8373 12.1541C70.8006 12.1287 70.7722 12.0928 70.7561 12.0513C70.7401 12.0097 70.7371 11.9646 70.7477 11.9224C70.7583 11.8801 70.782 11.8425 70.8153 11.8151C70.9969 11.668 71.2222 11.5621 71.4911 11.4973C71.4978 11.4952 71.5034 11.4907 71.5069 11.4847C71.5104 11.4786 71.5114 11.4714 71.5097 11.4647V11.4636C71.5062 11.4561 71.5003 11.4501 71.4931 11.4466C71.4859 11.4431 71.4778 11.4424 71.4702 11.4445L70.966 11.5825C70.9558 11.5854 70.9451 11.586 70.9346 11.5846C70.9242 11.5831 70.9141 11.5793 70.905 11.5737C70.896 11.5681 70.8879 11.5609 70.8816 11.5521C70.8754 11.5432 70.8711 11.5331 70.8687 11.5225L70.7527 11.0256C70.7469 10.9999 70.7359 10.9756 70.7206 10.9544C70.7052 10.9331 70.6856 10.9152 70.6633 10.902L70.37 10.7268C70.3569 10.7189 70.3463 10.707 70.3395 10.6928C70.3328 10.6785 70.3302 10.6625 70.3319 10.6465C70.3435 10.5417 70.3334 10.4808 70.3017 10.464C70.2734 10.456 70.244 10.4538 70.2149 10.4569L69.9633 10.4783C69.9524 10.4795 69.9413 10.4785 69.9309 10.4751C69.9204 10.4717 69.9104 10.4661 69.9021 10.4587C69.8938 10.4513 69.8872 10.4422 69.8823 10.432C69.8775 10.4218 69.8745 10.4106 69.8739 10.3992L69.8508 10.038C69.8504 10.0313 69.8487 10.0248 69.8457 10.0189C69.8426 10.013 69.8382 10.0077 69.833 10.0037C69.8278 9.99973 69.8218 9.99683 69.8155 9.99551C69.8092 9.99419 69.8026 9.9945 69.7963 9.99609L68.7705 10.2527C68.7515 10.2574 68.7314 10.2542 68.7147 10.2437C68.698 10.2331 68.6858 10.2162 68.6811 10.1965L68.3915 8.95693C68.3876 8.93979 68.3902 8.92157 68.3991 8.90654C68.408 8.89151 68.4223 8.88064 68.4389 8.87637L69.5992 8.58604C69.6284 8.5788 69.6593 8.58391 69.6849 8.6001C69.7105 8.61629 69.7288 8.6423 69.736 8.67246L69.9689 9.6709C69.9774 9.70775 69.9984 9.74019 70.0279 9.7626C70.0574 9.78502 70.0937 9.7958 70.1303 9.79307L70.4352 9.77285C70.4531 9.77161 70.4712 9.7748 70.4876 9.78252C70.504 9.79024 70.5182 9.80225 70.5291 9.81709C70.54 9.83193 70.5471 9.84936 70.5499 9.86777C70.5527 9.88622 70.5511 9.90524 70.5452 9.92285C70.4625 10.1724 70.5436 10.3129 70.7886 10.3441C70.8146 10.3476 70.84 10.3579 70.8616 10.374C70.8831 10.3901 70.9 10.4112 70.9101 10.4347C70.9202 10.4582 70.9233 10.4833 70.9189 10.5067C70.9144 10.5302 70.9024 10.5512 70.8847 10.5671C70.8646 10.5855 70.8469 10.6432 70.8314 10.7399C70.83 10.7489 70.8309 10.7582 70.8337 10.7669C70.8364 10.7755 70.8412 10.7833 70.8475 10.7897C70.8538 10.7962 70.8616 10.801 70.8701 10.8038C70.8785 10.8066 70.8875 10.8073 70.8963 10.8059C71.0771 10.7739 71.2111 10.7279 71.2976 10.6679C71.3104 10.6588 71.3251 10.6531 71.3405 10.6512C71.3559 10.6493 71.3717 10.6513 71.3862 10.657C71.4007 10.6628 71.4136 10.6722 71.424 10.6843C71.4344 10.6964 71.4421 10.711 71.446 10.7268L71.7461 12.0155C71.7528 12.0446 71.7694 12.0704 71.7926 12.0882C71.8159 12.106 71.8447 12.1147 71.8736 12.1128L72.1206 12.0961C72.1296 12.0954 72.1382 12.0921 72.1455 12.0867C72.1527 12.0813 72.1583 12.0739 72.1618 12.0653C72.1653 12.0568 72.1666 12.0473 72.1652 12.0381C72.1638 12.0289 72.16 12.0203 72.1542 12.0132C72.1403 11.9948 72.1128 11.9663 72.0718 11.9279C72.0425 11.9007 72.0331 11.8639 72.0439 11.8175C72.0756 11.6823 72.0487 11.5863 71.963 11.5295C71.7694 11.4011 71.7484 11.196 71.6928 10.9884C71.6876 10.9682 71.6899 10.9468 71.6993 10.9283C71.7087 10.9098 71.7247 10.8956 71.7438 10.8888C72.0344 10.7848 72.1806 10.7329 72.1821 10.7329C72.8453 10.7197 74.249 10.782 75.2273 10.6248C75.9785 10.5036 76.6588 10.0919 76.8767 9.30352C77.1329 8.37834 77.1839 7.40643 76.9509 6.47285C76.5997 5.06285 75.3895 4.84552 74.1804 4.80352C73.6765 4.78672 73.044 4.78411 72.2828 4.79531C72.2635 4.79563 72.2451 4.80341 72.2315 4.81729C72.2179 4.83117 72.2101 4.85009 72.2098 4.86973L72.2041 5.40967C72.2033 5.48397 72.187 5.55757 72.1565 5.62559L71.8772 6.24609C71.8643 6.27602 71.8582 6.3084 71.8597 6.34072C71.8737 6.63672 71.9683 6.8524 72.1438 6.9876C72.1553 6.9962 72.165 7.00741 72.172 7.02041C72.179 7.03347 72.1833 7.04815 72.1844 7.06318L72.225 7.70772C72.2267 7.73477 72.2203 7.76176 72.2069 7.78506C72.1935 7.80841 72.1733 7.82703 72.1494 7.83838C71.9815 7.91638 72.0301 8.08673 71.8772 8.16475C71.8347 8.18634 71.8073 8.21481 71.7949 8.25C71.7833 8.2836 71.7976 8.31793 71.8378 8.35313C72.0078 8.50271 72.1 8.71555 72.1147 8.9915C72.1158 9.01212 72.1098 9.03259 72.0978 9.04922C72.0857 9.06586 72.0684 9.0779 72.0487 9.08291L71.6336 9.18604C71.621 9.18921 71.608 9.18983 71.5952 9.18779C71.5824 9.18573 71.5699 9.18103 71.5588 9.17402C71.5477 9.167 71.538 9.15769 71.5303 9.14678C71.5227 9.13589 71.5172 9.12353 71.5142 9.11045L71.4657 8.90273C71.4633 8.89197 71.4587 8.88183 71.4525 8.87285C71.4462 8.86387 71.4382 8.85609 71.4291 8.85029C71.4199 8.84449 71.4095 8.84056 71.3989 8.83887C71.3883 8.83718 71.3774 8.83766 71.367 8.84033L71.1665 8.88955C71.1376 8.89679 71.107 8.89204 71.0816 8.87607C71.0562 8.86011 71.038 8.83416 71.0308 8.8043L70.9578 8.49111C70.9536 8.47373 70.9432 8.45863 70.9284 8.44922C70.9137 8.43981 70.896 8.43677 70.8791 8.44072L70.7237 8.4791C70.7017 8.48478 70.6784 8.48375 70.6568 8.47588C70.6353 8.46801 70.6163 8.4537 70.6021 8.43486L70.383 8.1419C70.3772 8.1342 70.3728 8.12551 70.3703 8.11611C70.3678 8.1067 70.3671 8.09679 70.3683 8.08711C70.3695 8.07741 70.3727 8.06806 70.3773 8.05957C70.382 8.05108 70.3882 8.04359 70.3957 8.0376L70.7132 7.7833C70.7222 7.77606 70.7325 7.77063 70.7434 7.76748C70.7544 7.76434 70.7658 7.7634 70.777 7.76484C70.7882 7.7663 70.7991 7.77016 70.8089 7.77598C70.8186 7.78179 70.8272 7.78956 70.834 7.79883L70.9115 7.90195C70.9222 7.91619 70.9366 7.92704 70.953 7.93301C70.9694 7.93897 70.9874 7.93989 71.0043 7.93564L71.1422 7.90078C71.153 7.89792 71.163 7.89242 71.1713 7.88467C71.1795 7.87689 71.1859 7.86706 71.1896 7.85625C71.1933 7.8454 71.1942 7.83353 71.1924 7.82227C71.1906 7.81105 71.186 7.80042 71.1792 7.7915L70.8768 7.38721C70.8648 7.37087 70.8592 7.3503 70.8616 7.33008C70.864 7.30988 70.8741 7.29152 70.8895 7.2791L71.2336 7.0043C71.268 6.977 71.2924 6.9383 71.3024 6.89473C71.3124 6.85119 71.3074 6.80535 71.2886 6.76494C71.2697 6.72451 71.2379 6.69198 71.1986 6.67266C71.1593 6.65335 71.1148 6.64849 71.0726 6.65889L70.9603 6.68643C70.9406 6.69143 70.9198 6.69021 70.9005 6.6832C70.8812 6.67618 70.864 6.66368 70.8512 6.64688L70.5198 6.20273C70.5094 6.18869 70.5049 6.17103 70.5071 6.15352C70.5092 6.13602 70.5179 6.12016 70.5313 6.10928L70.5638 6.08408C70.5855 6.06632 70.6005 6.04102 70.6061 6.01289C70.6116 5.98478 70.6073 5.95541 70.5939 5.93027C70.5121 5.77349 70.5009 5.58035 70.5604 5.35078C70.5658 5.32957 70.5663 5.30731 70.5621 5.28574C70.5579 5.26411 70.5488 5.24356 70.5358 5.22598L70.2309 4.81934C70.2132 4.79547 70.2053 4.76514 70.209 4.73525C70.2126 4.70537 70.2277 4.67816 70.2507 4.65967L70.6879 4.31045C70.6998 4.30076 70.7135 4.29352 70.7282 4.28936C70.7429 4.28519 70.7584 4.28413 70.7736 4.28613C70.7887 4.28815 70.8035 4.29322 70.8168 4.30107C70.8301 4.30894 70.8417 4.31961 70.8512 4.33213L71.2175 4.82285C71.2288 4.8378 71.2341 4.85675 71.2319 4.87559C71.2298 4.89447 71.2204 4.91182 71.206 4.92363L70.7434 5.29307C70.7371 5.29812 70.7321 5.30496 70.7293 5.3127C70.7265 5.32044 70.7261 5.32891 70.7276 5.33701C70.7292 5.34512 70.7329 5.35266 70.7383 5.35869C70.7438 5.3647 70.7507 5.36913 70.7584 5.37129L70.8292 5.39268C70.8308 5.39296 70.8325 5.393 70.834 5.39238C70.8354 5.39174 70.8367 5.3905 70.8373 5.38916C70.9285 5.20759 71.0793 5.09114 71.2895 5.03994C71.3119 5.03451 71.3318 5.02141 71.3461 5.00273C71.3605 4.98399 71.3682 4.96071 71.3681 4.93682V4.85654C71.3681 4.82956 71.3782 4.80352 71.3961 4.78389C71.4139 4.76427 71.4383 4.75234 71.4643 4.75078L71.7066 4.73408C71.7192 4.73334 71.7317 4.72991 71.743 4.72412C71.7543 4.71829 71.7646 4.71008 71.7729 4.7001C71.7811 4.69017 71.7871 4.67857 71.7909 4.66611C71.7947 4.65359 71.7962 4.64021 71.7949 4.62715C71.7833 4.50717 71.7147 4.41992 71.5896 4.36553C71.5757 4.35934 71.5635 4.34984 71.554 4.3377C71.5445 4.32548 71.538 4.31089 71.5351 4.29551C71.5323 4.28014 71.5332 4.26418 71.5377 4.24922C71.5421 4.23427 71.5501 4.22074 71.5608 4.20967L71.7356 4.02715C71.7406 4.02168 71.7439 4.01467 71.7447 4.00723C71.7455 3.99982 71.7438 3.99228 71.7402 3.98584C71.7365 3.97941 71.731 3.97442 71.7244 3.97148C71.7177 3.96855 71.7103 3.96796 71.7032 3.96973C71.6345 3.98973 71.5795 4.01715 71.5385 4.05234C71.523 4.0659 71.5032 4.07321 71.4829 4.07256C71.4626 4.07189 71.4432 4.0634 71.4285 4.04883C71.3219 3.94164 71.262 3.82482 71.2488 3.69844C71.2485 3.69423 71.247 3.69015 71.2446 3.68672C71.2422 3.68326 71.2388 3.68052 71.235 3.67881C71.2312 3.6771 71.227 3.67625 71.2229 3.67676C71.2188 3.67728 71.2149 3.67917 71.2116 3.68174L70.5731 4.19268C70.5625 4.20128 70.5499 4.20721 70.5367 4.20967C70.5234 4.21212 70.5097 4.21129 70.4969 4.20703C70.4841 4.20277 70.4725 4.19504 70.4631 4.18506C70.4538 4.17509 70.4468 4.16293 70.443 4.14961C70.3658 3.87842 70.2136 3.62439 69.9864 3.3876C69.9774 3.37817 69.9704 3.36688 69.9658 3.35449C69.9613 3.34214 69.9594 3.32894 69.9602 3.31582C69.961 3.30266 69.9644 3.28963 69.9703 3.27803C69.9763 3.26646 69.9846 3.25641 69.9946 3.24844L70.4907 2.85117C70.5103 2.83572 70.5257 2.81537 70.5358 2.79199C70.546 2.76853 70.5503 2.74249 70.5485 2.7167L70.5277 2.37012C70.5267 2.35658 70.5285 2.34286 70.5327 2.32998C70.537 2.31709 70.5438 2.30508 70.5525 2.29482C70.5612 2.28463 70.5717 2.27625 70.5835 2.27022C70.5954 2.26418 70.6084 2.2606 70.6216 2.25967L70.988 2.23564C70.997 2.23499 71.0062 2.23635 71.0147 2.23945C71.0234 2.24258 71.0314 2.24741 71.0382 2.25381C71.0449 2.26021 71.0502 2.26803 71.054 2.27666C71.0577 2.28525 71.0597 2.2945 71.0599 2.30391L71.0633 2.48174C71.0648 2.52504 71.0759 2.56726 71.0957 2.60508C71.115 2.64268 71.146 2.67692 71.1885 2.70732C71.1927 2.7108 71.1959 2.71546 71.1975 2.7208C71.1991 2.72614 71.1991 2.73188 71.1975 2.73721C71.1959 2.74255 71.1925 2.74725 71.1882 2.75068C71.184 2.75406 71.1789 2.75622 71.1735 2.75654C71.0121 2.75894 70.9508 2.81121 70.9902 2.91357C70.9925 2.91994 70.9957 2.92616 70.9995 2.93174L71.3081 3.32871C71.3115 3.3333 71.3162 3.33675 71.3216 3.33809C71.3271 3.33942 71.3329 3.33858 71.338 3.33604C71.343 3.33349 71.3469 3.32925 71.3493 3.32402C71.3516 3.3188 71.3523 3.31291 71.3509 3.30732L71.2768 2.98799C71.2726 2.96927 71.2755 2.94958 71.2852 2.9332C71.295 2.9168 71.3109 2.90495 71.3289 2.90039L71.4169 2.87871C71.4266 2.87624 71.4355 2.87128 71.4429 2.86436C71.4503 2.85741 71.4562 2.84863 71.4595 2.83887C71.4628 2.82915 71.4636 2.81857 71.4621 2.8084C71.4605 2.79822 71.4565 2.78847 71.4505 2.78027L71.235 2.49229C71.2121 2.46158 71.2004 2.4234 71.2023 2.38447C71.2042 2.34555 71.2196 2.30839 71.2455 2.27988C71.5028 1.99916 71.8193 1.85161 72.1948 1.83721ZM71.3219 5.70352L71.2302 5.72637C71.2138 5.7306 71.1987 5.73934 71.1865 5.75156C71.1743 5.7638 71.1655 5.77918 71.1609 5.79609C71.1563 5.81301 71.156 5.83094 71.1603 5.84795C71.1645 5.86497 71.1731 5.88057 71.1851 5.89307L71.5072 6.22676C71.5148 6.23432 71.5247 6.23918 71.5351 6.24053C71.5455 6.24187 71.5562 6.23977 71.5653 6.23438C71.5744 6.22898 71.5817 6.22062 71.5859 6.21064C71.5901 6.20064 71.5909 6.18931 71.5884 6.17871L71.5049 5.81895C71.4953 5.77857 71.4707 5.74356 71.4364 5.72197C71.4021 5.70041 71.3609 5.69376 71.3219 5.70352ZM72.1457 3.44414C72.1323 3.44353 72.1187 3.45788 72.1079 3.48398C72.0971 3.51024 72.09 3.54637 72.0882 3.58418C72.0873 3.60289 72.0876 3.62154 72.0893 3.63896C72.0911 3.6564 72.0943 3.67236 72.0984 3.68584C72.1024 3.69925 72.1075 3.71001 72.1133 3.71748C72.1191 3.72496 72.1258 3.72916 72.1325 3.72949C72.146 3.73008 72.1595 3.71554 72.1703 3.68936C72.1811 3.66311 72.1882 3.62722 72.19 3.58945C72.1909 3.57074 72.1903 3.55209 72.1886 3.53467C72.1869 3.51724 72.184 3.50127 72.1799 3.48779C72.1758 3.47439 72.1707 3.46363 72.1649 3.45615C72.1591 3.44867 72.1524 3.44448 72.1457 3.44414ZM71.6756 3.48398C71.6567 3.4853 71.6407 3.49386 71.6313 3.50801C71.6219 3.52214 71.6199 3.5406 71.6254 3.55928C71.6309 3.57792 71.6435 3.59533 71.6606 3.60762C71.6778 3.6199 71.6982 3.62622 71.717 3.6249C71.7359 3.62359 71.7516 3.61473 71.761 3.60059C71.7704 3.58644 71.7727 3.56799 71.7672 3.54932C71.7617 3.53067 71.7489 3.51324 71.7317 3.50098C71.7145 3.48875 71.6944 3.48268 71.6756 3.48398ZM72.1342 2.51191C72.1321 2.51301 72.1301 2.51444 72.1285 2.51631L71.8679 2.80547C71.8649 2.80897 71.8632 2.81368 71.8634 2.81836C71.8636 2.82306 71.8657 2.82746 71.8691 2.83066L71.8724 2.83447C71.9126 2.87312 71.9657 2.89403 72.0202 2.89248C72.0748 2.89091 72.1264 2.86689 72.1635 2.82598L72.168 2.82012C72.2051 2.77913 72.225 2.72422 72.223 2.66777C72.221 2.61138 72.1974 2.55794 72.1576 2.51895L72.1542 2.51514C72.1525 2.51343 72.1505 2.51222 72.1483 2.51133C72.1461 2.51045 72.1436 2.51005 72.1412 2.51016C72.1388 2.51027 72.1363 2.51082 72.1342 2.51191Z" fill="white"/>
<path d="M69.7755 18.8329C69.8849 18.8329 69.9737 18.9247 69.9737 19.038C69.9737 19.1513 69.8849 19.2431 69.7755 19.2431C69.666 19.2431 69.5772 19.1513 69.5772 19.038C69.5772 18.9247 69.666 18.8329 69.7755 18.8329Z" fill="white"/>
<path d="M8.35101 18.532C8.36677 18.4893 8.41325 18.468 8.45452 18.4843L8.78789 18.6161C8.82916 18.6324 8.84991 18.6803 8.83415 18.723L8.71005 19.0591C8.6943 19.1018 8.64808 19.1234 8.60682 19.1071L8.27317 18.9753C8.23194 18.959 8.21145 18.9111 8.22719 18.8684L8.35101 18.532Z" fill="white"/>
<path fill-rule="evenodd" clip-rule="evenodd" d="M0.0451269 1.81934C3.81249 1.81534 6.00689 1.8172 6.62829 1.8252C6.78981 1.8268 7.16085 1.86588 7.74123 1.94268C7.76652 1.94592 7.79037 1.95669 7.81005 1.97344C7.82975 1.99022 7.84441 2.01251 7.85236 2.0376C7.90104 2.18718 7.99503 2.26163 8.13412 2.26084C8.14598 2.26072 8.15779 2.26323 8.16853 2.26846C8.17924 2.27369 8.18871 2.28149 8.19617 2.29102C8.20362 2.30057 8.20898 2.31187 8.21168 2.32383C8.21437 2.33582 8.21459 2.34844 8.21196 2.36045L8.1643 2.58955C8.16256 2.59744 8.16256 2.60568 8.1643 2.61357C8.16605 2.62148 8.16956 2.62892 8.17445 2.63525C8.17932 2.64156 8.18548 2.64669 8.1925 2.6502C8.19958 2.6537 8.2075 2.65549 8.21535 2.65547H8.27909C8.32267 2.65541 8.36512 2.64162 8.40093 2.61592C8.43676 2.59019 8.4643 2.55388 8.47962 2.51162L8.5851 2.21895C8.595 2.19162 8.61504 2.16927 8.64067 2.15713C8.66627 2.14503 8.69549 2.14382 8.7219 2.15391L9.2527 2.35928C9.26018 2.36209 9.26715 2.36631 9.27301 2.37188C9.27887 2.37744 9.28349 2.38432 9.28683 2.3918C9.29015 2.39925 9.29216 2.40733 9.29247 2.41553C9.29276 2.4237 9.29155 2.43188 9.2888 2.43955L9.11365 2.92324C9.1069 2.94213 9.09636 2.95936 9.08263 2.97363C9.06887 2.98793 9.0521 2.99909 9.03384 3.00615C9.01561 3.01318 8.99598 3.0161 8.97658 3.01465C8.9572 3.01318 8.93834 3.00732 8.9213 2.99766C8.78145 2.91687 8.66862 2.90486 8.58285 2.96162C8.37652 3.10201 8.16202 3.10559 8.06812 2.87402C8.05933 2.85171 8.04449 2.83224 8.02553 2.81807C8.00653 2.8039 7.98409 2.79563 7.96123 2.79434C7.93834 2.79306 7.91577 2.79869 7.89664 2.81074C7.87754 2.82279 7.86246 2.84067 7.85349 2.86201C7.83419 2.90922 7.8282 2.99285 7.83515 3.11279C7.8359 3.1257 7.84017 3.13811 7.84756 3.14854C7.85497 3.15897 7.86521 3.16708 7.8769 3.17168L8.59441 3.44883C8.61292 3.45591 8.63334 3.4562 8.65195 3.44941C8.67056 3.44262 8.68638 3.42916 8.69651 3.41162C8.73282 3.34683 8.75827 3.27749 8.77295 3.20391C8.77514 3.19341 8.77946 3.18353 8.78564 3.1749C8.79182 3.16627 8.79969 3.15903 8.80877 3.15381C8.81786 3.14859 8.82802 3.1453 8.83838 3.14443C8.84877 3.14358 8.85932 3.14516 8.86912 3.14883L9.12888 3.24961C9.14069 3.25419 9.15151 3.26127 9.16076 3.27012C9.17 3.27898 9.17749 3.28968 9.18275 3.30147C9.188 3.31325 9.19102 3.32605 9.1915 3.33896C9.19196 3.35186 9.18995 3.3647 9.18557 3.37676L9.07078 3.69492C9.0647 3.71222 9.0641 3.73116 9.06909 3.74883C9.07411 3.76649 9.08456 3.78191 9.09871 3.79307C9.18294 3.85867 9.2007 3.93964 9.15201 4.03564C9.14077 4.0576 9.12311 4.07462 9.10153 4.08457C9.07992 4.09452 9.05531 4.0969 9.03102 4.09131C9.00673 4.08571 8.98393 4.07237 8.96558 4.05322C8.94725 4.03408 8.93426 4.00997 8.92835 3.98408C8.91521 3.92648 8.91664 3.86118 8.93286 3.78838C8.93483 3.77933 8.93346 3.76987 8.9292 3.76172C8.92495 3.75361 8.91807 3.7474 8.90974 3.74414L8.8773 3.73213C8.87594 3.73157 8.87426 3.73118 8.87279 3.73125C8.8714 3.73133 8.87009 3.73179 8.86884 3.73242C8.86753 3.7331 8.8661 3.73389 8.86517 3.73506C8.86425 3.73623 8.86359 3.7377 8.8632 3.73916L8.57467 4.53721C8.57089 4.54775 8.5651 4.55737 8.55775 4.56563C8.5504 4.57387 8.54158 4.58057 8.5318 4.58525C8.52199 4.58994 8.51124 4.59277 8.50049 4.59316C8.4898 4.59353 8.47916 4.59155 8.46919 4.5876L7.91497 4.37402C7.90732 4.37117 7.89906 4.3703 7.891 4.37139C7.88294 4.37249 7.87511 4.37537 7.86843 4.38018C7.86178 4.38498 7.85644 4.3915 7.85264 4.39893C7.84883 4.40639 7.84678 4.4148 7.84672 4.42324V5.18525C7.84672 5.21376 7.85198 5.24212 7.86251 5.26846C7.87305 5.29479 7.88874 5.31861 7.9082 5.33877L7.99733 5.43252C8.00259 5.43801 8.00672 5.44455 8.00917 5.45186C8.01163 5.45922 8.01232 5.46726 8.01143 5.475C8.01053 5.4827 8.00814 5.49015 8.0041 5.49668C8.00004 5.50324 7.99444 5.50872 7.98802 5.51279L7.95446 5.53564C7.94001 5.54489 7.92284 5.54844 7.90623 5.54561C7.88956 5.54273 7.87434 5.5337 7.86392 5.52012C7.62824 5.21694 7.30925 5.04071 6.90667 4.99189C5.89663 4.8679 4.84396 4.82555 3.74891 4.86475C3.73191 4.86506 3.71571 4.87241 3.70379 4.88496C3.69186 4.89753 3.68517 4.91451 3.68517 4.93213V8.91826C3.68518 8.93518 3.6916 8.95157 3.70322 8.96367C3.71493 8.97579 3.73108 8.98299 3.74779 8.9833C4.39228 8.9889 5.05304 8.98088 5.72998 8.95928C6.02286 8.94967 6.23277 8.90733 6.3595 8.83213C6.38488 8.8175 6.41519 8.81358 6.44412 8.82129C6.49197 8.83491 6.54018 8.86967 6.58881 8.92559C6.59556 8.93286 6.60001 8.94223 6.60122 8.95225C6.60242 8.96226 6.6004 8.97248 6.59557 8.98125C6.59075 8.98998 6.58333 8.99685 6.57442 9.00088C6.56549 9.00492 6.55543 9.00582 6.54593 9.00352L6.3815 8.96748C6.36813 8.9635 6.35363 8.96519 6.34145 8.97217C6.32932 8.97912 6.3205 8.99091 6.31663 9.00469C6.31279 9.01852 6.31442 9.0334 6.32115 9.046C6.32789 9.0586 6.33908 9.06809 6.35245 9.07207L6.49968 9.12949C6.51854 9.13658 6.53466 9.15001 6.54537 9.16758C6.55607 9.18516 6.56087 9.20608 6.55891 9.22676C6.54346 9.39713 6.46685 9.47633 6.32933 9.46436C6.32141 9.46354 6.31325 9.46453 6.30563 9.46699C6.29807 9.46946 6.29087 9.47338 6.28476 9.47871C6.27865 9.48405 6.27353 9.49065 6.26981 9.49805C6.26609 9.50547 6.26378 9.51372 6.26305 9.52207C6.25147 9.64603 6.27334 9.73152 6.3282 9.77871C6.33839 9.78734 6.35066 9.79288 6.36374 9.79453C6.37681 9.79616 6.39021 9.79395 6.40209 9.78809C6.41401 9.78217 6.42415 9.77275 6.43114 9.76113C6.43812 9.74953 6.44169 9.73613 6.44158 9.72246C6.44003 9.5697 6.5139 9.44923 6.66298 9.36123C6.68434 9.34892 6.70225 9.3308 6.71431 9.30879C6.72637 9.28679 6.73226 9.26171 6.73152 9.23643C6.72997 9.17404 6.74078 9.13644 6.76395 9.12363C6.78791 9.10923 6.82932 9.10998 6.88805 9.12598C6.9583 9.14595 7.00888 9.14921 7.03979 9.13564C7.0583 9.12775 7.075 9.11594 7.08859 9.10107C7.10219 9.08617 7.11257 9.06842 7.11876 9.04922L7.21945 8.74805C7.22375 8.73572 7.23043 8.72435 7.23891 8.71465C7.24743 8.70494 7.25769 8.69679 7.26909 8.69121C7.2805 8.68564 7.29294 8.68271 7.30548 8.68213C7.31804 8.68156 7.33065 8.68347 7.34242 8.68799L7.9082 8.90654C7.92499 8.91326 7.93862 8.92646 7.946 8.94346C7.95338 8.96055 7.95382 8.98015 7.94741 8.99766L7.73898 9.57715C7.73258 9.59502 7.72233 9.61135 7.70908 9.62461C7.69584 9.63786 7.67978 9.64782 7.66226 9.65391C7.64473 9.65999 7.62597 9.66203 7.60754 9.65977C7.58915 9.65749 7.57139 9.65089 7.55565 9.64072C7.43511 9.56315 7.29897 9.50546 7.14753 9.46787C7.14427 9.46669 7.14064 9.46666 7.13738 9.46787C7.1341 9.46909 7.13127 9.47151 7.12948 9.47461C7.12769 9.47774 7.12695 9.48156 7.12751 9.48516C7.12806 9.48875 7.12994 9.49214 7.13258 9.49453L7.38868 9.75967C7.40481 9.77585 7.42644 9.78485 7.44875 9.78486C7.47108 9.78486 7.49255 9.77586 7.50827 9.75967L7.54296 9.72363C7.55504 9.71107 7.57049 9.70226 7.58752 9.69844C7.60453 9.69462 7.62244 9.69587 7.63913 9.70195L8.51657 10.0415C8.5381 10.0497 8.56201 10.0488 8.58285 10.0389C8.60368 10.029 8.6199 10.011 8.62798 9.98877L8.7219 9.73066C8.72461 9.72284 8.72891 9.71574 8.73431 9.70957C8.73973 9.70339 8.74619 9.6982 8.75348 9.69463C8.7608 9.69107 8.76882 9.68916 8.77689 9.68877C8.78493 9.68839 8.79302 9.68946 8.80059 9.69229L9.2668 9.87363C9.27894 9.87816 9.28993 9.88548 9.29896 9.89502C9.30801 9.90459 9.31486 9.91631 9.31898 9.929C9.32306 9.94163 9.32453 9.95505 9.32293 9.96826C9.32131 9.9815 9.31669 9.99427 9.30967 10.0055C9.26254 10.0815 9.22915 10.164 9.20983 10.2527C9.20813 10.2614 9.20948 10.2705 9.2135 10.2782C9.21753 10.2859 9.22402 10.292 9.23183 10.2949L9.66674 10.4628C9.67358 10.4655 9.67958 10.4701 9.68451 10.4757C9.68946 10.4813 9.6933 10.488 9.69523 10.4953C9.69712 10.5025 9.69728 10.5101 9.69579 10.5173C9.69427 10.5246 9.69109 10.5315 9.68648 10.5372C9.63007 10.6068 9.58795 10.724 9.56013 10.8888C9.55834 10.8983 9.55432 10.9073 9.54885 10.9151C9.54338 10.923 9.5364 10.9297 9.52826 10.9345C9.52012 10.9392 9.51106 10.9421 9.50175 10.943C9.49241 10.9438 9.48291 10.9425 9.4741 10.9392L9.10547 10.7965C9.09802 10.7937 9.09129 10.7891 9.08545 10.7836C9.0796 10.778 9.07469 10.7714 9.07135 10.764C9.06802 10.7565 9.06631 10.7484 9.06599 10.7402C9.06568 10.732 9.06688 10.7236 9.06966 10.7159L9.10209 10.626C9.1096 10.6055 9.10998 10.5829 9.10322 10.5621C9.09646 10.5414 9.08305 10.5236 9.06514 10.512C8.95 10.4368 8.85361 10.4376 8.77633 10.5144C8.76161 10.5284 8.7439 10.5388 8.72472 10.5442C8.70559 10.5496 8.68553 10.5501 8.66633 10.5457L8.63023 10.5384C8.61298 10.5346 8.59504 10.5363 8.5789 10.5434C8.56275 10.5504 8.54914 10.5626 8.53998 10.5779C8.43642 10.7491 8.43437 10.898 8.53406 11.0244C8.54052 11.0327 8.54491 11.0426 8.54647 11.0531C8.548 11.0636 8.54682 11.0743 8.54308 11.0842C8.53931 11.0941 8.53282 11.1028 8.52475 11.1094C8.51672 11.1159 8.50721 11.1202 8.49711 11.1217C8.44919 11.1281 8.3918 11.1591 8.32534 11.2151C8.30701 11.2305 8.28499 11.2406 8.2616 11.2444C8.23827 11.2482 8.21436 11.2456 8.19222 11.2368L7.72713 11.0569C7.7199 11.0542 7.71224 11.0528 7.70457 11.0534C7.69683 11.054 7.68909 11.0566 7.68229 11.0604C7.67554 11.0643 7.66971 11.0696 7.66508 11.076C7.66043 11.0824 7.65717 11.0898 7.65549 11.0977L7.61008 11.3112C7.60784 11.3224 7.6034 11.3329 7.59683 11.342C7.59024 11.3511 7.58169 11.3586 7.57201 11.364C7.56228 11.3693 7.55143 11.3724 7.54042 11.373C7.52942 11.3737 7.51848 11.3718 7.50827 11.3675C7.43951 11.3395 7.36181 11.3461 7.2753 11.3868C7.2626 11.393 7.24796 11.3944 7.2344 11.3906C7.22088 11.3868 7.20905 11.378 7.20112 11.366C7.19324 11.3541 7.18984 11.3397 7.19125 11.3253C7.1927 11.3109 7.19889 11.2972 7.20902 11.2872L7.4434 11.0449C7.45621 11.0315 7.46452 11.014 7.46737 10.9954C7.47018 10.9768 7.46737 10.9577 7.45919 10.9409C7.45099 10.9241 7.43782 10.9104 7.42168 10.9017C7.40552 10.8929 7.38697 10.8896 7.36894 10.8923C7.12867 10.9291 6.91511 10.8947 6.72813 10.7892C6.7199 10.7846 6.71008 10.7835 6.70106 10.7859C6.6921 10.7884 6.68435 10.7943 6.67934 10.8023C6.66311 10.8295 6.67007 10.8565 6.70021 10.8829C6.80762 10.9789 6.93956 11.0297 7.09564 11.0353C7.10706 11.0359 7.11813 11.0394 7.12807 11.0452C7.13805 11.0511 7.14657 11.0591 7.15289 11.0689C7.15919 11.0787 7.16314 11.0899 7.16445 11.1015C7.16575 11.1131 7.16452 11.1251 7.16051 11.136L7.03048 11.4949C7.02269 11.5168 7.00787 11.5353 6.98846 11.5471C6.96902 11.5589 6.94613 11.5633 6.92387 11.5597C6.77169 11.5341 6.64034 11.4665 6.52986 11.3569C6.45568 11.2833 6.38498 11.2629 6.31776 11.2957C6.29952 11.3044 6.28507 11.3189 6.27658 11.3373C6.26811 11.3557 6.26598 11.3771 6.27066 11.3979C6.27535 11.4188 6.28655 11.4383 6.30253 11.4533C6.31851 11.4684 6.33854 11.4784 6.3595 11.4817C6.46299 11.4986 6.52714 11.5376 6.55186 11.5992C6.55783 11.6139 6.55853 11.6299 6.55411 11.6455C6.54968 11.6611 6.54021 11.6761 6.52647 11.6889C6.51271 11.7017 6.49496 11.7121 6.47514 11.719C6.45536 11.726 6.43394 11.7292 6.41281 11.7287C5.4082 11.7063 4.5198 11.7004 3.74779 11.7108C3.73088 11.7108 3.71462 11.7178 3.70266 11.7302C3.69071 11.7425 3.68406 11.7593 3.68405 11.7768V16.0307C3.68404 16.0444 3.68916 16.0577 3.69843 16.0676C3.70773 16.0774 3.72039 16.0834 3.73368 16.0837C4.79243 16.1181 5.74824 16.1009 6.60065 16.0321C6.84174 16.0129 7.13533 15.9443 7.48147 15.8268C7.54014 15.8067 7.58886 15.7642 7.61713 15.7081L7.67157 15.6012C7.67634 15.5915 7.68299 15.5827 7.69103 15.5757C7.69905 15.5687 7.70837 15.5634 7.71839 15.5602C7.7284 15.5569 7.73898 15.5559 7.74941 15.5569C7.75984 15.558 7.77009 15.5612 7.77931 15.5663C7.94545 15.6583 8.06763 15.6112 8.14568 15.4248C8.1493 15.4164 8.15522 15.4092 8.16261 15.404C8.17007 15.3988 8.17901 15.3958 8.18799 15.3955C8.19692 15.3953 8.20568 15.3978 8.21337 15.4025C8.22109 15.4073 8.22734 15.4142 8.23142 15.4225C8.28861 15.5409 8.24926 15.6416 8.11325 15.7248C8.1023 15.7313 8.09262 15.7401 8.08504 15.7509C8.07748 15.7616 8.07217 15.774 8.06925 15.7872L7.96376 16.2888C7.95979 16.3081 7.96042 16.3282 7.96546 16.3474C7.9705 16.3665 7.97988 16.3843 7.99282 16.3992L8.02638 16.4221C8.03281 16.4265 8.04015 16.4295 8.04781 16.4306C8.05553 16.4316 8.06356 16.4308 8.07094 16.4282C8.0783 16.4257 8.08488 16.4213 8.0904 16.4156C8.09592 16.41 8.10023 16.4033 8.10281 16.3957L8.3417 15.7333C8.34517 15.7236 8.35042 15.7146 8.35721 15.7069C8.36406 15.6993 8.37232 15.6928 8.38147 15.6885C8.39059 15.6841 8.4005 15.6818 8.41052 15.6814C8.42057 15.6811 8.43071 15.6828 8.44014 15.6864L9.16358 15.9659C9.18246 15.9731 9.1989 15.986 9.21068 16.0028C9.22245 16.0197 9.22895 16.04 9.22957 16.0608C9.23499 16.1984 9.31342 16.2813 9.4648 16.3093C9.48285 16.3127 9.49983 16.321 9.51359 16.3336C9.52736 16.3462 9.53771 16.3626 9.54321 16.3808C9.54867 16.3989 9.54925 16.4183 9.5449 16.4367C9.54053 16.4552 9.53134 16.4722 9.51839 16.4856L9.43603 16.5721C9.42469 16.5838 9.41054 16.5924 9.39513 16.597C9.37975 16.6016 9.36337 16.6021 9.34775 16.5984L9.14496 16.5527C9.12398 16.5481 9.10219 16.5516 9.08348 16.5621C9.06474 16.5727 9.05016 16.5898 9.04286 16.6105L8.95825 16.8445C8.95052 16.8651 8.93662 16.8827 8.91848 16.8943C8.9003 16.906 8.87887 16.9113 8.85756 16.9093C8.81583 16.9053 8.78174 16.9068 8.75546 16.914C8.71996 16.9236 8.69341 16.9496 8.67564 16.9919C8.62077 17.1207 8.5881 17.1936 8.57805 17.2104C8.56783 17.2265 8.55246 17.2383 8.53462 17.2436C8.51675 17.2488 8.49762 17.2472 8.48075 17.2392C8.39423 17.1976 8.31967 17.1749 8.25709 17.1709C8.24266 17.1695 8.22811 17.1732 8.21619 17.1817C8.20425 17.1903 8.19569 17.2032 8.19194 17.2178C8.18821 17.2323 8.18945 17.2476 8.1956 17.2611C8.20181 17.2747 8.21255 17.2857 8.22578 17.2919L8.39388 17.3783C8.40683 17.3848 8.41701 17.3963 8.42237 17.4103C8.42765 17.4241 8.42789 17.4397 8.42293 17.4539L8.33352 17.7C8.33028 17.7093 8.32504 17.7176 8.31829 17.7246C8.31153 17.7316 8.30335 17.737 8.29432 17.7404C8.28533 17.7438 8.27572 17.7453 8.26612 17.7445C8.25647 17.7438 8.24698 17.7409 8.23847 17.736L8.04387 17.6244C8.03152 17.6171 8.02195 17.6054 8.01707 17.5916C8.01221 17.5778 8.01219 17.5626 8.01707 17.5488L8.12143 17.2608C8.12365 17.2546 8.12365 17.2477 8.12143 17.2415C8.10981 17.2056 8.07499 17.1941 8.01707 17.2069C8.00482 17.2095 7.99412 17.217 7.98717 17.2277C7.98024 17.2385 7.97747 17.2517 7.97984 17.2644C8.00147 17.3795 7.99968 17.5011 7.9742 17.6291C7.96988 17.65 7.97209 17.6719 7.98041 17.6915C7.98871 17.7111 8.00267 17.7275 8.02046 17.7384C8.03899 17.7504 8.07074 17.7588 8.1155 17.7636C8.15724 17.7684 8.18785 17.7844 8.20717 17.8116C8.24658 17.8668 8.26292 17.9457 8.25596 18.048C8.25456 18.0669 8.24651 18.0845 8.23368 18.0976C8.22084 18.1106 8.204 18.1184 8.1863 18.1189C7.90237 18.1274 7.93134 18.535 8.02751 18.7307C8.03974 18.7556 8.04568 18.7835 8.04499 18.8115C8.04429 18.8395 8.03701 18.867 8.02356 18.8912C8.01008 18.9154 7.99096 18.9359 7.968 18.9504C7.94501 18.9649 7.91874 18.9731 7.89184 18.9744C7.42004 18.9996 6.71635 19.0752 6.16574 19.0752C4.33188 19.076 2.2955 19.0771 0.0566906 19.0787C0.0416433 19.0787 0.0272815 19.0724 0.0166405 19.0611C0.00602823 19.0499 3.58807e-05 19.0348 0 19.0189V1.86709C2.74225e-05 1.85441 0.00482051 1.84237 0.013256 1.8334C0.0217298 1.8244 0.0331437 1.81934 0.0451269 1.81934ZM6.61278 10.1827C6.58769 10.1897 6.56317 10.202 6.54058 10.2188C6.518 10.2355 6.49771 10.2563 6.48106 10.2803L6.47063 10.2949C6.46662 10.3011 6.46512 10.3087 6.4664 10.316C6.4677 10.3234 6.47176 10.3301 6.47768 10.3345L6.74421 10.5349C6.75023 10.5391 6.75765 10.5406 6.7648 10.5393C6.77195 10.5379 6.77836 10.5337 6.78257 10.5275L6.793 10.5132C6.82652 10.4651 6.84377 10.4078 6.84095 10.3538C6.8381 10.2999 6.81529 10.2537 6.77777 10.2252L6.75126 10.2047C6.73247 10.1907 6.71042 10.1815 6.68667 10.1777C6.66295 10.174 6.63783 10.1757 6.61278 10.1827ZM7.32014 10.0755C7.29351 10.0641 7.26043 10.0719 7.2282 10.0972C7.19589 10.1225 7.16684 10.1633 7.14781 10.2105C7.1288 10.2578 7.12126 10.3078 7.12666 10.3494C7.13208 10.391 7.15019 10.4208 7.17687 10.4323C7.20353 10.4438 7.23652 10.4359 7.26881 10.4106C7.30113 10.3853 7.33017 10.3446 7.34919 10.2973C7.36819 10.25 7.37576 10.1999 7.37035 10.1584C7.36491 10.1169 7.3468 10.087 7.32014 10.0755Z" fill="white"/>
<path d="M87.2669 5.66895C87.2944 5.66897 87.3168 5.69202 87.3168 5.72051V19.0213C87.3168 19.0497 87.2944 19.0728 87.2669 19.0729H83.8937C83.8662 19.0729 83.8438 19.0497 83.8438 19.0213V5.72051C83.8438 5.69201 83.8661 5.66895 83.8937 5.66895H87.2669Z" fill="white"/>
<path d="M70.9425 18.411C70.9872 18.4025 71.0302 18.433 71.0384 18.4793L71.1092 18.8783C71.1174 18.9245 71.0879 18.9688 71.0432 18.9773L70.6577 19.0506C70.613 19.059 70.5703 19.0285 70.5621 18.9823L70.4913 18.5833C70.4831 18.537 70.5126 18.4928 70.5573 18.4843L70.9425 18.411Z" fill="white"/>
<path d="M9.1427 18.7559C9.15252 18.7581 9.16168 18.763 9.16922 18.7699C9.17674 18.7768 9.18247 18.7855 9.18557 18.7951C9.18867 18.8047 9.18894 18.8151 9.1867 18.8247C9.18446 18.8342 9.17976 18.8429 9.17288 18.8496C9.15821 18.864 9.13344 18.8592 9.09871 18.8353C9.07322 18.8177 9.06842 18.7976 9.0846 18.7752C9.09774 18.7568 9.1172 18.7503 9.1427 18.7559Z" fill="white"/>
<path d="M68.693 18.1919C68.796 18.1928 68.8791 18.2711 68.8783 18.3665C68.8775 18.4619 68.7932 18.5385 68.6901 18.5376C68.5871 18.5367 68.504 18.4584 68.5048 18.363C68.5057 18.2676 68.59 18.191 68.693 18.1919Z" fill="white"/>
<path d="M8.90297 17.1551C8.91621 17.1164 8.95724 17.096 8.99463 17.1097L9.87545 17.4325C9.91287 17.4462 9.93242 17.489 9.91917 17.5277L9.60723 18.4395C9.59393 18.4781 9.55294 18.4983 9.51556 18.4846L8.63474 18.1617C8.59738 18.148 8.57779 18.1055 8.59103 18.0668L8.90297 17.1551Z" fill="white"/>
<path d="M70.3133 18.0466C70.3665 18.0293 70.423 18.0601 70.4397 18.1151L70.4938 18.2938C70.5104 18.3488 70.4809 18.4073 70.4278 18.4245L70.253 18.4813C70.1998 18.4985 70.1432 18.4678 70.1266 18.4128L70.0724 18.2344C70.0558 18.1794 70.0856 18.1207 70.1387 18.1034L70.3133 18.0466Z" fill="white"/>
<path d="M8.17445 18.2824C8.24707 18.2894 8.30205 18.3396 8.29714 18.3943C8.29217 18.449 8.22927 18.4877 8.15668 18.4808C8.08401 18.4738 8.02909 18.4236 8.03399 18.3688C8.03899 18.3141 8.10183 18.2754 8.17445 18.2824Z" fill="white"/>
<path d="M69.7859 18.0973C69.7998 18.1007 69.8121 18.1085 69.8214 18.1201C69.8308 18.1318 69.8369 18.1469 69.8395 18.1641C69.8421 18.1812 69.8411 18.1999 69.8364 18.2186C69.8317 18.2372 69.8236 18.2554 69.8127 18.2713C69.7841 18.3121 69.7518 18.3249 69.7162 18.3097C69.6976 18.3017 69.6809 18.2887 69.668 18.2725C69.6551 18.2562 69.6466 18.2372 69.6435 18.2177C69.6403 18.1982 69.6426 18.1789 69.6502 18.1623C69.6578 18.1457 69.6703 18.1322 69.6863 18.1236C69.7296 18.1005 69.7627 18.0917 69.7859 18.0973Z" fill="white"/>
<path d="M10.5179 17.8441L10.6045 17.8711C10.6634 17.8894 10.6967 17.9537 10.679 18.0146L10.6418 18.1433C10.6241 18.2042 10.5621 18.2388 10.5033 18.2206L10.4167 18.1937C10.3578 18.1754 10.3243 18.111 10.342 18.0501L10.3792 17.9215C10.3968 17.8605 10.4591 17.8259 10.5179 17.8441Z" fill="white"/>
<path d="M66.9587 17.8441C67.0387 17.8442 67.1034 17.9113 67.1034 17.9941C67.1033 18.0769 67.0386 18.1441 66.9587 18.1441C66.8787 18.1441 66.8138 18.0769 66.8137 17.9941C66.8137 17.9113 66.8787 17.8441 66.9587 17.8441Z" fill="white"/>
<path d="M70.7209 17.855C70.7386 17.8613 70.7543 17.8725 70.7665 17.8872C70.8914 18.038 70.9526 18.1176 70.9499 18.126C70.946 18.1332 70.8478 18.1309 70.6554 18.1189C70.6367 18.1176 70.6185 18.1109 70.603 18.0999C70.5876 18.089 70.5751 18.074 70.5671 18.0565C70.5432 18.0046 70.5401 17.96 70.5578 17.9232C70.5748 17.8864 70.611 17.8624 70.6659 17.8512C70.6842 17.8474 70.7032 17.8487 70.7209 17.855Z" fill="white"/>
<path d="M68.4817 17.2928C68.5532 17.2749 68.6252 17.3204 68.6425 17.3944L68.7003 17.6417C68.7176 17.7158 68.6737 17.7905 68.6021 17.8084L68.3475 17.872C68.2759 17.8899 68.2037 17.8444 68.1864 17.7703L68.1289 17.523C68.1116 17.449 68.1555 17.3746 68.227 17.3566L68.4817 17.2928Z" fill="white"/>
<path d="M72.0761 17.4694C72.1365 17.4762 72.1774 17.5596 72.1675 17.6558C72.1575 17.752 72.1004 17.8245 72.04 17.8178C71.9795 17.8111 71.9387 17.7277 71.9486 17.6314C71.9585 17.5353 72.0156 17.4627 72.0761 17.4694Z" fill="white"/>
<path d="M70.1624 16.9078C70.2004 16.8985 70.2385 16.9227 70.2476 16.962L70.3889 17.5761C70.3979 17.6154 70.3744 17.6549 70.3364 17.6643L69.7433 17.8104C69.7053 17.8198 69.6672 17.7956 69.6581 17.7563L69.5168 17.1422C69.5078 17.1029 69.5313 17.0634 69.5693 17.054L70.1624 16.9078Z" fill="white"/>
<path d="M65.5617 16.6225C65.6071 16.6008 65.6609 16.6212 65.6819 16.6682L65.9084 17.1756C65.9293 17.2225 65.9096 17.2781 65.8644 17.2998L65.3739 17.5345C65.3286 17.5562 65.2747 17.5357 65.2537 17.4888L65.0273 16.9811C65.0064 16.9341 65.0262 16.8785 65.0715 16.8568L65.5617 16.6225Z" fill="white"/>
<path d="M10.5851 16.8606C10.5997 16.8147 10.6476 16.7896 10.692 16.8047L11.062 16.9307C11.1064 16.9458 11.1305 16.9952 11.1159 17.0411L10.9901 17.4378C10.9755 17.4837 10.9276 17.5089 10.8832 17.4938L10.5132 17.3678C10.4688 17.3527 10.4447 17.3033 10.4593 17.2573L10.5851 16.8606Z" fill="white"/>
<path d="M67.3121 15.8268C67.3634 15.7872 67.436 15.7983 67.4743 15.8514L68.0702 16.6787C68.1085 16.7318 68.0979 16.8073 68.0465 16.8469L67.2472 17.4636C67.1959 17.5032 67.1233 17.4921 67.085 17.439L66.4891 16.6116C66.4509 16.5585 66.4615 16.4834 66.5128 16.4438L67.3121 15.8268Z" fill="white"/>
<path d="M70.8754 16.7909C70.9142 16.7773 70.9564 16.7986 70.9696 16.8387L71.0466 17.0728C71.0598 17.1129 71.0391 17.1566 71.0004 17.1703L70.7852 17.2459C70.7464 17.2596 70.7042 17.2383 70.691 17.1981L70.614 16.9641C70.6008 16.9239 70.6217 16.8802 70.6605 16.8665L70.8754 16.7909Z" fill="white"/>
<path d="M9.94145 16.5996L9.96232 16.6043C9.99716 16.6132 10.024 16.6504 10.0368 16.7074C10.0496 16.7646 10.0473 16.8373 10.0306 16.9093L10.0238 16.938C10.0208 16.9508 10.0129 16.9618 10.0021 16.9688C9.99125 16.9757 9.97815 16.9781 9.96571 16.9752L9.77561 16.9283C9.76323 16.9252 9.75243 16.9173 9.74571 16.9061C9.73899 16.8948 9.73699 16.8811 9.73979 16.8683L9.74656 16.8384C9.76329 16.7664 9.79328 16.7009 9.82976 16.6562C9.86627 16.6114 9.90651 16.591 9.94145 16.5996Z" fill="white"/>
<path d="M11.3111 15.9688C11.3255 15.9314 11.3668 15.9132 11.403 15.9281L11.8574 16.1162C11.8936 16.1312 11.9111 16.1739 11.8966 16.2114L11.7107 16.6928C11.6962 16.7303 11.655 16.7485 11.6188 16.7335L11.1647 16.5454C11.1284 16.5304 11.1107 16.4877 11.1252 16.4502L11.3111 15.9688Z" fill="white"/>
<path d="M70.894 16.5431C70.9196 16.5431 70.9405 16.5646 70.9406 16.5911C70.9406 16.6176 70.9196 16.6392 70.894 16.6392C70.8685 16.6391 70.8478 16.6176 70.8478 16.5911C70.8478 16.5647 70.8685 16.5431 70.894 16.5431Z" fill="white"/>
<path d="M70.5626 16.1616C70.6356 16.1617 70.6946 16.2229 70.6946 16.2984C70.6946 16.374 70.6356 16.4352 70.5626 16.4353C70.4897 16.4353 70.4304 16.374 70.4304 16.2984C70.4304 16.2229 70.4896 16.1616 70.5626 16.1616Z" fill="white"/>
<path d="M9.95978 15.3141C9.98496 15.3022 10.0137 15.301 10.0399 15.3108L10.6426 15.5435C10.6542 15.5481 10.665 15.5553 10.6739 15.5643C10.6828 15.5732 10.69 15.584 10.6948 15.5959C10.6995 15.6078 10.7017 15.6206 10.7016 15.6334C10.7014 15.6463 10.6987 15.6591 10.6937 15.6709C10.6226 15.8373 10.609 16.022 10.653 16.2252C10.6587 16.2514 10.6575 16.2788 10.6494 16.3043C10.6413 16.3298 10.6267 16.3526 10.6071 16.3702C10.5875 16.3878 10.5635 16.3995 10.538 16.4042C10.5124 16.4089 10.4861 16.4064 10.4618 16.3969L9.71412 16.1089C9.69713 16.1022 9.68335 16.0887 9.67577 16.0714C9.66822 16.0541 9.66737 16.0343 9.67351 16.0163L9.90535 15.3744C9.91492 15.3477 9.93459 15.326 9.95978 15.3141Z" fill="white"/>
<path d="M70.0882 15.7318C70.1323 15.7206 70.1769 15.7486 70.1878 15.7942L70.2665 16.1227C70.2774 16.1683 70.2502 16.2145 70.2061 16.2258L69.8753 16.3104C69.8312 16.3217 69.7867 16.294 69.7757 16.2483L69.6973 15.9199C69.6864 15.8742 69.7133 15.8278 69.7574 15.8165L70.0882 15.7318Z" fill="white"/>
<path d="M72.0919 15.9703C72.1376 15.976 72.1694 16.0268 72.1629 16.084C72.1564 16.1413 72.114 16.1833 72.0682 16.1777C72.0225 16.1722 71.9907 16.1213 71.9971 16.0641C72.0036 16.0068 72.0461 15.9647 72.0919 15.9703Z" fill="white"/>
<path d="M69.0661 15.8435C69.1047 15.8243 69.14 15.8323 69.1716 15.8675C69.2357 15.9403 69.2608 15.9972 69.2469 16.038C69.2322 16.0788 69.1772 16.1061 69.0822 16.1197C69.0366 16.1253 69.0049 16.1075 68.9871 16.0667C68.9733 16.0363 68.9757 15.995 68.9942 15.9431C69.0127 15.8903 69.0368 15.857 69.0661 15.8435Z" fill="white"/>
<path d="M12.1372 15.9469C12.1734 15.9386 12.2083 15.9582 12.2153 15.9905C12.2222 16.0229 12.1985 16.0557 12.1623 16.0641C12.126 16.0724 12.0911 16.053 12.0841 16.0207C12.0772 15.9884 12.1009 15.9552 12.1372 15.9469Z" fill="white"/>
<path d="M11.0578 15.3407C11.0771 15.3296 11.0928 15.3317 11.1052 15.3469C11.1407 15.3885 11.1403 15.436 11.104 15.4896C11.094 15.504 11.0801 15.5087 11.0623 15.5039C11.0465 15.5001 11.0329 15.4913 11.0231 15.4784C11.0132 15.4655 11.0075 15.4491 11.007 15.4315C11.0065 15.414 11.0113 15.3959 11.0203 15.3797C11.0293 15.3635 11.0424 15.3499 11.0578 15.3407Z" fill="white"/>
<path d="M69.03 13.9441C69.0588 13.921 69.1004 13.9264 69.1228 13.9562L69.7021 14.7237C69.7246 14.7535 69.7196 14.7966 69.6908 14.8198L68.9491 15.4198C68.9203 15.443 68.8787 15.4378 68.8563 15.4081L68.2767 14.6402C68.2542 14.6105 68.2595 14.5674 68.2882 14.5441L69.03 13.9441Z" fill="white"/>
<path d="M8.62121 15.3211C8.62912 15.3253 8.63577 15.332 8.6401 15.3404C8.64442 15.3489 8.64645 15.3587 8.64574 15.3686C8.64502 15.3784 8.6417 15.3881 8.63616 15.3961C8.62225 15.4177 8.60313 15.4265 8.57918 15.4225C8.57186 15.4212 8.56485 15.4182 8.55888 15.4137C8.55288 15.4091 8.54799 15.4031 8.54477 15.3964C8.54156 15.3896 8.54019 15.3821 8.54054 15.3747C8.54089 15.3673 8.54291 15.3601 8.54675 15.3539C8.56143 15.3315 8.57777 15.3191 8.59554 15.3167C8.60439 15.3153 8.6133 15.3169 8.62121 15.3211Z" fill="white"/>
<path d="M9.04878 15.114C9.12817 15.114 9.19262 15.1806 9.19263 15.2628C9.19263 15.345 9.12817 15.4116 9.04878 15.4116C8.9694 15.4116 8.90494 15.345 8.90494 15.2628C8.90495 15.1806 8.9694 15.114 9.04878 15.114Z" fill="white"/>
<path d="M69.9909 15.2581C70.0223 15.2581 70.0479 15.2843 70.0479 15.3167C70.0479 15.3492 70.0223 15.3756 69.9909 15.3756C69.9596 15.3755 69.9342 15.3491 69.9342 15.3167C69.9343 15.2843 69.9597 15.2582 69.9909 15.2581Z" fill="white"/>
<path d="M72.0625 15.2622C72.0845 15.2474 72.1153 15.256 72.1314 15.2815C72.1474 15.3071 72.1426 15.3399 72.1206 15.3548C72.0987 15.3695 72.0679 15.3607 72.0518 15.3352C72.0358 15.3096 72.0406 15.277 72.0625 15.2622Z" fill="white"/>
<path d="M67.3259 14.741C67.3754 14.7304 67.4239 14.7634 67.4342 14.8146L67.4971 15.1295C67.5074 15.1808 67.4756 15.2311 67.426 15.2417L67.1104 15.3094C67.061 15.3199 67.0127 15.287 67.0024 15.2358L66.9392 14.9209C66.929 14.8697 66.9608 14.8193 67.0103 14.8087L67.3259 14.741Z" fill="white"/>
<path d="M10.1973 14.8723L10.3168 14.9013C10.3735 14.9152 10.4087 14.9741 10.3953 15.0328L10.3713 15.138C10.3579 15.1966 10.301 15.2329 10.2444 15.2191L10.1248 15.1898C10.0681 15.176 10.033 15.117 10.0464 15.0583L10.0703 14.9534C10.0837 14.8947 10.1406 14.8584 10.1973 14.8723Z" fill="white"/>
<path d="M71.8905 15.0296C71.9165 15.0202 71.9519 15.0547 71.9695 15.1066C71.987 15.1585 71.9801 15.2082 71.9542 15.2177C71.9283 15.2271 71.8928 15.1925 71.8753 15.1406C71.8577 15.0887 71.8645 15.039 71.8905 15.0296Z" fill="white"/>
<path d="M11.9513 14.7463L12.1324 14.7879C12.1849 14.7999 12.2182 14.8537 12.2065 14.908L12.1673 15.0908C12.1557 15.1451 12.1036 15.1793 12.0511 15.1673L11.8701 15.1257C11.8176 15.1136 11.7845 15.0599 11.7962 15.0056L11.8354 14.8228C11.847 14.7685 11.8988 14.7343 11.9513 14.7463Z" fill="white"/>
<path d="M70.7677 14.8907C70.8743 14.8435 70.9412 14.8329 70.9682 14.8585C70.9953 14.8841 70.9914 14.9535 70.9566 15.0671C70.9525 15.0804 70.9452 15.0926 70.9355 15.1022C70.9258 15.1119 70.914 15.1189 70.9011 15.1225C70.8524 15.1361 70.8079 15.124 70.7677 15.0864C70.7283 15.0488 70.7129 15.0039 70.7214 14.952C70.7237 14.9387 70.7291 14.9263 70.7372 14.9156C70.7453 14.905 70.7557 14.8963 70.7677 14.8907Z" fill="white"/>
<path d="M66.3407 14.7349C66.4143 14.7349 66.4741 14.7966 66.4741 14.8729C66.4741 14.949 66.4143 15.0108 66.3407 15.0108C66.2671 15.0108 66.2074 14.949 66.2073 14.8729C66.2073 14.7966 66.2671 14.7349 66.3407 14.7349Z" fill="white"/>
<path d="M8.79071 14.741C8.86133 14.7535 8.91175 14.8055 8.90325 14.857C8.89473 14.9086 8.83037 14.9404 8.75969 14.9279C8.68905 14.9154 8.63864 14.8632 8.64715 14.8116C8.65576 14.7601 8.72009 14.7285 8.79071 14.741Z" fill="white"/>
<path d="M63.7787 13.6553C63.812 13.6205 63.8663 13.6204 63.8999 13.655L64.4381 14.2078C64.4716 14.2424 64.4717 14.2987 64.4384 14.3335L63.9042 14.8904C63.8708 14.9252 63.8165 14.9253 63.7829 14.8907L63.245 14.3379C63.2114 14.3033 63.2111 14.247 63.2445 14.2122L63.7787 13.6553Z" fill="white"/>
<path d="M9.38244 13.5305C9.39471 13.4942 9.43314 13.475 9.46818 13.4877L10.3654 13.8129C10.4003 13.8256 10.4188 13.8654 10.4065 13.9017L10.0923 14.8304C10.0801 14.8666 10.0416 14.8858 10.0066 14.8731L9.10942 14.5479C9.0744 14.5352 9.056 14.4954 9.06824 14.4592L9.38244 13.5305Z" fill="white"/>
<path d="M70.3133 14.6065C70.385 14.6065 70.443 14.6665 70.443 14.7407C70.443 14.8149 70.385 14.8752 70.3133 14.8752C70.2416 14.8752 70.1836 14.8149 70.1836 14.7407C70.1836 14.6665 70.2416 14.6066 70.3133 14.6065Z" fill="white"/>
<path d="M11.1224 14.1138L11.1996 14.139C11.2534 14.1564 11.2833 14.2155 11.2665 14.2711L11.2231 14.4155C11.2062 14.4712 11.1488 14.5021 11.095 14.4847L11.0177 14.4595C10.964 14.442 10.9341 14.383 10.9509 14.3273L10.9946 14.1829C11.0115 14.1273 11.0686 14.0963 11.1224 14.1138Z" fill="white"/>
<path d="M11.6049 14.1612C11.6741 14.1012 11.7686 14.0996 11.8159 14.158C11.8632 14.2164 11.8455 14.3124 11.7764 14.3725C11.7073 14.4325 11.6128 14.434 11.5655 14.3757C11.5181 14.3173 11.5358 14.2213 11.6049 14.1612Z" fill="white"/>
<path d="M70.2064 13.7991C70.2543 13.787 70.3026 13.8173 70.3144 13.8668L70.3903 14.1861C70.4021 14.2357 70.3727 14.2859 70.3249 14.298L70.005 14.3792C69.9572 14.3913 69.909 14.361 69.8973 14.3115L69.8214 13.9922C69.8097 13.9426 69.839 13.8927 69.8869 13.8806L70.2064 13.7991Z" fill="white"/>
<path d="M8.71964 14.2321C8.75862 14.2322 8.79009 14.2647 8.79015 14.3051C8.79015 14.3455 8.75866 14.3783 8.71964 14.3783C8.68059 14.3783 8.64885 14.3455 8.64885 14.3051C8.64891 14.2647 8.68063 14.2321 8.71964 14.2321Z" fill="white"/>
<path d="M70.5381 14.0569C70.5814 14.0481 70.6089 14.08 70.6205 14.1527C70.6222 14.1654 70.6201 14.1784 70.6145 14.1899C70.6089 14.2015 70.6001 14.2111 70.5891 14.2175C70.5096 14.2607 70.4639 14.2775 70.4524 14.2679C70.4357 14.254 70.4245 14.2353 70.4199 14.214C70.4153 14.1926 70.4175 14.1696 70.4264 14.1475C70.4354 14.1253 70.4509 14.1049 70.4707 14.0889C70.4904 14.0729 70.5138 14.0619 70.5381 14.0569Z" fill="white"/>
<path d="M8.59159 13.4766C8.60574 13.4368 8.64847 13.4165 8.68692 13.4312L9.0265 13.5604C9.06483 13.575 9.08453 13.6191 9.0705 13.6588L8.94697 14.0057C8.93283 14.0455 8.89036 14.066 8.85192 14.0514L8.51234 13.9222C8.47392 13.9075 8.4542 13.8632 8.46834 13.8234L8.59159 13.4766Z" fill="white"/>
<path d="M10.8271 13.8097C10.8591 13.8097 10.8849 13.8366 10.8849 13.8697C10.8848 13.9028 10.859 13.9295 10.8271 13.9295C10.7951 13.9295 10.769 13.9028 10.769 13.8697C10.769 13.8366 10.7951 13.8097 10.8271 13.8097Z" fill="white"/>
<path d="M66.7362 12.1377C66.7695 12.1119 66.8167 12.1187 66.8416 12.1532L67.4748 13.0298C67.4997 13.0643 67.4929 13.113 67.4596 13.1388L66.6132 13.7944C66.5799 13.8202 66.5326 13.8131 66.5077 13.7786L65.8742 12.9023C65.8493 12.8679 65.8562 12.8189 65.8895 12.7931L66.7362 12.1377Z" fill="white"/>
<path d="M11.7849 12.9103C11.7974 12.8713 11.838 12.8502 11.8757 12.8631L12.2849 13.0031C12.3226 13.016 12.3431 13.0582 12.3306 13.0972L12.1947 13.5234C12.1822 13.5624 12.1415 13.5834 12.1039 13.5706L11.6943 13.4303C11.6567 13.4174 11.6363 13.3755 11.6487 13.3365L11.7849 12.9103Z" fill="white"/>
<path d="M70.4583 11.9689C70.4782 11.969 70.4975 11.9769 70.5116 11.9915C70.5257 12.0061 70.5336 12.0262 70.5336 12.0469V12.7008C70.5336 12.7214 70.5257 12.7412 70.5116 12.7559C70.4975 12.7705 70.4782 12.7787 70.4583 12.7787H70.0479C70.0279 12.7787 70.0087 12.787 69.9946 12.8016C69.9805 12.8162 69.9726 12.8362 69.9726 12.8569V13.3919C69.9726 13.4126 69.9644 13.4326 69.9503 13.4473C69.9362 13.4618 69.9172 13.4701 69.8973 13.4701H69.4046C69.3846 13.4701 69.3654 13.4619 69.3513 13.4473C69.3371 13.4326 69.3293 13.4126 69.3293 13.3919V12.864C69.3293 12.8433 69.3371 12.8235 69.3513 12.8089C69.3654 12.7943 69.3846 12.786 69.4046 12.786H69.7893C69.8092 12.786 69.8285 12.7778 69.8426 12.7632C69.8567 12.7486 69.8648 12.7288 69.8649 12.7081V12.0469C69.8649 12.0262 69.8727 12.0061 69.8869 11.9915C69.901 11.9769 69.9202 11.9689 69.9402 11.9689H70.4583Z" fill="white"/>
<path d="M68.9141 13.1388C68.9968 13.0708 69.0611 13.0872 69.1067 13.188C69.1531 13.2896 69.1246 13.3516 69.0218 13.374C68.9315 13.394 68.8729 13.3747 68.8458 13.3163C68.8188 13.2571 68.8415 13.1979 68.9141 13.1388Z" fill="white"/>
<path d="M70.2166 13.2223C70.2519 13.2286 70.2766 13.2571 70.2719 13.2858C70.2671 13.3146 70.2344 13.3329 70.1991 13.3266C70.1638 13.3202 70.139 13.2917 70.1438 13.263C70.1486 13.2343 70.1812 13.2159 70.2166 13.2223Z" fill="white"/>
<path d="M9.68761 12.5903C9.70026 12.5535 9.73947 12.5342 9.77504 12.5473L10.1815 12.6964C10.217 12.7094 10.2357 12.7498 10.2232 12.7866L10.0768 13.2144C10.0642 13.2512 10.025 13.2705 9.9894 13.2574L9.58297 13.1083C9.54743 13.0952 9.52892 13.0549 9.54151 13.0181L9.68761 12.5903Z" fill="white"/>
<path d="M70.7307 12.924C70.8037 12.9241 70.8627 12.9853 70.8627 13.0608C70.8627 13.1363 70.8037 13.1976 70.7307 13.1977C70.6578 13.1977 70.5985 13.1364 70.5984 13.0608C70.5984 12.9853 70.6577 12.924 70.7307 12.924Z" fill="white"/>
<path d="M71.4406 12.4269C71.5046 12.413 71.5672 12.4556 71.5805 12.5218L71.6493 12.8625C71.6626 12.9286 71.6218 12.9934 71.558 13.0072L71.2424 13.0755C71.1784 13.0893 71.1158 13.0467 71.1025 12.9806L71.0336 12.6401C71.0203 12.574 71.0614 12.5089 71.1253 12.4951L71.4406 12.4269Z" fill="white"/>
<path d="M9.21321 12.8455C9.24633 12.8531 9.26557 12.8955 9.25609 12.9401C9.24658 12.9848 9.21193 13.0148 9.17881 13.0072C9.14568 12.9997 9.12645 12.9572 9.13593 12.9126C9.14546 12.868 9.18011 12.838 9.21321 12.8455Z" fill="white"/>
<path d="M8.58736 12.8112C8.60308 12.8088 8.61959 12.8119 8.6339 12.82C8.64818 12.8281 8.65954 12.8406 8.66577 12.8555C8.67199 12.8703 8.6728 12.8868 8.66803 12.9015C8.66325 12.9162 8.65307 12.9284 8.63954 12.936C8.61405 12.9512 8.58474 12.9535 8.55154 12.9431C8.51836 12.9327 8.50974 12.9081 8.52588 12.8689C8.54055 12.8338 8.56111 12.8144 8.58736 12.8112Z" fill="white"/>
<path d="M10.9292 12.5871C11.0216 12.5415 11.1292 12.5752 11.1695 12.6624C11.2097 12.7497 11.1674 12.8575 11.075 12.9032C10.9825 12.9489 10.8749 12.9152 10.8347 12.8279C10.7944 12.7406 10.8367 12.6328 10.9292 12.5871Z" fill="white"/>
<path d="M70.7702 12.646C70.7956 12.6491 70.8126 12.6839 70.808 12.7233C70.8035 12.7627 70.7792 12.792 70.7539 12.789C70.7284 12.7858 70.7112 12.7514 70.7158 12.7119C70.7203 12.6724 70.7448 12.6429 70.7702 12.646Z" fill="white"/>
<path d="M69.0534 11.2969C69.1007 11.285 69.1485 11.3148 69.16 11.3637L69.3687 12.2499C69.3802 12.2988 69.3511 12.3481 69.3039 12.3601L68.4479 12.576C68.4006 12.5879 68.3531 12.5578 68.3415 12.5089L68.1328 11.6229C68.1213 11.5741 68.1502 11.5248 68.1974 11.5128L69.0534 11.2969Z" fill="white"/>
<path d="M8.10366 11.6868C8.12227 11.6339 8.17888 11.6066 8.23001 11.6259L8.7092 11.8063C8.7603 11.8256 8.78669 11.8841 8.76815 11.937L8.59357 12.4333C8.57493 12.4862 8.51833 12.5135 8.46721 12.4942L7.98802 12.3138C7.93688 12.2945 7.91046 12.2357 7.92907 12.1828L8.10366 11.6868Z" fill="white"/>
<path d="M10.6849 10.9743C10.7173 10.959 10.7542 10.9577 10.7876 10.9705L11.4577 11.2295C11.4839 11.2396 11.5051 11.2604 11.5167 11.2869C11.5282 11.3135 11.5291 11.3439 11.5192 11.3713L11.2524 12.1116C11.2438 12.1352 11.2266 12.1544 11.2044 12.1649C11.1823 12.1755 11.1571 12.1764 11.1342 12.1679L10.3854 11.8787C10.3695 11.8726 10.352 11.8729 10.3363 11.8796C10.3206 11.8863 10.3079 11.8988 10.3008 11.9147C10.283 11.9563 10.2744 11.9987 10.2751 12.0419C10.2754 12.056 10.2725 12.07 10.2664 12.0826C10.2603 12.0952 10.2512 12.1061 10.2401 12.1143C10.2291 12.1224 10.2161 12.1276 10.2026 12.1295C10.1892 12.1313 10.1756 12.1297 10.1629 12.1248L9.8543 12.0059C9.84352 12.0016 9.83364 11.9953 9.82525 11.9871C9.81681 11.9789 9.80996 11.9688 9.80522 11.9578C9.8005 11.9468 9.79792 11.9348 9.79761 11.9227C9.79731 11.9106 9.79939 11.8985 9.80353 11.8872L9.92396 11.5523C9.93326 11.5269 9.95206 11.5064 9.97614 11.4952C10.0002 11.484 10.0277 11.4829 10.0526 11.4923L10.3205 11.5957C10.3319 11.6001 10.344 11.602 10.3561 11.6016C10.3682 11.6011 10.3803 11.5983 10.3913 11.5931C10.4024 11.5878 10.4126 11.5803 10.4209 11.5711C10.4292 11.5619 10.4356 11.551 10.4398 11.5392L10.615 11.052C10.6275 11.0175 10.6526 10.9896 10.6849 10.9743Z" fill="white"/>
<path d="M11.6038 11.7624C11.6997 11.7625 11.7775 11.843 11.7775 11.9423C11.7775 12.0417 11.6998 12.1224 11.6038 12.1225C11.5078 12.1225 11.4298 12.0417 11.4298 11.9423C11.4299 11.8429 11.5078 11.7624 11.6038 11.7624Z" fill="white"/>
<path d="M9.34126 11.6221C9.42368 11.6441 9.4697 11.7458 9.44393 11.8491C9.41813 11.9524 9.33032 12.0182 9.24791 11.9962C9.16547 11.9741 9.11943 11.8724 9.14524 11.7691C9.17108 11.6659 9.25885 11.6 9.34126 11.6221Z" fill="white"/>
<path d="M7.96659 11.8122C7.97355 11.8137 7.98009 11.8172 7.98548 11.8222C7.99086 11.8271 7.99498 11.8333 7.99733 11.8403C8.01353 11.8939 8.00819 11.9275 7.98125 11.9411C7.97158 11.9463 7.96057 11.9489 7.94966 11.9484C7.93878 11.948 7.92837 11.9446 7.91948 11.9388C7.91059 11.9329 7.90342 11.9249 7.89918 11.9153C7.89495 11.9058 7.89357 11.8952 7.89523 11.8849C7.89755 11.8697 7.90898 11.85 7.92907 11.826C7.93353 11.8204 7.9394 11.8161 7.946 11.8137C7.95256 11.8113 7.95969 11.8108 7.96659 11.8122Z" fill="white"/>
<path d="M6.95603 11.8002C6.97377 11.7576 7.03814 11.7454 7.09987 11.7729C7.16154 11.8005 7.19711 11.8572 7.1794 11.8998C7.16168 11.9424 7.0973 11.9546 7.03556 11.9271C6.97385 11.8995 6.9383 11.8428 6.95603 11.8002Z" fill="white"/>
<path d="M7.27868 11.5368C7.27956 11.5371 7.28488 11.5466 7.29476 11.5655C7.29935 11.5746 7.30699 11.5819 7.31619 11.586C7.32544 11.5902 7.33594 11.591 7.34581 11.5884C7.46482 11.5588 7.59636 11.5796 7.7401 11.6508C7.748 11.6546 7.75503 11.6604 7.76041 11.6675C7.76577 11.6746 7.76944 11.683 7.77113 11.6918C7.77282 11.7007 7.77237 11.71 7.77 11.7188C7.76762 11.7274 7.7632 11.7353 7.75731 11.7419C7.6213 11.8939 7.48307 11.9504 7.34242 11.9112C7.32095 11.905 7.30263 11.8904 7.29137 11.8705C7.28012 11.8506 7.27673 11.8267 7.28207 11.8043C7.29827 11.7331 7.28677 11.6579 7.24738 11.5787C7.24486 11.5739 7.24357 11.5686 7.24399 11.5632C7.24442 11.5578 7.24665 11.5526 7.24991 11.5482C7.25319 11.5438 7.2575 11.5403 7.26261 11.5383C7.26771 11.5363 7.27332 11.5358 7.27868 11.5368Z" fill="white"/>
<path d="M70.6182 11.5465C70.6905 11.5465 70.7491 11.6072 70.7491 11.6821C70.749 11.757 70.6905 11.8175 70.6182 11.8175C70.5459 11.8175 70.4874 11.757 70.4873 11.6821C70.4873 11.6072 70.5459 11.5465 70.6182 11.5465Z" fill="white"/>
<path d="M70.0519 10.9479C70.0801 10.923 70.1226 10.9266 70.1466 10.9559L70.4261 11.2957C70.4502 11.325 70.4468 11.3689 70.4185 11.3938L70.0973 11.6769C70.069 11.7018 70.0266 11.6982 70.0025 11.6689L69.723 11.3291C69.6989 11.2998 69.7023 11.2559 69.7306 11.231L70.0519 10.9479Z" fill="white"/>
<path d="M9.47072 11.1155C9.52384 11.1155 9.56686 11.1602 9.5669 11.2151C9.5669 11.2701 9.52386 11.3147 9.47072 11.3147C9.41759 11.3147 9.37454 11.2701 9.37454 11.2151C9.37458 11.1602 9.41761 11.1155 9.47072 11.1155Z" fill="white"/>
<path d="M69.3092 10.6204C69.3569 10.605 69.4077 10.6323 69.4226 10.6816L69.4821 10.8785C69.4971 10.9278 69.4706 10.9805 69.4229 10.996L69.2215 11.0613C69.1739 11.0767 69.1231 11.0491 69.1081 10.9998L69.0486 10.8029C69.0337 10.7536 69.0602 10.7012 69.1079 10.6857L69.3092 10.6204Z" fill="white"/>
<path d="M67.3612 10.4335C67.3786 10.3845 67.4311 10.3593 67.4785 10.3772L67.7941 10.4974C67.8416 10.5154 67.866 10.5701 67.8485 10.6192L67.7315 10.9479C67.714 10.9971 67.6613 11.0223 67.6139 11.0042L67.2986 10.8841C67.2511 10.866 67.2267 10.8116 67.2441 10.7625L67.3612 10.4335Z" fill="white"/>
<path d="M10.6849 10.6107C10.7158 10.6052 10.7479 10.6424 10.7566 10.6939C10.7652 10.7454 10.7473 10.7917 10.7165 10.7974C10.6856 10.8029 10.6533 10.7657 10.6446 10.7142C10.6359 10.6626 10.654 10.6163 10.6849 10.6107Z" fill="white"/>
<path d="M71.4742 9.28154C71.4901 9.28632 71.5046 9.29535 71.5165 9.30732L71.585 9.37793C71.6152 9.40912 71.6362 9.44866 71.6454 9.4916C71.6546 9.53451 71.6517 9.57931 71.6372 9.62051C71.5886 9.76368 71.5993 9.89404 71.6697 10.0116C71.6811 10.0303 71.6973 10.0455 71.7165 10.0553C71.7357 10.065 71.7572 10.0688 71.7785 10.0667C71.991 10.0443 72.1372 10.1652 72.2168 10.4291C72.2219 10.4466 72.2216 10.4655 72.216 10.4827C72.2104 10.4999 72.1997 10.5147 72.1855 10.5252C72.0657 10.6108 71.8972 10.6725 71.6801 10.7101C71.6629 10.7133 71.6451 10.7093 71.6304 10.6992C71.6159 10.6892 71.6053 10.6736 71.6011 10.6559L71.5456 10.4183C71.5383 10.3885 71.5202 10.363 71.4951 10.3471C71.4699 10.3311 71.4396 10.3261 71.411 10.3333L71.1896 10.3884C71.1794 10.3909 71.1689 10.3915 71.1586 10.3898C71.1482 10.3882 71.1382 10.3843 71.1293 10.3787C71.1204 10.3731 71.1125 10.366 71.1064 10.3573C71.1003 10.3487 71.0959 10.3387 71.0934 10.3283L70.9846 9.86279C70.9794 9.84055 70.983 9.81703 70.9947 9.79746C71.0065 9.77789 71.0254 9.76397 71.0472 9.7585L71.1687 9.72715C71.1848 9.72313 71.1999 9.71529 71.2122 9.704C71.2245 9.6927 71.2339 9.67832 71.2395 9.6624L71.3543 9.34307C71.3601 9.32723 71.3696 9.31309 71.382 9.30205C71.3944 9.29102 71.4093 9.28337 71.4254 9.27979C71.4415 9.27622 71.4583 9.2768 71.4742 9.28154Z" fill="white"/>
<path d="M9.86953 10.2706C9.88118 10.2363 9.91758 10.2182 9.95076 10.2302L10.1172 10.2905C10.1504 10.3026 10.168 10.3402 10.1564 10.3746L10.085 10.5853C10.0734 10.6197 10.037 10.6377 10.0038 10.6257L9.83738 10.5653C9.80422 10.5532 9.78683 10.5156 9.79845 10.4813L9.86953 10.2706Z" fill="white"/>
<path d="M9.66815 9.33076C9.68851 9.27788 9.7465 9.25207 9.79761 9.27305L10.2049 9.44092C10.256 9.462 10.281 9.52189 10.2607 9.57481L10.0985 9.99639C10.0782 10.0493 10.0202 10.0752 9.96909 10.0541L9.5621 9.88623C9.51095 9.86516 9.48591 9.8053 9.50626 9.75234L9.66815 9.33076Z" fill="white"/>
<path d="M66.4612 9.74648C66.5322 9.74648 66.59 9.80598 66.5901 9.87949C66.5901 9.95306 66.5322 10.0128 66.4612 10.0128C66.3901 10.0127 66.3326 9.95302 66.3326 9.87949C66.3326 9.80601 66.3902 9.74654 66.4612 9.74648Z" fill="white"/>
<path d="M71.9525 9.48955C71.9705 9.48197 71.9907 9.48193 72.0087 9.48955C72.0266 9.49717 72.041 9.51182 72.0487 9.53027L72.0986 9.65039C72.1091 9.67609 72.115 9.70349 72.1161 9.73096C72.1172 9.75844 72.1135 9.78558 72.1051 9.81065C72.0967 9.83572 72.0837 9.85832 72.067 9.87715C72.0504 9.89596 72.0304 9.91081 72.0081 9.92051L71.9734 9.93604C71.9283 9.95554 71.8766 9.95342 71.8298 9.93047C71.7831 9.90751 71.7451 9.86551 71.7241 9.81357L71.6753 9.69229C71.668 9.67369 71.6682 9.65286 71.6756 9.63428C71.683 9.61566 71.6969 9.60061 71.7148 9.59268L71.9525 9.48955Z" fill="white"/>
<path d="M8.65364 8.58662C8.67909 8.57719 8.70699 8.57747 8.73233 8.58721L8.92469 8.66162C8.94502 8.66945 8.96356 8.68171 8.97884 8.69766C8.9941 8.71359 9.00586 8.73281 9.01325 8.75391C9.02064 8.77503 9.02358 8.79773 9.02171 8.82012C9.01983 8.84247 9.0133 8.86422 9.00253 8.88369L8.47257 9.83291C8.46561 9.8455 8.4563 9.85656 8.44521 9.86543C8.43409 9.87432 8.42127 9.88098 8.4077 9.88477C8.3942 9.88852 8.38011 9.88928 8.36624 9.8874C8.3523 9.88551 8.33864 9.88093 8.32647 9.87363L7.97533 9.66357C7.96599 9.65804 7.95794 9.65045 7.95192 9.64131C7.9459 9.63217 7.94212 9.62172 7.94064 9.61084C7.90741 9.38684 7.94711 9.2095 8.05994 9.0791C8.07397 9.06282 8.09253 9.05134 8.11297 9.046C8.13341 9.04066 8.15492 9.04177 8.17473 9.04922L8.55972 9.19805C8.57813 9.20594 8.59872 9.20661 8.61754 9.19981C8.63642 9.19295 8.65219 9.179 8.66182 9.16084C8.67145 9.14268 8.67427 9.12154 8.66972 9.10137C8.66517 9.0812 8.65368 9.06343 8.63728 9.05156C8.60637 9.02676 8.56532 9.00997 8.51431 9.00117C8.50176 8.99904 8.48979 8.99385 8.47962 8.98594C8.46948 8.97803 8.46139 8.96763 8.45593 8.95576C8.45046 8.94385 8.44782 8.93057 8.44831 8.91738C8.44883 8.90423 8.45241 8.89129 8.45875 8.87988L8.59328 8.63877C8.60689 8.61462 8.62821 8.59605 8.65364 8.58662Z" fill="white"/>
<path d="M70.7 8.90156C70.736 8.86975 70.7902 8.87424 70.821 8.91152L71.0768 9.22178C71.1075 9.25904 71.1034 9.31501 71.0675 9.34688L70.773 9.60732C70.737 9.63916 70.6828 9.63463 70.652 9.59736L70.3959 9.28711C70.3652 9.24984 70.3696 9.19386 70.4055 9.16201L70.7 8.90156Z" fill="white"/>
<path d="M71.8566 9.24375C71.9026 9.24699 71.9365 9.30001 71.9325 9.36211C71.9285 9.42427 71.888 9.47221 71.842 9.46904C71.796 9.46582 71.7621 9.4128 71.7661 9.35068C71.7701 9.28852 71.8107 9.24059 71.8566 9.24375Z" fill="white"/>
<path d="M9.15088 9.08965C9.165 9.05925 9.20017 9.04643 9.22957 9.06094L9.41572 9.15322C9.44517 9.16783 9.45775 9.20448 9.44364 9.23496L9.35931 9.4166C9.34521 9.44708 9.31007 9.4599 9.28062 9.44531L9.09447 9.35303C9.06509 9.33843 9.05253 9.30203 9.06655 9.27158L9.15088 9.08965Z" fill="white"/>
<path d="M10.34 9.121C10.3605 9.07395 10.4141 9.05296 10.4596 9.07412L10.5907 9.13564C10.6362 9.15694 10.6564 9.2122 10.6358 9.25928L10.5766 9.39492C10.5561 9.44202 10.5025 9.46307 10.457 9.4418L10.3262 9.38057C10.2806 9.35929 10.2605 9.30375 10.281 9.25664L10.34 9.121Z" fill="white"/>
<path d="M70.1714 8.73867C70.2414 8.75743 70.2847 8.82561 70.2685 8.89102C70.2521 8.95645 70.1822 8.99441 70.1122 8.97568C70.0422 8.95694 69.9986 8.88876 70.0149 8.82334C70.0313 8.75789 70.1014 8.71992 70.1714 8.73867Z" fill="white"/>
<path d="M6.848 8.69414C6.90535 8.6714 6.96601 8.69164 6.98367 8.73926C7.00126 8.78688 6.96909 8.84391 6.91174 8.8667C6.8544 8.88942 6.79374 8.86919 6.77608 8.82158C6.75846 8.77395 6.79065 8.71693 6.848 8.69414Z" fill="white"/>
<path d="M11.0093 8.66221C11.0489 8.66955 11.0778 8.69417 11.0739 8.71699C11.0698 8.73973 11.0345 8.75213 10.9949 8.74482C10.9552 8.73748 10.9264 8.71315 10.9303 8.69033C10.9343 8.66752 10.9696 8.65489 11.0093 8.66221Z" fill="white"/>
<path d="M7.96348 8.46475C7.99278 8.4333 8.03482 8.42614 8.0574 8.44863C8.07993 8.47117 8.07455 8.515 8.04527 8.54648C8.01598 8.57796 7.97395 8.58509 7.95135 8.5626C7.92875 8.54008 7.93418 8.49626 7.96348 8.46475Z" fill="white"/>
<path d="M9.11704 8.44688C9.15491 8.44608 9.17579 8.46287 9.17965 8.49727C9.18272 8.52041 9.17358 8.53435 9.15201 8.53916C9.1419 8.54157 9.13123 8.54134 9.12127 8.53828C9.11127 8.53518 9.10205 8.52933 9.09504 8.52158C9.08806 8.51384 9.08326 8.50423 9.08122 8.49404C9.07921 8.48387 9.07998 8.47332 9.08348 8.46357C9.08733 8.4532 9.09857 8.4477 9.11704 8.44688Z" fill="white"/>
<path d="M66.1086 6.67764C66.1226 6.63641 66.1661 6.61483 66.2059 6.6293L67.448 7.08193C67.4879 7.09646 67.5089 7.14175 67.4949 7.18301L67.0574 8.46885C67.0433 8.51007 66.9996 8.53171 66.9598 8.51719L65.7177 8.06426C65.6779 8.04968 65.6572 8.00467 65.6712 7.96348L66.1086 6.67764Z" fill="white"/>
<path d="M69.778 7.92158C69.7925 7.88192 69.8353 7.86179 69.8736 7.87676L70.214 8.01006C70.2524 8.02505 70.2717 8.0694 70.2572 8.10908L70.1255 8.47061C70.111 8.51019 70.0681 8.53004 70.0299 8.51514L69.6891 8.38184C69.6509 8.36682 69.6316 8.32271 69.646 8.28311L69.778 7.92158Z" fill="white"/>
<path d="M9.90084 8.1416C9.98766 8.10234 10.0917 8.15016 10.1332 8.24854C10.1748 8.3469 10.1382 8.45856 10.0514 8.49785C9.96462 8.53712 9.86057 8.48901 9.81904 8.39062C9.77756 8.29231 9.81413 8.18093 9.90084 8.1416Z" fill="white"/>
<path d="M11.4078 7.65967C11.4279 7.64767 11.4453 7.64553 11.46 7.65352C11.4847 7.66711 11.5021 7.67253 11.5121 7.66934C11.5979 7.64294 11.6446 7.69331 11.6523 7.82051C11.6547 7.8541 11.6428 7.89136 11.6179 7.92773C11.593 7.96414 11.5563 7.99812 11.5121 8.02559C11.5091 8.02799 11.4882 8.02071 11.4495 8.00391C11.4395 7.99962 11.4285 7.9978 11.4177 7.99834C11.4068 7.99889 11.3962 8.00188 11.3866 8.00713C11.377 8.01239 11.3687 8.01982 11.3621 8.02881C11.3555 8.03781 11.3508 8.04825 11.3486 8.05928L11.3079 8.25C11.3055 8.26188 11.3008 8.27311 11.2941 8.28311C11.2874 8.29311 11.2789 8.30172 11.269 8.3083C11.2591 8.31488 11.2479 8.31935 11.2363 8.32148C11.2247 8.3236 11.2128 8.32354 11.2013 8.3209L11.0228 8.28106C10.9992 8.27558 10.9786 8.26084 10.9655 8.23975C10.9525 8.2186 10.9482 8.19276 10.9534 8.16826L10.9904 7.99189C10.9935 7.97665 10.9998 7.96219 11.0084 7.94941C11.0171 7.93668 11.028 7.92574 11.0409 7.91748C11.0537 7.90921 11.0682 7.90384 11.0832 7.90137C11.0981 7.89891 11.1135 7.8994 11.1283 7.90313C11.2434 7.93352 11.3196 7.87243 11.3567 7.71973C11.3629 7.69733 11.38 7.67726 11.4078 7.65967Z" fill="white"/>
<path d="M7.99676 7.88291C8.02013 7.83057 8.07989 7.80775 8.13045 7.83193L8.23565 7.88203C8.28619 7.9062 8.30832 7.96828 8.28501 8.02061L8.22748 8.14922C8.2041 8.20152 8.14433 8.22436 8.09379 8.2002L7.98858 8.14981C7.93802 8.12562 7.91586 8.06357 7.93923 8.01123L7.99676 7.88291Z" fill="white"/>
<path d="M8.71936 7.30547C8.7319 7.2658 8.77326 7.24416 8.81159 7.25713L9.39767 7.45547C9.43601 7.46844 9.45702 7.51129 9.44449 7.55098L9.25298 8.15771C9.24044 8.19739 9.19909 8.21902 9.16076 8.20605L8.57467 8.00772C8.53633 7.99474 8.51532 7.95189 8.52785 7.91221L8.71936 7.30547Z" fill="white"/>
<path d="M68.2832 7.60107C68.3211 7.56758 68.3782 7.57234 68.4106 7.61162L68.5432 7.77217C68.5756 7.81146 68.571 7.87044 68.5331 7.904L68.3743 8.04434C68.3363 8.07787 68.2792 8.07338 68.2468 8.03408L68.1145 7.87354C68.0821 7.83423 68.0864 7.77498 68.1244 7.74141L68.2832 7.60107Z" fill="white"/>
<path d="M11.1452 6.64102C11.1568 6.64058 11.1685 6.64267 11.1793 6.64688L11.6687 6.83525C11.6905 6.84387 11.7082 6.86099 11.7178 6.88301C11.7273 6.90503 11.728 6.93016 11.7197 6.95273L11.5375 7.45928C11.5335 7.47053 11.5273 7.48094 11.5195 7.48975C11.5116 7.49854 11.5021 7.50555 11.4916 7.51055C11.481 7.51555 11.4696 7.51861 11.458 7.51904C11.4465 7.51946 11.435 7.51736 11.4241 7.51318L10.9348 7.3248C10.913 7.31621 10.8953 7.29906 10.8857 7.27705C10.8762 7.25504 10.8755 7.22989 10.8838 7.20732L11.0657 6.70078C11.0697 6.68951 11.0759 6.67914 11.0837 6.67031C11.0916 6.66149 11.1011 6.65424 11.1116 6.64922C11.1222 6.64422 11.1336 6.64147 11.1452 6.64102Z" fill="white"/>
<path d="M9.73866 6.51064C9.75685 6.46334 9.80854 6.4401 9.8543 6.45879L10.4624 6.70811C10.5081 6.72694 10.5304 6.78053 10.5123 6.82793L10.2717 7.45723C10.2536 7.50467 10.2016 7.52787 10.1558 7.50908L9.548 7.26006C9.50216 7.24127 9.47965 7.18739 9.4978 7.13994L9.73866 6.51064Z" fill="white"/>
<path d="M8.29291 7.19268C8.32876 7.19268 8.35778 7.22295 8.35778 7.26006C8.35775 7.29715 8.32874 7.32715 8.29291 7.32715C8.2571 7.32712 8.22807 7.29713 8.22804 7.26006C8.22804 7.22297 8.25708 7.19271 8.29291 7.19268Z" fill="white"/>
<path d="M70.3424 6.90234C70.448 6.90237 70.5336 6.99106 70.5336 7.10039C70.5336 7.20973 70.448 7.29842 70.3424 7.29844C70.2367 7.29844 70.1511 7.20974 70.1511 7.10039C70.1511 6.99104 70.2367 6.90234 70.3424 6.90234Z" fill="white"/>
<path d="M67.9994 6.03545C68.0329 6.00784 68.0818 6.01367 68.1086 6.04834L68.4905 6.54346C68.5171 6.57815 68.5115 6.62857 68.4781 6.65625L67.9997 7.05176C67.9662 7.07939 67.9173 7.07355 67.8906 7.03887L67.5087 6.54375C67.482 6.50905 67.4876 6.45864 67.5211 6.43096L67.9994 6.03545Z" fill="white"/>
<path d="M8.66323 5.99941C8.67758 5.95969 8.72047 5.93944 8.75884 5.9543L9.09306 6.08379C9.13144 6.09864 9.15113 6.14308 9.13678 6.18281L9.01014 6.5335C8.99577 6.57318 8.95289 6.59317 8.91453 6.57832L8.58003 6.44883C8.54173 6.43393 8.52226 6.38979 8.53659 6.3501L8.66323 5.99941Z" fill="white"/>
<path d="M11.1554 6.21738C11.2347 6.21982 11.2968 6.30002 11.2941 6.39668C11.2914 6.49337 11.2248 6.56987 11.1455 6.56748C11.0661 6.56504 11.004 6.48461 11.0067 6.38789C11.0095 6.29125 11.0761 6.21501 11.1554 6.21738Z" fill="white"/>
<path d="M69.6277 4.97109C69.6583 4.94604 69.7027 4.95139 69.7269 4.98311L70.3046 5.74014C70.3288 5.77185 70.3236 5.8179 70.293 5.84297L69.5617 6.44092C69.531 6.46597 69.4863 6.46063 69.4621 6.42891L68.8845 5.67188C68.8603 5.64015 68.8657 5.5941 68.8963 5.56904L69.6277 4.97109Z" fill="white"/>
<path d="M9.74346 5.99063C9.76957 5.94583 9.81279 5.92345 9.8402 5.94053C9.86761 5.95764 9.86886 6.0079 9.84274 6.05273C9.81662 6.09751 9.77311 6.11989 9.74571 6.10283C9.7183 6.08572 9.71733 6.03546 9.74346 5.99063Z" fill="white"/>
<path d="M8.17135 5.65313C8.26862 5.65318 8.34734 5.73494 8.34734 5.83564C8.34732 5.93633 8.2686 6.01782 8.17135 6.01787C8.07405 6.01787 7.99509 5.93636 7.99507 5.83564C7.99507 5.73491 8.07404 5.65313 8.17135 5.65313Z" fill="white"/>
<path d="M64.8656 4.47305C64.9003 4.44694 64.949 4.45481 64.9742 4.49063L65.5425 5.29746C65.5678 5.33333 65.56 5.38352 65.5253 5.40967L64.7461 5.99795C64.7114 6.02409 64.663 6.01623 64.6378 5.98037L64.0694 5.17383C64.0442 5.13795 64.0517 5.08749 64.0864 5.06133L64.8656 4.47305Z" fill="white"/>
<path d="M10.5081 5.71084C10.5324 5.65032 10.5996 5.62158 10.6581 5.64668L10.6925 5.66162C10.751 5.68685 10.7786 5.75634 10.7543 5.81689L10.7052 5.93877C10.6809 5.99931 10.6137 6.02814 10.5552 6.00293L10.521 5.98799C10.4625 5.96277 10.4349 5.89329 10.4593 5.83272L10.5081 5.71084Z" fill="white"/>
<path d="M11.5748 5.78408C11.601 5.76489 11.6268 5.76641 11.6523 5.78877C11.661 5.79685 11.6671 5.80783 11.6695 5.81982C11.6719 5.8318 11.6705 5.84413 11.6656 5.85498C11.6607 5.86584 11.6526 5.87471 11.6425 5.87988C11.6323 5.88506 11.6206 5.88638 11.6095 5.88369C11.5809 5.8757 11.5607 5.8629 11.5491 5.84531C11.5367 5.82531 11.5454 5.80488 11.5748 5.78408Z" fill="white"/>
<path d="M9.15681 4.51172C9.16733 4.51132 9.17796 4.51289 9.18783 4.5167L9.70482 4.71709C9.72275 4.72425 9.73739 4.73833 9.74543 4.75605C9.75346 4.77381 9.75422 4.79395 9.74769 4.81201L9.53108 5.41201C9.52614 5.42573 9.51657 5.43729 9.50428 5.44453C9.49201 5.45173 9.47755 5.45417 9.46367 5.45156C9.35246 5.43157 9.26215 5.40308 9.19263 5.36631C9.09457 5.31356 9.03152 5.30084 9.00366 5.32793C8.98125 5.34953 8.96527 5.39767 8.95599 5.47207C8.95445 5.4842 8.95032 5.49581 8.94386 5.50605C8.93741 5.51628 8.92885 5.52492 8.91876 5.53125C8.90863 5.53759 8.89699 5.54151 8.8852 5.54268C8.87345 5.54381 8.86157 5.54222 8.85051 5.53799L8.4438 5.38066C8.42529 5.37339 8.41002 5.35887 8.40178 5.34023C8.39359 5.32163 8.39277 5.30027 8.39952 5.28105L8.54788 4.8709C8.55413 4.8538 8.5668 4.83986 8.58285 4.83223C8.5989 4.8246 8.6173 4.82366 8.6339 4.82988L8.86207 4.91748C8.873 4.92186 8.88474 4.92397 8.89648 4.92363C8.90821 4.92329 8.91985 4.92073 8.93061 4.91572C8.94137 4.91071 8.95123 4.90355 8.95938 4.89463C8.96752 4.8857 8.97371 4.87505 8.97799 4.86357L9.0846 4.56592C9.08821 4.5557 9.09386 4.54639 9.10096 4.53838C9.10812 4.53034 9.11676 4.52362 9.12635 4.51904C9.1359 4.51448 9.14629 4.51214 9.15681 4.51172Z" fill="white"/>
<path d="M10.153 4.18711C10.1674 4.14528 10.2119 4.12329 10.2523 4.13818L11.1257 4.46016C11.1662 4.47505 11.1872 4.52116 11.1728 4.56299L10.8798 5.41523C10.8654 5.45706 10.8209 5.47904 10.7805 5.46416L9.90676 5.14219C9.8664 5.12726 9.84528 5.08116 9.85966 5.03936L10.153 4.18711Z" fill="white"/>
<path d="M66.4022 4.94414L66.5353 4.98369C66.5887 4.99938 66.6371 5.02436 66.6702 5.05313C66.7032 5.08191 66.7182 5.11209 66.7116 5.13721L66.6397 5.39883C66.6362 5.41123 66.6276 5.42201 66.6143 5.43047C66.601 5.43894 66.5831 5.44482 66.5619 5.44805C66.5407 5.45127 66.5165 5.45171 66.4908 5.44922C66.465 5.44672 66.438 5.44153 66.4115 5.43369L66.2781 5.39414C66.2548 5.38741 66.2351 5.37113 66.2231 5.34932C66.2112 5.32751 66.208 5.30171 66.2144 5.27754L66.2886 5.00889C66.2919 4.9969 66.2974 4.98553 66.3049 4.97578C66.3124 4.96607 66.3218 4.95806 66.3323 4.95205C66.3428 4.94605 66.3545 4.9423 66.3664 4.94092C66.3784 4.93955 66.3906 4.94065 66.4022 4.94414Z" fill="white"/>
<path d="M68.3336 4.54541C68.3765 4.54559 68.4111 4.58188 68.4109 4.62627L68.409 5.27432C68.4088 5.31867 68.3737 5.35445 68.3308 5.3543L67.705 5.35195C67.6621 5.3518 67.6273 5.31579 67.6274 5.27139L67.6297 4.62334C67.6298 4.579 67.6647 4.54327 67.7075 4.54336L68.3336 4.54541Z" fill="white"/>
<path d="M11.4786 4.83545C11.5034 4.77872 11.5682 4.75346 11.623 4.7792L11.8489 4.88525C11.9037 4.91099 11.9279 4.97795 11.9031 5.03467L11.8007 5.26846C11.7758 5.32519 11.7111 5.35044 11.6563 5.32471L11.4304 5.21865C11.3756 5.19291 11.3513 5.12596 11.3762 5.06924L11.4786 4.83545Z" fill="white"/>
<path d="M8.07461 5.06309C8.146 5.07519 8.19576 5.13646 8.18573 5.1999C8.1757 5.26334 8.10962 5.30488 8.03822 5.29277C7.96689 5.28063 7.91707 5.21937 7.9271 5.15596C7.93719 5.09259 8.00328 5.05102 8.07461 5.06309Z" fill="white"/>
<path d="M8.13891 4.65967C8.21312 4.65974 8.27317 4.72199 8.27317 4.79883C8.27315 4.87565 8.21311 4.93792 8.13891 4.93799C8.06466 4.93799 8.00439 4.87569 8.00438 4.79883C8.00438 4.72195 8.06465 4.65967 8.13891 4.65967Z" fill="white"/>
<path d="M71.2912 4.34561C71.3195 4.31501 71.3665 4.31398 71.3961 4.34326L71.5151 4.46104C71.5446 4.49034 71.5456 4.5388 71.5173 4.56943L71.4037 4.69277C71.3754 4.72343 71.3284 4.72442 71.2988 4.69512L71.1797 4.57734C71.1502 4.54803 71.1492 4.49959 71.1775 4.46895L71.2912 4.34561Z" fill="white"/>
<path d="M8.78677 4.42705C8.81524 4.39486 8.85847 4.38791 8.88351 4.41152C8.90856 4.43521 8.90579 4.48059 8.8773 4.51289C8.84881 4.54516 8.80533 4.55209 8.78028 4.52842C8.75534 4.50471 8.75831 4.45931 8.78677 4.42705Z" fill="white"/>
<path d="M9.647 4.14727C9.72891 4.1473 9.79534 4.21598 9.79535 4.30078C9.79535 4.38559 9.72892 4.45426 9.647 4.4543C9.56505 4.4543 9.49864 4.38561 9.49864 4.30078C9.49865 4.21596 9.56505 4.14727 9.647 4.14727Z" fill="white"/>
<path d="M11.6224 4.09746C11.6584 4.10363 11.684 4.13199 11.6794 4.16074C11.6748 4.18951 11.6418 4.20793 11.6058 4.20176C11.5698 4.19559 11.5443 4.16722 11.5488 4.13848C11.5534 4.10972 11.5864 4.09131 11.6224 4.09746Z" fill="white"/>
<path d="M11.0645 3.83291C11.1599 3.83291 11.2374 3.91287 11.2374 4.01162C11.2374 4.11036 11.1599 4.19033 11.0645 4.19033C10.9692 4.19027 10.8919 4.11032 10.8919 4.01162C10.8919 3.91291 10.9692 3.83297 11.0645 3.83291Z" fill="white"/>
<path d="M69.7687 3.56982C69.8152 3.52736 69.8861 3.53179 69.9272 3.57979L70.0933 3.77402C70.1344 3.82217 70.1299 3.89579 70.0834 3.93838L69.8959 4.11006C69.8494 4.15262 69.7785 4.14816 69.7374 4.1001L69.5713 3.90586C69.5302 3.85771 69.5346 3.78408 69.5811 3.7415L69.7687 3.56982Z" fill="white"/>
<path d="M69.0083 2.89248C69.0523 2.8809 69.0972 2.90847 69.1084 2.954L69.2985 3.72627C69.3097 3.77184 69.283 3.81807 69.239 3.82969L68.4933 4.02656C68.4492 4.03819 68.4044 4.01064 68.3932 3.96504L68.2031 3.19307C68.1918 3.1475 68.2183 3.10102 68.2623 3.08936L69.0083 2.89248Z" fill="white"/>
<path d="M9.79761 3.41367C9.81623 3.36076 9.87284 3.33347 9.92396 3.35273L10.2026 3.45791C10.2538 3.47718 10.2802 3.53564 10.2616 3.58857L10.1617 3.87275C10.1431 3.92567 10.0865 3.95295 10.0354 3.93369L9.75643 3.82852C9.70537 3.8092 9.67917 3.75075 9.69776 3.69785L9.79761 3.41367Z" fill="white"/>
<path d="M65.265 3.50039C65.3456 3.50043 65.4111 3.5681 65.4111 3.65156C65.4111 3.73504 65.3457 3.8027 65.265 3.80273C65.1844 3.80273 65.1189 3.73507 65.1189 3.65156C65.1189 3.56807 65.1844 3.50039 65.265 3.50039Z" fill="white"/>
<path d="M86.0787 0C86.7023 0.0731966 87.3177 0.094815 87.4615 0.841113C87.5975 1.54191 87.5989 2.21851 87.4652 2.87051C87.3748 3.31446 87.1301 3.56964 86.7313 3.63604C85.8071 3.79043 85.0061 3.774 84.3283 3.58682C83.4682 3.35042 83.6097 1.55644 83.736 0.873633C83.8809 0.0924689 84.4383 0.104384 85.0492 0H86.0787Z" fill="white"/>
<path d="M10.7041 3.4585C10.7367 3.4585 10.7633 3.48593 10.7633 3.51973C10.7633 3.55347 10.7367 3.58066 10.7041 3.58066C10.6715 3.58064 10.6452 3.55345 10.6451 3.51973C10.6451 3.48594 10.6715 3.45852 10.7041 3.4585Z" fill="white"/>
<path d="M67.4007 2.90889C67.465 2.91519 67.5122 2.97413 67.5061 3.04072L67.4751 3.38262C67.469 3.44921 67.4117 3.49819 67.3473 3.49189L67.0312 3.46084C66.9668 3.45453 66.9196 3.39535 66.9257 3.32871L66.9567 2.98711C66.9628 2.92047 67.0201 2.87153 67.0845 2.87783L67.4007 2.90889Z" fill="white"/>
<path d="M69.7977 1.67813C69.8334 1.6469 69.8869 1.65143 69.917 1.68838L70.4137 2.29688C70.4439 2.33382 70.4395 2.38928 70.4038 2.42051L69.8158 2.93467C69.7801 2.9659 69.7266 2.96137 69.6965 2.92441L69.1998 2.31592C69.1696 2.27898 69.174 2.22352 69.2097 2.19229L69.7977 1.67813Z" fill="white"/>
<path d="M9.59369 2.84531C9.62304 2.83413 9.64743 2.8371 9.66674 2.85469C9.69527 2.87864 9.69867 2.89989 9.67718 2.91826C9.6285 2.95985 9.5885 2.96451 9.55759 2.93174C9.55209 2.92605 9.54856 2.91872 9.54744 2.91064C9.54632 2.90253 9.54782 2.89372 9.55138 2.88516C9.55495 2.87659 9.56065 2.86839 9.56802 2.86143C9.5754 2.85447 9.58427 2.84901 9.59369 2.84531Z" fill="white"/>
<path d="M10.1002 2.52949C10.1937 2.52952 10.2694 2.608 10.2695 2.70469C10.2695 2.80143 10.1937 2.87985 10.1002 2.87988C10.0068 2.87988 9.93101 2.80145 9.93101 2.70469C9.93107 2.60798 10.0068 2.52949 10.1002 2.52949Z" fill="white"/>
<path d="M68.3277 2.31973C68.4039 2.3198 68.4656 2.38358 68.4656 2.4624C68.4656 2.54122 68.4039 2.60501 68.3277 2.60508C68.2515 2.60508 68.1895 2.54127 68.1895 2.4624C68.1895 2.38354 68.2515 2.31973 68.3277 2.31973Z" fill="white"/>
<path d="M70.9008 1.64326C70.9622 1.6246 71.0266 1.66086 71.0446 1.72441L71.1056 1.93857C71.1236 2.00208 71.0885 2.06863 71.0272 2.0874L70.8179 2.15127C70.7565 2.16991 70.6922 2.13359 70.674 2.07012L70.6131 1.85596C70.5951 1.79241 70.6302 1.72558 70.6915 1.70684L70.9008 1.64326Z" fill="white"/>
<path d="M8.33127 2.05811C8.37376 2.04611 8.40268 2.05049 8.41814 2.07129C8.42119 2.07523 8.42332 2.07983 8.42434 2.08477C8.42536 2.08971 8.42529 2.09482 8.42406 2.09971C8.42282 2.10458 8.4205 2.1091 8.41729 2.11289C8.41405 2.11669 8.40999 2.1198 8.40544 2.12168C8.37917 2.13288 8.35552 2.13362 8.33465 2.12402C8.3279 2.12112 8.32185 2.11621 8.31745 2.10996C8.31306 2.10372 8.31052 2.0964 8.31011 2.08916C8.30973 2.08187 8.31169 2.0748 8.31547 2.06924C8.31926 2.06371 8.32476 2.05985 8.33127 2.05811Z" fill="white"/>
<path d="M71.2993 1.82578C71.325 1.80833 71.357 1.81154 71.3707 1.83311C71.3844 1.85471 71.3747 1.88654 71.349 1.904C71.3233 1.92143 71.2913 1.91797 71.2776 1.89639C71.264 1.8748 71.2737 1.84324 71.2993 1.82578Z" fill="white"/>
</svg>
