<svg width="116" height="32" viewBox="0 0 116 32" fill="none" xmlns="http://www.w3.org/2000/svg">
<mask id="mask0_19909_6664" style="mask-type:luminance" maskUnits="userSpaceOnUse" x="11" y="3" width="93" height="26">
<path d="M104 3.02008H11.2861V28.9799H104V3.02008Z" fill="white"/>
</mask>
<g mask="url(#mask0_19909_6664)">
<path d="M45.3759 9.4776V11.8897H38.8802V14.5143H44.8585V16.9436H38.8802V22.005H35.7607V9.4776H45.3759Z" fill="black"/>
<path d="M47.3545 9.461H50.05V11.5865H47.3545V9.461ZM47.3545 12.7265H50.05V22.0057H47.3545V12.7265Z" fill="black"/>
<path d="M51.3789 12.7441H54.2547C55.3916 16.8598 55.5869 17.7025 55.8875 19.4737C56.259 17.4158 56.3126 17.186 56.8654 15.0037L57.4322 12.7333H60.2359L57.2368 21.9953H54.3792L51.3789 12.7441Z" fill="black"/>
<path d="M70.1815 19.6428C69.8671 20.1484 69.4912 20.6143 69.0619 21.0276C68.1056 21.8928 66.8558 22.363 65.5666 22.3415C62.8144 22.3415 60.8809 20.5703 60.8809 17.5495C60.8809 15.3145 61.9823 12.4387 65.6375 12.4387C66.8859 12.4001 68.0945 12.882 68.9738 13.7709C70.1815 15.0677 70.2524 16.8764 70.2876 17.922H63.672C63.6548 19.0771 64.3094 20.2278 65.7975 20.2278C67.2851 20.2278 67.8014 19.2499 68.1385 18.595L70.1815 19.6428ZM67.4644 16.2184C67.4422 15.7365 67.2614 15.2749 66.9512 14.9045C66.5897 14.5684 66.1131 14.3849 65.6194 14.3914C65.0933 14.3892 64.5917 14.6082 64.2343 14.9936C63.939 15.3424 63.7494 15.7665 63.6859 16.2195H67.4644V16.2184Z" fill="black"/>
<path d="M72.5313 10.0623H75.2483V12.9553H77.04V14.6234H75.2302V18.7918C75.2302 19.3585 75.2302 19.8545 75.9386 19.8545L76.9167 19.8191V21.9445C76.4419 22.0315 75.9613 22.0787 75.4791 22.0862C74.5367 22.0862 73.5103 22.0337 72.9253 21.1792C72.554 20.6306 72.5359 19.9715 72.5359 19.0859V14.6052H71.1855V12.9348H72.5346L72.5313 10.0623Z" fill="black"/>
<path d="M81.5615 13.7002C82.1637 13.1871 82.8229 12.7792 84.2386 12.6375V15.0603L83.3356 15.202C82.0219 15.4317 81.632 15.6271 81.632 16.7993V22.0056H78.915V12.7265H81.5754L81.5615 13.7002Z" fill="black"/>
<path d="M85.6701 15.3686C85.6585 14.5678 86.0201 13.8078 86.6483 13.3108C87.4984 12.6377 88.5999 12.496 89.6828 12.496C90.8194 12.496 93.5789 12.7611 93.5789 15.156V20.5502C93.5789 21.5454 93.6308 21.6871 93.8442 22.0059H91.1662V21.1525C90.4579 21.6656 89.6934 22.2539 88.3334 22.2539C86.2079 22.2539 85.2988 20.7274 85.2988 19.421C85.2988 17.9299 86.4893 17.0797 87.2504 16.7609C88.0116 16.4421 89.7505 16.1233 90.9057 15.9107V15.4147C90.87 14.9896 90.8348 14.2779 89.8427 14.2779C88.6352 14.2779 88.4752 15.0219 88.4052 15.3622L85.6701 15.3686ZM89.1303 18.1565C88.6695 18.3335 87.9578 18.5987 87.9578 19.3115C87.9866 19.8569 88.4506 20.2765 88.9958 20.2497C89.3319 20.2401 89.6582 20.1359 89.9383 19.9491C90.8413 19.3824 90.8765 18.5321 90.8978 17.5725L89.1303 18.1565Z" fill="black"/>
<path d="M98.5143 13.5767C98.7642 13.2686 99.0798 13.0207 99.4383 12.851C99.9721 12.6256 100.545 12.5054 101.123 12.4968C101.696 12.485 102.262 12.6127 102.773 12.8682C103.752 13.3813 103.999 14.2175 103.999 15.656V22.0067H101.286V16.7896C101.286 15.9577 101.269 15.6528 101.163 15.4048C100.942 14.9368 100.454 14.6544 99.9372 14.6963C98.5005 14.6963 98.5005 15.8514 98.5005 17.0021V22.0067H95.7764V12.7619H98.5289L98.5143 13.5767Z" fill="black"/>
<path d="M24.0908 15.9029H26.678C26.884 15.9072 27.0558 15.743 27.0602 15.5368C27.0612 15.4843 27.0515 15.4316 27.0311 15.3834L22.5794 3.26705C22.5258 3.11891 22.3851 3.01908 22.2273 3.02015H19.6306C19.4245 3.01908 19.256 3.18547 19.2549 3.39265C19.2549 3.43773 19.2624 3.48174 19.2785 3.52361L23.7291 15.656C23.7839 15.8074 23.9299 15.9072 24.0908 15.9029Z" fill="black"/>
<path d="M23.6241 28.7835H26.2112C26.4173 28.7846 26.5858 28.6182 26.5869 28.411C26.5869 28.3659 26.5794 28.3219 26.5633 28.2801L17.384 3.26705C17.3304 3.11891 17.1897 3.02015 17.0308 3.02015H14.447C14.2409 3.01907 14.0724 3.18546 14.0713 3.39264C14.0713 3.43773 14.0788 3.48174 14.0949 3.52361L23.272 28.5388C23.3268 28.6858 23.4674 28.7835 23.6241 28.7835Z" fill="black"/>
<path d="M18.5307 28.7834H21.1178C21.3239 28.793 21.4988 28.6331 21.5085 28.4269C21.5106 28.3765 21.5031 28.3271 21.4859 28.2798L17.0192 16.1475C16.9655 15.9994 16.8249 15.8995 16.6671 15.9006H14.0672C13.8611 15.906 13.6979 16.0777 13.7033 16.2839C13.7043 16.3257 13.7129 16.3676 13.7279 16.4073L18.1786 28.5397C18.2333 28.6856 18.3739 28.7834 18.5307 28.7834Z" fill="black"/>
<path d="M24.4036 3.52683L26.4904 9.20229C26.5441 9.3504 26.6847 9.45026 26.8426 9.44919H29.4296C29.6357 9.45026 29.8043 9.28388 29.8053 9.07666C29.8053 9.03161 29.7979 8.98757 29.7817 8.94571L27.6949 3.26705C27.6412 3.11891 27.5006 3.01908 27.3428 3.02015H24.7557C24.5496 3.01908 24.38 3.18439 24.3789 3.39157C24.3789 3.43773 24.3865 3.48389 24.4036 3.52683Z" fill="black"/>
<path d="M13.7583 28.7843H16.3454C16.5515 28.7854 16.72 28.619 16.7212 28.4118C16.7212 28.3667 16.7136 28.3227 16.6975 28.2809L14.5989 22.5904C14.5452 22.4423 14.4046 22.3424 14.2468 22.3435H11.6629C11.4568 22.3424 11.2872 22.5077 11.2861 22.7149C11.2861 22.7611 11.2936 22.8072 11.3108 22.8502L13.3977 28.5406C13.4524 28.6899 13.5984 28.7886 13.7583 28.7843Z" fill="black"/>
</g>
</svg>
