<svg width="334" height="344" viewBox="0 0 334 344" fill="none" xmlns="http://www.w3.org/2000/svg">
<path d="M169 136L169 126.5C169 120.899 169 118.099 167.91 115.96C166.951 114.078 165.422 112.549 163.54 111.59C161.401 110.5 158.601 110.5 153 110.5L56 110.5C50.3995 110.5 47.5992 110.5 45.4601 109.41C43.5785 108.451 42.0487 106.922 41.0899 105.04C40 102.901 40 100.101 40 94.5L40 85" stroke="#9E9E9E" stroke-linecap="round"/>
<path d="M175 131L169 137L163 131" stroke="#0087C7" stroke-linecap="round" stroke-linejoin="round"/>
<path d="M169 136.656L169 85.5679" stroke="#9E9E9E" stroke-linecap="round"/>
<path d="M175 131L169 137L163 131" stroke="#0087C7" stroke-linecap="round" stroke-linejoin="round"/>
<path d="M169 136L169 126.5C169 120.899 169 118.099 170.09 115.96C171.049 114.078 172.578 112.549 174.46 111.59C176.599 110.5 179.399 110.5 185 110.5L279 110.5C284.601 110.5 287.401 110.5 289.54 109.41C291.422 108.451 292.951 106.922 293.91 105.04C295 102.901 295 100.101 295 94.5L295 85" stroke="#9E9E9E" stroke-linecap="round"/>
<path d="M163 131L169 137L175 131" stroke="#555555" stroke-linecap="round" stroke-linejoin="round"/>
<path d="M299 260L299 246C299 240.399 299 237.599 297.91 235.46C296.951 233.578 295.422 232.049 293.54 231.09C291.401 230 288.601 230 283 230L186 230C180.399 230 177.599 230 175.46 228.91C173.578 227.951 172.049 226.422 171.09 224.54C170 222.401 170 219.601 170 214L170 200" stroke="#0087C7" stroke-linecap="round"/>
<path d="M305 255L299 261L293 255" stroke="#0087C7" stroke-linecap="round" stroke-linejoin="round"/>
<path d="M41 260L41 246C41 240.399 41 237.599 42.0899 235.46C43.0487 233.578 44.5785 232.049 46.4601 231.09C48.5992 230 51.3995 230 57 230L154 230C159.601 230 162.401 230 164.54 228.91C166.422 227.951 167.951 226.422 168.91 224.54C170 222.401 170 219.601 170 214L170 200" stroke="#0087C7" stroke-linecap="round"/>
<path d="M35 255L41 261L47 255" stroke="#0087C7" stroke-linecap="round" stroke-linejoin="round"/>
<path d="M126 260L126 246C126 240.399 126 237.599 127.09 235.46C128.049 233.578 129.578 232.049 131.46 231.09C133.599 230 136.399 230 142 230L154 230C159.601 230 162.401 230 164.54 228.91C166.422 227.951 167.951 226.422 168.91 224.54C170 222.401 170 219.601 170 214L170 200" stroke="#0087C7" stroke-linecap="round"/>
<path d="M120 255L126 261L132 255" stroke="#0087C7" stroke-linecap="round" stroke-linejoin="round"/>
<path d="M214 260L214 246C214 240.399 214 237.599 212.91 235.46C211.951 233.578 210.422 232.049 208.54 231.09C206.401 230 203.601 230 198 230L186 230C180.399 230 177.599 230 175.46 228.91C173.578 227.951 172.049 226.422 171.09 224.54C170 222.401 170 219.601 170 214L170 200" stroke="#0087C7" stroke-linecap="round"/>
<path d="M220 255L214 261L208 255" stroke="#0087C7" stroke-linecap="round" stroke-linejoin="round"/>
<g filter="url(#filter0_d_20184_12453)">
<path d="M8.28516 292.238C8.28516 277.195 20.4801 265 35.5233 265C50.5664 265 62.7613 277.195 62.7613 292.238C62.7613 307.281 50.5664 319.476 35.5233 319.476C20.4801 319.476 8.28516 307.281 8.28516 292.238Z" fill="white" shape-rendering="crispEdges"/>
<path d="M35.5234 265.381C50.3561 265.381 62.3809 277.406 62.3809 292.238C62.3808 307.071 50.3561 319.096 35.5234 319.096C20.6907 319.096 8.66612 307.071 8.66602 292.238C8.66602 277.405 20.6906 265.381 35.5234 265.381Z" stroke="black" stroke-opacity="0.08" stroke-width="0.761905" shape-rendering="crispEdges"/>
<g clip-path="url(#clip0_20184_12453)">
<path d="M22.0576 277.007C23.3038 277.15 24.4935 277.606 25.5163 278.332C25.6551 278.427 25.7872 278.53 25.9124 278.646L25.9192 278.652C26.0834 278.81 26.2663 278.942 26.466 279.043C26.7318 279.067 27.0095 279.084 27.2736 279.101C27.5292 279.114 27.7781 279.13 28.0218 279.148L28.2842 279.211C29.1138 279.363 29.9196 279.634 30.6747 280.017C34.022 281.873 36.8017 284.605 38.7161 287.919C38.9937 288.432 39.2324 288.967 39.4271 289.518C39.5355 289.793 39.6387 290.061 39.7522 290.327C40.277 291.573 40.8424 292.798 41.4502 294.004C41.5518 294.193 41.6364 294.393 41.7261 294.588C41.8734 294.96 42.0664 295.309 42.3017 295.631C42.4556 295.775 42.6458 295.874 42.8519 295.919C42.9433 295.944 43.0263 295.974 43.1059 296.01C43.3547 296.137 43.6205 296.254 43.8778 296.369L43.8931 296.374C44.3806 296.572 44.8428 296.809 45.2847 297.085C46.4799 297.864 47.6141 298.734 48.6824 299.684C48.9115 299.889 49.113 300.124 49.2817 300.381C49.4137 300.577 49.561 300.762 49.7218 300.935V301.126C49.5695 301.175 49.4137 301.219 49.2648 301.261C49.0838 301.307 48.9043 301.359 48.7264 301.415C48.3869 301.498 48.0417 301.554 47.6937 301.585C47.2235 301.622 46.7587 301.709 46.3072 301.845C45.9568 301.949 45.6012 302.032 45.2407 302.091C45.2407 302.105 45.2508 302.11 45.261 302.118C45.2694 302.121 45.2779 302.128 45.2847 302.135C45.4827 302.694 46.3224 303.198 46.9979 303.604C47.2417 303.752 47.4736 303.891 47.6463 304.016C48.4691 304.607 49.2038 305.319 49.8234 306.127L50.2365 306.55L50.3432 306.657L50.4447 306.76C50.4976 306.856 50.5417 306.957 50.5768 307.061C50.6177 307.194 50.6788 307.32 50.7579 307.434V307.476C50.5887 307.397 50.4386 307.282 50.3178 307.139C50.2539 307.071 50.1861 307.008 50.1146 306.948C49.9995 306.862 49.8793 306.775 49.7642 306.682L49.7049 306.636C49.39 306.394 49.0633 306.142 48.7281 305.934C48.3162 305.677 47.8848 305.453 47.4381 305.264C47.0193 305.083 46.6122 304.877 46.2192 304.646C45.7673 304.346 45.3321 304.022 44.9156 303.676C44.4828 303.306 44.1114 302.87 43.8152 302.384C43.7704 302.296 43.7313 302.206 43.6984 302.113C43.6557 301.964 43.5819 301.825 43.4817 301.707C43.5291 301.405 43.8084 301.331 44.0793 301.258C44.1656 301.238 44.2503 301.211 44.3332 301.18C45.447 300.733 46.6435 300.528 47.8427 300.581C48.014 300.577 48.1854 300.585 48.3557 300.605C48.3184 300.254 47.6666 299.851 47.2332 299.584C47.1215 299.513 47.0165 299.448 46.9454 299.398L46.4596 299.049C45.9418 298.659 45.4051 298.296 44.8513 297.96C44.5468 297.794 44.2277 297.656 43.8982 297.547L43.8795 297.539C43.7187 297.479 43.568 297.425 43.4428 297.369C43.2735 297.302 43.0348 297.229 42.8011 297.158C42.2532 297.054 41.74 296.815 41.308 296.462C40.7148 295.571 40.229 294.614 39.8605 293.609C39.6692 293.168 39.4441 292.695 39.2274 292.245C38.9531 291.673 38.6738 291.094 38.4351 290.525C38.36 290.339 38.2905 290.15 38.2268 289.959C38.1307 289.663 38.0136 289.374 37.8764 289.094C36.3865 286.157 34.149 283.663 31.3891 281.865C30.4699 281.238 29.4645 280.748 28.4044 280.41C28.0497 280.32 27.6852 280.274 27.3193 280.274C27.001 280.269 26.6838 280.236 26.3712 280.176H25.9548C25.703 280.077 25.4759 279.925 25.2894 279.729C25.1858 279.632 25.0761 279.541 24.961 279.458C24.3183 279.038 23.6383 278.677 22.9295 278.381L22.8872 278.366C22.5678 278.232 22.2298 278.148 21.885 278.116C21.7856 278.109 21.6868 278.135 21.6039 278.19C21.5336 278.21 21.4697 278.247 21.4186 278.299C21.3675 278.351 21.3309 278.416 21.3127 278.486C21.2671 278.63 21.2525 278.781 21.2701 278.93C21.2876 279.079 21.3368 279.223 21.4143 279.351C21.6107 279.751 21.8579 280.123 22.1474 280.459C22.2659 280.611 22.4182 280.797 22.5554 280.997C22.9498 281.507 23.2969 282.052 23.5931 282.626C23.864 283.255 24.0892 283.904 24.2703 284.567C24.4345 285.165 24.6275 285.739 24.8527 286.301C25.0626 286.772 25.3199 287.219 25.6213 287.633C25.7076 287.748 25.8041 287.857 25.9091 287.958C26.1088 288.133 26.2663 288.355 26.3661 288.602C26.5845 288.947 26.2053 289.924 25.9768 290.515C25.926 290.648 25.8752 290.77 25.8481 290.863C25.3379 292.719 25.4028 294.686 26.0343 296.504L26.097 296.653C26.3323 297.225 26.571 297.804 27.1737 297.957C27.1877 297.941 27.205 297.929 27.2245 297.921H27.2329L27.2769 297.899L27.3277 297.4V297.366C27.3726 296.467 27.5435 295.579 27.8356 294.728C27.9981 294.39 28.2047 294.075 28.4485 293.791C28.5788 293.625 28.7126 293.457 28.8294 293.272C28.9736 293.405 29.0635 293.586 29.0816 293.78C29.1002 293.873 29.1273 293.967 29.1612 294.056L29.2001 294.148C29.4642 294.793 29.7351 295.461 30.0517 296.084C30.7322 297.422 31.5076 298.707 32.371 299.929C32.7096 300.378 33.0769 300.801 33.4714 301.199C33.5256 301.25 33.5831 301.3 33.6441 301.344C33.7546 301.417 33.851 301.508 33.9285 301.615H33.9894V301.656C33.5817 301.483 33.2234 301.211 32.9466 300.865C32.801 300.703 32.6443 300.552 32.4776 300.412C31.4186 299.626 30.5062 298.661 29.7825 297.559C29.4591 296.924 29.19 296.394 28.9309 295.827V295.785C28.8649 295.886 28.8286 296.003 28.826 296.123C28.8182 296.202 28.8046 296.279 28.7853 296.355C28.7176 296.66 28.6668 296.966 28.6347 297.278C28.5416 298.057 28.4603 298.73 27.7899 299.018C27.6387 299.082 27.4765 299.115 27.3125 299.116C26.4576 299.116 25.8447 298.14 25.6145 297.771C24.4872 295.576 24.2635 293.028 24.9915 290.67C25.0474 290.481 25.0931 290.288 25.1303 290.091C25.1777 289.738 25.2928 289.397 25.4689 289.088C25.4534 288.984 25.417 288.886 25.362 288.797C25.307 288.709 25.2345 288.632 25.1489 288.573C25.0769 288.513 25.0116 288.446 24.9542 288.371C24.6665 287.955 24.4102 287.517 24.1873 287.063C23.891 286.431 23.6371 285.781 23.4272 285.116C23.326 284.812 23.2205 284.509 23.1106 284.209C23.052 284.047 23.0039 283.882 22.9667 283.714C22.9261 283.507 22.8637 283.305 22.7805 283.111C22.5335 282.626 22.2386 282.167 21.9002 281.74L21.8629 281.689L21.7427 281.527C21.6466 281.397 21.5478 281.269 21.4465 281.143C20.8489 280.388 19.9465 279.252 20.4155 278.1C20.5316 277.763 20.7552 277.474 21.0519 277.276C21.3485 277.079 21.7019 276.984 22.0576 277.007ZM27.2126 282.226C27.2854 282.29 27.3633 282.348 27.4429 282.402C27.5783 282.483 27.6968 282.588 27.7933 282.714C27.8373 282.78 27.8729 282.849 27.9016 282.922C27.9313 282.998 27.9718 283.07 28.0218 283.135C28.0502 283.332 28.0269 283.533 27.9541 283.718C27.8814 283.903 27.7618 284.067 27.6071 284.192L27.5851 284.214L27.5444 284.254C27.4716 284.085 27.3921 283.912 27.3159 283.746L27.3074 283.728C27.2346 283.569 27.1584 283.404 27.089 283.242C27.0069 283.13 26.9187 283.023 26.8249 282.92C26.6679 282.757 26.534 282.573 26.4271 282.373H26.3628V282.333C26.6404 282.262 26.9248 282.226 27.2109 282.226H27.2126Z" fill="#257AD1"/>
</g>
</g>
<path d="M15.5194 340.095V331.155H16.5994L19.9474 335.919H19.3954L22.7194 331.155H23.7994V340.095H22.6114V332.643L23.0314 332.775L19.7074 337.455H19.6114L16.3234 332.775L16.6954 332.643V340.095H15.5194ZM26.0011 342.735C25.8571 342.735 25.7131 342.723 25.5691 342.699C25.4251 342.675 25.2891 342.635 25.1611 342.579V341.583C25.2491 341.599 25.3571 341.615 25.4851 341.631C25.6211 341.655 25.7531 341.667 25.8811 341.667C26.2571 341.667 26.5411 341.583 26.7331 341.415C26.9331 341.255 27.1211 340.975 27.2971 340.575L27.7051 339.603L27.6811 340.575L24.9211 333.627H26.1331L28.2811 339.147H27.9211L30.0571 333.627H31.2931L28.3771 340.863C28.2411 341.207 28.0651 341.519 27.8491 341.799C27.6411 342.087 27.3851 342.315 27.0811 342.483C26.7771 342.651 26.4171 342.735 26.0011 342.735ZM35.4899 340.239C34.9219 340.239 34.4019 340.135 33.9299 339.927C33.4579 339.711 33.0579 339.419 32.7299 339.051C32.4019 338.683 32.1659 338.271 32.0219 337.815L33.0419 337.395C33.2579 337.971 33.5779 338.415 34.0019 338.727C34.4339 339.031 34.9379 339.183 35.5139 339.183C35.8659 339.183 36.1739 339.127 36.4379 339.015C36.7019 338.903 36.9059 338.747 37.0499 338.547C37.2019 338.339 37.2779 338.099 37.2779 337.827C37.2779 337.451 37.1699 337.155 36.9539 336.939C36.7459 336.715 36.4379 336.547 36.0299 336.435L34.3859 335.931C33.7379 335.731 33.2419 335.415 32.8979 334.983C32.5539 334.551 32.3819 334.055 32.3819 333.495C32.3819 333.007 32.4979 332.579 32.7299 332.211C32.9699 331.835 33.2979 331.543 33.7139 331.335C34.1379 331.119 34.6179 331.011 35.1539 331.011C35.6899 331.011 36.1739 331.107 36.6059 331.299C37.0459 331.491 37.4179 331.751 37.7219 332.079C38.0259 332.399 38.2499 332.767 38.3939 333.183L37.3859 333.603C37.1939 333.099 36.9059 332.719 36.5219 332.463C36.1379 332.199 35.6859 332.067 35.1659 332.067C34.8459 332.067 34.5619 332.123 34.3139 332.235C34.0739 332.339 33.8859 332.495 33.7499 332.703C33.6219 332.903 33.5579 333.143 33.5579 333.423C33.5579 333.751 33.6619 334.043 33.8699 334.299C34.0779 334.555 34.3939 334.751 34.8179 334.887L36.3179 335.331C37.0219 335.547 37.5539 335.855 37.9139 336.255C38.2739 336.655 38.4539 337.151 38.4539 337.743C38.4539 338.231 38.3259 338.663 38.0699 339.039C37.8219 339.415 37.4739 339.711 37.0259 339.927C36.5859 340.135 36.0739 340.239 35.4899 340.239ZM44.4477 340.239C43.8157 340.239 43.2237 340.127 42.6717 339.903C42.1197 339.671 41.6357 339.347 41.2197 338.931C40.8117 338.515 40.4917 338.027 40.2597 337.467C40.0277 336.899 39.9117 336.283 39.9117 335.619C39.9117 334.947 40.0277 334.331 40.2597 333.771C40.4917 333.211 40.8117 332.723 41.2197 332.307C41.6357 331.891 42.1157 331.571 42.6597 331.347C43.2117 331.123 43.8077 331.011 44.4477 331.011C45.0877 331.011 45.6797 331.127 46.2237 331.359C46.7757 331.583 47.2557 331.903 47.6637 332.319C48.0797 332.727 48.4037 333.211 48.6357 333.771C48.8757 334.331 48.9957 334.947 48.9957 335.619C48.9957 336.283 48.8757 336.899 48.6357 337.467C48.4037 338.027 48.0797 338.515 47.6637 338.931C47.2557 339.347 46.7757 339.671 46.2237 339.903C45.6797 340.127 45.0877 340.239 44.4477 340.239ZM44.4477 339.147C44.9437 339.147 45.3957 339.059 45.8037 338.883C46.2117 338.699 46.5637 338.447 46.8597 338.127C47.1637 337.799 47.3957 337.423 47.5557 336.999C47.7237 336.567 47.8077 336.107 47.8077 335.619C47.8077 335.131 47.7237 334.675 47.5557 334.251C47.3957 333.827 47.1637 333.455 46.8597 333.135C46.5637 332.807 46.2117 332.555 45.8037 332.379C45.3957 332.195 44.9437 332.103 44.4477 332.103C43.9597 332.103 43.5117 332.195 43.1037 332.379C42.6957 332.555 42.3397 332.807 42.0357 333.135C41.7397 333.455 41.5077 333.827 41.3397 334.251C41.1717 334.675 41.0877 335.131 41.0877 335.619C41.0877 336.107 41.1717 336.567 41.3397 336.999C41.5077 337.423 41.7397 337.799 42.0357 338.127C42.3397 338.447 42.6957 338.699 43.1037 338.883C43.5117 339.059 43.9597 339.147 44.4477 339.147ZM46.8597 341.175L43.8117 336.519H45.1077L48.1677 341.175H46.8597ZM50.7108 340.095V331.155H51.8868V339.015H55.8108V340.095H50.7108Z" fill="#26272B"/>
<g filter="url(#filter1_d_20184_12453)">
<path d="M98.0234 292.238C98.0234 277.195 110.218 265 125.262 265C140.305 265 152.5 277.195 152.5 292.238C152.5 307.281 140.305 319.476 125.262 319.476C110.218 319.476 98.0234 307.281 98.0234 292.238Z" fill="white" shape-rendering="crispEdges"/>
<path d="M125.262 265.381C140.094 265.381 152.119 277.406 152.119 292.238C152.119 307.071 140.094 319.096 125.262 319.096C110.429 319.096 98.4044 307.071 98.4043 292.238C98.4043 277.405 110.429 265.381 125.262 265.381Z" stroke="black" stroke-opacity="0.08" stroke-width="0.761905" shape-rendering="crispEdges"/>
<g clip-path="url(#clip1_20184_12453)">
<path d="M110.023 301.841H113.342V305.153H110.023V301.841Z" fill="#FF0000"/>
<path d="M110.023 278.656H113.342V301.841H110.023V278.656Z" fill="#FFCC00"/>
<path d="M116.66 278.656H119.979V305.153H116.66V278.656Z" fill="#FFCC00"/>
<path d="M123.297 278.656H126.615V305.153H123.297V278.656Z" fill="#FFCC00"/>
<path d="M129.934 278.656H133.252V305.153H129.934V278.656Z" fill="#FFCC00"/>
<path d="M136.57 289.42H139.889V294.389H136.57V289.42Z" fill="#FFCC00"/>
</g>
</g>
<path d="M96.8737 340.239C96.2417 340.239 95.6577 340.127 95.1217 339.903C94.5937 339.671 94.1297 339.347 93.7297 338.931C93.3377 338.515 93.0337 338.027 92.8177 337.467C92.6017 336.907 92.4937 336.295 92.4937 335.631C92.4937 334.959 92.6017 334.343 92.8177 333.783C93.0337 333.223 93.3377 332.735 93.7297 332.319C94.1217 331.903 94.5857 331.583 95.1217 331.359C95.6577 331.127 96.2417 331.011 96.8737 331.011C97.4897 331.011 98.0417 331.119 98.5297 331.335C99.0257 331.551 99.4417 331.831 99.7777 332.175C100.122 332.519 100.366 332.887 100.51 333.279L99.4297 333.771C99.2217 333.275 98.8977 332.875 98.4577 332.571C98.0177 332.259 97.4897 332.103 96.8737 332.103C96.2497 332.103 95.6937 332.251 95.2057 332.547C94.7257 332.843 94.3497 333.255 94.0777 333.783C93.8057 334.311 93.6697 334.927 93.6697 335.631C93.6697 336.327 93.8057 336.939 94.0777 337.467C94.3497 337.995 94.7257 338.407 95.2057 338.703C95.6937 338.999 96.2497 339.147 96.8737 339.147C97.4897 339.147 98.0177 338.995 98.4577 338.691C98.8977 338.379 99.2217 337.975 99.4297 337.479L100.51 337.971C100.366 338.363 100.122 338.731 99.7777 339.075C99.4417 339.419 99.0257 339.699 98.5297 339.915C98.0417 340.131 97.4897 340.239 96.8737 340.239ZM101.977 340.095V331.011H103.093V340.095H101.977ZM104.825 340.095V333.627H105.941V340.095H104.825ZM104.825 332.595V331.155H105.941V332.595H104.825ZM110.673 340.239C110.041 340.239 109.477 340.091 108.981 339.795C108.493 339.499 108.109 339.095 107.829 338.583C107.549 338.071 107.409 337.495 107.409 336.855C107.409 336.207 107.549 335.631 107.829 335.127C108.109 334.623 108.493 334.223 108.981 333.927C109.477 333.631 110.041 333.483 110.673 333.483C111.097 333.483 111.493 333.559 111.861 333.711C112.229 333.863 112.553 334.067 112.833 334.323C113.113 334.579 113.317 334.879 113.445 335.223L112.449 335.703C112.297 335.367 112.065 335.095 111.753 334.887C111.441 334.671 111.081 334.563 110.673 334.563C110.281 334.563 109.925 334.663 109.605 334.863C109.293 335.063 109.045 335.335 108.861 335.679C108.677 336.023 108.585 336.419 108.585 336.867C108.585 337.299 108.677 337.691 108.861 338.043C109.045 338.387 109.293 338.659 109.605 338.859C109.925 339.059 110.281 339.159 110.673 339.159C111.081 339.159 111.441 339.055 111.753 338.847C112.065 338.631 112.297 338.347 112.449 337.995L113.445 338.499C113.317 338.835 113.113 339.135 112.833 339.399C112.553 339.655 112.229 339.859 111.861 340.011C111.493 340.163 111.097 340.239 110.673 340.239ZM114.903 340.095V331.011H116.019V337.239L115.563 337.131L118.995 333.627H120.423L117.939 336.231L120.591 340.095H119.271L116.847 336.591L117.543 336.555L115.659 338.523L116.019 337.707V340.095H114.903ZM121.726 340.095V331.155H122.902V335.139H127.378V331.155H128.566V340.095H127.378V336.219H122.902V340.095H121.726ZM133.491 340.239C132.867 340.239 132.303 340.095 131.799 339.807C131.295 339.511 130.895 339.107 130.599 338.595C130.303 338.083 130.155 337.503 130.155 336.855C130.155 336.207 130.299 335.631 130.587 335.127C130.883 334.623 131.283 334.223 131.787 333.927C132.291 333.631 132.859 333.483 133.491 333.483C134.115 333.483 134.679 333.631 135.183 333.927C135.687 334.215 136.083 334.611 136.371 335.115C136.667 335.619 136.815 336.199 136.815 336.855C136.815 337.511 136.663 338.095 136.359 338.607C136.055 339.111 135.651 339.511 135.147 339.807C134.651 340.095 134.099 340.239 133.491 340.239ZM133.491 339.159C133.891 339.159 134.251 339.059 134.571 338.859C134.899 338.659 135.155 338.383 135.339 338.031C135.531 337.679 135.627 337.287 135.627 336.855C135.627 336.415 135.531 336.027 135.339 335.691C135.155 335.347 134.899 335.075 134.571 334.875C134.251 334.667 133.891 334.563 133.491 334.563C133.083 334.563 132.715 334.667 132.387 334.875C132.067 335.075 131.811 335.347 131.619 335.691C131.427 336.027 131.331 336.415 131.331 336.855C131.331 337.287 131.427 337.679 131.619 338.031C131.811 338.383 132.067 338.659 132.387 338.859C132.715 339.059 133.083 339.159 133.491 339.159ZM140.562 340.239C140.098 340.239 139.678 340.131 139.302 339.915C138.934 339.699 138.646 339.399 138.438 339.015C138.238 338.623 138.138 338.175 138.138 337.671V333.627H139.254V337.551C139.254 337.871 139.318 338.151 139.446 338.391C139.582 338.631 139.766 338.819 139.998 338.955C140.238 339.091 140.51 339.159 140.814 339.159C141.118 339.159 141.386 339.091 141.618 338.955C141.858 338.819 142.042 338.623 142.17 338.367C142.306 338.111 142.374 337.807 142.374 337.455V333.627H143.502V340.095H142.41V338.835L142.59 338.943C142.438 339.351 142.178 339.671 141.81 339.903C141.45 340.127 141.034 340.239 140.562 340.239ZM147.547 340.239C146.899 340.239 146.335 340.079 145.855 339.759C145.375 339.439 145.035 339.007 144.835 338.463L145.723 338.031C145.907 338.415 146.159 338.719 146.479 338.943C146.799 339.167 147.155 339.279 147.547 339.279C147.899 339.279 148.191 339.195 148.423 339.027C148.655 338.859 148.771 338.639 148.771 338.367C148.771 338.175 148.715 338.023 148.603 337.911C148.499 337.791 148.371 337.699 148.219 337.635C148.067 337.563 147.927 337.511 147.799 337.479L146.827 337.203C146.243 337.035 145.815 336.795 145.543 336.483C145.279 336.171 145.147 335.807 145.147 335.391C145.147 335.007 145.243 334.675 145.435 334.395C145.635 334.107 145.903 333.883 146.239 333.723C146.583 333.563 146.967 333.483 147.391 333.483C147.959 333.483 148.467 333.627 148.915 333.915C149.371 334.203 149.695 334.607 149.887 335.127L148.975 335.547C148.831 335.211 148.615 334.947 148.327 334.755C148.039 334.555 147.715 334.455 147.355 334.455C147.027 334.455 146.767 334.539 146.575 334.707C146.383 334.867 146.287 335.071 146.287 335.319C146.287 335.503 146.335 335.655 146.431 335.775C146.527 335.887 146.643 335.975 146.779 336.039C146.915 336.095 147.047 336.143 147.175 336.183L148.231 336.495C148.759 336.647 149.167 336.883 149.455 337.203C149.751 337.523 149.899 337.907 149.899 338.355C149.899 338.715 149.799 339.039 149.599 339.327C149.399 339.615 149.123 339.839 148.771 339.999C148.419 340.159 148.011 340.239 147.547 340.239ZM154.336 340.239C153.712 340.239 153.156 340.091 152.668 339.795C152.18 339.499 151.796 339.095 151.516 338.583C151.236 338.063 151.096 337.483 151.096 336.843C151.096 336.195 151.232 335.619 151.504 335.115C151.784 334.611 152.16 334.215 152.632 333.927C153.112 333.631 153.648 333.483 154.24 333.483C154.72 333.483 155.144 333.571 155.512 333.747C155.888 333.915 156.204 334.147 156.46 334.443C156.724 334.731 156.924 335.063 157.06 335.439C157.204 335.807 157.276 336.191 157.276 336.591C157.276 336.679 157.268 336.779 157.252 336.891C157.244 336.995 157.232 337.095 157.216 337.191H151.912V336.231H156.568L156.04 336.663C156.112 336.247 156.072 335.875 155.92 335.547C155.768 335.219 155.544 334.959 155.248 334.767C154.952 334.575 154.616 334.479 154.24 334.479C153.864 334.479 153.52 334.575 153.208 334.767C152.896 334.959 152.652 335.235 152.476 335.595C152.308 335.947 152.24 336.367 152.272 336.855C152.24 337.327 152.312 337.743 152.488 338.103C152.672 338.455 152.928 338.731 153.256 338.931C153.592 339.123 153.956 339.219 154.348 339.219C154.78 339.219 155.144 339.119 155.44 338.919C155.736 338.719 155.976 338.463 156.16 338.151L157.096 338.631C156.968 338.927 156.768 339.199 156.496 339.447C156.232 339.687 155.916 339.879 155.548 340.023C155.188 340.167 154.784 340.239 154.336 340.239Z" fill="#26272B"/>
<g filter="url(#filter2_d_20184_12453)">
<path d="M187.762 292.238C187.762 277.195 199.957 265 215 265C230.043 265 242.238 277.195 242.238 292.238C242.238 307.281 230.043 319.476 215 319.476C199.957 319.476 187.762 307.281 187.762 292.238Z" fill="white" shape-rendering="crispEdges"/>
<path d="M215 265.381C229.833 265.381 241.857 277.406 241.857 292.238C241.857 307.071 229.833 319.096 215 319.096C200.167 319.096 188.143 307.071 188.143 292.238C188.143 277.405 200.167 265.381 215 265.381Z" stroke="black" stroke-opacity="0.08" stroke-width="0.761905" shape-rendering="crispEdges"/>
<path d="M216.485 278.596C217.2 278.667 217.905 278.793 218.566 279.089C219.649 279.574 220.594 280.275 221.372 281.189C222.099 282.04 222.674 283.001 223.093 284.059C223.161 284.228 223.208 284.403 223.274 284.61C222.807 284.586 222.378 284.551 221.949 284.626C221.886 284.638 221.818 284.642 221.755 284.654C220.653 284.872 220.02 285.639 219.978 286.816C219.949 287.592 220.123 288.33 220.353 289.062C220.671 290.058 221.112 290.996 221.567 291.931C221.804 292.419 222.036 292.909 222.259 293.406C222.437 293.809 222.713 294.165 222.945 294.545C222.992 294.618 223.067 294.671 223.077 294.772C223.058 294.789 223.039 294.814 223.016 294.824C222.27 295.082 222.022 295.703 221.975 296.441C221.823 298.551 221.598 300.654 221.3 302.748C221.218 303.364 221.065 303.957 220.784 304.506C220.681 304.704 220.535 304.875 220.355 305.008C219.626 305.551 218.819 305.845 217.917 305.842C217.047 305.84 216.522 305.28 216.159 304.475C215.802 303.692 215.805 302.837 215.753 302C215.643 300.209 215.683 298.413 215.692 296.62C215.706 296.294 215.633 295.97 215.483 295.681C215.332 295.392 215.109 295.147 214.834 294.972C214.588 294.807 214.304 294.793 214.004 294.803C214.121 294.217 214.286 293.661 214.527 293.148C215.575 290.895 215.519 288.565 214.926 286.232C214.656 285.168 213.967 284.675 212.792 284.729C212.052 284.741 211.331 284.967 210.717 285.381C210.661 285.423 210.598 285.479 210.49 285.437C210.469 285.043 210.551 284.65 210.614 284.258C210.795 283.121 211.107 282.022 211.674 281.025C212.759 279.117 214.412 278.39 216.485 278.596ZM214.635 295.755C214.963 296.045 215.019 296.549 214.766 296.91C213.941 298.082 212.469 298.495 211.21 297.907C211.151 297.881 211.1 297.843 210.994 297.782C211.346 297.618 211.674 297.571 211.986 297.482C212.6 297.309 213.144 297.006 213.517 296.437C213.657 296.219 213.8 296.005 213.962 295.811C214.178 295.553 214.393 295.541 214.635 295.755ZM208.844 278.948C209.679 278.976 210.507 279.136 211.32 279.351C211.611 279.429 211.864 279.586 212.183 279.696C211.951 280.019 211.711 280.289 211.515 280.603C210.706 281.902 210.335 283.351 210.115 284.856C209.974 285.803 209.965 286.755 210.014 287.709C210.07 288.771 210.014 289.828 209.916 290.885C209.782 292.278 210.087 293.537 211.018 294.589C211.1 294.683 211.165 294.791 211.25 294.908C211.015 295.222 210.746 295.522 210.495 295.832C209.965 296.481 209.463 297.154 208.943 297.808C208.544 298.308 207.853 298.282 207.44 297.78C206.451 296.573 205.956 295.117 205.466 293.652C205.079 292.48 204.756 291.288 204.498 290.081C204.104 288.253 203.659 286.431 203.668 284.537C203.673 283.407 203.811 282.296 204.292 281.269C204.587 280.628 205.049 280.078 205.628 279.675C206.617 278.981 207.719 278.908 208.842 278.948H208.844ZM223.492 295.56C224.066 295.94 224.704 295.963 225.351 295.923C225.796 295.895 226.239 295.825 226.685 295.745C226.122 296.303 225.487 296.692 224.722 296.817C224.141 296.91 223.56 296.967 222.974 296.882C222.582 296.828 222.552 296.77 222.591 296.35C222.645 295.823 222.774 295.663 223.234 295.53C223.33 295.501 223.405 295.504 223.492 295.56ZM212.973 285.526C213.315 285.515 213.646 285.571 213.92 285.829C214.092 286 214.207 286.222 214.248 286.462C214.543 287.852 214.729 289.251 214.49 290.681C214.378 291.293 214.2 291.892 213.96 292.465C213.718 293.068 213.507 293.685 213.357 294.32C213.315 294.493 213.252 294.564 213.076 294.543C212.232 294.437 211.611 293.952 211.128 293.234C210.476 292.273 210.403 291.195 210.553 290.065C210.633 289.434 210.649 288.796 210.6 288.161V286.722C210.598 286.605 210.593 286.502 210.701 286.412C211.372 285.859 212.129 285.559 212.973 285.526ZM225.076 279.361C225.944 279.846 226.675 280.531 227.236 281.379C227.461 281.721 227.5 282.153 227.522 282.565C227.585 283.733 227.437 284.882 227.198 286.016C226.795 287.929 226.19 289.774 225.412 291.558C225.034 292.426 224.617 293.27 224.174 294.097C224.127 294.186 224.092 294.299 223.982 294.334C223.879 294.275 223.893 294.2 223.937 294.109C224.519 292.986 224.587 291.772 224.427 290.553C224.262 289.186 224.284 287.803 224.493 286.443C224.61 285.601 224.53 284.785 224.174 284C223.82 283.183 223.387 282.402 222.88 281.67C222.326 280.902 221.675 280.21 220.943 279.609C220.557 279.288 220.123 279.07 219.663 278.789C220.069 278.66 220.444 278.632 220.819 278.601C222.298 278.482 223.745 278.618 225.076 279.361ZM223.156 285.44C223.208 285.768 223.152 286.073 223.105 286.363C222.916 287.623 222.908 288.903 223.079 290.166C223.159 290.836 223.173 291.511 223.056 292.184C223.013 292.44 222.937 292.689 222.831 292.925C222.674 292.756 222.62 292.557 222.54 292.379C222.139 291.469 221.668 290.597 221.311 289.664C220.983 288.813 220.679 287.953 220.646 287.015C220.613 285.993 220.988 285.543 221.93 285.414C222.336 285.36 222.732 285.39 223.156 285.437V285.44ZM213.099 285.955C213.013 285.972 212.891 285.979 212.78 286.019C212.577 286.087 212.511 286.255 212.581 286.457C212.622 286.594 212.7 286.716 212.806 286.812C212.913 286.907 213.043 286.971 213.184 286.996C213.458 287.05 213.688 286.935 213.868 286.715C213.978 286.586 213.985 286.445 213.882 286.293C213.695 286.005 213.409 286 213.099 285.955ZM222.031 285.768C221.814 285.755 221.598 285.802 221.405 285.904C221.143 286.049 221.124 286.274 221.349 286.483C221.607 286.717 221.926 286.727 222.2 286.509C222.371 286.375 222.514 286.199 222.451 285.969C222.385 285.74 222.16 285.784 222.031 285.768Z" fill="#326192"/>
</g>
<path d="M206.996 340.095V331.155H210.152C210.744 331.155 211.264 331.267 211.712 331.491C212.16 331.715 212.508 332.035 212.756 332.451C213.012 332.867 213.14 333.355 213.14 333.915C213.14 334.475 213.012 334.963 212.756 335.379C212.508 335.787 212.16 336.107 211.712 336.339C211.272 336.563 210.752 336.675 210.152 336.675H208.172V340.095H206.996ZM208.172 335.595H210.188C210.548 335.595 210.86 335.527 211.124 335.391C211.388 335.255 211.592 335.059 211.736 334.803C211.88 334.547 211.952 334.251 211.952 333.915C211.952 333.571 211.88 333.275 211.736 333.027C211.592 332.771 211.388 332.575 211.124 332.439C210.86 332.303 210.548 332.235 210.188 332.235H208.172V335.595ZM218.858 340.239C218.226 340.239 217.642 340.127 217.106 339.903C216.57 339.671 216.106 339.347 215.714 338.931C215.322 338.515 215.014 338.027 214.79 337.467C214.574 336.907 214.466 336.295 214.466 335.631C214.466 334.959 214.574 334.343 214.79 333.783C215.006 333.223 215.31 332.735 215.702 332.319C216.094 331.903 216.558 331.583 217.094 331.359C217.63 331.127 218.214 331.011 218.846 331.011C219.462 331.011 220.014 331.119 220.502 331.335C220.998 331.551 221.414 331.831 221.75 332.175C222.094 332.519 222.338 332.887 222.482 333.279L221.426 333.795C221.218 333.275 220.894 332.863 220.454 332.559C220.014 332.255 219.478 332.103 218.846 332.103C218.222 332.103 217.666 332.251 217.178 332.547C216.698 332.843 216.322 333.255 216.05 333.783C215.778 334.311 215.642 334.927 215.642 335.631C215.642 336.327 215.778 336.939 216.05 337.467C216.33 337.995 216.71 338.407 217.19 338.703C217.678 338.999 218.234 339.147 218.858 339.147C219.402 339.147 219.894 339.031 220.334 338.799C220.774 338.567 221.122 338.247 221.378 337.839C221.634 337.431 221.762 336.959 221.762 336.423V335.871L222.302 336.375H218.846V335.355H222.95V336.147C222.95 336.771 222.842 337.335 222.626 337.839C222.41 338.343 222.114 338.775 221.738 339.135C221.362 339.487 220.926 339.759 220.43 339.951C219.934 340.143 219.41 340.239 218.858 340.239Z" fill="#26272B"/>
<g filter="url(#filter3_d_20184_12453)">
<path d="M271.238 292.238C271.238 277.195 283.433 265 298.476 265C313.52 265 325.714 277.195 325.714 292.238C325.714 307.281 313.52 319.476 298.476 319.476C283.433 319.476 271.238 307.281 271.238 292.238Z" fill="white" shape-rendering="crispEdges"/>
<path d="M298.477 265.381C313.309 265.381 325.334 277.406 325.334 292.238C325.334 307.071 313.309 319.096 298.477 319.096C283.644 319.096 271.619 307.071 271.619 292.238C271.619 277.405 283.644 265.381 298.477 265.381Z" stroke="black" stroke-opacity="0.08" stroke-width="0.761905" shape-rendering="crispEdges"/>
<g clip-path="url(#clip2_20184_12453)">
<path d="M313.707 295.21C313.694 295.5 313.309 295.825 312.52 296.238C310.894 297.085 302.467 300.55 300.674 301.485C298.88 302.42 297.885 302.411 296.467 301.733C295.05 301.056 286.085 297.433 284.47 296.662C283.664 296.276 283.252 295.951 283.238 295.644V298.724C283.238 299.032 283.662 299.358 284.47 299.744C286.085 300.516 295.052 304.138 296.467 304.815C297.885 305.493 298.88 305.502 300.674 304.566C302.467 303.631 310.893 300.167 312.52 299.319C313.346 298.888 313.713 298.553 313.713 298.25V295.212L313.707 295.21Z" fill="#D81E06"/>
<path d="M313.706 290.187C313.693 290.478 313.308 290.802 312.52 291.215C310.894 292.062 302.467 295.527 300.674 296.462C298.88 297.396 297.885 297.387 296.467 296.71C295.05 296.034 286.085 292.411 284.47 291.639C283.664 291.254 283.252 290.928 283.238 290.622V293.702C283.238 294.01 283.662 294.335 284.47 294.721C286.085 295.493 295.05 299.114 296.467 299.791C297.885 300.469 298.88 300.478 300.674 299.544C302.467 298.609 310.893 295.144 312.52 294.297C313.346 293.865 313.713 293.53 313.713 293.226V290.189L313.706 290.187Z" fill="#D81E06"/>
<path d="M313.709 284.978C313.724 284.669 313.319 284.397 312.503 284.097C310.919 283.517 302.544 280.183 300.94 279.596C299.336 279.009 298.684 279.033 296.801 279.71C294.914 280.384 285.997 283.883 284.411 284.502C283.617 284.815 283.23 285.103 283.242 285.41V288.492C283.242 288.799 283.667 289.124 284.474 289.51C286.089 290.283 295.055 293.905 296.472 294.582C297.889 295.259 298.884 295.268 300.679 294.333C302.472 293.399 310.897 289.933 312.524 289.086C313.35 288.655 313.717 288.319 313.717 288.016V284.978H313.707H313.709ZM294.154 287.895L301.216 286.811L299.082 289.938L294.156 287.895H294.154ZM309.773 285.079L305.597 286.73L305.143 286.907L300.969 285.257L305.594 283.428L309.772 285.079H309.773ZM297.512 282.053L296.829 280.793L298.959 281.626L300.968 280.968L300.425 282.27L302.472 283.037L299.832 283.311L299.24 284.733L298.285 283.147L295.237 282.873L297.512 282.053ZM292.251 283.83C294.336 283.83 296.025 284.484 296.025 285.292C296.025 286.1 294.336 286.755 292.251 286.755C290.166 286.755 288.476 286.098 288.476 285.292C288.476 284.484 290.166 283.829 292.251 283.829V283.83Z" fill="#D81E06"/>
</g>
</g>
<path d="M283.473 340.095V331.155H286.629C287.221 331.155 287.741 331.267 288.189 331.491C288.637 331.715 288.985 332.035 289.233 332.451C289.489 332.867 289.617 333.355 289.617 333.915C289.617 334.547 289.457 335.083 289.137 335.523C288.817 335.963 288.385 336.279 287.841 336.471L289.917 340.095H288.549L286.365 336.219L287.145 336.675H284.649V340.095H283.473ZM284.649 335.595H286.665C287.017 335.595 287.325 335.527 287.589 335.391C287.853 335.255 288.057 335.059 288.201 334.803C288.353 334.547 288.429 334.251 288.429 333.915C288.429 333.571 288.353 333.275 288.201 333.027C288.057 332.771 287.853 332.575 287.589 332.439C287.325 332.303 287.017 332.235 286.665 332.235H284.649V335.595ZM293.735 340.239C293.111 340.239 292.555 340.091 292.067 339.795C291.579 339.499 291.195 339.095 290.915 338.583C290.635 338.063 290.495 337.483 290.495 336.843C290.495 336.195 290.631 335.619 290.903 335.115C291.183 334.611 291.559 334.215 292.031 333.927C292.511 333.631 293.047 333.483 293.639 333.483C294.119 333.483 294.543 333.571 294.911 333.747C295.287 333.915 295.603 334.147 295.859 334.443C296.123 334.731 296.323 335.063 296.459 335.439C296.603 335.807 296.675 336.191 296.675 336.591C296.675 336.679 296.667 336.779 296.651 336.891C296.643 336.995 296.631 337.095 296.615 337.191H291.311V336.231H295.967L295.439 336.663C295.511 336.247 295.471 335.875 295.319 335.547C295.167 335.219 294.943 334.959 294.647 334.767C294.351 334.575 294.015 334.479 293.639 334.479C293.263 334.479 292.919 334.575 292.607 334.767C292.295 334.959 292.051 335.235 291.875 335.595C291.707 335.947 291.639 336.367 291.671 336.855C291.639 337.327 291.711 337.743 291.887 338.103C292.071 338.455 292.327 338.731 292.655 338.931C292.991 339.123 293.355 339.219 293.747 339.219C294.179 339.219 294.543 339.119 294.839 338.919C295.135 338.719 295.375 338.463 295.559 338.151L296.495 338.631C296.367 338.927 296.167 339.199 295.895 339.447C295.631 339.687 295.315 339.879 294.947 340.023C294.587 340.167 294.183 340.239 293.735 340.239ZM301.07 340.239C300.462 340.239 299.914 340.091 299.426 339.795C298.946 339.499 298.566 339.095 298.286 338.583C298.006 338.071 297.866 337.499 297.866 336.867C297.866 336.219 298.006 335.643 298.286 335.139C298.566 334.627 298.946 334.223 299.426 333.927C299.914 333.631 300.462 333.483 301.07 333.483C301.606 333.483 302.082 333.599 302.498 333.831C302.914 334.055 303.242 334.359 303.482 334.743L303.302 335.019V331.011H304.43V340.095H303.338V338.715L303.482 338.907C303.258 339.331 302.93 339.659 302.498 339.891C302.074 340.123 301.598 340.239 301.07 340.239ZM301.166 339.159C301.574 339.159 301.938 339.059 302.258 338.859C302.578 338.659 302.83 338.387 303.014 338.043C303.206 337.691 303.302 337.299 303.302 336.867C303.302 336.427 303.206 336.035 303.014 335.691C302.83 335.339 302.578 335.063 302.258 334.863C301.938 334.663 301.574 334.563 301.166 334.563C300.766 334.563 300.402 334.667 300.074 334.875C299.754 335.075 299.502 335.347 299.318 335.691C299.134 336.027 299.042 336.419 299.042 336.867C299.042 337.299 299.134 337.691 299.318 338.043C299.502 338.387 299.754 338.659 300.074 338.859C300.394 339.059 300.758 339.159 301.166 339.159ZM306.157 340.095V333.627H307.273V340.095H306.157ZM306.157 332.595V331.155H307.273V332.595H306.157ZM311.321 340.239C310.673 340.239 310.109 340.079 309.629 339.759C309.149 339.439 308.809 339.007 308.609 338.463L309.497 338.031C309.681 338.415 309.933 338.719 310.253 338.943C310.573 339.167 310.929 339.279 311.321 339.279C311.673 339.279 311.965 339.195 312.197 339.027C312.429 338.859 312.545 338.639 312.545 338.367C312.545 338.175 312.489 338.023 312.377 337.911C312.273 337.791 312.145 337.699 311.993 337.635C311.841 337.563 311.701 337.511 311.573 337.479L310.601 337.203C310.017 337.035 309.589 336.795 309.317 336.483C309.053 336.171 308.921 335.807 308.921 335.391C308.921 335.007 309.017 334.675 309.209 334.395C309.409 334.107 309.677 333.883 310.013 333.723C310.357 333.563 310.741 333.483 311.165 333.483C311.733 333.483 312.241 333.627 312.689 333.915C313.145 334.203 313.469 334.607 313.661 335.127L312.749 335.547C312.605 335.211 312.389 334.947 312.101 334.755C311.813 334.555 311.489 334.455 311.129 334.455C310.801 334.455 310.541 334.539 310.349 334.707C310.157 334.867 310.061 335.071 310.061 335.319C310.061 335.503 310.109 335.655 310.205 335.775C310.301 335.887 310.417 335.975 310.553 336.039C310.689 336.095 310.821 336.143 310.949 336.183L312.005 336.495C312.533 336.647 312.941 336.883 313.229 337.203C313.525 337.523 313.673 337.907 313.673 338.355C313.673 338.715 313.573 339.039 313.373 339.327C313.173 339.615 312.897 339.839 312.545 339.999C312.193 340.159 311.785 340.239 311.321 340.239Z" fill="#26272B"/>
<path d="M49.2812 14.3438H41.6875C38.4306 14.3438 35.7812 11.6944 35.7812 8.4375V5.90625C35.7812 3.5775 37.6712 1.6875 40 1.6875H40.8438C41.3078 1.6875 41.6875 2.06719 41.6875 2.53125C41.6875 2.99531 41.3078 3.375 40.8438 3.375H40C38.6078 3.375 37.4688 4.51406 37.4688 5.90625V8.4375C37.4688 10.7662 39.3588 12.6562 41.6875 12.6562H48.4375V7.59375C48.4375 5.265 46.5475 3.375 44.2188 3.375C43.7547 3.375 43.375 2.99531 43.375 2.53125C43.375 2.06719 43.7547 1.6875 44.2188 1.6875C47.4756 1.6875 50.125 4.33688 50.125 7.59375V13.5C50.125 13.9641 49.7453 14.3438 49.2812 14.3438Z" fill="black"/>
<path d="M33.25 14.3438H30.7188C30.2547 14.3438 29.875 13.9641 29.875 13.5V9.28125C29.875 6.48844 32.1447 4.21875 34.9375 4.21875H36.625C37.0891 4.21875 37.4688 4.59844 37.4688 5.0625V10.125C37.4688 12.4537 35.5788 14.3438 33.25 14.3438ZM31.5625 12.6562H33.25C34.6422 12.6562 35.7812 11.5172 35.7812 10.125V5.90625H34.9375C33.0728 5.90625 31.5625 7.41656 31.5625 9.28125V12.6562Z" fill="black"/>
<path d="M40 26.1562C35.815 26.1562 32.4062 22.7475 32.4062 18.5625V13.5C32.4062 13.0359 32.7859 12.6562 33.25 12.6562C33.7141 12.6562 34.0938 13.0359 34.0938 13.5V18.5625C34.0938 21.8194 36.7431 24.4688 40 24.4688C43.2569 24.4688 45.9062 21.8194 45.9062 18.5625V13.5C45.9062 13.0359 46.2859 12.6562 46.75 12.6562C47.2141 12.6562 47.5938 13.0359 47.5938 13.5V18.5625C47.5938 22.7475 44.185 26.1562 40 26.1562Z" fill="black"/>
<path d="M47.5938 19.4062H46.75C46.2859 19.4062 45.9062 19.0266 45.9062 18.5625V13.5C45.9062 13.0359 46.2859 12.6562 46.75 12.6562H47.5938C49.4584 12.6562 50.9688 14.1666 50.9688 16.0312C50.9688 17.8959 49.4584 19.4062 47.5938 19.4062ZM47.5938 14.3438V17.7188C48.5219 17.7188 49.2812 16.9594 49.2812 16.0312C49.2812 15.1031 48.5219 14.3438 47.5938 14.3438Z" fill="black"/>
<path d="M33.25 19.4062H32.4062C30.5416 19.4062 29.0312 17.8959 29.0312 16.0312C29.0312 14.1666 30.5416 12.6562 32.4062 12.6562H33.25C33.7141 12.6562 34.0938 13.0359 34.0938 13.5V18.5625C34.0938 19.0266 33.7141 19.4062 33.25 19.4062ZM32.4062 14.3438C31.4781 14.3438 30.7188 15.1031 30.7188 16.0312C30.7188 16.9594 31.4781 17.7188 32.4062 17.7188V14.3438Z" fill="black"/>
<path d="M40 32.0625C37.6712 32.0625 35.7812 30.1725 35.7812 27.8437V24.4012C35.7812 23.9372 36.1609 23.5575 36.625 23.5575C37.0891 23.5575 37.4688 23.9372 37.4688 24.4012V27.8437C37.4688 29.2359 38.6078 30.375 40 30.375C41.3922 30.375 42.5312 29.2359 42.5312 27.8437V24.4012C42.5312 23.9372 42.9109 23.5575 43.375 23.5575C43.8391 23.5575 44.2188 23.9372 44.2188 24.4012V27.8437C44.2188 30.1725 42.3288 32.0625 40 32.0625Z" fill="black"/>
<path d="M55.8709 44.7188C55.795 44.7188 55.7191 44.7103 55.6516 44.685C55.2044 44.5584 54.9344 44.0944 55.0609 43.6472C55.1453 43.3266 55.1959 43.0059 55.1959 42.6938V35.9016C55.1959 33.0919 53.1963 30.6619 50.4456 30.105L46.5559 29.3288C46.1003 29.2359 45.805 28.7972 45.8894 28.3331C45.9822 27.8775 46.4209 27.5822 46.885 27.6666L50.7747 28.4428C54.31 29.1516 56.875 32.2819 56.875 35.8931V42.6853C56.875 43.1494 56.8075 43.6134 56.6809 44.0775C56.5797 44.4572 56.2422 44.7019 55.8709 44.7019V44.7188Z" fill="black"/>
<path d="M24.1375 44.7188C23.7747 44.7188 23.4372 44.4825 23.3275 44.1112C23.1925 43.6556 23.125 43.1747 23.125 42.7022V35.91C23.125 32.2988 25.69 29.1684 29.2253 28.4597L33.115 27.6834C33.5706 27.5906 34.0178 27.8859 34.1106 28.35C34.2034 28.8141 33.9081 29.2528 33.4441 29.3456L29.5544 30.1219C26.8038 30.6703 24.8125 33.1087 24.8125 35.9184V42.7106C24.8125 43.0312 24.8547 43.3434 24.9475 43.6472C25.0825 44.0944 24.8209 44.5669 24.3737 44.6934C24.2978 44.7188 24.2134 44.7272 24.1375 44.7272V44.7188Z" fill="black"/>
<path d="M50.125 52.3125H45.9062C45.4422 52.3125 45.0625 51.9328 45.0625 51.4688C45.0625 51.0047 45.4422 50.625 45.9062 50.625H50.125C50.5891 50.625 50.9688 50.2453 50.9688 49.7812V36.2812C50.9688 35.8172 50.5891 35.4375 50.125 35.4375H29.875C29.4109 35.4375 29.0312 35.8172 29.0312 36.2812V49.7812C29.0312 50.2453 29.4109 50.625 29.875 50.625H42.5312C42.9953 50.625 43.375 51.0047 43.375 51.4688C43.375 51.9328 42.9953 52.3125 42.5312 52.3125H29.875C28.4828 52.3125 27.3438 51.1734 27.3438 49.7812V36.2812C27.3438 34.8891 28.4828 33.75 29.875 33.75H50.125C51.5172 33.75 52.6562 34.8891 52.6562 36.2812V49.7812C52.6562 51.1734 51.5172 52.3125 50.125 52.3125Z" fill="black"/>
<path d="M58.5625 52.3125H55.1875C54.7234 52.3125 54.3438 51.9328 54.3438 51.4688C54.3438 51.0047 54.7234 50.625 55.1875 50.625H58.5625V48.0938H55.1875C54.7234 48.0938 54.3438 47.7141 54.3438 47.25C54.3438 46.7859 54.7234 46.4062 55.1875 46.4062H58.5625C59.4906 46.4062 60.25 47.1656 60.25 48.0938V50.625C60.25 51.5531 59.4906 52.3125 58.5625 52.3125Z" fill="black"/>
<path d="M24.8125 52.3125H21.4375C20.5094 52.3125 19.75 51.5531 19.75 50.625V48.0938C19.75 47.1656 20.5094 46.4062 21.4375 46.4062H24.8125C25.2766 46.4062 25.6562 46.7859 25.6562 47.25C25.6562 47.7141 25.2766 48.0938 24.8125 48.0938H21.4375V50.625H24.8125C25.2766 50.625 25.6562 51.0047 25.6562 51.4688C25.6562 51.9328 25.2766 52.3125 24.8125 52.3125Z" fill="black"/>
<path d="M38.3137 47.25C38.1872 47.25 38.0606 47.2247 37.934 47.1572C37.5206 46.9463 37.3519 46.44 37.5544 46.0266L40.9294 39.2766C41.1403 38.8631 41.6465 38.6944 42.06 38.8969C42.4734 39.1078 42.6422 39.6141 42.4397 40.0275L39.0647 46.7775C38.9128 47.0728 38.6175 47.2416 38.3053 47.2416L38.3137 47.25Z" fill="black"/>
<path d="M44.217 45.5625C43.9976 45.5625 43.7866 45.4781 43.6179 45.3178C43.2888 44.9888 43.2888 44.4572 43.6179 44.1281L44.7063 43.0397L43.6179 41.9513C43.2888 41.6222 43.2888 41.0906 43.6179 40.7616C43.947 40.4325 44.4785 40.4325 44.8076 40.7616L46.4951 42.4491C46.8241 42.7781 46.8241 43.3097 46.4951 43.6388L44.8076 45.3263C44.6388 45.495 44.4279 45.5709 44.2085 45.5709L44.217 45.5625Z" fill="black"/>
<path d="M35.7795 45.5625C35.5601 45.5625 35.3491 45.4781 35.1804 45.3178L33.4929 43.6303C33.1638 43.3012 33.1638 42.7697 33.4929 42.4406L35.1804 40.7531C35.5095 40.4241 36.041 40.4241 36.3701 40.7531C36.6991 41.0822 36.6991 41.6137 36.3701 41.9428L35.2816 43.0312L36.3701 44.1197C36.6991 44.4487 36.6991 44.9803 36.3701 45.3094C36.2013 45.4781 35.9904 45.5541 35.771 45.5541L35.7795 45.5625Z" fill="black"/>
<path d="M17.068 65.319H27.016V66.183H17.068V65.319ZM16.624 69.603H27.388V70.467H16.624V69.603ZM23.788 65.775H24.712V75.591H23.788V65.775ZM19.516 65.763H20.428V69.087C20.428 69.671 20.396 70.259 20.332 70.851C20.268 71.443 20.132 72.023 19.924 72.591C19.724 73.151 19.42 73.691 19.012 74.211C18.604 74.723 18.056 75.195 17.368 75.627C17.312 75.547 17.244 75.467 17.164 75.387C17.084 75.307 16.996 75.227 16.9 75.147C16.812 75.067 16.728 75.003 16.648 74.955C17.296 74.555 17.812 74.123 18.196 73.659C18.58 73.195 18.864 72.711 19.048 72.207C19.24 71.703 19.364 71.187 19.42 70.659C19.484 70.131 19.516 69.607 19.516 69.087V65.763ZM32.884 69.759C33.42 71.071 34.252 72.163 35.38 73.035C36.516 73.899 37.912 74.491 39.568 74.811C39.512 74.875 39.444 74.951 39.364 75.039C39.292 75.135 39.224 75.231 39.16 75.327C39.096 75.431 39.044 75.527 39.004 75.615C37.876 75.359 36.868 74.979 35.98 74.475C35.092 73.971 34.328 73.343 33.688 72.591C33.048 71.839 32.524 70.975 32.116 69.999L32.884 69.759ZM37.168 69.423H37.348L37.516 69.375L38.128 69.663C37.864 70.503 37.504 71.247 37.048 71.895C36.592 72.543 36.064 73.107 35.464 73.587C34.872 74.067 34.228 74.471 33.532 74.799C32.836 75.127 32.112 75.395 31.36 75.603C31.312 75.491 31.24 75.355 31.144 75.195C31.056 75.043 30.968 74.923 30.88 74.835C31.584 74.667 32.264 74.435 32.92 74.139C33.576 73.835 34.18 73.467 34.732 73.035C35.292 72.595 35.78 72.091 36.196 71.523C36.612 70.947 36.936 70.299 37.168 69.579V69.423ZM32.62 69.423H37.312V70.287H32.356L32.62 69.423ZM33.436 64.491L34.444 64.659C34.284 65.795 34.072 66.859 33.808 67.851C33.544 68.835 33.2 69.743 32.776 70.575C32.352 71.407 31.832 72.163 31.216 72.843C30.608 73.515 29.88 74.111 29.032 74.631C28.992 74.567 28.932 74.491 28.852 74.403C28.772 74.307 28.688 74.219 28.6 74.139C28.52 74.051 28.44 73.983 28.36 73.935C29.424 73.287 30.296 72.503 30.976 71.583C31.664 70.655 32.204 69.599 32.596 68.415C32.988 67.223 33.268 65.915 33.436 64.491ZM36.076 65.139L36.772 64.707C36.948 64.883 37.132 65.079 37.324 65.295C37.524 65.503 37.712 65.707 37.888 65.907C38.064 66.107 38.208 66.279 38.32 66.423L37.612 66.915C37.5 66.763 37.356 66.583 37.18 66.375C37.004 66.167 36.82 65.955 36.628 65.739C36.436 65.523 36.252 65.323 36.076 65.139ZM29.728 68.343C29.712 68.271 29.684 68.183 29.644 68.079C29.612 67.975 29.576 67.871 29.536 67.767C29.504 67.655 29.468 67.563 29.428 67.491C29.516 67.467 29.592 67.415 29.656 67.335C29.728 67.255 29.8 67.147 29.872 67.011C29.92 66.931 29.992 66.783 30.088 66.567C30.192 66.343 30.3 66.083 30.412 65.787C30.524 65.483 30.612 65.179 30.676 64.875L31.636 65.055C31.54 65.391 31.424 65.731 31.288 66.075C31.16 66.411 31.024 66.727 30.88 67.023C30.736 67.319 30.596 67.579 30.46 67.803V67.827C30.46 67.827 30.424 67.843 30.352 67.875C30.28 67.907 30.192 67.951 30.088 68.007C29.992 68.055 29.908 68.111 29.836 68.175C29.764 68.231 29.728 68.287 29.728 68.343ZM29.728 68.343V67.635L30.34 67.275H39.172L39.16 68.139H31.012C30.628 68.139 30.332 68.159 30.124 68.199C29.924 68.231 29.792 68.279 29.728 68.343ZM45.376 64.911H46.384C46.368 65.223 46.34 65.635 46.3 66.147C46.26 66.659 46.184 67.239 46.072 67.887C45.968 68.527 45.804 69.195 45.58 69.891C45.356 70.587 45.056 71.275 44.68 71.955C44.304 72.635 43.824 73.279 43.24 73.887C42.664 74.495 41.96 75.023 41.128 75.471C41.056 75.359 40.952 75.239 40.816 75.111C40.68 74.983 40.54 74.871 40.396 74.775C41.22 74.351 41.912 73.855 42.472 73.287C43.032 72.719 43.492 72.111 43.852 71.463C44.212 70.815 44.492 70.163 44.692 69.507C44.892 68.843 45.04 68.211 45.136 67.611C45.232 67.011 45.292 66.479 45.316 66.015C45.348 65.543 45.368 65.175 45.376 64.911ZM46.336 65.151C46.344 65.287 46.36 65.523 46.384 65.859C46.416 66.187 46.472 66.587 46.552 67.059C46.632 67.531 46.748 68.043 46.9 68.595C47.052 69.147 47.256 69.715 47.512 70.299C47.768 70.883 48.084 71.451 48.46 72.003C48.836 72.555 49.288 73.067 49.816 73.539C50.344 74.003 50.964 74.395 51.676 74.715C51.54 74.819 51.408 74.939 51.28 75.075C51.16 75.219 51.06 75.351 50.98 75.471C50.26 75.127 49.624 74.707 49.072 74.211C48.528 73.707 48.06 73.163 47.668 72.579C47.284 71.987 46.96 71.383 46.696 70.767C46.44 70.151 46.232 69.551 46.072 68.967C45.912 68.375 45.792 67.827 45.712 67.323C45.632 66.811 45.576 66.375 45.544 66.015C45.512 65.647 45.492 65.383 45.484 65.223L46.336 65.151ZM55.216 65.859V67.227H60.82V65.859H55.216ZM54.28 65.079H61.804V68.007H54.28V65.079ZM57.46 70.695H58.42V71.811C58.42 72.067 58.388 72.331 58.324 72.603C58.26 72.867 58.132 73.135 57.94 73.407C57.748 73.679 57.464 73.947 57.088 74.211C56.72 74.475 56.232 74.727 55.624 74.967C55.024 75.207 54.276 75.427 53.38 75.627C53.348 75.555 53.296 75.471 53.224 75.375C53.16 75.287 53.088 75.199 53.008 75.111C52.936 75.023 52.864 74.947 52.792 74.883C53.656 74.715 54.372 74.531 54.94 74.331C55.508 74.131 55.96 73.923 56.296 73.707C56.64 73.491 56.892 73.271 57.052 73.047C57.22 72.823 57.328 72.607 57.376 72.399C57.432 72.191 57.46 71.991 57.46 71.799V70.695ZM58.348 73.839L58.792 73.179C59.152 73.291 59.536 73.419 59.944 73.563C60.352 73.707 60.756 73.855 61.156 74.007C61.564 74.159 61.948 74.307 62.308 74.451C62.668 74.595 62.976 74.731 63.232 74.859L62.776 75.627C62.528 75.499 62.228 75.359 61.876 75.207C61.524 75.055 61.144 74.899 60.736 74.739C60.336 74.579 59.928 74.423 59.512 74.271C59.104 74.111 58.716 73.967 58.348 73.839ZM53.86 69.087H62.272V73.431H61.312V69.927H54.784V73.515H53.86V69.087Z" fill="#26272B"/>
<path d="M174.553 19.6625H173.166V14.6765H170.609V19.6625H169.223V13.9833C169.223 13.6004 169.533 13.29 169.916 13.29H173.859C174.242 13.29 174.553 13.6004 174.553 13.9833V19.6625Z" fill="black"/>
<path d="M182.342 19.6625H180.955V9.45792H178.398V19.6625H177.012V8.76467C177.012 8.38176 177.322 8.07143 177.705 8.07143H181.648C182.031 8.07143 182.342 8.38176 182.342 8.76467V19.6625Z" fill="black"/>
<path d="M190.127 21.8264H188.74V4.47764H186.183V19.6625H184.797V3.78439C184.797 3.40148 185.107 3.09114 185.49 3.09114H189.434C189.816 3.09114 190.127 3.40148 190.127 3.78439V21.8264Z" fill="black"/>
<path d="M159.395 23.6503C157.507 23.6503 155.271 22.7055 152.857 20.8527C152.553 20.6195 152.496 20.1843 152.729 19.8805C152.963 19.5772 153.398 19.52 153.701 19.7527C156.826 22.1511 159.59 22.8677 161.282 21.7141C163.457 20.2328 163.813 15.8382 162.209 10.246C162.103 9.87794 162.316 9.49394 162.684 9.38833C163.052 9.28489 163.435 9.4953 163.541 9.86359C165.343 16.1443 164.79 21.0029 162.062 22.8601C161.286 23.3887 160.389 23.6503 159.395 23.6503Z" fill="black"/>
<path d="M150.342 17.1958C150.221 17.1958 150.1 17.1649 149.99 17.0994C147.17 15.4331 146.181 13.0363 145.849 11.3191C145.349 8.74004 146.004 5.88066 147.557 3.8567C149.929 0.765248 153.687 1.43358 157.666 2.13929C158.01 2.20049 158.357 2.26196 158.706 2.32181C162.202 2.92028 165.389 1.4325 165.42 1.41706C165.599 1.33284 165.805 1.32743 165.986 1.40379C166.168 1.47989 166.309 1.62964 166.374 1.81595C167.291 4.46194 167.272 6.50377 166.317 8.05762C164.765 10.5855 161.172 11.0754 158.003 11.5073C156.044 11.7746 154.02 12.0506 153.467 12.7888C153.383 12.9009 153.277 13.0934 153.334 13.4685C153.391 13.8471 153.13 14.2002 152.752 14.2571C152.373 14.3153 152.02 14.054 151.963 13.6748C151.864 13.0168 151.996 12.4392 152.357 11.9577C153.258 10.7551 155.37 10.4672 157.815 10.1336C160.68 9.74308 163.927 9.30033 165.136 7.33188C165.772 6.29688 165.822 4.83131 165.286 2.96902C164.047 3.42586 161.396 4.18897 158.472 3.68826C158.12 3.62815 157.771 3.56613 157.424 3.50466C153.718 2.84662 150.516 2.27821 148.656 4.70079C147.338 6.41928 146.783 8.85432 147.21 11.0557C147.488 12.4933 148.319 14.5016 150.695 15.9057C151.025 16.1004 151.134 16.5255 150.939 16.8551C150.81 17.0742 150.579 17.1958 150.342 17.1958Z" fill="black"/>
<path d="M148.637 15.8009H150.023V23.7983H148.637V15.8009Z" fill="black"/>
<path d="M155.957 22.3285H157.344V26.0345H155.957V22.3285Z" fill="black"/>
<path d="M163.524 52.65C163.154 52.65 162.847 52.357 162.832 51.9835C162.773 50.4565 162.7 49.0678 162.611 47.7385C162.585 47.3567 162.874 47.026 163.256 47.0003C163.636 46.9737 163.969 47.2635 163.994 47.6453C164.085 48.988 164.158 50.3896 164.217 51.9299C164.232 52.3126 163.934 52.6345 163.551 52.6494C163.543 52.6497 163.533 52.65 163.524 52.65Z" fill="black"/>
<path d="M144.568 52.65C144.568 52.65 144.567 52.65 144.567 52.65C144.184 52.6492 143.874 52.3383 143.875 51.9554C143.891 43.9083 144.835 35.3989 146.762 25.9423C146.865 25.0874 147.346 24.3425 148.084 23.8945C148.837 23.4388 149.739 23.3603 150.561 23.6809L158.981 26.9982C159.125 27.0548 159.245 27.1571 159.324 27.2896C161.392 30.7758 162.764 35.6567 163.52 42.2107C163.564 42.5909 163.291 42.9348 162.911 42.9786C162.529 43.0209 162.187 42.7495 162.143 42.3693C161.425 36.142 160.151 31.5035 158.25 28.2003L150.055 24.9718C149.64 24.8101 149.185 24.8494 148.803 25.0801C148.427 25.3084 148.183 25.6897 148.136 26.1265C148.134 26.1476 148.13 26.169 148.126 26.1899C146.215 35.5668 145.277 43.9958 145.261 51.9581C145.261 52.3405 144.951 52.65 144.568 52.65Z" fill="black"/>
<path d="M157.026 48.3879C152.932 48.3879 149.602 45.0573 149.602 40.9636V31.2514C149.602 30.8685 149.912 30.5581 150.295 30.5581C150.678 30.5581 150.988 30.8685 150.988 31.2514V40.9636C150.988 44.2928 153.697 47.0014 157.026 47.0014L178.845 46.993C179.136 46.993 179.372 46.7642 179.372 46.4828V45.5068C179.372 45.2195 179.136 44.9856 178.845 44.9856H176.15C175.767 44.9856 175.456 44.6752 175.456 44.2923C175.456 43.9094 175.767 43.5991 176.15 43.5991H178.845C179.9 43.5991 180.758 44.4548 180.758 45.5068V46.4828C180.758 47.5286 179.9 48.3795 178.845 48.3795L157.026 48.3879Z" fill="black"/>
<path d="M174.77 45.9028H173.338C172.955 45.9028 172.645 45.5924 172.645 45.2095C172.645 44.8266 172.955 44.5163 173.338 44.5163H174.77C175.192 44.5163 175.535 44.1726 175.535 43.7504C175.535 43.328 175.192 42.9843 174.77 42.9843H159.882C157.974 42.9843 156.422 41.4197 156.422 39.4964V32.6956C156.422 32.3127 156.732 32.0023 157.115 32.0023C157.498 32.0023 157.808 32.3127 157.808 32.6956V39.4964C157.808 40.6552 158.739 41.5978 159.882 41.5978H174.77C175.956 41.5978 176.922 42.5635 176.922 43.7504C176.922 44.9374 175.956 45.9028 174.77 45.9028Z" fill="black"/>
<path d="M170.724 37.5134C170.634 37.5134 170.544 37.496 170.458 37.4605C170.199 37.3533 170.03 37.1004 170.03 36.8201V33.4197H168.865C167.527 33.4197 166.438 32.3305 166.438 30.9917V21.3945C166.438 20.056 167.527 18.9668 168.865 18.9668H187.698C189.036 18.9668 190.125 20.056 190.125 21.3945V30.9917C190.125 32.3305 189.036 33.4197 187.698 33.4197H175.104L171.214 37.3103C171.081 37.4429 170.904 37.5134 170.724 37.5134ZM168.865 20.3533C168.291 20.3533 167.824 20.8204 167.824 21.3945V30.9917C167.824 31.566 168.291 32.0332 168.865 32.0332H170.724C171.107 32.0332 171.417 32.3435 171.417 32.7264V35.1463L174.327 32.2363C174.457 32.1063 174.634 32.0332 174.817 32.0332H187.698C188.272 32.0332 188.739 31.566 188.739 30.9917V21.3945C188.739 20.8204 188.272 20.3533 187.698 20.3533H168.865Z" fill="black"/>
<path d="M172.902 28.9333H172.4C172.017 28.9333 171.707 28.623 171.707 28.2401C171.707 27.8572 172.017 27.5468 172.4 27.5468H172.902C173.285 27.5468 173.596 27.8572 173.596 28.2401C173.596 28.623 173.285 28.9333 172.902 28.9333Z" fill="black"/>
<path d="M178.535 28.9333H178.033C177.65 28.9333 177.34 28.623 177.34 28.2401C177.34 27.8572 177.65 27.5468 178.033 27.5468H178.535C178.918 27.5468 179.228 27.8572 179.228 28.2401C179.228 28.623 178.918 28.9333 178.535 28.9333Z" fill="black"/>
<path d="M184.164 28.9333H183.662C183.279 28.9333 182.969 28.623 182.969 28.2401C182.969 27.8572 183.279 27.5468 183.662 27.5468H184.164C184.547 27.5468 184.857 27.8572 184.857 28.2401C184.857 28.623 184.547 28.9333 184.164 28.9333Z" fill="black"/>
<path d="M168.609 42.2912H169.996V47.6949H168.609V42.2912Z" fill="black"/>
<path d="M137.468 70.947H143.372V71.691H137.468V70.947ZM137.54 66.747H143.324V67.491H137.54V66.747ZM139.7 69.903L140.552 70.095C140.368 70.479 140.164 70.891 139.94 71.331C139.724 71.763 139.508 72.183 139.292 72.591C139.084 72.991 138.888 73.351 138.704 73.671L137.912 73.395C138.088 73.091 138.284 72.739 138.5 72.339C138.716 71.939 138.928 71.527 139.136 71.103C139.352 70.671 139.54 70.271 139.7 69.903ZM141.5 71.391L142.34 71.499C142.244 72.083 142.084 72.599 141.86 73.047C141.644 73.487 141.356 73.871 140.996 74.199C140.644 74.519 140.212 74.791 139.7 75.015C139.196 75.239 138.596 75.427 137.9 75.579C137.868 75.459 137.812 75.327 137.732 75.183C137.66 75.039 137.584 74.919 137.504 74.823C138.344 74.679 139.036 74.471 139.58 74.199C140.124 73.919 140.548 73.551 140.852 73.095C141.164 72.631 141.38 72.063 141.5 71.391ZM142.256 64.767L143.036 65.103C142.86 65.383 142.676 65.663 142.484 65.943C142.3 66.223 142.124 66.463 141.956 66.663L141.344 66.363C141.496 66.155 141.66 65.899 141.836 65.595C142.012 65.283 142.152 65.007 142.256 64.767ZM140.024 64.527H140.864V70.047H140.024V64.527ZM137.996 65.103L138.668 64.827C138.844 65.067 139.004 65.331 139.148 65.619C139.3 65.907 139.404 66.159 139.46 66.375L138.74 66.687C138.692 66.479 138.596 66.227 138.452 65.931C138.308 65.627 138.156 65.351 137.996 65.103ZM140.048 67.083L140.648 67.431C140.456 67.767 140.208 68.103 139.904 68.439C139.608 68.775 139.284 69.087 138.932 69.375C138.588 69.655 138.244 69.891 137.9 70.083C137.852 69.979 137.78 69.859 137.684 69.723C137.588 69.587 137.496 69.479 137.408 69.399C137.744 69.247 138.08 69.051 138.416 68.811C138.752 68.571 139.064 68.299 139.352 67.995C139.64 67.691 139.872 67.387 140.048 67.083ZM140.768 67.491C140.872 67.547 141.028 67.639 141.236 67.767C141.452 67.895 141.68 68.035 141.92 68.187C142.16 68.339 142.38 68.479 142.58 68.607C142.78 68.735 142.924 68.835 143.012 68.907L142.508 69.555C142.404 69.459 142.256 69.335 142.064 69.183C141.872 69.031 141.664 68.871 141.44 68.703C141.224 68.535 141.016 68.375 140.816 68.223C140.616 68.071 140.452 67.955 140.324 67.875L140.768 67.491ZM144.248 66.747H148.52V67.587H144.248V66.747ZM144.548 64.527L145.448 64.659C145.32 65.443 145.152 66.199 144.944 66.927C144.744 67.647 144.508 68.319 144.236 68.943C143.964 69.559 143.652 70.099 143.3 70.563C143.252 70.507 143.184 70.443 143.096 70.371C143.008 70.291 142.912 70.215 142.808 70.143C142.712 70.063 142.632 69.999 142.568 69.951C142.904 69.527 143.2 69.031 143.456 68.463C143.712 67.887 143.928 67.267 144.104 66.603C144.288 65.931 144.436 65.239 144.548 64.527ZM146.9 67.227L147.824 67.323C147.632 68.707 147.344 69.923 146.96 70.971C146.584 72.019 146.072 72.923 145.424 73.683C144.784 74.443 143.96 75.087 142.952 75.615C142.92 75.535 142.872 75.443 142.808 75.339C142.744 75.243 142.676 75.143 142.604 75.039C142.54 74.943 142.476 74.863 142.412 74.799C143.364 74.351 144.14 73.783 144.74 73.095C145.34 72.399 145.808 71.567 146.144 70.599C146.488 69.623 146.74 68.499 146.9 67.227ZM144.728 67.491C144.904 68.595 145.152 69.631 145.472 70.599C145.8 71.559 146.224 72.403 146.744 73.131C147.264 73.851 147.896 74.407 148.64 74.799C148.568 74.863 148.488 74.939 148.4 75.027C148.32 75.115 148.244 75.207 148.172 75.303C148.1 75.399 148.04 75.491 147.992 75.579C147.216 75.115 146.56 74.495 146.024 73.719C145.488 72.935 145.052 72.027 144.716 70.995C144.38 69.963 144.112 68.839 143.912 67.623L144.728 67.491ZM138.632 73.239L139.1 72.627C139.58 72.803 140.056 73.007 140.528 73.239C141 73.463 141.44 73.695 141.848 73.935C142.256 74.175 142.604 74.407 142.892 74.631L142.268 75.279C141.996 75.047 141.664 74.811 141.272 74.571C140.88 74.331 140.456 74.095 140 73.863C139.552 73.631 139.096 73.423 138.632 73.239ZM154.172 65.067H160.076V68.175H154.184V67.383H159.212V65.847H154.172V65.067ZM153.74 65.067H154.616V68.691C154.616 69.195 154.6 69.747 154.568 70.347C154.536 70.939 154.468 71.547 154.364 72.171C154.26 72.787 154.108 73.387 153.908 73.971C153.716 74.555 153.456 75.087 153.128 75.567C153.072 75.519 153 75.459 152.912 75.387C152.824 75.323 152.728 75.259 152.624 75.195C152.528 75.139 152.448 75.095 152.384 75.063C152.696 74.599 152.94 74.099 153.116 73.563C153.3 73.027 153.436 72.475 153.524 71.907C153.62 71.331 153.68 70.771 153.704 70.227C153.728 69.675 153.74 69.163 153.74 68.691V65.067ZM154.22 69.495H160.496V70.275H154.22V69.495ZM155.192 74.355H159.632V75.099H155.192V74.355ZM156.956 68.079H157.808V72.111H156.956V68.079ZM154.808 71.763H160.124V75.543H159.296V72.531H155.6V75.591H154.808V71.763ZM149.348 70.911C149.82 70.783 150.392 70.619 151.064 70.419C151.736 70.211 152.412 69.999 153.092 69.783L153.224 70.611C152.592 70.819 151.956 71.027 151.316 71.235C150.684 71.443 150.108 71.631 149.588 71.799L149.348 70.911ZM149.504 66.963H153.2V67.803H149.504V66.963ZM151.004 64.551H151.844V74.451C151.844 74.699 151.812 74.887 151.748 75.015C151.692 75.151 151.588 75.255 151.436 75.327C151.292 75.399 151.1 75.447 150.86 75.471C150.62 75.495 150.308 75.503 149.924 75.495C149.916 75.391 149.884 75.255 149.828 75.087C149.78 74.927 149.728 74.787 149.672 74.667C149.928 74.675 150.16 74.679 150.368 74.679C150.584 74.679 150.728 74.675 150.8 74.667C150.872 74.667 150.924 74.651 150.956 74.619C150.988 74.595 151.004 74.539 151.004 74.451V64.551ZM163.244 69.075H170.12V69.951H163.244V69.075ZM169.808 69.075H170.744C170.744 69.075 170.744 69.103 170.744 69.159C170.744 69.215 170.744 69.279 170.744 69.351C170.744 69.415 170.74 69.467 170.732 69.507C170.684 70.443 170.636 71.239 170.588 71.895C170.548 72.543 170.496 73.083 170.432 73.515C170.376 73.947 170.312 74.287 170.24 74.535C170.168 74.783 170.076 74.963 169.964 75.075C169.844 75.227 169.712 75.331 169.568 75.387C169.424 75.451 169.248 75.491 169.04 75.507C168.84 75.523 168.564 75.527 168.212 75.519C167.868 75.519 167.508 75.507 167.132 75.483C167.124 75.347 167.092 75.195 167.036 75.027C166.988 74.859 166.92 74.711 166.832 74.583C167.224 74.615 167.588 74.635 167.924 74.643C168.26 74.659 168.5 74.667 168.644 74.667C168.764 74.667 168.864 74.655 168.944 74.631C169.024 74.607 169.092 74.567 169.148 74.511C169.268 74.399 169.364 74.159 169.436 73.791C169.516 73.415 169.584 72.863 169.64 72.135C169.704 71.399 169.76 70.439 169.808 69.255V69.075ZM164.888 64.779L165.848 65.055C165.552 65.727 165.204 66.371 164.804 66.987C164.412 67.603 163.98 68.167 163.508 68.679C163.044 69.191 162.56 69.639 162.056 70.023C162 69.959 161.924 69.883 161.828 69.795C161.732 69.707 161.632 69.619 161.528 69.531C161.432 69.443 161.348 69.371 161.276 69.315C161.788 68.979 162.272 68.575 162.728 68.103C163.184 67.631 163.596 67.115 163.964 66.555C164.332 65.987 164.64 65.395 164.888 64.779ZM169.076 64.755C169.268 65.155 169.504 65.567 169.784 65.991C170.064 66.407 170.368 66.811 170.696 67.203C171.024 67.587 171.36 67.947 171.704 68.283C172.056 68.611 172.396 68.891 172.724 69.123C172.644 69.187 172.552 69.267 172.448 69.363C172.352 69.451 172.26 69.543 172.172 69.639C172.092 69.735 172.024 69.827 171.968 69.915C171.632 69.643 171.292 69.327 170.948 68.967C170.604 68.599 170.264 68.203 169.928 67.779C169.6 67.355 169.288 66.915 168.992 66.459C168.704 66.003 168.444 65.551 168.212 65.103L169.076 64.755ZM165.776 69.327H166.748C166.684 69.983 166.58 70.623 166.436 71.247C166.292 71.871 166.072 72.459 165.776 73.011C165.48 73.563 165.068 74.063 164.54 74.511C164.02 74.959 163.34 75.335 162.5 75.639C162.46 75.559 162.408 75.467 162.344 75.363C162.28 75.267 162.208 75.171 162.128 75.075C162.056 74.987 161.984 74.911 161.912 74.847C162.696 74.591 163.328 74.267 163.808 73.875C164.296 73.475 164.672 73.031 164.936 72.543C165.2 72.055 165.392 71.539 165.512 70.995C165.632 70.451 165.72 69.895 165.776 69.327ZM179.288 68.655H184.544V69.507H179.288V68.655ZM178.82 65.523L179.936 65.859C179.928 65.939 179.848 65.991 179.696 66.015V68.907C179.696 69.379 179.676 69.899 179.636 70.467C179.604 71.035 179.528 71.615 179.408 72.207C179.296 72.791 179.128 73.371 178.904 73.947C178.68 74.515 178.384 75.047 178.016 75.543C177.976 75.471 177.912 75.395 177.824 75.315C177.744 75.243 177.66 75.171 177.572 75.099C177.484 75.027 177.404 74.975 177.332 74.943C177.668 74.495 177.936 74.015 178.136 73.503C178.336 72.991 178.484 72.467 178.58 71.931C178.676 71.395 178.74 70.871 178.772 70.359C178.804 69.839 178.82 69.351 178.82 68.895V65.523ZM183.236 64.671L184.004 65.367C183.588 65.543 183.112 65.707 182.576 65.859C182.048 66.011 181.504 66.151 180.944 66.279C180.384 66.399 179.836 66.503 179.3 66.591C179.284 66.487 179.244 66.363 179.18 66.219C179.116 66.067 179.056 65.947 179 65.859C179.512 65.755 180.028 65.643 180.548 65.523C181.076 65.395 181.572 65.259 182.036 65.115C182.508 64.971 182.908 64.823 183.236 64.671ZM181.868 68.931H182.756V75.579H181.868V68.931ZM173.624 67.107H177.992V67.971H173.624V67.107ZM175.484 64.539H176.36V75.567H175.484V64.539ZM175.436 67.647L176.024 67.839C175.92 68.319 175.788 68.819 175.628 69.339C175.476 69.859 175.3 70.367 175.1 70.863C174.908 71.359 174.7 71.819 174.476 72.243C174.26 72.667 174.036 73.031 173.804 73.335C173.756 73.215 173.684 73.079 173.588 72.927C173.492 72.767 173.408 72.631 173.336 72.519C173.552 72.247 173.764 71.923 173.972 71.547C174.188 71.171 174.388 70.763 174.572 70.323C174.764 69.883 174.932 69.435 175.076 68.979C175.228 68.523 175.348 68.079 175.436 67.647ZM176.276 68.967C176.356 69.047 176.476 69.187 176.636 69.387C176.804 69.587 176.98 69.803 177.164 70.035C177.356 70.267 177.532 70.483 177.692 70.683C177.852 70.875 177.964 71.015 178.028 71.103L177.464 71.823C177.392 71.671 177.284 71.483 177.14 71.259C176.996 71.035 176.836 70.803 176.66 70.563C176.492 70.323 176.332 70.099 176.18 69.891C176.036 69.683 175.916 69.515 175.82 69.387L176.276 68.967ZM189.596 65.163H196.376V65.991H189.596V65.163ZM192.476 65.511H193.328V75.555H192.476V65.511ZM190.028 67.479H195.404V68.295H190.856V73.851H190.028V67.479ZM195.068 67.479H195.908V72.819C195.908 73.027 195.884 73.195 195.836 73.323C195.796 73.451 195.7 73.547 195.548 73.611C195.412 73.683 195.232 73.727 195.008 73.743C194.792 73.759 194.516 73.767 194.18 73.767C194.172 73.647 194.14 73.515 194.084 73.371C194.028 73.219 193.972 73.087 193.916 72.975C194.148 72.983 194.352 72.987 194.528 72.987C194.712 72.987 194.836 72.983 194.9 72.975C194.972 72.975 195.016 72.963 195.032 72.939C195.056 72.915 195.068 72.871 195.068 72.807V67.479ZM188.06 64.551H188.888V69.351C188.888 69.951 188.864 70.535 188.816 71.103C188.776 71.671 188.688 72.219 188.552 72.747C188.416 73.267 188.212 73.763 187.94 74.235C187.676 74.707 187.32 75.151 186.872 75.567C186.824 75.503 186.76 75.431 186.68 75.351C186.6 75.279 186.516 75.207 186.428 75.135C186.348 75.063 186.272 75.007 186.2 74.967C186.752 74.471 187.16 73.927 187.424 73.335C187.688 72.735 187.86 72.099 187.94 71.427C188.02 70.755 188.06 70.063 188.06 69.351V64.551ZM186.14 65.919H186.944V71.739H186.14V65.919Z" fill="#26272B"/>
<path d="M319.2 5.39999C319.2 2.20909 311.59 0.818176 304.554 0.818176C297.518 0.818176 289.909 2.20909 289.909 5.39999V5.64545C289.827 5.97272 289.909 5.15454 289.909 10.0636C284.427 9.73636 280.745 11.1273 279.027 14.2364C277.309 17.3454 278.209 21.2727 278.7 22.9909C276.163 24.5455 277.063 29.0455 279.6 30.0273C279.763 30.1091 280.009 30.3545 280.009 30.4364C280.336 31.4182 281.072 33.2182 282.872 34.6091V37.6364L282.381 38.4545C278.618 38.9454 270.845 40.5 270.027 45.1636L268.8 52.2818C268.718 52.7727 269.127 53.2636 269.618 53.2636H306.436C306.927 53.2636 307.336 52.7727 307.254 52.2818L306.027 45.1636C305.209 40.4182 297.436 38.9454 293.754 38.4545L293.1 37.5545V34.6091C295.8 32.4 295.636 30.2727 296.29 30.0273C297.272 29.6182 297.763 28.8 298.09 28.2273C298.172 28.0636 298.254 27.9 298.336 27.8182C300.3 28.0636 302.427 28.2273 304.554 28.2273C311.59 28.2273 319.2 26.8364 319.2 23.6455V17.6727C319.2 17.6727 319.2 17.6727 319.2 17.5909V11.6182C319.2 11.6182 319.2 11.6182 319.2 11.5364V11.4545V5.39999ZM317.563 17.5091C317.563 19.3909 307.254 21.3545 297.927 19.9636C298.09 18.0818 298.009 16.6091 297.681 15.4636C303.081 16.2818 313.227 16.2 317.563 13.6636V17.5091ZM291.545 7.60909C294.163 9.16363 299.481 9.9 304.554 9.9C309.627 9.9 314.945 9.16363 317.563 7.60909V11.3727C317.563 13.4182 305.781 15.3 296.945 13.6636C295.718 11.7818 293.754 10.9636 291.545 10.3091V7.60909ZM304.554 2.45454C312.981 2.45454 317.563 4.41818 317.563 5.39999C317.563 6.38181 312.981 8.34545 304.554 8.34545C296.127 8.34545 291.545 6.38181 291.545 5.39999C291.545 4.41818 296.127 2.45454 304.554 2.45454ZM280.663 14.5636C282.218 12.2727 285.409 11.2909 290.236 11.7C290.481 11.7 290.727 11.7818 290.89 11.8636C294.081 12.8454 297.436 13.8273 295.963 21.6C295.472 20.9454 295.063 20.2909 294.654 19.4727C293.836 18 291.954 17.6727 290.645 18.6545C288.763 20.1273 285 22.6636 280.99 22.6636C280.745 22.6636 280.5 22.6636 280.254 22.6636C279.927 21.3545 278.863 17.3454 280.663 14.5636ZM292.036 38.8636L292.445 39.4364L290.89 42.1364L289.254 40.2545L292.036 38.8636ZM291.463 37.3091L287.945 39.1091L284.427 37.3091V35.6727C285.49 36.2454 286.718 36.4909 287.945 36.4909C289.172 36.4909 290.318 36.2454 291.463 35.6727V37.3091ZM284.018 38.8636L286.718 40.2545L285.081 42.1364L283.69 39.4364L284.018 38.8636ZM304.39 45.4091L305.454 51.5455H299.727V47.4545C299.727 46.9636 299.4 46.6364 298.909 46.6364C298.418 46.6364 298.09 46.9636 298.09 47.4545V51.5455H277.881V47.4545C277.881 46.9636 277.554 46.6364 277.063 46.6364C276.572 46.6364 276.245 46.9636 276.245 47.4545V51.5455H270.518L271.581 45.4091C272.072 42.4636 277.227 40.7455 282.218 40.0909L284.181 43.9364C284.427 44.4273 285.163 44.5091 285.49 44.1L287.945 41.3182L290.4 44.1C290.727 44.5091 291.463 44.4273 291.709 43.9364L294 40.0909C298.827 40.8273 303.9 42.4636 304.39 45.4091ZM295.718 28.4727C295.227 28.6364 294.654 29.2091 294.409 29.7818C294.163 30.6818 293.345 32.4818 291.463 33.7091C287.781 36.1636 282.954 34.0364 281.563 29.7818C281.318 29.1273 280.745 28.5545 280.172 28.3909C278.781 27.8182 278.127 24.6273 279.763 24.1364C284.018 24.6273 288.354 22.5 291.709 19.8818C291.954 19.7182 292.2 19.6364 292.363 19.6364C292.772 19.6364 293.1 19.8 293.263 20.1273C293.672 20.8636 295.472 23.8909 296.29 24.0545C296.7 24.1364 297.518 25.7727 296.7 27.2455C296.372 27.9818 296.209 28.3091 295.718 28.4727ZM298.745 26.1C298.745 24.7091 298.09 23.4 297.436 22.9091C297.518 22.4182 297.6 21.9273 297.681 21.5182C303.163 22.3364 313.227 22.2545 317.563 19.7182V23.5636C317.563 25.2818 308.236 27.3273 298.745 26.1Z" fill="black"/>
<path d="M288.761 44.5909H287.943C287.452 44.5909 287.125 44.9182 287.125 45.4091C287.125 45.9 287.452 46.2273 287.943 46.2273H288.761C289.252 46.2273 289.58 45.9 289.58 45.4091C289.58 44.9182 289.252 44.5909 288.761 44.5909Z" fill="black"/>
<path d="M288.761 47.9454H287.943C287.452 47.9454 287.125 48.2727 287.125 48.7636C287.125 49.2545 287.452 49.5818 287.943 49.5818H288.761C289.252 49.5818 289.58 49.2545 289.58 48.7636C289.58 48.2727 289.252 47.9454 288.761 47.9454Z" fill="black"/>
<path d="M281.996 74.619V65.679H284.924C285.828 65.679 286.616 65.863 287.288 66.231C287.96 66.599 288.48 67.119 288.848 67.791C289.216 68.455 289.4 69.239 289.4 70.143C289.4 71.039 289.216 71.823 288.848 72.495C288.48 73.167 287.96 73.691 287.288 74.067C286.616 74.435 285.828 74.619 284.924 74.619H281.996ZM283.172 73.539H284.936C285.6 73.539 286.172 73.399 286.652 73.119C287.14 72.839 287.516 72.447 287.78 71.943C288.044 71.431 288.176 70.831 288.176 70.143C288.176 69.447 288.04 68.847 287.768 68.343C287.504 67.839 287.128 67.451 286.64 67.179C286.16 66.899 285.592 66.759 284.936 66.759H283.172V73.539ZM290.891 74.619V65.679H294.647C295.183 65.679 295.643 65.775 296.027 65.967C296.419 66.159 296.719 66.431 296.927 66.783C297.143 67.127 297.251 67.539 297.251 68.019C297.251 68.459 297.135 68.859 296.903 69.219C296.679 69.571 296.347 69.847 295.907 70.047L295.895 69.603C296.279 69.747 296.595 69.939 296.843 70.179C297.099 70.411 297.291 70.683 297.419 70.995C297.547 71.299 297.611 71.623 297.611 71.967C297.611 72.791 297.347 73.439 296.819 73.911C296.291 74.383 295.571 74.619 294.659 74.619H290.891ZM292.067 73.539H294.707C295.227 73.539 295.643 73.399 295.955 73.119C296.267 72.839 296.423 72.459 296.423 71.979C296.423 71.499 296.267 71.119 295.955 70.839C295.643 70.551 295.227 70.407 294.707 70.407H292.067V73.539ZM292.067 69.351H294.623C295.055 69.351 295.403 69.227 295.667 68.979C295.931 68.723 296.063 68.399 296.063 68.007C296.063 67.599 295.931 67.287 295.667 67.071C295.403 66.855 295.055 66.747 294.623 66.747H292.067V69.351ZM298.335 74.619L301.539 65.679H302.931L306.135 74.619H304.875L304.143 72.519H300.327L299.595 74.619H298.335ZM300.699 71.439H303.771L302.067 66.531H302.403L300.699 71.439Z" fill="#26272B"/>
<g filter="url(#filter4_d_20184_12453)">
<rect x="100.895" y="142.42" width="132.237" height="57.1603" rx="14" fill="#0087C7" shape-rendering="crispEdges"/>
<path d="M210.339 162.738L210.549 162.745V162.738H213.131V179.58H210.549V168.643L205.609 177.258H204.045L199.106 168.643V179.58H196.523V162.738H199.106V162.745L199.316 162.738L204.828 172.86L210.339 162.738ZM128.575 162.738C130.644 162.738 131.771 163.275 132.067 163.441L132.165 163.495L131.638 165.397L131.496 165.323C130.715 164.92 129.701 164.696 128.639 164.696C125.244 164.696 123.135 167.082 123.135 170.921C123.135 174.718 125.161 176.986 128.553 176.986C129.65 176.986 130.794 176.746 131.539 176.359L131.686 176.283L132.141 178.144L132.043 178.197C131.366 178.558 129.992 178.945 128.167 178.945C123.749 178.945 120.895 175.822 120.895 170.99C120.895 166.054 123.981 162.738 128.575 162.738ZM174.279 162.738V178.573H172.325V177.197C171.191 178.356 169.884 178.945 168.437 178.945C166.858 178.945 165.494 178.335 164.384 177.135C163.275 175.937 162.713 174.478 162.713 172.801C162.713 171.123 163.282 169.667 164.405 168.474C165.528 167.281 166.918 166.677 168.535 166.677C170.008 166.677 171.28 167.25 172.325 168.381V162.738H174.279ZM136.02 163.055V178.945H133.944V163.055H136.02ZM153.101 167.187V173.79C153.101 175.491 154.485 176.876 156.188 176.876C157.89 176.876 159.274 175.491 159.274 173.79V167.187H161.23V178.579H159.274V177.857C158.381 178.566 157.299 178.947 156.188 178.945C153.408 178.945 151.146 176.632 151.146 173.79V167.187H153.101ZM188.724 162.42C191.721 162.42 194.15 164.956 194.15 168.085V173.279C194.15 176.409 191.721 178.945 188.724 178.945H180.804V162.42H188.724ZM143.605 166.869C145.207 166.869 146.586 167.468 147.706 168.65C148.685 169.682 149.241 170.91 149.365 172.308H146.931C146.813 171.606 146.494 170.976 145.974 170.431C145.304 169.73 144.501 169.375 143.587 169.375C142.673 169.375 141.872 169.73 141.208 170.431C140.542 171.135 140.204 171.984 140.204 172.951C140.204 173.919 140.53 174.753 141.172 175.426C141.812 176.099 142.628 176.44 143.595 176.44C144.529 176.44 145.336 176.095 145.993 175.417C146.52 174.873 146.836 174.232 146.942 173.504H147.845V174.461H148.881V173.504H149.366C149.247 174.911 148.698 176.142 147.727 177.174C146.62 178.349 145.234 178.945 143.606 178.945C141.977 178.945 140.587 178.349 139.474 177.174C138.363 176.002 137.8 174.569 137.8 172.917C137.8 171.266 138.366 169.829 139.485 168.649C140.604 167.468 141.99 166.869 143.606 166.869H143.605ZM168.575 168.694C167.477 168.694 166.55 169.108 165.816 169.925C165.08 170.746 164.706 171.723 164.706 172.831C164.706 173.939 165.09 174.92 165.845 175.746C166.598 176.571 167.513 176.989 168.565 176.989C169.555 176.989 170.452 176.596 171.232 175.822C172.009 175.051 172.404 174.058 172.404 172.872C172.404 171.683 172.037 170.677 171.315 169.885C170.594 169.095 169.672 168.694 168.575 168.694ZM188.724 165.016H183.291V176.347H188.724C190.345 176.347 191.663 174.971 191.663 173.279V168.085C191.663 166.393 190.345 165.016 188.724 165.016ZM142.098 172.271C142.298 172.271 142.474 172.351 142.62 172.509C142.767 172.667 142.842 172.857 142.842 173.074C142.842 173.29 142.768 173.477 142.624 173.63C142.556 173.705 142.474 173.763 142.384 173.803C142.294 173.842 142.197 173.862 142.1 173.86C141.888 173.86 141.71 173.783 141.57 173.632C141.501 173.559 141.447 173.473 141.411 173.377C141.375 173.281 141.357 173.178 141.359 173.075C141.359 172.858 141.432 172.667 141.578 172.509C141.723 172.351 141.898 172.271 142.098 172.271V172.271ZM187.18 168.458C187.918 168.458 188.515 169.09 188.515 169.871C188.515 170.428 188.207 170.905 187.764 171.135V173.224H186.597V171.135C186.154 170.905 185.846 170.428 185.846 169.871C185.846 169.09 186.443 168.458 187.18 168.458Z" fill="white"/>
</g>
<defs>
<filter id="filter0_d_20184_12453" x="0.666109" y="261.19" width="69.7147" height="69.7143" filterUnits="userSpaceOnUse" color-interpolation-filters="sRGB">
<feFlood flood-opacity="0" result="BackgroundImageFix"/>
<feColorMatrix in="SourceAlpha" type="matrix" values="0 0 0 0 0 0 0 0 0 0 0 0 0 0 0 0 0 0 127 0" result="hardAlpha"/>
<feOffset dy="3.80952"/>
<feGaussianBlur stdDeviation="3.80952"/>
<feComposite in2="hardAlpha" operator="out"/>
<feColorMatrix type="matrix" values="0 0 0 0 0 0 0 0 0 0 0 0 0 0 0 0 0 0 0.07 0"/>
<feBlend mode="normal" in2="BackgroundImageFix" result="effect1_dropShadow_20184_12453"/>
<feBlend mode="normal" in="SourceGraphic" in2="effect1_dropShadow_20184_12453" result="shape"/>
</filter>
<filter id="filter1_d_20184_12453" x="90.4044" y="261.19" width="69.7147" height="69.7143" filterUnits="userSpaceOnUse" color-interpolation-filters="sRGB">
<feFlood flood-opacity="0" result="BackgroundImageFix"/>
<feColorMatrix in="SourceAlpha" type="matrix" values="0 0 0 0 0 0 0 0 0 0 0 0 0 0 0 0 0 0 127 0" result="hardAlpha"/>
<feOffset dy="3.80952"/>
<feGaussianBlur stdDeviation="3.80952"/>
<feComposite in2="hardAlpha" operator="out"/>
<feColorMatrix type="matrix" values="0 0 0 0 0 0 0 0 0 0 0 0 0 0 0 0 0 0 0.07 0"/>
<feBlend mode="normal" in2="BackgroundImageFix" result="effect1_dropShadow_20184_12453"/>
<feBlend mode="normal" in="SourceGraphic" in2="effect1_dropShadow_20184_12453" result="shape"/>
</filter>
<filter id="filter2_d_20184_12453" x="180.143" y="261.19" width="69.7147" height="69.7143" filterUnits="userSpaceOnUse" color-interpolation-filters="sRGB">
<feFlood flood-opacity="0" result="BackgroundImageFix"/>
<feColorMatrix in="SourceAlpha" type="matrix" values="0 0 0 0 0 0 0 0 0 0 0 0 0 0 0 0 0 0 127 0" result="hardAlpha"/>
<feOffset dy="3.80952"/>
<feGaussianBlur stdDeviation="3.80952"/>
<feComposite in2="hardAlpha" operator="out"/>
<feColorMatrix type="matrix" values="0 0 0 0 0 0 0 0 0 0 0 0 0 0 0 0 0 0 0.07 0"/>
<feBlend mode="normal" in2="BackgroundImageFix" result="effect1_dropShadow_20184_12453"/>
<feBlend mode="normal" in="SourceGraphic" in2="effect1_dropShadow_20184_12453" result="shape"/>
</filter>
<filter id="filter3_d_20184_12453" x="263.619" y="261.19" width="69.7147" height="69.7143" filterUnits="userSpaceOnUse" color-interpolation-filters="sRGB">
<feFlood flood-opacity="0" result="BackgroundImageFix"/>
<feColorMatrix in="SourceAlpha" type="matrix" values="0 0 0 0 0 0 0 0 0 0 0 0 0 0 0 0 0 0 127 0" result="hardAlpha"/>
<feOffset dy="3.80952"/>
<feGaussianBlur stdDeviation="3.80952"/>
<feComposite in2="hardAlpha" operator="out"/>
<feColorMatrix type="matrix" values="0 0 0 0 0 0 0 0 0 0 0 0 0 0 0 0 0 0 0.07 0"/>
<feBlend mode="normal" in2="BackgroundImageFix" result="effect1_dropShadow_20184_12453"/>
<feBlend mode="normal" in="SourceGraphic" in2="effect1_dropShadow_20184_12453" result="shape"/>
</filter>
<filter id="filter4_d_20184_12453" x="80.8945" y="142.42" width="172.238" height="97.1603" filterUnits="userSpaceOnUse" color-interpolation-filters="sRGB">
<feFlood flood-opacity="0" result="BackgroundImageFix"/>
<feColorMatrix in="SourceAlpha" type="matrix" values="0 0 0 0 0 0 0 0 0 0 0 0 0 0 0 0 0 0 127 0" result="hardAlpha"/>
<feMorphology radius="4" operator="erode" in="SourceAlpha" result="effect1_dropShadow_20184_12453"/>
<feOffset dy="20"/>
<feGaussianBlur stdDeviation="12"/>
<feComposite in2="hardAlpha" operator="out"/>
<feColorMatrix type="matrix" values="0 0 0 0 0.0634347 0 0 0 0 0.0877091 0 0 0 0 0.791666 0 0 0 0.05 0"/>
<feBlend mode="normal" in2="BackgroundImageFix" result="effect1_dropShadow_20184_12453"/>
<feBlend mode="normal" in="SourceGraphic" in2="effect1_dropShadow_20184_12453" result="shape"/>
</filter>
<clipPath id="clip0_20184_12453">
<rect width="30.4762" height="30.4762" fill="white" transform="translate(20.2852 277)"/>
</clipPath>
<clipPath id="clip1_20184_12453">
<rect width="30.4762" height="30.4762" fill="white" transform="translate(110.023 277)"/>
</clipPath>
<clipPath id="clip2_20184_12453">
<rect width="30.4762" height="30.4762" fill="white" transform="translate(283.238 277)"/>
</clipPath>
</defs>
</svg>
