<svg width="64" height="65" viewBox="0 0 64 65" fill="none" xmlns="http://www.w3.org/2000/svg">
<path fill-rule="evenodd" clip-rule="evenodd" d="M31.9999 15.4458C32.2698 15.4458 32.535 15.4677 32.7936 15.5098L32.9041 15.529L32.9465 15.538C33.3796 15.6417 33.6607 16.0715 33.5791 16.5186C33.4974 16.9656 33.0831 17.2659 32.6418 17.2069L32.5991 17.2L32.5262 17.1874C32.3555 17.1597 32.1796 17.1451 31.9999 17.1451C30.1962 17.1451 28.7353 18.6202 28.7353 20.4415C28.7353 22.2628 30.1962 23.738 31.9999 23.738C33.8036 23.738 35.2646 22.2628 35.2646 20.4415C35.2646 19.9943 35.1766 19.5696 35.0183 19.183L34.9858 19.1061L34.9692 19.0657C34.8095 18.6462 35.0021 18.1693 35.4136 17.9849C35.8251 17.8006 36.3044 17.9764 36.5053 18.3774L36.524 18.417L36.5735 18.5339C36.8144 19.1222 36.9474 19.7672 36.9474 20.4415C36.9474 21.7058 36.4823 22.86 35.7159 23.7398C36.8593 23.7678 37.9067 24.1878 38.7309 24.8709C39.0441 24.8081 39.368 24.7749 39.6995 24.7749C42.4321 24.775 44.6474 27.0119 44.6474 29.7712C44.6474 31.0352 44.1822 32.1894 43.4156 33.0694C46.0921 33.1352 48.24 35.3467 48.24 38.0647V43.2473C48.24 43.7165 47.8633 44.0969 47.3986 44.0969H43.8065C43.3418 44.0969 42.9651 43.7165 42.9651 43.2473C42.9651 42.7781 43.3418 42.3977 43.8065 42.3977H46.5572V38.0647C46.5572 36.2431 45.096 34.767 43.2926 34.767H39.7178C39.7117 34.7671 39.7056 34.7673 39.6995 34.7673C39.6934 34.7673 39.6873 34.7671 39.6812 34.767H36.1059C34.3035 34.7671 32.8413 36.2433 32.8413 38.0647V42.3977H39.8799L39.9232 42.3988C40.3678 42.4216 40.7213 42.7928 40.7213 43.2473C40.7213 43.7019 40.3678 44.0731 39.9232 44.0958L39.8799 44.0969H25.8645C25.3998 44.0969 25.0231 43.7165 25.0231 43.2473C25.0231 42.7781 25.3998 42.3977 25.8645 42.3977H31.1585V38.0647C31.1585 36.2432 29.6963 34.767 27.8939 34.767H24.3185C24.3124 34.7671 24.3063 34.7673 24.3002 34.7673C24.2941 34.7673 24.2881 34.7671 24.282 34.767H20.7072C18.9038 34.7671 17.4426 36.2431 17.4426 38.0647V42.3977H21.9379L21.9812 42.3988C22.4257 42.4216 22.7793 42.7928 22.7793 43.2473C22.7793 43.7018 22.4257 44.073 21.9812 44.0958L21.9379 44.0969H16.6012C16.1365 44.0969 15.7598 43.7165 15.7598 43.2473V38.0647C15.7598 35.3468 17.9077 33.1353 20.5841 33.0694C19.8176 32.1894 19.3524 31.0352 19.3524 29.7712C19.3524 27.0119 21.5676 24.775 24.3002 24.7749C24.6318 24.7749 24.9557 24.8082 25.269 24.871C26.0931 24.1879 27.1405 23.7679 28.2838 23.7398C27.5174 22.86 27.0525 21.7058 27.0525 20.4415C27.0525 17.6818 29.2668 15.4459 31.9999 15.4458ZM28.4064 25.4376C27.962 25.4376 27.5389 25.5269 27.1532 25.6888C28.4206 26.5935 29.2481 28.0847 29.2481 29.7712C29.2481 31.0352 28.783 32.1894 28.0164 33.0694C29.6757 33.1101 31.1325 33.9761 31.9999 35.2765C32.8673 33.9762 34.3241 33.1101 35.9833 33.0694C35.2168 32.1894 34.7517 31.0352 34.7517 29.7712C34.7517 28.0847 35.5791 26.5934 36.8465 25.6887C36.4609 25.5269 36.038 25.4376 35.5936 25.4376H28.4064ZM24.3002 26.4742C22.497 26.4742 21.0352 27.9504 21.0352 29.7712C21.0352 31.5856 22.4869 33.0576 24.2815 33.0678H24.3189C26.1136 33.0577 27.5653 31.5857 27.5653 29.7712C27.5653 27.9503 26.1034 26.4742 24.3002 26.4742ZM39.6995 26.4742C37.8963 26.4742 36.4345 27.9503 36.4345 29.7712C36.4345 31.5857 37.8862 33.0576 39.6808 33.0678H39.7182C41.5128 33.0576 42.9646 31.5857 42.9646 29.7712C42.9646 27.9503 41.5027 26.4742 39.6995 26.4742Z" fill="#0087C7"/>
<path fill-rule="evenodd" clip-rule="evenodd" d="M32.0838 3.77332C34.4261 3.77333 36.325 5.69069 36.3251 8.05588C36.3251 8.53209 36.2479 8.9901 36.1058 9.41802L50.5787 17.8477C51.3558 16.9592 52.4924 16.3987 53.7587 16.3986C56.101 16.3987 58 18.316 58 20.6812C58 22.7555 56.5394 24.4852 54.6001 24.8794V40.6672C56.5394 41.0613 58 42.7911 58 44.8654C58 47.2306 56.101 49.1481 53.7587 49.1481C52.4924 49.1481 51.3558 48.5874 50.5787 47.6988L36.1058 56.1284C36.2479 56.5563 36.325 57.0144 36.3251 57.4906C36.3251 59.8558 34.4261 61.7733 32.0838 61.7733C29.7414 61.7733 27.8426 59.8558 27.8426 57.4906C27.8426 57.0196 27.918 56.5663 28.0572 56.1423L13.4307 47.6878C12.6534 48.5828 11.5127 49.1481 10.2412 49.1481C7.89886 49.1481 6.00003 47.2306 6 44.8654C6.00002 42.7911 7.46052 41.0613 9.39979 40.6672V24.8794C7.46052 24.4852 6.00001 22.7555 6 20.6812C6.00002 18.316 7.89885 16.3987 10.2412 16.3986C11.5127 16.3986 12.6534 16.9638 13.4307 17.8587L28.0573 9.40419C27.9181 8.98023 27.8426 8.52698 27.8426 8.05588C27.8426 5.69069 29.7414 3.77334 32.0838 3.77332ZM32.0838 54.9073C31.1455 54.9073 30.3254 55.4174 29.8801 56.1778C29.8749 56.1879 29.8697 56.1979 29.8641 56.2078C29.8576 56.2194 29.8508 56.2308 29.8437 56.2419C29.6409 56.612 29.5254 57.0377 29.5254 57.4906C29.5254 58.9174 30.6708 60.0741 32.0838 60.0741C33.4967 60.0741 34.6423 58.9174 34.6423 57.4906C34.6422 57.0311 34.5232 56.5996 34.3148 56.2257C34.3095 56.2172 34.3042 56.2086 34.2992 56.1999C34.2945 56.1915 34.2901 56.183 34.2856 56.1746C33.8399 55.416 33.0207 54.9073 32.0838 54.9073ZM14.2676 19.3328C14.4068 19.7568 14.4825 20.2101 14.4825 20.6812C14.4825 22.7555 13.0219 24.4852 11.0826 24.8794V40.6672C13.0219 41.0613 14.4825 42.7911 14.4825 44.8654C14.4825 45.3365 14.4068 45.7898 14.2676 46.2137L28.8942 54.6681C29.6716 53.7732 30.8123 53.2081 32.0838 53.2081C33.3501 53.2081 34.4865 53.7687 35.2637 54.6573L49.7366 46.2276C49.5946 45.7997 49.5175 45.3416 49.5175 44.8654C49.5175 42.7911 50.978 41.0613 52.9173 40.6672V24.8794C50.978 24.4852 49.5175 22.7555 49.5175 20.6812C49.5175 20.205 49.5945 19.7469 49.7366 19.319L35.2637 10.8892C34.4865 11.7779 33.3501 12.3385 32.0838 12.3386C30.8122 12.3385 29.6716 11.7734 28.8942 10.8784L14.2676 19.3328ZM10.2412 42.2821C8.82824 42.2821 7.68282 43.4387 7.6828 44.8654C7.68283 46.2921 8.82825 47.4489 10.2412 47.4489C11.1788 47.4489 11.9984 46.9394 12.4439 46.1798C12.4494 46.1692 12.4549 46.1587 12.4608 46.1484C12.4669 46.1377 12.4731 46.1272 12.4796 46.1169C12.6833 45.7461 12.7997 45.3195 12.7997 44.8654C12.7997 43.4387 11.6542 42.2821 10.2412 42.2821ZM53.7587 42.2821C52.3458 42.2821 51.2003 43.4387 51.2003 44.8654C51.2003 45.325 51.3193 45.7564 51.5277 46.1303C51.533 46.1389 51.5383 46.1474 51.5433 46.1562C51.5482 46.1646 51.5526 46.1733 51.557 46.1818C52.0028 46.9403 52.8219 47.4489 53.7587 47.4489C55.1716 47.4489 56.3172 46.2921 56.3172 44.8654C56.3172 43.4387 55.1717 42.2821 53.7587 42.2821ZM10.2412 18.0979C8.82824 18.0979 7.68282 19.2545 7.6828 20.6812C7.68281 22.1079 8.82823 23.2646 10.2412 23.2647C11.6542 23.2647 12.7997 22.108 12.7997 20.6812C12.7997 20.2279 12.6839 19.8019 12.4808 19.4316C12.4739 19.4207 12.4672 19.4097 12.4608 19.3984C12.4549 19.3879 12.4494 19.3772 12.4439 19.3666C11.9984 18.6071 11.1787 18.0979 10.2412 18.0979ZM53.7587 18.0979C52.8222 18.0979 52.0032 18.606 51.5574 19.3641C51.5528 19.3728 51.5483 19.3818 51.5433 19.3904C51.5382 19.3994 51.5327 19.4082 51.5272 19.417C51.3191 19.7907 51.2003 20.2219 51.2003 20.6812C51.2003 22.1079 52.3458 23.2646 53.7587 23.2647C55.1717 23.2646 56.3172 22.1079 56.3172 20.6812C56.3172 19.2545 55.1717 18.0979 53.7587 18.0979ZM32.0838 5.47253C30.6708 5.47255 29.5254 6.62915 29.5254 8.05588C29.5254 8.50987 29.6415 8.93643 29.8452 9.30717C29.8517 9.31757 29.858 9.32815 29.8641 9.33892C29.8699 9.34908 29.8753 9.35938 29.8806 9.36967C30.326 10.1296 31.1459 10.6393 32.0838 10.6393C33.021 10.6393 33.8405 10.1303 34.2861 9.37111C34.2904 9.36299 34.2946 9.35481 34.2992 9.34678C34.3043 9.33798 34.3095 9.32933 34.3148 9.32078C34.5231 8.94688 34.6423 8.51545 34.6423 8.05588C34.6422 6.62914 33.4967 5.47255 32.0838 5.47253Z" fill="black"/>
</svg>
