<svg width="65" height="65" viewBox="0 0 65 65" fill="none" xmlns="http://www.w3.org/2000/svg">
<path d="M8.5 51.7733C8.76522 51.7733 9.0195 51.8787 9.20703 52.0663C9.39457 52.2538 9.5 52.5081 9.5 52.7733C9.5 53.0385 9.39457 53.2928 9.20703 53.4803C9.0195 53.6679 8.76522 53.7733 8.5 53.7733H7.5C7.23478 53.7733 6.9805 53.6679 6.79297 53.4803C6.60543 53.2928 6.5 53.0385 6.5 52.7733C6.5 52.5081 6.60543 52.2538 6.79297 52.0663C6.9805 51.8787 7.23478 51.7733 7.5 51.7733H8.5Z" fill="#0087C7"/>
<path d="M13.5 51.7733C13.7652 51.7733 14.0195 51.8787 14.207 52.0663C14.3946 52.2538 14.5 52.5081 14.5 52.7733C14.5 53.0385 14.3946 53.2928 14.207 53.4803C14.0195 53.6679 13.7652 53.7733 13.5 53.7733H12.5C12.2348 53.7733 11.9805 53.6679 11.793 53.4803C11.6054 53.2928 11.5 53.0385 11.5 52.7733C11.5 52.5081 11.6054 52.2538 11.793 52.0663C11.9805 51.8787 12.2348 51.7733 12.5 51.7733H13.5Z" fill="#0087C7"/>
<path fill-rule="evenodd" clip-rule="evenodd" d="M32.5 2.77332C35.0665 2.77332 37.5755 3.53326 39.7109 4.95691C41.8464 6.38056 43.5129 8.40422 44.5 10.7733H55.6504C56.4254 10.7946 57.1602 11.1224 57.6943 11.6844C58.2285 12.2468 58.5186 12.9979 58.5 13.7733V47.7733H59.5C60.2957 47.7733 61.0585 48.0896 61.6211 48.6522C62.1837 49.2148 62.5 49.9777 62.5 50.7733V54.7733C62.5 55.569 62.1837 56.3318 61.6211 56.8944C61.0585 57.457 60.2957 57.7733 59.5 57.7733H58.9824L56.1816 61.2733C55.8077 61.7424 55.3327 62.121 54.792 62.3807C54.2513 62.6404 53.6585 62.7747 53.0586 62.7733H11.9414C11.3417 62.7745 10.7486 62.6405 10.208 62.3807C9.66756 62.121 9.1931 61.7422 8.81934 61.2733L6.01855 57.7733H5.5C4.70435 57.7733 3.94152 57.457 3.37891 56.8944C2.8163 56.3318 2.5 55.569 2.5 54.7733V50.7733C2.5 49.9777 2.8163 49.2148 3.37891 48.6522C3.94152 48.0896 4.70435 47.7733 5.5 47.7733H6.5V13.7733C6.5 12.9777 6.8163 12.2148 7.37891 11.6522C7.94152 11.0896 8.70435 10.7733 9.5 10.7733H20.5C21.4871 8.40422 23.1536 6.38056 25.2891 4.95691C27.4245 3.53326 29.9335 2.77332 32.5 2.77332ZM10.3809 60.0223C10.5673 60.2572 10.805 60.447 11.0752 60.577C11.3453 60.707 11.6417 60.7741 11.9414 60.7733H53.0586C53.3583 60.7741 53.6547 60.707 53.9248 60.577C54.195 60.447 54.4327 60.2572 54.6191 60.0223L56.4189 57.7733H8.58105L10.3809 60.0223ZM5.5 49.7733C5.23478 49.7733 4.98051 49.8787 4.79297 50.0663C4.60543 50.2538 4.5 50.5081 4.5 50.7733V54.7733C4.5 55.0385 4.60543 55.2928 4.79297 55.4803C4.98051 55.6679 5.23478 55.7733 5.5 55.7733H59.5C59.7652 55.7733 60.0195 55.6679 60.207 55.4803C60.3946 55.2928 60.5 55.0385 60.5 54.7733V50.7733C60.5 50.5081 60.3946 50.2538 60.207 50.0663C60.0195 49.8787 59.7652 49.7733 59.5 49.7733H41.5V50.7733C41.5 51.3037 41.2891 51.8123 40.9141 52.1874C40.539 52.5625 40.0304 52.7733 39.5 52.7733H25.5C24.9696 52.7733 24.461 52.5625 24.0859 52.1874C23.7109 51.8123 23.5 51.3037 23.5 50.7733V49.7733H5.5ZM9.5 12.7733C9.23478 12.7733 8.9805 12.8787 8.79297 13.0663C8.60543 13.2538 8.5 13.5081 8.5 13.7733V47.7733H23.5C24.0304 47.7733 24.539 47.9842 24.9141 48.3593C25.2891 48.7343 25.5 49.2429 25.5 49.7733V50.7733H39.5V49.7733C39.5 49.2429 39.7109 48.7343 40.0859 48.3593C40.461 47.9842 40.9696 47.7733 41.5 47.7733H56.5V13.7733C56.5149 13.5292 56.4347 13.2888 56.2764 13.1024C56.118 12.9161 55.8937 12.798 55.6504 12.7733H45.1367C45.2929 13.4308 45.3977 14.0995 45.4492 14.7733H52.5C53.0304 14.7733 53.539 14.9842 53.9141 15.3593C54.2891 15.7343 54.5 16.2429 54.5 16.7733V43.7733C54.5 44.3037 54.2891 44.8123 53.9141 45.1874C53.539 45.5625 53.0304 45.7733 52.5 45.7733H12.5C11.9696 45.7733 11.461 45.5625 11.0859 45.1874C10.7109 44.8123 10.5 44.3037 10.5 43.7733V16.7733C10.5 16.2429 10.7109 15.7343 11.0859 15.3593C11.461 14.9842 11.9696 14.7733 12.5 14.7733H19.5508C19.6023 14.0995 19.7071 13.4308 19.8633 12.7733H9.5ZM12.5 43.7733H52.5V16.7733H45.4512C45.2042 20.0388 43.7324 23.0907 41.3311 25.3173C38.9297 27.5437 35.7757 28.7811 32.501 28.7811C29.2263 28.7811 26.0722 27.5438 23.6709 25.3173C21.2695 23.0907 19.7978 20.0388 19.5508 16.7733H12.5V43.7733ZM32.5 4.77332C29.5837 4.77676 26.7877 5.93675 24.7256 7.9989C22.6634 10.0611 21.5034 12.857 21.5 15.7733C21.5 17.9489 22.1449 20.0757 23.3535 21.8846C24.5622 23.6935 26.2802 25.1038 28.29 25.9364C30.2999 26.7689 32.5119 26.9867 34.6455 26.5624C36.7793 26.1379 38.7399 25.09 40.2783 23.5516C41.8167 22.0133 42.8646 20.0526 43.2891 17.9188C43.7134 15.7852 43.4956 13.5732 42.6631 11.5634C41.8305 9.55347 40.4202 7.83548 38.6113 6.62683C36.8024 5.41818 34.6756 4.77332 32.5 4.77332Z" fill="#0087C7"/>
<path d="M34.5 39.7733C34.7653 39.7733 35.0195 39.8787 35.2071 40.0663C35.3946 40.2538 35.5 40.5081 35.5 40.7733C35.5 41.0385 35.3946 41.2928 35.2071 41.4803C35.0195 41.6679 34.7653 41.7733 34.5 41.7733H30.5C30.2348 41.7733 29.9805 41.6679 29.793 41.4803C29.6055 41.2928 29.5 41.0385 29.5 40.7733C29.5 40.5081 29.6055 40.2538 29.793 40.0663C29.9805 39.8787 30.2348 39.7733 30.5 39.7733H34.5Z" fill="black"/>
<path d="M32.5 30.7733C32.7652 30.7733 33.0195 30.8787 33.2071 31.0663C33.3946 31.2538 33.5 31.5081 33.5 31.7733V34.3592L33.793 34.0663H33.795C33.9835 33.8842 34.236 33.7838 34.4981 33.786C34.7603 33.7883 35.0119 33.8936 35.1973 34.079C35.3824 34.2643 35.487 34.5152 35.4893 34.7772C35.4915 35.0393 35.3911 35.2918 35.209 35.4803L33.209 37.4803C33.1162 37.5734 33.0062 37.6477 32.8848 37.6981C32.7633 37.7485 32.6325 37.7743 32.501 37.7743C32.3697 37.7743 32.2395 37.7484 32.1182 37.6981C31.9967 37.6477 31.8859 37.5735 31.793 37.4803L29.793 35.4803C29.6109 35.2918 29.5105 35.0393 29.5127 34.7772C29.515 34.515 29.6203 34.2644 29.8057 34.079C29.9911 33.8936 30.2417 33.7883 30.5039 33.786C30.766 33.7838 31.0185 33.8842 31.2071 34.0663L31.5 34.3592V31.7733C31.5 31.5081 31.6055 31.2538 31.793 31.0663C31.9805 30.8787 32.2348 30.7733 32.5 30.7733Z" fill="black"/>
<path d="M36.3584 10.7831C36.6209 10.7456 36.8875 10.8145 37.0996 10.9735C37.3118 11.1326 37.4527 11.3692 37.4903 11.6317C37.5278 11.8942 37.4589 12.1608 37.2998 12.3729L31.2998 20.3729C31.2143 20.4878 31.1051 20.5832 30.9795 20.6522C30.8538 20.7212 30.7143 20.7628 30.5713 20.7733H30.5C30.2348 20.7732 29.9805 20.6679 29.793 20.4803L27.793 18.4803C27.6109 18.2918 27.5105 18.0393 27.5127 17.7772C27.515 17.515 27.6203 17.2644 27.8057 17.079C27.9911 16.8936 28.2417 16.7883 28.5039 16.786C28.766 16.7838 29.0185 16.8842 29.2071 17.0663L30.3916 18.2508L35.7002 11.1737C35.8593 10.9616 36.0959 10.8206 36.3584 10.7831Z" fill="black"/>
</svg>
