<svg width="64" height="65" viewBox="0 0 64 65" fill="none" xmlns="http://www.w3.org/2000/svg">
<path d="M22.9128 34.4414H39.3551C40.8993 36.1079 43.0857 37.151 45.5084 37.151C50.1747 37.151 53.9711 33.2863 53.9711 28.5359C53.9711 23.7856 50.1747 19.9209 45.5084 19.9209C43.3678 19.9209 41.4117 20.7357 39.9197 22.0746C38.9892 21.5807 38.0045 21.2059 36.9886 20.959C39.536 19.8035 41.3171 17.2032 41.3171 14.1858C41.3171 10.0986 38.0507 6.77328 34.0355 6.77328C30.0204 6.77328 26.7538 10.0986 26.7538 14.186C26.7538 17.2035 28.5353 19.804 31.0831 20.9594C25.7928 22.2502 21.7018 26.9238 21.2797 32.6498C21.2457 33.1122 21.4029 33.5713 21.7112 33.9094C22.0195 34.2475 22.4573 34.4414 22.9128 34.4414ZM52.3686 28.5359C52.3686 32.3869 49.291 35.5197 45.5084 35.5197C41.7255 35.5197 38.648 32.3868 38.648 28.5359C38.648 24.6851 41.7256 21.5522 45.5084 21.5522C49.2911 21.5523 52.3686 24.6851 52.3686 28.5359ZM28.3563 14.186C28.3563 10.9981 30.904 8.40464 34.0355 8.40464C37.167 8.40464 39.7146 10.9981 39.7146 14.186C39.7146 17.3737 37.167 19.9672 34.0355 19.9672C30.904 19.9672 28.3563 17.3737 28.3563 14.186ZM34.0355 22.2356C35.6779 22.2356 37.2996 22.6088 38.7796 23.3192C37.6928 24.7683 37.0455 26.5763 37.0455 28.536C37.0455 30.0909 37.4543 31.5496 38.1651 32.8102H22.9128C22.9037 32.8102 22.8941 32.809 22.8858 32.7998C22.8774 32.7907 22.8769 32.7809 22.8776 32.7718C23.3131 26.8636 28.2143 22.2356 34.0355 22.2356ZM42.9334 26.9119C42.9334 25.7859 43.6866 24.8356 44.7071 24.5559V23.9005C44.7071 23.45 45.0659 23.0848 45.5084 23.0848C45.9509 23.0848 46.3096 23.45 46.3096 23.9005V24.5218C46.8921 24.6437 47.4193 24.9854 47.775 25.4862C48.0343 25.8512 47.9537 26.3612 47.5952 26.6251C47.2364 26.8891 46.7356 26.8071 46.4763 26.442C46.3258 26.23 46.0851 26.1036 45.8322 26.1036H45.33C44.8921 26.1036 44.5358 26.4663 44.5358 26.9119C44.5358 27.3577 44.8921 27.7204 45.33 27.7204H45.6866C47.008 27.7204 48.0832 28.8148 48.0832 30.1601C48.0832 31.286 47.3299 32.2364 46.3096 32.5162V33.1716C46.3096 33.6221 45.9509 33.9873 45.5084 33.9873C45.0659 33.9873 44.7071 33.6221 44.7071 33.1716V32.5503C44.1247 32.4284 43.5975 32.0868 43.2417 31.586C42.9824 31.2209 43.0628 30.7109 43.4214 30.447C43.78 30.1829 44.2809 30.2651 44.5402 30.6299C44.6909 30.842 44.9316 30.9685 45.1844 30.9685H45.6867C46.1245 30.9685 46.4808 30.6058 46.4808 30.1601C46.4808 29.7143 46.1245 29.3517 45.6867 29.3517H45.3301C44.0085 29.3517 42.9334 28.2572 42.9334 26.9119Z" fill="#0087C7"/>
<path d="M55.4434 38.6569C54.8896 37.68 53.9917 36.9804 52.9153 36.6868C51.8388 36.3932 50.7177 36.542 49.7581 37.1059L38.412 43.7741C38.3731 41.7854 37.0599 39.9729 35.0815 39.4246L22.5577 35.9546C20.8918 35.4934 19.0936 35.9645 17.3577 37.3178L14.088 39.8667L14.0104 39.5718C13.7904 38.7361 12.9439 38.2384 12.1225 38.4621L9.14277 39.2749C8.32177 39.4987 7.83279 40.3608 8.05264 41.1968L12.3729 57.6097C12.4792 58.0138 12.7343 58.3519 13.0914 58.5619C13.3296 58.7019 13.5935 58.7733 13.8607 58.7733C13.9942 58.7733 14.1286 58.7555 14.2607 58.7195L17.2406 57.9066C17.6375 57.7982 17.9695 57.5386 18.1758 57.1751C18.382 56.8116 18.4369 56.3888 18.3305 55.9847L18.1565 55.3239C19.9544 53.9434 21.6047 53.5538 23.6076 54.0214L30.781 55.6955C31.4139 55.8431 32.0226 55.9173 32.6106 55.9172C33.8104 55.9172 34.9244 55.6087 35.981 54.9877L53.92 44.4445C55.9073 43.2765 56.5905 40.6802 55.4434 38.6569ZM13.9051 57.1274L9.61642 40.8345L12.4782 40.054L16.7667 56.3468L13.9051 57.1274ZM53.1188 43.0317L35.1799 53.5747C33.9723 54.2847 32.6507 54.4582 31.1392 54.1053L23.9658 52.4312C21.682 51.8984 19.7163 52.271 17.7138 53.6418L14.5368 41.5716L18.332 38.613C19.6749 37.5658 20.955 37.2012 22.1368 37.5286L34.6605 40.9985C36.2122 41.4286 37.1311 43.0636 36.7087 44.6432C36.2862 46.2226 34.6807 47.1576 33.1286 46.728L26.4388 44.8744C26.0122 44.7563 25.5717 45.0125 25.4554 45.4472C25.3391 45.8819 25.591 46.3301 26.0181 46.4484L32.7078 48.302C33.1036 48.4117 33.5016 48.464 33.8933 48.464C35.6135 48.464 37.2122 47.4545 37.9662 45.8582L37.9923 45.9043L50.5594 38.5186C51.1481 38.1723 51.8377 38.0815 52.5006 38.2622C53.1634 38.4431 53.7158 38.8728 54.0555 39.4722C54.761 40.7167 54.3409 42.3134 53.1188 43.0317Z" fill="black"/>
</svg>
