<svg width="18" height="18" viewBox="0 0 18 18" fill="none" xmlns="http://www.w3.org/2000/svg">
<path d="M0 9C0 4.02944 4.02944 0 9 0C13.9706 0 18 4.02944 18 9C18 13.9706 13.9706 18 9 18C4.02944 18 0 13.9706 0 9Z" fill="#4BCD6B"/>
<path d="M11.7382 6.1137C12.0897 5.76223 12.6594 5.76223 13.0109 6.1137C13.3623 6.46517 13.3623 7.03489 13.0109 7.38636L8.51087 11.8864C8.1594 12.2378 7.58968 12.2378 7.23821 11.8864L4.98821 9.63636C4.63674 9.28489 4.63674 8.71517 4.98821 8.3637C5.31772 8.0342 5.83882 8.01386 6.19231 8.30218L6.26087 8.3637L7.87454 9.97737L11.7382 6.1137Z" fill="white"/>
</svg>
