<svg width="16" height="17" viewBox="0 0 16 17" fill="none" xmlns="http://www.w3.org/2000/svg">
<g clip-path="url(#clip0_19748_584)">
<path d="M13.4547 8.77336C13.4547 5.76089 11.0126 3.31881 8.00016 3.31881C4.9877 3.31881 2.54562 5.76089 2.54562 8.77336C2.54562 11.7858 4.9877 14.2279 8.00016 14.2279C11.0126 14.2279 13.4547 11.7858 13.4547 8.77336ZM10.2989 6.52667C10.5356 6.28999 10.9193 6.28999 11.1559 6.52667C11.3926 6.76335 11.3926 7.147 11.1559 7.38368L7.51958 11.02C7.28289 11.2567 6.89925 11.2567 6.66257 11.02L4.84439 9.20186L4.80296 9.15569C4.6088 8.91765 4.6225 8.56674 4.84439 8.34485C5.06627 8.12296 5.41718 8.10927 5.65523 8.30342L5.70139 8.34485L7.09107 9.73453L10.2989 6.52667ZM14.6668 8.77336C14.6668 12.4553 11.6821 15.44 8.00016 15.44C4.31826 15.44 1.3335 12.4553 1.3335 8.77336C1.3335 5.09146 4.31826 2.10669 8.00016 2.10669C11.6821 2.10669 14.6668 5.09146 14.6668 8.77336Z" fill="#4BCD6B"/>
</g>
<defs>
<clipPath id="clip0_19748_584">
<path d="M0 8.77344C0 4.35516 3.58172 0.773438 8 0.773438C12.4183 0.773438 16 4.35516 16 8.77344C16 13.1917 12.4183 16.7734 8 16.7734C3.58172 16.7734 0 13.1917 0 8.77344Z" fill="white"/>
</clipPath>
</defs>
</svg>
