<svg width="22" height="22" viewBox="0 0 22 22" fill="none" xmlns="http://www.w3.org/2000/svg">
<path fill-rule="evenodd" clip-rule="evenodd" d="M4.85174 4.85183C5.20972 4.49385 5.79012 4.49385 6.1481 4.85183L10.9999 9.70365L15.8517 4.85183C16.2097 4.49385 16.7901 4.49385 17.1481 4.85183C17.5061 5.20981 17.5061 5.79021 17.1481 6.14819L12.2963 11L17.1481 15.8518C17.5061 16.2098 17.5061 16.7902 17.1481 17.1482C16.7901 17.5062 16.2097 17.5062 15.8517 17.1482L10.9999 12.2964L6.1481 17.1482C5.79012 17.5062 5.20972 17.5062 4.85174 17.1482C4.49376 16.7902 4.49376 16.2098 4.85174 15.8518L9.70356 11L4.85174 6.14819C4.49376 5.79021 4.49376 5.20981 4.85174 4.85183Z" fill="black"/>
</svg>
