<svg width="16" height="16" viewBox="0 0 16 16" fill="none" xmlns="http://www.w3.org/2000/svg">
<path d="M11.0002 6.46647C11.0002 6.0821 10.9993 5.83375 10.9839 5.64486C10.9691 5.4638 10.944 5.39657 10.9272 5.36361C10.8634 5.23829 10.7615 5.13648 10.6362 5.07259C10.6033 5.0558 10.536 5.03075 10.355 5.01595C10.1661 5.00052 9.91774 4.99967 9.53337 4.99967H4.13363C3.74926 4.99967 3.50091 5.00052 3.31201 5.01595C3.13096 5.03075 3.06372 5.0558 3.03076 5.07259C2.90545 5.13648 2.80364 5.23829 2.73975 5.36361C2.72296 5.39657 2.69791 5.4638 2.68311 5.64486C2.66768 5.83375 2.66683 6.0821 2.66683 6.46647V11.8662C2.66683 12.2506 2.66768 12.4989 2.68311 12.6878C2.69791 12.8689 2.72296 12.9361 2.73975 12.9691C2.80364 13.0944 2.90545 13.1962 3.03076 13.2601C3.06372 13.2769 3.13096 13.3019 3.31201 13.3167C3.50091 13.3322 3.74926 13.333 4.13363 13.333H9.53337C9.91774 13.333 10.1661 13.3322 10.355 13.3167C10.536 13.3019 10.6033 13.2769 10.6362 13.2601C10.7615 13.1962 10.8634 13.0944 10.9272 12.9691C10.944 12.9361 10.9691 12.8689 10.9839 12.6878C10.9993 12.4989 11.0002 12.2506 11.0002 11.8662V6.46647ZM13.3335 10.9997V6.2666C13.3335 5.50898 13.3332 4.98054 13.2996 4.56934C13.2667 4.16589 13.2049 3.93371 13.1154 3.75814C12.9237 3.38199 12.6179 3.07616 12.2417 2.88444C12.0661 2.79498 11.8339 2.73316 11.4305 2.7002C11.0193 2.66661 10.4909 2.66634 9.73324 2.66634H5.00017C4.63198 2.66634 4.3335 2.36786 4.3335 1.99968C4.3335 1.63149 4.63198 1.33301 5.00017 1.33301H9.73324C10.469 1.33301 11.0611 1.33236 11.5392 1.37142C12.025 1.41111 12.4517 1.49518 12.8465 1.69629C13.4737 2.01587 13.984 2.52611 14.3036 3.15332C14.5047 3.54812 14.5887 3.97481 14.6284 4.46061C14.6675 4.93872 14.6668 5.53088 14.6668 6.2666V10.9997C14.6668 11.3679 14.3684 11.6663 14.0002 11.6663C13.632 11.6663 13.3335 11.3679 13.3335 10.9997ZM12.3335 11.8662C12.3335 12.2286 12.3342 12.5408 12.3133 12.7965C12.2918 13.0601 12.2439 13.3223 12.1154 13.5745C11.9237 13.9507 11.6179 14.2565 11.2417 14.4482C10.9895 14.5767 10.7272 14.6246 10.4637 14.6462C10.2079 14.6671 9.89574 14.6663 9.53337 14.6663H4.13363C3.77126 14.6663 3.45907 14.6671 3.20329 14.6462C2.93979 14.6246 2.67749 14.5767 2.4253 14.4482C2.04915 14.2565 1.74331 13.9507 1.5516 13.5745C1.4231 13.3223 1.37522 13.0601 1.35368 12.7965C1.33278 12.5408 1.3335 12.2286 1.3335 11.8662V6.46647C1.3335 6.1041 1.33278 5.79191 1.35368 5.53613C1.37522 5.27263 1.4231 5.01034 1.5516 4.75814C1.74331 4.38199 2.04915 4.07616 2.4253 3.88444C2.67749 3.75594 2.93979 3.70806 3.20329 3.68652C3.45907 3.66563 3.77126 3.66634 4.13363 3.66634H9.53337C9.89574 3.66634 10.2079 3.66563 10.4637 3.68652C10.7272 3.70806 10.9895 3.75594 11.2417 3.88444C11.6179 4.07616 11.9237 4.38199 12.1154 4.75814C12.2439 5.01034 12.2918 5.27263 12.3133 5.53613C12.3342 5.79191 12.3335 6.1041 12.3335 6.46647V11.8662Z" fill="#0087C7"/>
</svg>
