<svg width="16" height="16" viewBox="0 0 16 16" fill="none" xmlns="http://www.w3.org/2000/svg">
<path d="M7.33341 7.99967C7.33341 7.63148 7.63189 7.33301 8.00008 7.33301C8.36827 7.33301 8.66675 7.63148 8.66675 7.99967V12.3903L10.1954 10.8617C10.4557 10.6013 10.8778 10.6013 11.1381 10.8617C11.3985 11.122 11.3985 11.544 11.1381 11.8044L8.47144 14.471C8.21109 14.7314 7.78908 14.7314 7.52873 14.471L4.86206 11.8044L4.81649 11.7536C4.60292 11.4917 4.61798 11.1057 4.86206 10.8617C5.10614 10.6176 5.49214 10.6025 5.75399 10.8161L5.80477 10.8617L7.33341 12.3903V7.99967ZM14.0001 8.33301C14.0001 7.11821 13.0713 6.11927 11.8855 6.00944C11.5835 5.98147 11.3384 5.75341 11.2891 5.4541C11.0292 3.87283 9.65485 2.66634 8.00008 2.66634C6.34531 2.66634 4.97097 3.87283 4.71102 5.4541C4.66179 5.75341 4.41671 5.98147 4.11466 6.00944C2.9289 6.11927 2.00008 7.11821 2.00008 8.33301C2.00008 9.09084 2.36087 9.76464 2.92261 10.1917L3.03784 10.2738L3.09253 10.3148C3.35272 10.5302 3.41274 10.9121 3.22078 11.1989C3.02872 11.4857 2.65257 11.5757 2.35425 11.417L2.29565 11.3818L2.11597 11.2536C1.23639 10.5848 0.666748 9.52548 0.666748 8.33301C0.666748 6.59425 1.87659 5.13869 3.50073 4.76139C4.04357 2.78511 5.85122 1.33301 8.00008 1.33301C10.1489 1.33301 11.9559 2.7852 12.4988 4.76139C14.1232 5.13846 15.3334 6.59403 15.3334 8.33301C15.3334 9.60485 14.6854 10.7252 13.7045 11.3818C13.3986 11.5866 12.9842 11.5047 12.7794 11.1989C12.5746 10.893 12.6565 10.4786 12.9623 10.2738C13.5893 9.85406 14.0001 9.14137 14.0001 8.33301Z" fill="white"/>
</svg>
