<svg width="89" height="88" viewBox="0 0 89 88" fill="none" xmlns="http://www.w3.org/2000/svg">
<path d="M10.9501 32.7246C10.4001 32.7246 9.8501 32.3121 9.8501 31.6246C9.8501 24.6121 15.6251 18.9746 22.6376 18.9746C23.1876 18.9746 23.7376 19.3871 23.7376 20.0746C23.7376 20.7621 23.3251 21.1746 22.6376 21.1746C16.7251 21.1746 11.9126 25.8496 11.9126 31.7621C11.9126 32.3121 11.5001 32.7246 10.9501 32.7246Z" fill="black"/>
<path d="M64.1625 24.7498C64.025 24.7498 64.025 24.7498 64.1625 24.7498C63.475 24.6123 63.0625 24.1998 63.2 23.6498C63.6125 19.9373 62.5125 16.0873 59.7625 13.0623C57.0125 10.0373 53.1625 8.2498 49.0375 8.2498C48.4875 8.2498 47.9375 7.8373 47.9375 7.1498C47.9375 6.4623 48.35 6.0498 49.0375 6.0498C53.7125 6.0498 58.1125 8.1123 61.275 11.5498C64.3 14.9873 65.675 19.3873 65.125 23.6498C65.125 24.3373 64.575 24.7498 64.1625 24.7498Z" fill="black"/>
<path d="M77.2249 47.4375C76.8124 47.4375 76.5374 47.3 76.3999 46.8875C76.1249 46.3375 76.2624 45.7875 76.6749 45.5125C79.9749 43.45 81.8999 40.0125 81.8999 36.3C81.8999 33.1375 80.5249 30.1125 78.1874 28.05C75.7124 25.9875 72.5499 25.025 69.1124 25.4375C68.8374 25.4375 68.4249 25.4375 68.2874 25.1625C68.0124 24.8875 68.0124 24.6125 68.0124 24.3375C68.5624 19.1125 66.9124 13.8875 63.3374 9.9C59.6249 5.775 54.5374 3.4375 49.0374 3.4375C40.5124 3.4375 32.9499 8.9375 30.7499 16.9125C30.6124 17.1875 30.4749 17.4625 30.1999 17.6C29.9249 17.7375 29.6499 17.7375 29.3749 17.6C27.4499 16.6375 25.2499 16.225 22.9124 16.225C14.2499 16.225 7.2374 23.2375 7.2374 31.7625C7.2374 36.1625 9.1624 40.425 12.5999 43.45C12.8749 43.725 12.8749 44.4125 12.4624 44.825C12.0499 45.2375 11.4999 45.2375 10.9499 44.9625C7.0999 41.525 4.8999 36.7125 4.8999 31.7625C4.8999 22.1375 12.8749 14.1625 22.6374 14.1625C24.8374 14.1625 27.0374 14.575 28.9624 15.2625C31.8499 7.0125 39.9624 1.375 48.8999 1.375C54.9499 1.375 60.7249 3.9875 64.7124 8.525C68.4249 12.65 70.2124 18.0125 69.9374 23.375C73.5124 23.2375 76.8124 24.3375 79.4249 26.5375C82.1749 29.0125 83.8249 32.5875 83.8249 36.3C83.8249 40.8375 81.4874 44.9625 77.6374 47.3C77.4999 47.4375 77.3624 47.4375 77.2249 47.4375Z" fill="black"/>
<path d="M16.4501 79.4754C15.9001 79.4754 15.3501 79.0629 15.3501 78.3754V45.3754C15.3501 44.8254 15.7626 44.2754 16.4501 44.2754H40.6501C41.2001 44.2754 41.7501 44.6879 41.7501 45.3754C41.7501 46.0629 41.3376 46.4754 40.6501 46.4754H17.5501V78.3754C17.5501 78.9254 17.1376 79.4754 16.4501 79.4754Z" fill="black"/>
<path d="M72.55 79.4752C72 79.4752 71.45 79.0627 71.45 78.3752V46.3377H48.35C47.8 46.3377 47.25 45.9252 47.25 45.2377C47.25 44.5502 47.6625 44.1377 48.35 44.1377H72.55C73.1 44.1377 73.65 44.5502 73.65 45.2377V78.2377C73.5125 78.9252 73.1 79.4752 72.55 79.4752Z" fill="black"/>
<path d="M11.6376 79.4744C11.0876 79.4744 10.5376 79.0619 10.5376 78.3744V42.7619C10.5376 40.9744 12.0501 39.4619 13.8376 39.4619H40.5126C41.0626 39.4619 41.6126 39.8744 41.6126 40.5619C41.6126 41.2494 41.2001 41.6619 40.5126 41.6619H13.9751C13.1501 41.6619 12.7376 42.3494 12.7376 42.8994V78.3744C12.7376 78.9244 12.3251 79.4744 11.6376 79.4744Z" fill="black"/>
<path d="M33.535 20.9875H35.2689L38.828 30.2959H37.1984L36.351 27.9623H32.4529L31.6055 30.2959H29.9759L33.535 20.9875ZM32.9092 26.7107H35.8947L34.4345 22.6301H34.3824L32.9092 26.7107ZM39.7368 20.9875H43.8826C44.8473 20.9875 45.5992 21.2004 46.138 21.6263C46.7203 22.1043 47.0115 22.7822 47.0115 23.66C47.0115 24.1381 46.8811 24.5683 46.6204 24.9507C46.3336 25.3679 45.9381 25.6417 45.434 25.772V25.7981C46.2423 25.9806 46.6986 26.5238 46.8029 27.4278L46.9593 28.927C47.0115 29.4919 47.1984 29.9482 47.5199 30.2959H45.8642C45.647 30.0178 45.5122 29.6136 45.4601 29.0835L45.3428 27.9362C45.2906 27.4234 45.1342 27.0584 44.8734 26.8411C44.6127 26.6151 44.2129 26.5021 43.674 26.5021H41.2622V30.2959H39.7368V20.9875ZM41.2622 22.2912V25.1984H43.674C44.265 25.1984 44.7213 25.0724 45.0429 24.8203C45.3297 24.5596 45.4731 24.1946 45.4731 23.7252C45.4731 23.2124 45.3297 22.8474 45.0429 22.6301C44.7648 22.4041 44.3085 22.2912 43.674 22.2912H41.2622ZM48.8271 20.9875H50.6132L53.7812 28.2882H53.8333L56.9883 20.9875H58.7744V30.2959H57.249V23.8817H57.1969L54.4591 30.2959H53.1424L50.4046 23.8817H50.3524V30.2959H48.8271V20.9875Z" fill="#0087C7"/>
<path d="M77.3625 79.4752C76.8125 79.4752 76.2625 79.0627 76.2625 78.3752V42.7627C76.2625 42.0752 75.7125 41.5252 75.025 41.5252H48.35C47.8 41.5252 47.25 41.1127 47.25 40.4252C47.25 39.7377 47.6625 39.3252 48.35 39.3252H75.025C76.8125 39.3252 78.325 40.8377 78.325 42.6252V78.3752C78.325 78.9252 77.9125 79.4752 77.3625 79.4752Z" fill="black"/>
<path d="M79.0125 86.7629H9.84995C7.64995 86.7629 5.86245 85.1129 5.44995 82.9129L4.76245 78.5129C4.76245 78.2379 4.76245 77.9629 5.03745 77.6879C5.17495 77.4129 5.58745 77.2754 5.86245 77.2754H37.625C38.0374 77.2754 38.3125 77.5504 38.5875 77.8254L39.825 80.0254H49.3125L50.55 77.8254C50.6875 77.5504 51.1 77.2754 51.5125 77.2754H83C83.275 77.2754 83.5499 77.4129 83.825 77.6879C83.9624 77.9629 84.1 78.2379 84.1 78.5129L83.4125 82.9129C83.275 85.1129 81.35 86.7629 79.0125 86.7629ZM7.09995 79.4754L7.64995 82.6379C7.64995 83.8754 8.74995 84.7004 9.84995 84.7004H79.0125C80.25 84.7004 81.2125 83.8754 81.35 82.7754L81.9 79.4754H51.7875L50.55 81.6754C50.4125 81.9504 50 82.2254 49.5875 82.2254H39C38.5875 82.2254 38.3125 81.9504 38.0374 81.6754L36.7999 79.4754H7.09995Z" fill="black"/>
<path d="M44.4999 63.1227C44.2249 63.1227 43.8124 62.9853 43.6749 62.7103L35.2874 51.7102C35.0124 51.4353 35.0124 51.0228 35.1499 50.6103C35.2874 50.1978 35.6999 50.0602 36.1124 50.0602H39.5499V38.2709C39.5499 37.7209 39.9624 37.1709 40.6499 37.1709C41.3374 37.1709 41.7499 37.5834 41.7499 38.2709V51.1602C41.7499 51.7102 41.3374 52.2602 40.6499 52.2602H38.1749L44.4999 60.5102L50.8249 52.2602H48.3499C47.7999 52.2602 47.2499 51.8477 47.2499 51.1602V38.2709C47.2499 37.7209 47.6624 37.1709 48.3499 37.1709C49.0374 37.1709 49.4499 37.5834 49.4499 38.2709V50.1977H52.8874C53.2999 50.1977 53.5749 50.4727 53.8499 50.7477C53.9874 51.1602 53.9874 51.5727 53.7124 51.8477L45.3249 62.8477C45.1874 62.9852 44.7749 63.1227 44.4999 63.1227Z" fill="black"/>
<path d="M44.5001 51.2973C44.2251 51.2973 43.9501 51.1598 43.8126 51.0223C43.6751 50.8848 43.5376 50.6098 43.5376 50.3348C43.5376 50.0598 43.6751 49.7848 43.8126 49.6473C44.2251 49.2348 44.9126 49.2348 45.3251 49.6473C45.4626 49.7848 45.6001 50.0598 45.6001 50.3348C45.6001 50.6098 45.4626 50.8848 45.3251 51.0223C45.0501 51.1598 44.7751 51.2973 44.5001 51.2973Z" fill="black"/>
<path d="M44.5001 46.348C44.2251 46.348 43.9501 46.2105 43.8126 46.073C43.6751 45.9355 43.5376 45.6605 43.5376 45.3855C43.5376 45.1105 43.6751 44.8355 43.8126 44.698C44.2251 44.2855 44.9126 44.2855 45.3251 44.698C45.4626 44.973 45.6001 45.1105 45.6001 45.3855C45.6001 45.6605 45.4626 45.9355 45.3251 46.073C45.0501 46.2105 44.7751 46.348 44.5001 46.348Z" fill="black"/>
<path d="M44.5001 41.5355C44.2251 41.5355 43.9501 41.398 43.8126 41.2605C43.6751 41.123 43.5376 40.848 43.5376 40.573C43.5376 40.298 43.6751 40.023 43.8126 39.8855C44.2251 39.473 44.9126 39.473 45.3251 39.8855C45.4626 40.023 45.6001 40.298 45.6001 40.573C45.6001 40.848 45.4626 41.123 45.3251 41.2605C45.0501 41.398 44.7751 41.5355 44.5001 41.5355Z" fill="black"/>
</svg>
