<svg width="88" height="88" viewBox="0 0 88 88" fill="none" xmlns="http://www.w3.org/2000/svg">
<path d="M10.4501 32.7246C9.9001 32.7246 9.3501 32.3121 9.3501 31.6246C9.3501 24.6121 15.1251 18.9746 22.1376 18.9746C22.6876 18.9746 23.2376 19.3871 23.2376 20.0746C23.2376 20.7621 22.8251 21.1746 22.1376 21.1746C16.2251 21.1746 11.4126 25.8496 11.4126 31.7621C11.4126 32.3121 11.0001 32.7246 10.4501 32.7246Z" fill="black"/>
<path d="M63.6625 24.7498C63.525 24.7498 63.525 24.7498 63.6625 24.7498C62.975 24.6123 62.5625 24.1998 62.7 23.6498C63.1125 19.9373 62.0125 16.0873 59.2625 13.0623C56.5125 10.0373 52.6625 8.2498 48.5375 8.2498C47.9875 8.2498 47.4375 7.8373 47.4375 7.1498C47.4375 6.4623 47.85 6.0498 48.5375 6.0498C53.2125 6.0498 57.6125 8.1123 60.775 11.5498C63.8 14.9873 65.175 19.3873 64.625 23.6498C64.625 24.3373 64.075 24.7498 63.6625 24.7498Z" fill="black"/>
<path d="M76.7249 47.4375C76.3124 47.4375 76.0374 47.3 75.8999 46.8875C75.6249 46.3375 75.7624 45.7875 76.1749 45.5125C79.4749 43.45 81.3999 40.0125 81.3999 36.3C81.3999 33.1375 80.0249 30.1125 77.6874 28.05C75.2124 25.9875 72.0499 25.025 68.6124 25.4375C68.3374 25.4375 67.9249 25.4375 67.7874 25.1625C67.5124 24.8875 67.5124 24.6125 67.5124 24.3375C68.0624 19.1125 66.4124 13.8875 62.8374 9.9C59.1249 5.775 54.0374 3.4375 48.5374 3.4375C40.0124 3.4375 32.4499 8.9375 30.2499 16.9125C30.1124 17.1875 29.9749 17.4625 29.6999 17.6C29.4249 17.7375 29.1499 17.7375 28.8749 17.6C26.9499 16.6375 24.7499 16.225 22.4124 16.225C13.7499 16.225 6.7374 23.2375 6.7374 31.7625C6.7374 36.1625 8.6624 40.425 12.0999 43.45C12.3749 43.725 12.3749 44.4125 11.9624 44.825C11.5499 45.2375 10.9999 45.2375 10.4499 44.9625C6.5999 41.525 4.3999 36.7125 4.3999 31.7625C4.3999 22.1375 12.3749 14.1625 22.1374 14.1625C24.3374 14.1625 26.5374 14.575 28.4624 15.2625C31.3499 7.0125 39.4624 1.375 48.3999 1.375C54.4499 1.375 60.2249 3.9875 64.2124 8.525C67.9249 12.65 69.7124 18.0125 69.4374 23.375C73.0124 23.2375 76.3124 24.3375 78.9249 26.5375C81.6749 29.0125 83.3249 32.5875 83.3249 36.3C83.3249 40.8375 80.9874 44.9625 77.1374 47.3C76.9999 47.4375 76.8624 47.4375 76.7249 47.4375Z" fill="black"/>
<path d="M15.9501 79.4754C15.4001 79.4754 14.8501 79.0629 14.8501 78.3754V45.3754C14.8501 44.8254 15.2626 44.2754 15.9501 44.2754H40.1501C40.7001 44.2754 41.2501 44.6879 41.2501 45.3754C41.2501 46.0629 40.8376 46.4754 40.1501 46.4754H17.0501V78.3754C17.0501 78.9254 16.6376 79.4754 15.9501 79.4754Z" fill="black"/>
<path d="M72.05 79.4752C71.5 79.4752 70.95 79.0627 70.95 78.3752V46.3377H47.85C47.3 46.3377 46.75 45.9252 46.75 45.2377C46.75 44.5502 47.1625 44.1377 47.85 44.1377H72.05C72.6 44.1377 73.15 44.5502 73.15 45.2377V78.2377C73.0125 78.9252 72.6 79.4752 72.05 79.4752Z" fill="black"/>
<path d="M11.1376 79.4744C10.5876 79.4744 10.0376 79.0619 10.0376 78.3744V42.7619C10.0376 40.9744 11.5501 39.4619 13.3376 39.4619H40.0126C40.5626 39.4619 41.1126 39.8744 41.1126 40.5619C41.1126 41.2494 40.7001 41.6619 40.0126 41.6619H13.4751C12.6501 41.6619 12.2376 42.3494 12.2376 42.8994V78.3744C12.2376 78.9244 11.8251 79.4744 11.1376 79.4744Z" fill="black"/>
<path d="M33.1395 23.5558H34.8734L36.2814 25.6156L37.6764 23.5558H39.4103L37.0897 26.7107L39.7102 30.2959H37.9632L36.2814 27.8058L34.5866 30.2959H32.8397L35.4601 26.7107L33.1395 23.5558ZM43.6879 20.8049C44.6874 20.8049 45.4827 21.07 46.0737 21.6002C46.6039 22.0782 46.8689 22.6649 46.8689 23.3602C46.8689 23.8295 46.7647 24.2293 46.5561 24.5596C46.3127 24.9159 45.9694 25.181 45.5261 25.3549V25.3809C45.9607 25.5026 46.3344 25.7634 46.6473 26.1632C47.0037 26.6151 47.1818 27.1236 47.1818 27.6885C47.1818 28.5055 46.8776 29.1791 46.2692 29.7092C45.6522 30.222 44.7917 30.4784 43.6879 30.4784C42.5754 30.4784 41.715 30.222 41.1066 29.7092C40.4982 29.1878 40.194 28.5142 40.194 27.6885C40.194 27.1062 40.3722 26.5977 40.7285 26.1632C41.0414 25.7547 41.4151 25.4939 41.8497 25.3809V25.3549C41.3977 25.181 41.0544 24.9159 40.8198 24.5596C40.6112 24.2293 40.5069 23.8295 40.5069 23.3602C40.5069 22.6562 40.772 22.0695 41.3021 21.6002C41.8845 21.07 42.6797 20.8049 43.6879 20.8049ZM43.6879 22.0174C43.1317 22.0174 42.6928 22.1651 42.3712 22.4606C42.0844 22.7214 41.9409 23.0386 41.9409 23.4123C41.9409 23.8382 42.0583 24.1772 42.2929 24.4292C42.5798 24.7334 43.0448 24.8855 43.6879 24.8855C44.3311 24.8855 44.7961 24.7334 45.0829 24.4292C45.3175 24.1772 45.4349 23.8382 45.4349 23.4123C45.4349 23.0386 45.2915 22.7214 45.0047 22.4606C44.6744 22.1651 44.2355 22.0174 43.6879 22.0174ZM43.6879 26.0198C43.0361 26.0198 42.5407 26.1762 42.2017 26.4891C41.8714 26.7846 41.7063 27.1844 41.7063 27.6885C41.7063 28.1578 41.8801 28.5359 42.2278 28.8227C42.5667 29.1095 43.0534 29.2529 43.6879 29.2529C44.305 29.2529 44.8004 29.1052 45.1741 28.8097C45.5044 28.5229 45.6695 28.1491 45.6695 27.6885C45.6695 27.1931 45.5088 26.7976 45.1872 26.5021C44.8395 26.1805 44.3398 26.0198 43.6879 26.0198ZM51.6354 20.8049C53.4606 20.8049 54.4905 21.6523 54.7252 23.3472H53.239C53.0565 22.4867 52.5176 22.0565 51.6224 22.0565C50.9966 22.0565 50.5012 22.3607 50.1362 22.9691C49.7798 23.5253 49.6016 24.2424 49.6016 25.1202V25.2375H49.6668C49.9189 24.8551 50.2448 24.5726 50.6446 24.3901C50.9923 24.2163 51.4094 24.1294 51.8962 24.1294C52.8087 24.1294 53.5388 24.4205 54.0864 25.0029C54.6339 25.5852 54.9077 26.337 54.9077 27.2583C54.9077 28.1882 54.5905 28.9574 53.956 29.5658C53.3215 30.1742 52.5437 30.4784 51.6224 30.4784C50.4751 30.4784 49.6016 30.0656 49.0019 29.2399C48.4109 28.4403 48.1154 27.3278 48.1154 25.9024C48.1154 24.3727 48.4326 23.1429 49.0671 22.2129C49.6929 21.2743 50.549 20.8049 51.6354 20.8049ZM51.5702 25.3679C50.9966 25.3679 50.5533 25.5417 50.2404 25.8894C49.9189 26.2197 49.7581 26.6933 49.7581 27.3104C49.7581 27.9014 49.9276 28.3664 50.2665 28.7054C50.6055 29.0443 51.0401 29.2138 51.5702 29.2138C52.1091 29.2138 52.548 29.0313 52.887 28.6663C53.2259 28.3012 53.3954 27.8319 53.3954 27.2583C53.3954 26.6933 53.2346 26.237 52.913 25.8894C52.5741 25.5417 52.1265 25.3679 51.5702 25.3679Z" fill="#0087C7"/>
<path d="M76.8625 79.4752C76.3125 79.4752 75.7625 79.0627 75.7625 78.3752V42.7627C75.7625 42.0752 75.2125 41.5252 74.525 41.5252H47.85C47.3 41.5252 46.75 41.1127 46.75 40.4252C46.75 39.7377 47.1625 39.3252 47.85 39.3252H74.525C76.3125 39.3252 77.825 40.8377 77.825 42.6252V78.3752C77.825 78.9252 77.4125 79.4752 76.8625 79.4752Z" fill="black"/>
<path d="M78.5125 86.7629H9.34995C7.14995 86.7629 5.36245 85.1129 4.94995 82.9129L4.26245 78.5129C4.26245 78.2379 4.26245 77.9629 4.53745 77.6879C4.67495 77.4129 5.08745 77.2754 5.36245 77.2754H37.125C37.5374 77.2754 37.8125 77.5504 38.0875 77.8254L39.325 80.0254H48.8125L50.05 77.8254C50.1875 77.5504 50.6 77.2754 51.0125 77.2754H82.5C82.775 77.2754 83.0499 77.4129 83.325 77.6879C83.4624 77.9629 83.6 78.2379 83.6 78.5129L82.9125 82.9129C82.775 85.1129 80.85 86.7629 78.5125 86.7629ZM6.59995 79.4754L7.14995 82.6379C7.14995 83.8754 8.24995 84.7004 9.34995 84.7004H78.5125C79.75 84.7004 80.7125 83.8754 80.85 82.7754L81.4 79.4754H51.2875L50.05 81.6754C49.9125 81.9504 49.5 82.2254 49.0875 82.2254H38.5C38.0875 82.2254 37.8125 81.9504 37.5374 81.6754L36.2999 79.4754H6.59995Z" fill="black"/>
<path d="M43.9999 63.1227C43.7249 63.1227 43.3124 62.9853 43.1749 62.7103L34.7874 51.7102C34.5124 51.4353 34.5124 51.0228 34.6499 50.6103C34.7874 50.1978 35.1999 50.0602 35.6124 50.0602H39.0499V38.2709C39.0499 37.7209 39.4624 37.1709 40.1499 37.1709C40.8374 37.1709 41.2499 37.5834 41.2499 38.2709V51.1602C41.2499 51.7102 40.8374 52.2602 40.1499 52.2602H37.6749L43.9999 60.5102L50.3249 52.2602H47.8499C47.2999 52.2602 46.7499 51.8477 46.7499 51.1602V38.2709C46.7499 37.7209 47.1624 37.1709 47.8499 37.1709C48.5374 37.1709 48.9499 37.5834 48.9499 38.2709V50.1977H52.3874C52.7999 50.1977 53.0749 50.4727 53.3499 50.7477C53.4874 51.1602 53.4874 51.5727 53.2124 51.8477L44.8249 62.8477C44.6874 62.9852 44.2749 63.1227 43.9999 63.1227Z" fill="black"/>
<path d="M44.0001 51.2973C43.7251 51.2973 43.4501 51.1598 43.3126 51.0223C43.1751 50.8848 43.0376 50.6098 43.0376 50.3348C43.0376 50.0598 43.1751 49.7848 43.3126 49.6473C43.7251 49.2348 44.4126 49.2348 44.8251 49.6473C44.9626 49.7848 45.1001 50.0598 45.1001 50.3348C45.1001 50.6098 44.9626 50.8848 44.8251 51.0223C44.5501 51.1598 44.2751 51.2973 44.0001 51.2973Z" fill="black"/>
<path d="M44.0001 46.348C43.7251 46.348 43.4501 46.2105 43.3126 46.073C43.1751 45.9355 43.0376 45.6605 43.0376 45.3855C43.0376 45.1105 43.1751 44.8355 43.3126 44.698C43.7251 44.2855 44.4126 44.2855 44.8251 44.698C44.9626 44.973 45.1001 45.1105 45.1001 45.3855C45.1001 45.6605 44.9626 45.9355 44.8251 46.073C44.5501 46.2105 44.2751 46.348 44.0001 46.348Z" fill="black"/>
<path d="M44.0001 41.5355C43.7251 41.5355 43.4501 41.398 43.3126 41.2605C43.1751 41.123 43.0376 40.848 43.0376 40.573C43.0376 40.298 43.1751 40.023 43.3126 39.8855C43.7251 39.473 44.4126 39.473 44.8251 39.8855C44.9626 40.023 45.1001 40.298 45.1001 40.573C45.1001 40.848 44.9626 41.123 44.8251 41.2605C44.5501 41.398 44.2751 41.5355 44.0001 41.5355Z" fill="black"/>
</svg>
