<svg width="64" height="65" viewBox="0 0 64 65" fill="none" xmlns="http://www.w3.org/2000/svg">
<path d="M53.1207 43.6885C53.4474 43.3567 53.9373 43.3567 54.2639 43.6885C54.5904 44.0202 54.5905 44.5178 54.2639 44.8495L44.6276 54.7182C44.2192 55.0499 43.5662 54.9671 43.3212 54.5525L40.2989 49.577C40.054 49.1624 40.1361 48.6648 40.5442 48.416C40.9524 48.1672 41.4423 48.2496 41.6874 48.664L44.2191 52.7275L53.1207 43.6885Z" fill="#131316"/>
<path d="M27.7223 39.7083C28.1307 39.7083 28.5392 40.0403 28.5392 40.5379C28.5391 41.0354 28.2122 41.3675 27.7223 41.3675H22.1694C21.6796 41.3674 21.3537 41.0353 21.3535 40.5379C21.3535 40.0404 21.6796 39.7084 22.1694 39.7083H27.7223Z" fill="#131316"/>
<path d="M32.2963 39.9574C32.623 39.6257 33.1129 39.6257 33.4395 39.9574C33.7659 40.2891 33.7661 40.7868 33.4395 41.1184C33.113 41.4501 32.623 41.4499 32.2963 41.1184C31.9696 40.7867 31.9696 40.2891 32.2963 39.9574Z" fill="#131316"/>
<path d="M35.9713 39.9574C36.2162 39.6257 36.7878 39.6257 37.1145 39.9574C37.4409 40.2891 37.4411 40.7868 37.1145 41.1184C36.7879 41.4501 36.2979 41.4499 35.9713 41.1184C35.6446 40.7867 35.6446 40.2891 35.9713 39.9574Z" fill="#131316"/>
<path d="M27.7223 27.3508C28.2123 27.3508 28.5392 27.6828 28.5392 28.1804C28.5391 28.6779 28.2122 29.01 27.7223 29.01H22.1694C21.6797 29.0099 21.3537 28.5949 21.3535 28.1804C21.3535 27.6829 21.6796 27.3509 22.1694 27.3508H27.7223Z" fill="#131316"/>
<path d="M32.2963 27.5999C32.623 27.2682 33.1129 27.2682 33.4395 27.5999C33.7659 27.9317 33.7661 28.4293 33.4395 28.7609C33.113 29.0926 32.623 29.0924 32.2963 28.7609C31.9696 28.4292 31.9696 27.9317 32.2963 27.5999Z" fill="#131316"/>
<path d="M35.9713 27.5999C36.2979 27.2682 36.7878 27.2682 37.1145 27.5999C37.4409 27.9317 37.4411 28.4293 37.1145 28.7609C36.7879 29.0926 36.2164 29.0924 35.9713 28.7609C35.6446 28.4292 35.6446 27.9317 35.9713 27.5999Z" fill="#131316"/>
<path d="M39.5641 27.5999C39.8908 27.2682 40.3807 27.2682 40.7073 27.5999C41.034 27.9317 41.034 28.4292 40.7073 28.7609C40.4622 29.0924 39.8907 29.0926 39.5641 28.7609C39.2375 28.4293 39.2377 27.9317 39.5641 27.5999Z" fill="#131316"/>
<path d="M27.7223 14.9933C28.2123 14.9933 28.5392 15.3253 28.5392 15.8229C28.5391 16.3204 28.2122 16.6525 27.7223 16.6525H22.1694C21.6797 16.6524 21.3537 16.2375 21.3535 15.8229C21.3535 15.3254 21.6796 14.9935 22.1694 14.9933H27.7223Z" fill="#131316"/>
<path d="M32.2963 15.2424C32.623 14.9107 33.1129 14.9107 33.4395 15.2424C33.7659 15.5742 33.7661 16.0718 33.4395 16.4035C33.113 16.7351 32.623 16.7349 32.2963 16.4035C31.9696 16.0717 31.9696 15.5742 32.2963 15.2424Z" fill="#131316"/>
<path d="M35.9713 15.2424C36.2979 14.9107 36.7878 14.9107 37.1145 15.2424C37.4409 15.5742 37.4411 16.0718 37.1145 16.4035C36.7879 16.7351 36.2164 16.7349 35.9713 16.4035C35.6446 16.0717 35.6446 15.5742 35.9713 15.2424Z" fill="#131316"/>
<path d="M39.5641 15.2424C39.8908 14.9107 40.3807 14.9107 40.7073 15.2424C41.034 15.5742 41.034 16.0717 40.7073 16.4035C40.4622 16.7349 39.8907 16.7351 39.5641 16.4035C39.2375 16.0718 39.2377 15.5742 39.5641 15.2424Z" fill="#131316"/>
<path fill-rule="evenodd" clip-rule="evenodd" d="M45.3623 8.77344C46.9956 8.77344 48.3025 10.1007 48.3025 11.7594V19.9699C48.3024 20.7991 47.9751 21.5458 47.4035 22.1262C47.9752 22.7068 48.3025 23.4532 48.3025 24.2826V32.3274C48.3024 33.1565 47.975 33.9022 47.4035 34.4826C47.9751 35.0631 48.3024 35.8098 48.3025 36.639V37.4686C54.2638 37.8834 59 42.9428 59 49.0798C58.9999 55.5487 53.8553 60.7734 47.4856 60.7734C41.1159 60.7734 35.9714 55.5487 35.9713 49.0798C35.9713 48.5822 35.9707 48.084 36.0523 47.5863H18.9029C17.2699 47.5861 15.9639 46.2599 15.9638 44.6015V41.3664H9.51179C9.02213 41.3663 8.69618 41.0351 8.69595 40.5379V31.6635H6.81689C6.40877 31.6633 6.00021 31.3317 6 30.7516V25.3602C6.00007 24.8628 6.32711 24.5307 6.81689 24.5306H8.69595V15.7396C8.69612 15.2423 9.02209 14.9111 9.51179 14.911H15.9638V11.7594C15.9638 10.1009 17.2698 8.77371 18.9029 8.77344H45.3623ZM47.4035 38.9621C41.9323 38.9623 37.5231 43.4401 37.5229 48.9965C37.5229 54.5529 41.9323 59.0317 47.4035 59.0319C52.875 59.0319 57.2852 54.5531 57.2852 48.9965C57.285 43.44 52.7932 38.9621 47.4035 38.9621ZM18.9029 35.1465C18.1682 35.1468 17.5966 35.7272 17.5965 36.4733V44.5181C17.5965 45.2643 18.1681 45.8446 18.9029 45.8448H36.2976C37.6043 41.1177 41.688 37.6346 46.5877 37.3029V36.4733C46.5875 35.727 46.0151 35.1465 45.2802 35.1465H18.9029ZM10.3287 16.6525V24.6974H12.2067C12.6966 24.6974 13.0234 25.0285 13.0236 25.5259V30.9173C13.0234 31.4147 12.6966 31.7458 12.2067 31.7458H10.3287V39.7083H15.9638V36.4733C15.9638 35.6441 16.2901 34.8974 16.8617 34.3169C16.2902 33.7364 15.9638 32.9898 15.9638 32.1606V24.1169C15.9638 23.2876 16.2902 22.541 16.8617 21.9605C16.2902 21.3801 15.9639 20.6334 15.9638 19.8042V16.6525H10.3287ZM18.9029 22.7891C18.1681 22.7893 17.5965 23.3706 17.5965 24.1169V32.1606C17.5965 32.9069 18.1681 33.4881 18.9029 33.4884H45.2802C46.0152 33.4884 46.5877 32.907 46.5877 32.1606V24.1169C46.5877 23.3704 46.0152 22.7891 45.2802 22.7891H18.9029ZM7.63378 26.2721V30.0043H11.3087V26.2721H7.63378ZM18.9029 10.4326C18.1681 10.4329 17.5965 11.096 17.5965 11.7594V19.8042C17.5967 20.5502 18.1683 21.1307 18.9029 21.1309H45.2802C46.0151 21.1309 46.5874 20.5504 46.5877 19.8042V11.7594C46.5877 11.013 46.0152 10.4326 45.2802 10.4326H18.9029Z" fill="#131316"/>
</svg>
