<svg width="64" height="65" viewBox="0 0 64 65" fill="none" xmlns="http://www.w3.org/2000/svg">
<path d="M16.9736 52.8955C17.309 52.8955 17.5818 53.1676 17.582 53.5029C17.582 53.8384 17.3091 54.1113 16.9736 54.1113H9.01855C8.68314 54.1112 8.41113 53.8384 8.41113 53.5029C8.41139 53.1677 8.6833 52.8956 9.01855 52.8955H16.9736Z" fill="#131316"/>
<path d="M16.9736 49.6406C17.3091 49.6406 17.582 49.9125 17.582 50.248C17.582 50.5836 17.3091 50.8555 16.9736 50.8555H9.01855C8.68314 50.8554 8.41113 50.5835 8.41113 50.248C8.41114 49.9126 8.68315 49.6407 9.01855 49.6406H16.9736Z" fill="#131316"/>
<path d="M16.9736 46.3828C17.309 46.3828 17.5819 46.6549 17.582 46.9902C17.582 47.3257 17.3091 47.5986 16.9736 47.5986H9.01855C8.68314 47.5985 8.41113 47.3257 8.41113 46.9902C8.41131 46.6549 8.68325 46.3829 9.01855 46.3828H16.9736Z" fill="#131316"/>
<path d="M16.9736 43.1279C17.3091 43.1279 17.582 43.3999 17.582 43.7354C17.582 44.0709 17.3091 44.3428 16.9736 44.3428H9.01855C8.68314 44.3427 8.41113 44.0708 8.41113 43.7354C8.41117 43.3999 8.68317 43.128 9.01855 43.1279H16.9736Z" fill="#131316"/>
<path d="M16.9736 39.8711C17.309 39.8711 17.5809 40.1432 17.5811 40.4785C17.5811 40.814 17.3091 41.0869 16.9736 41.0869H9.01855C8.68306 41.0869 8.41113 40.814 8.41113 40.4785C8.41131 40.1432 8.68317 39.8711 9.01855 39.8711H16.9736Z" fill="#131316"/>
<path fill-rule="evenodd" clip-rule="evenodd" d="M19.8809 36.9033C20.2162 36.9035 20.4882 37.1754 20.4883 37.5107V56.4717C20.4883 56.8071 20.2162 57.0799 19.8809 57.0801H6.11133C5.77582 57.0801 5.50293 56.8072 5.50293 56.4717V37.5107C5.50299 37.1753 5.77585 36.9033 6.11133 36.9033H19.8809ZM6.71875 55.8643H19.2725V38.1191H6.71875V55.8643Z" fill="#131316"/>
<path d="M36.2295 52.8955C36.5648 52.8956 36.8367 53.1677 36.8369 53.5029C36.8369 53.8384 36.5649 54.1112 36.2295 54.1113H28.2744C27.9389 54.1113 27.667 53.8384 27.667 53.5029C27.6672 53.1676 27.9391 52.8955 28.2744 52.8955H36.2295Z" fill="#131316"/>
<path d="M36.2295 49.6406C36.5649 49.6407 36.8369 49.9126 36.8369 50.248C36.8369 50.5835 36.5649 50.8554 36.2295 50.8555H28.2744C27.9389 50.8555 27.667 50.5836 27.667 50.248C27.667 49.9125 27.9389 49.6406 28.2744 49.6406H36.2295Z" fill="#131316"/>
<path d="M36.2295 46.3828C36.5648 46.3829 36.8367 46.6549 36.8369 46.9902C36.8369 47.3257 36.5649 47.5986 36.2295 47.5986H28.2744C27.9389 47.5986 27.667 47.3257 27.667 46.9902C27.6672 46.6549 27.939 46.3828 28.2744 46.3828H36.2295Z" fill="#131316"/>
<path d="M36.2295 43.1279C36.5649 43.128 36.8369 43.3999 36.8369 43.7354C36.8369 44.0708 36.5649 44.3427 36.2295 44.3428H28.2744C27.9389 44.3428 27.667 44.0709 27.667 43.7354C27.667 43.3999 27.9389 43.1279 28.2744 43.1279H36.2295Z" fill="#131316"/>
<path d="M36.2295 39.8711C36.5648 39.8712 36.8367 40.1432 36.8369 40.4785C36.8369 40.814 36.5649 41.0868 36.2295 41.0869H28.2744C27.9389 41.0869 27.667 40.814 27.667 40.4785C27.6672 40.1432 27.939 39.8711 28.2744 39.8711H36.2295Z" fill="#131316"/>
<path fill-rule="evenodd" clip-rule="evenodd" d="M39.1367 36.9033C39.4721 36.9034 39.7441 37.1753 39.7441 37.5107V56.4717C39.7441 56.8072 39.4722 57.08 39.1367 57.0801H25.3662C25.0307 57.0801 24.7578 56.8072 24.7578 56.4717V37.5107C24.7579 37.1753 25.0307 36.9033 25.3662 36.9033H39.1367ZM25.9736 55.8643H38.5283V38.1191H25.9736V55.8643Z" fill="#131316"/>
<path d="M55.4844 52.8955C55.8197 52.8955 56.0925 53.1676 56.0928 53.5029C56.0928 53.8384 55.8199 54.1113 55.4844 54.1113H47.5293C47.194 54.1111 46.9219 53.8383 46.9219 53.5029C46.9221 53.1678 47.1941 52.8957 47.5293 52.8955H55.4844Z" fill="#131316"/>
<path d="M55.4844 49.6396C55.8199 49.6396 56.0928 49.9125 56.0928 50.248C56.0927 50.5835 55.8198 50.8555 55.4844 50.8555H47.5293C47.1939 50.8554 46.922 50.5834 46.9219 50.248C46.9219 49.9126 47.1939 49.6398 47.5293 49.6396H55.4844Z" fill="#131316"/>
<path d="M55.4844 46.3828C55.8198 46.3828 56.0926 46.6549 56.0928 46.9902C56.0928 47.3257 55.8199 47.5986 55.4844 47.5986H47.5293C47.194 47.5984 46.9219 47.3256 46.9219 46.9902C46.9221 46.655 47.1941 46.383 47.5293 46.3828H55.4844Z" fill="#131316"/>
<path d="M55.4844 43.1279C55.8199 43.1279 56.0927 43.3999 56.0928 43.7354C56.0928 44.0709 55.8199 44.3428 55.4844 44.3428H47.5293C47.194 44.3426 46.9219 44.0707 46.9219 43.7354C46.9219 43.4 47.194 43.1281 47.5293 43.1279H55.4844Z" fill="#131316"/>
<path d="M55.4844 39.8711C55.8198 39.8711 56.0926 40.1432 56.0928 40.4785C56.0928 40.814 55.8199 41.0869 55.4844 41.0869H47.5293C47.194 41.0867 46.9219 40.8139 46.9219 40.4785C46.9221 40.1433 47.1941 39.8713 47.5293 39.8711H55.4844Z" fill="#131316"/>
<path fill-rule="evenodd" clip-rule="evenodd" d="M58.3926 36.9033C58.7278 36.9036 58.9999 37.1754 59 37.5107V56.4717C59 56.807 58.7279 57.0798 58.3926 57.0801H44.623C44.2875 57.0801 44.0146 56.8072 44.0146 56.4717V37.5107C44.0147 37.1753 44.2876 36.9033 44.623 36.9033H58.3926ZM45.2305 55.8643H57.7842V38.1191H45.2305V55.8643Z" fill="#131316"/>
<path fill-rule="evenodd" clip-rule="evenodd" d="M45.6494 8.50586C45.9847 8.50595 46.2566 8.77803 46.2568 9.11328V16.666C46.2556 17.0014 45.985 17.2742 45.6484 17.2744H43.4893V25.3857L46.1553 26.9248L45.8203 25.6797C45.7791 25.5242 45.8017 25.3575 45.8818 25.2178C45.9621 25.0781 46.0955 24.9759 46.251 24.9346L49.2012 24.1475C49.5257 24.0612 49.8589 24.2527 49.9453 24.5771L52.0078 32.2725C52.0491 32.428 52.0275 32.5949 51.9473 32.7334C51.867 32.8717 51.7335 32.9753 51.5781 33.0166L43.8809 35.0762C43.8298 35.0895 43.7759 35.0977 43.7236 35.0977C43.6179 35.0976 43.5135 35.0691 43.4199 35.0156C43.2802 34.9354 43.1781 34.802 43.1367 34.6465L42.3477 31.6963C42.2613 31.3717 42.4538 31.0385 42.7783 30.9521L44.0205 30.6191L41.1064 28.9365C41.0871 28.9256 41.0689 28.9137 41.0508 28.9004C40.4965 28.5661 40.038 28.101 39.7207 27.5527C39.3902 26.9803 39.2148 26.3264 39.2148 25.6641V17.2744H34.3867V27.1719L35.292 26.2656C35.529 26.0287 35.9131 26.0288 36.1514 26.2656L38.3135 28.4238C38.4274 28.538 38.4921 28.6921 38.4922 28.8535C38.4922 29.0151 38.4274 29.1699 38.3145 29.2842L32.6807 34.9199C32.5665 35.0328 32.4124 35.0976 32.251 35.0977C32.0893 35.0977 31.9346 35.033 31.8203 34.9199L26.1885 29.2852C25.9515 29.0481 25.9515 28.6628 26.1885 28.4258L28.3457 26.2646C28.4599 26.1504 28.6147 26.086 28.7764 26.0859C28.938 26.0859 29.0928 26.1504 29.207 26.2646L30.1152 27.1729V17.2744H25.29V25.6631C25.29 26.3254 25.1147 26.9781 24.7842 27.5518C24.4682 28.0999 24.0083 28.5642 23.4541 28.8984C23.4359 28.9118 23.4178 28.9246 23.3984 28.9355L20.4844 30.6182L21.7266 30.9512C22.051 31.0374 22.2432 31.3699 22.1572 31.6943L21.3691 34.6455C21.3277 34.8009 21.2256 34.9333 21.0859 35.0146C20.9911 35.0693 20.885 35.0977 20.7793 35.0977C20.7272 35.0976 20.6739 35.0904 20.623 35.0771L12.9258 33.0166C12.7702 32.9753 12.6371 32.8731 12.5557 32.7334C12.4755 32.5937 12.4539 32.428 12.4951 32.2725L14.5586 24.5771C14.6462 24.2528 14.9786 24.0613 15.3018 24.1475L18.2529 24.9346C18.4083 24.976 18.5419 25.0782 18.6221 25.2178C18.7023 25.3575 18.7239 25.5229 18.6826 25.6797L18.3486 26.9248L21.0146 25.3857V17.2744H18.8555C18.5201 17.2742 18.248 17.0014 18.248 16.666V9.11328C18.2483 8.77808 18.5202 8.50603 18.8555 8.50586H45.6494ZM40.4307 17.2744V25.6641C40.4307 26.1199 40.5461 26.5502 40.7734 26.9453C40.9983 27.3343 41.3156 27.6497 41.7168 27.8818C41.7337 27.8915 41.7509 27.902 41.7666 27.9141L45.8994 30.3008C46.1121 30.4236 46.2308 30.6631 46.1992 30.9062C46.1675 31.1492 45.9908 31.3497 45.7539 31.4141L43.6797 31.9697L44.1543 33.7451L50.6768 32L48.9287 25.4795L47.1533 25.9531L47.71 28.0283C47.7732 28.2654 47.6879 28.5184 47.4922 28.668C47.2977 28.8175 47.0311 28.8359 46.8184 28.7119L42.6816 26.3232C42.6635 26.3148 42.6466 26.3056 42.6309 26.2959C42.5106 26.2266 42.4213 26.1404 42.3594 26.0322C42.2842 25.9011 42.2734 25.7722 42.2734 25.6641V17.2744H40.4307ZM22.2295 17.2744V25.6641C22.2295 25.771 22.2199 25.8997 22.1445 26.0322C22.0802 26.1427 21.993 26.2279 21.874 26.2959C21.857 26.3056 21.8385 26.3157 21.8203 26.3242L17.6855 28.7119C17.4729 28.8344 17.2071 28.8173 17.0127 28.668C16.8182 28.5184 16.7317 28.2654 16.7949 28.0283L17.3516 25.9531L15.5752 25.4795L13.8271 31.999L20.3506 33.7441L20.8242 31.9688L18.751 31.4131C18.5139 31.3499 18.3373 31.1486 18.3057 30.9043C18.2742 30.6601 18.3928 30.4215 18.6055 30.2988L22.7383 27.9131C22.7541 27.9022 22.7711 27.8908 22.7881 27.8799C23.1891 27.6477 23.5066 27.3332 23.7314 26.9443C23.9587 26.5505 24.0742 26.1189 24.0742 25.6631V17.2744H22.2295ZM31.3301 17.2744V28.6396C31.3301 28.8851 31.1822 29.1075 30.9551 29.2012C30.7278 29.2948 30.4658 29.2441 30.292 29.0703L28.7764 27.5547L27.4766 28.8555L32.25 33.6299L37.0234 28.8555L35.7227 27.5557L34.209 29.0703C34.0352 29.244 33.7741 29.2959 33.5469 29.2012C33.3196 29.1076 33.1709 28.8852 33.1709 28.6396V17.2744H31.3301ZM19.4639 16.0586H45.041V9.72168H19.4639V16.0586Z" fill="#131316"/>
</svg>
