<svg width="64" height="65" viewBox="0 0 64 65" fill="none" xmlns="http://www.w3.org/2000/svg">
<path d="M50.8857 28.56H48.6571V24.0656C48.6571 15.0824 41.4087 7.77344 32.5 7.77344C23.5913 7.77344 16.3429 15.0824 16.3429 24.0656C16.3429 24.6835 16.8443 25.1892 17.4571 25.1892H23.0286C23.6414 25.1892 24.1429 24.6835 24.1429 24.0656C24.1429 19.4195 27.8924 15.6386 32.5 15.6386C37.1076 15.6386 40.8571 19.4195 40.8571 24.0656V28.56H14.1143C13.5014 28.56 13 29.0656 13 29.6835V56.6498C13 57.2678 13.5014 57.7734 14.1143 57.7734H50.8857C51.4986 57.7734 52 57.2678 52 56.6498V29.6835C52 29.0656 51.4986 28.56 50.8857 28.56ZM32.5 13.3914C27.04 13.3914 22.5327 17.5824 21.9756 22.942H18.6216C19.1899 15.7229 25.1959 10.0206 32.5 10.0206C40.183 10.0206 46.4286 16.3184 46.4286 24.0656V28.56H43.0857V24.0656C43.0857 18.1779 38.3389 13.3914 32.5 13.3914ZM49.7714 55.5262H15.2286V30.8071H49.7714V55.5262ZM33.6143 35.3015V51.0319C33.6143 51.6498 33.1129 52.1555 32.5 52.1555C31.8871 52.1555 31.3857 51.6498 31.3857 51.0319V35.3015C31.3857 34.6835 31.8871 34.1779 32.5 34.1779C33.1129 34.1779 33.6143 34.6835 33.6143 35.3015ZM46.1333 42.4026C46.5289 42.8352 46.5289 43.5038 46.1333 43.9307L38.8904 51.7959C38.6731 52.0319 38.3723 52.1555 38.0714 52.1555C37.7984 52.1555 37.5254 52.0543 37.3137 51.8577C36.8624 51.4364 36.8346 50.7229 37.258 50.2678L43.7933 43.1667L37.2524 36.0656C36.8346 35.6105 36.8624 34.897 37.3081 34.4757C37.7594 34.0543 38.4614 34.0768 38.8849 34.5319L46.1333 42.4026ZM27.7476 36.0656L21.2067 43.1667L27.7476 50.2678C28.1654 50.7229 28.1376 51.4364 27.6919 51.8577C27.4801 52.06 27.2071 52.1555 26.9341 52.1555C26.6333 52.1555 26.338 52.0375 26.1151 51.7959L18.8723 43.9307C18.4767 43.4982 18.4767 42.8296 18.8723 42.4026L26.1151 34.5375C26.533 34.0824 27.2406 34.0543 27.6919 34.4813C28.1376 34.9027 28.1654 35.6105 27.7476 36.0656Z" fill="#131316"/>
</svg>
