<svg width="64" height="65" viewBox="0 0 64 65" fill="none" xmlns="http://www.w3.org/2000/svg">
<path d="M51.7739 17.1963C51.5604 14.2905 49.2143 11.9847 46.3373 11.9238C45.4387 9.91189 43.4651 8.59366 41.2747 8.59366C40.5793 8.59366 39.8879 8.72847 39.2416 8.98717C38.241 7.29963 36.4405 6.24298 34.4794 6.24298C33.3948 6.24298 32.3825 6.56352 31.5257 7.11533C30.6043 6.47353 29.5096 6.12411 28.3901 6.12411C27.6926 6.12411 27.0008 6.2588 26.3561 6.51715C25.3542 4.82997 23.554 3.77344 21.5947 3.77344C18.5247 3.77344 16.027 6.33285 16.027 9.47895C16.027 9.56559 16.0288 9.6521 16.0323 9.73814C13.7851 10.5 12.2116 12.6845 12.2116 15.1583C12.2116 15.8384 12.3288 16.4907 12.5426 17.096C10.9775 17.5121 9.81827 18.9709 9.81827 20.702V47.3057C9.81827 49.3598 11.4505 51.0308 13.4568 51.0308H26.7122L26.4352 53.618H23.2852C22.1257 53.618 20.5085 54.5093 20.5085 55.9607V57.0545C20.5085 57.4516 20.8227 57.7734 21.2101 57.7734H42.7894C43.1768 57.7734 43.491 57.4516 43.491 57.0545V55.9607C43.491 54.5093 41.8738 53.618 40.7144 53.618H37.5676L37.2906 51.0308H50.546C52.5505 51.0308 54.1811 49.3597 54.1811 47.3057V20.7022C54.1815 19.1115 53.1976 17.7198 51.7739 17.1963ZM32 16.3939C35.3491 16.3939 38.0737 19.1845 38.0737 22.6146C38.0737 26.0466 35.349 28.8387 32 28.8387C28.6527 28.8387 25.9294 26.0466 25.9294 22.6146C25.9294 19.1845 28.6527 16.3939 32 16.3939ZM32 30.2766C35.8861 30.2766 39.088 27.2224 39.4431 23.3335H46.2204C47.8774 23.3335 49.3669 22.588 50.3882 21.4082V42.7757H13.6151V20.8641H24.7256C24.5966 21.4267 24.5263 22.0123 24.5263 22.6146C24.5262 26.8395 27.879 30.2766 32 30.2766ZM38.29 10.219C38.3695 10.4028 38.5206 10.5441 38.7065 10.6086C38.8924 10.6729 39.0962 10.6547 39.2682 10.5581C39.882 10.2137 40.5758 10.0317 41.2749 10.0317C43.0439 10.0317 44.624 11.1812 45.2067 12.8921C45.3123 13.2023 45.6087 13.3995 45.929 13.3716C46.013 13.3642 46.1084 13.3607 46.2205 13.3607C48.5187 13.3607 50.3883 15.2751 50.3883 17.6282C50.3883 19.9814 48.5187 21.8958 46.2205 21.8958H39.4431C39.0879 18.0088 35.8861 14.9562 32 14.9562C29.8285 14.9562 27.871 15.9109 26.5043 17.4313C26.5917 15.4996 27.957 13.8417 29.8152 13.4477C30.1819 13.3699 30.4244 13.0107 30.3661 12.6315C30.3321 12.4113 30.315 12.1816 30.315 11.9487C30.315 9.59566 32.1831 7.68116 34.4795 7.68116C36.1269 7.68105 37.6225 8.6773 38.29 10.219ZM16.9305 10.978C17.2972 10.9002 17.5398 10.541 17.4814 10.1619C17.4475 9.94161 17.4303 9.7119 17.4303 9.47907C17.4303 7.126 19.2985 5.2115 21.5948 5.2115C23.2406 5.2115 24.7363 6.20787 25.4055 7.75007C25.4854 7.93388 25.6367 8.07516 25.8228 8.13939C26.0087 8.2035 26.2126 8.18492 26.3849 8.08786C26.9948 7.74395 27.6882 7.56218 28.3902 7.56218C29.1019 7.56218 29.7801 7.74132 30.3882 8.08391C29.4724 9.10113 28.9117 10.4588 28.9117 11.9486C28.9117 12.0353 28.9136 12.1218 28.9172 12.2078C26.6698 12.9697 25.0965 15.1543 25.0965 17.628C25.0965 18.1604 25.1697 18.6879 25.3126 19.2009C25.2763 19.2753 25.2414 19.3504 25.2075 19.426H17.7796C15.4832 19.426 13.6151 17.5117 13.6151 15.1585C13.6151 13.1435 15.0094 11.3853 16.9305 10.978ZM13.2207 18.4281C13.4718 18.7947 13.7636 19.1297 14.0897 19.4262H13.4571C12.7704 19.4262 12.2118 19.9986 12.2118 20.7022V42.9377C12.2118 43.6413 12.7704 44.2138 13.4571 44.2138H50.5463C51.2213 44.2138 51.7916 43.6294 51.7916 42.9377V20.7022C51.7916 20.3301 51.6344 19.9958 51.3857 19.7623C51.5156 19.4337 51.6169 19.0905 51.6854 18.7351C52.3468 19.1381 52.7783 19.8767 52.7783 20.7022V45.2249H11.2217V20.7022C11.2217 19.5227 12.0989 18.5493 13.2207 18.4281ZM33.4298 48.128C33.4298 48.9358 32.7884 49.5931 32 49.5931C31.2116 49.5931 30.5701 48.9358 30.5701 48.128C30.5701 47.3201 31.2115 46.6628 32 46.6628C32.7885 46.6628 33.4298 47.3201 33.4298 48.128ZM11.2217 47.3058V46.6627H29.5557C29.3091 47.0931 29.1669 47.5936 29.1669 48.1278C29.1669 48.662 29.3091 49.1626 29.5557 49.593H13.4571C12.2245 49.5931 11.2217 48.567 11.2217 47.3058ZM42.088 55.9609V56.3357H21.912V55.9609C21.912 55.555 22.6693 55.0562 23.2854 55.0562H40.7146C41.3307 55.0562 42.088 55.555 42.088 55.9609ZM36.1562 53.6183H27.847L28.1241 51.031H35.8792L36.1562 53.6183ZM50.5463 49.5931H34.4443C34.6909 49.1627 34.8331 48.6622 34.8331 48.128C34.8331 47.5938 34.691 47.0932 34.4443 46.6628H52.7783V47.3059C52.7783 48.567 51.7769 49.5931 50.5463 49.5931ZM6.07388 39.3133C6.07388 39.7104 5.75968 40.0322 5.37227 40.0322H3.70161C3.31421 40.0322 3 39.7104 3 39.3133V37.6013C3 37.2042 3.31421 36.8823 3.70161 36.8823C4.08902 36.8823 4.40323 37.2042 4.40323 37.6013V38.5943H5.37227C5.75979 38.5943 6.07388 38.9161 6.07388 39.3133ZM3 34.6052V33.0563C3 32.6592 3.31421 32.3373 3.70161 32.3373C4.08902 32.3373 4.40323 32.6592 4.40323 33.0563V34.6052C4.40323 35.0023 4.08902 35.3242 3.70161 35.3242C3.31421 35.3242 3 35.0023 3 34.6052ZM3 30.0637V28.5113C3 28.1142 3.31421 27.7923 3.70161 27.7923C4.08902 27.7923 4.40323 28.1142 4.40323 28.5113V30.0637C4.40323 30.4608 4.08902 30.7827 3.70161 30.7827C3.31421 30.7827 3 30.4608 3 30.0637ZM6.07388 14.717C6.07388 15.1141 5.75968 15.436 5.37227 15.436H4.40323V16.429C4.40323 16.8261 4.08902 17.148 3.70161 17.148C3.31421 17.148 3 16.8261 3 16.429V14.717C3 14.3199 3.31421 13.998 3.70161 13.998H5.37227C5.75979 13.998 6.07388 14.3199 6.07388 14.717ZM9.8074 15.436H8.29589C7.90848 15.436 7.59428 15.1141 7.59428 14.717C7.59428 14.3199 7.90848 13.998 8.29589 13.998H9.8074C10.1948 13.998 10.509 14.3199 10.509 14.717C10.509 15.1141 10.1949 15.436 9.8074 15.436ZM3 25.5188V23.9665C3 23.5693 3.31421 23.2475 3.70161 23.2475C4.08902 23.2475 4.40323 23.5693 4.40323 23.9665V25.5188C4.40323 25.9159 4.08902 26.2378 3.70161 26.2378C3.31421 26.2378 3 25.9159 3 25.5188ZM3 20.9739V19.6118C3 19.2147 3.31421 18.8928 3.70161 18.8928C4.08902 18.8928 4.40323 19.2147 4.40323 19.6118V20.9739C4.40323 21.371 4.08902 21.6928 3.70161 21.6928C3.31421 21.6928 3 21.371 3 20.9739ZM61 37.6013V39.3133C61 39.7104 60.6858 40.0322 60.2984 40.0322H58.6277C58.2403 40.0322 57.9261 39.7104 57.9261 39.3133C57.9261 38.9161 58.2403 38.5943 58.6277 38.5943H59.5968V37.6013C59.5968 37.2042 59.911 36.8823 60.2984 36.8823C60.6858 36.8823 61 37.2042 61 37.6013ZM61 33.0563V34.6052C61 35.0023 60.6858 35.3242 60.2984 35.3242C59.911 35.3242 59.5968 35.0023 59.5968 34.6052V33.0563C59.5968 32.6592 59.911 32.3373 60.2984 32.3373C60.6858 32.3373 61 32.6592 61 33.0563ZM61 28.5114V30.0638C61 30.4609 60.6858 30.7828 60.2984 30.7828C59.911 30.7828 59.5968 30.4609 59.5968 30.0638V28.5114C59.5968 28.1143 59.911 27.7925 60.2984 27.7925C60.6858 27.7925 61 28.1143 61 28.5114ZM61 14.717V16.429C61 16.8261 60.6858 17.148 60.2984 17.148C59.911 17.148 59.5968 16.8261 59.5968 16.429V15.436H58.6277C58.2403 15.436 57.9261 15.1141 57.9261 14.717C57.9261 14.3199 58.2403 13.998 58.6277 13.998H60.2984C60.6858 13.998 61 14.3199 61 14.717ZM56.409 14.717C56.409 15.1141 56.0948 15.436 55.7074 15.436H54.1925C53.8051 15.436 53.4909 15.1141 53.4909 14.717C53.4909 14.3199 53.8051 13.998 54.1925 13.998H55.7074C56.0949 13.998 56.409 14.3199 56.409 14.717ZM61 23.9665V25.5188C61 25.9159 60.6858 26.2378 60.2984 26.2378C59.911 26.2378 59.5968 25.9159 59.5968 25.5188V23.9665C59.5968 23.5693 59.911 23.2475 60.2984 23.2475C60.6858 23.2475 61 23.5693 61 23.9665ZM61 19.6118V20.9739C61 21.371 60.6858 21.6928 60.2984 21.6928C59.911 21.6928 59.5968 21.371 59.5968 20.9739V19.6118C59.5968 19.2147 59.911 18.8928 60.2984 18.8928C60.6858 18.8928 61 19.2147 61 19.6118ZM28.4963 23.6698H29.9293V26.3578C29.9293 26.7549 30.2435 27.0767 30.6309 27.0767H33.369C33.7564 27.0767 34.0706 26.7549 34.0706 26.3578V23.6698H35.5036C35.7794 23.6698 36.0295 23.5043 36.143 23.2468C36.2566 22.9893 36.2124 22.6875 36.0302 22.4756L32.5264 18.3995C32.3933 18.2445 32.2015 18.1557 32 18.1557C31.7985 18.1557 31.6067 18.2445 31.4736 18.3995L27.9698 22.4756C27.7875 22.6875 27.7434 22.9893 27.857 23.2468C27.9704 23.5043 28.2205 23.6698 28.4963 23.6698ZM32 19.9624L33.9507 22.2318H33.369C32.9816 22.2318 32.6674 22.5537 32.6674 22.9508V25.6388H31.3325V22.9508C31.3325 22.5537 31.0183 22.2318 30.6309 22.2318H30.0492L32 19.9624Z" fill="#131316"/>
</svg>
