<svg width="64" height="65" viewBox="0 0 64 65" fill="none" xmlns="http://www.w3.org/2000/svg">
<path d="M32 39.5883C34.7125 39.5883 37.2547 40.622 39.2263 42.4602V42.0107C39.2263 41.4784 39.6581 41.0477 40.1918 41.0477C40.7255 41.0477 41.1573 41.4784 41.1573 42.0107V44.7341C41.1573 45.2663 40.7255 45.697 40.1918 45.697H37.4612C36.9275 45.697 36.4957 45.2663 36.4957 44.7341C36.4957 44.2018 36.9275 43.7711 37.4612 43.7711H37.8006C36.2024 42.3291 34.1709 41.5142 32 41.5142C29.6788 41.5142 27.4977 42.4154 25.8561 44.0532C24.2146 45.6895 23.3103 47.8656 23.3103 50.1808C23.3103 52.4961 24.2146 54.6722 25.8561 56.3084C27.4977 57.9463 29.6788 58.8475 32 58.8475C34.3214 58.8475 36.5032 57.9466 38.1439 56.3084C39.7864 54.6722 40.6897 52.4961 40.6897 50.1808C40.6897 49.6486 41.1215 49.2179 41.6552 49.2179C42.1888 49.2179 42.6207 49.6486 42.6207 50.1808C42.6207 53.0114 41.5156 55.6709 39.5092 57.6701C37.5046 59.6713 34.8362 60.7734 32 60.7734C29.1631 60.7734 26.4963 59.671 24.4908 57.6701C22.4844 55.6709 21.3793 53.0095 21.3793 50.1808C21.3793 47.3521 22.4844 44.6908 24.4908 42.6916C26.4963 40.6907 29.1631 39.5883 32 39.5883Z" fill="#131316"/>
<path fill-rule="evenodd" clip-rule="evenodd" d="M8.82759 45.366C11.1587 45.366 13.1085 47.0224 13.5571 49.2179H18.4828C19.0164 49.2179 19.4483 49.6486 19.4483 50.1808C19.4483 50.7131 19.0164 51.1438 18.4828 51.1438H13.5571C13.1085 53.3392 11.1587 54.9957 8.82759 54.9957C6.16581 54.9957 4 52.8365 4 50.1808C4 47.5252 6.16581 45.366 8.82759 45.366ZM8.82759 47.292C7.23033 47.292 5.93103 48.5878 5.93103 50.1808C5.93103 51.7739 7.23033 53.0697 8.82759 53.0697C10.4248 53.0697 11.7241 51.7739 11.7241 50.1808C11.7241 48.5878 10.4248 47.292 8.82759 47.292Z" fill="#131316"/>
<path fill-rule="evenodd" clip-rule="evenodd" d="M55.1724 45.366C57.8351 45.366 60 47.5252 60 50.1808C60 52.8365 57.8351 54.9957 55.1724 54.9957C52.8404 54.9957 50.8914 53.3392 50.4429 51.1438H45.5172C44.9836 51.1438 44.5517 50.7131 44.5517 50.1808C44.5517 49.6486 44.9836 49.2179 45.5172 49.2179H50.4429C50.8914 47.0225 52.8404 45.366 55.1724 45.366ZM55.1724 47.292C53.5752 47.292 52.2759 48.5878 52.2759 50.1808C52.2759 51.7739 53.5752 53.0697 55.1724 53.0697C56.7697 53.0697 58.069 51.7739 58.069 50.1808C58.069 48.5878 56.7697 47.292 55.1724 47.292Z" fill="#131316"/>
<path d="M32 45.366C32.5337 45.366 32.9655 45.7967 32.9655 46.329V49.7821L34.6137 51.4259C34.9908 51.8021 34.9908 52.4115 34.6137 52.7876C34.4251 52.9757 34.1781 53.0697 33.931 53.0697C33.684 53.0697 33.437 52.9757 33.2484 52.7876L31.3173 50.8617C31.1363 50.6811 31.0345 50.4366 31.0345 50.1808V46.329C31.0345 45.7967 31.4663 45.366 32 45.366Z" fill="#131316"/>
<path fill-rule="evenodd" clip-rule="evenodd" d="M18.4828 24.1808C20.08 24.1808 21.3793 25.4767 21.3793 27.0697C21.3793 28.6628 20.08 29.9586 18.4828 29.9586C16.8855 29.9586 15.5862 28.6628 15.5862 27.0697C15.5862 25.4767 16.8855 24.1808 18.4828 24.1808ZM18.4828 26.1068C17.95 26.1068 17.5172 26.5384 17.5172 27.0697C17.5172 27.6011 17.95 28.0327 18.4828 28.0327C19.0155 28.0327 19.4483 27.6011 19.4483 27.0697C19.4483 26.5384 19.0155 26.1068 18.4828 26.1068Z" fill="#131316"/>
<path d="M47.4483 26.1068C47.9819 26.1068 48.4138 26.5375 48.4138 27.0697C48.4138 27.602 47.9819 28.0327 47.4483 28.0327H24.2759C23.7422 28.0327 23.3103 27.602 23.3103 27.0697C23.3103 26.5375 23.7422 26.1068 24.2759 26.1068H47.4483Z" fill="#131316"/>
<path d="M32 20.329C32.5332 20.329 32.9655 20.7601 32.9655 21.292C32.9655 21.8238 32.5332 22.2549 32 22.2549C31.4668 22.2549 31.0345 21.8238 31.0345 21.292C31.0345 20.7601 31.4668 20.329 32 20.329Z" fill="#131316"/>
<path fill-rule="evenodd" clip-rule="evenodd" d="M18.4828 12.6253C20.08 12.6253 21.3793 13.9212 21.3793 15.5142C21.3793 17.1072 20.08 18.4031 18.4828 18.4031C16.8855 18.4031 15.5862 17.1072 15.5862 15.5142C15.5862 13.9212 16.8855 12.6253 18.4828 12.6253ZM18.4828 14.5512C17.95 14.5512 17.5172 14.9829 17.5172 15.5142C17.5172 16.0455 17.95 16.4771 18.4828 16.4771C19.0155 16.4771 19.4483 16.0455 19.4483 15.5142C19.4483 14.9829 19.0155 14.5512 18.4828 14.5512Z" fill="#131316"/>
<path d="M47.4483 14.5512C47.9819 14.5512 48.4138 14.9819 48.4138 15.5142C48.4138 16.0464 47.9819 16.4771 47.4483 16.4771H24.2759C23.7422 16.4771 23.3103 16.0464 23.3103 15.5142C23.3103 14.9819 23.7422 14.5512 24.2759 14.5512H47.4483Z" fill="#131316"/>
<path fill-rule="evenodd" clip-rule="evenodd" d="M49.3793 8.77344C50.9766 8.77344 52.2759 10.0693 52.2759 11.6623V19.366C52.2759 20.1084 51.9864 20.7797 51.5234 21.292C51.9864 21.8042 52.2759 22.4755 52.2759 23.2179V30.9216C52.2759 32.5146 50.9766 33.8105 49.3793 33.8105H32.9655V36.6994C32.9655 37.2316 32.5337 37.6623 32 37.6623C31.4663 37.6623 31.0345 37.2316 31.0345 36.6994V33.8105H14.6207C13.0234 33.8105 11.7241 32.5146 11.7241 30.9216V23.2179C11.7241 22.4753 12.0153 21.8042 12.4784 21.292C12.0153 20.7797 11.7241 20.1086 11.7241 19.366V11.6623C11.7241 10.0693 13.0234 8.77344 14.6207 8.77344H49.3793ZM14.6207 10.6994C14.088 10.6994 13.6552 11.131 13.6552 11.6623V19.366C13.6552 19.8974 14.088 20.329 14.6207 20.329H28.1379C28.6716 20.329 29.1034 20.7597 29.1034 21.292C29.1034 21.8242 28.6716 22.2549 28.1379 22.2549H14.6207C14.088 22.2549 13.6552 22.6866 13.6552 23.2179V30.9216C13.6552 31.4529 14.088 31.8845 14.6207 31.8845H49.3793C49.9111 31.8845 50.3448 31.4529 50.3448 30.9216V23.2179C50.3448 22.6866 49.9111 22.2549 49.3793 22.2549H35.8621C35.3284 22.2549 34.8966 21.8242 34.8966 21.292C34.8966 20.7597 35.3284 20.329 35.8621 20.329H49.3793C49.9111 20.329 50.3448 19.8974 50.3448 19.366V11.6623C50.3448 11.131 49.9111 10.6994 49.3793 10.6994H14.6207Z" fill="#131316"/>
</svg>
