<svg width="64" height="65" viewBox="0 0 64 65" fill="none" xmlns="http://www.w3.org/2000/svg">
<path fill-rule="evenodd" clip-rule="evenodd" d="M56.0001 26.8013C56.1617 26.8013 56.3211 26.839 56.4655 26.9115C56.61 26.984 56.7355 27.0892 56.8321 27.2187L60.8321 33.2187C60.9324 33.3694 60.99 33.5444 60.9987 33.7251C61.0075 33.9058 60.9671 34.0855 60.8819 34.2451C60.7965 34.4048 60.6693 34.5383 60.514 34.6313C60.3587 34.7244 60.1811 34.7735 60.0001 34.7734H56.975C56.7856 40.565 54.575 46.1076 50.7268 50.4399C46.8785 54.7722 41.6352 57.621 35.9063 58.4921C30.1775 59.3631 24.3244 58.2014 19.3624 55.2086C14.4004 52.2158 10.6423 47.5805 8.74018 42.1069C8.6964 41.9832 8.6775 41.852 8.6844 41.7209C8.69129 41.5898 8.72393 41.4614 8.78047 41.3429C8.83701 41.2244 8.91629 41.1182 9.01386 41.0304C9.11143 40.9426 9.22533 40.8748 9.34907 40.8311C9.47283 40.7873 9.60408 40.7682 9.73518 40.7751C9.86626 40.782 9.99476 40.8147 10.1132 40.8712C10.2317 40.9277 10.3378 41.0072 10.4256 41.1047C10.5134 41.2023 10.5813 41.3162 10.6251 41.4399C12.2163 45.922 15.1554 49.8019 19.0393 52.5472C22.9231 55.2925 27.5612 56.7688 32.3173 56.7734C38.2214 56.7995 43.9006 54.5107 48.1365 50.3978C52.3725 46.285 54.8279 40.6757 54.9759 34.7734H52.0001C51.8191 34.7734 51.6414 34.7243 51.4862 34.6313C51.3309 34.5383 51.2038 34.4049 51.1184 34.2454C51.033 34.0858 50.9924 33.9059 51.0012 33.7251C51.0099 33.5443 51.0676 33.3693 51.168 33.2187L55.168 27.2187C55.2646 27.0892 55.3902 26.984 55.5346 26.9115C55.6791 26.839 55.8385 26.8013 56.0001 26.8013ZM53.8681 32.7734H58.1319L56.0001 29.5762L53.8681 32.7734Z" fill="#131316"/>
<path d="M32.0001 42.7734C32.2653 42.7734 32.5196 42.8788 32.7071 43.0663C32.8946 43.2538 33.0001 43.5082 33.0001 43.7734C33.0001 43.9712 32.9414 44.1645 32.8315 44.329C32.7216 44.4934 32.5654 44.6216 32.3826 44.6973C32.1999 44.7729 31.9989 44.7929 31.8049 44.7543C31.6109 44.7157 31.4328 44.6204 31.2929 44.4806C31.1531 44.3407 31.0578 44.1625 31.0192 43.9685C30.9807 43.7745 31.0004 43.5735 31.0761 43.3907C31.1518 43.208 31.28 43.0519 31.4444 42.942C31.6089 42.8321 31.8023 42.7734 32.0001 42.7734Z" fill="#131316"/>
<path d="M32.0001 24.7734C32.2653 24.7734 32.5196 24.8788 32.7071 25.0663C32.8946 25.2538 33.0001 25.5082 33.0001 25.7734V33.293L37.6246 36.9927C37.8305 37.1587 37.9623 37.3995 37.991 37.6625C38.0198 37.9254 37.9431 38.1891 37.7779 38.3956C37.6127 38.6022 37.3723 38.7349 37.1094 38.7646C36.8466 38.7944 36.5827 38.7186 36.3756 38.5542L31.3756 34.5542C31.2584 34.4606 31.1637 34.3418 31.0987 34.2067C31.0337 34.0715 31.0001 33.9234 31.0001 33.7734V25.7734C31.0001 25.5082 31.1054 25.2538 31.2929 25.0663C31.4805 24.8788 31.7349 24.7734 32.0001 24.7734Z" fill="#131316"/>
<path d="M42.6174 31.8496C42.8001 31.7739 43.0012 31.754 43.1951 31.7926C43.3891 31.8312 43.5673 31.9265 43.7071 32.0663C43.847 32.2061 43.9422 32.3844 43.9808 32.5784C44.0194 32.7723 43.9996 32.9734 43.9239 33.1561C43.8482 33.3388 43.72 33.495 43.5556 33.6049C43.3912 33.7147 43.1978 33.7734 43.0001 33.7734C42.7349 33.7734 42.4804 33.6681 42.2929 33.4806C42.1054 33.293 42.0001 33.0386 42.0001 32.7734C42.0001 32.5757 42.0587 32.3823 42.1685 32.2179C42.2784 32.0534 42.4347 31.9253 42.6174 31.8496Z" fill="#131316"/>
<path d="M21.0001 31.7734C21.2653 31.7734 21.5196 31.8788 21.7071 32.0663C21.8946 32.2538 22.0001 32.5082 22.0001 32.7734C22.0001 32.9712 21.9414 33.1645 21.8315 33.329C21.7216 33.4934 21.5654 33.6216 21.3826 33.6973C21.1999 33.7729 20.9989 33.7929 20.8049 33.7543C20.6109 33.7157 20.4328 33.6204 20.2929 33.4806C20.1531 33.3407 20.0578 33.1625 20.0192 32.9685C19.9807 32.7745 20.0004 32.5735 20.0761 32.3907C20.1518 32.208 20.28 32.0519 20.4444 31.942C20.6089 31.8321 20.8023 31.7734 21.0001 31.7734Z" fill="#131316"/>
<path d="M31.6174 20.8496C31.8001 20.7739 32.0012 20.754 32.1951 20.7926C32.3891 20.8312 32.5673 20.9264 32.7071 21.0663C32.847 21.2061 32.9422 21.3844 32.9808 21.5784C33.0194 21.7723 32.9996 21.9734 32.9239 22.1561C32.8482 22.3388 32.72 22.495 32.5556 22.6049C32.3912 22.7147 32.1978 22.7734 32.0001 22.7734C31.7349 22.7734 31.4805 22.6681 31.2929 22.4806C31.1054 22.293 31.0001 22.0386 31.0001 21.7734C31.0001 21.5757 31.0587 21.3823 31.1685 21.2179C31.2784 21.0534 31.4347 20.9253 31.6174 20.8496Z" fill="#131316"/>
<path fill-rule="evenodd" clip-rule="evenodd" d="M32.0001 17.7734C35.9769 17.7779 39.7897 19.3597 42.6018 22.1717C45.4138 24.9838 46.9956 28.7966 47.0001 32.7734C47.0001 35.7401 46.1203 38.6402 44.4721 41.1069C42.8239 43.5737 40.4812 45.4963 37.7403 46.6316C34.9994 47.7669 31.9834 48.064 29.0737 47.4852C26.164 46.9064 23.4912 45.4778 21.3934 43.38C19.2956 41.2822 17.8671 38.6095 17.2883 35.6998C16.7095 32.7901 17.0065 29.7741 18.1418 27.0332C19.2771 24.2923 21.1997 21.9496 23.6665 20.3014C26.1332 18.6532 29.0333 17.7734 32.0001 17.7734ZM36.9749 20.7631C34.5995 19.7791 31.9856 19.5216 29.4638 20.0232C26.9421 20.5248 24.6256 21.763 22.8076 23.581C20.9895 25.3991 19.7514 27.7156 19.2498 30.2373C18.7482 32.759 19.0056 35.3729 19.9896 37.7483C20.9735 40.1237 22.6398 42.1541 24.7777 43.5825C26.9155 45.011 29.4289 45.7734 32.0001 45.7734C35.4467 45.7695 38.7509 44.3986 41.1881 41.9615C43.6252 39.5244 44.9962 36.22 45.0001 32.7734C45.0001 30.2023 44.2376 27.6889 42.8092 25.551C41.3807 23.4132 39.3503 21.747 36.9749 20.7631Z" fill="#131316"/>
<path fill-rule="evenodd" clip-rule="evenodd" d="M32.0001 14.7734C36.7723 14.7789 41.3474 16.6771 44.7219 20.0515C48.0963 23.426 49.9946 28.0012 50.0001 32.7734C50.0001 36.3335 48.9444 39.8136 46.9665 42.7737C44.9886 45.7338 42.1773 48.0409 38.8883 49.4033C35.5992 50.7657 31.98 51.1221 28.4884 50.4276C24.9967 49.7331 21.7894 48.0187 19.272 45.5013C16.7547 42.984 15.0404 39.7767 14.3459 36.285C13.6514 32.7934 14.0078 29.1742 15.3702 25.8851C16.7326 22.5961 19.0396 19.7849 21.9997 17.807C24.9598 15.8291 28.44 14.7734 32.0001 14.7734ZM38.123 17.9913C35.1994 16.7803 31.9823 16.4636 28.8786 17.0809C25.7749 17.6983 22.924 19.2221 20.6863 21.4597C18.4487 23.6973 16.9248 26.5483 16.3074 29.652C15.6901 32.7557 16.007 35.9727 17.218 38.8964C18.429 41.82 20.4797 44.3188 23.1109 46.0769C25.7421 47.835 28.8356 48.7734 32.0001 48.7734C36.242 48.7686 40.3089 47.0813 43.3084 44.0818C46.3079 41.0823 47.9952 37.0154 48.0001 32.7734C48.0001 29.6089 47.0616 26.5155 45.3035 23.8843C43.5454 21.2531 41.0466 19.2023 38.123 17.9913Z" fill="#131316"/>
<path fill-rule="evenodd" clip-rule="evenodd" d="M28.2656 7.0548C34.0129 6.18506 39.8836 7.34519 44.8681 10.3356C49.8526 13.3259 53.6395 17.9597 55.5772 23.4399C55.621 23.5637 55.6399 23.6948 55.633 23.8259C55.6261 23.957 55.5935 24.0855 55.5369 24.204C55.4804 24.3224 55.4011 24.4287 55.3035 24.5165C55.206 24.6043 55.0921 24.672 54.9683 24.7158C54.8446 24.7596 54.7133 24.7786 54.5822 24.7717C54.4511 24.7648 54.3226 24.7322 54.2042 24.6757C54.0857 24.6191 53.9796 24.5397 53.8918 24.4421C53.804 24.3446 53.7361 24.2307 53.6923 24.1069C51.9117 19.0714 48.4341 14.8125 43.8564 12.0609C39.2786 9.30928 33.886 8.23634 28.6037 9.02636C23.3214 9.81638 18.4786 12.4201 14.9062 16.3906C11.3338 20.3612 9.25447 25.4512 9.02497 30.7873H12.0001C12.181 30.7873 12.3586 30.8365 12.5139 30.9294C12.6691 31.0224 12.7963 31.1559 12.8817 31.3154C12.9671 31.475 13.0076 31.6549 12.9988 31.8357C12.9901 32.0165 12.9324 32.1915 12.832 32.342L8.83198 38.342C8.73538 38.4716 8.60985 38.5768 8.4654 38.6493C8.32096 38.7218 8.16156 38.7595 7.99995 38.7595C7.83834 38.7595 7.67894 38.7218 7.53449 38.6493C7.39006 38.5768 7.26451 38.4716 7.16792 38.342L3.16792 32.342C3.0675 32.1914 3.00992 32.0164 3.00117 31.8356C2.99243 31.6548 3.03283 31.475 3.11823 31.3154C3.20365 31.1558 3.33087 31.0224 3.48615 30.9294C3.64143 30.8364 3.81908 30.7873 4.00007 30.7873H7.02497C7.25442 24.9791 9.50062 19.4324 13.3771 15.1011C17.2537 10.7698 22.5183 7.92454 28.2656 7.0548ZM8.00007 35.9846L10.1319 32.7873H5.86811L8.00007 35.9846Z" fill="#131316"/>
</svg>
