<?xml version="1.0" standalone="no"?><!DOCTYPE svg PUBLIC "-//W3C//DTD SVG 1.1//EN" "http://www.w3.org/Graphics/SVG/1.1/DTD/svg11.dtd"><svg class="icon" width="200px" height="200.00px" viewBox="0 0 1024 1024" version="1.1" xmlns="http://www.w3.org/2000/svg"><path fill="#2c2c2c" d="M321.024 575.488h97.28V428.544h-97.28v146.944z m282.624 0h97.28V428.544h-97.28v146.944zM919.04 359.424l-5.12-2.048V10.24H510.464C309.76 10.24 139.264 158.208 111.616 357.376L0 399.36v245.248l107.008 40.448 73.216 27.136V409.088c0-3.584 0-7.168 0.512-10.752 0.512-4.096 0.512-8.192 1.024-12.288 14.848-170.496 157.184-302.08 328.704-302.08h330.24V783.36c0 59.392-47.616 107.008-107.008 107.008h-16.384c-10.24-41.984-48.128-73.216-93.184-73.216H476.672c-49.664 2.56-89.088 41.984-91.136 91.136-2.56 52.736 38.4 97.792 91.136 100.352h147.456c34.304 0 64-17.92 80.896-45.056h28.672c99.328 0 180.224-80.896 180.224-180.224v-97.28l5.12-2.048 104.96-39.424V399.36l-104.96-39.936zM107.008 606.72l-33.792-12.288V450.56l33.792-12.288v168.448z m517.12 346.624H476.672c-22.016 0-40.448-17.92-40.448-40.448s17.92-40.448 40.448-40.448h147.456c22.528 0 40.448 17.92 40.448 40.448 0 22.016-18.432 40.448-40.448 40.448z m326.656-359.424l-31.744 11.776-5.12 2.048V436.736l5.12 2.048 31.744 11.776v143.36z" /></svg>