<?xml version="1.0" standalone="no"?><!DOCTYPE svg PUBLIC "-//W3C//DTD SVG 1.1//EN" "http://www.w3.org/Graphics/SVG/1.1/DTD/svg11.dtd"><svg class="icon" width="200px" height="182.53px" viewBox="0 0 1122 1024" version="1.1" xmlns="http://www.w3.org/2000/svg"><path fill="#2c2c2c" d="M851.790625 259.294609h-242.910608V161.346783a87.618783 87.618783 0 1 0-95.454609 0v97.947826H270.514799a110.057739 110.057739 0 0 0-110.057739 110.057739v544.233739a110.413913 110.413913 0 0 0 110.057739 110.413913h581.275826a110.413913 110.413913 0 0 0 110.05774-110.413913V369.352348a110.057739 110.057739 0 0 0-110.05774-110.057739z m19.94574 654.291478a20.301913 20.301913 0 0 1-19.94574 20.301913H270.514799a20.301913 20.301913 0 0 1-21.014261-20.301913V369.352348a19.945739 19.945739 0 0 1 19.94574-19.945739h582.344347a19.945739 19.945739 0 0 1 19.94574 19.945739zM47.906104 473.35513A47.727304 47.727304 0 0 0 0.178799 521.082435v213.704348a47.727304 47.727304 0 1 0 95.098435 0v-213.704348a47.727304 47.727304 0 0 0-47.37113-47.727305zM1074.399321 473.35513a47.727304 47.727304 0 0 0-47.37113 47.727305v213.704348a47.727304 47.727304 0 1 0 95.098434 0v-213.704348a47.727304 47.727304 0 0 0-47.727304-47.727305zM645.56593 712.347826h-168.826435a47.727304 47.727304 0 0 0 0 95.098435h168.826435a47.727304 47.727304 0 0 0 0-95.098435zM408.354104 538.89113m-75.152696 0a75.152696 75.152696 0 1 0 150.305391 0 75.152696 75.152696 0 1 0-150.305391 0ZM713.951321 538.89113m-75.152696 0a75.152696 75.152696 0 1 0 150.305392 0 75.152696 75.152696 0 1 0-150.305392 0Z" /></svg>