<?xml version="1.0" standalone="no"?><!DOCTYPE svg PUBLIC "-//W3C//DTD SVG 1.1//EN" "http://www.w3.org/Graphics/SVG/1.1/DTD/svg11.dtd"><svg class="icon" width="200px" height="160.00px" viewBox="0 0 1280 1024" version="1.1" xmlns="http://www.w3.org/2000/svg"><path fill="#2c2c2c" d="M1216 318.2c-37.7 0-50.88 26.62-54.06 32H1088V160c0-88.36-71.6-160-160-160H352c-88.4 0-160 71.64-160 160v190.2H118.06c-3.18-3.6-16.36-32-54.06-32-34.12 0-64 27.44-64 64 0 36.6 29.94 62.2 64 62.2 37.7 0 50.88-26.6 54.06-30.2H192v254.2c0 88.36 71.64 160 160 160l96 1.8v167.98c0 8.42 5.4 25.82 24 25.82 5.042 0 9.996-1.618 14.192-4.656L736 830.2l192 0.012c88.36 0 160-71.64 160-160V414.2h73.96c3.24 7.2 16.44 32 54.04 32 34.12 0 64-27.44 64-62.2 0-36.6-29.8-65.8-64-65.8z m-224 352c0 35.28-28.72 64-62.2 64l-224-0.016L544 856v-120.06l-192 0.024c-35.28 0-64-28.72-64-64V160c0-35.28 28.72-64 64-64h576c35.28 0 64 28.72 64 64v510.2zM896 192H384c-35.4 0-64 28.6-64 64v256c0 35.34 28.66 64 64 64h512c35.34 0 64-28.66 64-64V256c0-35.4-28.6-64-64-64zM480 448c-35.34 0-64-28.66-64-64s28.66-64 64-64 64 28.66 64 64c0 35.4-28.6 64-64 64z m320 0c-35.34 0-64-28.66-64-64s28.66-64 64-64 64 28.66 64 64c0 35.4-28.6 64-64 64z" /></svg>