<svg width="17" height="16" viewBox="0 0 17 16" fill="none" xmlns="http://www.w3.org/2000/svg">
<path d="M13.8333 5.19955C13.8333 4.62862 13.833 4.24046 13.8085 3.94043C13.7846 3.64815 13.7412 3.49847 13.6881 3.39421C13.5602 3.14337 13.3562 2.93935 13.1054 2.81152C13.0011 2.7584 12.8514 2.71496 12.5592 2.69108C12.2591 2.66658 11.871 2.66634 11.3001 2.66634H5.69979C5.12886 2.66634 4.7407 2.66658 4.44068 2.69108C4.1484 2.71496 3.99872 2.7584 3.89445 2.81152C3.64362 2.93935 3.43959 3.14337 3.31177 3.39421C3.25864 3.49847 3.21521 3.64815 3.19133 3.94043C3.16682 4.24046 3.16659 4.62862 3.16659 5.19955V10.7998C3.16659 11.3707 3.16682 11.7589 3.19133 12.0589C3.21521 12.3512 3.25864 12.5009 3.31177 12.6051C3.43959 12.856 3.64362 13.06 3.89445 13.1878C3.99872 13.241 4.1484 13.2844 4.44068 13.3083C4.7407 13.3328 5.12886 13.333 5.69979 13.333H11.3001C11.871 13.333 12.2591 13.3328 12.5592 13.3083C12.8514 13.2844 13.0011 13.241 13.1054 13.1878C13.3562 13.06 13.5602 12.856 13.6881 12.6051C13.7412 12.5009 13.7846 12.3512 13.8085 12.0589C13.833 11.7589 13.8333 11.3707 13.8333 10.7998V5.19955ZM8.50643 9.99968C8.87462 9.99968 9.1731 10.2982 9.1731 10.6663C9.1731 11.0345 8.87462 11.333 8.50643 11.333H8.49992C8.13173 11.333 7.83325 11.0345 7.83325 10.6663C7.83325 10.2982 8.13173 9.99968 8.49992 9.99968H8.50643ZM7.83325 7.99968V5.33301C7.83325 4.96482 8.13173 4.66634 8.49992 4.66634C8.86811 4.66634 9.16659 4.96482 9.16659 5.33301V7.99968C9.16659 8.36787 8.86811 8.66634 8.49992 8.66634C8.13173 8.66634 7.83325 8.36787 7.83325 7.99968ZM15.1666 10.7998C15.1666 11.3488 15.1673 11.8007 15.1373 12.1676C15.1067 12.5423 15.0411 12.8871 14.8762 13.2106C14.6206 13.7123 14.2125 14.1203 13.7109 14.376C13.3873 14.5408 13.0426 14.6064 12.6679 14.637C12.301 14.667 11.849 14.6663 11.3001 14.6663H5.69979C5.1508 14.6663 4.69887 14.667 4.33195 14.637C3.95725 14.6064 3.61252 14.5408 3.28898 14.376C2.78731 14.1203 2.37926 13.7123 2.12362 13.2106C1.95877 12.8871 1.89317 12.5423 1.86255 12.1676C1.83257 11.8007 1.83325 11.3488 1.83325 10.7998V5.19955C1.83325 4.65055 1.83257 4.19863 1.86255 3.83171C1.89317 3.457 1.95877 3.11228 2.12362 2.78874C2.37926 2.28707 2.78731 1.87902 3.28898 1.62337C3.61252 1.45852 3.95725 1.39293 4.33195 1.36231C4.69887 1.33233 5.1508 1.33301 5.69979 1.33301H11.3001C11.849 1.33301 12.301 1.33233 12.6679 1.36231C13.0426 1.39293 13.3873 1.45852 13.7109 1.62337C14.2125 1.87902 14.6206 2.28707 14.8762 2.78874C15.0411 3.11227 15.1067 3.457 15.1373 3.83171C15.1673 4.19863 15.1666 4.65055 15.1666 5.19955V10.7998Z" fill="#553C00"/>
</svg>
