<svg xmlns="http://www.w3.org/2000/svg" width="120" height="44" viewBox="0 0 120 44"><title>编组 106</title><g fill="none" fill-rule="evenodd"><path d="M0 0h120v44H0z"/><g fill="#0d1117" opacity=".9"><path d="M62.633 16.755h3.27v-4.328h-3.27zM62.633 22.556h3.27V18.23h-3.27zM62.633 32.389h3.27v-8.364h-3.27zM82.802 22.034h-5.94V20.56h-3.27v1.474h-5.936v1.991h5.936v8.364h3.27v-8.364h5.94zM71.28 20.551h-3.27l3.192-4.066h3.27zM79.192 20.551h3.27l-3.192-4.066H76zM67.656 12.427v3.982h3.272v-1.991h8.603v2.001h3.27v-3.992z"/><path d="M70.751 32.389h-3.095l1.09-6.89h3.096zM79.706 32.389h3.096l-1.091-6.89h-3.095zM95.323 26.101h3.538v-6.718h-3.538zm6.556-8.708h-9.575v10.699h9.575z"/><path d="m92.942 11.589-.855 1.733h-4.905V32.39h3.019V15.313h13.78v15.085h-1.043v1.99H107V13.323H95.357l.855-1.733zM14 21.41 26.497 9l5.95 5.91L19.95 27.32z"/><path d="m14 21.41 5.95 5.909L32.447 14.91 26.497 9zM21.141 28.5 40.778 9l5.952 5.91-19.638 19.5z"/><path d="m21.141 28.5 5.95 5.91 19.639-19.5L40.778 9zM34.828 29.09 40.779 35l5.95-5.91-5.95-5.908zM41.969 22l5.95-5.91L53.871 22l-5.952 5.91z"/></g></g></svg>