<svg width="161" height="24" viewBox="0 0 161 24" fill="none" xmlns="http://www.w3.org/2000/svg">
<g id="Brand=DragonPass, On dark=false" clip-path="url(#clip0_5831_27181)">
<path id="Vector" d="M7.34077 15.277C9.01321 15.277 10.4078 14.7177 11.5219 13.5991C12.636 12.4805 13.1943 11.081 13.1943 9.40306C13.1943 7.72516 12.6386 6.32823 11.5219 5.21488C10.4078 4.10153 9.01321 3.54223 7.34077 3.54223H3.79741V15.277H7.34077ZM7.4228 0C8.78299 0 10.0611 0.23895 11.2625 0.719475C12.4613 1.2 13.4881 1.85383 14.3428 2.68359C15.1976 3.51335 15.8697 4.51116 16.3619 5.6744C16.8541 6.83764 17.1002 8.07965 17.1002 9.40306C17.1002 10.7265 16.8541 11.9685 16.3619 13.1317C15.8697 14.295 15.1949 15.2928 14.3428 16.1278C13.4881 16.9628 12.4613 17.6193 11.2625 18.0998C10.0638 18.5803 8.78299 18.8193 7.4228 18.8193H0V0H7.4228Z" fill="#0A2333"/>
<path id="Vector_2" d="M26.738 4.68707H27.3413V8.35009H26.738C25.4678 8.35009 24.4754 8.6967 23.7662 9.38992C23.0544 10.0831 22.6998 11.0232 22.6998 12.2127V18.8192H19.1299V4.91552H22.6998V6.71421C23.7742 5.36453 25.1211 4.6897 26.7406 4.6897" fill="#0A2333"/>
<path id="Vector_3" d="M67.181 15.7155C68.2924 15.7155 69.208 15.3505 69.9331 14.6179C70.6582 13.8853 71.0207 12.9689 71.0207 11.8687C71.0207 10.7685 70.6582 9.85205 69.9331 9.11682C69.208 8.38422 68.2898 8.01923 67.181 8.01923C66.0722 8.01923 65.1645 8.38684 64.4289 9.1247C63.6958 9.85993 63.328 10.7763 63.328 11.8687C63.328 12.961 63.6958 13.8748 64.4289 14.6127C65.1619 15.3505 66.0801 15.7181 67.181 15.7181M72.5503 17.0599C71.1081 18.4542 69.3192 19.1501 67.181 19.1501C65.0428 19.1501 63.2513 18.4542 61.8064 17.0599C60.3615 15.6656 59.6391 13.9352 59.6391 11.8661C59.6391 9.79691 60.3615 8.06649 61.8064 6.67218C63.2513 5.27787 65.0428 4.58203 67.181 4.58203C69.3192 4.58203 71.1107 5.27787 72.5503 6.67218C73.9899 8.06649 74.7096 9.79691 74.7096 11.8661C74.7096 13.9352 73.9899 15.6656 72.5503 17.0599Z" fill="#0A2333"/>
<path id="Vector_4" d="M84.7682 4.58203C86.4247 4.58203 87.7505 5.07306 88.7482 6.05512C89.7458 7.03717 90.2459 8.34483 90.2459 9.97809V18.8219H86.6629V11.123C86.6629 10.1829 86.3824 9.4293 85.824 8.86474C85.2657 8.30282 84.5194 8.01923 83.5879 8.01923C82.6564 8.01923 81.8229 8.3107 81.2195 8.891C80.6162 9.47131 80.3118 10.238 80.3118 11.1886V18.8192H76.742V4.91551H80.3118V6.45949C81.4391 5.20698 82.9237 4.58203 84.7682 4.58203Z" fill="#0A2333"/>
<path id="Vector_5" d="M132.155 19.158C129.882 19.158 127.913 18.449 126.249 17.0284L127.979 14.6836C129.17 15.7129 130.533 16.2275 132.073 16.2275C132.806 16.2275 133.404 16.112 133.865 15.8809C134.325 15.6499 134.555 15.3295 134.555 14.9225C134.555 14.6993 134.492 14.505 134.362 14.3369C134.232 14.1689 134.023 14.0219 133.738 13.8984C133.452 13.775 133.176 13.6726 132.912 13.5912C132.647 13.5124 132.279 13.4179 131.803 13.3129C131.48 13.242 131.226 13.1842 131.038 13.1396C130.85 13.0949 130.594 13.0267 130.266 12.9321C129.94 12.8402 129.675 12.7536 129.474 12.6722C129.273 12.5908 129.032 12.4831 128.757 12.3466C128.479 12.21 128.254 12.0682 128.08 11.9264C127.905 11.7847 127.723 11.6113 127.529 11.4065C127.336 11.2017 127.185 10.9838 127.074 10.7553C126.963 10.5243 126.87 10.2591 126.799 9.95708C126.728 9.65511 126.693 9.33214 126.693 8.98553C126.693 8.03498 126.958 7.2236 127.484 6.54877C128.011 5.87393 128.699 5.37765 129.546 5.06255C130.393 4.74745 131.348 4.5899 132.412 4.5899C134.478 4.5899 136.291 5.1991 137.847 6.41485L136.116 8.78597C134.971 7.93257 133.764 7.50719 132.491 7.50719C131.848 7.50719 131.319 7.6096 130.909 7.81441C130.498 8.01923 130.292 8.31594 130.292 8.70719C130.292 8.93039 130.356 9.12207 130.48 9.2875C130.604 9.45292 130.811 9.59472 131.097 9.71288C131.382 9.83104 131.66 9.93082 131.927 10.0043C132.197 10.0805 132.568 10.1671 133.042 10.2643C133.452 10.3536 133.782 10.4297 134.034 10.4901C134.283 10.5531 134.611 10.6503 135.013 10.7842C135.415 10.9181 135.743 11.0494 136 11.1833C136.254 11.3173 136.532 11.4958 136.831 11.7216C137.13 11.9475 137.366 12.1917 137.535 12.4464C137.704 12.7037 137.85 13.0188 137.972 13.3917C138.093 13.7645 138.154 14.1689 138.154 14.6048C138.154 15.5553 137.887 16.3798 137.35 17.0809C136.812 17.782 136.098 18.3046 135.204 18.6459C134.309 18.9873 133.293 19.158 132.155 19.158Z" fill="#0A2333"/>
<path id="Vector_6" d="M144.947 19.158C142.674 19.158 140.705 18.449 139.041 17.0284L140.771 14.6836C141.962 15.7129 143.325 16.2275 144.865 16.2275C145.598 16.2275 146.196 16.112 146.657 15.8809C147.117 15.6499 147.347 15.3295 147.347 14.9225C147.347 14.6993 147.284 14.505 147.154 14.3369C147.024 14.1689 146.815 14.0219 146.53 13.8984C146.244 13.775 145.969 13.6726 145.704 13.5912C145.439 13.5124 145.071 13.4179 144.595 13.3129C144.272 13.242 144.018 13.1842 143.83 13.1396C143.642 13.0949 143.386 13.0267 143.058 12.9321C142.732 12.8402 142.468 12.7536 142.266 12.6722C142.065 12.5908 141.824 12.4831 141.549 12.3466C141.271 12.21 141.046 12.0682 140.872 11.9264C140.697 11.7847 140.515 11.6113 140.321 11.4065C140.128 11.2017 139.977 10.9838 139.866 10.7553C139.755 10.5243 139.662 10.2591 139.591 9.95708C139.52 9.65511 139.485 9.33214 139.485 8.98553C139.485 8.03498 139.75 7.2236 140.276 6.54877C140.803 5.87393 141.491 5.37765 142.338 5.06255C143.185 4.74745 144.14 4.5899 145.204 4.5899C147.271 4.5899 149.083 5.1991 150.639 6.41485L148.909 8.78597C147.763 7.93257 146.556 7.50719 145.283 7.50719C144.64 7.50719 144.111 7.6096 143.701 7.81441C143.291 8.01923 143.084 8.31594 143.084 8.70719C143.084 8.93039 143.148 9.12207 143.272 9.2875C143.396 9.45292 143.603 9.59472 143.889 9.71288C144.174 9.83104 144.452 9.93082 144.72 10.0043C144.989 10.0805 145.36 10.1671 145.834 10.2643C146.244 10.3536 146.577 10.4297 146.826 10.4901C147.075 10.5531 147.403 10.6503 147.805 10.7842C148.207 10.9181 148.535 11.0494 148.792 11.1833C149.046 11.3173 149.324 11.4958 149.623 11.7216C149.922 11.9475 150.158 12.1917 150.327 12.4464C150.496 12.7037 150.642 13.0188 150.764 13.3917C150.885 13.7645 150.946 14.1689 150.946 14.6048C150.946 15.5553 150.679 16.3798 150.142 17.0809C149.605 17.782 148.89 18.3046 147.996 18.6459C147.101 18.9873 146.085 19.158 144.947 19.158Z" fill="#0A2333"/>
<path id="Vector_7" d="M51.5759 7.92736C53.124 7.92736 54.381 9.17462 54.381 10.7107C54.381 12.2468 53.124 13.4941 51.5759 13.4941C50.0279 13.4941 48.7709 12.2468 48.7709 10.7107C48.7709 9.17462 50.0279 7.92736 51.5759 7.92736ZM51.4701 19.2394H50.0596C49.3954 19.2394 48.8556 18.8403 48.6809 18.2206C48.5301 17.6823 48.6862 16.9549 49.3769 16.5374L49.4589 16.4875L49.5515 16.5138C50.2475 16.7134 50.9567 16.8158 51.6553 16.8158C54.0925 16.8158 56.3154 15.579 57.4612 13.586C58.5277 11.7348 58.4615 9.53436 57.2813 7.55187L57.194 7.40745L59.2343 5.38294L56.6356 2.80438L54.2937 5.13086L54.1613 5.08359C53.3595 4.7895 52.5127 4.63983 51.6421 4.63983C49.7156 4.63983 47.8923 5.36456 46.6433 6.6302C45.5583 7.7278 44.9999 9.14049 45.0317 10.7186C45.0317 12.4149 45.643 13.8538 46.847 14.9961L47.0561 15.1956L46.8073 15.3427C45.68 16.007 44.9338 17.4171 44.947 18.856C44.9417 19.867 45.2884 20.7466 45.9447 21.4031C46.7253 22.1803 47.8976 22.6109 49.2446 22.6109H53.8332C54.9393 22.6109 55.855 22.9838 56.0667 24H59.8561C59.1734 18.5567 55.9291 19.2394 51.4621 19.2394" fill="#0A2333"/>
<path id="Vector_8" d="M103.393 14.6179C102.668 15.3505 101.752 15.7155 100.641 15.7155C99.5291 15.7155 98.624 15.3479 97.8884 14.61C97.1554 13.8748 96.7875 12.9584 96.7875 11.8661C96.7875 10.7737 97.1554 9.85993 97.8884 9.12208C98.6214 8.38422 99.5397 8.0166 100.641 8.0166C101.741 8.0166 102.668 8.38422 103.393 9.11682C104.118 9.84943 104.48 10.7658 104.48 11.8661C104.48 12.9663 104.118 13.8827 103.393 14.6179ZM106.012 6.67218C104.573 5.27787 102.781 4.58203 100.643 4.58203C99.1348 4.58203 97.8037 4.93652 96.6393 5.62973V4.91551H93.0695V24H96.6393V18.105C97.8011 18.7982 99.1348 19.1527 100.643 19.1527C102.781 19.1527 104.573 18.4569 106.012 17.0626C107.452 15.6682 108.174 13.9378 108.174 11.8687C108.174 9.79954 107.455 8.06912 106.012 6.67481" fill="#0A2333"/>
<path id="Vector_9" d="M114.361 9.11682C115.087 8.38422 116.002 8.01923 117.114 8.01923C118.225 8.01923 119.13 8.38684 119.866 9.1247C120.599 9.85993 120.967 10.7763 120.967 11.8687C120.967 12.961 120.599 13.8748 119.866 14.6127C119.133 15.3505 118.214 15.7181 117.114 15.7181C116.013 15.7181 115.087 15.3531 114.361 14.6205C113.636 13.8879 113.274 12.9715 113.274 11.8713C113.274 10.7711 113.636 9.85468 114.361 9.11945M111.744 17.0599C113.184 18.4542 114.975 19.1501 117.114 19.1501C118.622 19.1501 119.953 18.7956 121.117 18.1024V18.8166H124.687V4.91551H121.117V5.62973C119.956 4.93652 118.622 4.58203 117.114 4.58203C114.975 4.58203 113.184 5.27787 111.744 6.67218C110.305 8.06649 109.582 9.79691 109.582 11.8661C109.582 13.9352 110.302 15.6656 111.744 17.0599Z" fill="#0A2333"/>
<path id="Vector_10" d="M32.6789 9.11682C33.4039 8.38422 34.3222 8.01923 35.431 8.01923C36.5398 8.01923 37.4475 8.38684 38.1831 9.1247C38.9161 9.85993 39.284 10.7763 39.284 11.8687C39.284 12.961 38.9161 13.8748 38.1831 14.6127C37.4501 15.3505 36.5318 15.7181 35.431 15.7181C34.3301 15.7181 33.4039 15.3531 32.6789 14.6205C31.9538 13.8879 31.5913 12.9715 31.5913 11.8713C31.5913 10.7711 31.9538 9.85468 32.6789 9.11945M30.0617 17.0599C31.5039 18.4542 33.2928 19.1501 35.431 19.1501C36.9394 19.1501 38.2705 18.7956 39.4348 18.1024V18.8166H43.0046V4.91551H39.4348V5.62973C38.2705 4.93652 36.9394 4.58203 35.431 4.58203C33.2928 4.58203 31.5013 5.27787 30.0617 6.67218C28.6221 8.06649 27.9023 9.79691 27.9023 11.8661C27.9023 13.9352 28.6221 15.6656 30.0617 17.0599Z" fill="#0A2333"/>
<path id="Vector_11" d="M160.941 4.91555C160.941 7.04247 159.205 8.76501 157.062 8.76501C154.918 8.76501 153.182 7.04247 153.182 4.91555C153.182 2.78864 154.918 1.0661 157.062 1.0661C159.205 1.0661 160.941 2.79127 160.941 4.91555Z" fill="#FA4A3D"/>
</g>
<defs>
<clipPath id="clip0_5831_27181">
<rect width="160.941" height="24" fill="white"/>
</clipPath>
</defs>
</svg>
