<svg xmlns="http://www.w3.org/2000/svg" width="124" height="33" viewBox="0 0 124 33" fill="none"><path d="M17.8714 13.1311C17.8714 17.0552 16.6037 18.9234 9.26514 18.9234C0.40904 18.9234 0.0202591 15.8673 0 12.5007C0 12.3754 0.0501083 12.2553 0.139302 12.1667C0.228495 12.0781 0.349467 12.0283 0.475606 12.0283H3.73346C3.857 12.0292 3.97542 12.0775 4.06403 12.163C4.15263 12.2485 4.20459 12.3646 4.20906 12.4872C4.33255 14.8929 5.51625 15.2857 9.13587 15.2857C12.879 15.2857 13.4607 15.0941 13.5138 13.1301C13.5909 11.1144 11.9837 10.9917 7.89525 11.055C2.21692 11.1402 0.399393 9.12352 0.399393 5.71095C0.399393 1.21673 2.36645 0.036406 8.50109 0.036406C16.0886 0.036406 17.1864 2.09334 17.253 6.4496C17.254 6.51236 17.2425 6.5747 17.2191 6.633C17.1957 6.69129 17.1608 6.7444 17.1166 6.78922C17.0723 6.83405 17.0196 6.86971 16.9613 6.89413C16.9031 6.91856 16.8406 6.93126 16.7774 6.9315H13.4511C13.3265 6.93054 13.2073 6.88152 13.1185 6.7948C13.0298 6.70808 12.9784 6.59047 12.9754 6.46685C12.9079 3.93759 12.1902 3.71341 8.51363 3.71341C5.34743 3.71341 4.62871 3.96442 4.62871 5.75023C4.62871 7.79375 5.69666 7.5255 8.88022 7.61459C13.0777 7.73339 17.8714 7.70082 17.8714 13.1311ZM36.2145 0.15233H39.3547C39.4803 0.152328 39.6009 0.201695 39.69 0.289652C39.7791 0.377608 39.8295 0.497007 39.8303 0.621775V18.3266C39.8305 18.3885 39.8184 18.4498 39.7945 18.507C39.7707 18.5643 39.7356 18.6162 39.6913 18.6598C39.6471 18.7034 39.5945 18.7378 39.5367 18.761C39.4789 18.7843 39.417 18.7958 39.3547 18.7951H36.2155C36.0901 18.7951 35.9699 18.7456 35.8812 18.6576C35.7926 18.5695 35.7428 18.4501 35.7428 18.3256V11.3127H25.9027V18.3256C25.9028 18.3875 25.8906 18.4489 25.8667 18.5061C25.8428 18.5633 25.8077 18.6152 25.7635 18.6589C25.7192 18.7025 25.6667 18.737 25.609 18.7604C25.5512 18.7838 25.4894 18.7956 25.4271 18.7951H22.285C22.2226 18.7954 22.1609 18.7836 22.1032 18.7601C22.0455 18.7367 21.993 18.7022 21.9488 18.6586C21.9046 18.6149 21.8696 18.5631 21.8456 18.5059C21.8217 18.4488 21.8094 18.3875 21.8094 18.3256V0.621775C21.8096 0.559875 21.8221 0.498631 21.8462 0.441539C21.8703 0.384446 21.9055 0.332625 21.9497 0.289033C21.994 0.245441 22.0465 0.210932 22.1041 0.187476C22.1618 0.164021 22.2236 0.152078 22.2859 0.15233H25.4261C25.5517 0.152328 25.6723 0.201695 25.7614 0.289652C25.8505 0.377608 25.9009 0.497007 25.9017 0.621775V7.64908H35.7254V0.620817C35.7254 0.557774 35.7381 0.495369 35.7629 0.437325C35.7877 0.379281 35.824 0.326788 35.8696 0.282976C35.9153 0.239164 35.9693 0.204932 36.0286 0.182321C36.0878 0.159711 36.1511 0.149185 36.2145 0.151372V0.15233ZM62.5214 18.8018H59.2915C59.1933 18.8013 59.0977 18.7709 59.0175 18.7147C58.9372 18.6585 58.8763 18.5792 58.8429 18.4875L57.8444 15.7255H48.2407L47.2422 18.4875C47.2093 18.5795 47.1485 18.6591 47.0682 18.7154C46.9878 18.7717 46.8919 18.8018 46.7936 18.8018H43.5666C43.4906 18.8016 43.4158 18.7833 43.3484 18.7484C43.2809 18.7135 43.223 18.663 43.1793 18.6013C43.1356 18.5395 43.1075 18.4682 43.0974 18.3934C43.0872 18.3186 43.0953 18.2424 43.1209 18.1714L49.5209 0.472319C49.5504 0.377509 49.6095 0.294446 49.6896 0.235059C49.7697 0.175673 49.8666 0.14302 49.9666 0.141792H56.1475C56.2474 0.14302 56.3444 0.175673 56.4245 0.235059C56.5046 0.294446 56.5636 0.377509 56.5932 0.472319L62.9806 18.1714C63.0077 18.2435 63.0164 18.3211 63.0059 18.3974C62.9955 18.4737 62.9663 18.5462 62.9209 18.6086C62.8754 18.671 62.8152 18.7212 62.7455 18.7549C62.6758 18.7886 62.5988 18.8047 62.5214 18.8018ZM56.5074 12.0255L53.5534 3.83891H52.525L49.571 12.0255H56.5074ZM123.484 0.890988V3.61473C123.484 3.6768 123.472 3.73826 123.448 3.7958C123.398 3.91029 123.306 4.00147 123.191 4.05064C123.133 4.07453 123.071 4.0869 123.008 4.08705H112.12V7.91542H123.008C123.134 7.91593 123.255 7.96585 123.344 8.05432C123.433 8.14279 123.483 8.26263 123.484 8.38774V11.1105C123.484 11.2357 123.433 11.3557 123.344 11.4442C123.255 11.5327 123.134 11.5826 123.008 11.5828H112.12V15.3556H123.008C123.134 15.3562 123.255 15.4061 123.344 15.4945C123.433 15.583 123.483 15.7029 123.484 15.828V18.6006C123.484 18.6624 123.471 18.7236 123.447 18.7806C123.423 18.8376 123.388 18.8894 123.344 18.9329C123.3 18.9764 123.247 19.0109 123.19 19.0342C123.132 19.0576 123.07 19.0694 123.008 19.0691H108.504C108.378 19.0686 108.257 19.0186 108.168 18.9302C108.079 18.8417 108.029 18.7218 108.028 18.5967V0.891946C108.028 0.766757 108.079 0.646768 108.168 0.558245C108.257 0.469723 108.378 0.41988 108.504 0.419627H123.008C123.134 0.420131 123.255 0.470055 123.344 0.558523C123.433 0.646991 123.483 0.766834 123.484 0.891946V0.890988ZM84.1523 9.47992C84.1523 16.8502 81.8235 18.9627 74.5051 18.9627C67.4154 18.9627 64.8579 16.8502 64.8579 9.47992C64.8579 1.64306 67.4222 0 74.5051 0C81.6373 0 84.1523 1.64402 84.1523 9.47992ZM80.1603 9.47992C80.1603 5.84891 80.1603 4.13591 74.5051 4.13591C68.8499 4.13591 68.8499 5.78663 68.8499 9.47992C68.8499 13.1732 68.8499 14.8239 74.5051 14.8239C80.1603 14.8239 80.1468 13.0678 80.1468 9.47992H80.1603ZM103.907 19.161H100.087C100.016 19.1608 99.9462 19.1447 99.8822 19.1139C99.8183 19.083 99.7621 19.0382 99.718 18.9828L93.84 11.6681H91.4089V18.6897C91.4089 18.7517 91.3965 18.8132 91.3726 18.8705C91.3486 18.9278 91.3135 18.9799 91.2692 19.0237C91.2249 19.0674 91.1724 19.1021 91.1145 19.1257C91.0567 19.1493 90.9948 19.1613 90.9323 19.161H87.9378C87.8741 19.1631 87.8107 19.1524 87.7512 19.1297C87.6917 19.1069 87.6374 19.0726 87.5915 19.0286C87.5456 18.9847 87.5091 18.932 87.4841 18.8738C87.4591 18.8156 87.4461 18.753 87.4458 18.6897V0.807637C87.4458 0.745657 87.4581 0.684284 87.4821 0.627034C87.506 0.569783 87.541 0.517778 87.5852 0.473995C87.6294 0.430213 87.6818 0.395513 87.7395 0.371881C87.7972 0.348249 87.859 0.33615 87.9214 0.336276H90.9159C91.0419 0.336276 91.1627 0.385906 91.2519 0.474276C91.341 0.562646 91.3913 0.682537 91.3915 0.807637V7.76309H93.7898L99.4855 0.501061C99.5303 0.444732 99.5873 0.399127 99.6523 0.36762C99.7172 0.336112 99.7885 0.319506 99.8608 0.319031H103.647C103.737 0.318266 103.824 0.342636 103.9 0.389325C103.977 0.436015 104.038 0.503117 104.077 0.582878C104.116 0.662638 104.132 0.751801 104.122 0.84006C104.113 0.928319 104.078 1.01207 104.023 1.08164L97.5059 9.41286C97.4391 9.49525 97.4027 9.59785 97.4027 9.70363C97.4027 9.8094 97.4391 9.912 97.5059 9.99439L104.275 18.408C104.327 18.477 104.359 18.5591 104.367 18.645C104.375 18.7309 104.359 18.8173 104.321 18.8947C104.283 18.9726 104.225 19.0387 104.152 19.0856C104.078 19.1324 103.994 19.1582 103.907 19.1601V19.161Z" fill="#101820"></path><path d="M3.46132 32.9501L1.06445 25.9673H1.83632L4.08085 32.5411H3.69491L6.01052 25.9673H6.70114L8.98629 32.5411H8.62067L10.8855 25.9673H11.6066L9.20973 32.9501H8.41754L6.23396 26.7155H6.43708L4.24334 32.9501H3.46132Z" fill="#101820"></path><path d="M14.6904 32.9999C14.1352 32.9999 13.6477 32.8869 13.2279 32.6608C12.8081 32.428 12.4798 32.1121 12.2428 31.7131C12.0058 31.3075 11.8873 30.8453 11.8873 30.3265C11.8873 29.8078 11.999 29.349 12.2225 28.9499C12.4527 28.5509 12.7641 28.2384 13.1568 28.0123C13.5563 27.7795 14.0032 27.6631 14.4975 27.6631C14.9985 27.6631 15.442 27.7762 15.8279 28.0023C16.2206 28.2217 16.5287 28.5343 16.7521 28.94C16.9756 29.339 17.0873 29.8012 17.0873 30.3265C17.0873 30.3598 17.0839 30.3964 17.0771 30.4363C17.0771 30.4695 17.0771 30.5061 17.0771 30.546H12.4357V30.0173H16.6912L16.4068 30.2268C16.4068 29.8477 16.3222 29.5119 16.1529 29.2193C15.9904 28.92 15.767 28.6873 15.4826 28.521C15.1982 28.3547 14.8699 28.2716 14.4975 28.2716C14.1318 28.2716 13.8035 28.3547 13.5123 28.521C13.2212 28.6873 12.9943 28.92 12.8318 29.2193C12.6693 29.5185 12.5881 29.861 12.5881 30.2467V30.3565C12.5881 30.7555 12.6761 31.108 12.8522 31.4139C13.035 31.7131 13.2855 31.9492 13.6037 32.1221C13.9287 32.2884 14.2977 32.3715 14.7107 32.3715C15.0357 32.3715 15.337 32.315 15.6146 32.2019C15.899 32.0889 16.1428 31.916 16.3459 31.6832L16.7521 32.1421C16.5152 32.4214 16.2172 32.6342 15.8584 32.7805C15.5063 32.9268 15.117 32.9999 14.6904 32.9999Z" fill="#101820"></path><path d="M21.3654 32.9501V25.9673H24.2599C25.0183 25.9673 25.6818 26.1169 26.2506 26.4162C26.8261 26.7088 27.273 27.1178 27.5912 27.6432C27.9094 28.1685 28.0685 28.7737 28.0685 29.4587C28.0685 30.1437 27.9094 30.7488 27.5912 31.2742C27.273 31.7996 26.8261 32.2119 26.2506 32.5112C25.6818 32.8038 25.0183 32.9501 24.2599 32.9501H21.3654ZM22.117 32.3116H24.2193C24.849 32.3116 25.3941 32.1919 25.8545 31.9525C26.3217 31.7065 26.6839 31.3706 26.9412 30.945C27.1985 30.5128 27.3271 30.0173 27.3271 29.4587C27.3271 28.8934 27.1985 28.398 26.9412 27.9724C26.6839 27.5467 26.3217 27.2142 25.8545 26.9748C25.3941 26.7288 24.849 26.6057 24.2193 26.6057H22.117V32.3116Z" fill="#101820"></path><path d="M31.8687 32.9999C31.3135 32.9999 30.826 32.8869 30.4062 32.6608C29.9864 32.428 29.658 32.1121 29.421 31.7131C29.1841 31.3075 29.0656 30.8453 29.0656 30.3265C29.0656 29.8078 29.1773 29.349 29.4007 28.9499C29.6309 28.5509 29.9424 28.2384 30.3351 28.0123C30.7346 27.7795 31.1815 27.6631 31.6757 27.6631C32.1768 27.6631 32.6202 27.7762 33.0062 28.0023C33.3989 28.2217 33.707 28.5343 33.9304 28.94C34.1538 29.339 34.2656 29.8012 34.2656 30.3265C34.2656 30.3598 34.2622 30.3964 34.2554 30.4363C34.2554 30.4695 34.2554 30.5061 34.2554 30.546H29.614V30.0173H33.8695L33.5851 30.2268C33.5851 29.8477 33.5005 29.5119 33.3312 29.2193C33.1687 28.92 32.9452 28.6873 32.6609 28.521C32.3765 28.3547 32.0481 28.2716 31.6757 28.2716C31.3101 28.2716 30.9817 28.3547 30.6906 28.521C30.3994 28.6873 30.1726 28.92 30.0101 29.2193C29.8476 29.5185 29.7664 29.861 29.7664 30.2467V30.3565C29.7664 30.7555 29.8544 31.108 30.0304 31.4139C30.2132 31.7131 30.4637 31.9492 30.782 32.1221C31.107 32.2884 31.476 32.3715 31.889 32.3715C32.214 32.3715 32.5153 32.315 32.7929 32.2019C33.0773 32.0889 33.321 31.916 33.5242 31.6832L33.9304 32.1421C33.6934 32.4214 33.3955 32.6342 33.0367 32.7805C32.6846 32.9268 32.2952 32.9999 31.8687 32.9999Z" fill="#101820"></path><path d="M35.7333 32.9501V25.5483H36.4544V32.9501H35.7333Z" fill="#101820"></path><path d="M38.4608 32.9501V27.713H39.1819V32.9501H38.4608ZM38.8264 26.5559C38.6774 26.5559 38.5522 26.506 38.4506 26.4062C38.3491 26.3065 38.2983 26.1868 38.2983 26.0471C38.2983 25.9075 38.3491 25.7911 38.4506 25.698C38.5522 25.5982 38.6774 25.5483 38.8264 25.5483C38.9754 25.5483 39.1006 25.5949 39.2022 25.688C39.3037 25.7811 39.3545 25.8975 39.3545 26.0371C39.3545 26.1834 39.3037 26.3065 39.2022 26.4062C39.1074 26.506 38.9821 26.5559 38.8264 26.5559Z" fill="#101820"></path><path d="M42.5594 32.9501L40.193 27.713H40.9445L43.118 32.571H42.7625L44.9664 27.713H45.6773L43.3008 32.9501H42.5594Z" fill="#101820"></path><path d="M48.8089 32.9999C48.2537 32.9999 47.7662 32.8869 47.3464 32.6608C46.9266 32.428 46.5982 32.1121 46.3613 31.7131C46.1243 31.3075 46.0058 30.8453 46.0058 30.3265C46.0058 29.8078 46.1175 29.349 46.341 28.9499C46.5712 28.5509 46.8826 28.2384 47.2753 28.0123C47.6748 27.7795 48.1217 27.6631 48.6159 27.6631C49.117 27.6631 49.5605 27.7762 49.9464 28.0023C50.3391 28.2217 50.6472 28.5343 50.8706 28.94C51.0941 29.339 51.2058 29.8012 51.2058 30.3265C51.2058 30.3598 51.2024 30.3964 51.1956 30.4363C51.1956 30.4695 51.1956 30.5061 51.1956 30.546H46.5542V30.0173H50.8097L50.5253 30.2268C50.5253 29.8477 50.4407 29.5119 50.2714 29.2193C50.1089 28.92 49.8855 28.6873 49.6011 28.521C49.3167 28.3547 48.9883 28.2716 48.6159 28.2716C48.2503 28.2716 47.9219 28.3547 47.6308 28.521C47.3397 28.6873 47.1128 28.92 46.9503 29.2193C46.7878 29.5185 46.7066 29.861 46.7066 30.2467V30.3565C46.7066 30.7555 46.7946 31.108 46.9706 31.4139C47.1535 31.7131 47.404 31.9492 47.7222 32.1221C48.0472 32.2884 48.4162 32.3715 48.8292 32.3715C49.1542 32.3715 49.4555 32.315 49.7331 32.2019C50.0175 32.0889 50.2613 31.916 50.4644 31.6832L50.8706 32.1421C50.6336 32.4214 50.3357 32.6342 49.9769 32.7805C49.6248 32.9268 49.2355 32.9999 48.8089 32.9999Z" fill="#101820"></path><path d="M52.6735 32.9501V27.713H53.3641V29.1395L53.293 28.8901C53.442 28.4911 53.6925 28.1885 54.0446 27.9823C54.3967 27.7695 54.8334 27.6631 55.3547 27.6631V28.3514C55.3277 28.3514 55.3006 28.3514 55.2735 28.3514C55.2464 28.3448 55.2193 28.3414 55.1922 28.3414C54.6303 28.3414 54.1902 28.511 53.8719 28.8502C53.5537 29.1827 53.3946 29.6582 53.3946 30.2767V32.9501H52.6735Z" fill="#101820"></path></svg>