<?xml version="1.0" standalone="no"?><!DOCTYPE svg PUBLIC "-//W3C//DTD SVG 1.1//EN" "http://www.w3.org/Graphics/SVG/1.1/DTD/svg11.dtd"><svg t="1755849666534" class="icon" viewBox="0 0 1477 1024" version="1.1" xmlns="http://www.w3.org/2000/svg" p-id="5709" xmlns:xlink="http://www.w3.org/1999/xlink" width="288.4765625" height="200"><path d="M1401.836 508.085c33.896-25.975 48.843-53.044 46.43-87.834-3.525-50.716-44.521-84.731-91.254-84.731H1222.995v293.181h53.277V508.085h62.951l75.299 120.616h62.892l-75.578-120.616z m-5.25-87.619c0 22.435-15.8 35.674-39.841 35.674h-80.473v-68.78h80.476c30.377 0 39.838 20.956 39.838 33.106z m-579.371 98.671l68.719 109.473 63.399 0.087-97.632-155.261-34.486 45.701zM929.987 335.52h-67.692L722.928 520.793l-0.021-185.273h-53.512v267.207c0 9.833 5.705 21.984 21.022 25.495 6.103 1.398 18.24-0.098 25.548-9.682 0.899-1.176 214.022-283.02 214.022-283.02zM1048.6 508.064l105.235 0.017v-51.945H1048.6v51.928z m0 0" fill="" p-id="5710"></path><path d="M1180.929 335.52H972.05v267.122a26.055 26.055 0 0 0 26.062 26.058h182.814v-51.811H1025.467V387.434h155.462V335.52z m-618.556 0l-0.021 185.273L422.99 335.52h-68.041v293.029h53.428v-222.84L569.312 618.54c7.311 9.583 19.448 11.08 25.548 9.682 15.32-3.511 21.026-15.662 21.026-25.495v-267.21h-53.513v0.003z m-425.309 15.796L0 628.701h59.725L162.94 420.466 266.104 628.701h59.197L189.28 352.225a29.907 29.907 0 0 0-26.834-16.705 28.28 28.28 0 0 0-25.382 15.796z m0 0" fill="" p-id="5711"></path><path d="M211.363 587.227h-35.311a0.574 0.574 0 0 1-0.574-0.573l0.004-0.05 6.882-75.355c0.049-0.571-0.676-0.856-1.029-0.398l-76.042 99.442a0.58 0.58 0 0 0-0.059 0.602 0.576 0.576 0 0 0 0.514 0.317h35.311c0.338 0 0.602 0.288 0.571 0.627l-6.882 75.352c-0.049 0.571 0.676 0.857 1.029 0.399l76.042-99.442a0.573 0.573 0 0 0-0.456-0.921z m0 0" fill="" p-id="5712"></path></svg>