<svg width="202" height="44" viewBox="0 0 202 44" fill="none" xmlns="http://www.w3.org/2000/svg">
<g clip-path="url(#clip0_1357_4049)">
<path d="M200.976 0H0V44H200.976V0Z" fill="#FFD900" style="fill:#FFD900;fill:color(display-p3 1.0000 0.8510 0.0000);fill-opacity:1;"/>
<path d="M138.546 0.496582H137.522V43.5394H138.546V0.496582Z" fill="#231815" style="fill:#231815;fill:color(display-p3 0.1373 0.0941 0.0824);fill-opacity:1;"/>
<path d="M1.02387 1.01411H200.976V42.9859H1.02387V1.01411ZM0 0V44H202V0H0Z" fill="#231815" style="fill:#231815;fill:color(display-p3 0.1373 0.0941 0.0824);fill-opacity:1;"/>
<path d="M37.0265 15.7754C40.7354 15.7754 44.3816 16.4274 46.9726 17.7364L53.8994 13.711C49.2137 11.6 43.2585 10.3324 36.8907 10.3324C32.4713 10.3324 29.3893 10.6635 25.7483 11.6362C17.62 13.8145 13.4932 18.647 13.4932 24.0539C13.4932 27.505 14.82 29.9368 18.1162 32.3375C22.2483 35.3178 27.8482 36.663 35.9713 36.663C42.2764 36.663 47.9443 35.9335 53.5442 34.1484V21.8032H35.0205L36.4257 26.9565H41.0018V30.9561C39.675 31.2458 38.0608 31.3234 36.4519 31.3234C30.643 31.3234 26.4639 28.8554 26.4639 23.8004C26.4639 18.1348 30.4288 15.7754 37.0108 15.7754H37.0265ZM68.803 9.27686C65.2038 9.27686 62.2471 10.7411 62.2471 12.5417C62.2471 14.3422 65.1411 15.8065 68.6149 15.8065C72.0888 15.8065 75.1081 14.3422 75.1081 12.5417C75.1081 10.7411 72.3447 9.27686 68.8082 9.27686H68.803ZM62.5866 36.2232H74.7686V17.933L62.5866 18.5125V36.2232ZM101.097 32.3738C98.0146 32.3738 97.3146 31.7891 97.3146 29.1814V23.0294H101.985L103.353 17.9123H97.3146V11.1395L85.1431 12.0657L85.1274 17.9123H82.1864V23.0294H85.1274V32.1927C85.1274 35.8248 89.6826 36.7303 96.4788 36.7303C99.4877 36.7303 102.565 36.4095 105.652 35.6489L104.184 32.0167C103.416 32.2341 102.225 32.3789 101.102 32.3789L101.097 32.3738ZM117.609 15.8117C121.208 15.8117 124.102 14.3474 124.102 12.5468C124.102 10.7463 121.339 9.28203 117.802 9.28203C114.266 9.28203 111.247 10.7463 111.247 12.5468C111.247 14.3474 114.141 15.8117 117.609 15.8117ZM111.581 36.2232H123.768V17.933L111.581 18.5125V36.2232Z" fill="#231815" style="fill:#231815;fill:color(display-p3 0.1373 0.0941 0.0824);fill-opacity:1;"/>
<path d="M188.46 14.4148C188.23 14.9115 187.577 15.0823 187.002 14.7925C186.433 14.5028 186.156 13.8767 186.396 13.3852C186.632 12.8885 187.285 12.7281 187.854 13.0075C188.423 13.2869 188.695 13.9233 188.46 14.4148ZM188.308 7.48677C186.616 6.98489 186.266 7.14011 186.093 7.05215C182.567 5.09637 179.391 4.62036 179.026 4.62553C178.174 4.6514 178.185 6.41057 178.185 7.09355C178.185 7.76617 178.749 13.8353 179.579 15.4755C179.809 15.9204 180.123 16.1688 180.593 16.3137C181.063 16.4585 181.512 16.4534 182.129 16.4792C182.129 16.4792 183.273 16.6138 184.155 16.6293C185.038 16.6448 185.686 16.6448 185.691 16.6448H185.801L185.916 17.095C186.558 19.7285 187.493 27.1792 187.509 27.3913C187.561 27.8932 187.128 28.1519 186.935 28.1519H186.146L186.078 27.8156C185.696 25.6994 185.394 21.2549 184.636 18.0935C183.957 18.0935 181.256 17.959 181.256 17.959C180.514 17.8814 180.05 17.8711 179.522 17.602C178.989 17.333 178.414 16.919 178.106 16.0032C177.234 13.3852 176.586 8.09213 176.769 7.10389C174.648 7.31085 171.676 7.28498 168.662 8.23183C167.836 8.49053 167.204 8.71819 167.204 8.71819C163.668 10.0531 159.593 11.9313 155.007 17.7521C149.997 24.1006 148.158 28.6951 148.216 28.7676C148.257 28.8193 148.795 28.809 148.795 28.809H149.522C147.714 32.3221 146.032 36.0423 145.933 36.3424H147.004C147.719 36.3424 154.939 36.3631 155.539 36.3631H155.942C156.088 36.1251 156.114 36.0474 156.245 35.8301C159.227 30.8941 164.284 26.6617 168.74 26.6617C174.439 26.6617 178.9 29.2798 179.057 35.8974C179.067 36.2855 179.067 36.3475 179.067 36.3475C179.6 36.3475 185.305 36.3475 186.83 36.3475C186.83 36.3475 197.696 10.3118 188.308 7.49712" fill="#231815" style="fill:#231815;fill:color(display-p3 0.1373 0.0941 0.0824);fill-opacity:1;"/>
</g>
<defs>
<clipPath id="clip0_1357_4049">
<rect width="202" height="44" fill="white" style="fill:white;fill-opacity:1;"/>
</clipPath>
</defs>
</svg>
