<svg width="16" height="17" viewBox="0 0 16 17" fill="none" xmlns="http://www.w3.org/2000/svg">
<path d="M8.00003 9.22408L14.8306 3.79167C14.7936 3.78525 14.7604 3.77051 14.722 3.77051H1.27811C1.2405 3.77051 1.20705 3.78506 1.17004 3.79167L8.00003 9.22408ZM15.3332 4.35394C15.3332 4.29272 15.3156 4.23604 15.2962 4.18031L10.4542 8.03267L15.3035 12.6625C15.316 12.6158 15.3332 12.5709 15.3332 12.5204V4.35394ZM0.704111 4.17974C0.685307 4.23585 0.666504 4.29178 0.666504 4.35394V12.5202C0.666504 12.5712 0.684911 12.616 0.696985 12.6627L5.54787 8.03248L0.704111 4.17974ZM9.98192 8.40751L8.19519 9.82811C8.13918 9.87364 8.0699 9.89556 8.00003 9.89556C7.93076 9.89556 7.86109 9.87364 7.80448 9.82811L6.01934 8.40827L1.13026 13.0749C1.17835 13.087 1.22605 13.1038 1.27811 13.1038H14.7222C14.7752 13.1038 14.8229 13.0872 14.872 13.0749L9.98192 8.40751Z" fill="#101011"/>
</svg>
