<svg width="14" height="13" viewBox="0 0 14 13" fill="none" xmlns="http://www.w3.org/2000/svg">
<path d="M13.6663 12.7705H10.7197V8.55203C10.7197 7.44803 10.2586 6.69382 9.24479 6.69382C8.46982 6.69382 8.03873 7.20251 7.83763 7.69299C7.76263 7.86899 7.7743 8.11396 7.7743 8.35892V12.7705H4.85553C4.85553 12.7705 4.89331 5.29796 4.85553 4.61878H7.77485V5.89823C7.94707 5.33878 8.88036 4.54044 10.3692 4.54044C12.2158 4.54044 13.6668 5.71285 13.6668 8.23754V12.7705H13.6663ZM1.90288 3.5992H1.88399C0.943471 3.5992 0.333496 2.97575 0.333496 2.18568C0.333496 1.38016 0.961248 0.770508 1.92065 0.770508C2.8795 0.770508 3.46892 1.37906 3.48781 2.18347C3.48781 2.97354 2.8795 3.5992 1.90288 3.5992ZM0.669593 4.61878H3.26837V12.7705H0.669593V4.61878Z" fill="#101011"/>
</svg>
