<svg width="16" height="17" viewBox="0 0 16 17" fill="none" xmlns="http://www.w3.org/2000/svg">
<path d="M9.50446 11.9076C9.99935 11.901 10.376 12.0921 10.6339 12.4804C10.9642 12.9782 10.8908 13.6515 10.479 14.0672C10.067 14.4829 9.39493 14.562 8.89398 14.236C8.50318 13.9815 8.30884 13.6067 8.31134 13.1118C8.31259 12.8517 8.31144 12.4614 8.30767 11.941C8.30769 11.9339 8.31124 11.9268 8.31829 11.9197C8.32164 11.9164 8.32694 11.9146 8.33404 11.9146C8.85433 11.9138 9.24447 11.9114 9.50446 11.9076Z" fill="black"/>
<path d="M6.47331 8.76296C7.13881 8.76184 7.67919 9.30078 7.68035 9.96634L7.68621 13.2191C7.68737 13.8846 7.1487 14.4253 6.4832 14.4265L6.3726 14.4268C5.70715 14.4279 5.16673 13.889 5.16557 13.2235L5.16007 9.97074C5.15891 9.3052 5.69727 8.76459 6.36272 8.76333L6.47331 8.76296Z" fill="black"/>
<path d="M4.49686 8.74575C4.50397 8.74575 4.51105 8.74895 4.51774 8.75564C4.52106 8.75898 4.5225 8.7643 4.5225 8.77139C4.52333 9.29215 4.52569 9.68253 4.52945 9.94254C4.53614 10.4375 4.34537 10.814 3.95706 11.0719C3.45925 11.4024 2.78657 11.329 2.37026 10.917C1.95459 10.5051 1.87546 9.83232 2.20144 9.33133C2.45599 8.9409 2.83082 8.74659 3.32571 8.74868C3.58569 8.75035 3.97608 8.74951 4.49686 8.74575Z" fill="black"/>
<path d="M12.785 8.75491C13.4502 8.75492 13.9895 9.29451 13.9895 9.95975V10.0689C13.9894 10.734 13.4501 11.2734 12.785 11.2734H9.52973C8.8646 11.2734 8.32535 10.734 8.32525 10.0689V9.95975C8.32525 9.2945 8.86454 8.75491 9.52973 8.75491H12.785Z" fill="black"/>
<path d="M12.0427 5.80285C12.5405 5.47249 13.2138 5.54525 13.6295 5.95776C14.0452 6.36972 14.1247 7.0421 13.7987 7.5431C13.5441 7.93383 13.1695 8.12785 12.6748 8.12538C12.4148 8.12413 12.0241 8.12565 11.5032 8.12941C11.4966 8.12935 11.4898 8.12579 11.4827 8.11916C11.4794 8.11581 11.4776 8.11049 11.4776 8.10341C11.4768 7.58305 11.4745 7.19266 11.4703 6.93226C11.4636 6.43732 11.6544 6.06077 12.0427 5.80285Z" fill="black"/>
<path d="M6.46672 5.59704C7.13219 5.59595 7.6726 6.13451 7.67376 6.80005V6.91028C7.67492 7.57583 7.13659 8.11646 6.47112 8.11769L3.21805 8.12319C2.55259 8.12426 2.01217 7.58571 2.01101 6.92017V6.80994C2.00985 6.14441 2.5482 5.60378 3.21365 5.60253L6.46672 5.59704Z" fill="black"/>
<path d="M9.63739 2.44796C10.3025 2.44912 10.8407 2.98911 10.8397 3.65427L10.8342 6.90882C10.833 7.57404 10.2927 8.11226 9.62751 8.1111H9.51581C8.85072 8.10985 8.31241 7.56958 8.31353 6.90442L8.31939 3.64988C8.32065 2.98477 8.86065 2.44653 9.5257 2.4476L9.63739 2.44796Z" fill="black"/>
<path d="M5.52189 2.80759C5.93382 2.39186 6.60627 2.31307 7.10723 2.63913C7.4975 2.8937 7.69128 3.26855 7.68877 3.7634C7.6871 4.0234 7.68831 4.41354 7.69207 4.93383C7.69207 4.94093 7.6885 4.94796 7.68182 4.95507C7.67808 4.95838 7.67306 4.96017 7.66644 4.96019C7.14573 4.96103 6.75527 4.96308 6.49529 4.96642C6.0004 4.97311 5.6241 4.78235 5.36662 4.39403C5.03621 3.89555 5.10939 3.22269 5.52189 2.80759Z" fill="black"/>
</svg>
