<svg width="261" height="378" viewBox="0 0 261 378" fill="none" xmlns="http://www.w3.org/2000/svg">
<mask id="mask0_21075_12534" style="mask-type:alpha" maskUnits="userSpaceOnUse" x="0" y="-13" width="317" height="378">
<rect y="-13" width="316.2" height="377.58" fill="url(#paint0_linear_21075_12534)"/>
</mask>
<g mask="url(#mask0_21075_12534)">
<path d="M-37.2012 148.316L53.7032 148.316C72.5855 148.316 82.0267 148.316 90.1076 145.197C97.2451 142.442 103.593 137.969 108.588 132.174C114.243 125.613 117.418 116.721 123.769 98.9392L125.7 93.5323C132.051 75.75 135.226 66.8589 140.881 60.2977C145.876 54.5025 152.223 50.0292 159.361 47.2745C167.442 44.1558 176.883 44.1558 195.765 44.1558L301.319 44.1558" stroke="#B1CEF8" stroke-opacity="0.8" stroke-width="2" stroke-linecap="round"/>
<path d="M-37.2012 166.916L72.3033 166.916C91.1856 166.916 100.627 166.916 108.708 163.797C115.845 161.042 122.193 156.569 127.188 150.774C132.843 144.213 136.018 135.322 142.369 117.539L144.3 112.132C150.651 94.3502 153.826 85.459 159.481 78.8979C164.476 73.1027 170.823 68.6294 177.961 65.8747C186.042 62.7559 195.483 62.7559 214.365 62.7559L282.719 62.7559" stroke="#0861E7" stroke-opacity="0.1" stroke-width="2" stroke-linecap="round"/>
<path d="M20.5405 185.516L90.9032 185.516C109.785 185.516 119.227 185.516 127.308 182.397C134.445 179.642 140.793 175.169 145.787 169.374C151.442 162.813 154.618 153.921 160.969 136.139L162.9 130.732C169.251 112.95 172.426 104.059 178.081 97.4977C183.076 91.7025 189.423 87.2293 196.561 84.4746C204.642 81.3558 214.083 81.3558 232.965 81.3558L301.319 81.3558" stroke="#B1CEF8" stroke-opacity="0.8" stroke-width="2" stroke-linecap="round"/>
<path d="M169.462 112.648L157.23 146.675" stroke="url(#paint1_linear_21075_12534)" stroke-width="2" stroke-linecap="round"/>
<path d="M-37.2012 240.212L53.7032 240.212C72.5855 240.212 82.0267 240.212 90.1076 243.33C97.2451 246.085 103.593 250.558 108.588 256.354C114.243 262.915 117.418 271.806 123.769 289.588L125.7 294.995C132.051 312.777 135.226 321.668 140.881 328.23C145.876 334.025 152.223 338.498 159.361 341.253C167.442 344.372 176.882 344.372 195.763 344.372C231.805 344.372 270.157 344.372 301.319 344.372" stroke="#B1CEF8" stroke-opacity="0.8" stroke-width="2" stroke-linecap="round"/>
<path d="M-37.2012 221.612L72.3033 221.612C91.1856 221.612 100.627 221.612 108.708 224.731C115.845 227.486 122.193 231.959 127.188 237.754C132.843 244.315 136.018 253.206 142.369 270.989L144.3 276.396C150.651 294.178 153.826 303.069 159.481 309.63C164.476 315.425 170.823 319.899 177.961 322.653C186.042 325.772 195.483 325.772 214.365 325.772L282.719 325.772" stroke="#0861E7" stroke-opacity="0.1" stroke-width="2" stroke-linecap="round"/>
<path d="M-37.2012 203.012L90.9031 203.012C109.785 203.012 119.227 203.012 127.308 206.131C134.445 208.885 140.793 213.359 145.787 219.154C151.442 225.715 154.618 234.606 160.969 252.388L162.9 257.795C169.251 275.578 172.426 284.469 178.081 291.03C183.076 296.825 189.423 301.298 196.561 304.053C204.642 307.172 214.083 307.172 232.965 307.172L301.319 307.172" stroke="#B1CEF8" stroke-opacity="0.8" stroke-width="2" stroke-linecap="round"/>
<path d="M167.403 270.605L155.156 236.196" stroke="url(#paint2_linear_21075_12534)" stroke-width="2" stroke-linecap="round"/>
</g>
<g filter="url(#filter0_dddd_21075_12534)">
<path d="M123.146 202.33C123.146 185.374 136.892 171.628 153.848 171.628V171.628C170.805 171.628 184.551 185.374 184.551 202.33V202.33C184.551 219.287 170.805 233.033 153.848 233.033V233.033C136.892 233.033 123.146 219.287 123.146 202.33V202.33Z" fill="white"/>
<path d="M153.848 172.194C170.492 172.194 183.985 185.686 183.985 202.33C183.985 218.974 170.492 232.467 153.848 232.467C137.205 232.467 123.712 218.974 123.712 202.33C123.713 185.687 137.205 172.194 153.848 172.194Z" stroke="#CADDFF" stroke-width="1.13256"/>
<g clip-path="url(#clip0_21075_12534)">
<path d="M153.469 190.232C160.144 190.232 165.568 195.655 165.581 202.318C165.581 209.005 160.157 214.416 153.482 214.416H151.093C151.199 214.074 151.311 213.724 151.43 213.371L150.372 214.429H150.195L151.521 213.102C151.606 212.856 151.693 212.608 151.784 212.36L149.715 214.429H149.538L151.886 212.08C151.979 211.832 152.074 211.585 152.172 211.339L149.083 214.429H148.906L152.292 211.043C152.401 210.775 152.514 210.51 152.631 210.249L148.45 214.429H148.273L152.777 209.925C152.92 209.614 153.068 209.31 153.221 209.013L147.806 214.429L147.616 214.441L153.422 208.635C153.642 208.237 153.882 207.846 154.138 207.464L147.174 214.429H146.997L154.161 207.431C156.585 203.828 160.334 201.066 160.334 201.066L160.446 200.397L146.415 214.429H146.238L160.482 200.185L160.587 199.562L160.739 199.46C161.118 199.208 161.333 198.778 161.307 198.323C161.244 197.438 160.865 196.262 160.701 196.186C160.195 195.933 157.818 196.565 157.818 196.565L156.01 195.364C155.72 195.175 155.366 195.099 155.024 195.162L153.684 195.693H150.928C150.271 195.731 148.906 196.186 148.4 196.616L147.265 197.331C147.392 197.458 147.515 197.59 147.641 197.716C147.793 197.855 147.565 198.07 147.426 197.931C147.199 197.703 146.971 197.45 146.718 197.248C146.099 196.742 145.189 196.717 144.557 197.248C143.95 197.766 143.748 198.664 144.139 199.372C144.329 199.701 144.632 199.954 144.898 200.219C145.037 200.358 144.809 200.573 144.67 200.434C144.365 200.12 144.06 199.831 143.859 199.466L142.218 200.497V190.232H153.469Z" fill="#FF8618"/>
<path d="M144.961 214.429H144.784L158.716 200.485C158.804 200.459 158.893 200.434 158.969 200.409L144.961 214.429Z" fill="#FF8618"/>
<path d="M145.707 214.429H145.53L159.803 200.156C159.917 200.093 160.031 200.042 160.132 199.991L145.707 214.429Z" fill="#FF8618"/>
<path d="M144.481 214.163C144.544 214.037 144.607 213.91 144.683 213.784L157.401 201.066C157.515 201.015 157.629 200.952 157.742 200.902L144.481 214.163Z" fill="#FF8618"/>
<path d="M145.429 212.482C145.517 212.33 145.619 212.179 145.707 212.027L155.897 201.837C156.023 201.761 156.15 201.686 156.289 201.622L145.429 212.482Z" fill="#FF8618"/>
<path d="M149.032 205.908C148.981 205.895 148.931 205.895 148.88 205.883L149.74 205.023C149.816 205.01 149.879 204.998 149.942 204.973L149.98 204.96L149.032 205.908Z" fill="#FF8618"/>
<path d="M149.955 205.744C149.866 205.782 149.765 205.819 149.677 205.845L150.84 204.682L151.105 204.593L149.955 205.744Z" fill="#FF8618"/>
<path d="M148.994 204.998C149.045 205.01 149.095 205.01 149.133 205.036L148.438 205.731C148.4 205.706 148.362 205.693 148.324 205.668L148.994 204.998Z" fill="#FF8618"/>
<path d="M148.476 204.77C148.514 204.783 148.551 204.808 148.577 204.821L148.008 205.39C147.983 205.364 147.945 205.339 147.919 205.301L148.476 204.77Z" fill="#FF8618"/>
<path d="M151.687 204.783L151.282 205.01L151.965 204.34L152.23 204.252L151.687 204.783Z" fill="#FF8618"/>
<path d="M148.109 204.53L147.679 204.947L147.616 204.833L147.995 204.454L148.109 204.53Z" fill="#FF8618"/>
<path d="M147.641 204.227L147.401 204.467L147.338 204.353L147.527 204.151L147.641 204.227Z" fill="#FF8618"/>
<path d="M152.85 204.138L152.964 204.024L153.179 203.961L152.85 204.138Z" fill="#FF8618"/>
<path d="M147.06 203.847L147.174 203.923L147.123 203.974L147.047 203.86L147.035 203.835L147.06 203.847Z" fill="#FF8618"/>
<path d="M160.233 196.49C160.347 196.464 160.473 196.528 160.524 196.641L160.789 197.299C160.878 197.526 160.814 197.792 160.612 197.956L159.689 198.689L158.122 198.5C157.844 198.474 157.629 198.285 157.54 198.032L157.376 197.526C157.325 197.387 157.401 197.236 157.553 197.198L160.233 196.49Z" fill="#FF8618"/>
<path d="M152.395 197.033C152.622 196.869 152.938 196.907 153.115 197.122L153.672 197.804L150.954 198.057L152.395 197.033Z" fill="#FF8618"/>
<path d="M156.643 196.338C156.605 196.237 156.718 196.136 156.82 196.174L157.806 196.565L156.807 196.818L156.643 196.338Z" fill="#FF8618"/>
</g>
</g>
<g filter="url(#filter1_dddd_21075_12534)">
<path d="M131.476 50.2931C131.476 33.3366 145.222 19.5907 162.178 19.5907V19.5907C179.135 19.5907 192.881 33.3366 192.881 50.2931V50.2931C192.881 67.2496 179.135 80.9955 162.178 80.9955V80.9955C145.222 80.9955 131.476 67.2496 131.476 50.2931V50.2931Z" fill="white"/>
<path d="M162.178 20.1571C178.822 20.1571 192.315 33.6493 192.315 50.2929C192.315 66.9366 178.822 80.4296 162.178 80.4296C145.535 80.4295 132.042 66.9365 132.042 50.2929C132.043 33.6493 145.535 20.1573 162.178 20.1571Z" stroke="#CADDFF" stroke-width="1.13256"/>
<g clip-path="url(#clip1_21075_12534)">
<path d="M174.82 50.8462C174.82 48.7286 173.509 46.8718 171.526 46.1528C171.612 45.7103 171.66 45.2599 171.66 44.7938C171.66 40.8589 168.46 37.6509 164.517 37.6509C162.218 37.6509 160.077 38.7571 158.733 40.6139C158.069 40.0977 157.252 39.8169 156.41 39.8159C155.799 39.8161 155.196 39.9642 154.654 40.2476C154.112 40.5309 153.647 40.9412 153.297 41.4433C152.948 41.9455 152.725 42.5246 152.648 43.1314C152.571 43.7382 152.642 44.3546 152.855 44.9281C150.887 45.6392 149.536 47.5355 149.536 49.6373C149.536 51.7706 150.856 53.6275 152.839 54.3465C152.752 54.789 152.712 55.2472 152.712 55.7055C152.712 59.6325 155.913 62.8325 159.839 62.8325C162.147 62.8325 164.288 61.7263 165.623 59.8537C166.285 60.3756 167.103 60.6595 167.946 60.6597C168.558 60.6595 169.16 60.5114 169.703 60.228C170.245 59.9446 170.71 59.5344 171.059 59.0322C171.409 58.5301 171.631 57.951 171.708 57.3442C171.785 56.7374 171.715 56.121 171.502 55.5475C173.469 54.8443 174.82 52.9479 174.82 50.8462Z" fill="white"/>
<path d="M159.476 48.4995L165.007 51.02L170.585 46.1291C170.664 45.7261 170.704 45.3232 170.704 44.9044C170.704 41.4594 167.907 38.6623 164.462 38.6623C162.4 38.6623 160.48 39.6737 159.318 41.3725L158.386 46.1923L159.476 48.4995Z" fill="#FFD00A"/>
<path d="M153.747 54.3544C153.668 54.7573 153.629 55.1761 153.629 55.6028C153.629 59.0557 156.434 61.8607 159.887 61.8607C161.965 61.8607 163.893 60.8414 165.054 59.1189L165.979 54.3149L164.746 51.9682L159.191 49.4397L153.747 54.3544Z" fill="#20B9AF"/>
<path d="M153.716 44.7858L157.509 45.6787L158.339 41.3646C157.817 40.9695 157.177 40.7483 156.521 40.7483C154.87 40.7483 153.535 42.0915 153.535 43.735C153.535 44.1063 153.598 44.454 153.716 44.7858Z" fill="#EE5096"/>
<path d="M153.384 45.6866C151.693 46.2476 150.516 47.8753 150.516 49.661C150.516 51.3993 151.591 52.9559 153.203 53.5643L158.52 48.7523L157.54 46.6664L153.384 45.6866Z" fill="#12A5DF"/>
<path d="M166.027 59.1189C166.548 59.5219 167.18 59.7352 167.836 59.7352C169.488 59.7352 170.823 58.392 170.823 56.7485C170.823 56.385 170.76 56.0374 170.641 55.7055L166.856 54.8206L166.027 59.1189Z" fill="#90C640"/>
<path d="M166.8 53.8329L170.972 54.8048C172.663 54.2438 173.848 52.624 173.848 50.8304C173.848 49.0921 172.774 47.5435 171.154 46.9272L165.702 51.7075L166.8 53.8329Z" fill="#05799F"/>
</g>
</g>
<g opacity="0.5" filter="url(#filter2_dddd_21075_12534)">
<path d="M222.282 85.0047C222.282 68.0483 236.028 54.3024 252.985 54.3024V54.3024C269.941 54.3024 283.687 68.0483 283.687 85.0047V85.0047C283.687 101.961 269.941 115.707 252.985 115.707V115.707C236.028 115.707 222.282 101.961 222.282 85.0047V85.0047Z" fill="white"/>
<path d="M252.984 54.8688C269.628 54.8688 283.121 68.3609 283.121 85.0045C283.121 101.648 269.628 115.141 252.984 115.141C236.341 115.141 222.849 101.648 222.849 85.0045C222.849 68.361 236.341 54.8689 252.984 54.8688Z" stroke="#CADDFF" stroke-width="1.13256"/>
<g clip-path="url(#clip2_21075_12534)">
<path d="M258.891 78.299C257.132 76.7159 254.816 75.8964 252.453 76.0207C250.09 76.145 247.873 77.2029 246.29 78.9618C244.707 80.7206 243.888 83.0363 244.012 85.3994C244.136 87.7624 245.194 89.9794 246.953 91.5624C247.785 92.3101 248.492 92.6749 249.12 92.6749C250.325 92.6749 251.226 91.3258 252.389 89.6227C253.09 88.5377 253.867 87.5033 254.713 86.5272C255.594 85.5849 256.539 84.705 257.542 83.894C259.037 82.6352 260.213 81.6437 260.233 80.533C260.243 79.8576 259.801 79.1261 258.891 78.299ZM255.002 83.6448C254.428 84.0927 253.89 84.5839 253.391 85.1149C252.908 85.6784 252.467 86.2773 252.073 86.9065C251.479 87.8077 251.058 88.4542 250.495 88.4542C250.296 88.4443 250.108 88.3606 249.967 88.2195C249.124 87.4286 248.624 86.3387 248.574 85.1835C248.525 84.0283 248.931 82.8997 249.704 82.04C250.477 81.1803 251.556 80.6579 252.71 80.5848C253.864 80.5117 255.001 80.8938 255.876 81.6491C256.066 81.7936 256.178 82.014 256.183 82.2506C256.151 82.7021 255.678 83.0994 255.002 83.6466V83.6448Z" fill="#80BC00"/>
<path d="M252.921 72.3626C251.27 72.3619 249.635 72.6864 248.109 73.3176C246.583 73.9488 245.197 74.8744 244.029 76.0414C241.67 78.3984 240.344 81.596 240.342 84.9307C240.341 88.2654 241.664 91.4641 244.021 93.8231C246.378 96.1821 249.576 97.5082 252.91 97.5096C256.245 97.5111 259.444 96.1877 261.803 93.8308C264.162 91.4738 265.488 88.2762 265.489 84.9415C265.491 81.6068 264.167 78.4081 261.81 76.0491C259.453 73.6901 256.256 72.364 252.921 72.3626ZM260.85 92.0681C259.912 93.1094 258.779 93.956 257.515 94.5593C256.251 95.1626 254.88 95.511 253.481 95.5844C252.082 95.6579 250.682 95.455 249.361 94.9874C248.04 94.5198 246.825 93.7966 245.784 92.8591C243.685 90.9648 242.424 88.3154 242.276 85.4921C242.128 82.6688 243.105 79.902 244.995 77.7987C245.925 76.7353 247.058 75.8675 248.327 75.2457C249.596 74.6238 250.976 74.2603 252.386 74.1762C253.797 74.0922 255.21 74.2893 256.544 74.7561C257.878 75.2229 259.106 75.9501 260.156 76.8954C261.207 77.8408 262.059 78.9854 262.663 80.2628C263.267 81.5403 263.612 82.9251 263.676 84.3367C263.741 85.7484 263.524 87.1588 263.039 88.4861C262.554 89.8133 261.809 91.0309 260.85 92.0681Z" fill="#80BC00"/>
</g>
</g>
<g opacity="0.7" filter="url(#filter3_dddd_21075_12534)">
<path d="M204.282 303.45C204.282 286.494 218.028 272.748 234.985 272.748V272.748C251.941 272.748 265.687 286.494 265.687 303.45V303.45C265.687 320.407 251.941 334.152 234.985 334.152V334.152C218.028 334.152 204.282 320.407 204.282 303.45V303.45Z" fill="white"/>
<path d="M234.984 273.314C251.628 273.314 265.121 286.806 265.121 303.45C265.121 320.094 251.628 333.587 234.984 333.587C218.341 333.586 204.849 320.093 204.849 303.45C204.849 286.806 218.341 273.314 234.984 273.314Z" stroke="#CADDFF" stroke-width="1.13256"/>
<g clip-path="url(#clip3_21075_12534)">
<path d="M226.145 290.842C226.148 290.864 226.097 290.887 226.01 290.901C225.547 290.982 225.274 291.072 224.802 291.3C223.912 291.729 223.209 292.432 222.78 293.322C222.549 293.803 222.473 294.033 222.375 294.561C222.333 294.797 222.33 312.123 222.375 312.367C222.487 313.002 222.563 313.238 222.802 313.732C223.024 314.193 223.24 314.496 223.617 314.879C224.111 315.381 224.695 315.749 225.336 315.955C225.491 316.005 225.642 316.056 225.673 316.07C225.704 316.084 229.845 316.089 234.874 316.084C244.909 316.075 244.044 316.089 244.575 315.915C245.715 315.533 246.687 314.657 247.176 313.564C247.227 313.449 247.28 313.333 247.291 313.311C247.314 313.263 247.387 313.016 247.449 312.78C247.471 312.696 247.502 312.547 247.516 312.443C247.53 312.336 247.561 312.246 247.586 312.227C247.623 312.198 247.628 311.294 247.628 303.414C247.628 295.828 247.623 294.631 247.589 294.62C247.564 294.609 247.541 294.547 247.53 294.468C247.505 294.263 247.42 293.96 247.274 293.558C247.21 293.378 247.002 292.991 246.845 292.76C246.527 292.288 246.187 291.937 245.74 291.614C245.485 291.434 245.485 291.432 245.125 291.252C244.788 291.086 244.414 290.951 244.167 290.909C244.1 290.898 244.06 290.875 244.06 290.85C244.06 290.814 242.923 290.808 235.099 290.808C228.019 290.808 226.139 290.816 226.145 290.842ZM229.98 294.702C230.039 294.719 230.042 294.735 230.042 294.952C230.042 295.168 230.039 295.185 229.98 295.202C229.873 295.23 226.996 295.221 226.951 295.191C226.923 295.174 226.906 295.101 226.901 294.963C226.89 294.792 226.895 294.752 226.94 294.721C226.98 294.693 227.283 294.685 228.452 294.685C229.258 294.685 229.943 294.693 229.98 294.702ZM234.292 294.775C234.525 294.867 234.694 294.963 234.818 295.078C234.893 295.148 234.905 295.171 234.871 295.193C234.849 295.207 233.921 295.219 232.677 295.219C230.755 295.219 230.519 295.213 230.48 295.174C230.413 295.109 230.418 294.755 230.486 294.713C230.516 294.693 231.109 294.688 232.317 294.693L234.101 294.702L234.292 294.775H234.292ZM238.357 294.741C238.388 294.772 238.414 294.82 238.414 294.845C238.414 294.873 238.436 294.957 238.461 295.03C238.504 295.148 238.504 295.168 238.47 295.191C238.414 295.227 235.969 295.227 235.913 295.191C235.86 295.157 235.837 294.786 235.885 294.727C235.916 294.69 236.09 294.685 237.11 294.685C238.265 294.685 238.304 294.688 238.357 294.741ZM242.968 294.713C243.013 294.738 243.021 294.775 243.021 294.918C243.021 295.03 243.004 295.115 242.976 295.157L242.934 295.219H241.656C240.538 295.219 240.377 295.213 240.363 295.176C240.338 295.115 240.462 294.744 240.518 294.713C240.582 294.676 242.897 294.676 242.968 294.713ZM230.028 295.893V296.132L228.497 296.14C226.766 296.149 226.895 296.165 226.895 295.918C226.895 295.845 226.906 295.752 226.923 295.713L226.951 295.64L228.488 295.646L230.028 295.654V295.893L230.028 295.893ZM235.306 295.693C235.365 295.758 235.45 296.045 235.427 296.104C235.41 296.14 235.144 296.146 232.949 296.146H230.491L230.463 296.078C230.432 295.994 230.432 295.789 230.466 295.702L230.491 295.64H232.874C235.169 295.64 235.262 295.643 235.306 295.693ZM238.669 295.702C238.723 295.8 238.807 296.095 238.79 296.123C238.782 296.134 238.127 296.146 237.332 296.146C235.705 296.146 235.857 296.171 235.857 295.904C235.857 295.615 235.722 295.64 237.276 295.64H238.636L238.669 295.702V295.702ZM242.993 295.713C243.029 295.806 243.029 296.022 242.993 296.092C242.965 296.143 242.917 296.146 241.498 296.146H240.037L240.051 296.081C240.113 295.837 240.133 295.769 240.172 295.707L240.217 295.64H242.965L242.993 295.713ZM229.129 296.66C229.137 296.694 229.143 296.806 229.137 296.904L229.129 297.087H227.808L227.8 296.879C227.794 296.764 227.797 296.654 227.805 296.632C227.817 296.604 227.952 296.595 228.466 296.595H229.115L229.129 296.66ZM232.677 296.854L232.685 297.101H232.042C231.581 297.101 231.393 297.092 231.368 297.067C231.326 297.025 231.323 296.724 231.362 296.649C231.39 296.598 231.421 296.595 232.031 296.601L232.668 296.609L232.677 296.854V296.854ZM235.45 296.828C235.45 296.991 235.439 297.053 235.408 297.073C235.343 297.115 234.107 297.109 234.065 297.067C234.023 297.025 234.02 296.724 234.059 296.649C234.087 296.598 234.121 296.595 234.77 296.601L235.45 296.609V296.828ZM238.975 296.651C239.023 296.75 239.068 296.899 239.079 296.994L239.094 297.101H237.928C236.61 297.101 236.728 297.123 236.728 296.859C236.728 296.573 236.632 296.592 237.871 296.601C238.801 296.609 238.959 296.615 238.975 296.651ZM242.108 296.848V297.087L240.939 297.095C239.998 297.101 239.765 297.095 239.754 297.064C239.74 297.028 239.838 296.699 239.883 296.629C239.903 296.604 240.144 296.595 241.007 296.601L242.108 296.609V296.848ZM229.109 297.564C229.16 297.581 229.157 297.983 229.103 298.025C229.078 298.048 228.876 298.056 228.438 298.05L227.808 298.042L227.8 297.806C227.794 297.677 227.803 297.562 227.819 297.553C227.848 297.534 229.053 297.545 229.109 297.564ZM235.183 297.581C235.183 297.64 234.905 297.989 234.832 298.022C234.778 298.048 234.309 298.056 233.09 298.056C231.612 298.056 231.418 298.05 231.379 298.011C231.348 297.98 231.334 297.916 231.334 297.795C231.334 297.601 231.351 297.562 231.43 297.548C231.46 297.542 232.317 297.539 233.334 297.545C234.669 297.55 235.183 297.559 235.183 297.581V297.581ZM239.248 297.564C239.282 297.587 239.315 297.649 239.327 297.699C239.36 297.865 239.372 297.888 239.425 297.888C239.478 297.888 239.49 297.865 239.523 297.699C239.532 297.652 239.557 297.595 239.58 297.578C239.619 297.548 242.043 297.534 242.094 297.564C242.125 297.584 242.133 297.941 242.105 298.011C242.091 298.05 242.01 298.056 241.481 298.056C240.959 298.056 240.869 298.05 240.824 298.008C240.796 297.983 240.774 297.946 240.774 297.924C240.774 297.859 240.726 297.885 240.689 297.972L240.656 298.056H239.462C238.695 298.056 238.251 298.045 238.214 298.028C238.183 298.011 238.161 297.969 238.161 297.93C238.161 297.893 238.147 297.854 238.133 297.845C238.105 297.829 238.093 297.848 238.065 297.977L238.048 298.056H237.433C236.708 298.056 236.728 298.062 236.728 297.795C236.728 297.699 236.739 297.604 236.75 297.587C236.767 297.559 237.054 297.55 237.967 297.542C238.622 297.539 239.164 297.534 239.172 297.528C239.181 297.525 239.214 297.542 239.248 297.564ZM229.137 298.733C229.143 298.89 229.134 298.955 229.106 298.98C229.078 299.003 228.887 299.011 228.438 299.006L227.808 298.997L227.8 298.75L227.791 298.506L228.46 298.511L229.129 298.52L229.137 298.733ZM234.888 298.556C234.995 298.646 235.217 298.952 235.197 298.98C235.186 299.003 234.593 299.011 233.287 299.011C231.444 299.011 231.39 299.008 231.362 298.958C231.331 298.896 231.323 298.553 231.354 298.525C231.362 298.514 232.149 298.506 233.101 298.506C234.694 298.508 234.837 298.511 234.888 298.556ZM238.063 298.758V298.997L237.43 299.006C236.86 299.011 236.795 299.008 236.765 298.964C236.725 298.913 236.714 298.556 236.748 298.522C236.759 298.514 237.057 298.508 237.414 298.511L238.062 298.52L238.063 298.758ZM240.507 298.534C240.529 298.57 240.391 298.958 240.346 298.986C240.327 299 239.908 299.011 239.417 299.011H238.526L238.473 298.89C238.411 298.756 238.357 298.587 238.357 298.539C238.357 298.497 240.481 298.492 240.507 298.534ZM242.116 298.75L242.108 298.997L241.518 299.006C241.195 299.008 240.9 299.006 240.866 298.997C240.807 298.983 240.802 298.966 240.802 298.761C240.802 298.64 240.81 298.534 240.821 298.525C240.83 298.514 241.128 298.506 241.481 298.506H242.125L242.116 298.75V298.75ZM229.112 299.472C229.132 299.497 229.143 299.59 229.137 299.719L229.129 299.924L228.488 299.938C228.137 299.947 227.836 299.947 227.822 299.944C227.791 299.933 227.783 299.48 227.814 299.452C227.822 299.441 228.112 299.433 228.454 299.433C228.957 299.433 229.087 299.441 229.112 299.472ZM232.666 299.45C232.702 299.464 232.711 299.511 232.711 299.686C232.711 299.809 232.697 299.916 232.683 299.924C232.666 299.936 232.368 299.941 232.017 299.938C231.548 299.938 231.373 299.927 231.357 299.902C231.345 299.882 231.334 299.789 231.334 299.694C231.334 299.427 231.317 299.433 232.022 299.433C232.351 299.433 232.64 299.441 232.666 299.45V299.45ZM235.413 299.466C235.439 299.489 235.472 299.587 235.492 299.7C235.52 299.877 235.52 299.899 235.475 299.93C235.413 299.975 234.197 299.983 234.113 299.938C234.068 299.913 234.059 299.877 234.059 299.714C234.059 299.424 234.034 299.433 234.759 299.433C235.205 299.433 235.38 299.441 235.413 299.466ZM238.062 299.686V299.924H236.742L236.734 299.736C236.72 299.416 236.683 299.43 237.425 299.438L238.062 299.447V299.686ZM240.181 299.458C240.245 299.497 240.108 299.907 240.018 299.941C239.928 299.978 238.832 299.944 238.787 299.905C238.768 299.888 238.751 299.857 238.751 299.834C238.751 299.809 238.728 299.73 238.703 299.66C238.622 299.424 238.593 299.433 239.417 299.433C239.816 299.433 240.158 299.444 240.181 299.458ZM242.116 299.691C242.122 299.848 242.114 299.938 242.094 299.938H240.858C240.807 299.938 240.802 299.919 240.802 299.702C240.802 299.539 240.813 299.461 240.838 299.452C240.855 299.444 241.15 299.438 241.49 299.441L242.108 299.447L242.116 299.691ZM229.994 300.399C230.033 300.408 230.042 300.444 230.042 300.635C230.042 300.815 230.033 300.863 229.997 300.877C229.972 300.885 229.286 300.894 228.468 300.894C226.78 300.894 226.895 300.91 226.895 300.66C226.895 300.472 226.918 300.393 226.974 300.382C227.041 300.368 229.938 300.385 229.994 300.399H229.994ZM233.034 300.388C234.924 300.388 235.433 300.396 235.444 300.422C235.461 300.472 235.36 300.781 235.304 300.843C235.262 300.891 235.144 300.894 232.89 300.894C230.789 300.894 230.519 300.888 230.48 300.849C230.441 300.809 230.435 300.697 230.46 300.424C230.463 300.388 230.542 300.36 230.598 300.377C230.62 300.382 231.716 300.388 233.034 300.388ZM238.062 300.641V300.879L236.998 300.888C236.194 300.894 235.925 300.885 235.894 300.86C235.843 300.818 235.852 300.424 235.905 300.393C235.922 300.382 236.413 300.379 237.001 300.388L238.062 300.402V300.641ZM239.894 300.467C239.86 300.635 239.821 300.759 239.779 300.823C239.734 300.891 239.72 300.894 239.445 300.894C239.287 300.894 239.144 300.882 239.124 300.871C239.085 300.846 239.04 300.739 238.99 300.548C238.959 300.424 238.959 300.41 239.006 300.393C239.032 300.382 239.248 300.377 239.481 300.382L239.908 300.391L239.894 300.467ZM242.987 300.402C242.999 300.41 243.01 300.506 243.015 300.61C243.032 300.913 243.108 300.894 241.911 300.894C241.349 300.894 240.872 300.885 240.847 300.877C240.81 300.863 240.802 300.815 240.802 300.638C240.802 300.441 240.807 300.41 240.855 300.393C240.922 300.371 242.965 300.377 242.987 300.402ZM230.008 301.368C230.033 301.382 230.042 301.453 230.036 301.613L230.028 301.835L228.497 301.843C227.083 301.849 226.963 301.846 226.932 301.801C226.887 301.739 226.884 301.422 226.929 301.377C226.968 301.337 229.946 301.329 230.008 301.368ZM234.922 301.388C234.933 301.425 234.607 301.652 234.441 301.72C234.149 301.84 234.014 301.849 232.213 301.849C230.542 301.849 230.491 301.846 230.463 301.795C230.424 301.72 230.427 301.419 230.469 301.377C230.517 301.329 234.905 301.34 234.922 301.388ZM238.062 301.596V301.835L236.978 301.843L235.891 301.849L235.874 301.787C235.846 301.675 235.857 301.41 235.891 301.377C235.916 301.351 236.186 301.343 236.995 301.349L238.062 301.357V301.596ZM239.585 301.391C239.596 301.416 239.582 301.498 239.557 301.571C239.532 301.641 239.509 301.722 239.509 301.745C239.509 301.77 239.495 301.798 239.476 301.809C239.436 301.835 239.341 301.722 239.341 301.646C239.341 301.618 239.321 301.554 239.296 301.509C239.231 301.38 239.259 301.343 239.425 301.343C239.532 301.343 239.571 301.354 239.585 301.391ZM242.987 301.377C243.032 301.422 243.029 301.739 242.987 301.801C242.954 301.846 242.861 301.849 241.883 301.843L240.816 301.835L240.807 301.627C240.802 301.512 240.804 301.402 240.813 301.38C240.833 301.329 242.934 301.323 242.987 301.377ZM231.435 306.049C231.573 306.074 231.741 306.113 231.812 306.139C232.118 306.251 232.418 306.535 232.581 306.866C232.699 307.108 232.747 307.302 232.823 307.861C232.862 308.145 232.845 309.355 232.801 309.715C232.744 310.128 232.612 310.538 232.458 310.78C232.205 311.17 231.834 311.378 231.295 311.431C230.944 311.465 229.39 311.462 229.3 311.429L229.227 311.401V308.754C229.227 307.296 229.238 306.091 229.249 306.074C229.261 306.057 229.289 306.035 229.311 306.026C229.334 306.018 229.766 306.009 230.269 306.009C230.974 306.007 231.244 306.018 231.435 306.049ZM235.857 306.071C236.203 306.15 236.377 306.24 236.559 306.431C236.93 306.821 237.003 307.619 236.711 308.114C236.602 308.299 236.475 308.423 236.315 308.507C236.248 308.541 236.194 308.574 236.194 308.58C236.194 308.586 236.287 308.636 236.399 308.69C236.647 308.813 236.759 308.92 236.883 309.139C236.975 309.31 237.065 309.676 237.065 309.878C237.062 310.075 236.961 310.516 236.885 310.673C236.672 311.103 236.225 311.378 235.652 311.429C235.208 311.468 233.573 311.465 233.531 311.423C233.48 311.372 233.483 306.088 233.534 306.037C233.584 305.984 235.604 306.012 235.857 306.071V306.071ZM239.672 306.136C240.206 306.282 240.495 306.557 240.647 307.06C240.712 307.274 240.703 307.878 240.636 308.122C240.509 308.563 240.363 308.777 239.858 309.263C239.113 309.973 238.942 310.15 238.846 310.311C238.79 310.4 238.754 310.493 238.762 310.516C238.776 310.552 238.917 310.558 239.712 310.558C240.251 310.558 240.664 310.569 240.689 310.586C240.723 310.606 240.734 310.69 240.74 310.979C240.748 311.299 240.743 311.356 240.7 311.403C240.656 311.454 240.594 311.457 239.099 311.457C238.158 311.457 237.517 311.446 237.475 311.429C237.408 311.403 237.402 311.389 237.402 311.224C237.402 311.044 237.475 310.662 237.551 310.457C237.59 310.347 237.731 310.069 237.804 309.954C237.981 309.67 238.515 309.1 239.026 308.65C239.296 308.411 239.47 308.147 239.523 307.897C239.574 307.661 239.577 307.38 239.532 307.184C239.467 306.9 239.214 306.757 238.914 306.838C238.644 306.908 238.532 307.099 238.501 307.532C238.487 307.729 238.47 307.816 238.442 307.833C238.419 307.85 238.183 307.858 237.908 307.852L237.416 307.847L237.419 307.524C237.419 307.347 237.436 307.147 237.453 307.083C237.588 306.605 237.922 306.276 238.411 306.144C238.664 306.077 239.445 306.071 239.672 306.136Z" fill="#1296DB"/>
<path d="M230.415 306.88C230.365 306.934 230.362 310.572 230.413 310.603C230.432 310.614 230.567 310.622 230.716 310.62C231.517 310.603 231.668 310.344 231.716 308.928C231.744 308.175 231.663 307.496 231.517 307.217C231.46 307.108 231.306 306.973 231.179 306.92C231.028 306.858 230.463 306.827 230.415 306.88ZM234.635 306.88C234.627 306.903 234.624 307.217 234.627 307.58L234.635 308.24L234.815 308.248C235.07 308.26 235.399 308.187 235.52 308.088C235.697 307.948 235.731 307.855 235.731 307.538C235.731 307.156 235.649 307.015 235.379 306.917C235.202 306.855 234.655 306.827 234.635 306.88L234.635 306.88ZM234.643 309.058C234.629 309.069 234.621 309.423 234.621 309.844C234.621 310.429 234.629 310.611 234.657 310.622C234.705 310.639 235.259 310.597 235.382 310.563C235.711 310.476 235.868 310.237 235.866 309.813C235.866 309.468 235.75 309.246 235.506 309.117C235.413 309.069 235.332 309.055 235.028 309.046C234.829 309.041 234.655 309.044 234.643 309.058Z" fill="#1296DB"/>
</g>
</g>
<g filter="url(#filter4_dddd_21075_12534)">
<path d="M96.2822 308.45C96.2822 291.494 110.028 277.748 126.985 277.748V277.748C143.941 277.748 157.687 291.494 157.687 308.45V308.45C157.687 325.407 143.941 339.152 126.985 339.152V339.152C110.028 339.152 96.2822 325.407 96.2822 308.45V308.45Z" fill="white"/>
<path d="M126.984 278.314C143.628 278.314 157.121 291.806 157.121 308.45C157.121 325.094 143.628 338.587 126.984 338.587C110.341 338.586 96.8486 325.093 96.8486 308.45C96.8488 291.806 110.341 278.314 126.984 278.314Z" stroke="#CADDFF" stroke-width="1.13256"/>
<g clip-path="url(#clip4_21075_12534)">
<path d="M127.56 321.092L126.887 320.862C126.887 320.862 126.969 317.431 125.738 317.184C124.917 316.232 125.87 276.795 128.825 317.053C128.825 317.053 127.806 317.563 127.626 318.432C127.429 319.286 127.56 321.092 127.56 321.092Z" fill="white"/>
<path d="M127.56 321.092L126.887 320.862C126.887 320.862 126.969 317.431 125.738 317.184C124.917 316.232 125.87 276.795 128.825 317.053C128.825 317.053 127.806 317.563 127.626 318.432C127.429 319.286 127.56 321.092 127.56 321.092Z" fill="#A6A385"/>
<path d="M127.921 317.776C127.921 317.776 133.815 313.901 132.436 305.839C131.106 299.978 127.97 298.057 127.627 297.319C127.248 296.792 126.887 295.874 126.887 295.874L127.133 312.177C127.133 312.193 126.623 317.169 127.921 317.776" fill="white"/>
<path d="M127.921 317.776C127.921 317.776 133.815 313.901 132.436 305.839C131.106 299.978 127.97 298.057 127.627 297.319C127.248 296.792 126.887 295.874 126.887 295.874L127.133 312.177C127.133 312.193 126.623 317.169 127.921 317.776" fill="#499D4A"/>
<path d="M126.543 317.989C126.543 317.989 121.01 314.213 121.338 307.564C121.652 300.914 125.558 297.647 126.313 297.056C126.805 296.53 126.823 296.333 126.855 295.808C127.2 296.547 127.134 306.857 127.183 308.072C127.331 312.751 126.92 317.102 126.543 317.989Z" fill="white"/>
<path d="M126.543 317.989C126.543 317.989 121.01 314.213 121.338 307.564C121.652 300.914 125.558 297.647 126.313 297.056C126.805 296.53 126.823 296.333 126.855 295.808C127.2 296.547 127.134 306.857 127.183 308.072C127.331 312.751 126.92 317.102 126.543 317.989Z" fill="#58AA50"/>
</g>
</g>
<circle cx="110.832" cy="129.151" r="4.08244" fill="white" stroke="#EE5096" stroke-width="1.16641"/>
<circle cx="122.496" cy="232.962" r="4.08244" fill="white" stroke="#0037FF" stroke-width="1.16641"/>
<circle cx="190.149" cy="343.771" r="4.08244" fill="white" stroke="#58AA50" stroke-width="1.16641"/>
<path d="M87.5039 166.949C87.5039 166.949 119.58 169.128 132.411 143.467" stroke="url(#paint3_linear_21075_12534)" stroke-width="2" stroke-linecap="round"/>
<defs>
<filter id="filter0_dddd_21075_12534" x="103.28" y="169.822" width="86.6891" height="101.137" filterUnits="userSpaceOnUse" color-interpolation-filters="sRGB">
<feFlood flood-opacity="0" result="BackgroundImageFix"/>
<feColorMatrix in="SourceAlpha" type="matrix" values="0 0 0 0 0 0 0 0 0 0 0 0 0 0 0 0 0 0 127 0" result="hardAlpha"/>
<feOffset dy="1.80602"/>
<feGaussianBlur stdDeviation="1.80602"/>
<feColorMatrix type="matrix" values="0 0 0 0 0.301961 0 0 0 0 0.603922 0 0 0 0 1 0 0 0 0.1 0"/>
<feBlend mode="normal" in2="BackgroundImageFix" result="effect1_dropShadow_21075_12534"/>
<feColorMatrix in="SourceAlpha" type="matrix" values="0 0 0 0 0 0 0 0 0 0 0 0 0 0 0 0 0 0 127 0" result="hardAlpha"/>
<feOffset dx="-1.80602" dy="7.22409"/>
<feGaussianBlur stdDeviation="3.61204"/>
<feColorMatrix type="matrix" values="0 0 0 0 0.301961 0 0 0 0 0.603922 0 0 0 0 1 0 0 0 0.09 0"/>
<feBlend mode="normal" in2="effect1_dropShadow_21075_12534" result="effect2_dropShadow_21075_12534"/>
<feColorMatrix in="SourceAlpha" type="matrix" values="0 0 0 0 0 0 0 0 0 0 0 0 0 0 0 0 0 0 127 0" result="hardAlpha"/>
<feOffset dx="-5.41807" dy="14.4482"/>
<feGaussianBlur stdDeviation="4.51505"/>
<feColorMatrix type="matrix" values="0 0 0 0 0.301961 0 0 0 0 0.603922 0 0 0 0 1 0 0 0 0.05 0"/>
<feBlend mode="normal" in2="effect2_dropShadow_21075_12534" result="effect3_dropShadow_21075_12534"/>
<feColorMatrix in="SourceAlpha" type="matrix" values="0 0 0 0 0 0 0 0 0 0 0 0 0 0 0 0 0 0 127 0" result="hardAlpha"/>
<feOffset dx="-9.03011" dy="27.0903"/>
<feGaussianBlur stdDeviation="5.41807"/>
<feColorMatrix type="matrix" values="0 0 0 0 0.301961 0 0 0 0 0.603922 0 0 0 0 1 0 0 0 0.01 0"/>
<feBlend mode="normal" in2="effect3_dropShadow_21075_12534" result="effect4_dropShadow_21075_12534"/>
<feBlend mode="normal" in="SourceGraphic" in2="effect4_dropShadow_21075_12534" result="shape"/>
</filter>
<filter id="filter1_dddd_21075_12534" x="111.61" y="17.7847" width="86.6891" height="101.137" filterUnits="userSpaceOnUse" color-interpolation-filters="sRGB">
<feFlood flood-opacity="0" result="BackgroundImageFix"/>
<feColorMatrix in="SourceAlpha" type="matrix" values="0 0 0 0 0 0 0 0 0 0 0 0 0 0 0 0 0 0 127 0" result="hardAlpha"/>
<feOffset dy="1.80602"/>
<feGaussianBlur stdDeviation="1.80602"/>
<feColorMatrix type="matrix" values="0 0 0 0 0.301961 0 0 0 0 0.603922 0 0 0 0 1 0 0 0 0.1 0"/>
<feBlend mode="normal" in2="BackgroundImageFix" result="effect1_dropShadow_21075_12534"/>
<feColorMatrix in="SourceAlpha" type="matrix" values="0 0 0 0 0 0 0 0 0 0 0 0 0 0 0 0 0 0 127 0" result="hardAlpha"/>
<feOffset dx="-1.80602" dy="7.22409"/>
<feGaussianBlur stdDeviation="3.61204"/>
<feColorMatrix type="matrix" values="0 0 0 0 0.301961 0 0 0 0 0.603922 0 0 0 0 1 0 0 0 0.09 0"/>
<feBlend mode="normal" in2="effect1_dropShadow_21075_12534" result="effect2_dropShadow_21075_12534"/>
<feColorMatrix in="SourceAlpha" type="matrix" values="0 0 0 0 0 0 0 0 0 0 0 0 0 0 0 0 0 0 127 0" result="hardAlpha"/>
<feOffset dx="-5.41807" dy="14.4482"/>
<feGaussianBlur stdDeviation="4.51505"/>
<feColorMatrix type="matrix" values="0 0 0 0 0.301961 0 0 0 0 0.603922 0 0 0 0 1 0 0 0 0.05 0"/>
<feBlend mode="normal" in2="effect2_dropShadow_21075_12534" result="effect3_dropShadow_21075_12534"/>
<feColorMatrix in="SourceAlpha" type="matrix" values="0 0 0 0 0 0 0 0 0 0 0 0 0 0 0 0 0 0 127 0" result="hardAlpha"/>
<feOffset dx="-9.03011" dy="27.0903"/>
<feGaussianBlur stdDeviation="5.41807"/>
<feColorMatrix type="matrix" values="0 0 0 0 0.301961 0 0 0 0 0.603922 0 0 0 0 1 0 0 0 0.01 0"/>
<feBlend mode="normal" in2="effect3_dropShadow_21075_12534" result="effect4_dropShadow_21075_12534"/>
<feBlend mode="normal" in="SourceGraphic" in2="effect4_dropShadow_21075_12534" result="shape"/>
</filter>
<filter id="filter2_dddd_21075_12534" x="202.416" y="52.4963" width="86.6891" height="101.137" filterUnits="userSpaceOnUse" color-interpolation-filters="sRGB">
<feFlood flood-opacity="0" result="BackgroundImageFix"/>
<feColorMatrix in="SourceAlpha" type="matrix" values="0 0 0 0 0 0 0 0 0 0 0 0 0 0 0 0 0 0 127 0" result="hardAlpha"/>
<feOffset dy="1.80602"/>
<feGaussianBlur stdDeviation="1.80602"/>
<feColorMatrix type="matrix" values="0 0 0 0 0.301961 0 0 0 0 0.603922 0 0 0 0 1 0 0 0 0.1 0"/>
<feBlend mode="normal" in2="BackgroundImageFix" result="effect1_dropShadow_21075_12534"/>
<feColorMatrix in="SourceAlpha" type="matrix" values="0 0 0 0 0 0 0 0 0 0 0 0 0 0 0 0 0 0 127 0" result="hardAlpha"/>
<feOffset dx="-1.80602" dy="7.22409"/>
<feGaussianBlur stdDeviation="3.61204"/>
<feColorMatrix type="matrix" values="0 0 0 0 0.301961 0 0 0 0 0.603922 0 0 0 0 1 0 0 0 0.09 0"/>
<feBlend mode="normal" in2="effect1_dropShadow_21075_12534" result="effect2_dropShadow_21075_12534"/>
<feColorMatrix in="SourceAlpha" type="matrix" values="0 0 0 0 0 0 0 0 0 0 0 0 0 0 0 0 0 0 127 0" result="hardAlpha"/>
<feOffset dx="-5.41807" dy="14.4482"/>
<feGaussianBlur stdDeviation="4.51505"/>
<feColorMatrix type="matrix" values="0 0 0 0 0.301961 0 0 0 0 0.603922 0 0 0 0 1 0 0 0 0.05 0"/>
<feBlend mode="normal" in2="effect2_dropShadow_21075_12534" result="effect3_dropShadow_21075_12534"/>
<feColorMatrix in="SourceAlpha" type="matrix" values="0 0 0 0 0 0 0 0 0 0 0 0 0 0 0 0 0 0 127 0" result="hardAlpha"/>
<feOffset dx="-9.03011" dy="27.0903"/>
<feGaussianBlur stdDeviation="5.41807"/>
<feColorMatrix type="matrix" values="0 0 0 0 0.301961 0 0 0 0 0.603922 0 0 0 0 1 0 0 0 0.01 0"/>
<feBlend mode="normal" in2="effect3_dropShadow_21075_12534" result="effect4_dropShadow_21075_12534"/>
<feBlend mode="normal" in="SourceGraphic" in2="effect4_dropShadow_21075_12534" result="shape"/>
</filter>
<filter id="filter3_dddd_21075_12534" x="184.416" y="270.942" width="86.6891" height="101.137" filterUnits="userSpaceOnUse" color-interpolation-filters="sRGB">
<feFlood flood-opacity="0" result="BackgroundImageFix"/>
<feColorMatrix in="SourceAlpha" type="matrix" values="0 0 0 0 0 0 0 0 0 0 0 0 0 0 0 0 0 0 127 0" result="hardAlpha"/>
<feOffset dy="1.80602"/>
<feGaussianBlur stdDeviation="1.80602"/>
<feColorMatrix type="matrix" values="0 0 0 0 0.301961 0 0 0 0 0.603922 0 0 0 0 1 0 0 0 0.1 0"/>
<feBlend mode="normal" in2="BackgroundImageFix" result="effect1_dropShadow_21075_12534"/>
<feColorMatrix in="SourceAlpha" type="matrix" values="0 0 0 0 0 0 0 0 0 0 0 0 0 0 0 0 0 0 127 0" result="hardAlpha"/>
<feOffset dx="-1.80602" dy="7.22409"/>
<feGaussianBlur stdDeviation="3.61204"/>
<feColorMatrix type="matrix" values="0 0 0 0 0.301961 0 0 0 0 0.603922 0 0 0 0 1 0 0 0 0.09 0"/>
<feBlend mode="normal" in2="effect1_dropShadow_21075_12534" result="effect2_dropShadow_21075_12534"/>
<feColorMatrix in="SourceAlpha" type="matrix" values="0 0 0 0 0 0 0 0 0 0 0 0 0 0 0 0 0 0 127 0" result="hardAlpha"/>
<feOffset dx="-5.41807" dy="14.4482"/>
<feGaussianBlur stdDeviation="4.51505"/>
<feColorMatrix type="matrix" values="0 0 0 0 0.301961 0 0 0 0 0.603922 0 0 0 0 1 0 0 0 0.05 0"/>
<feBlend mode="normal" in2="effect2_dropShadow_21075_12534" result="effect3_dropShadow_21075_12534"/>
<feColorMatrix in="SourceAlpha" type="matrix" values="0 0 0 0 0 0 0 0 0 0 0 0 0 0 0 0 0 0 127 0" result="hardAlpha"/>
<feOffset dx="-9.03011" dy="27.0903"/>
<feGaussianBlur stdDeviation="5.41807"/>
<feColorMatrix type="matrix" values="0 0 0 0 0.301961 0 0 0 0 0.603922 0 0 0 0 1 0 0 0 0.01 0"/>
<feBlend mode="normal" in2="effect3_dropShadow_21075_12534" result="effect4_dropShadow_21075_12534"/>
<feBlend mode="normal" in="SourceGraphic" in2="effect4_dropShadow_21075_12534" result="shape"/>
</filter>
<filter id="filter4_dddd_21075_12534" x="76.416" y="275.942" width="86.6891" height="101.137" filterUnits="userSpaceOnUse" color-interpolation-filters="sRGB">
<feFlood flood-opacity="0" result="BackgroundImageFix"/>
<feColorMatrix in="SourceAlpha" type="matrix" values="0 0 0 0 0 0 0 0 0 0 0 0 0 0 0 0 0 0 127 0" result="hardAlpha"/>
<feOffset dy="1.80602"/>
<feGaussianBlur stdDeviation="1.80602"/>
<feColorMatrix type="matrix" values="0 0 0 0 0.301961 0 0 0 0 0.603922 0 0 0 0 1 0 0 0 0.1 0"/>
<feBlend mode="normal" in2="BackgroundImageFix" result="effect1_dropShadow_21075_12534"/>
<feColorMatrix in="SourceAlpha" type="matrix" values="0 0 0 0 0 0 0 0 0 0 0 0 0 0 0 0 0 0 127 0" result="hardAlpha"/>
<feOffset dx="-1.80602" dy="7.22409"/>
<feGaussianBlur stdDeviation="3.61204"/>
<feColorMatrix type="matrix" values="0 0 0 0 0.301961 0 0 0 0 0.603922 0 0 0 0 1 0 0 0 0.09 0"/>
<feBlend mode="normal" in2="effect1_dropShadow_21075_12534" result="effect2_dropShadow_21075_12534"/>
<feColorMatrix in="SourceAlpha" type="matrix" values="0 0 0 0 0 0 0 0 0 0 0 0 0 0 0 0 0 0 127 0" result="hardAlpha"/>
<feOffset dx="-5.41807" dy="14.4482"/>
<feGaussianBlur stdDeviation="4.51505"/>
<feColorMatrix type="matrix" values="0 0 0 0 0.301961 0 0 0 0 0.603922 0 0 0 0 1 0 0 0 0.05 0"/>
<feBlend mode="normal" in2="effect2_dropShadow_21075_12534" result="effect3_dropShadow_21075_12534"/>
<feColorMatrix in="SourceAlpha" type="matrix" values="0 0 0 0 0 0 0 0 0 0 0 0 0 0 0 0 0 0 127 0" result="hardAlpha"/>
<feOffset dx="-9.03011" dy="27.0903"/>
<feGaussianBlur stdDeviation="5.41807"/>
<feColorMatrix type="matrix" values="0 0 0 0 0.301961 0 0 0 0 0.603922 0 0 0 0 1 0 0 0 0.01 0"/>
<feBlend mode="normal" in2="effect3_dropShadow_21075_12534" result="effect4_dropShadow_21075_12534"/>
<feBlend mode="normal" in="SourceGraphic" in2="effect4_dropShadow_21075_12534" result="shape"/>
</filter>
<linearGradient id="paint0_linear_21075_12534" x1="141.516" y1="191.6" x2="270.87" y2="191.6" gradientUnits="userSpaceOnUse">
<stop stop-color="#D9D9D9"/>
<stop offset="1" stop-color="#737373" stop-opacity="0"/>
</linearGradient>
<linearGradient id="paint1_linear_21075_12534" x1="168.992" y1="112.479" x2="156.76" y2="146.505" gradientUnits="userSpaceOnUse">
<stop offset="0.0192308" stop-color="#FBE1C8" stop-opacity="0"/>
<stop offset="0.451923" stop-color="#FBE5C8"/>
<stop offset="1" stop-color="#FF9625"/>
</linearGradient>
<linearGradient id="paint2_linear_21075_12534" x1="168.911" y1="269.642" x2="155.699" y2="235.983" gradientUnits="userSpaceOnUse">
<stop offset="0.0192308" stop-color="#C8F0FB" stop-opacity="0"/>
<stop offset="0.451923" stop-color="#C8F3FB"/>
<stop offset="1" stop-color="#58B5E6"/>
</linearGradient>
<linearGradient id="paint3_linear_21075_12534" x1="87.5039" y1="166.365" x2="123.663" y2="166.365" gradientUnits="userSpaceOnUse">
<stop stop-color="#2533FF"/>
<stop offset="0.548077" stop-color="#C8DEFB"/>
<stop offset="0.980769" stop-color="#C8DEFB" stop-opacity="0"/>
</linearGradient>
<clipPath id="clip0_21075_12534">
<rect width="25.2843" height="25.2843" fill="white" transform="translate(141.206 189.688)"/>
</clipPath>
<clipPath id="clip1_21075_12534">
<rect width="25.2843" height="25.2843" fill="white" transform="translate(149.536 37.6509)"/>
</clipPath>
<clipPath id="clip2_21075_12534">
<rect width="25.2843" height="25.2843" fill="white" transform="translate(240.342 72.3626)"/>
</clipPath>
<clipPath id="clip3_21075_12534">
<rect x="222.342" y="290.808" width="25.2843" height="25.2843" rx="12.6422" fill="white"/>
</clipPath>
<clipPath id="clip4_21075_12534">
<rect width="25.2843" height="25.2843" fill="white" transform="translate(114.342 295.808)"/>
</clipPath>
</defs>
</svg>
