<svg width="268" height="373" viewBox="0 0 268 373" fill="none" xmlns="http://www.w3.org/2000/svg">
<mask id="mask0_21075_12536" style="mask-type:alpha" maskUnits="userSpaceOnUse" x="-41" y="-17" width="309" height="378">
<rect width="308.76" height="377.58" transform="matrix(-1 0 0 1 267.76 -17)" fill="url(#paint0_linear_21075_12536)"/>
</mask>
<g mask="url(#mask0_21075_12536)">
<path d="M312.4 144.316L221.496 144.316C202.614 144.316 193.173 144.316 185.092 141.197C177.954 138.442 171.607 133.969 166.612 128.174C160.957 121.613 157.781 112.721 151.43 94.9392L149.499 89.5323C143.149 71.75 139.973 62.8589 134.318 56.2977C129.323 50.5025 122.976 46.0292 115.838 43.2745C107.757 40.1558 98.3163 40.1558 79.4339 40.1558L-26.1194 40.1558" stroke="#B1CEF8" stroke-opacity="0.8" stroke-width="2" stroke-linecap="round"/>
<path d="M312.4 162.916L202.896 162.916C184.014 162.916 174.572 162.916 166.492 159.797C159.354 157.042 153.006 152.569 148.012 146.774C142.357 140.213 139.181 131.322 132.83 113.539L130.899 108.132C124.549 90.3502 121.373 81.459 115.718 74.8979C110.723 69.1027 104.376 64.6294 97.2383 61.8747C89.1574 58.7559 79.7162 58.7559 60.8339 58.7559L-7.51953 58.7559" stroke="#0861E7" stroke-opacity="0.1" stroke-width="2" stroke-linecap="round" stroke-linejoin="round"/>
<path d="M258.779 181.516L184.296 181.516C165.413 181.516 155.972 181.516 147.891 178.397C140.754 175.642 134.406 171.169 129.411 165.374C123.756 158.813 120.581 149.921 114.23 132.139L112.299 126.732C105.948 108.95 102.773 100.059 97.118 93.4977C92.1231 87.7025 85.7756 83.2293 78.638 80.4746C70.5571 77.3558 61.116 77.3558 42.2336 77.3558L-26.1197 77.3558" stroke="#B1CEF8" stroke-opacity="0.8" stroke-width="2" stroke-linecap="round"/>
<path d="M312.4 236.212L221.496 236.212C202.614 236.212 193.173 236.212 185.092 239.33C177.954 242.085 171.607 246.558 166.612 252.354C160.957 258.915 157.781 267.806 151.43 285.588L149.499 290.995C143.149 308.777 139.973 317.668 134.318 324.23C129.323 330.025 122.976 334.498 115.838 337.253C107.757 340.372 98.3169 340.372 79.4359 340.372C43.3939 340.372 5.04182 340.372 -26.1194 340.372" stroke="#B1CEF8" stroke-opacity="0.8" stroke-width="2" stroke-linecap="round"/>
<path d="M312.4 217.612L202.896 217.612C184.014 217.612 174.572 217.612 166.492 220.731C159.354 223.486 153.006 227.959 148.012 233.754C142.357 240.315 139.181 249.206 132.83 266.989L130.899 272.396C124.549 290.178 121.373 299.069 115.718 305.63C110.723 311.425 104.376 315.899 97.2383 318.653C89.1574 321.772 79.7162 321.772 60.8339 321.772L-7.51953 321.772" stroke="#0861E7" stroke-opacity="0.1" stroke-width="2" stroke-linecap="round"/>
<path d="M312.4 199.012L184.296 199.012C165.414 199.012 155.973 199.012 147.892 202.131C140.754 204.885 134.407 209.359 129.412 215.154C123.757 221.715 120.581 230.606 114.231 248.388L112.299 253.795C105.949 271.578 102.773 280.469 97.1183 287.03C92.1234 292.825 85.7759 297.298 78.6383 300.053C70.5574 303.172 61.1163 303.172 42.234 303.172L-26.1194 303.172" stroke="#B1CEF8" stroke-opacity="0.8" stroke-width="2" stroke-linecap="round"/>
<path d="M118.392 237.776C123.876 214.195 140.876 205.421 140.876 205.421" stroke="url(#paint1_linear_21075_12536)" stroke-width="2" stroke-linecap="round"/>
</g>
<g filter="url(#filter0_dddd_21075_12536)">
<path d="M66.2632 44.3873C66.2632 29.1224 78.6379 16.7477 93.9028 16.7477V16.7477C109.168 16.7477 121.542 29.1224 121.542 44.3873V44.3873C121.542 59.6522 109.168 72.0269 93.9028 72.0269V72.0269C78.6379 72.0269 66.2632 59.6522 66.2632 44.3873V44.3873Z" fill="white"/>
<path d="M93.9028 17.401C108.807 17.401 120.889 29.4831 120.889 44.3873C120.889 59.2916 108.807 71.3736 93.9028 71.3737C78.9986 71.3737 66.9165 59.2916 66.9165 44.3873C66.9165 29.4831 78.9986 17.401 93.9028 17.401Z" stroke="#CADDFF" stroke-width="1.30607"/>
<path d="M95.3241 31.3358C96.0082 31.4031 96.6833 31.5242 97.3158 31.8068C98.3521 32.2711 99.256 32.9417 100.001 33.8165C100.696 34.6307 101.245 35.5502 101.647 36.5618C101.712 36.7233 101.757 36.8915 101.82 37.0889C101.373 37.0665 100.963 37.0328 100.552 37.1046C100.492 37.1158 100.427 37.1203 100.366 37.1315C99.312 37.3401 98.7064 38.0735 98.6661 39.1995C98.6392 39.9419 98.8051 40.6484 99.0249 41.3482C99.33 42.3014 99.7516 43.1986 100.187 44.0935C100.413 44.56 100.635 45.0288 100.848 45.5043C101.019 45.8901 101.284 46.231 101.506 46.5943C101.55 46.6639 101.622 46.7155 101.631 46.8119C101.613 46.8276 101.595 46.8523 101.573 46.8612C100.86 47.108 100.622 47.7023 100.577 48.4089C100.432 50.4269 100.216 52.4392 99.9311 54.4423C99.8526 55.0322 99.7068 55.5996 99.4376 56.1245C99.3394 56.3138 99.199 56.478 99.0272 56.6044C98.3296 57.1248 97.5581 57.4052 96.6946 57.4029C95.8624 57.4007 95.36 56.8646 95.0124 56.0953C94.6715 55.3462 94.6737 54.5275 94.6244 53.7268C94.5189 52.0132 94.5571 50.2951 94.566 48.5793C94.5789 48.2677 94.5098 47.9581 94.3658 47.6815C94.2218 47.4049 94.0078 47.1708 93.7451 47.0025C93.5096 46.8455 93.2382 46.8321 92.9511 46.8411C93.0633 46.2803 93.2203 45.7488 93.4513 45.2576C94.4539 43.1021 94.4001 40.8727 93.8326 38.641C93.5747 37.6227 92.9153 37.1517 91.7916 37.2033C91.0835 37.2145 90.3939 37.4311 89.8066 37.8268C89.7528 37.8672 89.6922 37.921 89.589 37.8806C89.5688 37.5038 89.6473 37.127 89.7079 36.7524C89.8806 35.6646 90.1789 34.6127 90.7217 33.6595C91.7602 31.8337 93.3414 31.1384 95.3241 31.3358ZM93.5545 47.7517C93.8685 48.0298 93.9223 48.512 93.6801 48.8574C92.8906 49.9789 91.482 50.3736 90.2776 49.8107C90.2215 49.786 90.1722 49.7501 90.0712 49.6918C90.4077 49.5348 90.7217 49.4899 91.02 49.4047C91.6076 49.2387 92.128 48.9494 92.4846 48.4044C92.6192 48.1958 92.756 47.9917 92.9108 47.8055C93.1171 47.5588 93.3235 47.5476 93.5545 47.7517ZM88.0145 31.6723C88.813 31.6992 89.6047 31.8517 90.383 32.058C90.6611 32.1321 90.9034 32.2823 91.2084 32.3877C90.9864 32.6973 90.7576 32.9552 90.5692 33.2558C89.7954 34.4983 89.441 35.8844 89.2302 37.3244C89.0956 38.2305 89.0866 39.1411 89.1337 40.054C89.1875 41.0701 89.1337 42.0816 89.0395 43.0932C88.9117 44.4254 89.2032 45.6299 90.0937 46.637C90.1722 46.7267 90.235 46.8298 90.3157 46.942C90.0914 47.2425 89.8335 47.5296 89.5935 47.8257C89.0866 48.447 88.6066 49.0907 88.1087 49.7165C87.7274 50.1942 87.0657 50.1695 86.671 49.6896C85.7245 48.5345 85.2512 47.1416 84.7825 45.7398C84.412 44.6188 84.1027 43.4784 83.8561 42.3238C83.4793 40.5744 83.0532 38.8316 83.0622 37.0194C83.0666 35.9383 83.199 34.8751 83.6588 33.8927C83.9415 33.2796 84.3828 32.753 84.9372 32.3676C85.8837 31.7037 86.9379 31.6341 88.0123 31.6723H88.0145ZM102.028 47.5655C102.578 47.9289 103.188 47.9513 103.807 47.9132C104.233 47.8863 104.657 47.819 105.083 47.7427C104.545 48.2765 103.937 48.6488 103.206 48.7677C102.649 48.8574 102.093 48.9113 101.533 48.8305C101.158 48.7789 101.129 48.7229 101.167 48.3214C101.219 47.8167 101.342 47.6642 101.781 47.5364C101.873 47.5094 101.945 47.5117 102.028 47.5655ZM91.9643 37.9659C92.2917 37.9546 92.608 38.0085 92.8704 38.2552C93.0354 38.4196 93.1452 38.6312 93.1844 38.8608C93.467 40.1908 93.6442 41.5298 93.4154 42.898C93.3084 43.4836 93.1385 44.0558 92.9085 44.6049C92.6775 45.1813 92.4756 45.7712 92.3321 46.379C92.2917 46.545 92.2312 46.6123 92.0629 46.5921C91.2555 46.4912 90.6611 46.0269 90.1991 45.3406C89.5756 44.421 89.506 43.3892 89.6496 42.3081C89.7258 41.7041 89.7409 41.0939 89.6944 40.4869V39.1097C89.6922 38.9976 89.6877 38.8989 89.7909 38.8137C90.4324 38.2844 91.1568 37.9973 91.9643 37.9659ZM103.544 32.067C104.374 32.5313 105.074 33.1862 105.61 33.9982C105.825 34.3256 105.864 34.7383 105.884 35.1331C105.944 36.25 105.803 37.3491 105.574 38.4346C105.188 40.2648 104.61 42.03 103.865 43.7369C103.504 44.5667 103.105 45.3742 102.681 46.1659C102.636 46.2512 102.602 46.3588 102.497 46.3925C102.398 46.3364 102.412 46.2646 102.454 46.1772C103.011 45.1028 103.076 43.941 102.923 42.7747C102.765 41.4673 102.786 40.1445 102.986 38.8428C103.098 38.0376 103.022 37.2571 102.681 36.5057C102.343 35.7236 101.928 34.9768 101.443 34.2763C100.913 33.5419 100.29 32.8792 99.5902 32.3048C99.2201 31.9975 98.8051 31.7889 98.3655 31.5197C98.7535 31.3964 99.1124 31.3695 99.4713 31.3403C100.887 31.2259 102.27 31.356 103.544 32.067ZM101.707 37.8829C101.757 38.1969 101.703 38.4885 101.658 38.7666C101.478 39.972 101.469 41.1969 101.633 42.4046C101.71 43.0461 101.723 43.692 101.611 44.3357C101.57 44.5802 101.497 44.8184 101.396 45.0445C101.245 44.883 101.194 44.6923 101.118 44.5219C100.734 43.6516 100.283 42.8173 99.9423 41.9246C99.6283 41.1104 99.3367 40.2873 99.3053 39.3901C99.2739 38.4122 99.6328 37.9816 100.534 37.8582C100.922 37.8066 101.301 37.8358 101.707 37.8806V37.8829ZM92.0854 38.3763C92.0024 38.392 91.8858 38.3987 91.7803 38.4369C91.5852 38.5019 91.5224 38.6634 91.5897 38.8563C91.6289 38.9871 91.7034 39.1045 91.8052 39.1955C91.9069 39.2866 92.0318 39.3477 92.1661 39.3722C92.4285 39.4238 92.6483 39.3139 92.8211 39.103C92.9265 38.9797 92.9332 38.8451 92.8345 38.6993C92.6551 38.4234 92.3814 38.4189 92.0854 38.3763ZM100.631 38.1969C100.423 38.1846 100.216 38.2296 100.032 38.327C99.7808 38.466 99.7629 38.6814 99.9782 38.881C100.225 39.1053 100.53 39.1142 100.792 38.9056C100.956 38.7778 101.093 38.6096 101.032 38.3898C100.97 38.17 100.754 38.2126 100.631 38.1969Z" fill="#326192"/>
</g>
<g opacity="0.89" filter="url(#filter1_dddd_21075_12536)">
<path d="M84.2637 137.818C84.2637 120.861 98.0096 107.115 114.966 107.115V107.115C131.922 107.115 145.668 120.861 145.668 137.818V137.818C145.668 154.774 131.922 168.52 114.966 168.52V168.52C98.0096 168.52 84.2637 154.774 84.2637 137.818V137.818Z" fill="white"/>
<path d="M114.966 107.742C131.576 107.742 145.042 121.207 145.042 137.817C145.042 154.428 131.576 167.894 114.966 167.894C98.3555 167.893 84.8906 154.428 84.8906 137.817C84.8907 121.207 98.3556 107.742 114.966 107.742Z" stroke="#CADDFF" stroke-width="1.25316"/>
<g clip-path="url(#clip0_21075_12536)">
<path d="M110.12 138.212C110.12 138.212 109.774 137.664 109.409 137.538C109.044 137.412 107.781 136.388 107.762 135.661C107.762 135.661 107.772 135.561 109.258 136.519C110.743 137.477 112.746 138.662 113.508 138.866C114.27 139.07 115.531 139.288 116.245 139.161C116.661 139.087 117.496 138.584 117.81 138.536C118.125 138.488 119.357 138.171 120.293 138.6C121.228 139.028 121.426 140.329 123.068 140.803C124.237 141.139 125.893 140.669 126.059 140.627C126.225 140.586 126.902 140.249 127.653 140.996C128.404 141.742 130.266 143.954 131.296 144.24C132.326 144.525 132.241 144.171 132.241 144.171L131.428 143.865C131.428 143.865 131.447 143.529 130.717 143.285C129.987 143.041 128.426 139.805 128.265 139.641C128.104 139.476 127.747 139.558 127.545 139.558C127.342 139.558 125.255 139.202 125.348 138.193C125.422 137.432 125.335 136.664 125.093 135.939C124.971 135.595 124.971 135.22 125.093 134.877C125.195 134.582 125.531 133.951 124.605 132.964C124.605 132.964 125.121 134.198 124.391 134.729C124.198 134.831 123.414 134.502 122.797 134.332C122.18 134.161 121.243 133.763 119.105 134.259C118.566 134.456 117.661 135.078 116.838 134.506C116.015 133.933 113.838 131.955 112.832 131.795C112.832 131.795 113.972 130.153 114.174 129.624C114.377 129.095 114.42 128.135 114.193 126.83C114.099 126.57 114.984 126.026 115.566 125.956C116.797 125.817 118.035 125.746 119.274 125.744C120.465 125.776 121.734 125.519 122.182 124.591C121.96 124.725 121.225 125.569 117.861 125.264C114.498 124.96 115.115 125.039 114.514 125.203C113.913 125.368 112.967 125.969 109.846 126.541C109.208 126.692 108.808 126.877 108.91 127.754C109.215 127.855 109.154 127.836 109.288 127.764C109.422 127.692 109.643 127.486 110.852 127.887C112.06 128.287 111.869 128.132 111.869 128.132C111.869 128.132 111.95 128.722 111.107 129.109C110.264 129.497 109.796 129.884 109.258 131.287C108.719 132.69 109.297 134.147 109.307 134.262C109.312 134.358 109.312 134.454 109.307 134.55C109.307 134.55 106.119 133.468 105.596 133.195C105.169 133.055 104.784 133.862 104.813 134.156C104.842 134.451 105.159 134.812 106.053 135.37C106.948 135.928 107.914 136.993 108.048 137.463C108.182 137.933 109.076 138.348 109.553 138.338C110.029 138.328 110.12 138.212 110.12 138.212ZM105.003 148.448H105.022L106.935 146.363H107.802L105.73 148.573L107.85 150.98H106.972L105.022 148.704H105.003V150.98H104.247V146.357H105.003V148.442V148.448ZM111.797 150.736C111.502 150.943 111.064 151.044 110.479 151.044C109.894 151.044 109.457 150.943 109.162 150.736C109.013 150.627 108.894 150.483 108.817 150.315C108.74 150.148 108.706 149.963 108.72 149.78V146.363H109.495V149.652C109.495 149.988 109.578 150.231 109.742 150.369C109.96 150.526 110.227 150.6 110.495 150.577C110.763 150.599 111.03 150.523 111.247 150.363C111.413 150.222 111.496 149.983 111.496 149.646V146.363H112.236V149.78C112.251 149.963 112.218 150.148 112.142 150.315C112.065 150.483 111.946 150.628 111.797 150.736ZM117.084 148.676C117.084 149.548 116.886 150.162 116.495 150.515C116.105 150.867 115.493 151.044 114.654 151.044C114.231 151.045 113.809 151.012 113.391 150.947V146.395C113.809 146.333 114.231 146.302 114.654 146.303C115.496 146.303 116.111 146.484 116.498 146.843C116.886 147.202 117.084 147.811 117.084 148.672V148.676ZM116.328 148.676C116.328 147.969 116.194 147.473 115.928 147.191C115.66 146.907 115.239 146.765 114.652 146.765C114.482 146.761 114.313 146.778 114.147 146.816V150.543C114.313 150.58 114.483 150.597 114.652 150.594C114.975 150.607 115.296 150.553 115.596 150.435C115.842 150.318 116.033 150.111 116.132 149.858C116.273 149.479 116.337 149.077 116.32 148.673L116.328 148.676ZM121.036 150.736C120.741 150.943 120.302 151.044 119.719 151.044C119.135 151.044 118.695 150.943 118.4 150.736C118.251 150.628 118.132 150.483 118.054 150.315C117.977 150.148 117.943 149.964 117.957 149.78V146.363H118.732V149.652C118.732 149.988 118.815 150.231 118.981 150.369C119.199 150.527 119.467 150.601 119.735 150.577C120.003 150.598 120.27 150.522 120.487 150.363C120.652 150.222 120.734 149.983 120.734 149.646V146.363H121.474V149.78C121.489 149.963 121.457 150.148 121.38 150.315C121.303 150.483 121.185 150.628 121.036 150.736ZM110.295 143.897H109.454L109.258 144.503H108.912L109.667 142.392H110.09L110.852 144.503H110.488L110.295 143.897ZM109.879 142.606H109.87L109.521 143.704H110.228L109.879 142.606ZM112.856 143.001C112.864 143.096 112.849 143.192 112.81 143.279C112.771 143.367 112.711 143.443 112.634 143.5C112.421 143.62 112.178 143.675 111.934 143.659C111.837 143.659 111.722 143.659 111.595 143.647V144.516H111.262V142.414C111.486 142.386 111.711 142.372 111.937 142.373C112.182 142.357 112.426 142.413 112.641 142.532C112.715 142.585 112.773 142.655 112.811 142.738C112.849 142.82 112.864 142.911 112.856 143.001ZM112.516 143.001C112.521 142.937 112.509 142.873 112.481 142.815C112.453 142.757 112.41 142.707 112.357 142.671C112.211 142.591 112.044 142.555 111.878 142.569C111.78 142.568 111.682 142.577 111.585 142.595V143.439C111.683 143.449 111.781 143.453 111.878 143.452C112.044 143.464 112.21 143.429 112.357 143.35C112.409 143.309 112.45 143.256 112.477 143.195C112.503 143.134 112.513 143.067 112.507 143.001H112.516ZM114.514 143.897H113.677L113.479 144.503H113.133L113.895 142.392H114.318L115.088 144.503H114.711L114.514 143.897ZM114.102 142.606H114.093L113.744 143.704H114.45L114.102 142.606ZM115.394 143.457C115.394 143.076 115.48 142.803 115.65 142.631C115.753 142.54 115.873 142.47 116.004 142.426C116.134 142.382 116.272 142.364 116.409 142.375C116.589 142.373 116.768 142.403 116.937 142.464V142.679C116.774 142.617 116.602 142.586 116.428 142.587C115.966 142.587 115.73 142.88 115.73 143.46C115.73 143.779 115.791 144.001 115.909 144.133C115.975 144.203 116.056 144.257 116.146 144.292C116.236 144.326 116.332 144.341 116.428 144.334C116.61 144.332 116.789 144.294 116.956 144.222V144.453C116.779 144.514 116.593 144.544 116.406 144.543C116.269 144.554 116.131 144.538 115.999 144.495C115.868 144.453 115.747 144.385 115.642 144.296C115.477 144.127 115.394 143.847 115.394 143.457ZM117.865 142.403V143.264H118.778V142.403H119.134V144.514H118.778V143.473H117.865V144.514H117.524V142.395L117.865 142.403ZM120.071 142.606V143.264H121.118V143.467H120.071V144.299H121.16V144.508H119.725V142.392H121.16V142.606H120.071Z" fill="#33A9DD"/>
</g>
</g>
<g opacity="0.6" filter="url(#filter2_dddd_21075_12536)">
<path d="M5.26318 82.7024C5.26318 65.7459 19.0091 52 35.9656 52V52C52.922 52 66.6679 65.7459 66.6679 82.7024V82.7024C66.6679 99.6588 52.922 113.405 35.9656 113.405V113.405C19.0091 113.405 5.26318 99.6588 5.26318 82.7024V82.7024Z" fill="white"/>
<path d="M35.9653 52.7305C52.5184 52.7305 65.9379 66.1491 65.938 82.7021C65.938 99.2553 52.5185 112.675 35.9653 112.675C19.4123 112.675 5.99365 99.2552 5.99365 82.7021C5.99377 66.1492 19.4123 52.7306 35.9653 52.7305Z" stroke="#CADDFF" stroke-width="1.46041"/>
<g clip-path="url(#clip1_21075_12536)">
<path d="M34.178 80.7145L29.2988 76.2368C28.978 75.9499 28.7225 75.5975 28.5497 75.2033C28.3769 74.8092 28.2908 74.3825 28.2972 73.9522C28.3168 73.099 28.714 72.2872 29.3992 71.7111L29.4995 71.6304C31.0205 70.3473 33.3684 70.3997 34.8217 71.7461L37.5209 74.2446C38.2061 74.8774 38.588 75.7371 38.5836 76.6296C38.5793 77.5221 38.1909 78.3753 37.4991 79.0037L35.6182 80.7167C35.4197 80.8914 35.1642 80.9876 34.8998 80.9872C34.6354 80.9868 34.3803 80.8898 34.1823 80.7145H34.1758H34.178Z" fill="#2DBEE1"/>
<path d="M26.5825 77.6399V87.1539C26.5849 87.2937 26.6292 87.4297 26.7097 87.5441C26.7903 87.6585 26.9033 87.746 27.0342 87.7954C27.3092 87.9045 27.6277 87.8521 27.8416 87.6579L33.2096 82.8617C33.282 82.7982 33.3401 82.72 33.3799 82.6324C33.4198 82.5447 33.4406 82.4495 33.4409 82.3532C33.4399 82.2566 33.4184 82.1613 33.3778 82.0737C33.3371 81.986 33.2783 81.908 33.2052 81.8448L27.8372 77.1315C27.7278 77.0374 27.5945 76.9754 27.452 76.9523C27.3095 76.9292 27.1634 76.9459 27.0299 77.0005C26.9001 77.0505 26.7882 77.138 26.7085 77.2519C26.6289 77.3658 26.585 77.5009 26.5825 77.6399Z" fill="#5977BF"/>
<path d="M39.3674 80.3304C40.2009 79.4794 40.6177 78.5564 40.6177 77.5592C41.2985 78.1723 42.5729 79.3441 44.4451 81.0702C45.0997 81.6724 45.4598 82.4885 45.4423 83.333C45.4287 83.7605 45.3244 84.1802 45.1363 84.5643C44.9482 84.9484 44.6806 85.2881 44.3513 85.5609L34.6344 93.842C33.9252 94.4486 32.9651 94.7585 31.9897 94.6952C31.0377 94.6451 30.1439 94.2217 29.5021 93.5169L29.0569 93.0128C27.9222 91.7275 28.075 89.8749 29.4017 88.7512L39.363 80.3304H39.3674Z" fill="#54D3AA"/>
</g>
</g>
<g filter="url(#filter3_dddd_21075_12536)">
<path d="M122.264 291.261C122.264 274.305 136.01 260.559 152.966 260.559V260.559C169.922 260.559 183.668 274.305 183.668 291.261V291.261C183.668 308.218 169.922 321.964 152.966 321.964V321.964C136.01 321.964 122.264 308.218 122.264 291.261V291.261Z" fill="white"/>
<path d="M152.966 261.125C169.609 261.125 183.102 274.617 183.103 291.261C183.103 307.905 169.61 321.398 152.966 321.398C136.322 321.398 122.83 307.905 122.83 291.261C122.83 274.617 136.322 261.125 152.966 261.125Z" stroke="#CADDFF" stroke-width="1.13256"/>
<path d="M158.919 284.097C158.866 284.097 158.708 284.045 158.655 284.045C156.759 282.306 154.283 281.78 153.282 281.78C152.281 281.832 150.859 282.412 150.28 283.36C149.49 283.571 148.383 283.781 147.909 284.519C147.488 285.204 148.963 285.625 149.437 285.783C149.648 285.836 150.648 286.099 151.913 286.626L151.965 286.678V286.731C151.913 286.942 151.913 287.258 152.071 287.943C152.545 289.312 153.282 290.26 153.704 290.155C154.02 290.05 153.967 288.469 154.125 287.943C154.125 287.943 154.178 287.89 154.23 287.89H154.336C156.232 289.102 157.707 290.998 158.234 293.368C158.866 296.002 158.181 298.688 156.706 300.743C156.97 300.69 157.128 300.585 157.496 300.321C158.076 299.9 158.602 299.321 159.024 298.741C162.079 294.422 162.395 290.313 160.762 286.784C160.762 286.731 160.709 286.731 160.709 286.678C160.657 286.204 162.553 286.099 163.027 285.836C163.291 285.362 160.183 283.939 158.919 284.097Z" fill="#18B4FF"/>
<path d="M155.916 295.001L157.286 292.789C157.128 292.473 157.022 292.157 156.864 291.893L155.442 294.158H152.703L154.283 296.739L152.44 299.689H148.752L146.909 296.687L148.489 294.106H145.75L143.906 291.103L145.75 288.101H149.437L150.543 289.944L151.281 288.785C151.228 288.733 151.228 288.627 151.175 288.575C151.07 288.153 151.017 287.837 151.017 287.574L150.543 288.311L149.911 287.258H145.328L142.958 291.156L145.328 295.001H147.014L145.961 296.739L148.331 300.585H152.966L155.337 296.739L154.283 295.001H155.916Z" fill="#18B4FF"/>
</g>
<g filter="url(#filter4_dddd_21075_12536)">
<path d="M37.2637 303.702C37.2637 286.746 51.0096 273 67.966 273V273C84.9225 273 98.6684 286.746 98.6684 303.702V303.702C98.6684 320.659 84.9225 334.405 67.966 334.405V334.405C51.0096 334.405 37.2637 320.659 37.2637 303.702V303.702Z" fill="white"/>
<path d="M67.9658 273.566C84.6095 273.566 98.1024 287.059 98.1025 303.702C98.1025 320.346 84.6095 333.839 67.9658 333.839C51.3222 333.839 37.8301 320.346 37.8301 303.702C37.8302 287.059 51.3223 273.567 67.9658 273.566Z" stroke="#CADDFF" stroke-width="1.13256"/>
<g clip-path="url(#clip2_21075_12536)">
<path d="M67.9659 291.06C74.948 291.06 80.608 296.72 80.608 303.702V303.702C80.608 310.684 74.948 316.345 67.9659 316.345V316.345C60.9838 316.345 55.3237 310.684 55.3237 303.702V303.702C55.3237 296.72 60.9838 291.06 67.9659 291.06V291.06ZM71.578 296.478H64.3537C60.3644 296.478 57.1295 299.713 57.1295 303.702C57.1295 307.692 60.3644 310.927 64.3537 310.927H71.578C75.5673 310.927 78.8023 307.692 78.8023 303.702C78.8023 299.713 75.5673 296.478 71.578 296.478ZM71.578 299.007L71.8751 299.016C73.0932 299.092 74.2338 299.639 75.0553 300.542C75.8768 301.444 76.3146 302.631 76.276 303.851C76.2373 305.071 75.7253 306.228 74.8484 307.077C73.9714 307.925 72.7985 308.399 71.578 308.398H64.3537L64.0566 308.389C62.8386 308.313 61.698 307.766 60.8765 306.863C60.055 305.961 59.6172 304.774 59.6558 303.554C59.6944 302.334 60.2064 301.177 61.0834 300.328C61.9603 299.479 63.1333 299.005 64.3537 299.007H71.578Z" fill="#FF0000"/>
</g>
</g>
<circle cx="146.23" cy="80.8153" r="4.08244" fill="white" stroke="#0037FF" stroke-width="1.16641"/>
<circle cx="183.555" cy="240.878" r="4.08244" fill="white" stroke="#0037FF" stroke-width="1.16641"/>
<path d="M168.391 199.36H204.549" stroke="url(#paint2_linear_21075_12536)" stroke-width="2" stroke-linecap="round"/>
<path d="M190.554 181.863L194.678 181.863" stroke="#49B2E1" stroke-width="2.33282" stroke-linecap="round"/>
<path d="M178.89 163.201H215.048" stroke="url(#paint3_linear_21075_12536)" stroke-width="2" stroke-linecap="round"/>
<defs>
<filter id="filter0_dddd_21075_12536" x="43.3535" y="14.665" width="84.4371" height="101.099" filterUnits="userSpaceOnUse" color-interpolation-filters="sRGB">
<feFlood flood-opacity="0" result="BackgroundImageFix"/>
<feColorMatrix in="SourceAlpha" type="matrix" values="0 0 0 0 0 0 0 0 0 0 0 0 0 0 0 0 0 0 127 0" result="hardAlpha"/>
<feOffset dy="2.0827"/>
<feGaussianBlur stdDeviation="2.0827"/>
<feColorMatrix type="matrix" values="0 0 0 0 0.301961 0 0 0 0 0.603922 0 0 0 0 1 0 0 0 0.1 0"/>
<feBlend mode="normal" in2="BackgroundImageFix" result="effect1_dropShadow_21075_12536"/>
<feColorMatrix in="SourceAlpha" type="matrix" values="0 0 0 0 0 0 0 0 0 0 0 0 0 0 0 0 0 0 127 0" result="hardAlpha"/>
<feOffset dx="-2.0827" dy="8.33081"/>
<feGaussianBlur stdDeviation="4.1654"/>
<feColorMatrix type="matrix" values="0 0 0 0 0.301961 0 0 0 0 0.603922 0 0 0 0 1 0 0 0 0.09 0"/>
<feBlend mode="normal" in2="effect1_dropShadow_21075_12536" result="effect2_dropShadow_21075_12536"/>
<feColorMatrix in="SourceAlpha" type="matrix" values="0 0 0 0 0 0 0 0 0 0 0 0 0 0 0 0 0 0 127 0" result="hardAlpha"/>
<feOffset dx="-6.24811" dy="16.6616"/>
<feGaussianBlur stdDeviation="5.20675"/>
<feColorMatrix type="matrix" values="0 0 0 0 0.301961 0 0 0 0 0.603922 0 0 0 0 1 0 0 0 0.05 0"/>
<feBlend mode="normal" in2="effect2_dropShadow_21075_12536" result="effect3_dropShadow_21075_12536"/>
<feColorMatrix in="SourceAlpha" type="matrix" values="0 0 0 0 0 0 0 0 0 0 0 0 0 0 0 0 0 0 127 0" result="hardAlpha"/>
<feOffset dx="-10.4135" dy="31.2405"/>
<feGaussianBlur stdDeviation="6.24811"/>
<feColorMatrix type="matrix" values="0 0 0 0 0.301961 0 0 0 0 0.603922 0 0 0 0 1 0 0 0 0.01 0"/>
<feBlend mode="normal" in2="effect3_dropShadow_21075_12536" result="effect4_dropShadow_21075_12536"/>
<feBlend mode="normal" in="SourceGraphic" in2="effect4_dropShadow_21075_12536" result="shape"/>
</filter>
<filter id="filter1_dddd_21075_12536" x="62.2821" y="105.117" width="89.3814" height="105.368" filterUnits="userSpaceOnUse" color-interpolation-filters="sRGB">
<feFlood flood-opacity="0" result="BackgroundImageFix"/>
<feColorMatrix in="SourceAlpha" type="matrix" values="0 0 0 0 0 0 0 0 0 0 0 0 0 0 0 0 0 0 127 0" result="hardAlpha"/>
<feOffset dy="1.99833"/>
<feGaussianBlur stdDeviation="1.99833"/>
<feColorMatrix type="matrix" values="0 0 0 0 0.301961 0 0 0 0 0.603922 0 0 0 0 1 0 0 0 0.1 0"/>
<feBlend mode="normal" in2="BackgroundImageFix" result="effect1_dropShadow_21075_12536"/>
<feColorMatrix in="SourceAlpha" type="matrix" values="0 0 0 0 0 0 0 0 0 0 0 0 0 0 0 0 0 0 127 0" result="hardAlpha"/>
<feOffset dx="-1.99833" dy="7.99331"/>
<feGaussianBlur stdDeviation="3.99666"/>
<feColorMatrix type="matrix" values="0 0 0 0 0.301961 0 0 0 0 0.603922 0 0 0 0 1 0 0 0 0.09 0"/>
<feBlend mode="normal" in2="effect1_dropShadow_21075_12536" result="effect2_dropShadow_21075_12536"/>
<feColorMatrix in="SourceAlpha" type="matrix" values="0 0 0 0 0 0 0 0 0 0 0 0 0 0 0 0 0 0 127 0" result="hardAlpha"/>
<feOffset dx="-5.99499" dy="15.9866"/>
<feGaussianBlur stdDeviation="4.99582"/>
<feColorMatrix type="matrix" values="0 0 0 0 0.301961 0 0 0 0 0.603922 0 0 0 0 1 0 0 0 0.05 0"/>
<feBlend mode="normal" in2="effect2_dropShadow_21075_12536" result="effect3_dropShadow_21075_12536"/>
<feColorMatrix in="SourceAlpha" type="matrix" values="0 0 0 0 0 0 0 0 0 0 0 0 0 0 0 0 0 0 127 0" result="hardAlpha"/>
<feOffset dx="-9.99164" dy="29.9749"/>
<feGaussianBlur stdDeviation="5.99499"/>
<feColorMatrix type="matrix" values="0 0 0 0 0.301961 0 0 0 0 0.603922 0 0 0 0 1 0 0 0 0.01 0"/>
<feBlend mode="normal" in2="effect3_dropShadow_21075_12536" result="effect4_dropShadow_21075_12536"/>
<feBlend mode="normal" in="SourceGraphic" in2="effect4_dropShadow_21075_12536" result="shape"/>
</filter>
<filter id="filter2_dddd_21075_12536" x="-14.6031" y="50.194" width="86.6891" height="101.137" filterUnits="userSpaceOnUse" color-interpolation-filters="sRGB">
<feFlood flood-opacity="0" result="BackgroundImageFix"/>
<feColorMatrix in="SourceAlpha" type="matrix" values="0 0 0 0 0 0 0 0 0 0 0 0 0 0 0 0 0 0 127 0" result="hardAlpha"/>
<feOffset dy="1.80602"/>
<feGaussianBlur stdDeviation="1.80602"/>
<feColorMatrix type="matrix" values="0 0 0 0 0.301961 0 0 0 0 0.603922 0 0 0 0 1 0 0 0 0.1 0"/>
<feBlend mode="normal" in2="BackgroundImageFix" result="effect1_dropShadow_21075_12536"/>
<feColorMatrix in="SourceAlpha" type="matrix" values="0 0 0 0 0 0 0 0 0 0 0 0 0 0 0 0 0 0 127 0" result="hardAlpha"/>
<feOffset dx="-1.80602" dy="7.22409"/>
<feGaussianBlur stdDeviation="3.61204"/>
<feColorMatrix type="matrix" values="0 0 0 0 0.301961 0 0 0 0 0.603922 0 0 0 0 1 0 0 0 0.09 0"/>
<feBlend mode="normal" in2="effect1_dropShadow_21075_12536" result="effect2_dropShadow_21075_12536"/>
<feColorMatrix in="SourceAlpha" type="matrix" values="0 0 0 0 0 0 0 0 0 0 0 0 0 0 0 0 0 0 127 0" result="hardAlpha"/>
<feOffset dx="-5.41807" dy="14.4482"/>
<feGaussianBlur stdDeviation="4.51505"/>
<feColorMatrix type="matrix" values="0 0 0 0 0.301961 0 0 0 0 0.603922 0 0 0 0 1 0 0 0 0.05 0"/>
<feBlend mode="normal" in2="effect2_dropShadow_21075_12536" result="effect3_dropShadow_21075_12536"/>
<feColorMatrix in="SourceAlpha" type="matrix" values="0 0 0 0 0 0 0 0 0 0 0 0 0 0 0 0 0 0 127 0" result="hardAlpha"/>
<feOffset dx="-9.03011" dy="27.0903"/>
<feGaussianBlur stdDeviation="5.41807"/>
<feColorMatrix type="matrix" values="0 0 0 0 0.301961 0 0 0 0 0.603922 0 0 0 0 1 0 0 0 0.01 0"/>
<feBlend mode="normal" in2="effect3_dropShadow_21075_12536" result="effect4_dropShadow_21075_12536"/>
<feBlend mode="normal" in="SourceGraphic" in2="effect4_dropShadow_21075_12536" result="shape"/>
</filter>
<filter id="filter3_dddd_21075_12536" x="102.397" y="258.753" width="86.6891" height="101.137" filterUnits="userSpaceOnUse" color-interpolation-filters="sRGB">
<feFlood flood-opacity="0" result="BackgroundImageFix"/>
<feColorMatrix in="SourceAlpha" type="matrix" values="0 0 0 0 0 0 0 0 0 0 0 0 0 0 0 0 0 0 127 0" result="hardAlpha"/>
<feOffset dy="1.80602"/>
<feGaussianBlur stdDeviation="1.80602"/>
<feColorMatrix type="matrix" values="0 0 0 0 0.301961 0 0 0 0 0.603922 0 0 0 0 1 0 0 0 0.1 0"/>
<feBlend mode="normal" in2="BackgroundImageFix" result="effect1_dropShadow_21075_12536"/>
<feColorMatrix in="SourceAlpha" type="matrix" values="0 0 0 0 0 0 0 0 0 0 0 0 0 0 0 0 0 0 127 0" result="hardAlpha"/>
<feOffset dx="-1.80602" dy="7.22409"/>
<feGaussianBlur stdDeviation="3.61204"/>
<feColorMatrix type="matrix" values="0 0 0 0 0.301961 0 0 0 0 0.603922 0 0 0 0 1 0 0 0 0.09 0"/>
<feBlend mode="normal" in2="effect1_dropShadow_21075_12536" result="effect2_dropShadow_21075_12536"/>
<feColorMatrix in="SourceAlpha" type="matrix" values="0 0 0 0 0 0 0 0 0 0 0 0 0 0 0 0 0 0 127 0" result="hardAlpha"/>
<feOffset dx="-5.41807" dy="14.4482"/>
<feGaussianBlur stdDeviation="4.51505"/>
<feColorMatrix type="matrix" values="0 0 0 0 0.301961 0 0 0 0 0.603922 0 0 0 0 1 0 0 0 0.05 0"/>
<feBlend mode="normal" in2="effect2_dropShadow_21075_12536" result="effect3_dropShadow_21075_12536"/>
<feColorMatrix in="SourceAlpha" type="matrix" values="0 0 0 0 0 0 0 0 0 0 0 0 0 0 0 0 0 0 127 0" result="hardAlpha"/>
<feOffset dx="-9.03011" dy="27.0903"/>
<feGaussianBlur stdDeviation="5.41807"/>
<feColorMatrix type="matrix" values="0 0 0 0 0.301961 0 0 0 0 0.603922 0 0 0 0 1 0 0 0 0.01 0"/>
<feBlend mode="normal" in2="effect3_dropShadow_21075_12536" result="effect4_dropShadow_21075_12536"/>
<feBlend mode="normal" in="SourceGraphic" in2="effect4_dropShadow_21075_12536" result="shape"/>
</filter>
<filter id="filter4_dddd_21075_12536" x="17.3974" y="271.194" width="86.6891" height="101.137" filterUnits="userSpaceOnUse" color-interpolation-filters="sRGB">
<feFlood flood-opacity="0" result="BackgroundImageFix"/>
<feColorMatrix in="SourceAlpha" type="matrix" values="0 0 0 0 0 0 0 0 0 0 0 0 0 0 0 0 0 0 127 0" result="hardAlpha"/>
<feOffset dy="1.80602"/>
<feGaussianBlur stdDeviation="1.80602"/>
<feColorMatrix type="matrix" values="0 0 0 0 0.301961 0 0 0 0 0.603922 0 0 0 0 1 0 0 0 0.1 0"/>
<feBlend mode="normal" in2="BackgroundImageFix" result="effect1_dropShadow_21075_12536"/>
<feColorMatrix in="SourceAlpha" type="matrix" values="0 0 0 0 0 0 0 0 0 0 0 0 0 0 0 0 0 0 127 0" result="hardAlpha"/>
<feOffset dx="-1.80602" dy="7.22409"/>
<feGaussianBlur stdDeviation="3.61204"/>
<feColorMatrix type="matrix" values="0 0 0 0 0.301961 0 0 0 0 0.603922 0 0 0 0 1 0 0 0 0.09 0"/>
<feBlend mode="normal" in2="effect1_dropShadow_21075_12536" result="effect2_dropShadow_21075_12536"/>
<feColorMatrix in="SourceAlpha" type="matrix" values="0 0 0 0 0 0 0 0 0 0 0 0 0 0 0 0 0 0 127 0" result="hardAlpha"/>
<feOffset dx="-5.41807" dy="14.4482"/>
<feGaussianBlur stdDeviation="4.51505"/>
<feColorMatrix type="matrix" values="0 0 0 0 0.301961 0 0 0 0 0.603922 0 0 0 0 1 0 0 0 0.05 0"/>
<feBlend mode="normal" in2="effect2_dropShadow_21075_12536" result="effect3_dropShadow_21075_12536"/>
<feColorMatrix in="SourceAlpha" type="matrix" values="0 0 0 0 0 0 0 0 0 0 0 0 0 0 0 0 0 0 127 0" result="hardAlpha"/>
<feOffset dx="-9.03011" dy="27.0903"/>
<feGaussianBlur stdDeviation="5.41807"/>
<feColorMatrix type="matrix" values="0 0 0 0 0.301961 0 0 0 0 0.603922 0 0 0 0 1 0 0 0 0.01 0"/>
<feBlend mode="normal" in2="effect3_dropShadow_21075_12536" result="effect4_dropShadow_21075_12536"/>
<feBlend mode="normal" in="SourceGraphic" in2="effect4_dropShadow_21075_12536" result="shape"/>
</filter>
<linearGradient id="paint0_linear_21075_12536" x1="138.186" y1="204.6" x2="264.497" y2="204.6" gradientUnits="userSpaceOnUse">
<stop stop-color="#D9D9D9"/>
<stop offset="1" stop-color="#737373" stop-opacity="0"/>
</linearGradient>
<linearGradient id="paint1_linear_21075_12536" x1="122.853" y1="236.362" x2="141.443" y2="205.349" gradientUnits="userSpaceOnUse">
<stop offset="0.0192308" stop-color="white" stop-opacity="0"/>
<stop offset="0.451923" stop-color="#FF0004" stop-opacity="0.2"/>
<stop offset="1" stop-color="#FF0000"/>
</linearGradient>
<linearGradient id="paint2_linear_21075_12536" x1="168.391" y1="199.86" x2="204.549" y2="199.86" gradientUnits="userSpaceOnUse">
<stop offset="0.0192308" stop-color="#C8DEFB" stop-opacity="0"/>
<stop offset="0.451923" stop-color="#C8DEFB"/>
<stop offset="1" stop-color="#2533FF"/>
</linearGradient>
<linearGradient id="paint3_linear_21075_12536" x1="178.89" y1="163.701" x2="215.048" y2="163.701" gradientUnits="userSpaceOnUse">
<stop offset="0.0192308" stop-color="#C8DEFB" stop-opacity="0"/>
<stop offset="0.451923" stop-color="#C8DEFB"/>
<stop offset="1" stop-color="#2533FF"/>
</linearGradient>
<clipPath id="clip0_21075_12536">
<rect width="27.9766" height="26.4525" fill="white" transform="translate(104.247 124.591)"/>
</clipPath>
<clipPath id="clip1_21075_12536">
<rect width="25.2843" height="25.2843" fill="white" transform="translate(23.3232 70.0602)"/>
</clipPath>
<clipPath id="clip2_21075_12536">
<rect x="55.3237" y="291.06" width="25.2843" height="25.2843" rx="12.6422" fill="white"/>
</clipPath>
</defs>
</svg>
