<svg width="290" height="340" viewBox="0 0 290 340" fill="none" xmlns="http://www.w3.org/2000/svg">
<g filter="url(#filter0_dddd_20781_6489)">
<rect x="50" y="50" width="190" height="190" rx="95" fill="#0087C7"/>
<path fill-rule="evenodd" clip-rule="evenodd" d="M187.48 137.828C189.186 137.655 191.098 137.818 192.428 138.868C193.768 139.928 194.265 141.582 194.421 143.26C194.582 144.995 194.547 146.587 194.317 148.038C194.099 149.399 193.518 150.933 192.52 151.851C191.047 153.204 188.344 153.26 186.506 152.816C185.467 152.566 184.704 151.968 184.216 151.024C184.211 151.014 184.204 151.006 184.194 151.002C184.185 150.997 184.174 150.996 184.164 150.998C184.154 151.001 184.144 151.007 184.138 151.015C184.132 151.024 184.129 151.035 184.129 151.045V158.198H180.176L180.163 138.133C180.163 138.109 180.173 138.086 180.19 138.069C180.207 138.052 180.23 138.042 180.254 138.042H184.053C184.074 138.042 184.095 138.051 184.111 138.066C184.126 138.081 184.135 138.102 184.135 138.124V139.657C184.135 139.666 184.137 139.675 184.143 139.682C184.148 139.689 184.155 139.694 184.164 139.697C184.173 139.699 184.182 139.699 184.191 139.696C184.199 139.693 184.206 139.687 184.212 139.68C184.945 138.543 186.104 137.968 187.48 137.828ZM187.189 140.65C186.111 140.667 185.054 141.042 184.551 142.041C184.05 143.036 183.919 144.211 183.924 145.33C183.931 146.451 184.074 147.624 184.586 148.613C185.1 149.606 186.161 149.971 187.239 149.976C188.484 149.982 189.542 149.662 190.019 148.453C190.402 147.481 190.484 146.34 190.479 145.296C190.473 144.252 190.378 143.11 189.985 142.144C189.496 140.939 188.434 140.63 187.189 140.65Z" fill="white"/>
<path fill-rule="evenodd" clip-rule="evenodd" d="M202.447 137.936C203.724 137.736 205.027 137.721 206.357 137.891C207.681 138.062 208.984 138.67 209.82 139.718C210.71 140.831 210.986 142.793 210.992 144.182V144.258L210.841 146.178C210.839 146.202 210.828 146.225 210.81 146.243C210.793 146.26 210.769 146.271 210.744 146.273L201.399 146.874C201.392 146.874 201.385 146.876 201.379 146.879C201.372 146.882 201.367 146.887 201.362 146.892C201.357 146.897 201.353 146.904 201.351 146.91C201.348 146.917 201.347 146.924 201.348 146.931C201.457 149.049 202.9 149.835 204.833 149.952C206.701 150.066 208.486 149.751 210.19 149.007C210.2 149.003 210.21 149.002 210.22 149.002C210.23 149.003 210.239 149.007 210.248 149.012C210.256 149.018 210.263 149.025 210.268 149.034C210.273 149.043 210.275 149.052 210.275 149.062V151.907C210.275 151.946 210.264 151.985 210.243 152.018C210.222 152.052 210.192 152.079 210.156 152.095C208.119 153.054 205.53 153.17 203.308 152.993C200.81 152.794 198.827 151.784 197.973 149.395C197.518 148.124 197.419 146.7 197.425 145.232C197.439 141.687 198.477 138.559 202.447 137.936ZM205.524 140.787C204.687 140.659 203.918 140.69 203.218 140.881C201.7 141.294 201.334 142.693 201.275 144.079C201.274 144.087 201.276 144.096 201.279 144.104C201.282 144.112 201.287 144.119 201.293 144.125C201.299 144.131 201.307 144.136 201.315 144.138C201.323 144.141 201.331 144.143 201.34 144.142L207.228 143.676C207.254 143.674 207.279 143.662 207.297 143.643C207.315 143.623 207.325 143.597 207.325 143.571C207.317 143.063 207.233 142.564 207.074 142.073C206.834 141.336 206.317 140.908 205.524 140.787Z" fill="white"/>
<path fill-rule="evenodd" clip-rule="evenodd" d="M141.982 137.996C144.04 137.608 146.752 137.571 148.556 138.713C149.838 139.524 150.379 140.643 150.643 142.088C150.878 143.38 150.907 144.747 150.729 146.188C150.726 146.21 150.715 146.231 150.699 146.246C150.682 146.262 150.661 146.271 150.639 146.273L141.278 146.874C141.261 146.875 141.245 146.883 141.234 146.895C141.223 146.908 141.217 146.925 141.217 146.942C141.33 149.113 142.838 149.855 144.802 149.958C146.667 150.055 148.431 149.731 150.095 148.986C150.101 148.983 150.107 148.982 150.114 148.982C150.121 148.983 150.127 148.985 150.133 148.989C150.138 148.992 150.143 148.997 150.146 149.003C150.149 149.009 150.152 149.016 150.152 149.023V151.942C150.152 151.969 150.144 151.995 150.129 152.018C150.115 152.04 150.095 152.059 150.071 152.07C148.082 153.018 145.69 153.146 143.481 153.015C141.297 152.886 139.354 152.223 138.247 150.283C137.415 148.826 137.26 146.844 137.296 145.066C137.33 143.407 137.542 141.735 138.382 140.381C139.182 139.092 140.382 138.297 141.982 137.996ZM145.393 140.784C144.556 140.657 143.787 140.689 143.087 140.881C141.57 141.294 141.205 142.693 141.146 144.079C141.145 144.087 141.147 144.096 141.15 144.104C141.153 144.112 141.158 144.119 141.164 144.125C141.17 144.131 141.177 144.136 141.185 144.138C141.193 144.141 141.202 144.143 141.211 144.142L147.099 143.674C147.125 143.672 147.15 143.66 147.168 143.64C147.186 143.62 147.196 143.595 147.196 143.568C147.188 143.06 147.104 142.561 146.944 142.07C146.704 141.334 146.187 140.905 145.393 140.784Z" fill="white"/>
<path fill-rule="evenodd" clip-rule="evenodd" d="M133.548 132.004C133.559 132.004 133.569 132.006 133.579 132.01C133.589 132.014 133.598 132.02 133.605 132.027C133.613 132.035 133.618 132.044 133.622 132.053C133.626 132.063 133.629 132.074 133.629 132.084V152.738C133.629 152.751 133.624 152.762 133.615 152.771C133.606 152.78 133.594 152.784 133.582 152.784H130.127C130.109 152.785 130.092 152.778 130.078 152.766C130.064 152.755 130.055 152.738 130.053 152.72L129.808 150.872C129.807 150.865 129.803 150.858 129.798 150.853C129.793 150.848 129.786 150.844 129.779 150.843C129.772 150.842 129.764 150.843 129.758 150.846C129.751 150.849 129.745 150.854 129.742 150.86C129.127 152.028 128.135 152.718 126.766 152.932C125.338 153.155 123.614 153.105 122.328 152.561C120.641 151.846 119.778 150.048 119.525 148.306C119.165 145.831 119.169 142.93 120.17 140.605C120.865 138.991 122.103 138.057 123.884 137.802C124.955 137.648 126.014 137.67 127.061 137.866C128.249 138.088 129.117 138.715 129.665 139.746C129.668 139.752 129.673 139.758 129.679 139.761C129.686 139.764 129.693 139.765 129.7 139.763C129.707 139.761 129.713 139.757 129.717 139.751C129.722 139.746 129.724 139.739 129.723 139.731V132.08C129.723 132.06 129.731 132.04 129.746 132.026C129.76 132.012 129.78 132.004 129.8 132.004H133.548ZM129.698 143.25C129.276 141.284 128.025 140.457 126.004 140.675C124.578 140.829 123.795 141.86 123.606 143.199C123.441 144.358 123.408 145.537 123.504 146.734C123.571 147.558 123.669 148.383 124.116 149.012C124.491 149.54 124.989 149.858 125.611 149.964C127.123 150.224 129.024 150.021 129.53 148.273C130.008 146.626 130.064 144.952 129.698 143.25Z" fill="white"/>
<path fill-rule="evenodd" clip-rule="evenodd" d="M105.343 137.975C107.466 137.742 109.822 137.626 111.857 138.038C114.282 138.53 115.67 139.969 115.674 142.493C115.679 146.142 115.679 149.554 115.673 152.729C115.673 152.743 115.667 152.756 115.657 152.766C115.647 152.776 115.634 152.782 115.62 152.782H112.255C112.232 152.782 112.21 152.774 112.192 152.76C112.175 152.746 112.162 152.726 112.157 152.704L111.785 151.173C111.782 151.164 111.778 151.156 111.771 151.15C111.764 151.144 111.756 151.14 111.747 151.138C111.737 151.137 111.728 151.138 111.72 151.142C111.711 151.146 111.705 151.152 111.7 151.16C110.628 152.978 107.654 153.21 105.776 152.972C104.765 152.845 103.513 152.379 102.878 151.508C102.386 150.832 102.104 150.093 102.035 149.29C101.921 147.986 102.056 146.695 102.851 145.66C103.919 144.273 106.021 143.989 107.658 143.961C107.667 143.961 108.979 143.959 111.594 143.954C111.609 143.954 111.625 143.95 111.639 143.944C111.654 143.938 111.667 143.929 111.678 143.918C111.688 143.906 111.697 143.893 111.703 143.878C111.708 143.863 111.711 143.848 111.71 143.832C111.68 142.871 111.694 141.78 110.59 141.384C109.914 141.142 109.109 141.033 108.176 141.056C107.006 141.086 106.069 141.167 105.365 141.297C105.356 141.298 105.347 141.298 105.338 141.296C105.329 141.294 105.321 141.289 105.314 141.284C105.307 141.278 105.301 141.271 105.297 141.262C105.293 141.254 105.291 141.245 105.291 141.236V138.031C105.291 138.017 105.296 138.003 105.306 137.993C105.315 137.983 105.328 137.976 105.343 137.975ZM111.665 146.614C110.099 146.609 108.978 146.611 108.303 146.621C107.256 146.635 106.102 146.862 105.943 148.029C105.756 149.395 106.488 150.029 107.792 150.103C109.387 150.191 110.72 149.771 111.687 148.457C111.739 148.386 111.767 148.3 111.767 148.213V146.715C111.767 146.688 111.757 146.663 111.737 146.644C111.718 146.625 111.692 146.614 111.665 146.614Z" fill="white"/>
<path d="M98.1196 132.001C98.1298 132.001 98.1401 132.003 98.1495 132.007C98.159 132.011 98.1677 132.017 98.175 132.024C98.1822 132.031 98.1878 132.04 98.1918 132.049C98.1957 132.059 98.1979 132.069 98.1979 132.079C98.1961 140.435 98.1969 145.809 98.2005 148.201C98.2018 148.958 98.2614 149.707 99.1871 149.816C99.5094 149.855 99.8502 149.848 100.21 149.795C100.217 149.794 100.225 149.795 100.232 149.797C100.24 149.799 100.247 149.803 100.252 149.808C100.258 149.813 100.263 149.819 100.266 149.826C100.269 149.833 100.271 149.84 100.27 149.848V152.755C100.27 152.79 100.258 152.823 100.235 152.849C100.212 152.875 100.18 152.891 100.146 152.895C98.9965 153.03 97.9069 153.015 96.8774 152.849C94.6472 152.492 94.2101 150.851 94.2087 148.927C94.2052 141.178 94.2048 135.557 94.2074 132.063C94.2078 132.047 94.2146 132.031 94.2264 132.019C94.2383 132.008 94.2543 132.001 94.2709 132.001H98.1196Z" fill="white"/>
<path fill-rule="evenodd" clip-rule="evenodd" d="M158.661 133.822C159.952 133.775 161.161 133.781 162.285 133.84C163.651 133.911 165.594 134.257 166.623 135.112C167.804 136.093 168.166 137.315 168.388 138.872C168.596 140.337 168.531 141.735 168.192 143.066C167.882 144.285 167.213 145.236 166.183 145.92C164.888 146.781 162.681 146.957 161.063 146.943C160.534 146.938 159.798 146.941 158.854 146.95C158.798 146.95 158.757 146.937 158.731 146.913C158.675 146.858 158.636 146.867 158.612 146.94C158.609 146.947 158.608 146.955 158.609 146.961L158.68 148.061C158.682 148.092 158.673 148.123 158.654 148.149C158.635 148.174 158.608 148.193 158.577 148.201L158.176 148.297C158.157 148.302 158.137 148.301 158.118 148.296C158.099 148.291 158.082 148.28 158.069 148.267L157.956 148.153C157.954 148.151 157.952 148.15 157.949 148.149C157.946 148.148 157.943 148.148 157.941 148.148C157.938 148.148 157.935 148.15 157.933 148.151C157.93 148.153 157.928 148.155 157.927 148.157L157.906 148.195C157.903 148.201 157.901 148.207 157.901 148.214C157.901 148.22 157.903 148.226 157.907 148.231L158.57 149.085C158.575 149.091 158.579 149.098 158.581 149.105C158.583 149.113 158.583 149.121 158.582 149.128C158.581 149.136 158.579 149.143 158.575 149.15C158.571 149.156 158.566 149.162 158.56 149.167L157.85 149.713C157.839 149.722 157.832 149.733 157.828 149.746C157.825 149.76 157.825 149.773 157.83 149.786C157.835 149.798 157.843 149.809 157.854 149.816C157.866 149.823 157.879 149.827 157.892 149.825L158.57 149.782C158.582 149.781 158.593 149.782 158.604 149.786C158.615 149.79 158.625 149.796 158.633 149.804C158.642 149.812 158.649 149.821 158.653 149.832C158.658 149.842 158.661 149.854 158.661 149.865C158.666 150.142 158.68 150.518 158.629 150.814C158.605 150.951 158.489 151.022 158.282 151.028C158.248 151.029 158.216 151.043 158.192 151.066C158.167 151.09 158.153 151.122 158.152 151.156C158.143 151.401 158.23 151.531 158.412 151.545C158.436 151.547 158.46 151.555 158.48 151.57C158.5 151.584 158.516 151.604 158.526 151.627C158.65 151.931 158.694 152.29 158.656 152.704C158.655 152.722 158.648 152.74 158.636 152.754C158.623 152.768 158.607 152.778 158.589 152.782L157.767 152.98C157.757 152.982 157.747 152.982 157.738 152.981C157.728 152.979 157.719 152.975 157.711 152.97C157.703 152.964 157.696 152.957 157.69 152.949C157.685 152.941 157.682 152.931 157.68 152.922C157.64 152.597 157.648 152.289 157.706 151.998C157.71 151.973 157.72 151.95 157.734 151.929C157.748 151.908 157.766 151.89 157.786 151.876C157.802 151.867 157.814 151.859 157.822 151.854C157.829 151.85 157.833 151.843 157.835 151.836C157.838 151.828 157.837 151.82 157.834 151.813C157.831 151.806 157.825 151.801 157.818 151.797C157.811 151.794 157.803 151.793 157.796 151.795L157.522 151.861C157.5 151.866 157.476 151.862 157.457 151.851C157.437 151.839 157.423 151.819 157.417 151.797L157.264 151.161C157.258 151.138 157.261 151.113 157.273 151.093C157.286 151.072 157.305 151.057 157.328 151.051L157.796 150.925C157.808 150.921 157.819 150.914 157.827 150.903C157.834 150.893 157.838 150.88 157.837 150.867C157.834 150.844 157.81 150.814 157.764 150.777C157.735 150.755 157.714 150.724 157.702 150.689C157.637 150.506 157.64 150.282 157.709 150.017C157.712 150.005 157.712 149.993 157.709 149.981C157.706 149.969 157.701 149.958 157.692 149.949C157.684 149.939 157.674 149.932 157.662 149.928C157.651 149.924 157.638 149.923 157.626 149.924C157.623 149.925 157.611 149.928 157.592 149.931C157.565 149.936 157.537 149.934 157.512 149.924C157.486 149.915 157.464 149.898 157.447 149.877L156.828 149.077C156.817 149.064 156.803 149.054 156.787 149.048C156.738 149.029 156.689 149.029 156.638 149.045C156.627 149.049 156.615 149.051 156.603 149.05C156.591 149.048 156.58 149.045 156.569 149.039C156.559 149.033 156.55 149.025 156.542 149.016C156.535 149.006 156.53 148.995 156.527 148.983L156.429 148.581C156.427 148.572 156.427 148.562 156.429 148.553C156.431 148.544 156.435 148.535 156.441 148.528C156.447 148.52 156.455 148.515 156.463 148.51C156.472 148.506 156.482 148.504 156.491 148.504C156.558 148.505 156.657 148.482 156.787 148.436C156.847 148.414 156.894 148.413 156.928 148.433C156.963 148.452 156.987 148.492 157 148.55C157.002 148.559 157.006 148.568 157.012 148.575C157.018 148.581 157.026 148.587 157.034 148.59C157.043 148.593 157.052 148.594 157.061 148.593C157.069 148.591 157.078 148.588 157.085 148.582L157.641 148.152C157.655 148.141 157.666 148.127 157.674 148.111C157.682 148.095 157.686 148.078 157.686 148.06V147.712C157.686 147.707 157.685 147.702 157.682 147.698C157.68 147.693 157.676 147.69 157.671 147.687C157.613 147.655 157.549 147.657 157.479 147.691C157.413 147.724 157.402 147.766 157.447 147.819C157.456 147.831 157.48 147.845 157.518 147.863C157.538 147.873 157.554 147.89 157.563 147.91C157.573 147.93 157.575 147.953 157.569 147.975C157.553 148.043 157.505 148.091 157.426 148.119C157.416 148.123 157.405 148.124 157.394 148.123C157.383 148.123 157.373 148.12 157.363 148.115C157.354 148.11 157.345 148.103 157.339 148.094C157.332 148.086 157.327 148.076 157.324 148.066C157.283 147.916 157.187 147.879 157.037 147.953C157.027 147.958 157.015 147.96 157.003 147.96C156.992 147.96 156.981 147.958 156.97 147.953C156.96 147.948 156.95 147.941 156.943 147.932C156.936 147.923 156.931 147.912 156.928 147.901L156.863 147.629C156.861 147.619 156.861 147.609 156.863 147.599C156.865 147.589 156.869 147.58 156.875 147.572C156.881 147.564 156.889 147.557 156.898 147.552C156.907 147.547 156.917 147.544 156.927 147.543L157.07 147.534C157.082 147.533 157.093 147.53 157.103 147.524C157.114 147.519 157.123 147.511 157.129 147.502C157.136 147.492 157.141 147.481 157.143 147.47C157.146 147.459 157.146 147.447 157.143 147.435L156.989 146.8C156.987 146.79 156.986 146.779 156.988 146.769C156.99 146.758 156.994 146.748 157.001 146.739C157.007 146.73 157.015 146.723 157.025 146.718C157.034 146.713 157.045 146.709 157.055 146.708C157.332 146.682 157.562 146.597 157.746 146.452C157.765 146.438 157.786 146.427 157.81 146.422C157.833 146.416 157.857 146.416 157.881 146.42C157.935 146.431 157.964 146.435 157.968 146.435C158.058 146.405 158.132 146.339 158.174 146.251C158.217 146.164 158.225 146.061 158.197 145.965C158.148 145.796 158.179 145.663 158.29 145.565C158.297 145.558 158.303 145.55 158.308 145.541C158.312 145.532 158.314 145.522 158.315 145.512C158.315 145.502 158.313 145.492 158.31 145.483C158.306 145.474 158.301 145.465 158.294 145.458C158.092 145.254 157.879 145.205 157.654 145.312C157.622 145.327 157.587 145.333 157.552 145.33C157.516 145.328 157.482 145.317 157.453 145.297C157.368 145.241 157.301 145.212 157.252 145.212C157.201 145.213 157.152 145.198 157.11 145.17C157.068 145.142 157.035 145.102 157.017 145.056C156.999 145.011 156.995 144.961 157.007 144.915C157.019 144.868 157.047 144.827 157.085 144.797C157.292 144.635 157.55 144.518 157.857 144.447C157.864 144.445 157.871 144.44 157.875 144.433C157.879 144.427 157.88 144.419 157.878 144.411V144.41C157.874 144.402 157.867 144.395 157.859 144.391C157.851 144.388 157.842 144.387 157.833 144.389L157.257 144.541C157.245 144.544 157.233 144.545 157.221 144.543C157.209 144.542 157.198 144.537 157.187 144.531C157.177 144.525 157.168 144.517 157.16 144.507C157.153 144.498 157.148 144.487 157.146 144.475L157.013 143.928C157.006 143.9 156.994 143.873 156.976 143.85C156.959 143.827 156.936 143.807 156.911 143.792L156.576 143.6C156.561 143.591 156.549 143.578 156.541 143.562C156.533 143.547 156.53 143.529 156.532 143.511C156.546 143.396 156.534 143.329 156.498 143.311C156.466 143.302 156.432 143.299 156.399 143.303L156.111 143.326C156.099 143.328 156.086 143.327 156.074 143.323C156.062 143.319 156.051 143.313 156.041 143.305C156.032 143.297 156.024 143.287 156.019 143.276C156.013 143.264 156.01 143.252 156.009 143.239L155.983 142.842C155.982 142.835 155.98 142.828 155.977 142.821C155.973 142.815 155.968 142.809 155.962 142.804C155.956 142.8 155.95 142.797 155.942 142.795C155.935 142.794 155.928 142.794 155.92 142.796L154.749 143.078C154.727 143.084 154.704 143.08 154.685 143.068C154.666 143.057 154.652 143.038 154.646 143.016L154.315 141.653C154.311 141.634 154.314 141.614 154.324 141.598C154.334 141.581 154.351 141.569 154.37 141.565L155.695 141.245C155.729 141.237 155.764 141.243 155.793 141.261C155.822 141.278 155.843 141.307 155.852 141.34L156.118 142.438C156.127 142.479 156.151 142.515 156.185 142.539C156.219 142.564 156.26 142.576 156.302 142.573L156.65 142.551C156.671 142.549 156.692 142.553 156.71 142.561C156.729 142.57 156.745 142.583 156.758 142.599C156.77 142.616 156.778 142.635 156.781 142.655C156.785 142.675 156.783 142.696 156.776 142.716C156.682 142.99 156.774 143.145 157.054 143.179C157.084 143.183 157.113 143.194 157.138 143.212C157.162 143.229 157.181 143.253 157.193 143.278C157.205 143.304 157.208 143.332 157.203 143.358C157.198 143.384 157.184 143.407 157.164 143.424C157.141 143.444 157.121 143.508 157.103 143.614C157.101 143.624 157.102 143.634 157.106 143.644C157.109 143.653 157.114 143.662 157.121 143.669C157.129 143.676 157.137 143.681 157.147 143.684C157.157 143.688 157.167 143.688 157.177 143.687C157.384 143.652 157.537 143.601 157.636 143.535C157.65 143.525 157.667 143.519 157.685 143.517C157.702 143.515 157.72 143.517 157.737 143.523C157.753 143.529 157.768 143.54 157.78 143.553C157.792 143.566 157.801 143.582 157.805 143.6L158.148 145.017C158.156 145.049 158.175 145.078 158.201 145.097C158.228 145.117 158.261 145.126 158.294 145.124L158.576 145.106C158.586 145.105 158.596 145.101 158.604 145.095C158.613 145.09 158.619 145.081 158.623 145.072C158.627 145.063 158.628 145.052 158.627 145.042C158.625 145.032 158.621 145.022 158.614 145.015C158.598 144.994 158.567 144.963 158.52 144.921C158.487 144.891 158.476 144.85 158.488 144.799C158.524 144.651 158.494 144.545 158.396 144.483C158.175 144.341 158.151 144.116 158.087 143.887C158.081 143.865 158.084 143.842 158.095 143.821C158.105 143.801 158.124 143.785 158.145 143.778C158.477 143.664 158.644 143.606 158.646 143.606C159.404 143.592 161.008 143.66 162.125 143.488C162.983 143.354 163.761 142.901 164.01 142.034C164.302 141.017 164.361 139.948 164.094 138.921C163.693 137.37 162.31 137.131 160.929 137.085C160.354 137.066 159.631 137.064 158.761 137.076C158.739 137.076 158.718 137.085 158.703 137.1C158.687 137.115 158.678 137.136 158.678 137.158L158.671 137.752C158.67 137.833 158.652 137.914 158.617 137.989L158.298 138.672C158.283 138.705 158.276 138.74 158.278 138.776C158.294 139.101 158.402 139.338 158.602 139.487C158.616 139.497 158.627 139.509 158.635 139.523C158.643 139.538 158.648 139.554 158.649 139.57L158.695 140.279C158.697 140.309 158.69 140.339 158.675 140.364C158.659 140.39 158.636 140.41 158.609 140.423C158.417 140.509 158.472 140.696 158.298 140.782C158.249 140.806 158.218 140.837 158.204 140.876C158.191 140.913 158.207 140.95 158.253 140.989C158.447 141.154 158.552 141.388 158.569 141.691C158.57 141.714 158.564 141.736 158.55 141.755C158.536 141.773 158.516 141.786 158.494 141.792L158.019 141.905C158.005 141.909 157.99 141.909 157.976 141.907C157.961 141.905 157.947 141.9 157.934 141.892C157.921 141.884 157.91 141.874 157.902 141.862C157.893 141.85 157.887 141.836 157.883 141.822L157.828 141.594C157.825 141.582 157.82 141.571 157.813 141.561C157.805 141.551 157.796 141.542 157.786 141.536C157.775 141.529 157.763 141.525 157.751 141.523C157.739 141.521 157.727 141.522 157.715 141.525L157.486 141.579C157.453 141.587 157.418 141.582 157.389 141.564C157.36 141.547 157.339 141.518 157.331 141.485L157.247 141.141C157.243 141.122 157.231 141.105 157.214 141.095C157.197 141.084 157.177 141.081 157.157 141.085L156.98 141.128C156.955 141.134 156.928 141.133 156.904 141.124C156.879 141.115 156.857 141.1 156.841 141.079L156.591 140.757C156.584 140.748 156.579 140.739 156.576 140.728C156.573 140.718 156.573 140.707 156.574 140.696C156.575 140.686 156.579 140.676 156.584 140.666C156.59 140.657 156.597 140.649 156.605 140.642L156.968 140.362C156.978 140.354 156.99 140.348 157.003 140.345C157.015 140.341 157.028 140.34 157.041 140.342C157.054 140.344 157.066 140.348 157.077 140.354C157.088 140.361 157.098 140.369 157.106 140.379L157.195 140.493C157.207 140.508 157.223 140.52 157.242 140.527C157.261 140.534 157.281 140.535 157.301 140.53L157.458 140.492C157.47 140.488 157.482 140.482 157.491 140.474C157.501 140.465 157.508 140.454 157.512 140.443C157.516 140.431 157.518 140.418 157.515 140.405C157.513 140.393 157.508 140.381 157.5 140.371L157.155 139.927C157.141 139.909 157.135 139.886 157.138 139.864C157.14 139.842 157.152 139.821 157.169 139.808L157.563 139.506C157.602 139.475 157.63 139.433 157.641 139.385C157.653 139.337 157.647 139.287 157.625 139.242C157.604 139.198 157.567 139.162 157.523 139.141C157.478 139.12 157.427 139.114 157.379 139.126L157.25 139.156C157.228 139.161 157.204 139.16 157.182 139.152C157.16 139.145 157.14 139.131 157.126 139.112L156.747 138.624C156.735 138.608 156.73 138.589 156.732 138.57C156.735 138.551 156.745 138.533 156.76 138.521L156.797 138.493C156.822 138.474 156.839 138.446 156.846 138.415C156.852 138.384 156.847 138.352 156.832 138.324C156.738 138.152 156.725 137.939 156.793 137.687C156.8 137.664 156.8 137.639 156.795 137.615C156.79 137.592 156.78 137.569 156.765 137.55L156.417 137.102C156.397 137.076 156.388 137.043 156.392 137.01C156.396 136.977 156.413 136.947 156.44 136.927L156.939 136.543C156.953 136.532 156.968 136.524 156.985 136.519C157.002 136.515 157.02 136.514 157.037 136.516C157.054 136.518 157.071 136.524 157.086 136.532C157.101 136.541 157.115 136.553 157.126 136.567L157.544 137.106C157.557 137.123 157.563 137.144 157.561 137.164C157.558 137.185 157.547 137.204 157.531 137.217L157.003 137.623C156.995 137.629 156.99 137.636 156.986 137.645C156.983 137.654 156.983 137.663 156.984 137.672C156.986 137.681 156.99 137.689 156.997 137.696C157.003 137.702 157.011 137.707 157.02 137.709L157.1 137.733C157.102 137.733 157.104 137.733 157.106 137.733C157.108 137.732 157.109 137.731 157.11 137.729C157.214 137.529 157.386 137.401 157.626 137.345C157.652 137.339 157.675 137.325 157.691 137.304C157.707 137.283 157.716 137.258 157.716 137.232V137.143C157.716 137.114 157.728 137.085 157.748 137.063C157.769 137.042 157.796 137.029 157.826 137.027L158.103 137.009C158.117 137.008 158.132 137.004 158.144 136.998C158.157 136.991 158.169 136.982 158.179 136.971C158.188 136.96 158.195 136.948 158.199 136.934C158.204 136.92 158.205 136.905 158.204 136.891C158.191 136.759 158.112 136.663 157.969 136.603C157.953 136.596 157.939 136.586 157.929 136.573C157.918 136.559 157.91 136.543 157.907 136.526C157.904 136.509 157.905 136.492 157.91 136.475C157.915 136.459 157.924 136.444 157.936 136.432L158.136 136.231C158.142 136.225 158.145 136.217 158.146 136.209C158.147 136.201 158.145 136.193 158.141 136.186C158.137 136.179 158.131 136.173 158.123 136.17C158.116 136.167 158.107 136.166 158.099 136.168C158.02 136.19 157.958 136.22 157.911 136.259C157.893 136.274 157.871 136.282 157.847 136.281C157.824 136.28 157.802 136.271 157.785 136.255C157.663 136.137 157.595 136.009 157.58 135.87C157.579 135.865 157.578 135.86 157.575 135.857C157.572 135.853 157.568 135.85 157.564 135.848C157.56 135.846 157.555 135.845 157.55 135.846C157.546 135.846 157.541 135.848 157.537 135.851L156.808 136.413C156.796 136.423 156.781 136.429 156.766 136.432C156.751 136.435 156.736 136.434 156.721 136.429C156.706 136.424 156.693 136.416 156.682 136.405C156.672 136.394 156.664 136.38 156.659 136.366C156.571 136.067 156.397 135.788 156.138 135.528C156.127 135.517 156.119 135.505 156.114 135.491C156.109 135.478 156.107 135.463 156.108 135.449C156.109 135.434 156.113 135.42 156.119 135.407C156.126 135.394 156.136 135.383 156.147 135.375L156.714 134.938C156.736 134.921 156.754 134.898 156.765 134.873C156.777 134.847 156.782 134.818 156.78 134.79L156.756 134.409C156.755 134.394 156.757 134.379 156.762 134.364C156.767 134.35 156.774 134.337 156.784 134.326C156.794 134.315 156.806 134.305 156.82 134.299C156.833 134.292 156.848 134.288 156.863 134.287L157.282 134.261C157.292 134.26 157.303 134.261 157.312 134.265C157.322 134.268 157.332 134.274 157.339 134.281C157.347 134.288 157.353 134.296 157.357 134.306C157.362 134.315 157.364 134.325 157.364 134.336L157.368 134.531C157.37 134.579 157.382 134.625 157.405 134.667C157.427 134.708 157.462 134.746 157.511 134.779C157.516 134.783 157.519 134.788 157.521 134.794C157.523 134.8 157.523 134.806 157.521 134.812C157.519 134.818 157.516 134.823 157.511 134.827C157.506 134.831 157.5 134.833 157.494 134.834C157.309 134.836 157.239 134.894 157.284 135.006C157.287 135.013 157.291 135.02 157.295 135.026L157.648 135.463C157.651 135.468 157.657 135.472 157.663 135.473C157.669 135.475 157.676 135.474 157.682 135.471C157.687 135.468 157.692 135.463 157.695 135.458C157.697 135.452 157.698 135.445 157.697 135.439L157.612 135.088C157.607 135.068 157.61 135.046 157.622 135.028C157.633 135.01 157.651 134.997 157.671 134.992L157.772 134.968C157.783 134.965 157.793 134.96 157.802 134.952C157.81 134.945 157.817 134.935 157.821 134.924C157.824 134.913 157.825 134.902 157.824 134.891C157.822 134.879 157.817 134.869 157.81 134.86L157.564 134.543C157.538 134.509 157.525 134.467 157.527 134.424C157.529 134.382 157.547 134.341 157.576 134.309C157.87 134.001 158.232 133.838 158.661 133.822ZM157.663 138.075L157.559 138.1C157.54 138.105 157.523 138.114 157.509 138.128C157.495 138.141 157.485 138.158 157.479 138.177C157.474 138.195 157.474 138.215 157.479 138.234C157.484 138.252 157.493 138.27 157.507 138.283L157.875 138.65C157.884 138.659 157.895 138.664 157.907 138.665C157.919 138.667 157.931 138.665 157.941 138.659C157.952 138.653 157.96 138.644 157.965 138.633C157.97 138.622 157.971 138.609 157.968 138.597L157.873 138.202C157.862 138.157 157.833 138.119 157.794 138.095C157.755 138.071 157.708 138.064 157.663 138.075ZM158.605 135.59C158.589 135.589 158.574 135.605 158.561 135.634C158.549 135.663 158.541 135.702 158.539 135.744C158.538 135.764 158.538 135.785 158.54 135.804C158.542 135.823 158.546 135.841 158.55 135.856C158.555 135.87 158.561 135.882 158.568 135.89C158.574 135.899 158.582 135.903 158.589 135.904C158.605 135.904 158.62 135.888 158.633 135.86C158.645 135.831 158.653 135.791 158.655 135.75C158.656 135.729 158.656 135.709 158.654 135.689C158.652 135.67 158.648 135.653 158.644 135.638C158.639 135.623 158.633 135.611 158.627 135.603C158.62 135.595 158.612 135.59 158.605 135.59ZM158.067 135.634C158.046 135.635 158.028 135.645 158.017 135.66C158.006 135.676 158.004 135.696 158.01 135.716C158.016 135.737 158.031 135.756 158.05 135.77C158.07 135.783 158.093 135.79 158.115 135.789C158.136 135.787 158.154 135.777 158.165 135.762C158.176 135.746 158.178 135.726 158.172 135.706C158.166 135.685 158.151 135.666 158.132 135.652C158.112 135.639 158.089 135.632 158.067 135.634ZM158.591 134.565C158.589 134.566 158.587 134.567 158.585 134.569L158.287 134.887C158.284 134.891 158.282 134.896 158.282 134.902C158.282 134.907 158.285 134.912 158.289 134.915L158.292 134.919C158.338 134.962 158.399 134.985 158.461 134.983C158.524 134.981 158.582 134.955 158.625 134.91L158.63 134.903C158.672 134.858 158.695 134.798 158.693 134.736C158.691 134.674 158.664 134.615 158.618 134.572L158.614 134.568C158.612 134.566 158.61 134.565 158.608 134.564C158.605 134.563 158.602 134.562 158.599 134.563C158.597 134.563 158.594 134.563 158.591 134.565Z" fill="white"/>
<path d="M155.897 152.515C156.022 152.515 156.123 152.616 156.123 152.741C156.123 152.866 156.022 152.966 155.897 152.966C155.772 152.966 155.67 152.866 155.67 152.741C155.67 152.616 155.772 152.515 155.897 152.515Z" fill="white"/>
<path d="M85.721 152.184C85.739 152.137 85.7921 152.114 85.8392 152.132L86.2201 152.277C86.2672 152.295 86.2909 152.348 86.2729 152.395L86.1312 152.764C86.1132 152.811 86.0604 152.835 86.0132 152.817L85.632 152.672C85.5849 152.654 85.5615 152.601 85.5795 152.554L85.721 152.184Z" fill="white"/>
<path fill-rule="evenodd" clip-rule="evenodd" d="M76.2317 133.803C80.5358 133.798 83.0429 133.8 83.7528 133.809C83.9373 133.811 84.3612 133.854 85.0243 133.938C85.0532 133.942 85.0804 133.954 85.1029 133.972C85.1254 133.991 85.1422 134.015 85.1513 134.043C85.2069 134.207 85.3143 134.289 85.4732 134.288C85.4867 134.288 85.5002 134.291 85.5125 134.297C85.5247 134.302 85.5355 134.311 85.5441 134.322C85.5526 134.332 85.5587 134.344 85.5618 134.358C85.5649 134.371 85.5651 134.385 85.5621 134.398L85.5077 134.65C85.5057 134.659 85.5057 134.668 85.5077 134.676C85.5097 134.685 85.5137 134.693 85.5193 134.7C85.5248 134.707 85.5319 134.713 85.5399 134.717C85.548 134.72 85.557 134.722 85.566 134.722H85.6388C85.6886 134.722 85.7371 134.707 85.778 134.679C85.8189 134.651 85.8504 134.611 85.8679 134.564L85.9884 134.242C85.9997 134.212 86.0226 134.188 86.0519 134.174C86.0811 134.161 86.1145 134.16 86.1447 134.171L86.7511 134.397C86.7597 134.4 86.7676 134.404 86.7743 134.41C86.781 134.417 86.7863 134.424 86.7901 134.432C86.7939 134.441 86.7962 134.449 86.7966 134.459C86.7969 134.467 86.7955 134.476 86.7924 134.485L86.5923 135.017C86.5845 135.038 86.5725 135.057 86.5568 135.072C86.5411 135.088 86.5219 135.1 86.5011 135.108C86.4803 135.116 86.4578 135.119 86.4357 135.117C86.4135 135.116 86.392 135.109 86.3725 135.099C86.2127 135.01 86.0838 134.997 85.9858 135.059C85.7501 135.214 85.5051 135.217 85.3978 134.963C85.3877 134.938 85.3708 134.917 85.3491 134.901C85.3274 134.886 85.3018 134.877 85.2756 134.875C85.2495 134.874 85.2237 134.88 85.2019 134.893C85.18 134.906 85.1628 134.926 85.1526 134.95C85.1305 135.002 85.1237 135.093 85.1316 135.225C85.1325 135.24 85.1373 135.253 85.1458 135.265C85.1542 135.276 85.1659 135.285 85.1793 135.29L85.999 135.595C86.0202 135.603 86.0435 135.603 86.0648 135.596C86.086 135.588 86.1041 135.573 86.1157 135.554C86.1572 135.483 86.1862 135.407 86.203 135.326C86.2055 135.314 86.2105 135.303 86.2175 135.294C86.2246 135.284 86.2336 135.276 86.2439 135.271C86.2543 135.265 86.2659 135.261 86.2778 135.26C86.2896 135.259 86.3017 135.261 86.3129 135.265L86.6097 135.376C86.6232 135.381 86.6355 135.389 86.6461 135.398C86.6566 135.408 86.6652 135.42 86.6712 135.433C86.6772 135.446 86.6807 135.46 86.6812 135.474C86.6817 135.488 86.6794 135.502 86.6744 135.516L86.5433 135.866C86.5363 135.885 86.5356 135.906 86.5414 135.925C86.5471 135.944 86.559 135.961 86.5752 135.974C86.6714 136.046 86.6917 136.135 86.6361 136.24C86.6232 136.265 86.6031 136.283 86.5784 136.294C86.5537 136.305 86.5256 136.308 86.4979 136.302C86.4701 136.295 86.4441 136.281 86.4231 136.26C86.4021 136.239 86.3873 136.212 86.3806 136.184C86.3656 136.12 86.3672 136.049 86.3857 135.968C86.388 135.959 86.3864 135.948 86.3815 135.939C86.3767 135.93 86.3688 135.923 86.3593 135.92L86.3222 135.907C86.3207 135.906 86.3188 135.906 86.3171 135.906C86.3155 135.906 86.314 135.906 86.3126 135.907C86.3111 135.908 86.3094 135.909 86.3084 135.91C86.3073 135.911 86.3066 135.913 86.3061 135.914L85.9765 136.792C85.9722 136.804 85.9656 136.814 85.9572 136.823C85.9488 136.832 85.9387 136.84 85.9275 136.845C85.9163 136.85 85.904 136.853 85.8917 136.854C85.8795 136.854 85.8674 136.852 85.856 136.847L85.2228 136.613C85.2141 136.609 85.2046 136.608 85.1954 136.61C85.1862 136.611 85.1773 136.614 85.1696 136.619C85.162 136.625 85.1559 136.632 85.1516 136.64C85.1472 136.648 85.1449 136.657 85.1448 136.667V137.505C85.1448 137.536 85.1508 137.567 85.1629 137.596C85.1749 137.625 85.1928 137.651 85.2151 137.674L85.3169 137.777C85.3229 137.783 85.3276 137.79 85.3304 137.798C85.3332 137.806 85.334 137.815 85.333 137.824C85.332 137.832 85.3292 137.84 85.3246 137.847C85.32 137.855 85.3136 137.861 85.3063 137.865L85.2679 137.89C85.2514 137.9 85.2318 137.904 85.2128 137.901C85.1938 137.898 85.1764 137.888 85.1645 137.873C84.8952 137.54 84.5308 137.346 84.0708 137.292C82.9169 137.156 81.7143 137.109 80.4632 137.152C80.4438 137.153 80.4253 137.161 80.4116 137.175C80.398 137.188 80.3904 137.207 80.3904 137.226V141.611C80.3904 141.629 80.3977 141.647 80.411 141.661C80.4244 141.674 80.4428 141.682 80.4619 141.682C81.1982 141.688 81.9531 141.679 82.7265 141.656C83.0611 141.645 83.3009 141.599 83.4457 141.516C83.4747 141.5 83.5093 141.495 83.5424 141.504C83.5971 141.519 83.6521 141.557 83.7077 141.619C83.7154 141.627 83.7205 141.637 83.7219 141.648C83.7233 141.659 83.7209 141.67 83.7154 141.68C83.7099 141.689 83.7014 141.697 83.6913 141.701C83.6811 141.706 83.6696 141.707 83.6587 141.704L83.4709 141.665C83.4556 141.66 83.439 141.662 83.4251 141.67C83.4112 141.678 83.4012 141.691 83.3967 141.706C83.3924 141.721 83.3942 141.737 83.4019 141.751C83.4096 141.765 83.4224 141.775 83.4377 141.78L83.6059 141.843C83.6274 141.851 83.6458 141.866 83.6581 141.885C83.6703 141.904 83.6758 141.927 83.6735 141.95C83.6559 142.137 83.5684 142.224 83.4112 142.211C83.4022 142.21 83.3929 142.211 83.3842 142.214C83.3755 142.217 83.3673 142.221 83.3603 142.227C83.3534 142.233 83.3475 142.24 83.3433 142.248C83.339 142.256 83.3364 142.266 83.3355 142.275C83.3223 142.411 83.3473 142.505 83.41 142.557C83.4216 142.566 83.4356 142.573 83.4506 142.574C83.4655 142.576 83.4808 142.574 83.4944 142.567C83.508 142.561 83.5196 142.55 83.5276 142.538C83.5355 142.525 83.5396 142.51 83.5395 142.495C83.5377 142.327 83.6221 142.195 83.7924 142.098C83.8168 142.084 83.8373 142.064 83.8511 142.04C83.8649 142.016 83.8716 141.988 83.8707 141.961C83.869 141.892 83.8813 141.851 83.9078 141.836C83.9352 141.821 83.9825 141.821 84.0496 141.839C84.1298 141.861 84.1876 141.865 84.2229 141.85C84.2441 141.841 84.2632 141.828 84.2787 141.812C84.2942 141.795 84.3061 141.776 84.3132 141.755L84.4282 141.423C84.4331 141.41 84.4407 141.397 84.4504 141.387C84.4602 141.376 84.4719 141.367 84.4849 141.361C84.4979 141.355 84.5121 141.352 84.5265 141.351C84.5408 141.35 84.5552 141.352 84.5687 141.357L85.2151 141.598C85.2343 141.605 85.2498 141.62 85.2582 141.638C85.2667 141.657 85.2672 141.679 85.2599 141.698L85.0217 142.335C85.0144 142.355 85.0027 142.373 84.9876 142.387C84.9725 142.402 84.9541 142.413 84.9341 142.42C84.9141 142.426 84.8926 142.429 84.8716 142.426C84.8506 142.424 84.8303 142.416 84.8123 142.405C84.6746 142.32 84.519 142.256 84.346 142.215C84.3423 142.214 84.3381 142.214 84.3344 142.215C84.3307 142.216 84.3274 142.219 84.3254 142.223C84.3234 142.226 84.3225 142.23 84.3231 142.234C84.3238 142.238 84.3259 142.242 84.3289 142.244L84.6215 142.536C84.64 142.554 84.6647 142.564 84.6902 142.564C84.7157 142.564 84.7402 142.554 84.7582 142.536L84.7978 142.496C84.8116 142.483 84.8292 142.473 84.8487 142.469C84.8681 142.465 84.8886 142.466 84.9077 142.473L85.9101 142.846C85.9347 142.855 85.962 142.854 85.9858 142.843C86.0096 142.832 86.0282 142.812 86.0374 142.788L86.1447 142.504C86.1478 142.496 86.1527 142.488 86.1589 142.481C86.1651 142.474 86.1724 142.468 86.1808 142.465C86.1891 142.461 86.1983 142.458 86.2075 142.458C86.2167 142.458 86.2259 142.459 86.2346 142.462L86.7672 142.661C86.7811 142.666 86.7936 142.674 86.804 142.685C86.8143 142.695 86.8221 142.708 86.8268 142.722C86.8315 142.736 86.8332 142.751 86.8314 142.765C86.8295 142.78 86.8242 142.794 86.8162 142.806C86.7624 142.89 86.7242 142.981 86.7021 143.078C86.7002 143.088 86.7017 143.098 86.7063 143.106C86.7109 143.115 86.7184 143.122 86.7273 143.125L87.2241 143.309C87.232 143.312 87.2388 143.317 87.2444 143.324C87.2501 143.33 87.2545 143.337 87.2567 143.345C87.2589 143.353 87.259 143.361 87.2573 143.369C87.2556 143.377 87.252 143.385 87.2467 143.391C87.1823 143.468 87.1341 143.597 87.1023 143.778C87.1003 143.788 87.0957 143.798 87.0895 143.807C87.0832 143.816 87.0752 143.823 87.0659 143.828C87.0566 143.833 87.0463 143.837 87.0356 143.838C87.025 143.838 87.0141 143.837 87.0041 143.833L86.5829 143.676C86.5744 143.673 86.5667 143.668 86.56 143.662C86.5534 143.656 86.5477 143.649 86.5439 143.641C86.5401 143.632 86.5382 143.624 86.5378 143.615C86.5375 143.605 86.5388 143.596 86.542 143.588L86.5791 143.489C86.5876 143.466 86.5881 143.441 86.5803 143.419C86.5726 143.396 86.5573 143.376 86.5368 143.364C86.4053 143.281 86.2952 143.282 86.2069 143.366C86.1901 143.382 86.1698 143.393 86.1479 143.399C86.1261 143.405 86.1031 143.405 86.0812 143.401L86.04 143.393C86.0203 143.388 85.9998 143.39 85.9813 143.398C85.9629 143.406 85.9473 143.419 85.9369 143.436C85.8185 143.624 85.8162 143.788 85.9301 143.927C85.9375 143.936 85.9425 143.947 85.9443 143.959C85.946 143.97 85.9447 143.982 85.9404 143.993C85.9361 144.004 85.9287 144.013 85.9195 144.021C85.9103 144.028 85.8994 144.032 85.8879 144.034C85.8331 144.041 85.7676 144.075 85.6916 144.137C85.6707 144.154 85.6455 144.165 85.6188 144.169C85.5922 144.173 85.5648 144.17 85.5396 144.161L85.0082 143.963C84.9999 143.96 84.9912 143.958 84.9824 143.959C84.9736 143.96 84.9647 143.962 84.957 143.967C84.9493 143.971 84.9426 143.977 84.9373 143.984C84.932 143.991 84.9283 143.999 84.9264 144.008L84.8745 144.243C84.8719 144.255 84.8668 144.266 84.8593 144.276C84.8518 144.286 84.842 144.295 84.831 144.301C84.8199 144.306 84.8075 144.31 84.7949 144.311C84.7823 144.311 84.7698 144.309 84.7582 144.304C84.6796 144.274 84.5908 144.281 84.492 144.326C84.4775 144.333 84.4608 144.334 84.4453 144.33C84.4298 144.326 84.4163 144.316 84.4072 144.303C84.3982 144.29 84.3944 144.274 84.396 144.258C84.3976 144.242 84.4047 144.227 84.4163 144.216L84.684 143.95C84.6987 143.935 84.7082 143.916 84.7114 143.895C84.7146 143.875 84.7114 143.854 84.7021 143.835C84.6927 143.817 84.6777 143.802 84.6592 143.792C84.6408 143.782 84.6196 143.779 84.599 143.782C84.3245 143.822 84.0805 143.784 83.8669 143.668C83.8575 143.663 83.8463 143.662 83.8359 143.665C83.8257 143.668 83.8168 143.674 83.8111 143.683C83.7926 143.713 83.8005 143.742 83.835 143.771C83.9577 143.877 84.1084 143.933 84.2867 143.939C84.2998 143.94 84.3124 143.944 84.3238 143.95C84.3352 143.956 84.3449 143.965 84.3521 143.976C84.3593 143.987 84.3639 143.999 84.3654 144.012C84.3668 144.025 84.3654 144.038 84.3608 144.05L84.2123 144.445C84.2034 144.469 84.1865 144.489 84.1643 144.502C84.1421 144.515 84.1159 144.52 84.0905 144.516C83.9166 144.488 83.7666 144.413 83.6404 144.293C83.5556 144.212 83.4748 144.189 83.398 144.225C83.3772 144.235 83.3607 144.251 83.351 144.271C83.3413 144.291 83.3389 144.315 83.3442 144.338C83.3496 144.361 83.3624 144.382 83.3806 144.399C83.3989 144.415 83.4218 144.426 83.4457 144.43C83.564 144.449 83.6372 144.492 83.6655 144.559C83.6723 144.575 83.6731 144.593 83.6681 144.61C83.663 144.627 83.6522 144.644 83.6365 144.658C83.6208 144.672 83.6005 144.683 83.5778 144.691C83.5552 144.699 83.5308 144.702 83.5066 144.702C82.3589 144.677 81.3439 144.671 80.4619 144.682C80.4426 144.682 80.424 144.69 80.4104 144.703C80.3967 144.717 80.3891 144.735 80.3891 144.755V149.433C80.3891 149.448 80.3949 149.463 80.4055 149.474C80.4161 149.485 80.4306 149.491 80.4458 149.492C81.6554 149.529 82.7474 149.511 83.7212 149.435C83.9967 149.414 84.3321 149.338 84.7275 149.209C84.7946 149.187 84.8502 149.14 84.8825 149.079L84.9447 148.961C84.9502 148.95 84.9578 148.941 84.967 148.933C84.9761 148.925 84.9868 148.919 84.9982 148.916C85.0096 148.912 85.0217 148.911 85.0337 148.912C85.0456 148.913 85.0573 148.917 85.0678 148.923C85.2576 149.024 85.3972 148.972 85.4864 148.767C85.4905 148.758 85.4973 148.75 85.5057 148.744C85.5142 148.738 85.5245 148.735 85.5347 148.735C85.5449 148.734 85.5549 148.737 85.5637 148.742C85.5725 148.748 85.5797 148.755 85.5843 148.764C85.6497 148.895 85.6047 149.005 85.4493 149.097C85.4368 149.104 85.4258 149.114 85.4171 149.126C85.4085 149.137 85.4024 149.151 85.3991 149.166L85.2785 149.717C85.274 149.738 85.2747 149.76 85.2805 149.782C85.2862 149.803 85.297 149.822 85.3117 149.839L85.3501 149.864C85.3574 149.869 85.3658 149.872 85.3746 149.873C85.3834 149.874 85.3926 149.873 85.401 149.871C85.4094 149.868 85.4169 149.863 85.4232 149.857C85.4295 149.85 85.4345 149.843 85.4374 149.835L85.7103 149.106C85.7143 149.096 85.7203 149.086 85.7281 149.077C85.7359 149.069 85.7453 149.062 85.7558 149.057C85.7662 149.052 85.7775 149.05 85.789 149.049C85.8004 149.049 85.812 149.051 85.8228 149.055L86.6493 149.362C86.6709 149.37 86.6897 149.384 86.7031 149.403C86.7166 149.421 86.724 149.444 86.7247 149.466C86.7309 149.618 86.8205 149.709 86.9934 149.74C87.0141 149.743 87.0335 149.753 87.0492 149.766C87.0649 149.78 87.0767 149.798 87.083 149.818C87.0893 149.838 87.0899 149.86 87.0849 149.88C87.08 149.9 87.0695 149.919 87.0547 149.934L86.9606 150.029C86.9476 150.042 86.9314 150.051 86.9138 150.056C86.8963 150.061 86.8776 150.062 86.8597 150.058L86.628 150.007C86.6041 150.002 86.5792 150.006 86.5578 150.018C86.5364 150.029 86.5197 150.048 86.5114 150.071L86.4147 150.328C86.4059 150.351 86.39 150.37 86.3693 150.383C86.3485 150.396 86.324 150.402 86.2997 150.4C86.252 150.395 86.2131 150.397 86.183 150.405C86.1425 150.415 86.1121 150.444 86.0918 150.49C86.0292 150.632 85.9918 150.712 85.9804 150.731C85.9687 150.748 85.9511 150.761 85.9307 150.767C85.9103 150.773 85.8885 150.771 85.8692 150.762C85.7703 150.717 85.6852 150.692 85.6137 150.687C85.5972 150.686 85.5806 150.69 85.5669 150.699C85.5533 150.709 85.5435 150.723 85.5392 150.739C85.535 150.755 85.5364 150.772 85.5434 150.787C85.5505 150.802 85.5628 150.814 85.5779 150.82L85.7699 150.916C85.7847 150.923 85.7964 150.935 85.8025 150.951C85.8085 150.966 85.8088 150.983 85.8031 150.999L85.701 151.269C85.6973 151.28 85.6913 151.289 85.6836 151.296C85.6759 151.304 85.6665 151.31 85.6562 151.314C85.6459 151.318 85.635 151.319 85.624 151.318C85.613 151.317 85.6021 151.314 85.5924 151.309L85.3701 151.186C85.356 151.178 85.345 151.165 85.3394 151.15C85.3339 151.135 85.3339 151.118 85.3394 151.103L85.4587 150.786C85.4612 150.779 85.4612 150.772 85.4587 150.765C85.4454 150.725 85.4056 150.713 85.3394 150.727C85.3255 150.73 85.3132 150.738 85.3053 150.75C85.2974 150.762 85.2942 150.776 85.2969 150.79C85.3216 150.917 85.3196 151.051 85.2905 151.191C85.2855 151.214 85.2881 151.238 85.2976 151.26C85.3071 151.281 85.323 151.3 85.3433 151.312C85.3645 151.325 85.4008 151.334 85.4519 151.339C85.4996 151.345 85.5346 151.362 85.5566 151.392C85.6017 151.453 85.6203 151.539 85.6124 151.652C85.6108 151.673 85.6016 151.692 85.5869 151.707C85.5723 151.721 85.553 151.729 85.5328 151.73C85.2084 151.739 85.2415 152.188 85.3514 152.403C85.3653 152.43 85.3721 152.461 85.3713 152.492C85.3705 152.523 85.3622 152.553 85.3469 152.579C85.3315 152.606 85.3096 152.629 85.2834 152.645C85.2571 152.661 85.2271 152.67 85.1964 152.671C84.6574 152.699 83.8534 152.782 83.2244 152.782C81.1292 152.783 78.8027 152.784 76.2449 152.786C76.2278 152.786 76.2113 152.779 76.1992 152.766C76.1871 152.754 76.1802 152.737 76.1802 152.72V133.855C76.1802 133.841 76.1857 133.828 76.1953 133.818C76.205 133.808 76.218 133.803 76.2317 133.803ZM83.7351 143.001C83.7064 143.009 83.6784 143.023 83.6526 143.041C83.6268 143.059 83.6036 143.082 83.5846 143.109L83.5727 143.125C83.5681 143.132 83.5664 143.14 83.5679 143.148C83.5693 143.156 83.574 143.163 83.5807 143.168L83.8852 143.389C83.8921 143.393 83.9006 143.395 83.9088 143.393C83.9169 143.392 83.9243 143.387 83.9291 143.381L83.941 143.365C83.9793 143.312 83.999 143.249 83.9958 143.19C83.9925 143.13 83.9664 143.079 83.9236 143.048L83.8933 143.026C83.8718 143.01 83.8466 143 83.8195 142.996C83.7924 142.992 83.7637 142.994 83.7351 143.001ZM84.5432 142.883C84.5128 142.871 84.475 142.88 84.4382 142.907C84.4013 142.935 84.3681 142.98 84.3463 143.032C84.3246 143.084 84.316 143.139 84.3222 143.185C84.3284 143.23 84.3491 143.263 84.3795 143.276C84.41 143.288 84.4477 143.28 84.4846 143.252C84.5215 143.224 84.5547 143.179 84.5764 143.127C84.5981 143.075 84.6068 143.02 84.6006 142.975C84.5944 142.929 84.5737 142.896 84.5432 142.883Z" fill="white"/>
<path d="M175.88 138.037C175.912 138.037 175.937 138.062 175.937 138.094V152.723C175.937 152.754 175.912 152.779 175.88 152.779H172.026C171.995 152.779 171.969 152.754 171.969 152.723V138.094C171.969 138.062 171.995 138.037 172.026 138.037H175.88Z" fill="white"/>
<path d="M157.23 152.051C157.281 152.042 157.33 152.076 157.34 152.126L157.42 152.565C157.43 152.616 157.396 152.665 157.345 152.674L156.905 152.755C156.854 152.764 156.805 152.731 156.795 152.68L156.714 152.241C156.705 152.19 156.739 152.141 156.79 152.132L157.23 152.051Z" fill="white"/>
<path d="M86.6255 152.431C86.6367 152.433 86.6471 152.438 86.6557 152.446C86.6643 152.454 86.6709 152.463 86.6744 152.474C86.678 152.484 86.6783 152.496 86.6757 152.506C86.6732 152.517 86.6678 152.526 86.6599 152.534C86.6432 152.55 86.6149 152.544 86.5752 152.518C86.5461 152.499 86.5406 152.476 86.5591 152.452C86.5741 152.432 86.5963 152.424 86.6255 152.431Z" fill="white"/>
<path d="M154.66 151.81C154.778 151.811 154.873 151.897 154.872 152.002C154.871 152.107 154.774 152.192 154.657 152.191C154.539 152.19 154.444 152.103 154.445 151.999C154.446 151.894 154.542 151.809 154.66 151.81Z" fill="white"/>
<path d="M86.3516 150.67C86.3667 150.627 86.4136 150.605 86.4563 150.62L87.4626 150.975C87.5053 150.99 87.5277 151.037 87.5125 151.08L87.1562 152.083C87.141 152.125 87.0941 152.147 87.0514 152.132L86.0451 151.777C86.0024 151.762 85.9801 151.715 85.9952 151.673L86.3516 150.67Z" fill="white"/>
<path d="M156.511 151.651C156.572 151.632 156.636 151.665 156.655 151.726L156.717 151.922C156.736 151.983 156.703 152.047 156.642 152.066L156.442 152.129C156.381 152.148 156.317 152.114 156.298 152.053L156.236 151.857C156.217 151.797 156.251 151.732 156.312 151.713L156.511 151.651Z" fill="white"/>
<path d="M85.5193 151.91C85.6022 151.918 85.665 151.973 85.6594 152.033C85.6537 152.093 85.5819 152.136 85.499 152.128C85.4159 152.12 85.3532 152.065 85.3588 152.005C85.3645 151.945 85.4363 151.902 85.5193 151.91Z" fill="white"/>
<path d="M155.909 151.706C155.924 151.71 155.938 151.719 155.949 151.731C155.96 151.744 155.967 151.761 155.97 151.78C155.973 151.799 155.972 151.819 155.966 151.84C155.961 151.86 155.952 151.88 155.939 151.898C155.906 151.943 155.87 151.957 155.829 151.94C155.808 151.931 155.789 151.917 155.774 151.899C155.759 151.881 155.749 151.86 155.746 151.839C155.742 151.817 155.745 151.796 155.754 151.778C155.762 151.759 155.777 151.745 155.795 151.735C155.844 151.71 155.882 151.7 155.909 151.706Z" fill="white"/>
<path d="M88.1966 151.428L88.2956 151.457C88.3628 151.478 88.4008 151.548 88.3806 151.615L88.3381 151.757C88.3179 151.824 88.2471 151.862 88.1799 151.842L88.0809 151.812C88.0137 151.792 87.9754 151.721 87.9956 151.654L88.0381 151.513C88.0583 151.446 88.1294 151.408 88.1966 151.428Z" fill="white"/>
<path d="M152.679 151.428C152.77 151.428 152.844 151.502 152.844 151.593C152.844 151.684 152.77 151.758 152.679 151.758C152.587 151.758 152.513 151.684 152.513 151.593C152.513 151.502 152.587 151.428 152.679 151.428Z" fill="white"/>
<path d="M156.977 151.44C156.997 151.447 157.015 151.459 157.029 151.475C157.172 151.641 157.242 151.729 157.238 151.738C157.234 151.746 157.122 151.743 156.902 151.73C156.881 151.729 156.86 151.721 156.842 151.709C156.824 151.697 156.81 151.681 156.801 151.661C156.774 151.604 156.77 151.555 156.79 151.515C156.81 151.474 156.851 151.448 156.914 151.436C156.935 151.431 156.957 151.433 156.977 151.44Z" fill="white"/>
<path d="M154.419 150.821C154.5 150.802 154.582 150.852 154.602 150.933L154.668 151.205C154.688 151.287 154.638 151.369 154.556 151.389L154.265 151.458C154.183 151.478 154.101 151.428 154.081 151.347L154.015 151.075C153.996 150.993 154.046 150.911 154.128 150.892L154.419 150.821Z" fill="white"/>
<path d="M158.525 151.016C158.594 151.023 158.641 151.115 158.629 151.221C158.618 151.326 158.553 151.406 158.484 151.399C158.415 151.391 158.368 151.3 158.379 151.194C158.391 151.088 158.456 151.008 158.525 151.016Z" fill="white"/>
<path d="M156.339 150.398C156.382 150.388 156.426 150.414 156.436 150.458L156.597 151.133C156.608 151.176 156.581 151.22 156.538 151.23L155.86 151.391C155.816 151.401 155.773 151.374 155.763 151.331L155.601 150.656C155.591 150.613 155.618 150.569 155.661 150.559L156.339 150.398Z" fill="white"/>
<path d="M151.083 150.084C151.134 150.06 151.196 150.083 151.22 150.134L151.479 150.693C151.502 150.744 151.48 150.805 151.428 150.829L150.868 151.087C150.816 151.111 150.755 151.089 150.731 151.037L150.472 150.479C150.448 150.427 150.471 150.366 150.523 150.342L151.083 150.084Z" fill="white"/>
<path d="M88.2733 150.346C88.29 150.296 88.3447 150.268 88.3954 150.285L88.8182 150.423C88.8689 150.44 88.8964 150.494 88.8797 150.545L88.736 150.981C88.7194 151.031 88.6646 151.059 88.6139 151.042L88.1911 150.904C88.1405 150.887 88.113 150.833 88.1296 150.782L88.2733 150.346Z" fill="white"/>
<path d="M153.082 149.209C153.141 149.165 153.224 149.178 153.268 149.236L153.948 150.146C153.992 150.204 153.98 150.287 153.921 150.331L153.008 151.009C152.95 151.053 152.867 151.041 152.823 150.982L152.142 150.072C152.098 150.014 152.111 149.931 152.169 149.888L153.082 149.209Z" fill="white"/>
<path d="M157.153 150.269C157.198 150.254 157.246 150.278 157.261 150.322L157.349 150.579C157.364 150.624 157.34 150.672 157.296 150.687L157.05 150.77C157.006 150.785 156.958 150.761 156.943 150.717L156.855 150.46C156.84 150.416 156.863 150.368 156.908 150.353L157.153 150.269Z" fill="white"/>
<path d="M87.538 150.059L87.5618 150.064C87.6016 150.074 87.6323 150.115 87.6469 150.178C87.6616 150.24 87.6589 150.32 87.6398 150.4L87.6321 150.431C87.6286 150.445 87.6196 150.457 87.6073 150.465C87.5949 150.473 87.5799 150.475 87.5657 150.472L87.3485 150.421C87.3344 150.417 87.322 150.408 87.3144 150.396C87.3067 150.384 87.3044 150.369 87.3076 150.355L87.3153 150.322C87.3345 150.243 87.3687 150.17 87.4104 150.121C87.4521 150.072 87.4981 150.05 87.538 150.059Z" fill="white"/>
<path d="M89.1027 149.365C89.1193 149.324 89.1664 149.304 89.2078 149.32L89.7269 149.527C89.7683 149.544 89.7882 149.591 89.7717 149.632L89.5593 150.161C89.5427 150.203 89.4957 150.223 89.4543 150.206L88.9355 149.999C88.8941 149.983 88.8738 149.936 88.8904 149.895L89.1027 149.365Z" fill="white"/>
<path d="M157.175 149.997C157.204 149.997 157.228 150.021 157.228 150.05C157.228 150.079 157.204 150.103 157.175 150.103C157.145 150.102 157.122 150.079 157.122 150.05C157.122 150.021 157.145 149.997 157.175 149.997Z" fill="white"/>
<path d="M156.796 149.577C156.879 149.577 156.947 149.645 156.947 149.728C156.947 149.811 156.879 149.878 156.796 149.878C156.713 149.878 156.645 149.811 156.645 149.728C156.645 149.645 156.713 149.577 156.796 149.577Z" fill="white"/>
<path d="M87.5589 148.645C87.5877 148.632 87.6206 148.631 87.6505 148.642L88.3391 148.897C88.3523 148.902 88.3646 148.91 88.3748 148.92C88.385 148.93 88.3932 148.942 88.3987 148.955C88.4041 148.968 88.4066 148.982 88.4064 148.996C88.4062 149.011 88.4032 149.025 88.3974 149.038C88.3162 149.221 88.3007 149.424 88.351 149.647C88.3574 149.676 88.3561 149.706 88.3468 149.734C88.3375 149.762 88.3208 149.787 88.2985 149.807C88.276 149.826 88.2487 149.839 88.2195 149.844C88.1903 149.849 88.1602 149.847 88.1325 149.836L87.2783 149.519C87.2589 149.512 87.2431 149.497 87.2345 149.478C87.2258 149.459 87.2249 149.437 87.2319 149.417L87.4968 148.711C87.5077 148.682 87.5302 148.658 87.5589 148.645Z" fill="white"/>
<path d="M156.254 149.105C156.304 149.092 156.355 149.123 156.368 149.173L156.458 149.534C156.47 149.585 156.439 149.635 156.389 149.648L156.011 149.741C155.96 149.753 155.909 149.723 155.897 149.673L155.807 149.311C155.795 149.261 155.826 149.21 155.876 149.198L156.254 149.105Z" fill="white"/>
<path d="M158.543 149.367C158.595 149.373 158.632 149.429 158.624 149.492C158.617 149.555 158.568 149.601 158.516 149.595C158.464 149.589 158.427 149.533 158.435 149.47C158.442 149.407 158.491 149.361 158.543 149.367Z" fill="white"/>
<path d="M155.086 149.227C155.13 149.206 155.171 149.215 155.207 149.254C155.28 149.334 155.309 149.396 155.293 149.441C155.276 149.486 155.213 149.516 155.105 149.531C155.053 149.537 155.016 149.518 154.996 149.473C154.98 149.439 154.983 149.394 155.004 149.337C155.025 149.279 155.053 149.242 155.086 149.227Z" fill="white"/>
<path d="M90.0465 149.341C90.0879 149.332 90.1279 149.354 90.1358 149.389C90.1437 149.425 90.1166 149.461 90.0752 149.47C90.0338 149.479 89.9939 149.458 89.9859 149.422C89.978 149.387 90.0051 149.35 90.0465 149.341Z" fill="white"/>
<path d="M88.8134 148.674C88.8354 148.662 88.8534 148.665 88.8675 148.681C88.9081 148.727 88.9077 148.779 88.8662 148.838C88.8547 148.854 88.8388 148.859 88.8185 148.854C88.8005 148.85 88.785 148.84 88.7737 148.826C88.7625 148.812 88.7559 148.794 88.7554 148.774C88.7548 148.755 88.7602 148.735 88.7705 148.717C88.7808 148.7 88.7958 148.685 88.8134 148.674Z" fill="white"/>
<path d="M155.045 147.138C155.078 147.113 155.125 147.119 155.151 147.152L155.813 147.996C155.839 148.029 155.833 148.076 155.8 148.102L154.953 148.761C154.92 148.787 154.872 148.781 154.846 148.749L154.184 147.904C154.159 147.871 154.165 147.824 154.198 147.798L155.045 147.138Z" fill="white"/>
<path d="M86.0297 148.653C86.0387 148.657 86.0463 148.665 86.0512 148.674C86.0562 148.683 86.0585 148.694 86.0577 148.705C86.0569 148.716 86.0531 148.727 86.0467 148.735C86.0308 148.759 86.009 148.769 85.9816 148.764C85.9733 148.763 85.9653 148.76 85.9584 148.755C85.9516 148.75 85.946 148.743 85.9423 148.736C85.9387 148.728 85.9371 148.72 85.9375 148.712C85.9379 148.704 85.9402 148.696 85.9446 148.689C85.9614 148.664 85.98 148.651 86.0003 148.648C86.0104 148.646 86.0206 148.648 86.0297 148.653Z" fill="white"/>
<path d="M86.5182 148.425C86.6088 148.425 86.6825 148.498 86.6825 148.589C86.6825 148.679 86.6088 148.752 86.5182 148.752C86.4275 148.752 86.3538 148.679 86.3538 148.589C86.3538 148.498 86.4275 148.425 86.5182 148.425Z" fill="white"/>
<path d="M156.143 148.584C156.179 148.584 156.208 148.612 156.208 148.648C156.208 148.684 156.179 148.713 156.143 148.713C156.107 148.713 156.078 148.684 156.078 148.648C156.078 148.612 156.107 148.584 156.143 148.584Z" fill="white"/>
<path d="M158.51 148.588C158.535 148.572 158.57 148.581 158.588 148.609C158.607 148.637 158.601 148.674 158.576 148.69C158.551 148.706 158.516 148.696 158.497 148.668C158.479 148.64 158.484 148.604 158.51 148.588Z" fill="white"/>
<path d="M153.098 148.015C153.155 148.003 153.21 148.039 153.222 148.096L153.294 148.442C153.305 148.498 153.269 148.554 153.212 148.566L152.852 148.64C152.795 148.652 152.74 148.615 152.728 148.559L152.656 148.213C152.645 148.156 152.681 148.101 152.738 148.089L153.098 148.015Z" fill="white"/>
<path d="M87.8303 148.159L87.9669 148.191C88.0316 148.206 88.0718 148.271 88.0565 148.336L88.0291 148.451C88.0137 148.516 87.9488 148.556 87.8841 148.541L87.7474 148.508C87.6827 148.493 87.6426 148.428 87.6579 148.364L87.6853 148.248C87.7006 148.184 87.7655 148.144 87.8303 148.159Z" fill="white"/>
<path d="M158.313 148.332C158.343 148.322 158.383 148.36 158.403 148.417C158.423 148.474 158.415 148.529 158.386 148.539C158.356 148.549 158.316 148.511 158.296 148.454C158.276 148.397 158.283 148.343 158.313 148.332Z" fill="white"/>
<path d="M89.8342 148.021L90.041 148.066C90.101 148.08 90.1391 148.139 90.1258 148.199L90.081 148.4C90.0677 148.459 90.0082 148.497 89.9482 148.484L89.7414 148.438C89.6814 148.425 89.6437 148.366 89.657 148.306L89.7017 148.105C89.7151 148.045 89.7743 148.007 89.8342 148.021Z" fill="white"/>
<path d="M157.03 148.179C157.152 148.128 157.228 148.116 157.259 148.144C157.29 148.172 157.286 148.249 157.246 148.373C157.241 148.388 157.233 148.402 157.222 148.412C157.211 148.423 157.197 148.43 157.183 148.434C157.127 148.449 157.076 148.436 157.03 148.395C156.985 148.353 156.968 148.304 156.977 148.247C156.98 148.232 156.986 148.219 156.995 148.207C157.005 148.195 157.017 148.186 157.03 148.179Z" fill="white"/>
<path d="M151.973 148.008C152.057 148.008 152.125 148.076 152.125 148.16C152.125 148.244 152.057 148.312 151.973 148.312C151.888 148.312 151.82 148.244 151.82 148.16C151.82 148.076 151.888 148.008 151.973 148.008Z" fill="white"/>
<path d="M86.2233 148.015C86.304 148.029 86.3616 148.086 86.3519 148.142C86.3421 148.199 86.2686 148.234 86.1879 148.22C86.1072 148.207 86.0496 148.149 86.0593 148.092C86.0691 148.036 86.1426 148.001 86.2233 148.015Z" fill="white"/>
<path d="M149.045 146.821C149.084 146.782 149.146 146.782 149.184 146.82L149.799 147.428C149.837 147.466 149.837 147.528 149.799 147.567L149.189 148.179C149.151 148.217 149.089 148.217 149.05 148.179L148.436 147.571C148.397 147.533 148.397 147.471 148.435 147.433L149.045 146.821Z" fill="white"/>
<path d="M86.8993 146.683C86.9134 146.644 86.9573 146.622 86.9973 146.636L88.0223 146.994C88.0623 147.008 88.0833 147.052 88.0693 147.092L87.7104 148.113C87.6964 148.153 87.6525 148.174 87.6124 148.16L86.5874 147.802C86.5474 147.789 86.5264 147.745 86.5404 147.705L86.8993 146.683Z" fill="white"/>
<path d="M156.511 147.867C156.593 147.867 156.659 147.933 156.659 148.015C156.659 148.096 156.593 148.162 156.511 148.162C156.429 148.162 156.363 148.096 156.363 148.015C156.363 147.933 156.429 147.867 156.511 147.867Z" fill="white"/>
<path d="M88.8872 147.325L88.9754 147.353C89.0368 147.372 89.071 147.437 89.0518 147.498L89.0022 147.657C88.9829 147.718 88.9173 147.752 88.8559 147.733L88.7676 147.705C88.7062 147.686 88.6721 147.621 88.6912 147.56L88.7412 147.401C88.7605 147.34 88.8258 147.306 88.8872 147.325Z" fill="white"/>
<path d="M89.4385 147.377C89.5175 147.311 89.6254 147.309 89.6795 147.374C89.7335 147.438 89.7133 147.543 89.6344 147.609C89.5554 147.676 89.4475 147.677 89.3934 147.613C89.3393 147.549 89.3595 147.443 89.4385 147.377Z" fill="white"/>
<path d="M156.389 146.979C156.444 146.966 156.499 146.999 156.512 147.053L156.599 147.405C156.613 147.459 156.579 147.514 156.524 147.528L156.159 147.617C156.104 147.63 156.049 147.597 156.036 147.542L155.949 147.191C155.936 147.137 155.969 147.082 156.024 147.068L156.389 146.979Z" fill="white"/>
<path d="M86.1421 147.455C86.1866 147.455 86.2226 147.491 86.2227 147.535C86.2227 147.58 86.1867 147.616 86.1421 147.616C86.0975 147.616 86.0612 147.58 86.0612 147.535C86.0613 147.491 86.0975 147.455 86.1421 147.455Z" fill="white"/>
<path d="M156.768 147.262C156.817 147.253 156.849 147.288 156.862 147.368C156.864 147.382 156.862 147.396 156.855 147.409C156.849 147.421 156.839 147.432 156.826 147.439C156.735 147.487 156.683 147.505 156.67 147.494C156.651 147.479 156.638 147.459 156.633 147.435C156.628 147.412 156.63 147.386 156.64 147.362C156.651 147.338 156.668 147.315 156.691 147.298C156.713 147.28 156.74 147.268 156.768 147.262Z" fill="white"/>
<path d="M85.9958 146.624C86.012 146.58 86.0608 146.558 86.1047 146.574L86.4927 146.716C86.5365 146.732 86.559 146.781 86.543 146.825L86.4018 147.206C86.3857 147.25 86.3372 147.272 86.2932 147.256L85.9053 147.114C85.8614 147.098 85.8389 147.049 85.855 147.006L85.9958 146.624Z" fill="white"/>
<path d="M88.5498 146.99C88.5863 146.991 88.6158 147.02 88.6158 147.057C88.6158 147.093 88.5863 147.122 88.5498 147.122C88.5133 147.122 88.4835 147.093 88.4834 147.057C88.4834 147.02 88.5132 146.99 88.5498 146.99Z" fill="white"/>
<path d="M152.424 145.152C152.462 145.123 152.516 145.131 152.545 145.169L153.268 146.133C153.297 146.171 153.289 146.224 153.251 146.253L152.284 146.974C152.246 147.002 152.192 146.994 152.163 146.956L151.44 145.993C151.411 145.955 151.419 145.901 151.457 145.872L152.424 145.152Z" fill="white"/>
<path d="M89.6441 146.001C89.6583 145.958 89.7048 145.935 89.7478 145.949L90.2154 146.103C90.2584 146.118 90.2818 146.164 90.2676 146.207L90.1123 146.676C90.098 146.718 90.0515 146.742 90.0085 146.728L89.5406 146.573C89.4977 146.559 89.4743 146.513 89.4884 146.47L89.6441 146.001Z" fill="white"/>
<path d="M156.677 144.966C156.7 144.966 156.722 144.975 156.738 144.991C156.754 145.007 156.763 145.029 156.763 145.052V145.771C156.763 145.794 156.754 145.815 156.738 145.831C156.722 145.848 156.7 145.857 156.677 145.857H156.208C156.185 145.857 156.163 145.866 156.147 145.882C156.131 145.898 156.122 145.92 156.122 145.943V146.531C156.122 146.554 156.113 146.576 156.096 146.592C156.08 146.608 156.059 146.617 156.036 146.617H155.473C155.45 146.617 155.428 146.608 155.412 146.592C155.396 146.576 155.387 146.554 155.387 146.531V145.95C155.387 145.928 155.396 145.906 155.412 145.89C155.428 145.874 155.45 145.865 155.473 145.865H155.912C155.935 145.865 155.957 145.856 155.973 145.839C155.989 145.823 155.999 145.802 155.999 145.779V145.052C155.999 145.029 156.008 145.007 156.024 144.991C156.04 144.975 156.062 144.966 156.085 144.966H156.677Z" fill="white"/>
<path d="M154.913 146.253C155.007 146.178 155.081 146.196 155.133 146.307C155.186 146.418 155.153 146.487 155.036 146.511C154.932 146.533 154.865 146.512 154.835 146.448C154.804 146.383 154.83 146.318 154.913 146.253Z" fill="white"/>
<path d="M156.401 146.344C156.441 146.351 156.469 146.383 156.464 146.414C156.458 146.446 156.421 146.466 156.381 146.459C156.34 146.452 156.312 146.421 156.317 146.389C156.323 146.358 156.36 146.337 156.401 146.344Z" fill="white"/>
<path d="M87.248 145.649C87.2624 145.609 87.3072 145.588 87.3479 145.602L87.8122 145.766C87.8528 145.78 87.8742 145.825 87.8599 145.865L87.6927 146.336C87.6783 146.376 87.6334 146.397 87.5928 146.383L87.1284 146.219C87.0878 146.205 87.0667 146.16 87.0811 146.12L87.248 145.649Z" fill="white"/>
<path d="M156.988 146.016C157.071 146.016 157.139 146.084 157.139 146.167C157.139 146.25 157.071 146.317 156.988 146.317C156.905 146.317 156.837 146.25 156.837 146.167C156.837 146.084 156.905 146.016 156.988 146.016Z" fill="white"/>
<path d="M157.799 145.47C157.872 145.454 157.944 145.501 157.959 145.574L158.037 145.949C158.053 146.021 158.006 146.093 157.933 146.108L157.573 146.183C157.5 146.198 157.428 146.151 157.413 146.079L157.334 145.704C157.319 145.631 157.366 145.56 157.439 145.545L157.799 145.47Z" fill="white"/>
<path d="M86.706 145.93C86.7438 145.938 86.7658 145.985 86.755 146.034C86.7441 146.083 86.7045 146.116 86.6667 146.108C86.6289 146.1 86.6069 146.053 86.6177 146.004C86.6286 145.955 86.6682 145.922 86.706 145.93Z" fill="white"/>
<path d="M85.991 145.892C86.0089 145.89 86.0278 145.893 86.0442 145.902C86.0605 145.911 86.0735 145.925 86.0806 145.941C86.0877 145.957 86.0886 145.975 86.0831 145.992C86.0777 146.008 86.0661 146.021 86.0506 146.03C86.0215 146.046 85.988 146.049 85.9501 146.037C85.9122 146.026 85.9023 145.999 85.9207 145.956C85.9375 145.917 85.961 145.896 85.991 145.892Z" fill="white"/>
<path d="M88.6664 145.646C88.772 145.596 88.8949 145.633 88.941 145.729C88.9869 145.825 88.9386 145.943 88.833 145.994C88.7274 146.044 88.6045 146.007 88.5585 145.911C88.5125 145.815 88.5608 145.696 88.6664 145.646Z" fill="white"/>
<path d="M157.033 145.711C157.062 145.714 157.081 145.752 157.076 145.796C157.071 145.839 157.043 145.871 157.014 145.868C156.985 145.864 156.966 145.827 156.971 145.783C156.976 145.74 157.004 145.707 157.033 145.711Z" fill="white"/>
<path d="M155.072 144.227C155.126 144.214 155.18 144.246 155.194 144.3L155.432 145.275C155.445 145.329 155.412 145.383 155.358 145.396L154.38 145.634C154.326 145.647 154.272 145.614 154.258 145.56L154.02 144.585C154.007 144.532 154.04 144.477 154.094 144.464L155.072 144.227Z" fill="white"/>
<path d="M85.4384 144.656C85.4596 144.597 85.5243 144.567 85.5827 144.589L86.1302 144.787C86.1886 144.808 86.2187 144.873 86.1975 144.931L85.9981 145.477C85.9768 145.535 85.9121 145.565 85.8537 145.544L85.3063 145.345C85.2478 145.324 85.2177 145.259 85.2389 145.201L85.4384 144.656Z" fill="white"/>
<path d="M88.3874 143.872C88.4244 143.855 88.4666 143.854 88.5047 143.868L89.2703 144.153C89.3002 144.164 89.3245 144.187 89.3376 144.216C89.3508 144.245 89.3518 144.278 89.3405 144.309L89.0357 145.123C89.0259 145.149 89.0062 145.17 88.9809 145.182C88.9557 145.193 88.9268 145.194 88.9007 145.185L88.0452 144.867C88.0271 144.86 88.007 144.86 87.9891 144.868C87.9712 144.875 87.9566 144.889 87.9485 144.906C87.9282 144.952 87.9183 144.999 87.9192 145.046C87.9195 145.062 87.9162 145.077 87.9092 145.091C87.9022 145.105 87.8919 145.117 87.8792 145.126C87.8666 145.135 87.8518 145.14 87.8364 145.143C87.821 145.145 87.8055 145.143 87.7909 145.137L87.4384 145.007C87.4261 145.002 87.4148 144.995 87.4052 144.986C87.3956 144.977 87.3878 144.966 87.3824 144.954C87.377 144.942 87.374 144.928 87.3737 144.915C87.3733 144.902 87.3757 144.888 87.3804 144.876L87.518 144.508C87.5286 144.48 87.5501 144.457 87.5776 144.445C87.6051 144.433 87.6365 144.431 87.665 144.442L87.9711 144.555C87.984 144.56 87.9978 144.562 88.0117 144.562C88.0255 144.561 88.0393 144.558 88.0519 144.553C88.0646 144.547 88.0763 144.539 88.0858 144.528C88.0952 144.518 88.1025 144.506 88.1074 144.493L88.3075 143.957C88.3218 143.919 88.3505 143.889 88.3874 143.872Z" fill="white"/>
<path d="M89.4372 144.739C89.5468 144.739 89.6356 144.827 89.6357 144.937C89.6357 145.046 89.5468 145.135 89.4372 145.135C89.3275 145.135 89.2384 145.046 89.2384 144.937C89.2385 144.827 89.3275 144.739 89.4372 144.739Z" fill="white"/>
<path d="M86.8523 144.584C86.9465 144.609 86.999 144.721 86.9696 144.834C86.9401 144.948 86.8398 145.02 86.7456 144.996C86.6515 144.972 86.5989 144.86 86.6284 144.746C86.6579 144.633 86.7582 144.56 86.8523 144.584Z" fill="white"/>
<path d="M85.2818 144.794C85.2897 144.795 85.2972 144.799 85.3034 144.805C85.3095 144.81 85.3142 144.817 85.3169 144.824C85.3354 144.883 85.3293 144.92 85.2985 144.935C85.2875 144.941 85.2749 144.944 85.2624 144.943C85.25 144.943 85.2381 144.939 85.228 144.933C85.2178 144.926 85.2096 144.917 85.2048 144.907C85.1999 144.897 85.1984 144.885 85.2002 144.873C85.2029 144.857 85.216 144.835 85.2389 144.809C85.244 144.803 85.2507 144.798 85.2582 144.795C85.2657 144.793 85.2739 144.792 85.2818 144.794Z" fill="white"/>
<path d="M84.1272 144.78C84.1475 144.733 84.221 144.72 84.2916 144.75C84.362 144.781 84.4027 144.843 84.3824 144.89C84.3622 144.937 84.2886 144.95 84.2181 144.92C84.1476 144.89 84.107 144.827 84.1272 144.78Z" fill="white"/>
<path d="M84.4959 144.491C84.4969 144.491 84.5029 144.501 84.5142 144.522C84.5195 144.532 84.5282 144.54 84.5387 144.545C84.5493 144.549 84.5613 144.55 84.5726 144.547C84.7085 144.515 84.8588 144.538 85.023 144.616C85.032 144.62 85.0401 144.627 85.0462 144.634C85.0523 144.642 85.0565 144.651 85.0585 144.661C85.0604 144.671 85.0599 144.681 85.0572 144.691C85.0545 144.7 85.0494 144.709 85.0427 144.716C84.8873 144.883 84.7294 144.946 84.5687 144.902C84.5442 144.896 84.5232 144.88 84.5104 144.858C84.4975 144.836 84.4936 144.81 84.4997 144.785C84.5182 144.707 84.5051 144.624 84.4601 144.537C84.4572 144.531 84.4557 144.526 84.4562 144.52C84.4567 144.514 84.4593 144.508 84.463 144.503C84.4667 144.498 84.4717 144.494 84.4775 144.492C84.4833 144.49 84.4897 144.49 84.4959 144.491Z" fill="white"/>
<path d="M156.859 144.501C156.942 144.501 157.009 144.568 157.009 144.65C157.009 144.733 156.942 144.799 156.859 144.799C156.777 144.799 156.71 144.733 156.71 144.65C156.71 144.568 156.777 144.501 156.859 144.501Z" fill="white"/>
<path d="M156.212 143.843C156.245 143.816 156.293 143.819 156.321 143.852L156.64 144.225C156.667 144.258 156.664 144.306 156.631 144.333L156.264 144.645C156.232 144.672 156.184 144.668 156.156 144.636L155.837 144.262C155.809 144.23 155.813 144.182 155.845 144.154L156.212 143.843Z" fill="white"/>
<path d="M87.0002 144.027C87.0609 144.027 87.11 144.076 87.1101 144.137C87.1101 144.197 87.0609 144.246 87.0002 144.246C86.9395 144.246 86.8903 144.197 86.8903 144.137C86.8904 144.076 86.9395 144.027 87.0002 144.027Z" fill="white"/>
<path d="M155.364 143.483C155.418 143.466 155.476 143.496 155.494 143.55L155.562 143.767C155.579 143.821 155.548 143.879 155.494 143.896L155.264 143.968C155.209 143.985 155.151 143.954 155.134 143.9L155.066 143.683C155.049 143.629 155.08 143.572 155.134 143.555L155.364 143.483Z" fill="white"/>
<path d="M153.138 143.277C153.158 143.223 153.218 143.196 153.272 143.215L153.633 143.347C153.687 143.367 153.715 143.427 153.695 143.481L153.561 143.843C153.542 143.897 153.481 143.925 153.427 143.905L153.067 143.773C153.013 143.753 152.985 143.693 153.005 143.639L153.138 143.277Z" fill="white"/>
<path d="M88.3874 143.472C88.4227 143.466 88.4593 143.507 88.4692 143.564C88.4791 143.62 88.4587 143.671 88.4235 143.677C88.3882 143.684 88.3512 143.643 88.3413 143.586C88.3314 143.529 88.3521 143.478 88.3874 143.472Z" fill="white"/>
<path d="M157.837 142.01C157.856 142.015 157.872 142.025 157.886 142.039L157.964 142.116C157.998 142.15 158.022 142.194 158.033 142.241C158.044 142.288 158.04 142.338 158.024 142.383C157.968 142.54 157.98 142.684 158.061 142.813C158.074 142.834 158.092 142.85 158.114 142.861C158.136 142.872 158.161 142.876 158.185 142.874C158.428 142.849 158.595 142.982 158.686 143.272C158.692 143.292 158.691 143.312 158.685 143.331C158.678 143.35 158.666 143.367 158.65 143.378C158.513 143.472 158.321 143.54 158.073 143.581C158.053 143.585 158.033 143.58 158.016 143.569C157.999 143.558 157.987 143.541 157.982 143.522L157.919 143.26C157.911 143.228 157.89 143.2 157.861 143.182C157.832 143.165 157.798 143.159 157.765 143.167L157.512 143.228C157.501 143.23 157.489 143.231 157.477 143.229C157.465 143.227 157.454 143.223 157.443 143.217C157.433 143.211 157.424 143.203 157.417 143.193C157.41 143.184 157.405 143.173 157.402 143.161L157.278 142.649C157.272 142.625 157.276 142.599 157.29 142.578C157.303 142.556 157.325 142.541 157.35 142.535L157.488 142.5C157.507 142.496 157.524 142.487 157.538 142.475C157.552 142.462 157.563 142.447 157.569 142.429L157.7 142.078C157.707 142.06 157.718 142.045 157.732 142.033C157.746 142.021 157.763 142.012 157.782 142.008C157.8 142.004 157.819 142.005 157.837 142.01Z" fill="white"/>
<path d="M87.4558 143.098C87.4691 143.06 87.5107 143.04 87.5486 143.054L87.7387 143.12C87.7767 143.133 87.7968 143.175 87.7835 143.212L87.702 143.444C87.6887 143.482 87.6472 143.502 87.6092 143.489L87.4191 143.422C87.3812 143.409 87.3613 143.367 87.3746 143.33L87.4558 143.098Z" fill="white"/>
<path d="M87.2258 142.064C87.249 142.006 87.3153 141.978 87.3737 142.001L87.839 142.185C87.8973 142.209 87.9259 142.275 87.9028 142.333L87.7175 142.796C87.6942 142.855 87.628 142.883 87.5696 142.86L87.1046 142.675C87.0462 142.652 87.0176 142.586 87.0408 142.528L87.2258 142.064Z" fill="white"/>
<path d="M152.11 142.522C152.191 142.522 152.257 142.587 152.257 142.668C152.257 142.749 152.191 142.814 152.11 142.814C152.029 142.814 151.963 142.749 151.963 142.668C151.963 142.587 152.029 142.522 152.11 142.522Z" fill="white"/>
<path d="M158.384 142.239C158.404 142.231 158.427 142.231 158.448 142.239C158.469 142.247 158.485 142.263 158.494 142.284L158.551 142.416C158.563 142.444 158.569 142.474 158.571 142.504C158.572 142.535 158.568 142.565 158.558 142.592C158.549 142.62 158.534 142.645 158.515 142.665C158.496 142.686 158.473 142.702 158.447 142.713L158.408 142.73C158.356 142.751 158.297 142.749 158.244 142.724C158.19 142.699 158.147 142.652 158.123 142.595L158.067 142.462C158.059 142.441 158.059 142.419 158.067 142.398C158.076 142.378 158.092 142.361 158.112 142.352L158.384 142.239Z" fill="white"/>
<path d="M86.0667 141.246C86.0958 141.235 86.1277 141.236 86.1566 141.246L86.3764 141.328C86.3996 141.337 86.4208 141.35 86.4382 141.368C86.4557 141.386 86.4691 141.407 86.4776 141.43C86.486 141.453 86.4894 141.478 86.4872 141.503C86.4851 141.527 86.4776 141.551 86.4653 141.573L85.8598 142.617C85.8519 142.63 85.8413 142.643 85.8286 142.652C85.8159 142.662 85.8012 142.669 85.7857 142.674C85.7703 142.678 85.7542 142.679 85.7384 142.677C85.7224 142.674 85.7068 142.669 85.6929 142.661L85.2918 142.43C85.2811 142.424 85.2719 142.416 85.265 142.406C85.2581 142.396 85.2538 142.384 85.2521 142.372C85.2142 142.126 85.2595 141.931 85.3884 141.788C85.4045 141.77 85.4257 141.757 85.449 141.751C85.4724 141.745 85.4969 141.746 85.5196 141.755L85.9594 141.918C85.9804 141.927 86.004 141.928 86.0255 141.92C86.047 141.913 86.0651 141.897 86.0761 141.877C86.0871 141.857 86.0903 141.834 86.0851 141.812C86.0799 141.79 86.0668 141.77 86.048 141.757C86.0127 141.73 85.9658 141.711 85.9075 141.702C85.8932 141.699 85.8795 141.694 85.8679 141.685C85.8563 141.676 85.8471 141.665 85.8408 141.652C85.8346 141.639 85.8316 141.624 85.8321 141.61C85.8327 141.595 85.8368 141.581 85.8441 141.568L85.9978 141.303C86.0133 141.277 86.0377 141.256 86.0667 141.246Z" fill="white"/>
<path d="M156.953 141.592C156.994 141.557 157.056 141.562 157.091 141.603L157.383 141.944C157.418 141.985 157.414 142.047 157.373 142.082L157.036 142.368C156.995 142.404 156.933 142.399 156.898 142.358L156.606 142.016C156.57 141.975 156.575 141.914 156.616 141.879L156.953 141.592Z" fill="white"/>
<path d="M158.274 141.969C158.327 141.972 158.366 142.03 158.361 142.099C158.356 142.167 158.31 142.22 158.258 142.216C158.205 142.213 158.166 142.155 158.171 142.086C158.175 142.018 158.222 141.965 158.274 141.969Z" fill="white"/>
<path d="M86.6348 141.799C86.6509 141.766 86.6911 141.752 86.7247 141.768L86.9374 141.869C86.971 141.885 86.9854 141.925 86.9693 141.959L86.8729 142.159C86.8568 142.192 86.8167 142.206 86.783 142.19L86.5704 142.089C86.5368 142.073 86.5224 142.033 86.5385 141.999L86.6348 141.799Z" fill="white"/>
<path d="M87.9933 141.834C88.0168 141.782 88.078 141.759 88.1299 141.782L88.2798 141.85C88.3317 141.873 88.3548 141.934 88.3313 141.986L88.2636 142.135C88.2402 142.187 88.179 142.21 88.127 142.186L87.9775 142.119C87.9255 142.096 87.9025 142.035 87.926 141.983L87.9933 141.834Z" fill="white"/>
<path d="M156.349 141.413C156.429 141.434 156.478 141.509 156.46 141.581C156.441 141.653 156.361 141.694 156.281 141.674C156.201 141.653 156.152 141.578 156.17 141.506C156.189 141.434 156.269 141.392 156.349 141.413Z" fill="white"/>
<path d="M84.0038 141.364C84.0693 141.339 84.1386 141.361 84.1588 141.414C84.1789 141.466 84.1422 141.529 84.0766 141.554C84.0111 141.579 83.9418 141.557 83.9217 141.504C83.9015 141.452 83.9383 141.389 84.0038 141.364Z" fill="white"/>
<path d="M88.7579 141.329C88.8033 141.337 88.8362 141.364 88.8317 141.389C88.8271 141.414 88.7868 141.428 88.7415 141.42C88.6962 141.412 88.6632 141.385 88.6677 141.36C88.6722 141.335 88.7126 141.321 88.7579 141.329Z" fill="white"/>
<path d="M85.2782 141.112C85.3117 141.077 85.3597 141.069 85.3855 141.094C85.4113 141.119 85.4051 141.167 85.3717 141.202C85.3382 141.236 85.2902 141.244 85.2644 141.219C85.2385 141.195 85.2448 141.146 85.2782 141.112Z" fill="white"/>
<path d="M86.5961 141.092C86.6394 141.091 86.6632 141.11 86.6677 141.148C86.6712 141.173 86.6607 141.188 86.6361 141.194C86.6245 141.196 86.6123 141.196 86.601 141.193C86.5895 141.189 86.579 141.183 86.571 141.174C86.563 141.166 86.5575 141.155 86.5552 141.144C86.5529 141.133 86.5538 141.121 86.5578 141.111C86.5622 141.099 86.575 141.093 86.5961 141.092Z" fill="white"/>
<path d="M151.707 139.146C151.723 139.101 151.773 139.077 151.819 139.093L153.238 139.591C153.283 139.607 153.307 139.657 153.291 139.702L152.791 141.116C152.775 141.162 152.725 141.185 152.68 141.169L151.261 140.671C151.215 140.655 151.192 140.606 151.208 140.56L151.707 139.146Z" fill="white"/>
<path d="M155.9 140.514C155.916 140.471 155.965 140.449 156.009 140.465L156.398 140.612C156.441 140.628 156.464 140.677 156.447 140.721L156.297 141.118C156.28 141.162 156.231 141.184 156.187 141.167L155.798 141.021C155.754 141.004 155.732 140.956 155.749 140.912L155.9 140.514Z" fill="white"/>
<path d="M87.4916 140.756C87.5908 140.713 87.7097 140.766 87.7571 140.874C87.8045 140.982 87.7628 141.105 87.6637 141.148C87.5645 141.191 87.4456 141.138 87.3982 141.03C87.3508 140.922 87.3925 140.8 87.4916 140.756Z" fill="white"/>
<path d="M89.2132 140.226C89.2362 140.213 89.2561 140.211 89.2729 140.22C89.3011 140.235 89.321 140.24 89.3325 140.237C89.4305 140.208 89.4838 140.263 89.4926 140.403C89.4953 140.44 89.4817 140.481 89.4533 140.521C89.4249 140.561 89.3829 140.599 89.3325 140.629C89.3289 140.631 89.3051 140.623 89.2609 140.605C89.2494 140.6 89.2369 140.598 89.2245 140.599C89.2121 140.599 89.2001 140.603 89.1891 140.608C89.1781 140.614 89.1685 140.622 89.161 140.632C89.1536 140.642 89.1481 140.654 89.1456 140.666L89.0992 140.876C89.0964 140.889 89.091 140.901 89.0834 140.912C89.0757 140.923 89.066 140.933 89.0547 140.94C89.0434 140.947 89.0306 140.952 89.0173 140.954C89.0041 140.957 88.9905 140.956 88.9774 140.954L88.7734 140.91C88.7465 140.904 88.7229 140.888 88.708 140.864C88.6931 140.841 88.6882 140.813 88.6941 140.786L88.7364 140.592C88.7399 140.575 88.7471 140.559 88.757 140.545C88.7669 140.531 88.7794 140.519 88.794 140.51C88.8087 140.501 88.8252 140.495 88.8424 140.492C88.8595 140.489 88.8771 140.49 88.8939 140.494C89.0254 140.528 89.1125 140.46 89.1549 140.292C89.162 140.268 89.1815 140.246 89.2132 140.226Z" fill="white"/>
<path d="M85.3162 140.472C85.3429 140.414 85.4112 140.389 85.469 140.416L85.5892 140.471C85.6469 140.497 85.6722 140.566 85.6456 140.623L85.5798 140.765C85.5531 140.822 85.4848 140.847 85.4271 140.821L85.3069 140.765C85.2491 140.739 85.2238 140.671 85.2505 140.613L85.3162 140.472Z" fill="white"/>
<path d="M86.1418 139.837C86.1561 139.793 86.2034 139.769 86.2472 139.784L86.9167 140.002C86.9605 140.016 86.9846 140.063 86.9702 140.107L86.7514 140.774C86.7371 140.818 86.6899 140.842 86.6461 140.827L85.9765 140.609C85.9327 140.595 85.9087 140.548 85.923 140.504L86.1418 139.837Z" fill="white"/>
<path d="M154.192 140.162C154.235 140.125 154.3 140.13 154.337 140.173L154.489 140.35C154.526 140.393 154.521 140.458 154.477 140.495L154.296 140.649C154.252 140.686 154.187 140.681 154.15 140.638L153.999 140.462C153.962 140.418 153.967 140.353 154.01 140.316L154.192 140.162Z" fill="white"/>
<path d="M88.9133 139.106C88.9265 139.105 88.9398 139.108 88.9522 139.112L89.5113 139.32C89.5362 139.329 89.5565 139.348 89.5674 139.372C89.5783 139.396 89.5791 139.424 89.5696 139.449L89.3615 140.006C89.3569 140.018 89.3498 140.03 89.3409 140.039C89.3319 140.049 89.321 140.057 89.309 140.062C89.2969 140.068 89.2839 140.071 89.2706 140.072C89.2574 140.072 89.2443 140.07 89.2319 140.065L88.6729 139.858C88.648 139.849 88.6277 139.83 88.6168 139.806C88.6059 139.781 88.6051 139.754 88.6146 139.729L88.8224 139.172C88.827 139.159 88.834 139.148 88.843 139.138C88.852 139.128 88.8629 139.12 88.8749 139.115C88.8869 139.109 88.9 139.106 88.9133 139.106Z" fill="white"/>
<path d="M87.3063 138.963C87.3271 138.911 87.3862 138.885 87.4384 138.906L88.1331 139.18C88.1854 139.2 88.2109 139.259 88.1902 139.312L87.9153 140.004C87.8946 140.056 87.8353 140.081 87.7829 140.061L87.0885 139.787C87.0361 139.766 87.0104 139.707 87.0311 139.655L87.3063 138.963Z" fill="white"/>
<path d="M85.6546 139.713C85.6955 139.713 85.7287 139.746 85.7287 139.787C85.7287 139.828 85.6955 139.861 85.6546 139.861C85.6137 139.861 85.5805 139.828 85.5805 139.787C85.5805 139.746 85.6137 139.713 85.6546 139.713Z" fill="white"/>
<path d="M156.544 139.393C156.665 139.393 156.763 139.491 156.763 139.611C156.763 139.731 156.665 139.829 156.544 139.829C156.424 139.829 156.326 139.731 156.326 139.611C156.326 139.491 156.424 139.393 156.544 139.393Z" fill="white"/>
<path d="M153.868 138.44C153.906 138.41 153.962 138.416 153.992 138.454L154.429 138.999C154.459 139.037 154.453 139.092 154.414 139.123L153.868 139.558C153.83 139.588 153.774 139.582 153.743 139.544L153.307 138.999C153.276 138.961 153.283 138.905 153.321 138.875L153.868 138.44Z" fill="white"/>
<path d="M86.0777 138.4C86.0941 138.357 86.1431 138.334 86.1869 138.351L86.5687 138.493C86.6126 138.509 86.6351 138.558 86.6187 138.602L86.474 138.988C86.4576 139.031 86.4086 139.053 86.3648 139.037L85.9826 138.895C85.9389 138.878 85.9166 138.83 85.933 138.786L86.0777 138.4Z" fill="white"/>
<path d="M88.9249 138.64C89.0155 138.643 89.0865 138.731 89.0834 138.837C89.0802 138.944 89.0042 139.028 88.9136 139.025C88.8229 139.022 88.7519 138.934 88.755 138.828C88.7583 138.721 88.8343 138.637 88.9249 138.64Z" fill="white"/>
<path d="M155.728 137.269C155.763 137.242 155.814 137.248 155.841 137.282L156.501 138.115C156.529 138.15 156.523 138.201 156.488 138.228L155.652 138.886C155.617 138.913 155.566 138.908 155.539 138.873L154.879 138.04C154.851 138.005 154.857 137.954 154.892 137.927L155.728 137.269Z" fill="white"/>
<path d="M87.3118 138.391C87.3416 138.341 87.391 138.317 87.4223 138.336C87.4536 138.354 87.4551 138.41 87.4252 138.459C87.3954 138.508 87.3457 138.533 87.3144 138.514C87.2831 138.495 87.2819 138.44 87.3118 138.391Z" fill="white"/>
<path d="M85.5157 138.019C85.6268 138.019 85.7168 138.109 85.7168 138.22C85.7167 138.331 85.6268 138.421 85.5157 138.421C85.4045 138.421 85.3143 138.331 85.3143 138.22C85.3143 138.109 85.4045 138.019 85.5157 138.019Z" fill="white"/>
<path d="M150.287 136.721C150.327 136.693 150.383 136.701 150.411 136.741L151.061 137.628C151.089 137.668 151.081 137.723 151.041 137.752L150.151 138.399C150.111 138.427 150.056 138.419 150.027 138.379L149.378 137.492C149.349 137.453 149.357 137.397 149.397 137.369L150.287 136.721Z" fill="white"/>
<path d="M88.1853 138.083C88.2132 138.016 88.29 137.985 88.3568 138.012L88.3961 138.029C88.4629 138.057 88.4945 138.133 88.4667 138.2L88.4106 138.334C88.3827 138.4 88.306 138.432 88.2392 138.404L88.2002 138.388C88.1333 138.36 88.1018 138.284 88.1296 138.217L88.1853 138.083Z" fill="white"/>
<path d="M89.404 138.163C89.434 138.142 89.4635 138.144 89.4926 138.169C89.5026 138.177 89.5095 138.19 89.5123 138.203C89.515 138.216 89.5134 138.229 89.5078 138.241C89.5021 138.253 89.493 138.263 89.4813 138.269C89.4697 138.275 89.4564 138.276 89.4436 138.273C89.411 138.264 89.3879 138.25 89.3747 138.231C89.3606 138.209 89.3705 138.186 89.404 138.163Z" fill="white"/>
<path d="M86.6416 136.764C86.6536 136.764 86.6657 136.765 86.677 136.77L87.2676 136.99C87.2881 136.998 87.3049 137.013 87.314 137.033C87.3232 137.052 87.3241 137.074 87.3166 137.094L87.0692 137.754C87.0635 137.769 87.0526 137.782 87.0385 137.79C87.0245 137.798 87.008 137.801 86.9921 137.798C86.8651 137.776 86.7619 137.744 86.6825 137.704C86.5705 137.646 86.4984 137.632 86.4666 137.662C86.441 137.686 86.4227 137.738 86.4121 137.82C86.4104 137.834 86.4057 137.846 86.3983 137.858C86.3909 137.869 86.3811 137.878 86.3696 137.885C86.358 137.892 86.3447 137.897 86.3313 137.898C86.3178 137.899 86.3043 137.897 86.2916 137.893L85.827 137.72C85.8058 137.712 85.7884 137.696 85.779 137.675C85.7696 137.655 85.7687 137.631 85.7764 137.61L85.9459 137.159C85.953 137.14 85.9675 137.125 85.9858 137.117C86.0042 137.108 86.0252 137.107 86.0442 137.114L86.3048 137.21C86.3173 137.215 86.3307 137.217 86.3441 137.217C86.3576 137.217 86.3709 137.214 86.3831 137.208C86.3954 137.203 86.4067 137.195 86.416 137.185C86.4253 137.175 86.4324 137.164 86.4373 137.151L86.5591 136.824C86.5632 136.812 86.5696 136.802 86.5778 136.793C86.5859 136.785 86.5958 136.777 86.6068 136.772C86.6177 136.767 86.6296 136.764 86.6416 136.764Z" fill="white"/>
<path d="M87.7797 136.407C87.7961 136.361 87.8469 136.337 87.8931 136.353L88.891 136.707C88.9372 136.724 88.9613 136.774 88.9448 136.82L88.61 137.758C88.5936 137.804 88.5428 137.828 88.4966 137.812L87.4984 137.457C87.4523 137.441 87.4281 137.39 87.4446 137.344L87.7797 136.407Z" fill="white"/>
<path d="M152.043 137.24L152.195 137.283C152.256 137.3 152.311 137.328 152.349 137.359C152.387 137.391 152.404 137.424 152.396 137.452L152.314 137.74C152.31 137.753 152.3 137.765 152.285 137.775C152.27 137.784 152.249 137.79 152.225 137.794C152.201 137.797 152.173 137.798 152.144 137.795C152.115 137.792 152.084 137.787 152.053 137.778L151.901 137.735C151.874 137.727 151.852 137.709 151.838 137.685C151.825 137.661 151.821 137.633 151.828 137.606L151.913 137.311C151.917 137.298 151.923 137.285 151.932 137.274C151.94 137.264 151.951 137.255 151.963 137.248C151.975 137.242 151.988 137.238 152.002 137.236C152.016 137.235 152.03 137.236 152.043 137.24Z" fill="white"/>
<path d="M154.249 136.801C154.298 136.801 154.338 136.841 154.338 136.89L154.335 137.603C154.335 137.652 154.295 137.691 154.246 137.691L153.531 137.688C153.482 137.688 153.442 137.648 153.443 137.6L153.445 136.887C153.445 136.838 153.485 136.799 153.534 136.799L154.249 136.801Z" fill="white"/>
<path d="M89.2941 137.12C89.3225 137.058 89.3965 137.03 89.4591 137.058L89.7172 137.175C89.7798 137.203 89.8074 137.277 89.7791 137.339L89.6621 137.596C89.6337 137.659 89.5597 137.687 89.4971 137.658L89.239 137.542C89.1764 137.513 89.1488 137.44 89.1772 137.377L89.2941 137.12Z" fill="white"/>
<path d="M85.4052 137.37C85.4867 137.384 85.5436 137.451 85.5321 137.521C85.5207 137.591 85.4452 137.636 85.3636 137.623C85.2821 137.61 85.2252 137.542 85.2367 137.473C85.2482 137.403 85.3237 137.357 85.4052 137.37Z" fill="white"/>
<path d="M85.4787 136.927C85.5634 136.927 85.632 136.995 85.632 137.08C85.632 137.164 85.5634 137.233 85.4787 137.233C85.3938 137.233 85.325 137.164 85.3249 137.08C85.3249 136.995 85.3938 136.927 85.4787 136.927Z" fill="white"/>
<path d="M157.628 136.581C157.661 136.548 157.714 136.547 157.748 136.579L157.884 136.708C157.918 136.741 157.919 136.794 157.887 136.828L157.757 136.963C157.724 136.997 157.671 136.998 157.637 136.966L157.501 136.836C157.467 136.804 157.466 136.751 157.498 136.717L157.628 136.581Z" fill="white"/>
<path d="M86.2188 136.671C86.2513 136.635 86.3007 136.628 86.3293 136.654C86.358 136.68 86.3548 136.73 86.3222 136.765C86.2897 136.801 86.24 136.808 86.2114 136.782C86.1829 136.756 86.1863 136.706 86.2188 136.671Z" fill="white"/>
<path d="M87.2016 136.363C87.2952 136.363 87.3711 136.439 87.3711 136.532C87.3711 136.625 87.2952 136.701 87.2016 136.701C87.108 136.701 87.0321 136.625 87.0321 136.532C87.0321 136.439 87.108 136.363 87.2016 136.363Z" fill="white"/>
<path d="M89.4585 136.308C89.4996 136.315 89.5288 136.346 89.5236 136.378C89.5183 136.41 89.4806 136.43 89.4395 136.423C89.3984 136.416 89.3692 136.385 89.3744 136.354C89.3796 136.322 89.4173 136.302 89.4585 136.308Z" fill="white"/>
<path d="M88.8211 136.017C88.9301 136.017 89.0186 136.105 89.0186 136.214C89.0186 136.323 88.9301 136.411 88.8211 136.411C88.7122 136.41 88.6239 136.323 88.6239 136.214C88.6239 136.105 88.7122 136.017 88.8211 136.017Z" fill="white"/>
<path d="M155.889 135.728C155.942 135.681 156.023 135.686 156.07 135.739L156.26 135.953C156.307 136.006 156.302 136.087 156.248 136.133L156.034 136.322C155.981 136.369 155.9 136.364 155.853 136.311L155.663 136.098C155.616 136.045 155.622 135.964 155.675 135.917L155.889 135.728Z" fill="white"/>
<path d="M155.02 134.983C155.07 134.97 155.122 135.001 155.135 135.051L155.352 135.9C155.365 135.95 155.334 136.001 155.284 136.014L154.432 136.23C154.381 136.243 154.33 136.213 154.317 136.163L154.1 135.314C154.087 135.264 154.118 135.212 154.168 135.2L155.02 134.983Z" fill="white"/>
<path d="M87.3737 135.556C87.3949 135.498 87.4596 135.468 87.518 135.489L87.8364 135.605C87.8948 135.626 87.925 135.69 87.9037 135.749L87.7897 136.061C87.7684 136.119 87.7037 136.149 87.6453 136.128L87.3266 136.013C87.2683 135.991 87.2383 135.927 87.2596 135.869L87.3737 135.556Z" fill="white"/>
<path d="M150.744 135.652C150.836 135.652 150.91 135.726 150.911 135.818C150.911 135.91 150.836 135.984 150.744 135.984C150.651 135.984 150.577 135.91 150.577 135.818C150.577 135.726 150.651 135.652 150.744 135.652Z" fill="white"/>
<path d="M174.523 131.802C175.235 131.882 175.938 131.906 176.102 132.727C176.258 133.498 176.259 134.242 176.107 134.959C176.003 135.447 175.724 135.728 175.268 135.801C174.212 135.971 173.297 135.953 172.523 135.747C171.54 135.487 171.702 133.514 171.846 132.763C172.012 131.903 172.649 131.917 173.346 131.802H174.523Z" fill="white"/>
<path d="M88.4093 135.606C88.4466 135.606 88.477 135.636 88.477 135.673C88.4769 135.71 88.4466 135.74 88.4093 135.74C88.3721 135.74 88.342 135.71 88.342 135.673C88.342 135.636 88.372 135.606 88.4093 135.606Z" fill="white"/>
<path d="M153.183 135.001C153.257 135.008 153.311 135.073 153.304 135.146L153.269 135.522C153.262 135.595 153.196 135.649 153.123 135.642L152.761 135.608C152.688 135.601 152.634 135.536 152.641 135.463L152.676 135.087C152.683 135.014 152.749 134.96 152.822 134.967L153.183 135.001Z" fill="white"/>
<path d="M155.922 133.647C155.963 133.613 156.024 133.618 156.058 133.659L156.626 134.328C156.66 134.369 156.655 134.43 156.615 134.464L155.943 135.029C155.902 135.064 155.841 135.059 155.806 135.018L155.239 134.349C155.205 134.308 155.209 134.247 155.25 134.213L155.922 133.647Z" fill="white"/>
<path d="M87.1407 134.931C87.1742 134.919 87.2021 134.922 87.2241 134.942C87.2567 134.968 87.2606 134.991 87.2361 135.011C87.1805 135.057 87.1348 135.062 87.0994 135.026C87.0932 135.02 87.0891 135.012 87.0878 135.003C87.0866 134.994 87.0883 134.984 87.0924 134.975C87.0964 134.966 87.1029 134.957 87.1114 134.949C87.1198 134.941 87.1299 134.935 87.1407 134.931Z" fill="white"/>
<path d="M87.7194 134.584C87.8261 134.584 87.9127 134.67 87.9127 134.777C87.9127 134.883 87.8262 134.969 87.7194 134.969C87.6126 134.969 87.5261 134.883 87.5261 134.777C87.5261 134.67 87.6127 134.584 87.7194 134.584Z" fill="white"/>
<path d="M154.243 134.353C154.33 134.353 154.4 134.423 154.4 134.51C154.4 134.597 154.33 134.667 154.243 134.667C154.156 134.667 154.085 134.597 154.085 134.51C154.085 134.423 154.156 134.353 154.243 134.353Z" fill="white"/>
<path d="M157.182 133.609C157.252 133.589 157.326 133.628 157.347 133.698L157.416 133.934C157.437 134.004 157.397 134.077 157.327 134.098L157.088 134.168C157.017 134.188 156.944 134.148 156.923 134.079L156.854 133.843C156.833 133.773 156.873 133.7 156.943 133.679L157.182 133.609Z" fill="white"/>
<path d="M85.6984 134.065C85.747 134.052 85.78 134.057 85.7977 134.08C85.8011 134.084 85.8036 134.089 85.8047 134.095C85.8059 134.1 85.8058 134.106 85.8044 134.111C85.803 134.117 85.8004 134.121 85.7967 134.126C85.793 134.13 85.7883 134.133 85.7832 134.135C85.7531 134.148 85.7261 134.148 85.7023 134.138C85.6946 134.135 85.6876 134.129 85.6826 134.122C85.6776 134.116 85.6747 134.108 85.6742 134.1C85.6738 134.092 85.676 134.084 85.6804 134.078C85.6847 134.072 85.691 134.067 85.6984 134.065Z" fill="white"/>
<path d="M157.638 133.81C157.667 133.791 157.703 133.794 157.719 133.818C157.735 133.842 157.724 133.877 157.694 133.896C157.665 133.915 157.628 133.911 157.613 133.888C157.597 133.864 157.608 133.829 157.638 133.81Z" fill="white"/>
</g>
<defs>
<filter id="filter0_dddd_20781_6489" x="22.0062" y="45.3344" width="245.988" height="293.811" filterUnits="userSpaceOnUse" color-interpolation-filters="sRGB">
<feFlood flood-opacity="0" result="BackgroundImageFix"/>
<feColorMatrix in="SourceAlpha" type="matrix" values="0 0 0 0 0 0 0 0 0 0 0 0 0 0 0 0 0 0 127 0" result="hardAlpha"/>
<feOffset dy="4.66564"/>
<feGaussianBlur stdDeviation="4.66564"/>
<feColorMatrix type="matrix" values="0 0 0 0 0.298039 0 0 0 0 0.286275 0 0 0 0 0.894118 0 0 0 0.1 0"/>
<feBlend mode="normal" in2="BackgroundImageFix" result="effect1_dropShadow_20781_6489"/>
<feColorMatrix in="SourceAlpha" type="matrix" values="0 0 0 0 0 0 0 0 0 0 0 0 0 0 0 0 0 0 127 0" result="hardAlpha"/>
<feOffset dy="17.4962"/>
<feGaussianBlur stdDeviation="8.74808"/>
<feColorMatrix type="matrix" values="0 0 0 0 0.298039 0 0 0 0 0.286275 0 0 0 0 0.894118 0 0 0 0.09 0"/>
<feBlend mode="normal" in2="effect1_dropShadow_20781_6489" result="effect2_dropShadow_20781_6489"/>
<feColorMatrix in="SourceAlpha" type="matrix" values="0 0 0 0 0 0 0 0 0 0 0 0 0 0 0 0 0 0 127 0" result="hardAlpha"/>
<feOffset dy="39.658"/>
<feGaussianBlur stdDeviation="11.6641"/>
<feColorMatrix type="matrix" values="0 0 0 0 0.298039 0 0 0 0 0.286275 0 0 0 0 0.894118 0 0 0 0.05 0"/>
<feBlend mode="normal" in2="effect2_dropShadow_20781_6489" result="effect3_dropShadow_20781_6489"/>
<feColorMatrix in="SourceAlpha" type="matrix" values="0 0 0 0 0 0 0 0 0 0 0 0 0 0 0 0 0 0 127 0" result="hardAlpha"/>
<feOffset dy="71.1511"/>
<feGaussianBlur stdDeviation="13.9969"/>
<feColorMatrix type="matrix" values="0 0 0 0 0.298039 0 0 0 0 0.286275 0 0 0 0 0.894118 0 0 0 0.01 0"/>
<feBlend mode="normal" in2="effect3_dropShadow_20781_6489" result="effect4_dropShadow_20781_6489"/>
<feBlend mode="normal" in="SourceGraphic" in2="effect4_dropShadow_20781_6489" result="shape"/>
</filter>
</defs>
</svg>
