<svg width="136" height="27" viewBox="0 0 136 27" fill="none" xmlns="http://www.w3.org/2000/svg">
<path fill-rule="evenodd" clip-rule="evenodd" d="M112.27 6.06414C113.976 5.89125 115.888 6.05373 117.218 7.10428C118.558 8.16408 119.055 9.81776 119.211 11.4965C119.372 13.2308 119.337 14.8236 119.107 16.2745C118.889 17.6352 118.308 19.1688 117.31 20.0874C115.837 21.4402 113.134 21.4959 111.296 21.0524C110.257 20.8017 109.494 20.204 109.006 19.2599C109.002 19.2503 108.994 19.2426 108.984 19.238C108.975 19.2334 108.964 19.232 108.954 19.2344C108.944 19.237 108.934 19.2431 108.928 19.2515C108.922 19.26 108.919 19.2707 108.919 19.2812V26.4346H104.966L104.953 6.36929C104.953 6.34515 104.963 6.32192 104.98 6.30484C104.997 6.2878 105.02 6.27813 105.044 6.2781H108.843C108.865 6.2781 108.885 6.28665 108.901 6.30194C108.916 6.31729 108.925 6.33824 108.925 6.35994V7.89341C108.925 7.90232 108.927 7.91108 108.933 7.91822C108.938 7.92535 108.945 7.93051 108.954 7.93305C108.963 7.93557 108.972 7.9355 108.981 7.9324C108.989 7.9293 108.997 7.92342 109.002 7.91597C109.735 6.77959 110.894 6.20404 112.27 6.06414ZM111.979 8.88619C110.901 8.90335 109.844 9.27812 109.341 10.2772C108.84 11.2724 108.709 12.447 108.714 13.5662C108.721 14.6867 108.864 15.8601 109.376 16.8487C109.89 17.8425 110.951 18.2067 112.029 18.212C113.274 18.2186 114.332 17.8978 114.809 16.6889C115.192 15.7175 115.274 14.576 115.269 13.532C115.263 12.488 115.168 11.3461 114.775 10.38C114.286 9.17511 113.224 8.86641 111.979 8.88619Z" fill="white"/>
<path fill-rule="evenodd" clip-rule="evenodd" d="M127.237 6.17241C128.514 5.9718 129.817 5.95692 131.147 6.12762C132.471 6.29789 133.774 6.90639 134.61 7.95431C135.5 9.06691 135.777 11.0294 135.782 12.4178V12.4945L135.631 14.4136C135.629 14.4384 135.618 14.4616 135.6 14.479C135.583 14.4965 135.559 14.5072 135.534 14.5087L126.189 15.1103C126.182 15.1106 126.175 15.1124 126.169 15.1154C126.162 15.1185 126.157 15.1228 126.152 15.128C126.147 15.1333 126.143 15.1397 126.141 15.1464C126.138 15.153 126.137 15.16 126.138 15.167C126.248 17.2853 127.69 18.0707 129.623 18.1882C131.491 18.3026 133.276 17.9875 134.98 17.2431C134.99 17.2392 135 17.2377 135.01 17.2386C135.02 17.2395 135.029 17.2428 135.038 17.2483C135.046 17.2537 135.053 17.2614 135.058 17.2702C135.063 17.2789 135.065 17.2886 135.065 17.2985V20.1428C135.065 20.1824 135.054 20.2212 135.033 20.2546C135.012 20.288 134.982 20.3147 134.946 20.3316C132.909 21.2898 130.32 21.4059 128.098 21.229C125.6 21.0297 123.617 20.0202 122.763 17.6314C122.308 16.3604 122.21 14.9362 122.215 13.4686C122.229 9.92348 123.267 6.79537 127.237 6.17241ZM130.314 9.02346C129.477 8.895 128.708 8.92598 128.008 9.1169C126.49 9.53001 126.124 10.9292 126.065 12.315C126.064 12.3235 126.066 12.3322 126.069 12.3401C126.072 12.348 126.077 12.3551 126.083 12.3611C126.089 12.367 126.097 12.3716 126.105 12.3746C126.113 12.3775 126.121 12.379 126.13 12.3785L132.018 11.9125C132.044 11.9105 132.069 11.8983 132.087 11.8787C132.105 11.8591 132.115 11.8334 132.115 11.8068C132.107 11.2991 132.023 10.7998 131.864 10.3088C131.624 9.57243 131.107 9.14403 130.314 9.02346Z" fill="white"/>
<path fill-rule="evenodd" clip-rule="evenodd" d="M66.7717 6.23202C68.8297 5.84401 71.542 5.80701 73.3457 6.94865C74.6276 7.76033 75.1692 8.87945 75.4328 10.3246C75.6676 11.6162 75.6966 12.9827 75.5191 14.4239C75.5161 14.4464 75.5053 14.4672 75.4888 14.4826C75.4724 14.498 75.4513 14.5073 75.4289 14.5087L66.0682 15.1103C66.0513 15.1113 66.0355 15.119 66.0241 15.1316C66.0127 15.1441 66.0066 15.1607 66.0073 15.1776C66.1199 17.3488 67.6284 18.0907 69.5924 18.1937C71.4571 18.2913 73.2213 17.9674 74.8847 17.2222C74.8907 17.2193 74.8974 17.2181 74.904 17.2186C74.9106 17.2191 74.917 17.2211 74.9227 17.2247C74.9283 17.2284 74.9329 17.2336 74.9362 17.2396C74.9395 17.2455 74.9416 17.2524 74.9417 17.2592V20.1786C74.9416 20.2052 74.9337 20.2313 74.9195 20.254C74.9052 20.2765 74.8849 20.2947 74.8608 20.3065C72.8716 21.2541 70.4797 21.3822 68.2707 21.2516C66.0868 21.1222 64.1439 20.4596 63.0367 18.5194C62.2051 17.0624 62.0501 15.08 62.0858 13.3023C62.1203 11.6433 62.3321 9.97095 63.1717 8.61681C63.9717 7.32777 65.1718 6.53294 66.7717 6.23202ZM70.1831 9.02056C69.3461 8.89298 68.5774 8.92509 67.8772 9.1169C66.3596 9.53005 65.9954 10.9292 65.9358 12.315C65.9354 12.3235 65.9369 12.3322 65.94 12.3401C65.9431 12.348 65.9481 12.3551 65.9542 12.3611C65.9603 12.367 65.9675 12.3716 65.9754 12.3746C65.9834 12.3775 65.9921 12.379 66.0006 12.3785L71.8889 11.9099C71.9155 11.9079 71.9402 11.8957 71.9582 11.8761C71.9762 11.8565 71.986 11.8308 71.9856 11.8043C71.9777 11.2966 71.8937 10.7972 71.7339 10.3062C71.4938 9.56977 70.9768 9.1411 70.1831 9.02056Z" fill="white"/>
<path fill-rule="evenodd" clip-rule="evenodd" d="M58.338 0.239923C58.3486 0.239938 58.3592 0.242014 58.369 0.246045C58.3787 0.250089 58.3876 0.256007 58.3951 0.263445C58.4026 0.270911 58.4084 0.279797 58.4125 0.289545C58.4165 0.299313 58.4186 0.309906 58.4186 0.320479V20.9745C58.4186 20.9867 58.4137 20.9984 58.4051 21.007C58.3964 21.0157 58.3845 21.0205 58.3722 21.0205H54.917C54.899 21.0207 54.8816 21.0144 54.868 21.0025C54.8544 20.9906 54.8454 20.9741 54.8429 20.9561L54.598 19.1081C54.5967 19.1009 54.5931 19.0943 54.588 19.0891C54.5828 19.0839 54.5762 19.0804 54.569 19.0791C54.5618 19.0778 54.5543 19.0787 54.5477 19.0817C54.541 19.0848 54.5353 19.0899 54.5316 19.0962C53.9171 20.2638 52.9252 20.9546 51.5558 21.1684C50.1282 21.3915 48.4038 21.3413 47.1178 20.7976C45.4306 20.0822 44.5684 18.2844 44.3154 16.5423C43.9552 14.0676 43.9593 11.1666 44.9605 8.84108C45.6554 7.22746 46.8931 6.29291 48.6738 6.03772C49.7448 5.88462 50.8042 5.90627 51.8513 6.10249C53.0388 6.32424 53.9066 6.95084 54.4549 7.98203C54.4578 7.98857 54.463 7.99402 54.4694 7.99717C54.4758 8.00028 54.4831 8.0008 54.49 7.9991C54.497 7.99736 54.5032 7.99332 54.5074 7.9875C54.5116 7.98171 54.5137 7.97465 54.5132 7.96752V0.31629C54.5132 0.296017 54.5214 0.276493 54.5358 0.262156C54.5502 0.247881 54.5696 0.239934 54.5899 0.239923H58.338ZM54.4881 11.4862C54.0656 9.51971 52.8153 8.69327 50.7944 8.911C49.3681 9.06542 48.5851 10.0964 48.3958 11.4347C48.2315 12.5943 48.1977 13.7729 48.2939 14.9704C48.3615 15.794 48.4595 16.619 48.9058 17.2486C49.2811 17.7765 49.7794 18.0936 50.401 18.2001C51.9134 18.4601 53.814 18.2568 54.3199 16.5094C54.7984 14.8623 54.8545 13.1879 54.4881 11.4862Z" fill="white"/>
<path fill-rule="evenodd" clip-rule="evenodd" d="M30.1326 6.21075C32.2556 5.97846 34.6118 5.86244 36.6474 6.27423C39.0723 6.76654 40.4602 8.20517 40.4642 10.7287C40.4695 14.3784 40.4691 17.7905 40.4629 20.9651C40.4629 20.9791 40.4573 20.9926 40.4474 21.0025C40.4375 21.0124 40.424 21.0179 40.41 21.018H37.0447C37.0221 21.0179 37.0003 21.0102 36.9825 20.9961C36.9647 20.9819 36.9521 20.9622 36.9467 20.94L36.5746 19.4091C36.5725 19.4002 36.5677 19.3921 36.561 19.3859C36.5543 19.3797 36.5456 19.3757 36.5366 19.3743C36.5275 19.3729 36.5181 19.374 36.5098 19.3778C36.5015 19.3817 36.4946 19.3881 36.4898 19.3959C35.4184 21.2146 32.4437 21.4456 30.5657 21.2081C29.5552 21.0813 28.3026 20.6153 27.6682 19.7442C27.1756 19.0685 26.8944 18.329 26.8247 17.5257C26.7108 16.2217 26.8456 14.9309 27.6415 13.8961C28.7089 12.509 30.8109 12.2251 32.4478 12.1974C32.4572 12.1974 33.7692 12.1949 36.3838 12.1896C36.3994 12.1897 36.4149 12.1864 36.4292 12.1803C36.4436 12.1742 36.4567 12.1652 36.4676 12.1539C36.4785 12.1425 36.4871 12.129 36.4927 12.1142C36.4983 12.0996 36.501 12.0839 36.5005 12.0682C36.47 11.1074 36.4845 10.0159 35.3801 9.6199C34.7038 9.37793 33.8989 9.26876 32.9656 9.29251C31.7958 9.32243 30.8589 9.40267 30.1552 9.53289C30.1462 9.53462 30.137 9.53416 30.1281 9.53193C30.1192 9.52969 30.111 9.52548 30.104 9.51968C30.0969 9.51389 30.0911 9.50666 30.0872 9.49842C30.0833 9.49017 30.0811 9.48112 30.0811 9.47199V6.26747C30.081 6.2533 30.0863 6.23961 30.0959 6.22912C30.1054 6.21866 30.1185 6.21211 30.1326 6.21075ZM36.4553 14.8503C34.8891 14.845 33.768 14.8473 33.0926 14.857C32.0464 14.8716 30.8916 15.0985 30.7326 16.2651C30.5459 17.6312 31.2784 18.2648 32.5815 18.3387C34.1774 18.4271 35.5098 18.0073 36.4766 16.6927C36.529 16.6216 36.5571 16.5362 36.5572 16.4488V14.9508C36.5572 14.9242 36.5466 14.8987 36.5275 14.8799C36.5084 14.8611 36.4824 14.8503 36.4553 14.8503Z" fill="white"/>
<path d="M22.9096 0.237023C22.9199 0.237023 22.9301 0.239232 22.9396 0.243145C22.9491 0.247058 22.9578 0.252675 22.965 0.259901C22.9723 0.267129 22.9779 0.275915 22.9818 0.285356C22.9857 0.29477 22.9879 0.304816 22.9879 0.315001C22.9861 8.67131 22.987 14.0453 22.9905 16.4369C22.9918 17.1945 23.0514 17.9427 23.9771 18.0522C24.2994 18.0909 24.6402 18.0841 24.9996 18.0313C25.0072 18.0303 25.0151 18.031 25.0225 18.0332C25.0298 18.0354 25.0367 18.0392 25.0424 18.0441C25.0482 18.0491 25.0529 18.0553 25.056 18.0622C25.0591 18.069 25.0606 18.0766 25.0605 18.0841V20.9915C25.0604 21.0262 25.0476 21.0595 25.0247 21.0853C25.0018 21.1111 24.9703 21.1275 24.9361 21.1314C23.7865 21.266 22.6969 21.2507 21.6674 21.0853C19.4372 20.7276 19.0001 19.0871 18.9988 17.1629C18.9952 9.41456 18.9948 3.79325 18.9975 0.299212C18.9978 0.282688 19.0047 0.266977 19.0165 0.25539C19.0283 0.243816 19.0444 0.237045 19.0609 0.237023H22.9096Z" fill="white"/>
<path fill-rule="evenodd" clip-rule="evenodd" d="M83.4507 2.05856C84.7424 2.01105 85.9506 2.01669 87.0754 2.07564C88.4408 2.14691 90.3836 2.49289 91.4126 3.34811C92.5939 4.32872 92.9556 5.55079 93.1781 7.10815C93.3864 8.57312 93.3212 9.97132 92.9822 11.3026C92.6723 12.5212 92.0026 13.4725 90.9731 14.1562C89.6778 15.0167 87.4713 15.1934 85.8529 15.1789C85.3241 15.1745 84.5878 15.1769 83.6441 15.1857C83.5876 15.1857 83.5466 15.1732 83.521 15.1486C83.4654 15.0941 83.4256 15.1034 83.4017 15.1763C83.3991 15.1833 83.398 15.1907 83.3988 15.1976L83.4704 16.297C83.4722 16.3285 83.4631 16.3595 83.4443 16.385C83.4254 16.4105 83.3982 16.429 83.3673 16.4369L82.9658 16.5332C82.9467 16.5376 82.9268 16.5372 82.9081 16.5319C82.8894 16.5266 82.8725 16.5166 82.8588 16.5029L82.746 16.3892C82.744 16.3873 82.7416 16.3859 82.7389 16.385C82.7362 16.3841 82.7333 16.3837 82.7305 16.384C82.7277 16.3844 82.7252 16.3857 82.7228 16.3873C82.7205 16.3889 82.7184 16.3909 82.717 16.3934L82.6957 16.4314C82.6926 16.437 82.691 16.4435 82.6912 16.4498C82.6915 16.4561 82.6935 16.4621 82.697 16.4672L83.3605 17.3211C83.3652 17.3271 83.3688 17.334 83.3708 17.3414C83.3728 17.3488 83.3734 17.3566 83.3724 17.3643C83.3714 17.3719 83.3688 17.3792 83.365 17.3858C83.3612 17.3925 83.356 17.3983 83.3499 17.4029L82.64 17.9494C82.6295 17.9579 82.622 17.9696 82.6184 17.9826C82.6148 17.9956 82.6153 18.0094 82.62 18.0219C82.6247 18.0344 82.6333 18.0451 82.6445 18.0522C82.6558 18.0593 82.6692 18.0626 82.6825 18.0615L83.3605 18.018C83.3719 18.0171 83.3835 18.0185 83.3943 18.0222C83.4051 18.026 83.4149 18.0322 83.4233 18.04C83.4318 18.0477 83.4386 18.0571 83.4433 18.0677C83.448 18.0782 83.4506 18.0896 83.4507 18.1012C83.456 18.3783 83.4705 18.7545 83.4188 19.0501C83.395 19.1874 83.2792 19.2585 83.0718 19.2638C83.0379 19.2648 83.0056 19.2787 82.9816 19.3024C82.9575 19.3262 82.9433 19.3583 82.9419 19.392C82.9331 19.6374 83.0198 19.7672 83.2016 19.7813C83.2263 19.7829 83.2501 19.7913 83.2703 19.8058C83.2904 19.8202 83.3062 19.8402 83.3157 19.8631C83.4402 20.1675 83.4836 20.5265 83.4465 20.94C83.445 20.9584 83.4377 20.9759 83.4256 20.9899C83.4135 21.0039 83.3973 21.0138 83.3792 21.018L82.5565 21.2158C82.5471 21.2181 82.5371 21.2185 82.5275 21.2168C82.5179 21.215 82.5089 21.2113 82.5008 21.2058C82.4927 21.2004 82.4857 21.1934 82.4805 21.1852C82.4753 21.1769 82.4719 21.1675 82.4705 21.1578C82.4299 20.8332 82.4383 20.5252 82.4956 20.234C82.5002 20.2094 82.5098 20.1859 82.5237 20.165C82.5376 20.1442 82.5556 20.1263 82.5765 20.1125C82.5924 20.1029 82.6043 20.0956 82.6123 20.0903C82.6187 20.086 82.6233 20.0793 82.6255 20.0719C82.6276 20.0645 82.6274 20.0564 82.6242 20.0494C82.6211 20.0423 82.6154 20.0367 82.6084 20.0332C82.6014 20.0298 82.5934 20.0288 82.5859 20.0307L82.3116 20.0967C82.2896 20.1022 82.2662 20.0986 82.2466 20.0867C82.227 20.0749 82.2126 20.0556 82.2069 20.0332L82.0535 19.3972C82.0478 19.3739 82.0514 19.3494 82.0635 19.3289C82.0757 19.3083 82.0953 19.2935 82.1183 19.2876L82.5859 19.161C82.5984 19.1576 82.6093 19.1499 82.6168 19.1394C82.6243 19.1288 82.6278 19.1159 82.6268 19.103C82.6241 19.0801 82.5999 19.05 82.554 19.0131C82.5255 18.9907 82.5038 18.96 82.4918 18.9248C82.4273 18.7418 82.4297 18.5178 82.4985 18.253C82.5017 18.2412 82.5017 18.2288 82.4989 18.2169C82.4961 18.205 82.4906 18.1938 82.4824 18.1846C82.4743 18.1755 82.4639 18.1686 82.4525 18.1643C82.441 18.1601 82.4285 18.1588 82.4164 18.1605C82.4128 18.1614 82.4013 18.1637 82.3819 18.1672C82.3552 18.1724 82.3275 18.17 82.302 18.1605C82.2765 18.1509 82.2542 18.1345 82.2375 18.1131L81.6176 17.3133C81.6072 17.3004 81.5931 17.2901 81.5767 17.284C81.5281 17.2656 81.4787 17.2648 81.4284 17.2814C81.4172 17.2852 81.4051 17.2867 81.3933 17.2856C81.3815 17.2845 81.3699 17.2808 81.3595 17.275C81.349 17.2692 81.3397 17.2613 81.3324 17.2518C81.3251 17.2423 81.3198 17.2312 81.3169 17.2196L81.219 16.8168C81.2168 16.8077 81.2169 16.7982 81.219 16.7891C81.2211 16.7799 81.2252 16.7713 81.2312 16.7639C81.2372 16.7566 81.2448 16.7506 81.2535 16.7465C81.2621 16.7425 81.2716 16.7404 81.2812 16.7404C81.3483 16.7413 81.4469 16.7184 81.5767 16.6718C81.6367 16.6498 81.684 16.649 81.7184 16.6692C81.7528 16.6886 81.7767 16.7276 81.79 16.7865C81.792 16.7954 81.7962 16.8038 81.8022 16.8107C81.8082 16.8175 81.8157 16.8227 81.8241 16.8258C81.8326 16.829 81.8417 16.83 81.8505 16.8287C81.8593 16.8274 81.8677 16.8239 81.8747 16.8184L82.4309 16.3879C82.4449 16.3773 82.4563 16.3633 82.4641 16.3473C82.4718 16.3314 82.476 16.3137 82.476 16.2958V15.9484C82.476 15.9433 82.4746 15.9383 82.4721 15.9339C82.4696 15.9295 82.4659 15.9256 82.4615 15.9233C82.4032 15.8916 82.3392 15.8932 82.2694 15.9275C82.2032 15.96 82.1925 16.0026 82.2375 16.0554C82.2464 16.0668 82.2698 16.0813 82.3078 16.0989C82.328 16.1091 82.3441 16.1258 82.3535 16.1462C82.3629 16.1666 82.3649 16.1895 82.3593 16.211C82.3426 16.2788 82.2948 16.3269 82.2163 16.355C82.2061 16.3587 82.1952 16.3602 82.1844 16.3596C82.1735 16.3589 82.1627 16.3558 82.1531 16.3509C82.1435 16.3459 82.1353 16.3389 82.1286 16.3306C82.1219 16.3222 82.1171 16.3126 82.1144 16.3022C82.073 16.1526 81.9771 16.1149 81.827 16.1888C81.8166 16.1938 81.8051 16.1964 81.7935 16.1965C81.782 16.1966 81.7707 16.194 81.7603 16.1891C81.7499 16.1842 81.7405 16.1768 81.7333 16.1678C81.726 16.1589 81.721 16.1484 81.7184 16.1372L81.6533 15.8653C81.651 15.8554 81.651 15.8452 81.653 15.8353C81.6551 15.8254 81.6593 15.816 81.6653 15.8079C81.6713 15.7997 81.6792 15.7928 81.6881 15.7879C81.697 15.7831 81.707 15.7802 81.7171 15.7796L81.8602 15.7702C81.8718 15.7694 81.8832 15.7662 81.8934 15.7605C81.9037 15.7549 81.9126 15.7471 81.9195 15.7377C81.9264 15.7283 81.931 15.7175 81.9334 15.7061C81.9357 15.6946 81.9358 15.6826 81.933 15.6713L81.7793 15.0365C81.7766 15.0262 81.7761 15.0154 81.778 15.0049C81.78 14.9944 81.7843 14.9841 81.7906 14.9753C81.7969 14.9665 81.8053 14.9594 81.8148 14.954C81.8242 14.9486 81.8346 14.9451 81.8454 14.944C82.1217 14.9185 82.352 14.8334 82.5356 14.6882C82.5547 14.6737 82.5765 14.6634 82.5997 14.6579C82.623 14.6524 82.6473 14.6517 82.6706 14.6563C82.7252 14.6668 82.7543 14.6716 82.7579 14.6708C82.8478 14.6407 82.9218 14.575 82.9645 14.4874C83.0072 14.3998 83.0153 14.2972 82.987 14.201C82.9376 14.0321 82.9686 13.8987 83.0798 13.8011C83.0873 13.7945 83.0933 13.7863 83.0976 13.7772C83.1018 13.7682 83.1043 13.7585 83.1046 13.7486C83.105 13.7386 83.1034 13.7286 83.0998 13.7192C83.0962 13.7099 83.0907 13.7013 83.0837 13.6941C82.8824 13.4901 82.6692 13.4414 82.4441 13.5478C82.4121 13.5627 82.3768 13.569 82.3416 13.5665C82.3064 13.564 82.2722 13.5527 82.2427 13.5333C82.158 13.4771 82.0911 13.4486 82.0416 13.4486C81.9915 13.4487 81.9419 13.4337 81.8998 13.4057C81.8578 13.3778 81.8254 13.3383 81.807 13.2926C81.7887 13.2469 81.7853 13.1973 81.7974 13.1508C81.8095 13.1043 81.8366 13.063 81.8747 13.0329C82.0822 12.871 82.3395 12.7546 82.6468 12.6833C82.6544 12.6811 82.6609 12.6761 82.6648 12.6694C82.6688 12.6628 82.67 12.6548 82.668 12.6475V12.6462C82.664 12.638 82.6572 12.6314 82.649 12.6275C82.6408 12.6237 82.6315 12.623 82.6229 12.6253L82.0468 12.7771C82.0351 12.7802 82.023 12.7809 82.011 12.7793C81.999 12.7777 81.9876 12.7735 81.9772 12.7674C81.9668 12.7612 81.9576 12.7532 81.9504 12.7435C81.9433 12.7339 81.9384 12.7227 81.9356 12.711L81.8032 12.1645C81.7965 12.1362 81.7839 12.1096 81.7664 12.0862C81.7489 12.0628 81.7265 12.0431 81.701 12.0285L81.3659 11.8358C81.351 11.8272 81.3389 11.8141 81.3311 11.7985C81.3234 11.7828 81.3204 11.7651 81.3224 11.7475C81.3357 11.6323 81.3241 11.5653 81.2879 11.5468C81.2556 11.5381 81.2219 11.5356 81.1887 11.5391L80.9013 11.5626C80.8888 11.5639 80.8762 11.5628 80.8642 11.559C80.8522 11.5553 80.8409 11.5491 80.8313 11.541C80.8219 11.5329 80.8143 11.5228 80.8088 11.5117C80.8032 11.5005 80.7998 11.4881 80.7991 11.4756L80.7727 11.0783C80.7723 11.071 80.7703 11.0638 80.7669 11.0573C80.7634 11.0508 80.7583 11.045 80.7524 11.0406C80.7465 11.0362 80.7396 11.033 80.7324 11.0316C80.7252 11.0301 80.7177 11.0305 80.7105 11.0322L79.5386 11.3145C79.5168 11.3196 79.4939 11.3161 79.4748 11.3045C79.4557 11.2929 79.4418 11.2742 79.4364 11.2526L79.1055 9.88928C79.1011 9.87042 79.1041 9.85038 79.1142 9.83385C79.1244 9.81732 79.1408 9.80536 79.1596 9.80066L80.4853 9.48134C80.5186 9.47338 80.5539 9.479 80.5832 9.49681C80.6125 9.51462 80.6334 9.54322 80.6416 9.57639L80.9077 10.6745C80.9174 10.7151 80.9414 10.7507 80.9751 10.7754C81.0088 10.8001 81.0503 10.8119 81.092 10.8089L81.4404 10.7867C81.4609 10.7853 81.4816 10.7888 81.5003 10.7973C81.519 10.8058 81.5352 10.819 81.5477 10.8353C81.5601 10.8517 81.5683 10.8708 81.5715 10.8911C81.5747 10.9114 81.5729 10.9323 81.566 10.9517C81.4716 11.2261 81.5643 11.3807 81.8441 11.415C81.8739 11.4189 81.9029 11.4302 81.9276 11.4479C81.9522 11.4656 81.9714 11.4887 81.983 11.5146C81.9946 11.5405 81.9981 11.568 81.993 11.5938C81.9878 11.6197 81.9742 11.6427 81.954 11.6602C81.931 11.6805 81.9107 11.7439 81.8931 11.8503C81.8915 11.8602 81.8925 11.8705 81.8957 11.88C81.8988 11.8895 81.9042 11.8981 81.9114 11.9051C81.9187 11.9122 81.9275 11.9175 81.9372 11.9206C81.9469 11.9237 81.9571 11.9244 81.9672 11.9228C82.1738 11.8876 82.3268 11.8371 82.4257 11.7711C82.4403 11.7611 82.4571 11.7548 82.4747 11.7527C82.4923 11.7506 82.5103 11.7528 82.5269 11.7591C82.5435 11.7655 82.5582 11.7759 82.5701 11.7891C82.582 11.8025 82.5908 11.8185 82.5952 11.8358L82.9381 13.2533C82.9458 13.2853 82.9646 13.3137 82.9912 13.3332C83.0179 13.3528 83.0507 13.3624 83.0837 13.3603L83.366 13.3419C83.3762 13.3412 83.386 13.3376 83.3943 13.3316C83.4026 13.3257 83.409 13.3175 83.413 13.3081C83.417 13.2987 83.4184 13.2882 83.4169 13.2781C83.4153 13.268 83.4109 13.2585 83.4043 13.2507C83.3884 13.2305 83.357 13.1992 83.3102 13.157C83.2767 13.127 83.266 13.0865 83.2783 13.0355C83.3145 12.8868 83.2838 12.7812 83.1858 12.7187C82.9647 12.5775 82.9407 12.3519 82.8772 12.1236C82.8712 12.1014 82.8738 12.0778 82.8846 12.0575C82.8954 12.0372 82.9137 12.0216 82.9355 12.014C83.2674 11.8997 83.4345 11.8426 83.4362 11.8426C84.1938 11.8281 85.7976 11.8966 86.9153 11.7237C87.7734 11.5904 88.5507 11.1376 88.7997 10.2705C89.0923 9.2529 89.1506 8.18393 88.8844 7.15713C88.4831 5.60632 87.1005 5.36728 85.7192 5.32109C85.1435 5.30262 84.4209 5.29975 83.5513 5.31207C83.5292 5.31241 83.5082 5.32097 83.4926 5.33623C83.477 5.35151 83.4681 5.37232 83.4678 5.39391L83.4614 5.98777C83.4605 6.0695 83.4418 6.15044 83.4069 6.22525L83.0879 6.90773C83.0731 6.94064 83.0662 6.97625 83.0679 7.01181C83.0838 7.33736 83.192 7.57458 83.3924 7.72328C83.4056 7.73273 83.4166 7.74506 83.4246 7.75937C83.4326 7.77373 83.4376 7.78988 83.4388 7.80641L83.4852 8.51531C83.4871 8.54507 83.4799 8.57475 83.4646 8.60038C83.4492 8.62606 83.4261 8.64653 83.3988 8.65902C83.207 8.74481 83.2625 8.93218 83.0879 9.01798C83.0393 9.04173 83.0079 9.07304 82.9938 9.11175C82.9806 9.1487 82.9969 9.18646 83.0428 9.22517C83.237 9.38969 83.3424 9.62379 83.3592 9.9273C83.3604 9.94997 83.3536 9.97248 83.3399 9.99078C83.3261 10.0091 83.3062 10.0223 83.2838 10.0278L82.8095 10.1413C82.7951 10.1447 82.7803 10.1454 82.7657 10.1432C82.751 10.1409 82.7368 10.1358 82.7241 10.128C82.7114 10.1203 82.7003 10.1101 82.6916 10.0981C82.6829 10.0861 82.6766 10.0725 82.6732 10.0581L82.6178 9.82966C82.615 9.81783 82.6097 9.80667 82.6026 9.7968C82.5955 9.78692 82.5863 9.77836 82.5759 9.77199C82.5654 9.7656 82.5535 9.76128 82.5414 9.75942C82.5293 9.75757 82.5169 9.75809 82.505 9.76103L82.2759 9.81516C82.2429 9.82312 82.2079 9.8179 82.1789 9.80034C82.1499 9.78278 82.129 9.75424 82.1209 9.7214L82.0374 9.37694C82.0327 9.35782 82.0207 9.34121 82.0039 9.33086C81.9871 9.32051 81.9668 9.31717 81.9475 9.32151L81.77 9.36373C81.7448 9.36998 81.7183 9.36884 81.6936 9.36018C81.669 9.35153 81.6473 9.33579 81.6311 9.31507L81.3807 8.99285C81.3742 8.98438 81.3691 8.97482 81.3662 8.96449C81.3634 8.95414 81.3626 8.94323 81.364 8.93259C81.3653 8.92193 81.3689 8.91164 81.3743 8.9023C81.3796 8.89297 81.3867 8.88472 81.3952 8.87813L81.7581 8.59844C81.7683 8.59048 81.78 8.5845 81.7925 8.58104C81.805 8.57759 81.8181 8.57656 81.8309 8.57814C81.8437 8.57974 81.8562 8.58398 81.8673 8.59039C81.8784 8.59678 81.8883 8.60533 81.896 8.61552L81.9846 8.72894C81.9968 8.74461 82.0132 8.75654 82.032 8.7631C82.0508 8.76966 82.0712 8.77067 82.0906 8.766L82.2482 8.72765C82.2605 8.72451 82.2719 8.71845 82.2814 8.70993C82.2908 8.70137 82.2981 8.69057 82.3023 8.67868C82.3065 8.66674 82.3076 8.65369 82.3055 8.6413C82.3035 8.62896 82.2982 8.61727 82.2904 8.60746L81.945 8.16279C81.9312 8.14482 81.9248 8.1222 81.9276 8.09996C81.9303 8.07775 81.9419 8.05755 81.9595 8.04389L82.3526 7.74165C82.3919 7.71162 82.4198 7.66906 82.4312 7.62113C82.4426 7.57325 82.4369 7.52283 82.4154 7.47839C82.3939 7.43392 82.3575 7.39813 82.3126 7.37689C82.2677 7.35565 82.2169 7.3503 82.1686 7.36174L82.0403 7.39203C82.0179 7.39753 81.9941 7.39619 81.972 7.38849C81.95 7.38077 81.9303 7.36701 81.9156 7.34853L81.537 6.86004C81.5252 6.84459 81.52 6.82517 81.5225 6.8059C81.525 6.78666 81.5349 6.76922 81.5502 6.75725L81.5873 6.72954C81.6122 6.71 81.6293 6.68217 81.6356 6.65124C81.6419 6.62031 81.637 6.58802 81.6218 6.56037C81.5282 6.38792 81.5154 6.1755 81.5834 5.92301C81.5896 5.89968 81.5901 5.8752 81.5854 5.85147C81.5805 5.82768 81.5702 5.80507 81.5554 5.78574L81.2071 5.33849C81.1868 5.31224 81.1777 5.27888 81.1819 5.24601C81.1861 5.21314 81.2034 5.18322 81.2296 5.16288L81.7291 4.77879C81.7428 4.76813 81.7584 4.76016 81.7751 4.75559C81.7919 4.751 81.8097 4.74983 81.827 4.75204C81.8443 4.75426 81.8611 4.75984 81.8763 4.76847C81.8915 4.77713 81.9048 4.78886 81.9156 4.80263L82.3342 5.34236C82.3471 5.3588 82.3531 5.37964 82.3506 5.40036C82.3482 5.42113 82.3374 5.44021 82.321 5.4532L81.7925 5.85953C81.7853 5.86508 81.7796 5.87261 81.7764 5.88112C81.7732 5.88963 81.7727 5.89895 81.7745 5.90786C81.7763 5.91678 81.7805 5.92507 81.7867 5.93171C81.793 5.93831 81.8009 5.94319 81.8096 5.94556L81.8905 5.96908C81.8924 5.9694 81.8943 5.96944 81.896 5.96876C81.8976 5.96805 81.8991 5.96669 81.8998 5.96522C82.004 5.76551 82.1762 5.63743 82.4164 5.58113C82.442 5.57515 82.4648 5.56075 82.4811 5.5402C82.4975 5.51959 82.5064 5.49398 82.5063 5.4677V5.37941C82.5062 5.34974 82.5178 5.3211 82.5382 5.2995C82.5586 5.27793 82.5865 5.26481 82.6162 5.26309L82.8929 5.24472C82.9074 5.24391 82.9216 5.24013 82.9345 5.23377C82.9475 5.22735 82.9593 5.21832 82.9687 5.20734C82.978 5.19642 82.985 5.18366 82.9893 5.16997C82.9936 5.15619 82.9953 5.14147 82.9938 5.12711C82.9805 4.99515 82.9022 4.89919 82.7592 4.83936C82.7434 4.83256 82.7294 4.82211 82.7186 4.80875C82.7078 4.79532 82.7003 4.77928 82.697 4.76235C82.6938 4.74545 82.6949 4.7279 82.6999 4.71144C82.705 4.695 82.7142 4.68011 82.7264 4.66794L82.9261 4.46719C82.9318 4.46118 82.9355 4.45347 82.9364 4.44528C82.9373 4.43713 82.9354 4.42884 82.9313 4.42176C82.9271 4.41469 82.9208 4.4092 82.9132 4.40597C82.9056 4.40274 82.8971 4.4021 82.8891 4.40404C82.8105 4.42603 82.7477 4.4562 82.7009 4.49491C82.6832 4.50982 82.6606 4.51786 82.6374 4.51714C82.6142 4.51641 82.592 4.50707 82.5752 4.49104C82.4534 4.37315 82.385 4.24466 82.37 4.10566C82.3695 4.10103 82.3679 4.09655 82.3651 4.09277C82.3624 4.08897 82.3585 4.08595 82.3542 4.08407C82.3499 4.08218 82.345 4.08126 82.3403 4.08181C82.3357 4.08238 82.3312 4.08447 82.3274 4.08729L81.5979 4.64925C81.5858 4.65871 81.5715 4.66524 81.5564 4.66794C81.5412 4.67064 81.5256 4.66973 81.5109 4.66504C81.4963 4.66035 81.483 4.65185 81.4723 4.64087C81.4616 4.62991 81.4537 4.61654 81.4494 4.60188C81.3611 4.30361 81.1873 4.02422 80.9277 3.76378C80.9174 3.7534 80.9093 3.74099 80.9042 3.72736C80.899 3.71378 80.8969 3.69926 80.8977 3.68483C80.8986 3.67035 80.9026 3.65603 80.9093 3.64326C80.9161 3.63054 80.9256 3.61949 80.937 3.61072L81.5038 3.17378C81.5262 3.15679 81.5438 3.13441 81.5554 3.10869C81.5669 3.08289 81.5719 3.05425 81.5699 3.02588L81.546 2.64469C81.545 2.6298 81.547 2.61471 81.5518 2.60054C81.5567 2.58637 81.5644 2.57316 81.5744 2.56188C81.5843 2.55067 81.5963 2.54145 81.6098 2.53481C81.6234 2.52817 81.6382 2.52424 81.6533 2.52321L82.0719 2.49679C82.0823 2.49607 82.0927 2.49756 82.1025 2.50098C82.1124 2.50442 82.1216 2.50972 82.1293 2.51677C82.1369 2.5238 82.143 2.53241 82.1473 2.5419C82.1516 2.55135 82.1539 2.56152 82.1541 2.57187L82.1579 2.76746C82.1597 2.81508 82.1724 2.86151 82.195 2.90311C82.2171 2.94447 82.2525 2.98213 82.301 3.01557C82.3058 3.01939 82.3095 3.02451 82.3113 3.03039C82.3131 3.03627 82.3132 3.04258 82.3113 3.04844C82.3095 3.05431 82.3056 3.05948 82.3007 3.06326C82.2958 3.06697 82.29 3.06935 82.2839 3.0697C82.0994 3.07234 82.0295 3.12983 82.0745 3.24242C82.0771 3.24942 82.0807 3.25626 82.0851 3.26239L82.4376 3.69901C82.4415 3.70406 82.4469 3.70785 82.4531 3.70932C82.4593 3.71079 82.466 3.70986 82.4718 3.70706C82.4775 3.70427 82.482 3.6996 82.4847 3.69385C82.4874 3.68811 82.4882 3.68163 82.4866 3.67549L82.4019 3.32426C82.3971 3.30367 82.4004 3.28201 82.4115 3.26401C82.4227 3.24597 82.4408 3.23293 82.4615 3.22792L82.562 3.20407C82.5731 3.20136 82.5832 3.1959 82.5917 3.18828C82.6001 3.18064 82.6069 3.17099 82.6107 3.16025C82.6144 3.14956 82.6153 3.13793 82.6136 3.12674C82.6118 3.11555 82.6073 3.10482 82.6004 3.0958L82.3542 2.77906C82.328 2.74528 82.3146 2.70329 82.3168 2.66048C82.319 2.61767 82.3365 2.5768 82.3661 2.54544C82.6601 2.23669 83.0217 2.0744 83.4507 2.05856ZM82.4534 6.31097L82.3487 6.3361C82.3299 6.34075 82.3127 6.35037 82.2988 6.36381C82.2848 6.37727 82.2747 6.39419 82.2694 6.41279C82.2642 6.43139 82.264 6.45112 82.2688 6.46982C82.2737 6.48854 82.2835 6.5057 82.2971 6.51945L82.6651 6.88646C82.6738 6.89478 82.6851 6.90012 82.697 6.9016C82.709 6.90308 82.7211 6.90077 82.7315 6.89484C82.7419 6.8889 82.7503 6.87971 82.755 6.86874C82.7598 6.85774 82.7607 6.84527 82.7579 6.83361L82.6626 6.43792C82.6516 6.39352 82.6235 6.35501 82.5843 6.33127C82.5451 6.30755 82.498 6.30024 82.4534 6.31097ZM83.3947 3.82597C83.3793 3.8253 83.3638 3.84108 83.3515 3.86979C83.3391 3.89867 83.331 3.9384 83.3289 3.97999C83.3279 4.00057 83.3282 4.02108 83.3302 4.04025C83.3322 4.05942 83.3358 4.07697 83.3405 4.0918C83.3452 4.10655 83.351 4.11838 83.3576 4.1266C83.3643 4.13483 83.3719 4.13944 83.3795 4.13981C83.3949 4.14046 83.4104 4.12447 83.4227 4.09567C83.435 4.06681 83.4432 4.02733 83.4452 3.98579C83.4463 3.96521 83.4456 3.94469 83.4436 3.92553C83.4416 3.90637 83.4383 3.8888 83.4336 3.87398C83.429 3.85924 83.4232 3.8474 83.4166 3.83918C83.4099 3.83095 83.4023 3.82634 83.3947 3.82597ZM82.8575 3.86979C82.836 3.87123 82.8177 3.88065 82.8069 3.89621C82.7962 3.91176 82.7939 3.93206 82.8001 3.9526C82.8064 3.97311 82.8208 3.99226 82.8404 4.00577C82.8601 4.01928 82.8834 4.02622 82.9049 4.02478C82.9264 4.02333 82.9444 4.01359 82.9551 3.99803C82.9659 3.98248 82.9685 3.96219 82.9622 3.94164C82.9559 3.92114 82.9412 3.90196 82.9216 3.88848C82.902 3.87503 82.879 3.86836 82.8575 3.86979ZM83.3814 2.80065C83.379 2.80185 83.3767 2.80343 83.375 2.80548L83.0773 3.12352C83.0738 3.12736 83.0719 3.13254 83.0721 3.13769C83.0723 3.14286 83.0748 3.1477 83.0785 3.15123L83.0824 3.15542C83.1283 3.19793 83.189 3.22092 83.2513 3.21922C83.3136 3.21748 83.3725 3.19107 83.415 3.14607L83.4201 3.13963C83.4625 3.09455 83.4852 3.03415 83.4829 2.97207C83.4807 2.91004 83.4537 2.85127 83.4082 2.80838L83.4043 2.80419C83.4024 2.80231 83.4 2.80098 83.3976 2.8C83.395 2.79903 83.3922 2.7986 83.3895 2.79871C83.3868 2.79884 83.3839 2.79944 83.3814 2.80065Z" fill="white"/>
<path d="M80.6867 20.7515C80.8117 20.7515 80.9132 20.8524 80.9132 20.977C80.9132 21.1017 80.8117 21.2026 80.6867 21.2026C80.5616 21.2026 80.4601 21.1017 80.4601 20.977C80.4601 20.8524 80.5616 20.7515 80.6867 20.7515Z" fill="white"/>
<path d="M10.511 20.4206C10.529 20.3736 10.5821 20.3501 10.6293 20.368L11.0101 20.513C11.0573 20.531 11.081 20.5837 11.063 20.6306L10.9212 21.0002C10.9032 21.0472 10.8504 21.071 10.8033 21.0531L10.4221 20.9081C10.375 20.8901 10.3516 20.8374 10.3695 20.7905L10.511 20.4206Z" fill="white"/>
<path fill-rule="evenodd" clip-rule="evenodd" d="M1.02177 2.03891C5.32588 2.03451 7.83292 2.03655 8.54285 2.04535C8.72738 2.04711 9.15128 2.09009 9.81435 2.17456C9.84324 2.17813 9.87048 2.18997 9.89297 2.2084C9.91548 2.22685 9.93223 2.25137 9.94131 2.27896C9.99693 2.44349 10.1043 2.52536 10.2632 2.5245C10.2768 2.52436 10.2903 2.52713 10.3025 2.53288C10.3148 2.53863 10.3256 2.54722 10.3341 2.55769C10.3426 2.5682 10.3487 2.58063 10.3518 2.59378C10.3549 2.60697 10.3551 2.62085 10.3521 2.63406L10.2977 2.88604C10.2957 2.89471 10.2957 2.90378 10.2977 2.91246C10.2997 2.92115 10.3037 2.92933 10.3093 2.9363C10.3149 2.94323 10.3219 2.94888 10.3299 2.95274C10.338 2.9566 10.347 2.95856 10.356 2.95854H10.4288C10.4786 2.95847 10.5271 2.94331 10.568 2.91504C10.609 2.88674 10.6404 2.8468 10.6579 2.80032L10.7785 2.47842C10.7898 2.44837 10.8126 2.42379 10.8419 2.41043C10.8712 2.39713 10.9046 2.39579 10.9347 2.40689L11.5412 2.63277C11.5497 2.63586 11.5577 2.6405 11.5644 2.64662C11.5711 2.65275 11.5763 2.66031 11.5801 2.66853C11.5839 2.67673 11.5862 2.68561 11.5866 2.69463C11.5869 2.70363 11.5855 2.71262 11.5824 2.72106L11.3823 3.25305C11.3746 3.27383 11.3625 3.29277 11.3469 3.30847C11.3311 3.32419 11.312 3.33647 11.2911 3.34424C11.2703 3.35197 11.2479 3.35518 11.2257 3.35358C11.2036 3.35197 11.182 3.34553 11.1625 3.33489C11.0028 3.24604 10.8739 3.23283 10.7759 3.29526C10.5401 3.44967 10.2951 3.4536 10.1878 3.19892C10.1778 3.17438 10.1608 3.15296 10.1392 3.13737C10.1175 3.12179 10.0918 3.11269 10.0657 3.11127C10.0395 3.10986 10.0137 3.11606 9.9919 3.12932C9.97008 3.14257 9.95285 3.16223 9.9426 3.1857C9.92055 3.23763 9.91371 3.3296 9.92165 3.46153C9.9225 3.47573 9.92738 3.48937 9.93583 3.50084C9.94429 3.51231 9.95599 3.52124 9.96934 3.5263L10.7891 3.83112C10.8102 3.83891 10.8336 3.83923 10.8548 3.83177C10.8761 3.82429 10.8942 3.80949 10.9057 3.7902C10.9472 3.71894 10.9763 3.64267 10.9931 3.56174C10.9956 3.5502 11.0005 3.53933 11.0076 3.52984C11.0146 3.52035 11.0236 3.51239 11.034 3.50664C11.0444 3.5009 11.056 3.49728 11.0678 3.49633C11.0797 3.49539 11.0917 3.49713 11.1029 3.50116L11.3997 3.61201C11.4132 3.61705 11.4256 3.62483 11.4361 3.63456C11.4467 3.64431 11.4552 3.65608 11.4612 3.66904C11.4672 3.68201 11.4707 3.69608 11.4712 3.71029C11.4718 3.72447 11.4695 3.73859 11.4645 3.75185L11.3333 4.10179C11.3264 4.12081 11.3257 4.14165 11.3314 4.16108C11.3371 4.18051 11.3491 4.19746 11.3652 4.20974C11.4615 4.28189 11.4817 4.37095 11.4261 4.47654C11.4133 4.50068 11.3931 4.5194 11.3684 4.53035C11.3438 4.54129 11.3156 4.54392 11.2879 4.53776C11.2601 4.5316 11.2341 4.51693 11.2131 4.49587C11.1922 4.47482 11.1774 4.4483 11.1706 4.41983C11.1556 4.35647 11.1572 4.28465 11.1758 4.20458C11.178 4.19463 11.1764 4.18423 11.1716 4.17526C11.1667 4.16633 11.1589 4.15951 11.1493 4.15592L11.1123 4.14271C11.1107 4.1421 11.1088 4.14167 11.1071 4.14175C11.1055 4.14183 11.104 4.14234 11.1026 4.14304C11.1011 4.14378 11.0995 4.14465 11.0984 4.14594C11.0974 4.14722 11.0966 4.14884 11.0962 4.15045L10.7665 5.02819C10.7622 5.03979 10.7556 5.05037 10.7472 5.05944C10.7388 5.06851 10.7287 5.07588 10.7176 5.08103C10.7063 5.08619 10.6941 5.0893 10.6818 5.08973C10.6696 5.09014 10.6574 5.08795 10.646 5.08361L10.0128 4.84871C10.0041 4.84557 9.99467 4.84461 9.98545 4.84581C9.97625 4.84702 9.9673 4.85019 9.95967 4.85547C9.95207 4.86075 9.94597 4.86793 9.94163 4.8761C9.93728 4.88431 9.93494 4.89355 9.93486 4.90284V5.74095C9.93487 5.7723 9.94087 5.80349 9.95291 5.83246C9.96495 5.86142 9.98287 5.88763 10.0051 5.9098L10.1069 6.01291C10.1129 6.01894 10.1177 6.02614 10.1205 6.03417C10.1233 6.04227 10.1241 6.05112 10.123 6.05963C10.122 6.0681 10.1193 6.07629 10.1147 6.08347C10.11 6.09069 10.1036 6.09672 10.0963 6.1012L10.058 6.12633C10.0415 6.1365 10.0218 6.14041 10.0029 6.13729C9.98381 6.13412 9.96643 6.12419 9.95452 6.10925C9.68526 5.7758 9.32082 5.58197 8.86088 5.52828C7.70694 5.3919 6.5043 5.34533 5.25324 5.38844C5.23381 5.38878 5.21531 5.39686 5.20169 5.41067C5.18806 5.42449 5.18042 5.44317 5.18042 5.46255V9.84674C5.18042 9.86535 5.18776 9.88337 5.20104 9.89669C5.21442 9.91002 5.23287 9.91793 5.25195 9.91828C5.98827 9.92443 6.74317 9.91561 7.51656 9.89185C7.85116 9.88129 8.09097 9.83471 8.23577 9.75201C8.26476 9.73592 8.29939 9.73161 8.33243 9.74009C8.38711 9.75506 8.44218 9.7933 8.49774 9.8548C8.50546 9.8628 8.51054 9.8731 8.51191 9.88412C8.51329 9.89513 8.51098 9.90637 8.50547 9.91602C8.49996 9.92563 8.49148 9.93318 8.4813 9.93761C8.47109 9.94205 8.45961 9.94304 8.44876 9.94051L8.2609 9.90088C8.24562 9.8965 8.22905 9.89836 8.21514 9.90603C8.20128 9.91368 8.1912 9.92664 8.18679 9.9418C8.1824 9.95701 8.18426 9.97338 8.19194 9.98723C8.19964 10.0011 8.21243 10.0115 8.22771 10.0159L8.39591 10.0791C8.41746 10.0869 8.43588 10.1016 8.44811 10.121C8.46033 10.1403 8.46583 10.1633 8.46358 10.186C8.44592 10.3734 8.3584 10.4605 8.20129 10.4474C8.19225 10.4465 8.18292 10.4476 8.17422 10.4503C8.16557 10.453 8.15736 10.4573 8.15038 10.4632C8.14339 10.469 8.13754 10.4763 8.1333 10.4844C8.12905 10.4926 8.12641 10.5017 8.12556 10.5108C8.11234 10.6472 8.13733 10.7412 8.2 10.7931C8.21165 10.8026 8.22567 10.8087 8.2406 10.8105C8.25554 10.8123 8.27084 10.8099 8.28442 10.8034C8.29804 10.7969 8.30962 10.7866 8.31761 10.7738C8.32559 10.761 8.32966 10.7463 8.32953 10.7312C8.32777 10.5632 8.41216 10.4307 8.58248 10.3339C8.60688 10.3204 8.62734 10.3005 8.64113 10.2763C8.6549 10.2521 8.66163 10.2245 8.66078 10.1967C8.65902 10.1281 8.67137 10.0867 8.69784 10.0726C8.72521 10.0568 8.77252 10.0576 8.83962 10.0752C8.91988 10.0972 8.97766 10.1007 9.01298 10.0858C9.03412 10.0771 9.0532 10.0642 9.06872 10.0478C9.08426 10.0314 9.09613 10.0119 9.1032 9.99078L9.21823 9.65953C9.22314 9.64597 9.23078 9.63347 9.24047 9.6228C9.25019 9.61211 9.26191 9.60315 9.27494 9.59702C9.28797 9.59089 9.30218 9.58767 9.31651 9.58703C9.33087 9.5864 9.34528 9.5885 9.35872 9.59347L10.0051 9.83385C10.0243 9.84124 10.0399 9.85576 10.0483 9.87445C10.0567 9.89325 10.0572 9.91481 10.0499 9.93406L9.81177 10.5714C9.80447 10.5911 9.79275 10.609 9.77762 10.6236C9.76249 10.6382 9.74415 10.6492 9.72413 10.6558C9.7041 10.6625 9.68267 10.6648 9.66162 10.6623C9.6406 10.6598 9.62031 10.6525 9.60233 10.6413C9.46461 10.556 9.30908 10.4926 9.13607 10.4512C9.13234 10.4499 9.12819 10.4499 9.12447 10.4512C9.12072 10.4526 9.11748 10.4552 9.11544 10.4586C9.1134 10.4621 9.11255 10.4663 9.11319 10.4702C9.11382 10.4742 9.11597 10.4779 9.11899 10.4806L9.41157 10.7722C9.43 10.79 9.45471 10.7999 9.4802 10.7999C9.50571 10.7999 9.53023 10.79 9.54819 10.7722L9.58783 10.7325C9.60163 10.7187 9.61928 10.709 9.63874 10.7048C9.65817 10.7006 9.67863 10.702 9.69771 10.7087L10.7002 11.0822C10.7247 11.0911 10.7521 11.0901 10.7759 11.0793C10.7997 11.0684 10.8182 11.0486 10.8274 11.0242L10.9347 10.7403C10.9378 10.7317 10.9427 10.7239 10.9489 10.7171C10.9551 10.7103 10.9625 10.7046 10.9708 10.7006C10.9792 10.6967 10.9883 10.6946 10.9976 10.6942C11.0067 10.6938 11.016 10.695 11.0246 10.6981L11.5573 10.8975C11.5711 10.9025 11.5837 10.9105 11.594 10.921C11.6044 10.9316 11.6122 10.9445 11.6169 10.9584C11.6215 10.9723 11.6232 10.9871 11.6214 11.0016C11.6195 11.0162 11.6143 11.0302 11.6062 11.0425C11.5524 11.1261 11.5143 11.2168 11.4922 11.3145C11.4902 11.3241 11.4918 11.334 11.4964 11.3425C11.501 11.351 11.5084 11.3576 11.5173 11.3609L12.0142 11.5455C12.022 11.5485 12.0289 11.5535 12.0345 11.5597C12.0401 11.5659 12.0445 11.5733 12.0467 11.5813C12.0489 11.5892 12.0491 11.5975 12.0474 11.6054C12.0456 11.6134 12.042 11.6211 12.0367 11.6274C11.9723 11.7039 11.9242 11.8328 11.8924 12.014C11.8903 12.0245 11.8857 12.0344 11.8795 12.043C11.8732 12.0517 11.8653 12.059 11.856 12.0643C11.8467 12.0695 11.8363 12.0727 11.8257 12.0736C11.815 12.0745 11.8042 12.0731 11.7941 12.0695L11.373 11.9125C11.3644 11.9094 11.3568 11.9045 11.3501 11.8983C11.3434 11.8922 11.3378 11.885 11.334 11.8768C11.3302 11.8686 11.3282 11.8597 11.3278 11.8507C11.3275 11.8416 11.3289 11.8324 11.332 11.8239L11.3691 11.725C11.3777 11.7024 11.3781 11.6776 11.3704 11.6547C11.3627 11.6319 11.3473 11.6124 11.3269 11.5996C11.1953 11.5169 11.0852 11.5178 10.9969 11.6022C10.9801 11.6177 10.9599 11.6291 10.938 11.6351C10.9161 11.641 10.8932 11.6416 10.8713 11.6367L10.83 11.6286C10.8103 11.6245 10.7898 11.6264 10.7714 11.6341C10.7529 11.6419 10.7374 11.6553 10.7269 11.6721C10.6086 11.8604 10.6062 12.0242 10.7201 12.1632C10.7275 12.1723 10.7325 12.1832 10.7343 12.1948C10.7361 12.2063 10.7347 12.2181 10.7304 12.229C10.7261 12.2398 10.7187 12.2494 10.7095 12.2567C10.7003 12.2638 10.6895 12.2686 10.6779 12.2702C10.6232 12.2772 10.5576 12.3114 10.4817 12.373C10.4607 12.3899 10.4356 12.401 10.4089 12.4052C10.3822 12.4093 10.3549 12.4065 10.3296 12.3968L9.79824 12.199C9.78998 12.196 9.78123 12.1945 9.77246 12.1951C9.76362 12.1958 9.75478 12.1986 9.74701 12.2029C9.7393 12.2071 9.73263 12.2129 9.72735 12.2199C9.72203 12.227 9.71831 12.2351 9.71639 12.2438L9.66452 12.4787C9.66195 12.4909 9.65688 12.5025 9.64937 12.5125C9.64185 12.5225 9.63208 12.5308 9.62102 12.5367C9.6099 12.5426 9.59751 12.546 9.58493 12.5467C9.57236 12.5473 9.55986 12.5452 9.54819 12.5405C9.46964 12.5098 9.38088 12.517 9.28203 12.5618C9.26753 12.5686 9.2508 12.5702 9.23531 12.566C9.21986 12.5618 9.20635 12.5521 9.19729 12.5389C9.18829 12.5258 9.1844 12.51 9.18601 12.4941C9.18766 12.4783 9.19474 12.4633 9.20631 12.4523L9.47408 12.1858C9.48872 12.171 9.49822 12.1518 9.50147 12.1313C9.50468 12.1109 9.50147 12.0899 9.49213 12.0714C9.48276 12.0529 9.46772 12.0378 9.44927 12.0282C9.43081 12.0186 9.40962 12.0149 9.38901 12.0179C9.11451 12.0583 8.87053 12.0206 8.65692 11.9045C8.64751 11.8995 8.63629 11.8982 8.62598 11.9009C8.61575 11.9036 8.60689 11.9101 8.60117 11.919C8.58263 11.9489 8.59058 11.9785 8.62501 12.0076C8.74773 12.1131 8.89846 12.169 9.07678 12.1751C9.08983 12.1759 9.10247 12.1797 9.11383 12.1861C9.12523 12.1925 9.13496 12.2014 9.14219 12.2122C9.14938 12.223 9.1539 12.2352 9.1554 12.248C9.15688 12.2608 9.15548 12.2739 9.15089 12.286L9.00234 12.6807C8.99344 12.7047 8.9765 12.7251 8.95433 12.7381C8.93212 12.751 8.90597 12.7559 8.88054 12.7519C8.70668 12.7238 8.55661 12.6494 8.43039 12.5289C8.34565 12.448 8.26488 12.4256 8.18808 12.4616C8.16723 12.4712 8.15073 12.4872 8.14103 12.5074C8.13135 12.5276 8.12892 12.5511 8.13426 12.5741C8.13962 12.597 8.15241 12.6184 8.17068 12.635C8.18893 12.6515 8.21182 12.6626 8.23577 12.6662C8.35399 12.6847 8.42728 12.7277 8.45552 12.7954C8.46235 12.8116 8.46315 12.8292 8.4581 12.8463C8.45304 12.8635 8.44222 12.8799 8.42652 12.894C8.4108 12.9081 8.39053 12.9195 8.36788 12.9272C8.34528 12.9348 8.32081 12.9384 8.29667 12.9378C7.14893 12.9132 6.13396 12.9068 5.25195 12.9182C5.23264 12.9182 5.21406 12.9259 5.2004 12.9395C5.18675 12.9531 5.17914 12.9715 5.17913 12.9907V17.6694C5.17913 17.6845 5.18498 17.6992 5.19556 17.71C5.20618 17.7208 5.22065 17.7274 5.23584 17.7277C6.44543 17.7656 7.53741 17.7467 8.51127 17.671C8.7867 17.6499 9.12212 17.5744 9.51758 17.4451C9.5846 17.4231 9.64027 17.3763 9.67257 17.3146L9.73476 17.197C9.74021 17.1863 9.74781 17.1767 9.75699 17.169C9.76616 17.1613 9.77681 17.1555 9.78825 17.1519C9.79968 17.1484 9.81177 17.1472 9.8237 17.1484C9.83561 17.1495 9.84732 17.153 9.85785 17.1587C10.0477 17.2599 10.1872 17.208 10.2764 17.003C10.2806 16.9938 10.2873 16.9858 10.2958 16.9802C10.3043 16.9745 10.3145 16.9711 10.3248 16.9708C10.335 16.9706 10.345 16.9734 10.3538 16.9785C10.3626 16.9838 10.3697 16.9914 10.3744 17.0005C10.4397 17.1307 10.3948 17.2415 10.2394 17.333C10.2269 17.3401 10.2158 17.3499 10.2071 17.3617C10.1985 17.3735 10.1924 17.3871 10.1891 17.4016L10.0686 17.9533C10.0641 17.9745 10.0648 17.9966 10.0705 18.0177C10.0763 18.0388 10.087 18.0584 10.1018 18.0748L10.1401 18.0999C10.1475 18.1048 10.1559 18.108 10.1646 18.1092C10.1734 18.1104 10.1826 18.1095 10.191 18.1067C10.1994 18.1039 10.207 18.099 10.2133 18.0928C10.2196 18.0866 10.2245 18.0792 10.2274 18.0709L10.5004 17.3423C10.5043 17.3316 10.5103 17.3217 10.5181 17.3133C10.5259 17.3049 10.5353 17.2978 10.5458 17.293C10.5562 17.2883 10.5675 17.2857 10.579 17.2853C10.5905 17.2849 10.6021 17.2868 10.6128 17.2908L11.4393 17.5982C11.4609 17.6061 11.4797 17.6202 11.4931 17.6388C11.5066 17.6574 11.514 17.6797 11.5147 17.7026C11.5209 17.8539 11.6105 17.945 11.7835 17.9758C11.8041 17.9796 11.8235 17.9888 11.8392 18.0026C11.855 18.0164 11.8668 18.0345 11.8731 18.0545C11.8793 18.0744 11.88 18.0957 11.875 18.116C11.87 18.1363 11.8595 18.155 11.8447 18.1698L11.7506 18.2649C11.7376 18.2778 11.7215 18.2872 11.7039 18.2923C11.6863 18.2973 11.6676 18.2979 11.6498 18.2939L11.4181 18.2436C11.3941 18.2385 11.3692 18.2423 11.3478 18.2539C11.3264 18.2656 11.3098 18.2844 11.3014 18.3071L11.2048 18.5645C11.1959 18.5872 11.18 18.6065 11.1593 18.6193C11.1386 18.6322 11.1141 18.638 11.0897 18.6358C11.042 18.6314 11.0031 18.633 10.9731 18.6409C10.9325 18.6515 10.9022 18.6801 10.8819 18.7266C10.8192 18.8683 10.7819 18.9485 10.7704 18.967C10.7587 18.9846 10.7412 18.9976 10.7208 19.0034C10.7004 19.0092 10.6785 19.0074 10.6592 18.9986C10.5604 18.9528 10.4752 18.9279 10.4037 18.9235C10.3872 18.9219 10.3706 18.926 10.357 18.9354C10.3433 18.9449 10.3336 18.9591 10.3293 18.9751C10.325 18.991 10.3264 19.0078 10.3335 19.0227C10.3406 19.0377 10.3528 19.0497 10.3679 19.0566L10.56 19.1516C10.5748 19.1587 10.5864 19.1714 10.5925 19.1868C10.5986 19.202 10.5988 19.2192 10.5932 19.2348L10.491 19.5054C10.4873 19.5156 10.4813 19.5248 10.4736 19.5325C10.4659 19.5402 10.4566 19.5461 10.4462 19.5499C10.436 19.5536 10.425 19.5553 10.414 19.5544C10.403 19.5536 10.3921 19.5504 10.3824 19.5451L10.1601 19.4223C10.146 19.4143 10.1351 19.4014 10.1295 19.3862C10.1239 19.371 10.1239 19.3544 10.1295 19.3392L10.2487 19.0224C10.2512 19.0156 10.2512 19.008 10.2487 19.0012C10.2354 18.9616 10.1957 18.9491 10.1295 18.9631C10.1155 18.966 10.1033 18.9742 10.0953 18.986C10.0874 18.9979 10.0842 19.0123 10.087 19.0263C10.1117 19.153 10.1096 19.2867 10.0805 19.4275C10.0756 19.4505 10.0781 19.4745 10.0876 19.4961C10.0971 19.5176 10.113 19.5357 10.1334 19.5477C10.1545 19.5608 10.1908 19.5701 10.2419 19.5754C10.2896 19.5806 10.3246 19.5983 10.3467 19.6282C10.3917 19.6889 10.4104 19.7756 10.4024 19.8882C10.4008 19.909 10.3916 19.9283 10.377 19.9427C10.3623 19.9571 10.3431 19.9656 10.3228 19.9662C9.99845 19.9755 10.0315 20.4239 10.1414 20.639C10.1554 20.6665 10.1622 20.6972 10.1614 20.728C10.1606 20.7588 10.1523 20.789 10.1369 20.8156C10.1215 20.8422 10.0997 20.8647 10.0734 20.8807C10.0472 20.8967 10.0171 20.9057 9.98642 20.9071C9.4474 20.9348 8.64346 21.018 8.0144 21.018C5.91926 21.0188 3.59275 21.0201 1.03498 21.0218C1.01779 21.0218 1.00138 21.0149 0.989226 21.0025C0.977102 20.9902 0.970256 20.9735 0.970215 20.9561V2.09143C0.970246 2.07749 0.975722 2.06424 0.985359 2.05437C0.99504 2.04448 1.00808 2.03891 1.02177 2.03891ZM8.52512 11.2375C8.49647 11.2452 8.46844 11.2587 8.44264 11.2771C8.41684 11.2955 8.39366 11.3184 8.37465 11.3448L8.36272 11.3609C8.35815 11.3677 8.35643 11.376 8.35789 11.3841C8.35937 11.3922 8.36401 11.3996 8.37078 11.4044L8.67528 11.6248C8.68216 11.6294 8.69064 11.6311 8.6988 11.6296C8.70697 11.6281 8.7143 11.6235 8.7191 11.6167L8.73103 11.6009C8.76932 11.5481 8.78903 11.485 8.78581 11.4256C8.78255 11.3663 8.75649 11.3155 8.71363 11.2842L8.68334 11.2616C8.66187 11.2462 8.63668 11.2362 8.60955 11.232C8.58244 11.2278 8.55375 11.2298 8.52512 11.2375ZM9.33327 11.1195C9.30284 11.107 9.26505 11.1156 9.22822 11.1434C9.19132 11.1712 9.15812 11.2161 9.13639 11.2681C9.11467 11.3201 9.10605 11.3751 9.11222 11.4208C9.11841 11.4665 9.1391 11.4994 9.16958 11.512C9.20004 11.5246 9.23773 11.516 9.27462 11.4882C9.31154 11.4603 9.34473 11.4155 9.36646 11.3635C9.38816 11.3115 9.39681 11.2564 9.39062 11.2107C9.38441 11.1651 9.36372 11.1322 9.33327 11.1195Z" fill="white"/>
<path d="M100.67 6.27294C100.702 6.27297 100.727 6.29833 100.727 6.32965V20.9587C100.727 20.99 100.702 21.0154 100.67 21.0154H96.8163C96.7849 21.0154 96.7593 20.99 96.7593 20.9587V6.32965C96.7593 6.29831 96.7849 6.27294 96.8163 6.27294H100.67Z" fill="white"/>
<path d="M82.02 20.2875C82.0711 20.2781 82.1202 20.3117 82.1296 20.3626L82.2105 20.8014C82.2198 20.8523 82.186 20.9009 82.1351 20.9103L81.6946 20.9909C81.6436 21.0002 81.5948 20.9667 81.5854 20.9158L81.5045 20.4769C81.4951 20.4261 81.5288 20.3774 81.5799 20.368L82.02 20.2875Z" fill="white"/>
<path d="M11.4155 20.6667C11.4267 20.6692 11.4372 20.6746 11.4458 20.6822C11.4544 20.6898 11.4609 20.6994 11.4645 20.7099C11.468 20.7205 11.4683 20.7319 11.4658 20.7425C11.4632 20.7529 11.4578 20.7624 11.45 20.7699C11.4332 20.7857 11.4049 20.7804 11.3652 20.7541C11.3361 20.7347 11.3306 20.7126 11.3491 20.688C11.3641 20.6678 11.3864 20.6606 11.4155 20.6667Z" fill="white"/>
<path d="M79.45 20.0465C79.5677 20.0475 79.6626 20.1335 79.6617 20.2385C79.6607 20.3434 79.5645 20.4277 79.4467 20.4267C79.329 20.4257 79.2341 20.3396 79.235 20.2346C79.236 20.1298 79.3323 20.0455 79.45 20.0465Z" fill="white"/>
<path d="M11.1416 18.9061C11.1567 18.8635 11.2036 18.8411 11.2463 18.8562L12.2526 19.2112C12.2954 19.2263 12.3177 19.2734 12.3026 19.316L11.9462 20.3187C11.931 20.3612 11.8842 20.3834 11.8415 20.3684L10.8352 20.0133C10.7925 19.9981 10.7701 19.9514 10.7852 19.9089L11.1416 18.9061Z" fill="white"/>
<path d="M81.3011 19.8866C81.3619 19.8677 81.4265 19.9015 81.4455 19.962L81.5074 20.1586C81.5263 20.2191 81.4926 20.2833 81.432 20.3023L81.2322 20.3648C81.1715 20.3837 81.1069 20.3499 81.0878 20.2894L81.026 20.0932C81.0069 20.0327 81.041 19.9681 81.1017 19.9491L81.3011 19.8866Z" fill="white"/>
<path d="M10.3093 20.146C10.3923 20.1537 10.4551 20.2089 10.4495 20.2691C10.4438 20.3293 10.3719 20.3718 10.289 20.3642C10.206 20.3565 10.1432 20.3013 10.1488 20.2411C10.1545 20.1809 10.2263 20.1384 10.3093 20.146Z" fill="white"/>
<path d="M80.6986 19.9424C80.7145 19.9462 80.7285 19.9547 80.7392 19.9675C80.7499 19.9803 80.7568 19.997 80.7598 20.0158C80.7628 20.0347 80.7616 20.0553 80.7563 20.0758C80.7509 20.0963 80.7417 20.1163 80.7292 20.1338C80.6965 20.1787 80.6596 20.1927 80.619 20.176C80.5977 20.1672 80.5786 20.153 80.5639 20.1351C80.5492 20.1172 80.5395 20.0962 80.5359 20.0748C80.5323 20.0534 80.5349 20.0322 80.5436 20.0139C80.5523 19.9956 80.5666 19.9808 80.5848 19.9714C80.6342 19.9459 80.6721 19.9362 80.6986 19.9424Z" fill="white"/>
<path d="M12.9867 19.664L13.0856 19.6936C13.1528 19.7137 13.1908 19.7845 13.1707 19.8515L13.1281 19.993C13.108 20.06 13.0371 20.0981 12.9699 20.078L12.871 20.0484C12.8037 20.0283 12.7654 19.9575 12.7856 19.8905L12.8281 19.749C12.8483 19.682 12.9194 19.6439 12.9867 19.664Z" fill="white"/>
<path d="M77.4686 19.664C77.56 19.664 77.6339 19.7379 77.6339 19.829C77.6338 19.92 77.5599 19.9939 77.4686 19.9939C77.3772 19.9939 77.3031 19.92 77.303 19.829C77.303 19.7378 77.3772 19.664 77.4686 19.664Z" fill="white"/>
<path d="M81.7668 19.6759C81.787 19.6829 81.805 19.6951 81.819 19.7113C81.9616 19.8772 82.0316 19.9648 82.0284 19.974C82.024 19.9819 81.9118 19.9794 81.692 19.9662C81.6706 19.9647 81.6498 19.9573 81.6321 19.9453C81.6145 19.9332 81.6003 19.9168 81.5912 19.8976C81.5638 19.8404 81.5603 19.7914 81.5805 19.751C81.5999 19.7105 81.6412 19.684 81.7039 19.6717C81.7249 19.6675 81.7466 19.669 81.7668 19.6759Z" fill="white"/>
<path d="M79.2086 19.0575C79.2903 19.0379 79.3725 19.0879 79.3923 19.1694L79.4583 19.4413C79.4781 19.5228 79.4279 19.6049 79.3462 19.6247L79.0552 19.6946C78.9735 19.7143 78.891 19.6642 78.8712 19.5828L78.8055 19.3108C78.7857 19.2293 78.8359 19.1475 78.9176 19.1278L79.2086 19.0575Z" fill="white"/>
<path d="M83.3151 19.2518C83.3841 19.2593 83.4308 19.351 83.4195 19.4568C83.4081 19.5626 83.3429 19.6423 83.2738 19.635C83.2047 19.6276 83.1581 19.5359 83.1694 19.43C83.1808 19.3242 83.246 19.2445 83.3151 19.2518Z" fill="white"/>
<path d="M81.1288 18.6341C81.1721 18.6239 81.2157 18.6506 81.2261 18.6938L81.3875 19.3691C81.3978 19.4124 81.371 19.4558 81.3276 19.4661L80.6499 19.6269C80.6065 19.6372 80.563 19.6106 80.5526 19.5673L80.3912 18.8919C80.3809 18.8487 80.4078 18.8052 80.4511 18.7949L81.1288 18.6341Z" fill="white"/>
<path d="M75.8726 18.3203C75.9244 18.2964 75.9859 18.3189 76.0099 18.3706L76.2686 18.9287C76.2925 18.9802 76.27 19.0414 76.2184 19.0653L75.658 19.3234C75.6062 19.3472 75.5447 19.3247 75.5207 19.2731L75.262 18.7147C75.2381 18.6631 75.2608 18.6019 75.3126 18.5781L75.8726 18.3203Z" fill="white"/>
<path d="M13.0634 18.5823C13.08 18.5317 13.1348 18.5041 13.1855 18.5207L13.6082 18.6593C13.659 18.6759 13.6864 18.7302 13.6698 18.7808L13.5261 19.217C13.5094 19.2676 13.4547 19.2952 13.4039 19.2786L12.9812 19.14C12.9305 19.1234 12.903 19.0691 12.9196 19.0186L13.0634 18.5823Z" fill="white"/>
<path d="M77.8723 17.4451C77.931 17.4016 78.0139 17.4138 78.0576 17.4722L78.7385 18.3822C78.7822 18.4406 78.7701 18.5236 78.7114 18.5671L77.7982 19.2454C77.7396 19.289 77.6567 19.2768 77.613 19.2183L76.9321 18.3084C76.8884 18.25 76.9006 18.1673 76.9592 18.1237L77.8723 17.4451Z" fill="white"/>
<path d="M81.9433 18.5056C81.9876 18.4905 82.0359 18.514 82.051 18.5581L82.1389 18.8156C82.154 18.8597 82.1304 18.9078 82.0861 18.9229L81.8402 19.006C81.7959 19.021 81.7477 18.9976 81.7326 18.9535L81.6446 18.696C81.6296 18.6519 81.6535 18.6037 81.6978 18.5887L81.9433 18.5056Z" fill="white"/>
<path d="M12.328 18.2952L12.3519 18.3003C12.3917 18.3101 12.4223 18.351 12.4369 18.4137C12.4516 18.4766 12.449 18.5566 12.4299 18.6358L12.4221 18.6673C12.4187 18.6814 12.4096 18.6935 12.3973 18.7012C12.3849 18.7088 12.37 18.7114 12.3557 18.7083L12.1386 18.6567C12.1244 18.6532 12.1121 18.6445 12.1044 18.6322C12.0967 18.6199 12.0945 18.6048 12.0976 18.5906L12.1054 18.5578C12.1245 18.4786 12.1588 18.4066 12.2004 18.3574C12.2421 18.3081 12.2881 18.2857 12.328 18.2952Z" fill="white"/>
<path d="M13.8928 17.6014C13.9093 17.5602 13.9564 17.5402 13.9978 17.5566L14.5169 17.7635C14.5583 17.78 14.5783 17.827 14.5617 17.8682L14.3494 18.3976C14.3328 18.4388 14.2857 18.4589 14.2443 18.4424L13.7255 18.2355C13.6841 18.219 13.6638 18.1721 13.6804 18.1308L13.8928 17.6014Z" fill="white"/>
<path d="M81.9646 18.233C81.9938 18.233 82.0177 18.2567 82.0178 18.2858C82.0178 18.315 81.9939 18.3387 81.9646 18.3387C81.9354 18.3386 81.9118 18.3149 81.9118 18.2858C81.9118 18.2567 81.9354 18.233 81.9646 18.233Z" fill="white"/>
<path d="M81.586 17.8134C81.6693 17.8135 81.7368 17.8808 81.7368 17.9639C81.7368 18.047 81.6693 18.1144 81.586 18.1144C81.5026 18.1144 81.4349 18.047 81.4349 17.9639C81.4349 17.8808 81.5026 17.8134 81.586 17.8134Z" fill="white"/>
<path d="M12.349 16.8812C12.3777 16.8682 12.4106 16.8669 12.4405 16.8777L13.1291 17.1335C13.1424 17.1386 13.1547 17.1465 13.1649 17.1564C13.175 17.1663 13.1833 17.1782 13.1887 17.1912C13.1941 17.2043 13.1966 17.2183 13.1964 17.2325C13.1962 17.2466 13.1932 17.2608 13.1874 17.2737C13.1062 17.4567 13.0907 17.6599 13.141 17.8834C13.1475 17.9122 13.1461 17.9423 13.1368 17.9704C13.1275 17.9984 13.1109 18.0235 13.0885 18.0429C13.0661 18.0622 13.0387 18.0751 13.0095 18.0802C12.9804 18.0854 12.9503 18.0827 12.9225 18.0722L12.0683 17.7554C12.0489 17.7481 12.0332 17.7332 12.0245 17.7142C12.0159 17.6952 12.0149 17.6734 12.0219 17.6536L12.2868 16.9476C12.2977 16.9182 12.3202 16.8943 12.349 16.8812Z" fill="white"/>
<path d="M81.044 17.3407C81.0944 17.3283 81.1453 17.3592 81.1578 17.4094L81.2477 17.7706C81.2601 17.8208 81.2291 17.8716 81.1787 17.884L80.8007 17.9771C80.7504 17.9895 80.6995 17.959 80.687 17.9088L80.5974 17.5476C80.5849 17.4974 80.6156 17.4463 80.666 17.4339L81.044 17.3407Z" fill="white"/>
<path d="M83.3331 17.603C83.3853 17.6092 83.4217 17.6652 83.4143 17.728C83.4069 17.791 83.3583 17.8373 83.306 17.8312C83.2538 17.825 83.2175 17.769 83.2248 17.7061C83.2323 17.6432 83.2808 17.5969 83.3331 17.603Z" fill="white"/>
<path d="M79.8763 17.4635C79.9203 17.4425 79.9606 17.4513 79.9968 17.4899C80.07 17.57 80.0987 17.6326 80.0828 17.6775C80.066 17.7223 80.0032 17.7524 79.8946 17.7674C79.8426 17.7735 79.8063 17.7539 79.786 17.709C79.7702 17.6756 79.7729 17.6302 79.7941 17.5731C79.8153 17.5151 79.8427 17.4784 79.8763 17.4635Z" fill="white"/>
<path d="M14.8366 17.5772C14.878 17.5681 14.9179 17.5897 14.9258 17.6253C14.9337 17.6608 14.9066 17.697 14.8652 17.7061C14.8239 17.7153 14.7839 17.694 14.776 17.6584C14.7681 17.6229 14.7951 17.5864 14.8366 17.5772Z" fill="white"/>
<path d="M13.6034 16.9106C13.6254 16.8983 13.6434 16.9006 13.6575 16.9173C13.6981 16.9631 13.6977 17.0153 13.6563 17.0743C13.6448 17.0901 13.6289 17.0953 13.6086 17.09C13.5906 17.0859 13.575 17.0762 13.5638 17.062C13.5525 17.0478 13.546 17.0298 13.5454 17.0105C13.5448 16.9911 13.5503 16.9712 13.5606 16.9534C13.5709 16.9356 13.5858 16.9206 13.6034 16.9106Z" fill="white"/>
<path d="M79.835 15.3745C79.8679 15.349 79.9154 15.355 79.941 15.3877L80.6029 16.232C80.6285 16.2647 80.6228 16.3121 80.59 16.3376L79.7425 16.9976C79.7097 17.0231 79.6622 17.0174 79.6365 16.9847L78.9744 16.1401C78.9487 16.1074 78.9547 16.06 78.9876 16.0344L79.835 15.3745Z" fill="white"/>
<path d="M10.8197 16.889C10.8287 16.8936 10.8363 16.901 10.8413 16.9102C10.8462 16.9195 10.8485 16.9303 10.8477 16.9412C10.8469 16.952 10.8431 16.9627 10.8368 16.9715C10.8209 16.9952 10.799 17.0049 10.7717 17.0005C10.7633 16.9991 10.7553 16.9958 10.7485 16.9908C10.7416 16.9858 10.736 16.9792 10.7324 16.9718C10.7287 16.9643 10.7271 16.9561 10.7275 16.9479C10.7279 16.9398 10.7302 16.9319 10.7346 16.9251C10.7514 16.9004 10.7701 16.8868 10.7904 16.8841C10.8005 16.8826 10.8107 16.8844 10.8197 16.889Z" fill="white"/>
<path d="M11.3082 16.6612C11.3989 16.6612 11.4725 16.7345 11.4725 16.8248C11.4725 16.9152 11.3989 16.9885 11.3082 16.9885C11.2175 16.9885 11.1439 16.9152 11.1439 16.8248C11.1439 16.7345 11.2175 16.6612 11.3082 16.6612Z" fill="white"/>
<path d="M80.9328 16.8197C80.9686 16.8197 80.9979 16.8485 80.9979 16.8841C80.9979 16.9199 80.9687 16.9489 80.9328 16.9489C80.8971 16.9488 80.8681 16.9198 80.8681 16.8841C80.8681 16.8485 80.8971 16.8198 80.9328 16.8197Z" fill="white"/>
<path d="M83.2996 16.8242C83.3247 16.8079 83.3599 16.8174 83.3782 16.8455C83.3966 16.8736 83.3911 16.9097 83.366 16.926C83.3409 16.9422 83.3057 16.9325 83.2873 16.9044C83.269 16.8764 83.2745 16.8405 83.2996 16.8242Z" fill="white"/>
<path d="M77.8881 16.251C77.9447 16.2393 78.0001 16.2755 78.0119 16.3318L78.0837 16.6782C78.0954 16.7346 78.0591 16.79 78.0025 16.8016L77.642 16.8761C77.5855 16.8877 77.5303 16.8515 77.5185 16.7952L77.4464 16.4488C77.4346 16.3924 77.471 16.3371 77.5276 16.3254L77.8881 16.251Z" fill="white"/>
<path d="M12.6203 16.3953L12.7569 16.4272C12.8217 16.4425 12.8618 16.5074 12.8465 16.5719L12.8191 16.6876C12.8038 16.7521 12.7388 16.792 12.6741 16.7768L12.5375 16.7446C12.4727 16.7294 12.4326 16.6645 12.4479 16.5999L12.4753 16.4846C12.4906 16.42 12.5555 16.3801 12.6203 16.3953Z" fill="white"/>
<path d="M83.103 16.5684C83.1327 16.558 83.1732 16.596 83.1933 16.6531C83.2133 16.7101 83.2055 16.7648 83.1759 16.7752C83.1462 16.7856 83.1057 16.7476 83.0856 16.6905C83.0656 16.6334 83.0734 16.5787 83.103 16.5684Z" fill="white"/>
<path d="M14.6242 16.2568L14.8311 16.3025C14.8911 16.3158 14.9291 16.3749 14.9158 16.4346L14.871 16.6357C14.8577 16.6955 14.7983 16.7331 14.7383 16.7198L14.5314 16.674C14.4715 16.6608 14.4337 16.6017 14.447 16.5419L14.4918 16.3409C14.5051 16.2812 14.5643 16.2436 14.6242 16.2568Z" fill="white"/>
<path d="M81.8203 16.4156C81.9421 16.3637 82.0185 16.352 82.0494 16.3802C82.0803 16.4083 82.0759 16.4847 82.0361 16.6096C82.0314 16.6243 82.0231 16.6377 82.012 16.6483C82.0009 16.6588 81.9874 16.6666 81.9727 16.6705C81.917 16.6855 81.8662 16.6722 81.8203 16.6309C81.7752 16.5895 81.7577 16.5401 81.7674 16.483C81.77 16.4684 81.7762 16.4547 81.7855 16.443C81.7947 16.4313 81.8066 16.4218 81.8203 16.4156Z" fill="white"/>
<path d="M76.7626 16.2442C76.8467 16.2442 76.915 16.3122 76.915 16.396C76.915 16.4798 76.8467 16.5477 76.7626 16.5477C76.6785 16.5477 76.6102 16.4798 76.6102 16.396C76.6102 16.3121 76.6785 16.2442 76.7626 16.2442Z" fill="white"/>
<path d="M11.0134 16.251C11.094 16.2647 11.1516 16.3218 11.1419 16.3786C11.1322 16.4353 11.0587 16.4703 10.9779 16.4565C10.8972 16.4428 10.8396 16.3854 10.8493 16.3286C10.8592 16.2719 10.9327 16.2372 11.0134 16.251Z" fill="white"/>
<path d="M73.8355 15.0568C73.8736 15.0185 73.9356 15.0185 73.9741 15.0565L74.5889 15.6645C74.6272 15.7025 74.6273 15.7645 74.5892 15.8028L73.9789 16.4153C73.9407 16.4535 73.8787 16.4536 73.8403 16.4156L73.2258 15.8076C73.1875 15.7696 73.1871 15.7076 73.2252 15.6693L73.8355 15.0568Z" fill="white"/>
<path d="M11.6894 14.9195C11.7034 14.8796 11.7473 14.8585 11.7873 14.8725L12.8123 15.2302C12.8523 15.2442 12.8734 15.2879 12.8594 15.3278L12.5004 16.3492C12.4864 16.3891 12.4425 16.4102 12.4025 16.3963L11.3775 16.0386C11.3375 16.0246 11.3164 15.9809 11.3304 15.941L11.6894 14.9195Z" fill="white"/>
<path d="M81.3011 16.1031C81.383 16.1031 81.4493 16.169 81.4494 16.2506C81.4494 16.3323 81.3831 16.3985 81.3011 16.3985C81.2192 16.3985 81.1529 16.3323 81.1529 16.2506C81.153 16.1691 81.2193 16.1031 81.3011 16.1031Z" fill="white"/>
<path d="M13.6772 15.5611L13.7655 15.5888C13.8269 15.608 13.8611 15.6729 13.8419 15.7341L13.7922 15.893C13.773 15.9542 13.7074 15.9882 13.6459 15.969L13.5577 15.9413C13.4963 15.9221 13.4621 15.8572 13.4813 15.796L13.5312 15.6371C13.5505 15.5759 13.6158 15.5419 13.6772 15.5611Z" fill="white"/>
<path d="M14.2285 15.6133C14.3075 15.5472 14.4155 15.5455 14.4695 15.6097C14.5236 15.6739 14.5034 15.7795 14.4244 15.8456C14.3455 15.9116 14.2375 15.9133 14.1834 15.8492C14.1294 15.785 14.1496 15.6794 14.2285 15.6133Z" fill="white"/>
<path d="M81.179 15.215C81.2337 15.2016 81.289 15.235 81.3024 15.2894L81.3891 15.6407C81.4026 15.6952 81.3691 15.7504 81.3144 15.7638L80.949 15.853C80.8943 15.8663 80.8393 15.833 80.8259 15.7786L80.7392 15.4274C80.7258 15.3729 80.7593 15.318 80.8139 15.3046L81.179 15.215Z" fill="white"/>
<path d="M10.9322 15.6913C10.9767 15.6913 11.0126 15.7271 11.0127 15.7715C11.0127 15.8159 10.9767 15.852 10.9322 15.8521C10.8875 15.8521 10.8513 15.816 10.8513 15.7715C10.8513 15.7271 10.8876 15.6913 10.9322 15.6913Z" fill="white"/>
<path d="M81.558 15.4986C81.6074 15.4889 81.6388 15.5239 81.6521 15.6039C81.6541 15.6179 81.6517 15.6321 81.6453 15.6449C81.6389 15.6576 81.6288 15.6681 81.6163 15.6751C81.5254 15.7227 81.4732 15.7411 81.46 15.7306C81.441 15.7153 81.4282 15.6947 81.423 15.6713C81.4177 15.6478 81.4201 15.6225 81.4304 15.5981C81.4406 15.5738 81.4584 15.5513 81.481 15.5337C81.5035 15.5161 81.5302 15.504 81.558 15.4986Z" fill="white"/>
<path d="M10.7859 14.8602C10.802 14.8165 10.8508 14.7942 10.8948 14.8103L11.2827 14.9524C11.3265 14.9685 11.349 15.017 11.333 15.0607L11.1919 15.4422C11.1757 15.4859 11.1272 15.5085 11.0833 15.4924L10.6953 15.3503C10.6514 15.3342 10.6289 15.2855 10.645 15.2418L10.7859 14.8602Z" fill="white"/>
<path d="M13.3398 15.2266C13.3764 15.2266 13.4059 15.2562 13.4059 15.2927C13.4058 15.329 13.3763 15.3584 13.3398 15.3584C13.3033 15.3584 13.2735 15.3291 13.2734 15.2927C13.2734 15.2562 13.3033 15.2266 13.3398 15.2266Z" fill="white"/>
<path d="M77.2144 13.3877C77.2524 13.3593 77.3064 13.3668 77.3349 13.4048L78.0583 14.3688C78.0866 14.4068 78.0789 14.4604 78.0409 14.4887L77.0739 15.2099C77.0358 15.2382 76.9818 15.2304 76.9534 15.1925L76.2296 14.2287C76.2012 14.1907 76.209 14.1369 76.247 14.1085L77.2144 13.3877Z" fill="white"/>
<path d="M14.4341 14.2374C14.4484 14.1945 14.4948 14.1713 14.5379 14.1855L15.0054 14.3395C15.0485 14.3537 15.0719 14.4001 15.0576 14.443L14.9023 14.9118C14.888 14.9546 14.8415 14.9778 14.7985 14.9637L14.3307 14.8093C14.2877 14.7951 14.2643 14.7491 14.2785 14.7062L14.4341 14.2374Z" fill="white"/>
<path d="M81.4668 13.2021C81.4896 13.2021 81.5115 13.2108 81.5277 13.2269C81.5438 13.243 81.5528 13.265 81.5528 13.2878V14.007C81.5528 14.0297 81.5438 14.0515 81.5277 14.0676C81.5115 14.0836 81.4896 14.0927 81.4668 14.0927H80.9979C80.9751 14.0927 80.9532 14.1018 80.937 14.1178C80.9209 14.1339 80.9119 14.156 80.9119 14.1787V14.7671C80.9119 14.7899 80.9026 14.8119 80.8864 14.828C80.8703 14.844 80.8486 14.8531 80.8259 14.8532H80.2629C80.2401 14.8532 80.2182 14.8441 80.202 14.828C80.1859 14.8119 80.1769 14.7899 80.1769 14.7671V14.1865C80.1769 14.1637 80.1859 14.142 80.202 14.1259C80.2182 14.1098 80.2401 14.1008 80.2629 14.1008H80.7025C80.7253 14.1008 80.7472 14.0917 80.7634 14.0756C80.7795 14.0596 80.7888 14.0378 80.7888 14.015V13.2878C80.7888 13.265 80.7978 13.243 80.8139 13.2269C80.8301 13.2109 80.8521 13.2021 80.8748 13.2021H81.4668Z" fill="white"/>
<path d="M79.7026 14.4887C79.7971 14.4139 79.8706 14.432 79.9227 14.5429C79.9756 14.6546 79.9431 14.7228 79.8257 14.7475C79.7225 14.7694 79.6555 14.7482 79.6246 14.684C79.5937 14.6189 79.6196 14.5538 79.7026 14.4887Z" fill="white"/>
<path d="M81.1906 14.5806C81.231 14.5875 81.2593 14.6189 81.2538 14.6505C81.2483 14.6821 81.211 14.7022 81.1706 14.6953C81.1303 14.6883 81.102 14.6569 81.1075 14.6253C81.113 14.5937 81.1503 14.5736 81.1906 14.5806Z" fill="white"/>
<path d="M12.038 13.8855C12.0525 13.845 12.0973 13.8238 12.1379 13.8381L12.6023 14.0022C12.6429 14.0165 12.6642 14.0609 12.6499 14.1014L12.4827 14.5719C12.4683 14.6124 12.4235 14.6336 12.3828 14.6192L11.9185 14.4552C11.8779 14.4408 11.8567 14.3965 11.8711 14.356L12.038 13.8855Z" fill="white"/>
<path d="M81.778 14.2525C81.8614 14.2526 81.9288 14.3199 81.9288 14.403C81.9288 14.4861 81.8614 14.5534 81.778 14.5535C81.6947 14.5535 81.6269 14.4861 81.6269 14.403C81.6269 14.3199 81.6947 14.2525 81.778 14.2525Z" fill="white"/>
<path d="M82.5891 13.7057C82.6621 13.6905 82.7337 13.7373 82.7489 13.8101L82.8275 14.1849C82.8427 14.2576 82.796 14.3288 82.7231 14.344L82.3626 14.4191C82.2895 14.4343 82.218 14.3875 82.2027 14.3147L82.1241 13.9403C82.1089 13.8675 82.1558 13.796 82.2288 13.7808L82.5891 13.7057Z" fill="white"/>
<path d="M11.496 14.1662C11.5339 14.1745 11.5559 14.2211 11.545 14.2702C11.5342 14.3193 11.4946 14.3523 11.4567 14.344C11.4189 14.3357 11.3969 14.2891 11.4078 14.24C11.4186 14.1909 11.4582 14.1579 11.496 14.1662Z" fill="white"/>
<path d="M10.781 14.1285C10.799 14.1258 10.8179 14.1292 10.8342 14.1381C10.8505 14.1471 10.8635 14.1608 10.8706 14.1771C10.8777 14.1935 10.8786 14.2115 10.8732 14.2277C10.8677 14.2439 10.8561 14.2573 10.8406 14.2657C10.8115 14.2824 10.778 14.2849 10.7401 14.2735C10.7022 14.262 10.6923 14.235 10.7108 14.1919C10.7275 14.1533 10.751 14.132 10.781 14.1285Z" fill="white"/>
<path d="M13.4565 13.882C13.5621 13.8318 13.685 13.8688 13.731 13.9648C13.777 14.0608 13.7286 14.1794 13.6231 14.2296C13.5175 14.2798 13.3945 14.2428 13.3485 14.1468C13.3026 14.0508 13.3509 13.9322 13.4565 13.882Z" fill="white"/>
<path d="M81.8232 13.9467C81.8522 13.9502 81.8715 13.9884 81.8663 14.0318C81.8611 14.0751 81.8335 14.1073 81.8045 14.104C81.7754 14.1005 81.7558 14.0627 81.761 14.0192C81.7662 13.9758 81.7941 13.9433 81.8232 13.9467Z" fill="white"/>
<path d="M79.8618 12.4629C79.9157 12.4498 79.9704 12.4826 79.9836 12.5364L80.222 13.5111C80.2351 13.5649 80.2019 13.6191 80.1479 13.6322L79.1699 13.8697C79.116 13.8828 79.0616 13.8497 79.0485 13.7959L78.81 12.8215C78.7969 12.7678 78.8299 12.7135 78.8838 12.7004L79.8618 12.4629Z" fill="white"/>
<path d="M10.2284 12.8918C10.2497 12.8335 10.3143 12.8036 10.3728 12.8247L10.9202 13.0232C10.9786 13.0444 11.0088 13.1088 10.9876 13.1669L10.7881 13.7128C10.7668 13.771 10.7022 13.801 10.6438 13.7798L10.0963 13.5813C10.0379 13.5601 10.0077 13.4955 10.029 13.4373L10.2284 12.8918Z" fill="white"/>
<path d="M13.1774 12.1081C13.2144 12.0913 13.2566 12.0898 13.2947 12.1039L14.0603 12.3888C14.0902 12.3999 14.1145 12.4227 14.1277 12.4519C14.1408 12.4811 14.1419 12.5146 14.1306 12.5447L13.8257 13.359C13.8159 13.3849 13.7962 13.406 13.771 13.4176C13.7457 13.4292 13.7169 13.4303 13.6907 13.4209L12.8352 13.1028C12.8171 13.0961 12.7971 13.0965 12.7792 13.1038C12.7612 13.1111 12.7467 13.125 12.7386 13.1425C12.7183 13.1882 12.7084 13.2348 12.7092 13.2823C12.7095 13.2978 12.7062 13.3133 12.6992 13.3271C12.6923 13.3409 12.6819 13.3529 12.6693 13.3619C12.6566 13.3708 12.6418 13.3766 12.6264 13.3787C12.6111 13.3807 12.5955 13.3788 12.581 13.3735L12.2285 13.2427C12.2162 13.238 12.2049 13.2311 12.1953 13.222C12.1856 13.213 12.1778 13.202 12.1724 13.1898C12.167 13.1777 12.1641 13.1645 12.1637 13.1512C12.1634 13.1379 12.1657 13.1246 12.1705 13.1122L12.3081 12.7439C12.3187 12.7159 12.3402 12.6934 12.3677 12.681C12.3952 12.6687 12.4265 12.6674 12.455 12.6778L12.7611 12.7916C12.7741 12.7964 12.7879 12.7985 12.8017 12.798C12.8156 12.7975 12.8294 12.7944 12.842 12.7887C12.8547 12.7829 12.8663 12.7746 12.8758 12.7645C12.8853 12.7543 12.8926 12.7423 12.8974 12.7294L13.0975 12.1935C13.1118 12.1556 13.1405 12.1249 13.1774 12.1081Z" fill="white"/>
<path d="M14.2272 12.9749C14.3368 12.975 14.4257 13.0635 14.4257 13.1727C14.4257 13.282 14.3369 13.3708 14.2272 13.3709C14.1175 13.3709 14.0284 13.2821 14.0284 13.1727C14.0285 13.0635 14.1176 12.9749 14.2272 12.9749Z" fill="white"/>
<path d="M11.6423 12.8206C11.7365 12.8448 11.7891 12.9567 11.7596 13.0703C11.7302 13.1839 11.6298 13.2562 11.5357 13.232C11.4415 13.2078 11.3889 13.0959 11.4184 12.9823C11.4479 12.8688 11.5482 12.7963 11.6423 12.8206Z" fill="white"/>
<path d="M10.0718 13.0297C10.0798 13.0313 10.0872 13.0352 10.0934 13.0406C10.0995 13.046 10.1043 13.0529 10.1069 13.0606C10.1254 13.1195 10.1193 13.1565 10.0886 13.1715C10.0775 13.1771 10.0649 13.18 10.0525 13.1795C10.04 13.1791 10.0281 13.1753 10.018 13.1689C10.0078 13.1624 9.99964 13.1536 9.9948 13.1431C9.98997 13.1326 9.9884 13.121 9.99029 13.1096C9.99294 13.0929 10.006 13.0712 10.029 13.0448C10.034 13.0387 10.0407 13.0339 10.0483 13.0313C10.0558 13.0287 10.0639 13.0281 10.0718 13.0297Z" fill="white"/>
<path d="M8.91727 13.0165C8.93754 12.9696 9.01109 12.9562 9.08161 12.9865C9.15206 13.0168 9.19271 13.0792 9.17248 13.126C9.15222 13.1729 9.07868 13.1863 9.00814 13.156C8.93764 13.1257 8.89703 13.0633 8.91727 13.0165Z" fill="white"/>
<path d="M9.2859 12.7268C9.2869 12.7271 9.29298 12.7376 9.30427 12.7584C9.30951 12.7684 9.31824 12.7764 9.32876 12.7809C9.33931 12.7855 9.35132 12.7864 9.36259 12.7835C9.49856 12.7509 9.64884 12.7738 9.81306 12.8521C9.82209 12.8564 9.83012 12.8627 9.83626 12.8705C9.84239 12.8783 9.84658 12.8875 9.84851 12.8972C9.85044 12.907 9.84993 12.9173 9.84722 12.9269C9.8445 12.9364 9.83945 12.9451 9.83272 12.9523C9.67733 13.1195 9.51941 13.1817 9.35872 13.1386C9.33419 13.1318 9.31326 13.1157 9.3004 13.0938C9.28754 13.0719 9.28367 13.0456 9.28977 13.021C9.30828 12.9427 9.29514 12.8599 9.25013 12.7729C9.24726 12.7676 9.24578 12.7617 9.24627 12.7558C9.24676 12.7498 9.2493 12.7442 9.25303 12.7394C9.25677 12.7345 9.2617 12.7306 9.26753 12.7284C9.27337 12.7262 9.27977 12.7257 9.2859 12.7268Z" fill="white"/>
<path d="M81.6495 12.7374C81.7321 12.7374 81.799 12.8042 81.799 12.8866C81.7989 12.9689 81.7321 13.0355 81.6495 13.0355C81.5669 13.0355 81.5 12.9689 81.5 12.8866C81.5 12.8043 81.5668 12.7374 81.6495 12.7374Z" fill="white"/>
<path d="M81.0024 12.0791C81.0348 12.0517 81.0832 12.0556 81.1107 12.0878L81.43 12.4616C81.4575 12.4938 81.4536 12.5421 81.4213 12.5695L81.0543 12.8808C81.022 12.9082 80.9736 12.9043 80.9461 12.8721L80.6267 12.4983C80.5992 12.4661 80.6031 12.4178 80.6354 12.3904L81.0024 12.0791Z" fill="white"/>
<path d="M11.7902 12.2634C11.8509 12.2634 11.9001 12.3125 11.9001 12.373C11.9001 12.4335 11.8509 12.4825 11.7902 12.4825C11.7295 12.4825 11.6804 12.4335 11.6804 12.373C11.6804 12.3125 11.7296 12.2634 11.7902 12.2634Z" fill="white"/>
<path d="M80.154 11.7189C80.2085 11.7019 80.2665 11.732 80.2836 11.7862L80.3515 12.0027C80.3686 12.057 80.3383 12.115 80.2839 12.132L80.0538 12.2038C79.9994 12.2208 79.9413 12.1904 79.9243 12.1362L79.8563 11.9196C79.8393 11.8654 79.8696 11.8077 79.924 11.7907L80.154 11.7189Z" fill="white"/>
<path d="M77.9284 11.5133C77.9484 11.4594 78.0083 11.4316 78.0625 11.4514L78.423 11.5835C78.4773 11.6034 78.5052 11.6635 78.4852 11.7176L78.3515 12.0791C78.3315 12.1332 78.2714 12.1609 78.2171 12.141L77.8569 12.0089C77.8027 11.989 77.7748 11.9292 77.7947 11.8751L77.9284 11.5133Z" fill="white"/>
<path d="M13.1774 11.7082C13.2127 11.7021 13.2493 11.743 13.2593 11.7997C13.2692 11.8564 13.2487 11.9073 13.2135 11.9135C13.1782 11.9196 13.1413 11.8787 13.1313 11.822C13.1214 11.7653 13.1421 11.7144 13.1774 11.7082Z" fill="white"/>
<path d="M82.6274 10.2463C82.6456 10.2516 82.6622 10.2615 82.6758 10.2747L82.7541 10.3523C82.7885 10.3866 82.8125 10.4301 82.823 10.4773C82.8335 10.5245 82.8303 10.5738 82.8137 10.6191C82.7581 10.7766 82.7704 10.92 82.8507 11.0493C82.8638 11.0699 82.8823 11.0866 82.9042 11.0973C82.9262 11.108 82.9508 11.1122 82.9751 11.1099C83.2179 11.0852 83.3849 11.2182 83.4759 11.5085C83.4817 11.5277 83.4813 11.5485 83.4749 11.5674C83.4685 11.5863 83.4563 11.6026 83.4401 11.6141C83.3032 11.7083 83.1107 11.7761 82.8627 11.8175C82.8431 11.821 82.8227 11.8166 82.8059 11.8055C82.7893 11.7945 82.7772 11.7774 82.7724 11.7579L82.709 11.4965C82.7007 11.4638 82.68 11.4358 82.6513 11.4182C82.6225 11.4007 82.5879 11.3952 82.5553 11.4031L82.3023 11.4637C82.2907 11.4664 82.2786 11.4671 82.2669 11.4653C82.255 11.4635 82.2436 11.4592 82.2333 11.453C82.2232 11.4469 82.2142 11.439 82.2072 11.4295C82.2002 11.42 82.1952 11.4091 82.1924 11.3976L82.068 10.8856C82.0622 10.8611 82.0662 10.8353 82.0796 10.8137C82.0931 10.7922 82.1147 10.7769 82.1396 10.7709L82.2785 10.7364C82.2968 10.732 82.314 10.7234 82.3281 10.7109C82.3422 10.6985 82.3529 10.6827 82.3593 10.6652L82.4905 10.314C82.4971 10.2966 82.5079 10.281 82.5221 10.2689C82.5362 10.2567 82.5533 10.2483 82.5717 10.2444C82.59 10.2404 82.6093 10.2411 82.6274 10.2463Z" fill="white"/>
<path d="M12.2459 11.3341C12.2592 11.2964 12.3008 11.2765 12.3387 11.2897L12.5288 11.356C12.5667 11.3693 12.5868 11.4107 12.5736 11.4485L12.492 11.6802C12.4788 11.718 12.4372 11.7379 12.3992 11.7247L12.2091 11.6583C12.1713 11.645 12.1514 11.6036 12.1647 11.5658L12.2459 11.3341Z" fill="white"/>
<path d="M12.0158 10.3004C12.0391 10.2423 12.1053 10.2139 12.1637 10.237L12.629 10.4216C12.6874 10.4448 12.716 10.5107 12.6928 10.5688L12.5075 11.0325C12.4842 11.0907 12.418 11.1192 12.3596 11.096L11.8946 10.9114C11.8362 10.8882 11.8076 10.8224 11.8308 10.7641L12.0158 10.3004Z" fill="white"/>
<path d="M76.9002 10.7577C76.9813 10.7577 77.0474 10.8231 77.0474 10.904C77.0474 10.9849 76.9814 11.0506 76.9002 11.0506C76.8191 11.0505 76.7533 10.9848 76.7533 10.904C76.7533 10.8231 76.8191 10.7577 76.9002 10.7577Z" fill="white"/>
<path d="M83.1739 10.4751C83.1945 10.4667 83.2175 10.4667 83.238 10.4751C83.2586 10.4835 83.275 10.4996 83.2838 10.5199L83.3408 10.652C83.3528 10.6802 83.3595 10.7104 83.3608 10.7406C83.3621 10.7708 83.3578 10.8007 83.3483 10.8282C83.3387 10.8558 83.3238 10.8807 83.3048 10.9014C83.2857 10.9221 83.2629 10.9384 83.2374 10.9491L83.1978 10.9662C83.1462 10.9876 83.0872 10.9853 83.0338 10.96C82.9804 10.9348 82.9369 10.8886 82.9129 10.8315L82.8572 10.6981C82.8488 10.6776 82.8491 10.6547 82.8575 10.6343C82.8659 10.6138 82.8819 10.5972 82.9023 10.5885L83.1739 10.4751Z" fill="white"/>
<path d="M10.8568 9.48198C10.8858 9.47161 10.9177 9.47192 10.9467 9.48263L11.1664 9.56447C11.1896 9.57308 11.2108 9.58657 11.2283 9.60411C11.2457 9.62164 11.2591 9.64277 11.2676 9.66597C11.276 9.68921 11.2794 9.71418 11.2773 9.7388C11.2751 9.76338 11.2676 9.7873 11.2553 9.80872L10.6499 10.8527C10.6419 10.8666 10.6313 10.8787 10.6186 10.8885C10.6059 10.8983 10.5913 10.9056 10.5758 10.9098C10.5603 10.9139 10.5442 10.9147 10.5284 10.9127C10.5125 10.9106 10.4969 10.9055 10.483 10.8975L10.0818 10.6665C10.0711 10.6604 10.0619 10.6521 10.0551 10.642C10.0482 10.6319 10.0439 10.6204 10.0422 10.6085C10.0042 10.3621 10.0496 10.1671 10.1785 10.0236C10.1945 10.0057 10.2157 9.99311 10.239 9.98723C10.2624 9.98137 10.287 9.98258 10.3096 9.99078L10.7495 10.1545C10.7705 10.1631 10.794 10.1639 10.8155 10.1564C10.8371 10.1489 10.8551 10.1335 10.8661 10.1135C10.8771 10.0936 10.8803 10.0703 10.8751 10.0481C10.8699 10.026 10.8568 10.0064 10.8381 9.99335C10.8027 9.96608 10.7558 9.94761 10.6976 9.93793C10.6832 9.93559 10.6696 9.92988 10.6579 9.92118C10.6463 9.91248 10.6371 9.90104 10.6309 9.88799C10.6246 9.87488 10.6216 9.86027 10.6222 9.84578C10.6228 9.83131 10.6269 9.81708 10.6341 9.80453L10.7878 9.53934C10.8033 9.51277 10.8277 9.49236 10.8568 9.48198Z" fill="white"/>
<path d="M81.7429 9.82837C81.7841 9.79338 81.846 9.79833 81.8812 9.83933L82.1734 10.1806C82.2085 10.2215 82.2038 10.2831 82.1628 10.3182L81.8264 10.6046C81.7852 10.6396 81.7233 10.6346 81.6881 10.5937L81.3956 10.2524C81.3605 10.2114 81.3654 10.1499 81.4065 10.1148L81.7429 9.82837Z" fill="white"/>
<path d="M83.0644 10.2047C83.1168 10.2083 83.1556 10.2666 83.151 10.3349C83.1465 10.4033 83.1002 10.456 83.0476 10.4525C82.9951 10.449 82.9564 10.3907 82.9609 10.3223C82.9655 10.254 83.0118 10.2013 83.0644 10.2047Z" fill="white"/>
<path d="M11.4248 10.0352C11.441 10.0018 11.4811 9.98771 11.5147 10.0037L11.7274 10.1052C11.761 10.1212 11.7754 10.1615 11.7593 10.1951L11.663 10.3948C11.6468 10.4284 11.6067 10.4425 11.5731 10.4264L11.3604 10.3249C11.3268 10.3089 11.3125 10.2688 11.3285 10.2353L11.4248 10.0352Z" fill="white"/>
<path d="M12.7833 10.0697C12.8068 10.018 12.868 9.99489 12.92 10.0182L13.0698 10.0858C13.1217 10.1093 13.1448 10.17 13.1214 10.2218L13.0537 10.371C13.0302 10.4228 12.9691 10.446 12.9171 10.4226L12.7676 10.3552C12.7156 10.3318 12.6925 10.2707 12.716 10.2189L12.7833 10.0697Z" fill="white"/>
<path d="M81.1391 9.64922C81.219 9.66985 81.2685 9.74484 81.2499 9.81677C81.2312 9.88875 81.1514 9.9305 81.0714 9.9099C80.9914 9.88928 80.9416 9.81429 80.9602 9.74234C80.9789 9.67036 81.0591 9.62859 81.1391 9.64922Z" fill="white"/>
<path d="M8.79386 9.60024C8.85938 9.57523 8.92868 9.59749 8.94885 9.64986C8.96896 9.70224 8.9322 9.76497 8.86668 9.79003C8.80117 9.81502 8.73186 9.79277 8.71169 9.74041C8.69156 9.68802 8.72833 9.62531 8.79386 9.60024Z" fill="white"/>
<path d="M13.548 9.56512C13.5933 9.57319 13.6263 9.60027 13.6218 9.62537C13.6171 9.65039 13.5768 9.66402 13.5315 9.65598C13.4862 9.64791 13.4533 9.62115 13.4578 9.59605C13.4623 9.57096 13.5026 9.55707 13.548 9.56512Z" fill="white"/>
<path d="M10.0683 9.34794C10.1017 9.31335 10.1498 9.30547 10.1756 9.33021C10.2013 9.355 10.1952 9.40321 10.1617 9.43784C10.1282 9.47246 10.0802 9.4803 10.0544 9.45556C10.0286 9.43079 10.0348 9.3826 10.0683 9.34794Z" fill="white"/>
<path d="M11.3862 9.32828C11.4294 9.3274 11.4533 9.34587 11.4577 9.3837C11.4612 9.40916 11.4508 9.42449 11.4261 9.42978C11.4146 9.43244 11.4024 9.43218 11.391 9.42882C11.3796 9.4254 11.369 9.41897 11.361 9.41045C11.3531 9.40194 11.3476 9.39136 11.3452 9.38016C11.3429 9.36897 11.3438 9.35736 11.3478 9.34665C11.3522 9.33524 11.3651 9.32918 11.3862 9.32828Z" fill="white"/>
<path d="M76.4974 7.38236C76.5134 7.33702 76.5631 7.31329 76.6086 7.3292L78.0277 7.82703C78.0732 7.84301 78.0972 7.89282 78.0811 7.9382L77.5814 9.35245C77.5653 9.39778 77.5154 9.42159 77.4699 9.40562L76.0508 8.90746C76.0054 8.89142 75.9816 8.84192 75.9976 8.79661L76.4974 7.38236Z" fill="white"/>
<path d="M80.6896 8.75053C80.7061 8.7069 80.755 8.68476 80.7988 8.70123L81.1877 8.84784C81.2315 8.86433 81.2536 8.91312 81.237 8.95676L81.0865 9.35438C81.07 9.39792 81.021 9.41975 80.9773 9.40336L80.5881 9.25675C80.5444 9.24023 80.5223 9.19172 80.5388 9.14816L80.6896 8.75053Z" fill="white"/>
<path d="M12.2816 8.99252C12.3808 8.94934 12.4997 9.00194 12.5471 9.11014C12.5946 9.21832 12.5529 9.34113 12.4537 9.38435C12.3545 9.42754 12.2356 9.37462 12.1882 9.26641C12.1408 9.15828 12.1826 9.03578 12.2816 8.99252Z" fill="white"/>
<path d="M14.0033 8.46246C14.0262 8.44927 14.0461 8.44691 14.0629 8.4557C14.0912 8.47065 14.111 8.47661 14.1225 8.4731C14.2205 8.44406 14.2738 8.49946 14.2827 8.63936C14.2853 8.67631 14.2717 8.71729 14.2433 8.7573C14.2149 8.79734 14.1729 8.83471 14.1225 8.86492C14.119 8.86756 14.0951 8.85955 14.051 8.84108C14.0395 8.83636 14.027 8.83436 14.0146 8.83495C14.0022 8.83555 13.9901 8.83885 13.9791 8.84462C13.9681 8.85041 13.9586 8.85858 13.9511 8.86847C13.9436 8.87837 13.9382 8.88985 13.9356 8.90198L13.8892 9.11175C13.8864 9.12482 13.8811 9.13716 13.8734 9.14816C13.8658 9.15916 13.8561 9.16864 13.8448 9.17587C13.8334 9.18311 13.8206 9.18803 13.8074 9.19037C13.7942 9.19269 13.7805 9.19263 13.7674 9.18972L13.5635 9.1459C13.5365 9.13988 13.5129 9.12367 13.498 9.10047C13.4831 9.07721 13.4783 9.04879 13.4842 9.02185L13.5264 8.82787C13.5299 8.8111 13.5371 8.79519 13.547 8.78114C13.5569 8.76713 13.5694 8.75511 13.5841 8.74602C13.5987 8.73693 13.6153 8.73101 13.6324 8.7283C13.6495 8.7256 13.6671 8.72614 13.684 8.73023C13.8155 8.76366 13.9026 8.69648 13.945 8.52852C13.952 8.50389 13.9715 8.48182 14.0033 8.46246Z" fill="white"/>
<path d="M10.1063 8.708C10.133 8.65043 10.2013 8.62533 10.259 8.65193L10.3792 8.70703C10.437 8.73362 10.4622 8.80189 10.4356 8.85944L10.3699 9.0009C10.3432 9.05843 10.2749 9.08354 10.2171 9.05697L10.0969 9.00155C10.0392 8.97495 10.0139 8.9067 10.0406 8.84913L10.1063 8.708Z" fill="white"/>
<path d="M10.9318 8.07289C10.9462 8.02926 10.9934 8.00546 11.0372 8.01973L11.7068 8.23787C11.7506 8.25214 11.7746 8.29927 11.7603 8.34292L11.5415 9.01025C11.5272 9.05388 11.4799 9.07768 11.4361 9.06341L10.7665 8.84527C10.7227 8.831 10.6987 8.78387 10.713 8.74022L10.9318 8.07289Z" fill="white"/>
<path d="M78.9818 8.39802C79.0251 8.36118 79.0904 8.36641 79.1274 8.40962L79.2789 8.5862C79.3158 8.62941 79.3106 8.69428 79.2673 8.7312L79.0858 8.88554C79.0425 8.92243 78.9772 8.91748 78.9402 8.87427L78.7891 8.69769C78.752 8.65446 78.757 8.58929 78.8004 8.55236L78.9818 8.39802Z" fill="white"/>
<path d="M13.7033 7.34209C13.7165 7.34161 13.7299 7.34391 13.7423 7.34853L14.3013 7.55572C14.3262 7.5652 14.3465 7.58402 14.3574 7.60824C14.3683 7.63246 14.3691 7.66011 14.3597 7.68493L14.1515 8.24206C14.1469 8.25444 14.1399 8.26588 14.1309 8.27557C14.1219 8.28524 14.111 8.29295 14.099 8.29845C14.0869 8.30396 14.0739 8.30732 14.0606 8.30779C14.0475 8.30826 14.0343 8.30594 14.022 8.30135L13.4629 8.09416C13.438 8.08471 13.4178 8.06585 13.4068 8.04164C13.3959 8.01743 13.3952 7.98976 13.4046 7.96495L13.6124 7.40782C13.617 7.39542 13.6241 7.38401 13.6331 7.37431C13.642 7.36461 13.6529 7.35663 13.665 7.35111C13.677 7.34561 13.6901 7.34258 13.7033 7.34209Z" fill="white"/>
<path d="M12.0964 7.1987C12.1171 7.14667 12.1762 7.12111 12.2285 7.14166L12.9232 7.41588C12.9755 7.43659 13.0009 7.49553 12.9802 7.54767L12.7054 8.23981C12.6846 8.29199 12.6253 8.3175 12.5729 8.29684L11.8785 8.02295C11.8262 8.00229 11.8004 7.94302 11.8212 7.89084L12.0964 7.1987Z" fill="white"/>
<path d="M10.4446 7.94884C10.4856 7.94884 10.5187 7.98213 10.5187 8.02295C10.5187 8.06374 10.4856 8.09674 10.4446 8.09674C10.4037 8.0967 10.3705 8.06372 10.3705 8.02295C10.3705 7.98215 10.4037 7.94887 10.4446 7.94884Z" fill="white"/>
<path d="M81.3343 7.62951C81.455 7.62954 81.5528 7.72708 81.5528 7.84734C81.5528 7.96759 81.455 8.06513 81.3343 8.06516C81.2137 8.06516 81.1159 7.96761 81.1159 7.84734C81.1159 7.72707 81.2137 7.62951 81.3343 7.62951Z" fill="white"/>
<path d="M78.6576 6.67605C78.6959 6.64568 78.7518 6.65209 78.7823 6.69022L79.2186 7.23479C79.2491 7.27294 79.2426 7.3284 79.2044 7.35884L78.6579 7.79385C78.6196 7.82424 78.5638 7.81781 78.5332 7.77967L78.0969 7.23511C78.0664 7.19694 78.0728 7.1415 78.1111 7.11105L78.6576 6.67605Z" fill="white"/>
<path d="M10.8677 6.63641C10.8841 6.59272 10.9331 6.57045 10.9769 6.58679L11.3588 6.72921C11.4026 6.74555 11.4251 6.79443 11.4087 6.83813L11.264 7.22383C11.2476 7.26747 11.1986 7.28946 11.1548 7.27313L10.7727 7.13071C10.7289 7.11432 10.7067 7.06577 10.723 7.02212L10.8677 6.63641Z" fill="white"/>
<path d="M13.7149 6.87615C13.8055 6.87883 13.8765 6.96704 13.8734 7.07335C13.8703 7.17969 13.7942 7.26383 13.7036 7.26121C13.613 7.25853 13.5419 7.17006 13.5451 7.06368C13.5483 6.9574 13.6243 6.87353 13.7149 6.87615Z" fill="white"/>
<path d="M80.5178 5.5054C80.5528 5.47785 80.6036 5.48373 80.6312 5.51861L81.2912 6.35124C81.3188 6.38612 81.3129 6.43678 81.2779 6.46434L80.4424 7.12201C80.4074 7.14956 80.3563 7.14369 80.3287 7.1088L79.6688 6.27617C79.6411 6.24127 79.6473 6.19062 79.6823 6.16306L80.5178 5.5054Z" fill="white"/>
<path d="M12.1018 6.62675C12.1317 6.57748 12.181 6.55286 12.2124 6.57165C12.2437 6.59047 12.2451 6.64575 12.2153 6.69506C12.1854 6.7443 12.1357 6.76892 12.1044 6.75016C12.0731 6.73133 12.072 6.67605 12.1018 6.62675Z" fill="white"/>
<path d="M10.3057 6.25554C10.4169 6.2556 10.5068 6.34553 10.5068 6.45629C10.5068 6.56703 10.4169 6.65665 10.3057 6.65671C10.1946 6.65671 10.1044 6.56706 10.1044 6.45629C10.1044 6.34549 10.1946 6.25554 10.3057 6.25554Z" fill="white"/>
<path d="M75.0774 4.95762C75.1169 4.92891 75.1725 4.93756 75.2014 4.97695L75.8507 5.86436C75.8795 5.90382 75.8706 5.95902 75.831 5.98777L74.9407 6.6348C74.9011 6.66356 74.8459 6.65491 74.817 6.61547L74.1677 5.72838C74.1388 5.68892 74.1474 5.63342 74.187 5.60465L75.0774 4.95762Z" fill="white"/>
<path d="M12.9754 6.31902C13.0032 6.25246 13.08 6.22085 13.1468 6.24845L13.1861 6.26489C13.2529 6.29264 13.2845 6.36906 13.2567 6.43567L13.2006 6.56971C13.1728 6.6363 13.096 6.668 13.0292 6.64028L12.9902 6.62385C12.9234 6.59611 12.8918 6.51969 12.9196 6.45307L12.9754 6.31902Z" fill="white"/>
<path d="M14.194 6.39958C14.224 6.37847 14.2535 6.38014 14.2827 6.40473C14.2926 6.41362 14.2996 6.4257 14.3023 6.43889C14.305 6.45206 14.3034 6.46563 14.2978 6.47756C14.2922 6.4895 14.283 6.49926 14.2714 6.50495C14.2598 6.51063 14.2464 6.51209 14.2337 6.50913C14.201 6.50034 14.178 6.48627 14.1647 6.46692C14.1506 6.44493 14.1605 6.42245 14.194 6.39958Z" fill="white"/>
<path d="M11.4316 5.00015C11.4436 4.99971 11.4558 5.00144 11.467 5.00563L12.0577 5.22603C12.0782 5.23391 12.0949 5.24939 12.1041 5.26889C12.1133 5.28841 12.1141 5.31057 12.1067 5.33043L11.8592 5.99035C11.8536 6.00544 11.8426 6.01816 11.8286 6.02612C11.8146 6.03404 11.798 6.03672 11.7822 6.03385C11.6551 6.01186 11.552 5.98053 11.4725 5.94008C11.3605 5.88207 11.2885 5.86807 11.2566 5.89787C11.231 5.92163 11.2128 5.97458 11.2022 6.05641C11.2004 6.06975 11.1957 6.08252 11.1883 6.09379C11.181 6.10504 11.1712 6.11453 11.1596 6.1215C11.1481 6.12847 11.1348 6.13279 11.1213 6.13406C11.1079 6.13531 11.0943 6.13356 11.0817 6.12891L10.617 5.95587C10.5959 5.94787 10.5784 5.93191 10.569 5.91141C10.5597 5.89095 10.5587 5.86745 10.5664 5.84632L10.7359 5.3952C10.7431 5.37639 10.7575 5.36107 10.7759 5.35267C10.7942 5.34428 10.8152 5.34324 10.8342 5.35009L11.0949 5.44644C11.1074 5.45126 11.1208 5.45357 11.1342 5.4532C11.1476 5.45283 11.1609 5.45001 11.1732 5.4445C11.1855 5.43899 11.1967 5.43112 11.206 5.4213C11.2153 5.41149 11.2224 5.39976 11.2273 5.38715L11.3491 5.05977C11.3532 5.04853 11.3597 5.03829 11.3678 5.02948C11.376 5.02063 11.3858 5.01324 11.3968 5.00821C11.4077 5.0032 11.4196 5.00061 11.4316 5.00015Z" fill="white"/>
<path d="M12.5697 4.64313C12.5861 4.59712 12.637 4.57293 12.6831 4.58932L13.6811 4.94344C13.7272 4.95983 13.7513 5.01054 13.7349 5.05654L13.4001 5.9939C13.3836 6.0399 13.3328 6.06407 13.2867 6.04771L12.2884 5.69358C12.2423 5.67717 12.2182 5.62646 12.2346 5.58048L12.5697 4.64313Z" fill="white"/>
<path d="M76.8328 5.47576L76.9849 5.51926C77.0459 5.53651 77.1012 5.56399 77.139 5.59563C77.1767 5.62728 77.1938 5.66048 77.1863 5.6881L77.1042 5.97585C77.1002 5.98949 77.0904 6.00134 77.0752 6.01065C77.0599 6.01997 77.0395 6.02643 77.0152 6.02999C76.991 6.03353 76.9635 6.03401 76.934 6.03127C76.9046 6.02853 76.8737 6.02281 76.8435 6.0142L76.6911 5.9707C76.6644 5.9633 76.6419 5.94539 76.6282 5.9214C76.6146 5.89741 76.6109 5.86904 76.6182 5.84245L76.703 5.54697C76.7068 5.53379 76.7131 5.52128 76.7217 5.51056C76.7302 5.49988 76.7409 5.49107 76.7529 5.48446C76.765 5.47785 76.7783 5.47373 76.7919 5.47221C76.8056 5.47071 76.8196 5.47192 76.8328 5.47576Z" fill="white"/>
<path d="M79.0394 5.03721C79.0884 5.03741 79.1279 5.07732 79.1277 5.12614L79.1255 5.83891C79.1252 5.88769 79.0852 5.92704 79.0362 5.92687L78.3212 5.9243C78.2722 5.92413 78.2324 5.88452 78.2326 5.83568L78.2352 5.12292C78.2354 5.07415 78.2752 5.03486 78.3241 5.03495L79.0394 5.03721Z" fill="white"/>
<path d="M14.0842 5.35621C14.1126 5.29381 14.1865 5.26604 14.2491 5.29435L14.5073 5.41099C14.5698 5.43929 14.5975 5.51294 14.5691 5.57533L14.4521 5.83246C14.4237 5.89486 14.3498 5.92263 14.2872 5.89433L14.0291 5.77768C13.9665 5.74937 13.9388 5.67573 13.9672 5.61335L14.0842 5.35621Z" fill="white"/>
<path d="M10.1952 5.60658C10.2768 5.61989 10.3336 5.68729 10.3222 5.75706C10.3107 5.82684 10.2352 5.87252 10.1537 5.85921C10.0722 5.84585 10.0152 5.77847 10.0267 5.70873C10.0382 5.63904 10.1137 5.59331 10.1952 5.60658Z" fill="white"/>
<path d="M10.2687 5.16288C10.3535 5.16295 10.4221 5.23143 10.4221 5.31593C10.4221 5.40043 10.3535 5.46892 10.2687 5.46899C10.1839 5.46899 10.115 5.40048 10.115 5.31593C10.115 5.23138 10.1838 5.16288 10.2687 5.16288Z" fill="white"/>
<path d="M82.4183 4.81745C82.4507 4.7838 82.5044 4.78267 82.5382 4.81487L82.6742 4.94441C82.7079 4.97664 82.709 5.02994 82.6767 5.06363L82.5469 5.19929C82.5145 5.23301 82.4608 5.2341 82.427 5.20187L82.291 5.07233C82.2572 5.0401 82.2561 4.98682 82.2884 4.95311L82.4183 4.81745Z" fill="white"/>
<path d="M11.0088 4.90703C11.0414 4.87162 11.0908 4.86398 11.1194 4.88995C11.148 4.916 11.1448 4.96592 11.1123 5.00144C11.0797 5.03693 11.03 5.04456 11.0014 5.01852C10.9729 4.99244 10.9763 4.94251 11.0088 4.90703Z" fill="white"/>
<path d="M11.9916 4.59931C12.0852 4.59935 12.1611 4.67488 12.1611 4.76815C12.1611 4.86143 12.0852 4.93696 11.9916 4.937C11.898 4.937 11.8221 4.86145 11.8221 4.76815C11.8222 4.67486 11.898 4.59931 11.9916 4.59931Z" fill="white"/>
<path d="M14.2485 4.54453C14.2896 4.55131 14.3188 4.5825 14.3136 4.61413C14.3083 4.64577 14.2706 4.66602 14.2295 4.65924C14.1884 4.65246 14.1592 4.62126 14.1644 4.58964C14.1697 4.55801 14.2074 4.53776 14.2485 4.54453Z" fill="white"/>
<path d="M13.6111 4.25356C13.7201 4.25356 13.8087 4.34151 13.8087 4.45012C13.8087 4.55871 13.7201 4.64667 13.6111 4.64667C13.5022 4.64661 13.4139 4.55867 13.4139 4.45012C13.4139 4.34155 13.5022 4.25362 13.6111 4.25356Z" fill="white"/>
<path d="M80.6789 3.9642C80.732 3.91749 80.813 3.92237 80.86 3.97516L81.0498 4.18879C81.0968 4.24175 81.0917 4.32272 81.0385 4.36956L80.8243 4.55838C80.7711 4.60519 80.6902 4.60029 80.6432 4.54743L80.4534 4.33379C80.4064 4.28084 80.4115 4.19985 80.4647 4.15302L80.6789 3.9642Z" fill="white"/>
<path d="M79.8102 3.21922C79.8605 3.20648 79.9117 3.2368 79.9246 3.28688L80.1418 4.13627C80.1546 4.18639 80.1241 4.23724 80.0738 4.25001L79.2218 4.46655C79.1715 4.47933 79.1203 4.44903 79.1074 4.39888L78.8903 3.54982C78.8774 3.4997 78.9077 3.44858 78.9579 3.43575L79.8102 3.21922Z" fill="white"/>
<path d="M12.1637 3.79245C12.185 3.73426 12.2497 3.70425 12.3081 3.72543L12.6264 3.84111C12.6848 3.8623 12.715 3.9266 12.6938 3.98482L12.5797 4.29738C12.5584 4.35558 12.4937 4.38559 12.4353 4.3644L12.1167 4.24873C12.0583 4.22748 12.0284 4.16319 12.0496 4.10501L12.1637 3.79245Z" fill="white"/>
<path d="M75.5336 3.88783C75.6257 3.88787 75.7005 3.9623 75.7005 4.0541C75.7005 4.14592 75.6258 4.22033 75.5336 4.22037C75.4415 4.22037 75.3667 4.14595 75.3667 4.0541C75.3667 3.96228 75.4415 3.88783 75.5336 3.88783Z" fill="white"/>
<path d="M99.3126 0.0378876C100.025 0.118394 100.728 0.142171 100.892 0.962996C101.048 1.73378 101.049 2.47794 100.897 3.19505C100.793 3.68333 100.514 3.964 100.058 4.03702C99.0023 4.20684 98.0872 4.18877 97.3129 3.98289C96.3302 3.72288 96.4918 1.74976 96.6362 0.998763C96.8017 0.139591 97.4386 0.152696 98.1365 0.0378876H99.3126Z" fill="white"/>
<path d="M13.1993 3.84175C13.2366 3.84175 13.267 3.87192 13.267 3.9091C13.2669 3.94621 13.2366 3.97612 13.1993 3.97612C13.1621 3.9761 13.1321 3.94619 13.132 3.9091C13.132 3.87194 13.1621 3.84178 13.1993 3.84175Z" fill="white"/>
<path d="M77.9735 3.23726C78.047 3.2442 78.1009 3.30902 78.094 3.38226L78.0586 3.7583C78.0516 3.83154 77.9861 3.88541 77.9126 3.87849L77.5514 3.84433C77.4779 3.8374 77.4239 3.7723 77.4309 3.69901L77.4663 3.32329C77.4733 3.25 77.5388 3.19618 77.6123 3.2031L77.9735 3.23726Z" fill="white"/>
<path d="M80.7121 1.88359C80.7529 1.84925 80.814 1.85423 80.8484 1.89487L81.4159 2.56413C81.4503 2.60476 81.4453 2.66576 81.4046 2.70011L80.7327 3.26562C80.692 3.29996 80.6309 3.29498 80.5964 3.25434L80.029 2.58508C79.9945 2.54445 79.9995 2.48345 80.0403 2.4491L80.7121 1.88359Z" fill="white"/>
<path d="M11.9307 3.16734C11.9643 3.15504 11.9921 3.1583 12.0142 3.17765C12.0468 3.20399 12.0507 3.22736 12.0261 3.24757C11.9705 3.29331 11.9248 3.29844 11.8895 3.26239C11.8832 3.25613 11.8792 3.24808 11.8779 3.23919C11.8766 3.23027 11.8783 3.22058 11.8824 3.21116C11.8865 3.20174 11.893 3.19272 11.9014 3.18506C11.9098 3.17741 11.92 3.17141 11.9307 3.16734Z" fill="white"/>
<path d="M12.5094 2.81998C12.6162 2.82001 12.7027 2.90632 12.7028 3.01267C12.7028 3.11907 12.6162 3.20533 12.5094 3.20536C12.4027 3.20536 12.3161 3.11909 12.3161 3.01267C12.3162 2.9063 12.4027 2.81998 12.5094 2.81998Z" fill="white"/>
<path d="M79.0327 2.58927C79.1197 2.58934 79.1902 2.6595 79.1902 2.74619C79.1902 2.83288 79.1197 2.90304 79.0327 2.90311C78.9456 2.90311 78.8748 2.83293 78.8748 2.74619C78.8748 2.65945 78.9456 2.58927 79.0327 2.58927Z" fill="white"/>
<path d="M81.9723 1.84525C82.0425 1.82473 82.116 1.86461 82.1367 1.9345L82.2063 2.17005C82.2269 2.2399 82.1867 2.3131 82.1167 2.33374L81.8776 2.40399C81.8075 2.42449 81.734 2.38454 81.7133 2.31473L81.6437 2.07918C81.623 2.00929 81.6631 1.93579 81.7333 1.91517L81.9723 1.84525Z" fill="white"/>
<path d="M10.4884 2.30152C10.537 2.28833 10.57 2.29314 10.5877 2.31602C10.5912 2.32035 10.5936 2.32541 10.5948 2.33084C10.5959 2.33628 10.5959 2.3419 10.5945 2.34727C10.5931 2.35264 10.5904 2.35761 10.5867 2.36177C10.583 2.36595 10.5784 2.36937 10.5732 2.37144C10.5432 2.38376 10.5162 2.38458 10.4923 2.37402C10.4846 2.37083 10.4777 2.36543 10.4727 2.35855C10.4677 2.35169 10.4647 2.34364 10.4643 2.33567C10.4638 2.32766 10.4661 2.31989 10.4704 2.31376C10.4747 2.30768 10.481 2.30344 10.4884 2.30152Z" fill="white"/>
<path d="M82.4277 2.04599C82.457 2.0268 82.4935 2.03033 82.5092 2.05405C82.5248 2.07781 82.5137 2.11282 82.4844 2.13203C82.455 2.15119 82.4185 2.14739 82.4028 2.12365C82.3872 2.09991 82.3984 2.0652 82.4277 2.04599Z" fill="white"/>
</svg>
