<svg width="401" height="90" viewBox="0 0 401 90" fill="none" xmlns="http://www.w3.org/2000/svg">
<path d="M194.01 47.4402V42.4402H191.27V19.2402H184.04V35.5602C180.964 32.6549 176.882 31.053 172.65 31.0902C170.153 31.055 167.676 31.536 165.373 32.5031C163.071 33.4702 160.993 34.9025 159.27 36.7102C157.499 38.4688 156.1 40.566 155.157 42.8768C154.214 45.1876 153.746 47.6646 153.78 50.1602C153.744 52.6528 154.205 55.1276 155.136 57.4402C156.066 59.7529 157.448 61.8571 159.2 63.6302C160.879 65.4325 162.916 66.8642 165.181 67.8337C167.445 68.8032 169.887 69.2891 172.35 69.2602C176.696 69.2514 180.879 67.6095 184.07 64.6602V68.1402H191.27V47.4402H194.01ZM180.78 58.9002C179.739 59.9679 178.495 60.8168 177.121 61.3972C175.747 61.9776 174.272 62.2779 172.78 62.2802C171.238 62.3008 169.709 61.991 168.297 61.3718C166.884 60.7526 165.62 59.8383 164.59 58.6902C162.399 56.4365 161.166 53.4217 161.149 50.2784C161.132 47.135 162.333 44.1073 164.5 41.8302C165.57 40.7181 166.851 39.8312 168.269 39.2217C169.687 38.6123 171.212 38.2925 172.755 38.2814C174.298 38.2702 175.828 38.5678 177.254 39.1566C178.68 39.7455 179.975 40.6137 181.06 41.7102C182.153 42.8645 183.006 44.2245 183.569 45.7111C184.132 47.1978 184.394 48.7815 184.34 50.3702C184.393 51.9642 184.103 53.5509 183.489 55.0226C182.874 56.4944 181.951 57.8169 180.78 58.9002Z" fill="white"/>
<path d="M195.47 34.6201H192.41V37.6801H195.47V34.6201Z" fill="white"/>
<path d="M198.08 41.0498H195.25V43.8798H198.08V41.0498Z" fill="white"/>
<path d="M203.27 25.3096H201.49V27.0896H203.27V25.3096Z" fill="white"/>
<path d="M209.63 20.29H208.92V21H209.63V20.29Z" fill="white"/>
<path d="M207.17 19.3496H205.27V21.2496H207.17V19.3496Z" fill="white"/>
<path d="M210.08 18.3301H209.15V19.2601H210.08V18.3301Z" fill="white"/>
<path d="M206.23 23.1904H205V24.4204H206.23V23.1904Z" fill="white"/>
<path d="M196.79 47.3701H195.34V48.8201H196.79V47.3701Z" fill="white"/>
<path d="M206.03 35.3799H201.45V39.9599H206.03V35.3799Z" fill="white"/>
<path d="M201.87 29.9697H197.72V34.1197H201.87V29.9697Z" fill="white"/>
<path d="M204.65 49.2002H202.7V51.1502H204.65V49.2002Z" fill="white"/>
<path d="M200.77 21.7002H197.9V24.5702H200.77V21.7002Z" fill="white"/>
<path d="M194.71 55.6904H192.82V57.5804H194.71V55.6904Z" fill="white"/>
<path d="M207.74 52.6797H204.46V55.9597H207.74V52.6797Z" fill="white"/>
<path d="M201.58 51.3496H196.56V56.3696H201.58V51.3496Z" fill="white"/>
<path d="M204.4 42.8799H199.58V47.6999H204.4V42.8799Z" fill="white"/>
<path d="M203.24 58.5801H199.79V62.0301H203.24V58.5801Z" fill="white"/>
<path d="M206.25 42.0996H204.52V43.8296H206.25V42.0996Z" fill="white"/>
<path d="M198.95 37.54H198.3V38.19H198.95V37.54Z" fill="white"/>
<path d="M206.33 61.9502H204.5V63.7802H206.33V61.9502Z" fill="white"/>
<path d="M209.21 64.0195H208.01V65.2195H209.21V64.0195Z" fill="white"/>
<path d="M212.56 17.0102V18.0102H210.56L210.34 18.1302V21.9002H208.47V25.6502H206.83V27.9302H203.83V31.3802H206.9V35.3802H208.83V38.3802H207.6V42.9602H209.01V44.8402H206.21V51.6402H209.02V54.7002H210.38V56.9702H206.05V59.6602H208.14V61.2702H209.14V62.5602H210.34V65.1602H211.13V65.7402H212.42V66.7402C213.07 67.018 213.738 67.2519 214.42 67.4402C217.825 68.224 221.318 68.5602 224.81 68.4402H243.41V58.8902H227.07C222.53 58.8902 219.197 58.0369 217.07 56.3302C214.023 53.8702 212.5 48.6835 212.5 40.7702C212.5 34.8902 213.5 30.8269 215.5 28.5802C217.86 25.8535 221.603 24.4902 226.73 24.4902H243.49V14.9902H225.27C220.944 14.8514 216.63 15.537 212.56 17.0102ZM212.04 19.5902H210.9V18.4502H212.04V19.5902ZM220.65 64.4802H221.79V65.6202H220.65V64.4802ZM214.65 59.9902H217.36V62.6902H214.65V59.9902ZM214.89 25.8902H213.27V24.2702H214.9L214.89 25.8902ZM216.97 21.2402H214.14V18.4002H216.97V21.2402ZM218.57 17.2402H217.42V16.0902H218.57V17.2402ZM221.32 22.2402H220.17V21.1002H221.27L221.32 22.2402Z" fill="white"/>
<path d="M212.15 17.2402H211.62V17.7702H212.15V17.2402Z" fill="white"/>
<path d="M211.81 66.1201H211.16V66.7701H211.81V66.1201Z" fill="white"/>
<path d="M277.35 35.5396C274.264 32.6483 270.179 31.0642 265.95 31.1196C263.452 31.0789 260.973 31.5544 258.667 32.5163C256.361 33.4782 254.279 34.9057 252.55 36.7096C250.787 38.4594 249.394 40.5453 248.453 42.8437C247.511 45.1421 247.041 47.6061 247.07 50.0896C247.039 52.5818 247.504 55.0554 248.438 57.3662C249.372 59.677 250.756 61.779 252.51 63.5496C254.187 65.3599 256.224 66.7994 258.491 67.7759C260.757 68.7523 263.202 69.2441 265.67 69.2196C270.001 69.2074 274.17 67.5692 277.35 64.6296V68.0996H284.58V31.9896H277.35V35.5396ZM274.18 58.8596C273.133 59.961 271.869 60.8335 270.468 61.4221C269.067 62.0108 267.56 62.3027 266.04 62.2796C264.501 62.3013 262.974 61.9951 261.562 61.3813C260.15 60.7675 258.884 59.8601 257.85 58.7196C255.658 56.4597 254.428 53.4379 254.419 50.2897C254.41 47.1415 255.622 44.1124 257.8 41.8396C258.832 40.6903 260.099 39.7773 261.516 39.1629C262.933 38.5485 264.466 38.2472 266.01 38.2796C267.546 38.2465 269.072 38.5355 270.489 39.1279C271.907 39.7204 273.185 40.6033 274.24 41.7196C275.351 42.8507 276.221 44.1949 276.798 45.6711C277.376 47.1473 277.648 48.7252 277.6 50.3096C277.652 51.8937 277.374 53.4713 276.786 54.9429C276.197 56.4145 275.31 57.7481 274.18 58.8596Z" fill="white"/>
<path d="M316.61 33.1895C314.442 31.8183 311.925 31.0997 309.36 31.1195C305.306 31.1097 301.406 32.6726 298.48 35.4795V31.9895H291.13V68.1395H298.48V54.4595C298.366 51.5484 298.55 48.6331 299.03 45.7595C299.432 44.3552 300.112 43.0459 301.03 41.9095C301.928 40.7401 303.067 39.7782 304.37 39.0895C305.602 38.4337 306.975 38.0904 308.37 38.0895C309.541 38.0567 310.707 38.2573 311.8 38.6795C312.667 39.0481 313.418 39.6462 313.97 40.4095C314.62 41.3328 315.088 42.3712 315.35 43.4695C315.775 45.8985 315.942 48.3655 315.85 50.8295V68.1295H323.14V49.5995C323.14 44.7795 322.61 41.2895 321.54 38.8995C320.505 36.5462 318.787 34.5572 316.61 33.1895Z" fill="white"/>
<path d="M357.94 35.5403C354.854 32.6392 350.765 31.0446 346.53 31.0903C344.032 31.0496 341.553 31.5251 339.247 32.487C336.941 33.4489 334.859 34.8764 333.13 36.6803C331.364 38.4336 329.968 40.5244 329.027 42.8282C328.085 45.1321 327.617 47.6018 327.65 50.0903C327.619 52.5825 328.084 55.0561 329.018 57.3669C329.952 59.6777 331.336 61.7797 333.09 63.5503C334.766 65.3703 336.805 66.8188 339.075 67.8023C341.345 68.7859 343.796 69.2825 346.27 69.2603C350.604 69.2467 354.775 67.6089 357.96 64.6703V68.1403H365.18V31.9903H357.96L357.94 35.5403ZM354.76 58.8603C353.713 59.9617 352.449 60.8342 351.048 61.4228C349.647 62.0115 348.14 62.3034 346.62 62.2803C345.08 62.302 343.554 61.9958 342.142 61.382C340.73 60.7682 339.464 59.8608 338.43 58.7203C336.238 56.4604 335.008 53.4386 334.999 50.2904C334.99 47.1422 336.202 44.1131 338.38 41.8403C339.412 40.6915 340.68 39.7789 342.097 39.1645C343.513 38.5501 345.046 38.2486 346.59 38.2803C348.126 38.2472 349.652 38.5362 351.069 39.1286C352.487 39.7211 353.765 40.604 354.82 41.7203C355.931 42.8514 356.801 44.1956 357.378 45.6718C357.956 47.1481 358.228 48.7259 358.18 50.3103C358.232 51.8944 357.954 53.472 357.366 54.9436C356.777 56.4152 355.89 57.7488 354.76 58.8603Z" fill="white"/>
<path d="M378.37 19.2197H371.08V68.1397H378.37V19.2197Z" fill="white"/>
<path d="M70.6901 19.2197H63.4001V68.1397H70.6901V19.2197Z" fill="white"/>
<path d="M93.7202 31.0903C91.2281 31.054 88.7555 31.5356 86.4592 32.5048C84.1629 33.4739 82.0928 34.9094 80.3802 36.7203C76.9002 40.335 74.9561 45.1576 74.9561 50.1753C74.9561 55.193 76.9002 60.0155 80.3802 63.6303C82.1227 65.4042 84.2011 66.8132 86.4941 67.775C88.7871 68.7369 91.2487 69.2323 93.7352 69.2323C96.2218 69.2323 98.6834 68.7369 100.976 67.775C103.269 66.8132 105.348 65.4042 107.09 63.6303C110.56 60.0066 112.492 55.1802 112.481 50.1632C112.469 45.1462 110.516 40.3285 107.03 36.7203C105.326 34.9063 103.262 33.4684 100.97 32.4989C98.678 31.5294 96.2086 31.0496 93.7202 31.0903ZM101.72 58.6903C100.671 59.7729 99.4157 60.6337 98.0276 61.2216C96.6396 61.8094 95.1476 62.1124 93.6402 62.1124C92.1329 62.1124 90.6409 61.8094 89.2529 61.2216C87.8648 60.6337 86.6091 59.7729 85.5602 58.6903C84.491 57.5841 83.6529 56.276 83.0949 54.8424C82.5369 53.4087 82.2701 51.8782 82.3102 50.3403C82.2804 48.7684 82.564 47.2064 83.1443 45.7453C83.7246 44.2842 84.5901 42.9533 85.6902 41.8303C86.6976 40.7057 87.9307 39.8061 89.3092 39.1902C90.6876 38.5743 92.1805 38.256 93.6902 38.256C95.2 38.256 96.6929 38.5743 98.0713 39.1902C99.4498 39.8061 100.683 40.7057 101.69 41.8303C102.795 42.9431 103.666 44.2658 104.252 45.7205C104.837 47.1752 105.126 48.7324 105.1 50.3003C105.144 51.8569 104.87 53.4061 104.296 54.8536C103.722 56.3011 102.859 57.6167 101.76 58.7203L101.72 58.6903Z" fill="white"/>
<path d="M141.43 45.6702C141.544 48.5814 141.36 51.4966 140.88 54.3702C140.478 55.7715 139.798 57.0774 138.88 58.2102C137.976 59.3885 136.821 60.3516 135.5 61.0302C134.366 61.6133 133.121 61.9503 131.848 62.0192C130.574 62.0882 129.301 61.8874 128.11 61.4302C127.242 61.063 126.491 60.4646 125.94 59.7002C125.29 58.777 124.822 57.7385 124.56 56.6402C124.134 54.2115 123.966 51.7444 124.06 49.2802V31.9902H116.78V50.5302C116.78 55.3402 117.3 58.8402 118.37 61.2302C119.398 63.5762 121.1 65.5637 123.26 66.9402C125.43 68.3154 127.951 69.0342 130.52 69.0102C134.571 69.0154 138.466 67.453 141.39 64.6502V68.1402H148.74V31.9902H141.39L141.43 45.6702Z" fill="white"/>
<path d="M49.4801 17.0498H46.8801V19.6498H49.4801V17.0498Z" fill="white"/>
<path d="M51.8602 20.5H48.4402V23.92H51.8602V20.5Z" fill="white"/>
<path d="M54.6801 23.8096H53.0801V25.4096H54.6801V23.8096Z" fill="white"/>
<path d="M59.7003 23.3604H58.5103V24.5504H59.7003V23.3604Z" fill="white"/>
<path d="M59.48 17.9902H58.77V18.7003H59.48V17.9902Z" fill="white"/>
<path d="M57.1001 20.3701H54.3401V23.1301H57.1001V20.3701Z" fill="white"/>
<path d="M56.47 14.5801H52.98V18.0701H56.47V14.5801Z" fill="white"/>
<path d="M61.28 14.7002H59.3101V16.6702H61.28V14.7002Z" fill="white"/>
<path d="M51.5501 17.7998H50.5901V18.7598H51.5501V17.7998Z" fill="white"/>
<path d="M50.9902 13.6299H48.9302V15.6899H50.9902V13.6299Z" fill="white"/>
<path d="M49.4801 60.6504H46.8801V63.2504H49.4801V60.6504Z" fill="white"/>
<path d="M51.8602 64.0898H48.4402V67.5099H51.8602V64.0898Z" fill="white"/>
<path d="M54.6801 67.4004H53.0801V69.0004H54.6801V67.4004Z" fill="white"/>
<path d="M59.7003 66.96H58.5103V68.15H59.7003V66.96Z" fill="white"/>
<path d="M59.48 61.5898H58.77V62.2998H59.48V61.5898Z" fill="white"/>
<path d="M57.1001 63.9697H54.3401V66.7297H57.1001V63.9697Z" fill="white"/>
<path d="M46.1302 59.7596H47.2702V58.6296H45.6302V58.8396H43.5002V58.6296H42.5902C38.0369 58.6296 34.7036 57.7729 32.5902 56.0596C29.5502 53.5996 28.0269 48.4129 28.0202 40.4996C28.0202 34.6196 29.0202 30.5563 31.0202 28.3096C33.3669 25.5896 37.1102 24.2263 42.2502 24.2196H45.1302V22.6096H47.2702V20.6096H46.1802V16.1196H47.2702V14.6296H45.6302V15.1896H43.5002V14.6296H40.7702C37.4377 14.5791 34.1119 14.9452 30.8702 15.7196V16.3596H29.6202V16.0896C28.5886 16.4057 27.5852 16.807 26.6202 17.2896C22.8699 19.2773 19.9128 22.4886 18.2402 26.3896C16.1734 31.1524 15.1734 36.3095 15.3102 41.4996C15.3102 51.6129 17.8769 58.8863 23.0102 63.3196C24.9877 65.0714 27.3314 66.3594 29.8702 67.0896C33.2728 67.8683 36.7616 68.2044 40.2502 68.0896H44.9802V66.0896H47.2702V64.0896H46.1802L46.1302 59.7596ZM43.4902 18.0196H44.8102V19.3396H43.4902V18.0196ZM43.6902 20.0196V22.9696H40.7402V20.0196H43.6902ZM40.2702 15.7096H42.4002V17.8396H40.2702V15.7096ZM35.8902 17.3496H39.5902V21.0896H35.8902V17.3496ZM35.1202 22.8996H36.3702V24.1396H35.1202V22.8996ZM32.9302 16.1796H34.4702V17.7196H32.9302V16.1796ZM30.9302 20.5996H32.9302V22.5996H30.9302V20.5996ZM28.8702 26.6896H28.2702V26.0896H28.8902L28.8702 26.6896ZM27.9902 18.3296H28.8502V19.1796H27.9902V18.3296ZM29.8202 62.3296H28.9602V61.4696H29.8202V62.3296ZM29.9802 58.1696H28.7402V56.9296H29.9802V58.1696ZM32.9802 66.1696H30.9802V64.1696H32.9802V66.1696ZM34.5002 61.2696H32.9602V59.7296H34.5002V61.2696ZM36.4002 67.6996H35.1502V66.4596H36.4002V67.6996ZM39.6202 64.6096H35.9202V60.9096H39.6202V64.6096ZM40.3002 61.3996V59.2696H42.4302V61.3996H40.3002ZM43.7102 66.5396H40.7602V63.5396H43.7102V66.5396ZM44.8302 62.8896H43.5102V61.5796H44.8302V62.8896Z" fill="white"/>
<path d="M56.47 58.1797H52.98V61.6697H56.47V58.1797Z" fill="white"/>
<path d="M61.28 58.2998H59.3101V60.2698H61.28V58.2998Z" fill="white"/>
<path d="M51.5501 61.4004H50.5901V62.3604H51.5501V61.4004Z" fill="white"/>
<path d="M50.9902 57.2197H48.9302V59.2797H50.9902V57.2197Z" fill="white"/>
</svg>
