<svg width="338" height="53" viewBox="0 0 338 53" fill="none" xmlns="http://www.w3.org/2000/svg">
<path d="M44.8701 1.9375H39.0801V48.9975H44.8701V1.9375Z" fill="#0087C7"/>
<path d="M68.42 13.7278C66.0492 13.6954 63.6975 14.1551 61.5132 15.0777C59.329 16.0002 57.3598 17.3657 55.73 19.0878C52.403 22.5362 50.5438 27.141 50.5438 31.9328C50.5438 36.7245 52.403 41.3294 55.73 44.7778C57.3919 46.4652 59.3728 47.8053 61.5574 48.7199C63.742 49.6346 66.0867 50.1057 68.455 50.1057C70.8234 50.1057 73.1681 49.6346 75.3527 48.7199C77.5373 47.8053 79.5182 46.4652 81.1801 44.7778C84.4898 41.3168 86.332 36.7095 86.3208 31.9207C86.3096 27.1319 84.4459 22.5332 81.1201 19.0878C79.4918 17.361 77.5214 15.9925 75.3348 15.0697C73.1481 14.1468 70.7932 13.6898 68.42 13.7278ZM68.42 44.4978C66.8194 44.5359 65.2287 44.2359 63.752 43.6173C62.2752 42.9987 60.9456 42.0754 59.85 40.9078C57.5932 38.553 56.3632 35.3988 56.4301 32.1378C56.3878 28.811 57.6599 25.602 59.97 23.2078C61.0352 22.027 62.3364 21.0831 63.7894 20.437C65.2424 19.7909 66.8148 19.457 68.405 19.457C69.9952 19.457 71.5677 19.7909 73.0207 20.437C74.4737 21.0831 75.7749 22.027 76.84 23.2078C79.1658 25.5827 80.4535 28.7839 80.42 32.1078C80.4468 33.7295 80.1501 35.3402 79.5475 36.846C78.9448 38.3517 78.0482 39.7223 76.91 40.8778C75.8232 42.0368 74.5072 42.9571 73.0456 43.5803C71.584 44.2034 70.0088 44.5159 68.42 44.4978Z" fill="#0087C7"/>
<path d="M116.44 27.4374C116.557 30.3863 116.362 33.3393 115.86 36.2474C115.456 37.7294 114.755 39.114 113.8 40.3174C112.836 41.5666 111.611 42.5904 110.21 43.3174C108.991 43.9425 107.653 44.3031 106.285 44.3755C104.917 44.4479 103.548 44.2304 102.27 43.7374C101.293 43.32 100.446 42.6462 99.8201 41.7874C99.1229 40.798 98.6206 39.6848 98.34 38.5074C97.9018 36.043 97.7275 33.5388 97.8201 31.0374V14.6074H92.03V32.2674C92.03 36.8674 92.54 40.3374 93.55 42.5774C94.5073 44.7787 96.1027 46.6423 98.1301 47.9274C100.165 49.218 102.53 49.8918 104.94 49.8674C107.128 49.857 109.288 49.3745 111.273 48.4529C113.258 47.5313 115.02 46.1924 116.44 44.5274V49.0074H122.29V14.6074H116.44V27.4374Z" fill="#0087C7"/>
<path d="M219.88 32.6877C219.75 26.8477 217.99 22.1777 214.64 18.8177C213.009 17.1546 211.053 15.8446 208.894 14.969C206.735 14.0934 204.419 13.6709 202.09 13.7277C199.731 13.684 197.39 14.1399 195.22 15.0654C193.05 15.9909 191.101 17.3651 189.5 19.0977C186.251 22.5819 184.444 27.1687 184.444 31.9327C184.444 36.6967 186.251 41.2835 189.5 44.7677C191.14 46.5088 193.128 47.8843 195.335 48.8045C197.543 49.7246 199.919 50.1687 202.31 50.1077C205.711 50.1966 209.062 49.2856 211.95 47.4877C214.926 45.4267 217.334 42.6474 218.95 39.4077L219.13 39.0877L214.13 36.5277L213.96 36.8477C211.2 42.0077 207.15 44.6277 201.96 44.6277C200.487 44.6416 199.025 44.3593 197.663 43.7975C196.301 43.2358 195.065 42.4061 194.03 41.3577C191.838 39.1318 190.555 36.169 190.43 33.0477H219.94L219.88 32.6877ZM202.09 19.3977C204.72 19.3608 207.289 20.1824 209.41 21.7377C211.43 23.2184 212.85 25.3765 213.41 27.8177H191.09C193 22.1477 196.6 19.3977 202.09 19.3977Z" fill="#0087C7"/>
<path d="M254.88 21.018C253.915 18.8187 252.317 16.9563 250.29 15.668C248.257 14.3808 245.896 13.7073 243.49 13.728C241.302 13.7398 239.142 14.2229 237.158 15.1444C235.173 16.0658 233.411 17.4041 231.99 19.068V14.608H226.14V49.008H231.99V36.148C231.876 33.2029 232.067 30.2538 232.56 27.348C232.964 25.8639 233.669 24.4786 234.63 23.278C235.589 22.0234 236.815 20.9984 238.22 20.278C239.528 19.5777 240.987 19.207 242.47 19.198C243.731 19.1659 244.986 19.387 246.16 19.848C247.14 20.2812 247.983 20.9725 248.6 21.848C249.299 22.8343 249.804 23.9438 250.09 25.118C250.523 27.5864 250.694 30.0937 250.6 32.598V49.028H256.39V31.328C256.39 26.728 255.88 23.258 254.88 21.018Z" fill="#0087C7"/>
<path d="M292.88 38.8279C291.535 40.6295 289.787 42.092 287.777 43.099C285.766 44.1059 283.549 44.6295 281.3 44.6279C279.551 44.6779 277.81 44.3672 276.186 43.7151C274.562 43.0631 273.089 42.0837 271.86 40.8379C270.659 39.656 269.709 38.2431 269.068 36.6843C268.427 35.1256 268.108 33.4532 268.13 31.7679C268.097 30.1091 268.416 28.4621 269.068 26.9363C269.72 25.4105 270.689 24.0407 271.91 22.9179C274.444 20.5304 277.82 19.2433 281.3 19.3379C283.54 19.2965 285.756 19.7957 287.761 20.7932C289.767 21.7907 291.502 23.257 292.82 25.0679L293.02 25.3279L297.61 22.4279L297.43 22.1279C295.836 19.4798 293.528 17.3346 290.77 15.9379C287.902 14.459 284.717 13.7005 281.49 13.7279C278.936 13.6362 276.39 14.0669 274.009 14.9938C271.627 15.9206 269.46 17.324 267.64 19.1179C265.91 20.8069 264.543 22.8307 263.621 25.0659C262.7 27.301 262.243 29.7005 262.28 32.1179C262.238 34.5036 262.69 36.8722 263.608 39.0749C264.525 41.2776 265.887 43.2669 267.61 44.9179C269.356 46.6352 271.43 47.9833 273.708 48.8819C275.986 49.7804 278.422 50.211 280.87 50.1479C284.136 50.1709 287.366 49.4601 290.32 48.0679C293.186 46.7236 295.638 44.6342 297.42 42.0179L297.62 41.7179L293.09 38.6079L292.88 38.8279Z" fill="#0087C7"/>
<path d="M331.73 36.8477C328.97 42.0077 324.92 44.6277 319.73 44.6277C318.257 44.6416 316.795 44.3593 315.433 43.7975C314.071 43.2358 312.835 42.4061 311.8 41.3577C309.61 39.13 308.323 36.1691 308.19 33.0477H337.73V32.6877C337.61 26.8477 335.85 22.1777 332.5 18.8177C330.869 17.1546 328.913 15.8446 326.754 14.969C324.595 14.0934 322.279 13.6709 319.95 13.7277C317.591 13.684 315.25 14.1399 313.08 15.0654C310.91 15.9909 308.961 17.3651 307.36 19.0977C304.111 22.5819 302.304 27.1687 302.304 31.9327C302.304 36.6967 304.111 41.2835 307.36 44.7677C308.996 46.5105 310.982 47.8873 313.188 48.8077C315.395 49.7281 317.77 50.1711 320.16 50.1077C323.564 50.1962 326.919 49.2853 329.81 47.4877C332.786 45.4267 335.194 42.6474 336.81 39.4077L336.99 39.0877L331.99 36.5277L331.73 36.8477ZM319.88 19.3977C322.51 19.3608 325.079 20.1824 327.2 21.7377C329.22 23.2184 330.64 25.3765 331.2 27.8177H308.92C310.82 22.1477 314.43 19.3977 319.92 19.3977H319.88Z" fill="#0087C7"/>
<path d="M157.11 43.6079C156.229 44.4873 155.035 44.9811 153.79 44.9811C152.545 44.9811 151.351 44.4873 150.47 43.6079L136.39 29.5179C135.511 28.6385 135.018 27.4462 135.018 26.2029C135.018 24.9597 135.511 23.7674 136.39 22.8879L142.91 16.368L137.67 11.1279L131.16 17.6079C128.894 19.8783 127.621 22.9551 127.621 26.1629C127.621 29.3708 128.894 32.4475 131.16 34.7179L145.24 48.7979C147.509 51.0635 150.584 52.336 153.79 52.336C156.996 52.336 160.071 51.0635 162.34 48.7979L168.86 42.278L163.63 37.0479L157.11 43.6079Z" fill="#0087C7"/>
<path d="M150.47 8.76804C151.351 7.88869 152.545 7.39484 153.79 7.39484C155.035 7.39484 156.229 7.88869 157.11 8.76804L163.63 15.288L168.86 10.058L162.34 3.53802C160.071 1.2725 156.996 0 153.79 0C150.584 0 147.509 1.2725 145.24 3.53802L138.73 10.058L143.97 15.288L150.47 8.76804Z" fill="#0087C7"/>
<path d="M168.54 12.4677L164.73 16.3377L159.23 21.8277L164.47 27.0677L169.96 21.5677L171.24 22.8577C172.119 23.7371 172.612 24.9295 172.612 26.1727C172.612 27.4159 172.119 28.6082 171.24 29.4877L164.72 36.0077L169.96 41.2377L176.48 34.7277C178.741 32.4547 180.011 29.3789 180.011 26.1727C180.011 22.9665 178.741 19.8907 176.48 17.6177L169.96 11.0977L168.54 12.4677Z" fill="#0087C7"/>
<path d="M33.4 48.0177C31.31 49.0177 27.12 50.1077 21.76 50.1077C9.34001 50.1077 0 42.2677 0 27.8177C0 14.0277 9.34 4.67773 23 4.67773C28.49 4.67773 32 5.84773 33.45 6.67773L32.08 11.3177C29.2888 10.0566 26.2523 9.43155 23.19 9.48773C12.86 9.48773 6 16.0877 6 27.6577C6 38.4477 12.21 45.3777 22.93 45.3777C26.1172 45.4231 29.2786 44.7997 32.21 43.5477L33.4 48.0177Z" fill="#0087C7"/>
</svg>
