<?xml version="1.0" standalone="no"?><!DOCTYPE svg PUBLIC "-//W3C//DTD SVG 1.1//EN" "http://www.w3.org/Graphics/SVG/1.1/DTD/svg11.dtd"><svg class="icon" width="200px" height="31.29px" viewBox="0 0 6546 1024" version="1.1" xmlns="http://www.w3.org/2000/svg"><path d="M756.955429 946.578286h112.128V37.266286h-112.128zM1325.202286 859.794286c-66.267429 0-122.185143-23.369143-166.070857-69.449143-43.958857-46.153143-66.230857-103.204571-66.230858-169.472 0-66.304 23.076571-124.342857 68.681143-172.470857 45.494857-48.091429 100.315429-72.411429 163.035429-72.411429 62.683429 0 117.76 24.32 163.693714 72.411429 45.933714 48.164571 69.266286 105.984 69.266286 171.885714 0 65.828571-22.893714 122.88-68.022857 169.472-45.092571 46.445714-100.388571 70.034286-164.352 70.034286m0-594.505143c-96.438857 0-179.2 34.889143-246.125715 103.570286-66.852571 68.717714-100.754286 152.32-100.754285 248.429714 0 96.146286 33.682286 179.529143 100.169143 247.808 66.377143 68.352 149.394286 102.985143 246.710857 102.985143 97.28 0 180.114286-34.633143 246.162285-103.021715 66.048-68.242286 99.510857-151.625143 99.510858-247.771428 0-96.146286-33.901714-179.748571-100.717715-248.429714-66.925714-68.681143-149.284571-103.570286-244.955428-103.570286M2255.250286 530.139429c0 84.955429-3.766857 142.189714-11.154286 170.130285a218.916571 218.916571 0 0 1-40.009143 78.665143 209.92 209.92 0 0 1-69.485714 57.782857 179.456 179.456 0 0 1-82.395429 20.699429c-28.086857 0-52.114286-4.205714-71.424-12.544a114.102857 114.102857 0 0 1-47.396571-37.705143c-12.580571-17.115429-22.308571-38.4-28.781714-63.305143-6.582857-25.124571-9.947429-73.728-9.947429-144.457143V281.965714h-112.128v341.284572c0 88.941714 9.874286 156.013714 29.330286 199.241143a233.216 233.216 0 0 0 88.795428 103.314285c39.241143 24.868571 83.565714 37.522286 131.803429 37.522286 84.699429 0 159.561143-34.742857 222.793143-103.131429v86.381715h113.298285V282.002286h-113.298285v248.137143zM3914.093714 374.747429c53.211429 0 100.937143 15.213714 141.824 45.202285 38.509714 28.269714 64.329143 67.803429 76.726857 117.504h-431.542857c36.864-109.458286 106.642286-162.706286 212.992-162.706285z m344.466286 256.731428c-2.413714-112.749714-36.534857-202.934857-101.339429-267.995428-64.914286-65.170286-146.724571-98.194286-243.126857-98.194286-96.438857 0-178.505143 34.889143-243.858285 103.643428-65.170286 68.681143-98.230857 152.246857-98.230858 248.356572 0 96.146286 32.841143 179.492571 97.645715 247.734857 64.914286 68.388571 148.333714 103.058286 248.027428 103.058286 72.045714 0 134.912-17.005714 186.88-50.688 51.858286-33.499429 97.28-85.942857 135.168-155.940572l3.401143-6.253714-96.219428-49.371429-3.218286 6.034286c-53.467429 99.766857-131.986286 150.308571-233.216 150.308572-59.245714 0-110.957714-21.211429-153.6-63.049143-41.325714-40.411429-64.804571-94.390857-69.851429-160.548572h571.684572l-0.146286-7.094857zM4936.448 406.125714a233.216 233.216 0 0 0-88.758857-103.350857c-39.277714-24.868571-83.602286-37.485714-131.84-37.485714-84.736 0-159.597714 34.706286-222.72 103.131428V282.002286h-113.371429v664.576h113.371429v-248.100572c0-85.065143 3.730286-142.262857 11.117714-170.130285 7.241143-27.574857 20.699429-53.979429 40.009143-78.665143a208.713143 208.713143 0 0 1 69.485714-57.782857 178.834286 178.834286 0 0 1 82.395429-20.699429c27.940571 0 51.931429 4.205714 71.424 12.507429 19.126857 8.301714 35.108571 21.028571 47.396571 37.741714 12.507429 17.078857 22.198857 38.4 28.781715 63.305143 6.582857 25.161143 9.910857 73.764571 9.910857 144.457143v317.366857h112.164571v-341.211429c0-88.978286-9.874286-155.977143-29.366857-199.241143M5672.521143 750.153143c-60.525714 74.349714-135.972571 112.054857-224.329143 112.054857-73.435429 0-134.948571-24.612571-182.857143-73.142857S5193.142857 681.545143 5193.142857 613.668571c0-67.657143 24.649143-125.220571 73.179429-171.008 48.713143-45.897143 109.897143-69.12 181.869714-69.12 91.428571 0 166.473143 37.266286 223.049143 110.701715l3.84 5.046857 89.014857-55.990857-3.547429-5.851429c-30.829714-51.017143-74.24-91.282286-129.024-119.625143-54.601143-28.233143-115.090286-42.569143-179.712-42.569143-109.129143 0-199.387429 35.035429-268.251428 104.155429-68.827429 69.046857-103.753143 153.234286-103.753143 250.221714 0 97.060571 34.742857 180.297143 103.241143 247.369143 68.425143 67.035429 154.843429 101.046857 256.804571 101.046857 65.316571 0 126.902857-13.494857 183.113143-40.082285a341.650286 341.650286 0 0 0 137.362286-116.992l3.949714-5.705143-87.661714-60.123429-4.096 4.973714zM3042.889143 841.874286a91.136 91.136 0 0 1-128.512 0l-272.786286-272.091429a90.587429 90.587429 0 0 1 0-128.219428l126.281143-125.952-101.376-101.12L2540.251429 340.48a233.508571 233.508571 0 0 0 0 330.422857l272.822857 272.128c91.282286 91.099429 239.908571 91.099429 331.190857 0l126.281143-125.952-101.376-101.12-126.281143 125.988572z" fill="#51459E" /><path d="M2914.377143 169.435429a91.099429 91.099429 0 0 1 128.512 0l126.281143 125.952 101.376-101.12-126.281143-125.952c-91.318857-91.062857-239.908571-91.062857-331.227429 0l-126.281143 125.952 101.376 101.12 126.281143-125.952z" fill="#FF7C00" /><path d="M3264.292571 240.969143L3189.467429 315.611429l-106.422858 106.166857 101.376 101.12 106.386286-106.166857 24.868572 24.832c35.474286 35.364571 35.437714 92.891429 0 128.219428l-126.244572 125.915429 101.376 101.12 126.244572-125.952a233.508571 233.508571 0 0 0 0-330.422857l-126.244572-125.952-26.514286 26.477714z" fill="#FFC223" /><path d="M646.948571 927.670857c-40.521143 20.224-121.526857 40.411429-225.389714 40.411429C181.028571 968.082286 0 816.530286 0 537.417143 0 270.994286 181.028571 90.331429 445.622857 90.331429c106.349714 0 173.458286 22.747429 202.605714 37.888l-26.624 89.673142c-41.764571-20.187429-101.302857-35.364571-172.178285-35.364571-200.045714 0-332.982857 127.561143-332.982857 351.085714 0 208.457143 120.32 342.308571 327.936 342.308572 67.072 0 135.460571-13.897143 179.748571-35.401143l22.820571 87.149714zM6196.150857 374.747429c53.211429 0 100.937143 15.213714 141.824 45.202285 38.509714 28.269714 64.329143 67.803429 76.726857 117.504h-431.542857c36.864-109.458286 106.605714-162.706286 212.992-162.706285z m229.595429 337.115428c-53.504 99.766857-131.949714 150.308571-233.216 150.308572-59.209143 0-110.957714-21.211429-153.6-63.049143-41.325714-40.411429-64.804571-94.390857-69.851429-160.548572h571.684572l-0.146286-7.094857c-2.413714-112.749714-36.534857-202.934857-101.376-267.995428-64.914286-65.170286-146.651429-98.194286-243.090286-98.194286-96.438857 0-178.541714 34.889143-243.858286 103.643428-65.170286 68.681143-98.230857 152.246857-98.230857 248.356572 0 96.146286 32.841143 179.492571 97.645715 247.734857 64.877714 68.388571 148.333714 103.058286 248.027428 103.058286 72.045714 0 134.875429-17.005714 186.88-50.688 51.858286-33.499429 97.316571-85.942857 135.168-155.940572l3.401143-6.253714-96.182857-49.371429-3.291429 6.034286z" fill="#51459E" /></svg>