<svg width="1728" height="465" viewBox="0 0 1728 465" fill="none" xmlns="http://www.w3.org/2000/svg">
<g clip-path="url(#clip0_19692_8615)">
<path d="M416.419 96.382L414.915 96.3896L415.734 258.388L417.238 258.38L416.419 96.382Z" fill="url(#paint0_linear_19692_8615)"/>
<path d="M431.504 96.382L430 96.3896L430.819 258.388L432.324 258.38L431.504 96.382Z" fill="url(#paint1_linear_19692_8615)"/>
<path d="M1201.75 251.496L1201.08 251.499L1202.08 465.682L1202.76 465.679L1201.75 251.496Z" fill="url(#paint2_linear_19692_8615)"/>
<path d="M1538.77 381.533L1538.33 381.535L1538.45 404.635L1538.88 404.632L1538.77 381.533Z" fill="url(#paint3_linear_19692_8615)"/>
<path d="M1227.05 316.043L1226.61 316.045L1227.38 456.76L1227.81 456.758L1227.05 316.043Z" fill="url(#paint4_linear_19692_8615)"/>
<path d="M637.112 318.67L635.885 318.675L636.262 408.764L637.489 408.759L637.112 318.67Z" fill="url(#paint5_linear_19692_8615)"/>
<path d="M1269.79 113.685L1268.17 113.692L1268.78 254.621L1270.4 254.613L1269.79 113.685Z" fill="url(#paint6_linear_19692_8615)"/>
<path d="M760.346 348L759 348.006L759.232 403.385L760.578 403.38L760.346 348Z" fill="url(#paint7_linear_19692_8615)"/>
<path d="M681.016 174.917L679.987 174.921L680.942 402.989L681.971 402.985L681.016 174.917Z" fill="url(#paint8_linear_19692_8615)"/>
<path d="M1489.51 330.198L1488.4 330.203L1488.7 397.952L1489.81 397.947L1489.51 330.198Z" fill="url(#paint9_linear_19692_8615)"/>
<path d="M1277.59 156.881L1276.08 156.888L1277.28 422.205L1278.79 422.199L1277.59 156.881Z" fill="url(#paint10_linear_19692_8615)"/>
<path d="M264.222 430.56L263.509 430.563L264.519 662.054L265.231 662.051L264.222 430.56Z" fill="url(#paint11_linear_19692_8615)"/>
<path d="M986.752 356L986 356.004L987.142 598.544L987.894 598.54L986.752 356Z" fill="url(#paint12_linear_19692_8615)"/>
<path d="M1001.77 550.72H1001.29L1000.58 399.785H1001.06L1001.77 550.72Z" fill="url(#paint13_linear_19692_8615)"/>
<path d="M720.658 316.482L719.471 316.487L719.89 405.546L721.078 405.541L720.658 316.482Z" fill="url(#paint14_linear_19692_8615)"/>
<path d="M688.189 161.971L687.081 161.977L687.882 315.195L688.991 315.189L688.189 161.971Z" fill="url(#paint15_linear_19692_8615)"/>
<path d="M402.705 156.247L401.558 156.251L402.466 373.35L403.614 373.345L402.705 156.247Z" fill="url(#paint16_linear_19692_8615)"/>
<path d="M1659.8 424.815H1659.21L1658.34 238.274H1658.89L1659.8 424.815Z" fill="url(#paint17_linear_19692_8615)"/>
<path d="M776.381 505.927L775.866 505.967L775.075 339.427H775.589L776.381 505.927Z" fill="url(#paint18_linear_19692_8615)"/>
<path d="M315.583 379.61H314.95L314 290.018L314.633 290L315.583 379.61Z" fill="url(#paint19_linear_19692_8615)"/>
<path d="M233.019 228.778L232.425 228.78L233.064 421.657L233.658 421.655L233.019 228.778Z" fill="url(#paint20_linear_19692_8615)"/>
<path d="M823.887 242.092L822.422 242.099L823.036 382.767L824.5 382.761L823.887 242.092Z" fill="url(#paint21_linear_19692_8615)"/>
<path d="M278 381H277.6L277 331H277.4L278 381Z" fill="url(#paint22_linear_19692_8615)"/>
<path d="M489.097 327.691L488.583 327.693L489.362 493.162L489.877 493.16L489.097 327.691Z" fill="url(#paint23_linear_19692_8615)"/>
<path d="M786.546 276.644L786.031 276.646L786.272 336.646L786.787 336.643L786.546 276.644Z" fill="url(#paint24_linear_19692_8615)"/>
<path d="M617.112 82.2227L615.41 82.2305L616.299 278.248L618.001 278.241L617.112 82.2227Z" fill="url(#paint25_linear_19692_8615)"/>
<path d="M606.148 236.003L605 236.009L605.466 322.178L606.614 322.172L606.148 236.003Z" fill="url(#paint26_linear_19692_8615)"/>
<path d="M346.65 323.514L345.185 323.521L345.601 415.14L347.065 415.133L346.65 323.514Z" fill="url(#paint27_linear_19692_8615)"/>
<path d="M261.412 346.506L260.739 346.509L261.144 423.858L261.817 423.855L261.412 346.506Z" fill="url(#paint28_linear_19692_8615)"/>
<path d="M911.953 426.769L911.438 426.771L912.197 587.963L912.712 587.96L911.953 426.769Z" fill="url(#paint29_linear_19692_8615)"/>
<path d="M1352.98 84.2779L1351.59 84.2847L1353.07 385.861L1354.45 385.854L1352.98 84.2779Z" fill="url(#paint30_linear_19692_8615)"/>
<path d="M1640.04 215.621L1639.33 215.625L1640.06 360.503L1640.77 360.499L1640.04 215.621Z" fill="url(#paint31_linear_19692_8615)"/>
<path d="M1022.75 429.661L1021.28 429.668L1023.6 903.936L1025.06 903.929L1022.75 429.661Z" fill="url(#paint32_linear_19692_8615)"/>
<path d="M1100.75 361.718L1100.27 361.721L1101.04 518.041L1101.51 518.039L1100.75 361.718Z" fill="url(#paint33_linear_19692_8615)"/>
</g>
<defs>
<linearGradient id="paint0_linear_19692_8615" x1="416.699" y1="258.426" x2="415.879" y2="94.6269" gradientUnits="userSpaceOnUse">
<stop stop-color="#60FFFF" stop-opacity="0"/>
<stop offset="0.471154" stop-color="#5AFFFF" stop-opacity="0.628205"/>
<stop offset="0.75" stop-color="#56FFFF"/>
<stop offset="1" stop-color="#5CFFFF"/>
</linearGradient>
<linearGradient id="paint1_linear_19692_8615" x1="431.785" y1="258.426" x2="430.965" y2="94.6269" gradientUnits="userSpaceOnUse">
<stop stop-color="#60FFFF" stop-opacity="0"/>
<stop offset="0.471154" stop-color="#5AFFFF" stop-opacity="0.628205"/>
<stop offset="0.75" stop-color="#56FFFF"/>
<stop offset="1" stop-color="#5CFFFF"/>
</linearGradient>
<linearGradient id="paint2_linear_19692_8615" x1="1202.52" y1="465.738" x2="1201.53" y2="249.173" gradientUnits="userSpaceOnUse">
<stop stop-color="#60FFFF" stop-opacity="0"/>
<stop offset="0.471154" stop-color="#5AFFFF" stop-opacity="0.628205"/>
<stop offset="0.75" stop-color="#56FFFF"/>
<stop offset="1" stop-color="#5CFFFF"/>
</linearGradient>
<linearGradient id="paint3_linear_19692_8615" x1="1538.73" y1="404.639" x2="1538.59" y2="381.283" gradientUnits="userSpaceOnUse">
<stop stop-color="#60FFFF" stop-opacity="0"/>
<stop offset="0.471154" stop-color="#5AFFFF" stop-opacity="0.628205"/>
<stop offset="0.75" stop-color="#56FFFF"/>
<stop offset="1" stop-color="#5CFFFF"/>
</linearGradient>
<linearGradient id="paint4_linear_19692_8615" x1="1227.66" y1="456.797" x2="1226.91" y2="314.516" gradientUnits="userSpaceOnUse">
<stop stop-color="#60FFFF" stop-opacity="0"/>
<stop offset="0.471154" stop-color="#5AFFFF" stop-opacity="0.628205"/>
<stop offset="0.75" stop-color="#56FFFF"/>
<stop offset="1" stop-color="#5CFFFF"/>
</linearGradient>
<linearGradient id="paint5_linear_19692_8615" x1="637.05" y1="408.785" x2="636.672" y2="317.694" gradientUnits="userSpaceOnUse">
<stop stop-color="#60FFFF" stop-opacity="0"/>
<stop offset="0.471154" stop-color="#5AFFFF" stop-opacity="0.628205"/>
<stop offset="0.75" stop-color="#56FFFF"/>
<stop offset="1" stop-color="#5CFFFF"/>
</linearGradient>
<linearGradient id="paint6_linear_19692_8615" x1="1269.82" y1="254.654" x2="1269.21" y2="112.158" gradientUnits="userSpaceOnUse">
<stop stop-color="#60FFFF" stop-opacity="0"/>
<stop offset="0.471154" stop-color="#5AFFFF" stop-opacity="0.628205"/>
<stop offset="0.75" stop-color="#56FFFF"/>
<stop offset="1" stop-color="#5CFFFF"/>
</linearGradient>
<linearGradient id="paint7_linear_19692_8615" x1="760.095" y1="403.397" x2="759.862" y2="347.401" gradientUnits="userSpaceOnUse">
<stop stop-color="#60FFFF" stop-opacity="0"/>
<stop offset="0.471154" stop-color="#5AFFFF" stop-opacity="0.628205"/>
<stop offset="0.75" stop-color="#56FFFF"/>
<stop offset="1" stop-color="#5CFFFF"/>
</linearGradient>
<linearGradient id="paint8_linear_19692_8615" x1="681.603" y1="403.048" x2="680.664" y2="172.443" gradientUnits="userSpaceOnUse">
<stop stop-color="#60FFFF" stop-opacity="0"/>
<stop offset="0.471154" stop-color="#5AFFFF" stop-opacity="0.628205"/>
<stop offset="0.75" stop-color="#56FFFF"/>
<stop offset="1" stop-color="#5CFFFF"/>
</linearGradient>
<linearGradient id="paint9_linear_19692_8615" x1="1489.41" y1="397.967" x2="1489.11" y2="329.464" gradientUnits="userSpaceOnUse">
<stop stop-color="#60FFFF" stop-opacity="0"/>
<stop offset="0.471154" stop-color="#5AFFFF" stop-opacity="0.628205"/>
<stop offset="0.75" stop-color="#56FFFF"/>
<stop offset="1" stop-color="#5CFFFF"/>
</linearGradient>
<linearGradient id="paint10_linear_19692_8615" x1="1278.25" y1="422.273" x2="1277.06" y2="154.005" gradientUnits="userSpaceOnUse">
<stop stop-color="#60FFFF" stop-opacity="0"/>
<stop offset="0.471154" stop-color="#5AFFFF" stop-opacity="0.628205"/>
<stop offset="0.75" stop-color="#56FFFF"/>
<stop offset="1" stop-color="#5CFFFF"/>
</linearGradient>
<linearGradient id="paint11_linear_19692_8615" x1="264.976" y1="662.114" x2="263.995" y2="428.049" gradientUnits="userSpaceOnUse">
<stop stop-color="#60FFFF" stop-opacity="0"/>
<stop offset="0.471154" stop-color="#5AFFFF" stop-opacity="0.628205"/>
<stop offset="0.75" stop-color="#56FFFF"/>
<stop offset="1" stop-color="#5CFFFF"/>
</linearGradient>
<linearGradient id="paint12_linear_19692_8615" x1="987.625" y1="598.607" x2="986.511" y2="353.37" gradientUnits="userSpaceOnUse">
<stop stop-color="#60FFFF" stop-opacity="0"/>
<stop offset="0.471154" stop-color="#5AFFFF" stop-opacity="0.628205"/>
<stop offset="0.75" stop-color="#56FFFF"/>
<stop offset="1" stop-color="#5CFFFF"/>
</linearGradient>
<linearGradient id="paint13_linear_19692_8615" x1="1001.34" y1="550.761" x2="1001.35" y2="398.147" gradientUnits="userSpaceOnUse">
<stop stop-color="#60FFFF" stop-opacity="0"/>
<stop offset="0.471154" stop-color="#5AFFFF" stop-opacity="0.628205"/>
<stop offset="0.75" stop-color="#56FFFF"/>
<stop offset="1" stop-color="#5CFFFF"/>
</linearGradient>
<linearGradient id="paint14_linear_19692_8615" x1="720.652" y1="405.567" x2="720.231" y2="315.517" gradientUnits="userSpaceOnUse">
<stop stop-color="#60FFFF" stop-opacity="0"/>
<stop offset="0.471154" stop-color="#5AFFFF" stop-opacity="0.628205"/>
<stop offset="0.75" stop-color="#56FFFF"/>
<stop offset="1" stop-color="#5CFFFF"/>
</linearGradient>
<linearGradient id="paint15_linear_19692_8615" x1="688.594" y1="315.233" x2="687.794" y2="160.311" gradientUnits="userSpaceOnUse">
<stop stop-color="#60FFFF" stop-opacity="0"/>
<stop offset="0.471154" stop-color="#5AFFFF" stop-opacity="0.628205"/>
<stop offset="0.75" stop-color="#56FFFF"/>
<stop offset="1" stop-color="#5CFFFF"/>
</linearGradient>
<linearGradient id="paint16_linear_19692_8615" x1="403.203" y1="373.405" x2="402.306" y2="153.893" gradientUnits="userSpaceOnUse">
<stop stop-color="#60FFFF" stop-opacity="0"/>
<stop offset="0.471154" stop-color="#5AFFFF" stop-opacity="0.628205"/>
<stop offset="0.75" stop-color="#56FFFF"/>
<stop offset="1" stop-color="#5CFFFF"/>
</linearGradient>
<linearGradient id="paint17_linear_19692_8615" x1="1659.28" y1="424.866" x2="1659.29" y2="236.25" gradientUnits="userSpaceOnUse">
<stop stop-color="#60FFFF" stop-opacity="0"/>
<stop offset="0.471154" stop-color="#5AFFFF" stop-opacity="0.628205"/>
<stop offset="0.75" stop-color="#56FFFF"/>
<stop offset="1" stop-color="#5CFFFF"/>
</linearGradient>
<linearGradient id="paint18_linear_19692_8615" x1="775.913" y1="506.012" x2="775.924" y2="337.62" gradientUnits="userSpaceOnUse">
<stop stop-color="#60FFFF" stop-opacity="0"/>
<stop offset="0.471154" stop-color="#5AFFFF" stop-opacity="0.628205"/>
<stop offset="0.75" stop-color="#56FFFF"/>
<stop offset="1" stop-color="#5CFFFF"/>
</linearGradient>
<linearGradient id="paint19_linear_19692_8615" x1="315.016" y1="379.634" x2="315.019" y2="289.028" gradientUnits="userSpaceOnUse">
<stop stop-color="#60FFFF" stop-opacity="0"/>
<stop offset="0.471154" stop-color="#5AFFFF" stop-opacity="0.628205"/>
<stop offset="0.75" stop-color="#56FFFF"/>
<stop offset="1" stop-color="#5CFFFF"/>
</linearGradient>
<linearGradient id="paint20_linear_19692_8615" x1="233.445" y1="421.708" x2="232.832" y2="226.686" gradientUnits="userSpaceOnUse">
<stop stop-color="#60FFFF" stop-opacity="0"/>
<stop offset="0.471154" stop-color="#5AFFFF" stop-opacity="0.628205"/>
<stop offset="0.75" stop-color="#56FFFF"/>
<stop offset="1" stop-color="#5CFFFF"/>
</linearGradient>
<linearGradient id="paint21_linear_19692_8615" x1="823.976" y1="382.801" x2="823.362" y2="240.568" gradientUnits="userSpaceOnUse">
<stop stop-color="#60FFFF" stop-opacity="0"/>
<stop offset="0.471154" stop-color="#5AFFFF" stop-opacity="0.628205"/>
<stop offset="0.75" stop-color="#56FFFF"/>
<stop offset="1" stop-color="#5CFFFF"/>
</linearGradient>
<linearGradient id="paint22_linear_19692_8615" x1="277.642" y1="381.013" x2="277.643" y2="330.457" gradientUnits="userSpaceOnUse">
<stop stop-color="#60FFFF" stop-opacity="0"/>
<stop offset="0.471154" stop-color="#5AFFFF" stop-opacity="0.628205"/>
<stop offset="0.75" stop-color="#56FFFF"/>
<stop offset="1" stop-color="#5CFFFF"/>
</linearGradient>
<linearGradient id="paint23_linear_19692_8615" x1="489.692" y1="493.205" x2="488.933" y2="325.896" gradientUnits="userSpaceOnUse">
<stop stop-color="#60FFFF" stop-opacity="0"/>
<stop offset="0.471154" stop-color="#5AFFFF" stop-opacity="0.628205"/>
<stop offset="0.75" stop-color="#56FFFF"/>
<stop offset="1" stop-color="#5CFFFF"/>
</linearGradient>
<linearGradient id="paint24_linear_19692_8615" x1="786.602" y1="336.66" x2="786.362" y2="275.994" gradientUnits="userSpaceOnUse">
<stop stop-color="#60FFFF" stop-opacity="0"/>
<stop offset="0.471154" stop-color="#5AFFFF" stop-opacity="0.628205"/>
<stop offset="0.75" stop-color="#56FFFF"/>
<stop offset="1" stop-color="#5CFFFF"/>
</linearGradient>
<linearGradient id="paint25_linear_19692_8615" x1="617.391" y1="278.296" x2="616.503" y2="80.0985" gradientUnits="userSpaceOnUse">
<stop stop-color="#60FFFF" stop-opacity="0"/>
<stop offset="0.471154" stop-color="#5AFFFF" stop-opacity="0.628205"/>
<stop offset="0.75" stop-color="#56FFFF"/>
<stop offset="1" stop-color="#5CFFFF"/>
</linearGradient>
<linearGradient id="paint26_linear_19692_8615" x1="606.202" y1="322.197" x2="605.734" y2="235.07" gradientUnits="userSpaceOnUse">
<stop stop-color="#60FFFF" stop-opacity="0"/>
<stop offset="0.471154" stop-color="#5AFFFF" stop-opacity="0.628205"/>
<stop offset="0.75" stop-color="#56FFFF"/>
<stop offset="1" stop-color="#5CFFFF"/>
</linearGradient>
<linearGradient id="paint27_linear_19692_8615" x1="346.54" y1="415.161" x2="346.123" y2="322.523" gradientUnits="userSpaceOnUse">
<stop stop-color="#60FFFF" stop-opacity="0"/>
<stop offset="0.471154" stop-color="#5AFFFF" stop-opacity="0.628205"/>
<stop offset="0.75" stop-color="#56FFFF"/>
<stop offset="1" stop-color="#5CFFFF"/>
</linearGradient>
<linearGradient id="paint28_linear_19692_8615" x1="261.576" y1="423.877" x2="261.171" y2="345.668" gradientUnits="userSpaceOnUse">
<stop stop-color="#60FFFF" stop-opacity="0"/>
<stop offset="0.471154" stop-color="#5AFFFF" stop-opacity="0.628205"/>
<stop offset="0.75" stop-color="#56FFFF"/>
<stop offset="1" stop-color="#5CFFFF"/>
</linearGradient>
<linearGradient id="paint29_linear_19692_8615" x1="912.528" y1="588.005" x2="911.787" y2="425.02" gradientUnits="userSpaceOnUse">
<stop stop-color="#60FFFF" stop-opacity="0"/>
<stop offset="0.471154" stop-color="#5AFFFF" stop-opacity="0.628205"/>
<stop offset="0.75" stop-color="#56FFFF"/>
<stop offset="1" stop-color="#5CFFFF"/>
</linearGradient>
<linearGradient id="paint30_linear_19692_8615" x1="1353.96" y1="385.938" x2="1352.5" y2="81.0078" gradientUnits="userSpaceOnUse">
<stop stop-color="#60FFFF" stop-opacity="0"/>
<stop offset="0.471154" stop-color="#5AFFFF" stop-opacity="0.628205"/>
<stop offset="0.75" stop-color="#56FFFF"/>
<stop offset="1" stop-color="#5CFFFF"/>
</linearGradient>
<linearGradient id="paint31_linear_19692_8615" x1="1640.52" y1="360.539" x2="1639.79" y2="214.05" gradientUnits="userSpaceOnUse">
<stop stop-color="#60FFFF" stop-opacity="0"/>
<stop offset="0.471154" stop-color="#5AFFFF" stop-opacity="0.628205"/>
<stop offset="0.75" stop-color="#56FFFF"/>
<stop offset="1" stop-color="#5CFFFF"/>
</linearGradient>
<linearGradient id="paint32_linear_19692_8615" x1="1024.54" y1="904.059" x2="1022.28" y2="424.517" gradientUnits="userSpaceOnUse">
<stop stop-color="#60FFFF" stop-opacity="0"/>
<stop offset="0.471154" stop-color="#5AFFFF" stop-opacity="0.628205"/>
<stop offset="0.75" stop-color="#56FFFF"/>
<stop offset="1" stop-color="#5CFFFF"/>
</linearGradient>
<linearGradient id="paint33_linear_19692_8615" x1="1101.34" y1="518.082" x2="1100.6" y2="360.023" gradientUnits="userSpaceOnUse">
<stop stop-color="#60FFFF" stop-opacity="0"/>
<stop offset="0.471154" stop-color="#5AFFFF" stop-opacity="0.628205"/>
<stop offset="0.75" stop-color="#56FFFF"/>
<stop offset="1" stop-color="#5CFFFF"/>
</linearGradient>
<clipPath id="clip0_19692_8615">
<rect width="2473" height="1689" fill="white" transform="translate(-251 -903)"/>
</clipPath>
</defs>
</svg>
