<svg t="1767062036292" class="icon" viewBox="0 0 1026 1024" version="1.1" xmlns="http://www.w3.org/2000/svg" p-id="4984" width="200" height="200"><path d="M513.022 2.044C231.269 2.044 2.044 231.273 2.044 513.022S231.269 1024 513.022 1024 1024 794.771 1024 513.022 794.775 2.044 513.022 2.044z m444.367 559.474c-0.061 0.443-0.164 0.87-0.204 1.314q-2.698 23.35-7.645 45.988v0.012H795.41a915.323 915.323 0 0 0 0-191.616H949.54v0.012q4.936 22.612 7.645 45.988c0.04 0.443 0.143 0.87 0.204 1.314a430.722 430.722 0 0 1 0 96.988z m-273.7 364.579c47.93-62.096 84.25-149.921 102.808-253.4h143.647a0.029 0.029 0 0 1-0.02 0.022 449.078 449.078 0 0 1-246.435 253.378z m246.434-572.784a0.03 0.03 0 0 1 0.02 0.016H786.498C767.94 249.85 731.618 162.02 683.69 99.93a449.076 449.076 0 0 1 246.434 253.39z m-199.118 63.894a825.322 825.322 0 0 1 0 191.617H544.948V417.207h186.057z m-186.057-63.872V71.25c79.61 24 146.957 135.26 176.062 282.092H544.948z m0 319.361H721.01C691.905 819.53 624.558 930.787 544.948 954.79V672.703z m-449.027 0.023a0.029 0.029 0 0 0-0.02-0.016h143.646c18.558 103.479 54.879 191.31 102.808 253.4A449.078 449.078 0 0 1 95.921 672.725zM342.355 99.947c-47.93 62.096-84.25 149.921-102.808 253.4H95.9a0.045 0.045 0 0 0 0.02-0.022A449.076 449.076 0 0 1 342.356 99.947z m-47.316 508.89a825.322 825.322 0 0 1 0-191.617h186.037v191.616H295.039z m186.037 63.872v282.086c-79.59-24.001-146.937-135.26-176.043-282.092h176.043z m0-319.362H305.033c29.106-146.832 96.453-258.09 176.043-282.092V353.34z m-412.4 111.16c0.04-0.386 0.122-0.762 0.163-1.152a463.82 463.82 0 0 1 7.665-46.13v-0.011h154.131a911.638 911.638 0 0 0 0 191.616H76.504v-0.012a463.82 463.82 0 0 1-7.665-46.129c-0.04-0.39-0.123-0.762-0.164-1.153a427.875 427.875 0 0 1 0-97.028z" p-id="4985"></path></svg>