<svg width="200" height="200" viewBox="0 0 200 200" fill="none" xmlns="http://www.w3.org/2000/svg">
<path fill-rule="evenodd" clip-rule="evenodd" d="M63.371 22.1231C70.7985 19.2841 78.8595 18.4779 86.707 19.7866C94.0254 21.0076 100.901 24.0441 106.735 28.5772C114.588 27.5052 122.593 29.1237 129.417 33.193C135.897 37.0573 140.915 42.8983 143.759 49.8074C147.51 49.6071 151.276 50.0199 154.902 51.0437C159.42 52.3195 163.626 54.5118 167.253 57.4787C170.88 60.4453 173.854 64.1256 175.985 68.2872C178.115 72.4495 179.359 77.0068 179.637 81.6691C179.644 81.773 179.641 81.8783 179.637 81.9823C179.427 88.2287 177.408 94.2852 173.816 99.4136C170.67 103.906 166.435 107.519 161.523 109.933V142.579L161.463 143.748C161.347 144.909 161.065 146.053 160.614 147.135C160.013 148.578 159.128 149.887 158.018 150.991C156.907 152.096 155.59 152.978 154.138 153.576C152.687 154.174 151.129 154.48 149.558 154.48H121.411C121.518 154.782 121.615 155.088 121.693 155.4L125.113 169C125.491 170.504 125.521 172.081 125.198 173.597C124.874 175.111 124.206 176.532 123.248 177.753C122.29 178.973 121.063 179.962 119.664 180.642C118.614 181.152 117.482 181.48 116.327 181.611L115.163 181.677H84.8178C83.2599 181.677 81.7194 181.321 80.3193 180.642C78.9201 179.962 77.6908 178.973 76.7325 177.753C75.7751 176.532 75.1063 175.111 74.783 173.597C74.4597 172.081 74.4927 170.504 74.8706 169L78.2904 155.4C78.3691 155.088 78.4652 154.782 78.5724 154.48H50.4258C47.2526 154.48 44.2091 153.223 41.9654 150.991C39.7221 148.76 38.4609 145.735 38.4607 142.579V110.587C33.7226 108.424 29.5901 105.11 26.4573 100.933C22.8413 96.112 20.7157 90.3486 20.3297 84.346C19.944 78.3433 21.3194 72.3589 24.2888 67.1189C26.9739 62.3815 30.861 58.4459 35.5447 55.6787C36.838 48.471 39.8839 41.6792 44.4706 35.9299C49.4165 29.7309 55.9444 24.9627 63.371 22.1231ZM87.6708 154.523C87.1141 154.617 86.5846 154.847 86.1348 155.196C85.5342 155.663 85.1041 156.318 84.9191 157.053L81.4993 170.653C81.3739 171.153 81.3675 171.677 81.4747 172.181C81.5823 172.686 81.802 173.163 82.1209 173.57C82.4399 173.976 82.8517 174.304 83.3174 174.531C83.7839 174.757 84.2987 174.877 84.8178 174.877H115.163C115.682 174.877 116.195 174.757 116.661 174.531C117.127 174.305 117.541 173.976 117.86 173.57C118.179 173.163 118.401 172.686 118.509 172.181C118.616 171.677 118.607 171.153 118.481 170.653L115.064 157.053C114.88 156.318 114.449 155.663 113.849 155.196C113.399 154.847 112.869 154.617 112.313 154.523L111.779 154.48H88.2047L87.6708 154.523ZM45.2975 142.579C45.2976 143.932 45.8392 145.229 46.8007 146.185C47.7622 147.141 49.0662 147.68 50.4258 147.68H88.1718C88.1937 147.68 88.2157 147.677 88.2375 147.677H111.746L111.817 147.68H149.558C150.231 147.68 150.899 147.549 151.521 147.293C152.143 147.037 152.707 146.658 153.183 146.185C153.659 145.712 154.04 145.15 154.297 144.532C154.555 143.914 154.686 143.249 154.686 142.579V141.076H45.2975V142.579ZM85.579 26.4939C78.9363 25.3857 72.117 26.068 65.8298 28.4709C59.5424 30.8742 54.0132 34.9113 49.8262 40.159C45.6409 45.4058 42.9448 51.6725 42.0201 58.3066C41.8682 59.3968 41.1916 60.3496 40.2103 60.8582C36.0242 63.0288 32.5628 66.3624 30.244 70.4522C27.9245 74.5449 26.8433 79.2245 27.1446 83.913C27.4461 88.6014 29.1143 93.1046 31.9388 96.8701C33.7327 99.2613 35.9491 101.286 38.4607 102.864V84.779C38.4609 81.6235 39.7221 78.5984 41.9654 76.367C44.2091 74.1353 47.2526 72.8813 50.4258 72.8813H64.0993C65.9868 72.8818 67.5163 74.4025 67.5164 76.2798C67.5164 78.1573 65.9868 79.6806 64.0993 79.6812H50.4258C49.0663 79.6812 47.7622 80.2176 46.8007 81.1735C45.8392 82.1297 45.2977 83.4267 45.2975 84.779V134.276H154.686V84.779C154.686 84.1097 154.555 83.4448 154.297 82.8265C154.04 82.2083 153.659 81.6467 153.183 81.1735C152.707 80.7002 152.143 80.3213 151.521 80.0651C150.899 79.809 150.231 79.6812 149.558 79.6812H135.884C133.996 79.6809 132.467 78.1574 132.467 76.2798C132.467 74.4023 133.997 72.8815 135.884 72.8813H149.558C151.129 72.8813 152.687 73.1847 154.138 73.7827C155.59 74.3807 156.907 75.2621 158.018 76.367C159.128 77.4714 160.013 78.7804 160.614 80.2231C161.215 81.6666 161.523 83.2166 161.523 84.779V102.082C164.124 100.331 166.394 98.1147 168.206 95.5276C171.019 91.5117 172.605 86.7756 172.795 81.887C172.551 78.2229 171.566 74.6434 169.89 71.3699C168.186 68.042 165.806 65.1012 162.906 62.7291C160.006 60.3575 156.644 58.6048 153.032 57.5849C149.421 56.5656 145.636 56.2981 141.916 56.8006C140.272 57.0228 138.7 56.036 138.195 54.4641C136.12 48.0034 131.753 42.5113 125.904 39.0234C120.055 35.5354 113.123 34.2862 106.415 35.5105C105.412 35.6931 104.378 35.4249 103.598 34.7725C98.4431 30.4608 92.2213 27.6022 85.579 26.4939Z" fill="#0087C7"/>
<path d="M119.095 74.4259C120.543 73.6363 122.319 73.9972 123.347 75.202L123.742 75.7739L124.708 77.721C126.785 82.3349 127.522 87.4556 126.8 92.4891C125.974 98.2413 123.292 103.573 119.161 107.682C115.03 111.791 109.669 114.458 103.886 115.28C100.882 115.706 97.8483 115.616 94.9079 115.046L96.7752 119.264C97.536 120.982 96.7527 122.989 95.0256 123.746C93.2982 124.503 91.2801 123.724 90.5189 122.006L85.5111 110.705C84.9315 109.395 85.2534 107.919 86.2038 106.955C86.6509 106.47 87.222 106.134 87.8411 105.969L98.6315 101.242C100.358 100.488 102.37 101.273 103.13 102.99C103.89 104.708 103.108 106.713 101.38 107.47L98.585 108.69C100.022 108.795 101.474 108.75 102.917 108.545C107.236 107.932 111.243 105.944 114.328 102.875C117.414 99.8066 119.412 95.8214 120.029 91.525C120.568 87.7661 120.025 83.9416 118.474 80.496L117.746 79.0418L117.472 78.41C117.002 76.8998 117.648 75.2166 119.095 74.4259Z" fill="#0087C7"/>
<path d="M104.959 53.7458C106.47 53.0847 108.207 53.5979 109.126 54.8868L109.466 55.4914L114.465 66.7818C114.831 67.6067 114.853 68.5449 114.526 69.3852C114.352 69.829 114.086 70.2236 113.754 70.5535C113.309 71.0267 112.748 71.3538 112.138 71.5148L101.353 76.2423C99.626 76.9975 97.6073 76.2222 96.8464 74.5049C96.0854 72.7865 96.8764 70.7793 98.6042 70.0225L101.389 68.797C99.9544 68.6925 98.5051 68.7371 97.0654 68.9414C92.7467 69.5549 88.7466 71.5513 85.6616 74.6193C82.5767 77.6876 80.5699 81.6659 79.9529 85.9615C79.3364 90.2578 80.1376 94.6427 82.2364 98.4475C83.1435 100.093 82.5405 102.157 80.8866 103.061C79.2324 103.963 77.1547 103.365 76.2457 101.721C73.4348 96.6261 72.3648 90.7588 73.1901 85.0056C74.0157 79.2522 76.6945 73.9142 80.8263 69.8046C84.9575 65.6972 90.3189 63.0361 96.1016 62.215C99.1031 61.7891 102.136 61.8755 105.074 62.4437L103.209 58.2282L102.996 57.5773C102.659 56.0314 103.447 54.4085 104.959 53.7458Z" fill="#0087C7"/>
</svg>
