<svg width="200" height="200" viewBox="0 0 200 200" fill="none" xmlns="http://www.w3.org/2000/svg">
<path d="M27.4568 73.8843C28.2261 73.8845 28.9635 74.1918 29.5076 74.7358C30.0516 75.2798 30.3588 76.0172 30.359 76.7866V88.3954C30.3587 89.1646 30.0515 89.9023 29.5076 90.4462C28.9635 90.9901 28.226 91.2945 27.4568 91.2946C26.6872 91.2946 25.9471 90.9904 25.403 90.4462C24.8595 89.9024 24.5549 89.1643 24.5546 88.3954V76.7866C24.5548 76.0177 24.8595 75.2797 25.403 74.7358C25.9471 74.1916 26.6872 73.8843 27.4568 73.8843Z" fill="#0087C7"/>
<path d="M39.0626 73.8843C39.8322 73.8843 40.5723 74.1916 41.1165 74.7358C41.6601 75.2797 41.9646 76.0175 41.9648 76.7866V88.3954C41.9645 89.1644 41.6601 89.9024 41.1165 90.4462C40.5723 90.9904 39.8322 91.2946 39.0626 91.2946C38.2934 91.2943 37.5558 90.9901 37.0118 90.4462C36.4679 89.9023 36.1638 89.1646 36.1635 88.3954V76.7866C36.1637 76.0173 36.4679 75.2798 37.0118 74.7358C37.5558 74.1918 38.2934 73.8846 39.0626 73.8843Z" fill="#0087C7"/>
<path d="M50.6685 73.8843C51.438 73.8843 52.1781 74.1916 52.7223 74.7358C53.2659 75.2797 53.5705 76.0175 53.5707 76.7866V88.3954C53.5704 89.1644 53.2659 89.9024 52.7223 90.4462C52.1781 90.9904 51.438 91.2946 50.6685 91.2946C49.8993 91.2943 49.1616 90.9901 48.6177 90.4462C48.0738 89.9023 47.7696 89.1646 47.7693 88.3954V76.7866C47.7695 76.0173 48.0738 75.2798 48.6177 74.7358C49.1616 74.1918 49.8992 73.8846 50.6685 73.8843Z" fill="#0087C7"/>
<path d="M62.2773 73.8843C63.0469 73.8843 63.787 74.1916 64.3312 74.7358C64.8748 75.2797 65.1794 76.0175 65.1796 76.7866V88.3954C65.1792 89.1644 64.8748 89.9024 64.3312 90.4462C63.787 90.9904 63.0469 91.2946 62.2773 91.2946C61.5082 91.2943 60.7705 90.9901 60.2266 90.4462C59.6827 89.9023 59.3785 89.1646 59.3782 88.3954V76.7866C59.3784 76.0173 59.6826 75.2798 60.2266 74.7358C60.7705 74.1918 61.5081 73.8846 62.2773 73.8843Z" fill="#0087C7"/>
<path fill-rule="evenodd" clip-rule="evenodd" d="M77.9908 74.0522C79.6795 73.7163 81.4295 73.8907 83.0201 74.5496C84.6105 75.2084 85.9699 76.3228 86.9264 77.754C87.8829 79.1855 88.3943 80.8693 88.3943 82.591C88.3942 84.8994 87.4782 87.114 85.8461 88.7464C84.2139 90.3786 81.9989 91.2942 79.6907 91.2946C77.9693 91.2946 76.285 90.7859 74.8536 89.8298C73.4224 88.8734 72.3052 87.5137 71.6462 85.9235C70.9874 84.3329 70.816 82.5798 71.1519 80.8912C71.4878 79.2035 72.3156 77.6526 73.5322 76.4356C74.7497 75.2182 76.3022 74.3881 77.9908 74.0522ZM79.6907 79.6888C79.1168 79.6888 78.5535 79.8582 78.0763 80.1771C77.5992 80.4959 77.2278 80.95 77.0082 81.4802C76.7887 82.01 76.7318 82.5931 76.8434 83.1556C76.9553 83.7181 77.2314 84.2361 77.6368 84.6418C78.0427 85.0476 78.5602 85.3263 79.123 85.4383C79.6856 85.5501 80.2685 85.4898 80.7985 85.2704C81.3287 85.0508 81.7827 84.6795 82.1016 84.2023C82.4203 83.7252 82.5898 83.1647 82.5898 82.591C82.5898 81.8218 82.2851 81.0843 81.7415 80.5402C81.1976 79.9964 80.4597 79.6892 79.6907 79.6888Z" fill="#0087C7"/>
<path fill-rule="evenodd" clip-rule="evenodd" d="M101.206 74.0522C102.894 73.7167 104.645 73.8909 106.235 74.5496C107.825 75.2086 109.185 76.3229 110.141 77.754C111.098 79.1855 111.609 80.8693 111.609 82.591C111.609 84.8997 110.69 87.1139 109.058 88.7464C107.425 90.3789 105.211 91.2946 102.902 91.2946C101.181 91.2946 99.4969 90.7863 98.0653 89.8298C96.6343 88.8736 95.5199 87.5135 94.861 85.9235C94.2021 84.3329 94.0276 82.5798 94.3635 80.8912C94.6995 79.203 95.5298 77.6528 96.7469 76.4356C97.9644 75.2182 99.5169 74.3881 101.206 74.0522ZM102.902 79.6888C102.329 79.6888 101.768 79.8586 101.291 80.1771C100.814 80.4958 100.443 80.9502 100.223 81.4802C100.003 82.0099 99.9435 82.5932 100.055 83.1556C100.167 83.7185 100.446 84.236 100.852 84.6418C101.257 85.0475 101.775 85.3263 102.338 85.4383C102.9 85.5498 103.483 85.4898 104.013 85.2704C104.543 85.0508 104.998 84.6793 105.316 84.2023C105.635 83.7254 105.805 83.1645 105.805 82.591C105.805 81.8214 105.497 81.0844 104.953 80.5402C104.409 79.996 103.672 79.6888 102.902 79.6888Z" fill="#0087C7"/>
<path d="M27.4568 39.0607C28.2261 39.0609 28.9635 39.3682 29.5076 39.9122C30.0516 40.4562 30.3588 41.1936 30.359 41.9629V53.5718C30.3587 54.341 30.0515 55.0787 29.5076 55.6226C28.9635 56.1665 28.226 56.4709 27.4568 56.471C26.6872 56.471 25.9471 56.1668 25.403 55.6226C24.8595 55.0788 24.5549 54.3407 24.5546 53.5718V41.9629C24.5548 41.1941 24.8595 40.4561 25.403 39.9122C25.9471 39.368 26.6872 39.0607 27.4568 39.0607Z" fill="#0087C7"/>
<path d="M39.0626 39.0607C39.8322 39.0607 40.5723 39.368 41.1165 39.9122C41.6601 40.4561 41.9646 41.1939 41.9648 41.9629V53.5718C41.9645 54.3408 41.6601 55.0788 41.1165 55.6226C40.5723 56.1668 39.8322 56.471 39.0626 56.471C38.2934 56.4707 37.5558 56.1665 37.0118 55.6226C36.4679 55.0787 36.1638 54.341 36.1635 53.5718V41.9629C36.1637 41.1937 36.4679 40.4561 37.0118 39.9122C37.5558 39.3682 38.2934 39.061 39.0626 39.0607Z" fill="#0087C7"/>
<path d="M50.6685 39.0607C51.438 39.0607 52.1781 39.368 52.7223 39.9122C53.2659 40.4561 53.5705 41.1939 53.5707 41.9629V53.5718C53.5704 54.3408 53.2659 55.0788 52.7223 55.6226C52.1781 56.1668 51.438 56.471 50.6685 56.471C49.8993 56.4707 49.1616 56.1665 48.6177 55.6226C48.0738 55.0787 47.7696 54.341 47.7693 53.5718V41.9629C47.7695 41.1937 48.0738 40.4561 48.6177 39.9122C49.1616 39.3682 49.8992 39.061 50.6685 39.0607Z" fill="#0087C7"/>
<path d="M62.2773 39.0607C63.0469 39.0607 63.787 39.368 64.3312 39.9122C64.8748 40.4561 65.1794 41.1939 65.1796 41.9629V53.5718C65.1792 54.3408 64.8748 55.0788 64.3312 55.6226C63.787 56.1668 63.0469 56.471 62.2773 56.471C61.5082 56.4707 60.7705 56.1665 60.2266 55.6226C59.6827 55.0787 59.3785 54.341 59.3782 53.5718V41.9629C59.3784 41.1937 59.6826 40.4561 60.2266 39.9122C60.7705 39.3682 61.5081 39.061 62.2773 39.0607Z" fill="#0087C7"/>
<path d="M73.8862 39.0607C74.6556 39.0609 75.393 39.3682 75.937 39.9122C76.481 40.4562 76.7882 41.1936 76.7885 41.9629V53.5718C76.7881 54.341 76.4809 55.0787 75.937 55.6226C75.393 56.1665 74.6555 56.4709 73.8862 56.471C73.1166 56.471 72.3766 56.1668 71.8324 55.6226C71.2889 55.0788 70.9843 54.3407 70.984 53.5718V41.9629C70.9842 41.1941 71.289 40.4561 71.8324 39.9122C72.3766 39.368 73.1166 39.0607 73.8862 39.0607Z" fill="#0087C7"/>
<path d="M85.4921 39.0607C86.2614 39.0609 86.9988 39.3682 87.5428 39.9122C88.0868 40.4562 88.3941 41.1936 88.3943 41.9629V53.5718C88.394 54.341 88.0867 55.0787 87.5428 55.6226C86.9988 56.1665 86.2613 56.4709 85.4921 56.471C84.7225 56.471 83.9824 56.1668 83.4382 55.6226C82.8948 55.0788 82.5902 54.3407 82.5898 53.5718V41.9629C82.59 41.1941 82.8948 40.4561 83.4382 39.9122C83.9824 39.368 84.7225 39.0607 85.4921 39.0607Z" fill="#0087C7"/>
<path fill-rule="evenodd" clip-rule="evenodd" d="M101.206 39.2286C102.894 38.8931 104.645 39.0673 106.235 39.726C107.825 40.3849 109.185 41.4992 110.141 42.9303C111.098 44.3619 111.609 46.0457 111.609 47.7674C111.609 50.0761 110.69 52.2903 109.058 53.9228C107.425 55.5552 105.211 56.471 102.902 56.471C101.181 56.471 99.4969 55.9627 98.0653 55.0062C96.6343 54.0499 95.5199 52.6898 94.861 51.0999C94.2021 49.5092 94.0276 47.7562 94.3635 46.0676C94.6995 44.3794 95.5298 42.8291 96.7469 41.612C97.9644 40.3945 99.5169 39.5645 101.206 39.2286ZM102.902 44.8652C102.329 44.8652 101.768 45.035 101.291 45.3534C100.814 45.6722 100.443 46.1266 100.223 46.6565C100.003 47.1863 99.9435 47.7696 100.055 48.332C100.167 48.8948 100.446 49.4124 100.852 49.8182C101.257 50.2239 101.775 50.4997 102.338 50.6116C102.9 50.7233 103.483 50.6663 104.013 50.4468C104.543 50.2272 104.998 49.8557 105.316 49.3787C105.635 48.9018 105.805 48.3408 105.805 47.7674C105.805 46.9978 105.497 46.2608 104.953 45.7166C104.409 45.1724 103.672 44.8652 102.902 44.8652Z" fill="#0087C7"/>
<path fill-rule="evenodd" clip-rule="evenodd" d="M94.1957 18.7513C94.9622 18.7351 95.7243 18.8743 96.4357 19.1602C97.1471 19.4461 97.7947 19.8723 98.3369 20.4145C98.8789 20.9565 99.3054 21.6045 99.5912 22.3157C99.8767 23.0268 100.016 23.7896 100 24.5557V27.4549H108.707C112.553 27.4598 116.241 28.9924 118.961 31.7121C121.68 34.4319 123.21 38.12 123.215 41.966V53.5718C123.21 57.4181 121.68 61.1059 118.961 63.8257C118.47 64.3167 117.944 64.7662 117.395 65.1777C117.945 65.5893 118.47 66.0415 118.961 66.5326C121.68 69.2524 123.21 72.9406 123.215 76.7866V88.3924C123.21 92.2386 121.68 95.9265 118.961 98.6463C116.241 101.366 112.553 102.896 108.707 102.9H27.4568C23.6105 102.896 19.9226 101.366 17.2029 98.6463C14.4832 95.9264 12.9534 92.2388 12.9487 88.3924V76.7866C12.9533 72.9405 14.4835 69.2525 17.2029 66.5326C17.6936 66.0419 18.2164 65.5889 18.7654 65.1777C18.2167 64.7666 17.6933 64.3162 17.2029 63.8257C14.4832 61.1059 12.9534 57.4182 12.9487 53.5718V41.966C12.9533 38.1199 14.4835 34.4319 17.2029 31.7121C19.9226 28.9923 23.6105 27.4596 27.4568 27.4549H36.1604V24.5557C36.1442 23.7897 36.2839 23.0267 36.5693 22.3157C36.8552 21.6043 37.2845 20.9566 37.8267 20.4145C38.3686 19.8728 39.0139 19.446 39.7249 19.1602C40.4362 18.8743 41.1984 18.7351 41.9648 18.7513H94.1957ZM27.4568 68.0799C25.1482 68.08 22.9338 68.9988 21.3014 70.6312C19.6694 72.2636 18.7532 74.4782 18.7532 76.7866V88.3924C18.7532 90.701 19.669 92.9153 21.3014 94.5478C22.9338 96.1802 25.1482 97.0958 27.4568 97.096H108.707C111.015 97.0957 113.23 96.1801 114.862 94.5478C116.494 92.9153 117.41 90.7009 117.41 88.3924V76.7866C117.41 74.4783 116.494 72.2636 114.862 70.6312C113.23 68.9989 111.015 68.0802 108.707 68.0799H27.4568ZM27.4568 33.2593C25.1482 33.2595 22.9338 34.1782 21.3014 35.8106C19.6694 37.4431 18.7532 39.6577 18.7532 41.966V53.5718C18.7532 55.8804 19.669 58.0947 21.3014 59.7272C22.9338 61.3596 25.1482 62.2753 27.4568 62.2754H108.707C111.015 62.2752 113.23 61.3595 114.862 59.7272C116.494 58.0948 117.41 55.8803 117.41 53.5718V41.966C117.41 39.6578 116.494 37.443 114.862 35.8106C113.23 34.1783 111.015 33.2596 108.707 33.2593H27.4568ZM41.9648 27.4549H94.1957V24.5557H41.9648V27.4549Z" fill="#0087C7"/>
<path d="M131.657 53.5736C132.332 53.5091 148.18 52.1931 158.43 61.554C161.245 64.2577 163.444 67.5369 164.878 71.167C165.817 73.5441 166.406 76.0364 166.648 78.5675L170.484 74.7345C171.031 74.2062 171.765 73.9131 172.526 73.9197C173.286 73.9266 174.014 74.2334 174.552 74.7711C175.089 75.309 175.394 76.0372 175.4 76.7975C175.407 77.558 175.114 78.2921 174.586 78.8391L165.882 87.5427C165.34 88.0848 164.604 88.3917 163.837 88.3942C163.388 88.3933 162.943 88.2885 162.54 88.089L150.934 82.2845C150.246 81.9405 149.723 81.3363 149.479 80.6061C149.235 79.876 149.291 79.0791 149.634 78.3905C149.978 77.7018 150.583 77.1786 151.313 76.9348C152.043 76.6912 152.84 76.7466 153.528 77.0905L160.966 80.8136C160.914 78.3241 160.438 75.8561 159.543 73.5229C158.436 70.6357 156.723 68.0185 154.517 65.8508C146.131 58.199 132.317 59.3513 132.172 59.3658C131.404 59.4343 130.64 59.1952 130.048 58.7006C129.457 58.206 129.088 57.4967 129.02 56.7291C128.951 55.9611 129.19 55.1966 129.685 54.6051C130.18 54.014 130.889 53.6421 131.657 53.5736Z" fill="#0087C7"/>
<path d="M70.5284 108.746C71.1242 108.649 71.7354 108.739 72.2771 109.005L83.8859 114.728C84.5715 115.07 85.0937 115.671 85.3386 116.397C85.5834 117.123 85.5308 117.918 85.1921 118.606C84.8531 119.294 84.2544 119.819 83.5289 120.068C82.8033 120.317 82.0091 120.269 81.3194 119.934L73.8548 116.253C73.912 118.726 74.388 121.175 75.2769 123.492C76.3847 126.38 78.1003 128.996 80.3062 131.164C88.6774 138.803 102.458 137.679 102.648 137.652C103.415 137.582 104.178 137.819 104.769 138.311C105.361 138.804 105.734 139.51 105.804 140.277C105.874 141.043 105.637 141.806 105.144 142.398C104.652 142.989 103.943 143.362 103.176 143.432C103.005 143.447 102.028 143.524 100.487 143.524C95.4124 143.524 84.2551 142.631 76.403 135.449C73.588 132.748 71.3877 129.472 69.9516 125.845C69.0142 123.477 68.4206 120.994 68.1755 118.472L64.3089 122.296C63.7683 122.83 63.0397 123.132 62.2795 123.135C61.7056 123.133 61.144 122.958 60.6682 122.638C60.1926 122.317 59.8235 121.862 59.6062 121.332C59.3889 120.801 59.3335 120.218 59.4475 119.656C59.5617 119.094 59.8397 118.577 60.247 118.173L68.9537 109.549C69.3825 109.124 69.9326 108.843 70.5284 108.746Z" fill="#0087C7"/>
<path fill-rule="evenodd" clip-rule="evenodd" d="M149.329 129.02C160.718 129.02 172.234 132.906 172.528 140.336C172.538 140.431 172.543 140.527 172.543 140.623V152.229C172.543 159.848 160.866 163.837 149.329 163.837C137.792 163.837 126.117 159.848 126.117 152.229V140.623C126.117 140.521 126.119 140.418 126.129 140.318C126.441 132.899 137.949 129.02 149.329 129.02ZM166.739 148.557C162.267 150.986 155.776 152.235 149.329 152.235C142.881 152.235 136.391 150.986 131.918 148.557V152.229C131.918 154.26 138.529 158.033 149.329 158.033C160.129 158.033 166.739 154.26 166.739 152.229V148.557ZM149.329 134.824C138.531 134.824 131.921 138.594 131.918 140.626C131.918 142.657 138.529 146.43 149.329 146.43C160.129 146.43 166.739 142.657 166.739 140.626C166.737 138.594 160.127 134.824 149.329 134.824Z" fill="#0087C7"/>
<path fill-rule="evenodd" clip-rule="evenodd" d="M175.446 94.1963C178.524 94.1963 181.475 95.4196 183.652 97.5959C185.828 99.7724 187.051 102.724 187.052 105.802V169.642C187.051 172.72 185.828 175.671 183.652 177.848C181.475 180.025 178.524 181.248 175.446 181.248H123.215C120.136 181.248 117.182 180.025 115.006 177.848C112.83 175.672 111.606 172.719 111.606 169.642V120.313C111.606 119.544 111.913 118.803 112.457 118.259L135.672 95.0447C136.216 94.5012 136.954 94.1965 137.723 94.1963H175.446ZM140.625 114.509C140.659 115.661 140.455 116.807 140.03 117.878C139.605 118.949 138.965 119.922 138.15 120.737C137.335 121.553 136.362 122.195 135.291 122.62C134.219 123.046 133.071 123.246 131.918 123.212H117.41V169.642C117.411 171.18 118.023 172.655 119.11 173.743C120.199 174.832 121.676 175.443 123.215 175.443H175.446C176.985 175.443 178.462 174.832 179.55 173.743C180.638 172.655 181.25 171.18 181.25 169.642V105.802C181.25 104.264 180.638 102.789 179.55 101.701C178.462 100.612 176.985 100.001 175.446 100.001H140.625V114.509ZM121.512 117.411H131.918C132.312 117.449 132.71 117.396 133.081 117.261C133.453 117.127 133.789 116.911 134.067 116.63C134.344 116.349 134.556 116.011 134.686 115.638C134.817 115.265 134.863 114.865 134.821 114.472V104.102L121.512 117.411Z" fill="#0087C7"/>
</svg>
