<svg width="201" height="202" viewBox="0 0 201 202" fill="none" xmlns="http://www.w3.org/2000/svg">
<path d="M118.271 51.1044C118.271 52.48 117.137 53.5954 115.738 53.5954H88.4034C87.004 53.5954 85.8699 52.48 85.8699 51.1044C85.8699 49.7288 87.0043 48.6134 88.4034 48.6134H115.738C117.137 48.6134 118.271 49.7288 118.271 51.1044ZM115.737 59.2736H88.403C87.0036 59.2736 85.8696 60.389 85.8696 61.7647C85.8696 63.1403 87.004 64.2557 88.403 64.2557H115.737C117.137 64.2557 118.271 63.1403 118.271 61.7647C118.271 60.3887 117.137 59.2736 115.737 59.2736ZM115.737 69.9335H88.403C87.0036 69.9335 85.8696 71.0489 85.8696 72.4246C85.8696 73.8002 87.004 74.9156 88.403 74.9156H115.737C117.137 74.9156 118.271 73.8002 118.271 72.4246C118.271 71.0489 117.137 69.9335 115.737 69.9335ZM49.0006 112.253L44.8938 116.286V101.016C44.8938 99.64 43.7594 98.5246 42.3603 98.5246C40.9609 98.5246 39.8269 99.64 39.8269 101.016V116.281L35.7313 112.254C34.7419 111.281 33.1377 111.281 32.1483 112.254C31.1589 113.227 31.1589 114.804 32.1483 115.777L40.569 124.057C41.0639 124.543 41.7121 124.786 42.3607 124.786C43.0086 124.786 43.6564 124.543 44.1513 124.058L52.5825 115.778C53.5723 114.806 53.5734 113.229 52.5847 112.255C51.5946 111.281 49.9911 111.281 49.0006 112.253ZM171.992 112.254C171.003 111.281 169.399 111.281 168.409 112.254L164.314 116.281V101.015C164.314 99.6397 163.179 98.5243 161.78 98.5243C160.381 98.5243 159.247 99.6397 159.247 101.015V116.281L155.151 112.254C154.162 111.281 152.558 111.281 151.568 112.254C150.579 113.227 150.579 114.804 151.568 115.776L159.989 124.056C160.484 124.543 161.132 124.786 161.781 124.786C162.429 124.786 163.077 124.543 163.572 124.056L171.993 115.776C172.982 114.804 172.982 113.227 171.992 112.254ZM163.948 149.24C164.32 151.346 164.509 153.467 164.509 155.546C164.509 157.635 164.32 159.757 163.947 161.854C163.735 163.046 162.683 163.916 161.452 163.916H157.816C157.144 166.267 156.193 168.519 154.976 170.646L157.551 173.178C158.422 174.034 158.54 175.382 157.832 176.372C155.335 179.864 152.28 182.868 148.752 185.299C147.744 185.994 146.374 185.876 145.504 185.019L142.938 182.489C140.767 183.688 138.478 184.621 136.097 185.275V188.856C136.097 190.068 135.211 191.104 133.997 191.311C131.895 191.67 129.737 191.852 127.584 191.852C125.42 191.852 123.262 191.669 121.169 191.31C119.956 191.102 119.071 190.067 119.071 188.856V185.275C116.69 184.621 114.401 183.688 112.228 182.488L109.652 185.021C108.781 185.877 107.411 185.994 106.404 185.297C102.859 182.847 99.8075 179.842 97.3335 176.368C96.6287 175.378 96.7484 174.033 97.6177 173.178L98.5959 172.216L84.0076 177.643C83.7172 177.751 83.4134 177.804 83.1114 177.804C82.6035 177.804 82.1003 177.654 81.671 177.362C80.9862 176.897 80.5772 176.131 80.5772 175.313V132.254L38.4895 73.7118C36.725 72.2313 35.8469 70.6091 35.8469 68.8342C35.8469 64.9643 39.9763 61.8427 48.4525 59.3153V12.1863C48.4525 10.8107 49.5869 9.69531 50.9859 9.69531H82.5462C83.2183 9.69531 83.8626 9.95768 84.3379 10.425L95.4251 21.327C95.9 21.7939 96.1672 22.4277 96.1672 23.0883V31.7213H107.973V12.1863C107.973 10.8107 109.107 9.69531 110.506 9.69531H142.066C142.738 9.69531 143.383 9.95768 143.858 10.425L154.946 21.327C155.421 21.7939 155.688 22.4277 155.688 23.0883V59.3153C164.164 61.8427 168.293 64.9643 168.293 68.8342C168.293 70.6094 167.415 72.2314 165.65 73.7121L132.671 119.592C133.113 119.652 133.556 119.715 133.997 119.791C135.211 119.998 136.097 121.034 136.097 122.245V125.821C138.48 126.481 140.768 127.414 142.938 128.612L145.504 126.083C146.374 125.226 147.744 125.107 148.751 125.802C152.295 128.244 155.35 131.249 157.834 134.732C158.539 135.723 158.42 137.068 157.55 137.924L154.976 140.455C156.192 142.58 157.142 144.828 157.814 147.175H161.451C162.684 147.175 163.737 148.046 163.948 149.24ZM155.688 64.5455V66.1514C155.688 67.527 154.553 68.6424 153.154 68.6424H130.056V77.8443C136.108 77.2415 141.692 76.4391 146.599 75.4524C160.404 72.6769 163.226 69.5261 163.226 68.8342C163.226 68.4029 161.854 66.5827 155.688 64.5455ZM124.989 78.2939V48.2441L113.242 36.703H79.1513V78.2935C86.3547 78.8564 94.0982 79.1512 102.076 79.1512C110.049 79.1512 117.788 78.8567 124.989 78.2939ZM113.04 31.7213H114.291C114.963 31.7213 115.607 31.9833 116.082 32.4503L129.313 45.4501C129.789 45.917 130.056 46.5512 130.056 47.2121V63.6607H150.621V24.1199L141.017 14.677H113.04V31.7213ZM53.5197 63.6604H74.0845V34.212C74.0845 32.8363 75.2189 31.7209 76.6179 31.7209H91.1003V24.1199L81.497 14.677H53.5197V63.6604ZM40.9138 68.8342C40.9138 69.5261 43.7358 72.6773 57.5425 75.4524C62.4491 76.4388 68.0326 77.2412 74.0841 77.844V68.6424H50.9859C49.5865 68.6424 48.4525 67.527 48.4525 66.1514V64.5455C42.286 66.5827 40.9138 68.4029 40.9138 68.8342ZM85.6441 131.463V171.707L98.4012 166.962C97.9995 165.969 97.6475 164.954 97.3513 163.916H93.7055C92.4744 163.916 91.4219 163.046 91.2098 161.854C90.8444 159.796 90.6588 157.673 90.6588 155.546C90.6588 153.429 90.8444 151.307 91.2094 149.24C91.4204 148.046 92.4736 147.175 93.7055 147.175H97.3527C98.0249 144.823 98.9722 142.572 100.184 140.447L97.617 137.924C96.7487 137.07 96.6283 135.727 97.331 134.737C99.7912 131.271 102.843 128.265 106.403 125.804C107.411 125.108 108.781 125.224 109.652 126.081L112.228 128.614C114.397 127.415 116.687 126.481 119.07 125.821V122.245C119.07 121.034 119.956 119.999 121.168 119.791C123.008 119.475 124.866 119.303 126.707 119.259L156.216 78.2054C153.736 78.9694 150.874 79.6784 147.614 80.3339C141.807 81.5014 135.094 82.4182 127.8 83.0592C127.783 83.0609 127.765 83.062 127.748 83.0638C119.748 83.765 111.049 84.1339 102.075 84.1339C93.1001 84.1339 84.402 83.7653 76.4015 83.0645C76.3786 83.0627 76.3554 83.0609 76.333 83.0584C69.0415 82.4179 62.3313 81.501 56.527 80.3343C53.267 79.6791 50.4044 78.9701 47.9242 78.2062L85.1793 130.025C85.4813 130.445 85.6441 130.947 85.6441 131.463ZM159.441 155.546C159.441 154.428 159.378 153.295 159.252 152.157H155.831C154.635 152.157 153.601 151.334 153.353 150.183C152.678 147.056 151.435 144.114 149.658 141.437C149.003 140.45 149.141 139.147 149.988 138.314L152.414 135.928C150.968 134.159 149.337 132.555 147.538 131.132L145.122 133.514C144.276 134.348 142.951 134.485 141.947 133.843C139.207 132.09 136.21 130.868 133.04 130.208C131.869 129.964 131.031 128.948 131.031 127.771V124.407C128.713 124.159 126.439 124.16 124.138 124.406V127.771C124.138 128.948 123.3 129.964 122.129 130.208C118.959 130.867 115.962 132.09 113.221 133.843C112.218 134.484 110.895 134.348 110.049 133.516L107.625 131.132C105.819 132.561 104.189 134.164 102.752 135.926L105.17 138.304C106.016 139.136 106.154 140.436 105.502 141.423C103.733 144.098 102.492 147.045 101.815 150.183C101.567 151.334 100.533 152.157 99.3369 152.157H95.9091C95.788 153.279 95.7267 154.413 95.7267 155.545C95.7267 156.682 95.7876 157.815 95.9083 158.934H99.3369C100.534 158.934 101.568 159.758 101.815 160.909C102.494 164.061 103.736 167.006 105.506 169.659C106.165 170.647 106.029 171.953 105.18 172.787L102.753 175.173C104.195 176.939 105.825 178.543 107.625 179.968L110.048 177.585C110.895 176.753 112.218 176.617 113.221 177.258C115.967 179.014 118.961 180.233 122.122 180.881C123.296 181.122 124.138 182.14 124.138 183.32V186.691C126.409 186.928 128.743 186.929 131.03 186.691V183.32C131.03 182.14 131.872 181.122 133.046 180.881C136.207 180.232 139.202 179.014 141.947 177.258C142.95 176.616 144.276 176.753 145.121 177.587L147.537 179.968C149.33 178.549 150.961 176.944 152.413 175.171L149.988 172.788C149.141 171.954 149.003 170.651 149.658 169.664C151.436 166.986 152.679 164.041 153.353 160.909C153.6 159.757 154.634 158.934 155.831 158.934H159.253C159.378 157.801 159.441 156.667 159.441 155.546ZM147.308 155.546C147.308 166.239 138.459 174.94 127.584 174.94C116.708 174.94 107.86 166.239 107.86 155.546C107.86 144.852 116.708 136.152 127.584 136.152C138.459 136.152 147.308 144.852 147.308 155.546ZM142.241 155.546C142.241 147.599 135.666 141.134 127.584 141.134C119.502 141.134 112.927 147.599 112.927 155.546C112.927 163.493 119.502 169.957 127.584 169.957C135.666 169.957 142.241 163.493 142.241 155.546ZM137.093 147.673C136.012 146.798 134.416 146.95 133.527 148.012L125.47 157.627L121.605 153.164C120.697 152.116 119.099 151.991 118.033 152.883C116.968 153.775 116.84 155.347 117.747 156.394L123.573 163.121C124.054 163.677 124.76 163.997 125.502 163.997H125.522C126.272 163.991 126.981 163.659 127.457 163.09L137.437 151.18C138.327 150.118 138.173 148.548 137.093 147.673Z" fill="#0087C7"/>
</svg>
