<svg width="200" height="200" viewBox="0 0 200 200" fill="none" xmlns="http://www.w3.org/2000/svg">
<path d="M175.938 78.125H24.0625C21.8247 78.125 19.6786 79.0087 18.0963 80.5818C16.5139 82.1549 15.625 84.2885 15.625 86.5132L15.625 175.987C15.625 178.212 16.5139 180.345 18.0963 181.918C19.6786 183.491 21.8247 184.375 24.0625 184.375H175.938C178.175 184.375 180.321 183.491 181.904 181.918C183.486 180.345 184.375 178.212 184.375 175.987V86.5132C184.375 84.2885 183.486 82.1549 181.904 80.5818C180.321 79.0087 178.175 78.125 175.938 78.125ZM178.75 86.5132V106.086H66.25V83.7171H175.938C176.683 83.7171 177.399 84.0117 177.926 84.536C178.454 85.0604 178.75 85.7716 178.75 86.5132ZM66.25 134.046H178.75V150.822H66.25V134.046ZM66.25 128.454V111.678H178.75V128.454H66.25ZM21.25 175.987V86.5132C21.25 85.7716 21.5463 85.0604 22.0738 84.536C22.6012 84.0117 23.3166 83.7171 24.0625 83.7171H60.625V178.783H24.0625C23.3166 178.783 22.6012 178.488 22.0738 177.964C21.5463 177.44 21.25 176.728 21.25 175.987ZM175.938 178.783H66.25V156.414H178.75V175.987C178.75 176.728 178.454 177.44 177.926 177.964C177.399 178.488 176.683 178.783 175.938 178.783Z" fill="#0087C7"/>
<path d="M50.625 87.5H33.75C32.2582 87.5 30.8274 88.1585 29.7725 89.3306C28.7176 90.5027 28.125 92.0924 28.125 93.75V100C28.125 101.658 28.7176 103.247 29.7725 104.419C30.8274 105.592 32.2582 106.25 33.75 106.25H50.625C52.1168 106.25 53.5476 105.592 54.6025 104.419C55.6574 103.247 56.25 101.658 56.25 100V93.75C56.25 92.0924 55.6574 90.5027 54.6025 89.3306C53.5476 88.1585 52.1168 87.5 50.625 87.5ZM33.75 100V93.75H50.625V100H33.75Z" fill="#0087C7"/>
<path d="M40 32.5H45.625V38.125C45.625 39.6168 46.2176 41.0476 47.2725 42.1025C48.3274 43.1574 49.7582 43.75 51.25 43.75H59.6875C60.4334 43.75 61.1488 43.4537 61.6762 42.9262C62.2037 42.3988 62.5 41.6834 62.5 40.9375C62.5 40.1916 62.2037 39.4762 61.6762 38.9488C61.1488 38.4213 60.4334 38.125 59.6875 38.125H51.25V32.5H56.875C58.3668 32.5 59.7976 31.9074 60.8525 30.8525C61.9074 29.7976 62.5 28.3668 62.5 26.875V21.25C62.5 19.7582 61.9074 18.3274 60.8525 17.2725C59.7976 16.2176 58.3668 15.625 56.875 15.625H40C38.5082 15.625 37.0774 16.2176 36.0225 17.2725C34.9676 18.3274 34.375 19.7582 34.375 21.25V26.875C34.375 28.3668 34.9676 29.7976 36.0225 30.8525C37.0774 31.9074 38.5082 32.5 40 32.5ZM40 21.25H56.875V26.875H40V21.25Z" fill="#0087C7"/>
<path d="M74.375 45H80V50.625C80 52.1168 80.5926 53.5476 81.6475 54.6025C82.7024 55.6574 84.1332 56.25 85.625 56.25H94.0625C94.8084 56.25 95.5238 55.9537 96.0512 55.4262C96.5787 54.8988 96.875 54.1834 96.875 53.4375C96.875 52.6916 96.5787 51.9762 96.0512 51.4488C95.5238 50.9213 94.8084 50.625 94.0625 50.625H85.625V45H91.25C92.7418 45 94.1726 44.4074 95.2275 43.3525C96.2824 42.2976 96.875 40.8668 96.875 39.375V33.75C96.875 32.2582 96.2824 30.8274 95.2275 29.7725C94.1726 28.7176 92.7418 28.125 91.25 28.125H74.375C72.8832 28.125 71.4524 28.7176 70.3975 29.7725C69.3426 30.8274 68.75 32.2582 68.75 33.75V39.375C68.75 40.8668 69.3426 42.2976 70.3975 43.3525C71.4524 44.4074 72.8832 45 74.375 45ZM74.375 33.75H91.25V39.375H74.375V33.75Z" fill="#0087C7"/>
<path d="M108.75 54.375H114.375V60C114.375 61.4918 114.968 62.9226 116.023 63.9775C117.077 65.0324 118.508 65.625 120 65.625H128.438C129.183 65.625 129.899 65.3287 130.426 64.8012C130.954 64.2738 131.25 63.5584 131.25 62.8125C131.25 62.0666 130.954 61.3512 130.426 60.8238C129.899 60.2963 129.183 60 128.438 60H120V54.375H125.625C127.117 54.375 128.548 53.7824 129.602 52.7275C130.657 51.6726 131.25 50.2418 131.25 48.75V43.125C131.25 41.6332 130.657 40.2024 129.602 39.1475C128.548 38.0926 127.117 37.5 125.625 37.5H108.75C107.258 37.5 105.827 38.0926 104.773 39.1475C103.718 40.2024 103.125 41.6332 103.125 43.125V48.75C103.125 50.2418 103.718 51.6726 104.773 52.7275C105.827 53.7824 107.258 54.375 108.75 54.375ZM108.75 43.125H125.625V48.75H108.75V43.125Z" fill="#0087C7"/>
<path d="M143.125 65.625H160C161.492 65.625 162.923 65.0763 163.977 64.0995C165.032 63.1228 165.625 61.798 165.625 60.4167V55.2083C165.625 53.827 165.032 52.5022 163.977 51.5255C162.923 50.5487 161.492 50 160 50H143.125C141.633 50 140.202 50.5487 139.148 51.5255C138.093 52.5022 137.5 53.827 137.5 55.2083V60.4167C137.5 61.798 138.093 63.1228 139.148 64.0995C140.202 65.0763 141.633 65.625 143.125 65.625ZM143.125 55.2083H160V60.4167H143.125V55.2083Z" fill="#0087C7"/>
<path d="M44.5312 112.5H33.5938C32.1433 112.5 30.7523 113.049 29.7268 114.025C28.7012 115.002 28.125 116.327 28.125 117.708V122.917C28.125 124.298 28.7012 125.623 29.7268 126.6C30.7523 127.576 32.1433 128.125 33.5938 128.125H44.5312C45.9817 128.125 47.3726 127.576 48.3982 126.6C49.4238 125.623 50 124.298 50 122.917V117.708C50 116.327 49.4238 115.002 48.3982 114.025C47.3726 113.049 45.9817 112.5 44.5312 112.5ZM33.5938 122.917V117.708H44.5312V122.917H33.5938Z" fill="#0087C7"/>
<path d="M44.5312 134.375H33.5938C32.1433 134.375 30.7523 134.924 29.7268 135.9C28.7012 136.877 28.125 138.202 28.125 139.583V144.792C28.125 146.173 28.7012 147.498 29.7268 148.475C30.7523 149.451 32.1433 150 33.5938 150H44.5312C45.9817 150 47.3726 149.451 48.3982 148.475C49.4238 147.498 50 146.173 50 144.792V139.583C50 138.202 49.4238 136.877 48.3982 135.9C47.3726 134.924 45.9817 134.375 44.5312 134.375ZM33.5938 144.792V139.583H44.5312V144.792H33.5938Z" fill="#0087C7"/>
<path d="M44.5312 156.25H33.5938C32.1433 156.25 30.7523 156.799 29.7268 157.775C28.7012 158.752 28.125 160.077 28.125 161.458V166.667C28.125 168.048 28.7012 169.373 29.7268 170.35C30.7523 171.326 32.1433 171.875 33.5938 171.875H44.5312C45.9817 171.875 47.3726 171.326 48.3982 170.35C49.4238 169.373 50 168.048 50 166.667V161.458C50 160.077 49.4238 158.752 48.3982 157.775C47.3726 156.799 45.9817 156.25 44.5312 156.25ZM33.5938 166.667V161.458H44.5312V166.667H33.5938Z" fill="#0087C7"/>
<path d="M74.7596 96.875H106.49C107.255 96.875 107.989 96.5458 108.53 95.9597C109.071 95.3737 109.375 94.5788 109.375 93.75C109.375 92.9212 109.071 92.1263 108.53 91.5403C107.989 90.9542 107.255 90.625 106.49 90.625H74.7596C73.9946 90.625 73.2609 90.9542 72.7199 91.5403C72.1789 92.1263 71.875 92.9212 71.875 93.75C71.875 94.5788 72.1789 95.3737 72.7199 95.9597C73.2609 96.5458 73.9946 96.875 74.7596 96.875Z" fill="#0087C7"/>
<path d="M125.24 115.625H93.5096C92.7446 115.625 92.0109 115.954 91.4699 116.54C90.9289 117.126 90.625 117.921 90.625 118.75C90.625 119.579 90.9289 120.374 91.4699 120.96C92.0109 121.546 92.7446 121.875 93.5096 121.875H125.24C126.005 121.875 126.739 121.546 127.28 120.96C127.821 120.374 128.125 119.579 128.125 118.75C128.125 117.921 127.821 117.126 127.28 116.54C126.739 115.954 126.005 115.625 125.24 115.625Z" fill="#0087C7"/>
<path d="M144.231 140.625H115.144C114.443 140.625 113.77 140.79 113.274 141.083C112.779 141.376 112.5 141.773 112.5 142.188C112.5 142.602 112.779 142.999 113.274 143.292C113.77 143.585 114.443 143.75 115.144 143.75H144.231C144.932 143.75 145.605 143.585 146.101 143.292C146.596 142.999 146.875 142.602 146.875 142.188C146.875 141.773 146.596 141.376 146.101 141.083C145.605 140.79 144.932 140.625 144.231 140.625Z" fill="#0087C7"/>
<path d="M169.01 165.625H140.365C139.605 165.625 138.876 165.79 138.339 166.083C137.802 166.376 137.5 166.773 137.5 167.188C137.5 167.602 137.802 167.999 138.339 168.292C138.876 168.585 139.605 168.75 140.365 168.75H169.01C169.77 168.75 170.499 168.585 171.036 168.292C171.573 167.999 171.875 167.602 171.875 167.188C171.875 166.773 171.573 166.376 171.036 166.083C170.499 165.79 169.77 165.625 169.01 165.625Z" fill="#0087C7"/>
</svg>
