<svg width="200" height="200" viewBox="0 0 200 200" fill="none" xmlns="http://www.w3.org/2000/svg">
<path fill-rule="evenodd" clip-rule="evenodd" d="M151.759 145.024H135.14C133.964 145.024 133.016 144.072 133.016 142.9C133.016 141.728 133.964 140.775 135.14 140.775H151.759C152.931 140.775 153.883 141.728 153.883 142.9C153.883 144.072 152.931 145.024 151.759 145.024Z" fill="#0087C7"/>
<path fill-rule="evenodd" clip-rule="evenodd" d="M168.268 154.535H154.273C151.717 154.535 149.635 152.456 149.635 149.897V135.905C149.635 133.345 151.717 131.267 154.273 131.267H168.268C170.825 131.267 172.906 133.345 172.906 135.905V149.897C172.906 152.456 170.825 154.535 168.268 154.535ZM154.273 135.515C154.06 135.515 153.883 135.692 153.883 135.905V149.897C153.883 150.109 154.06 150.29 154.273 150.29H168.268C168.477 150.29 168.658 150.109 168.658 149.897V135.905C168.658 135.692 168.477 135.512 168.268 135.512L154.273 135.515Z" fill="#0087C7"/>
<path fill-rule="evenodd" clip-rule="evenodd" d="M161.267 171.156C160.095 171.156 159.143 170.203 159.143 169.031V152.412C159.143 151.237 160.095 150.288 161.267 150.288C162.443 150.288 163.392 151.237 163.392 152.412V169.031C163.392 170.203 162.443 171.156 161.267 171.156Z" fill="#0087C7"/>
<path fill-rule="evenodd" clip-rule="evenodd" d="M161.268 187.151C155.688 187.151 151.149 182.612 151.149 177.032C151.149 171.449 155.688 166.91 161.268 166.91C166.851 166.91 171.39 171.449 171.39 177.032C171.39 182.612 166.851 187.151 161.268 187.151ZM161.268 171.159C158.032 171.159 155.394 173.793 155.394 177.032C155.394 180.268 158.032 182.902 161.268 182.902C164.508 182.902 167.142 180.268 167.142 177.032C167.142 173.793 164.508 171.159 161.268 171.159Z" fill="#0087C7"/>
<path fill-rule="evenodd" clip-rule="evenodd" d="M161.269 118.891C155.689 118.891 151.15 114.352 151.15 108.769C151.15 103.189 155.689 98.6504 161.269 98.6504C166.852 98.6504 171.391 103.189 171.391 108.769C171.391 114.352 166.852 118.891 161.269 118.891ZM161.269 102.899C158.033 102.899 155.395 105.533 155.395 108.769C155.395 112.009 158.033 114.643 161.269 114.643C164.508 114.643 167.142 112.009 167.142 108.769C167.142 105.533 164.508 102.899 161.269 102.899Z" fill="#0087C7"/>
<path fill-rule="evenodd" clip-rule="evenodd" d="M82.1765 99.4242C81.0046 99.4242 80.0522 98.4754 80.0522 97.2999V80.511C80.0522 79.3391 81.0046 78.3867 82.1765 78.3867C83.352 78.3867 84.3008 79.3391 84.3008 80.511V97.2999C84.3008 98.4754 83.352 99.4242 82.1765 99.4242Z" fill="#0087C7"/>
<path fill-rule="evenodd" clip-rule="evenodd" d="M75.8857 111.131H64.4358C63.2604 111.131 62.3115 110.179 62.3115 109.007C62.3115 107.832 63.2604 106.883 64.4358 106.883H75.8857C77.0576 106.883 78.01 107.832 78.01 109.007C78.01 110.179 77.0576 111.131 75.8857 111.131Z" fill="#0087C7"/>
<path fill-rule="evenodd" clip-rule="evenodd" d="M100.231 111.131H88.7815C87.6061 111.131 86.6572 110.179 86.6572 109.007C86.6572 107.832 87.6061 106.883 88.7815 106.883H100.231C101.403 106.883 102.356 107.832 102.356 109.007C102.356 110.179 101.403 111.131 100.231 111.131Z" fill="#0087C7"/>
<path fill-rule="evenodd" clip-rule="evenodd" d="M124.575 111.131H113.121C111.949 111.131 111 110.179 111 109.007C111 107.832 111.949 106.883 113.121 106.883H124.575C125.747 106.883 126.699 107.832 126.699 109.007C126.699 110.179 125.747 111.131 124.575 111.131Z" fill="#0087C7"/>
<path fill-rule="evenodd" clip-rule="evenodd" d="M52.4531 116.278H42.7345C40.6102 116.278 38.8789 114.547 38.8789 112.423V105.597C38.8789 103.469 40.6102 101.741 42.7345 101.741H52.4531C54.5774 101.741 56.3087 103.469 56.3087 105.597V112.423C56.3087 114.547 54.5774 116.278 52.4531 116.278ZM43.1275 112.03H52.0601V105.99H43.1275V112.03Z" fill="#0087C7"/>
<path fill-rule="evenodd" clip-rule="evenodd" d="M132.874 122.839H31.4859C29.0642 122.839 27.0957 120.87 27.0957 118.449V99.5673C27.0957 97.1492 29.0642 95.1807 31.4859 95.1807H132.874C135.296 95.1807 137.265 97.1492 137.265 99.5673V118.449C137.265 120.87 135.296 122.839 132.874 122.839ZM31.4859 99.4257C31.4115 99.4257 31.3443 99.4965 31.3443 99.5673V118.449C31.3443 118.523 31.4115 118.59 31.4859 118.59H132.874C132.945 118.59 133.016 118.523 133.016 118.449V99.5673C133.016 99.4965 132.945 99.4257 132.874 99.4257H31.4859Z" fill="#0087C7"/>
<path fill-rule="evenodd" clip-rule="evenodd" d="M115.579 133.321H48.7805C47.6086 133.321 46.6562 132.368 46.6562 131.196V120.713C46.6562 119.541 47.6086 118.589 48.7805 118.589H115.579C116.751 118.589 117.703 119.541 117.703 120.713V131.196C117.703 132.368 116.751 133.321 115.579 133.321ZM50.9048 129.072H113.454V122.837H50.9048V129.072Z" fill="#0087C7"/>
<path fill-rule="evenodd" clip-rule="evenodd" d="M75.8862 145.024H64.4363C63.2609 145.024 62.312 144.075 62.312 142.9C62.312 141.728 63.2609 140.775 64.4363 140.775H75.8862C77.0581 140.775 78.0105 141.728 78.0105 142.9C78.0105 144.075 77.0581 145.024 75.8862 145.024Z" fill="#0087C7"/>
<path fill-rule="evenodd" clip-rule="evenodd" d="M100.231 145.024H88.7815C87.6061 145.024 86.6572 144.075 86.6572 142.9C86.6572 141.728 87.6061 140.775 88.7815 140.775H100.231C101.403 140.775 102.356 141.728 102.356 142.9C102.356 144.075 101.403 145.024 100.231 145.024Z" fill="#0087C7"/>
<path fill-rule="evenodd" clip-rule="evenodd" d="M124.575 145.024H113.121C111.949 145.024 111 144.075 111 142.9C111 141.728 111.949 140.775 113.121 140.775H124.575C125.747 140.775 126.699 141.728 126.699 142.9C126.699 144.075 125.747 145.024 124.575 145.024Z" fill="#0087C7"/>
<path fill-rule="evenodd" clip-rule="evenodd" d="M52.4531 150.169H42.7345C40.6102 150.169 38.8789 148.438 38.8789 146.313V139.487C38.8789 137.363 40.6102 135.632 42.7345 135.632H52.4531C54.5774 135.632 56.3087 137.363 56.3087 139.487V146.313C56.3087 148.438 54.5774 150.169 52.4531 150.169ZM43.1275 145.92H52.0601V139.88H43.1275V145.92Z" fill="#0087C7"/>
<path fill-rule="evenodd" clip-rule="evenodd" d="M132.874 156.729H31.4854C29.0637 156.729 27.0952 154.761 27.0952 152.343V133.458C27.0952 131.04 29.0637 129.071 31.4854 129.071H132.874C135.296 129.071 137.264 131.04 137.264 133.458V152.343C137.264 154.761 135.296 156.729 132.874 156.729ZM31.4854 133.32C31.4111 133.32 31.3438 133.387 31.3438 133.458V152.343C31.3438 152.414 31.4111 152.481 31.4854 152.481H132.874C132.945 152.481 133.016 152.414 133.016 152.343V133.458C133.016 133.387 132.945 133.32 132.874 133.32H31.4854Z" fill="#0087C7"/>
<path fill-rule="evenodd" clip-rule="evenodd" d="M115.578 167.215H48.78C47.6081 167.215 46.6558 166.262 46.6558 165.09V154.607C46.6558 153.435 47.6081 152.486 48.78 152.486H115.578C116.75 152.486 117.699 153.435 117.699 154.607V165.09C117.699 166.262 116.75 167.215 115.578 167.215ZM50.9043 162.966H113.45V156.731H50.9043V162.966Z" fill="#0087C7"/>
<path fill-rule="evenodd" clip-rule="evenodd" d="M75.8857 178.923H64.4358C63.2604 178.923 62.3115 177.971 62.3115 176.799C62.3115 175.624 63.2604 174.675 64.4358 174.675H75.8857C77.0576 174.675 78.01 175.624 78.01 176.799C78.01 177.971 77.0576 178.923 75.8857 178.923Z" fill="#0087C7"/>
<path fill-rule="evenodd" clip-rule="evenodd" d="M100.231 178.923H88.781C87.6056 178.923 86.6567 177.971 86.6567 176.799C86.6567 175.624 87.6056 174.675 88.781 174.675H100.231C101.403 174.675 102.355 175.624 102.355 176.799C102.355 177.971 101.403 178.923 100.231 178.923Z" fill="#0087C7"/>
<path fill-rule="evenodd" clip-rule="evenodd" d="M124.574 178.923H113.121C111.949 178.923 111 177.971 111 176.799C111 175.624 111.949 174.675 113.121 174.675H124.574C125.746 174.675 126.698 175.624 126.698 176.799C126.698 177.971 125.746 178.923 124.574 178.923Z" fill="#0087C7"/>
<path fill-rule="evenodd" clip-rule="evenodd" d="M52.4531 184.065H42.7345C40.6102 184.065 38.8789 182.337 38.8789 180.209V173.387C38.8789 171.259 40.6102 169.531 42.7345 169.531H52.4531C54.5774 169.531 56.3087 171.259 56.3087 173.383V180.209C56.3087 182.337 54.5774 184.065 52.4531 184.065ZM43.1275 179.816H52.0601V173.776H43.1275V179.816Z" fill="#0087C7"/>
<path fill-rule="evenodd" clip-rule="evenodd" d="M132.874 190.629H31.4859C29.0642 190.629 27.0957 188.66 27.0957 186.238V167.357C27.0957 164.935 29.0642 162.967 31.4859 162.967H132.874C135.296 162.967 137.265 164.935 137.265 167.357V186.238C137.265 188.66 135.296 190.629 132.874 190.629ZM31.4859 167.215C31.4115 167.215 31.3443 167.283 31.3443 167.357V186.238C31.3443 186.313 31.4115 186.38 31.4859 186.38H132.874C132.945 186.38 133.016 186.313 133.016 186.238V167.357C133.016 167.283 132.945 167.215 132.874 167.215H31.4859Z" fill="#0087C7"/>
<path fill-rule="evenodd" clip-rule="evenodd" d="M161.267 135.516C160.095 135.516 159.143 134.563 159.143 133.391V116.769C159.143 115.597 160.095 114.645 161.267 114.645C162.443 114.645 163.392 115.597 163.392 116.769V133.391C163.392 134.563 162.443 135.516 161.267 135.516Z" fill="#0087C7"/>
<path fill-rule="evenodd" clip-rule="evenodd" d="M77.4803 56.8053C76.9457 56.8053 76.4146 56.6071 76.0039 56.2105C75.5932 55.814 76.0039 56.207 76.0004 56.207C75.9969 56.207 76.0004 56.207 76.0004 56.2035C76.0004 56.2035 76.0004 56.2035 75.9968 56.2035C75.9968 56.2035 75.9968 56.1999 75.9933 56.1999C75.9898 56.1964 75.9898 56.1964 75.9862 56.1928C75.9827 56.1893 75.9862 56.1928 75.9827 56.1893C75.9791 56.1857 75.9791 56.1893 75.9791 56.1857H75.9756L68.0237 48.2303C67.1952 47.4018 67.1952 46.0565 68.0237 45.228C68.8522 44.396 70.1976 44.396 71.026 45.228L77.4803 51.6787L93.3346 35.8245C94.163 34.996 95.5084 34.996 96.3369 35.8245C97.1653 36.6529 97.1653 37.9983 96.3369 38.8268L78.9815 56.1857H78.9779V56.1893C78.9779 56.1893 78.9779 56.1893 78.9744 56.1893C78.9744 56.1928 78.9744 56.1928 78.9709 56.1928V56.1964C78.9709 56.1964 78.9708 56.1964 78.9673 56.1964C78.5566 56.6035 78.0185 56.8053 77.4803 56.8053Z" fill="#0087C7"/>
<path fill-rule="evenodd" clip-rule="evenodd" d="M82.1785 72.8718C67.3651 72.8718 55.3169 60.8201 55.3169 46.0067C55.3169 31.1934 67.3651 19.1416 82.1785 19.1416C96.9918 19.1416 109.044 31.1934 109.044 46.0067C109.044 60.8201 96.9918 72.8718 82.1785 72.8718ZM82.1785 23.3902C69.7089 23.3902 59.5619 33.5372 59.5619 46.0067C59.5619 58.4763 69.7089 68.6233 82.1785 68.6233C94.6516 68.6233 104.795 58.4763 104.795 46.0067C104.795 33.5372 94.6516 23.3902 82.1785 23.3902Z" fill="#0087C7"/>
<path fill-rule="evenodd" clip-rule="evenodd" d="M82.1776 82.6355C61.9827 82.6355 45.5479 66.2041 45.5479 46.0057C45.5479 25.8073 61.9827 9.37598 82.1776 9.37598C102.376 9.37598 118.811 25.8073 118.811 46.0057C118.811 66.2041 102.376 82.6355 82.1776 82.6355ZM82.1776 13.6245C64.323 13.6245 49.7964 28.1511 49.7964 46.0057C49.7964 63.8603 64.323 78.3869 82.1776 78.3869C100.036 78.3869 114.562 63.8603 114.562 46.0057C114.562 28.1511 100.036 13.6245 82.1776 13.6245Z" fill="#0087C7"/>
</svg>
