<svg width="200" height="200" viewBox="0 0 200 200" fill="none" xmlns="http://www.w3.org/2000/svg">
<path fill-rule="evenodd" clip-rule="evenodd" d="M141.396 67.6124C141.222 67.6124 141.043 67.5899 140.869 67.5424C139.782 67.2506 139.136 66.133 139.425 65.045L141.762 56.3341C141.901 55.8112 142.241 55.3666 142.708 55.0965L158.842 45.7822C159.819 45.2193 161.063 45.5534 161.628 46.5288C162.193 47.5035 161.857 48.7508 160.88 49.3136L145.482 58.205L143.367 66.1004C143.121 67.0113 142.296 67.6124 141.396 67.6124Z" fill="#0087C7"/>
<path fill-rule="evenodd" clip-rule="evenodd" d="M166.113 38.7581C163.828 38.7581 161.729 40.2867 161.109 42.5983C160.37 45.356 162.014 48.202 164.77 48.941C166.108 49.2994 167.502 49.1152 168.704 48.4237C169.902 47.732 170.755 46.6153 171.116 45.279C171.856 42.5204 170.212 39.675 167.45 38.9355C167.004 38.8156 166.554 38.7584 166.113 38.7581ZM166.126 53.1998C165.323 53.1998 164.515 53.094 163.717 52.88C158.785 51.5593 155.85 46.4732 157.171 41.5428C158.492 36.6119 163.577 33.6772 168.508 34.9965C168.508 34.996 168.508 34.9963 168.508 34.9965C173.44 36.3171 176.375 41.4044 175.054 46.3342C174.413 48.7231 172.883 50.7192 170.743 51.9553C169.316 52.7789 167.731 53.1998 166.126 53.1998Z" fill="#0087C7"/>
<path fill-rule="evenodd" clip-rule="evenodd" d="M58.6068 67.6126C57.7065 67.6126 56.8821 67.0116 56.6399 66.1008L54.5248 58.2052L39.1229 49.3134C38.1452 48.7504 37.8138 47.5037 38.3745 46.5289C38.9394 45.5529 40.1841 45.2193 41.1612 45.7825L57.2946 55.0966C57.7619 55.3666 58.1011 55.8118 58.2413 56.3343L60.5775 65.0449C60.871 66.1331 60.225 67.251 59.1334 67.5425C58.9595 67.59 58.7807 67.6126 58.6068 67.6126Z" fill="#0087C7"/>
<path fill-rule="evenodd" clip-rule="evenodd" d="M32.5513 38.9358C29.79 39.6751 28.1501 42.5211 28.885 45.2795C29.2463 46.6156 30.1042 47.7326 31.302 48.4241C32.5005 49.1153 33.8931 49.2991 35.2312 48.9418C37.9883 48.2022 39.6319 45.3568 38.8927 42.5983C38.1537 39.8395 35.3079 38.1967 32.5513 38.9358ZM33.8768 53.2003C32.2711 53.2003 30.6861 52.7793 29.2631 51.9557C27.1187 50.7191 25.5888 48.7232 24.9474 46.3346C23.6264 41.4045 26.5614 36.3185 31.4931 34.9975C36.4247 33.6768 41.5094 36.6127 42.8304 41.5428C44.152 46.4732 41.2162 51.5598 36.2847 52.8808C35.4911 53.0941 34.679 53.2003 33.8768 53.2003Z" fill="#0087C7"/>
<path fill-rule="evenodd" clip-rule="evenodd" d="M159.861 154.485C159.513 154.485 159.164 154.397 158.841 154.212L142.709 144.898C142.241 144.627 141.901 144.182 141.761 143.66L139.425 134.949C139.136 133.861 139.781 132.743 140.869 132.452C141.956 132.16 143.073 132.806 143.366 133.893L145.482 141.789L160.88 150.68C161.857 151.243 162.192 152.49 161.628 153.465C161.25 154.119 160.566 154.485 159.861 154.485Z" fill="#0087C7"/>
<path fill-rule="evenodd" clip-rule="evenodd" d="M166.113 150.874C165.667 150.874 165.22 150.932 164.77 151.052C162.014 151.791 160.369 154.637 161.108 157.395C161.465 158.731 162.323 159.849 163.521 160.54C164.72 161.231 166.116 161.415 167.45 161.058C168.789 160.699 169.906 159.842 170.598 158.644C171.291 157.446 171.473 156.051 171.116 154.714C170.496 152.403 168.398 150.875 166.113 150.874ZM166.113 165.313C162.026 165.313 158.275 162.582 157.171 158.451C155.85 153.52 158.785 148.434 163.717 147.113C168.645 145.79 173.733 148.728 175.054 153.659C175.695 156.047 175.364 158.542 174.128 160.683C172.892 162.825 170.895 164.357 168.508 164.996C167.71 165.21 166.907 165.313 166.113 165.313Z" fill="#0087C7"/>
<path fill-rule="evenodd" clip-rule="evenodd" d="M40.1415 154.485C39.4362 154.485 38.7524 154.119 38.3742 153.465C37.8143 152.49 38.1448 151.243 39.1219 150.68L54.5245 141.788L56.6396 133.893C56.9293 132.806 58.0498 132.161 59.1331 132.452C60.2255 132.743 60.8703 133.861 60.5772 134.949L58.2414 143.659C58.101 144.182 57.761 144.627 57.2939 144.898L41.1614 154.211C40.8383 154.397 40.4897 154.485 40.1415 154.485Z" fill="#0087C7"/>
<path fill-rule="evenodd" clip-rule="evenodd" d="M33.8943 150.876C31.6053 150.876 29.5064 152.405 28.8905 154.716C28.5297 156.052 28.712 157.448 29.4045 158.646C30.0971 159.844 31.214 160.701 32.5521 161.059C35.3084 161.798 38.1547 160.156 38.8939 157.397C39.6336 154.639 37.9891 151.793 35.2324 151.054C34.787 150.934 34.3361 150.877 33.8943 150.876ZM33.8904 165.315C33.1001 165.315 32.2929 165.213 31.4943 164.998C29.1079 164.359 27.1107 162.827 25.8744 160.685C24.6388 158.544 24.3114 156.049 24.9486 153.661C26.2704 148.73 31.3584 145.795 36.2859 147.115C41.2182 148.436 44.1526 153.522 42.8316 158.452C41.7276 162.583 37.9764 165.315 33.8904 165.315Z" fill="#0087C7"/>
<path fill-rule="evenodd" clip-rule="evenodd" d="M171.029 80.0645H149.191C148.065 80.0645 147.152 79.1513 147.152 78.0252C147.153 76.8995 148.065 75.9868 149.191 75.9868L171.029 75.9863C172.155 75.9863 173.067 76.8995 173.067 78.0252C173.068 79.1513 172.154 80.0645 171.029 80.0645Z" fill="#0087C7"/>
<path fill-rule="evenodd" clip-rule="evenodd" d="M178.246 72.8463C175.391 72.8463 173.068 75.1699 173.068 78.0256C173.068 80.8816 175.391 83.2054 178.246 83.2054C181.101 83.205 183.424 80.8819 183.424 78.0256C183.424 75.1697 181.1 72.8464 178.246 72.8463ZM178.246 87.2832C173.14 87.2832 168.99 83.1302 168.99 78.0256C168.991 72.9213 173.14 68.7686 178.246 68.7686C183.348 68.7686 187.501 72.9216 187.501 78.0256C187.501 83.13 183.347 87.2832 178.246 87.2832Z" fill="#0087C7"/>
<path fill-rule="evenodd" clip-rule="evenodd" d="M50.8135 80.0645H28.9794C27.8536 80.0645 26.9404 79.1513 26.9404 78.0252C26.9409 76.8995 27.8536 75.9868 28.9793 75.9868L50.8135 75.9863C51.9383 75.9863 52.8516 76.8995 52.8516 78.0252C52.852 79.1513 51.9383 80.0645 50.8135 80.0645Z" fill="#0087C7"/>
<path fill-rule="evenodd" clip-rule="evenodd" d="M21.7586 72.8463C18.9037 72.8463 16.5797 75.1699 16.5797 78.0256C16.5803 80.8816 18.9033 83.2054 21.7578 83.2054C24.6172 83.205 26.9401 80.8819 26.9401 78.0256C26.9406 75.1697 24.6166 72.8464 21.7586 72.8463ZM21.7586 87.2832C16.6567 87.2832 12.502 83.1302 12.502 78.0256C12.5021 72.9213 16.6563 68.7686 21.7578 68.7686C26.8641 68.7686 31.0178 72.9216 31.0178 78.0256C31.0187 83.13 26.8636 87.2832 21.7586 87.2832Z" fill="#0087C7"/>
<path fill-rule="evenodd" clip-rule="evenodd" d="M171.029 124.008H149.191C148.065 124.008 147.152 123.095 147.152 121.969C147.153 120.843 148.065 119.93 149.191 119.93L171.029 119.93C172.155 119.93 173.067 120.843 173.067 121.969C173.068 123.095 172.154 124.008 171.029 124.008Z" fill="#0087C7"/>
<path fill-rule="evenodd" clip-rule="evenodd" d="M178.246 116.792C175.391 116.792 173.068 119.116 173.068 121.972C173.068 124.828 175.391 127.152 178.246 127.152C181.101 127.151 183.424 124.828 183.424 121.972C183.424 119.116 181.1 116.793 178.246 116.792ZM178.246 131.229C173.14 131.229 168.99 127.076 168.99 121.972C168.991 116.867 173.14 112.715 178.246 112.715C183.348 112.715 187.501 116.868 187.501 121.972C187.501 127.076 183.347 131.229 178.246 131.229Z" fill="#0087C7"/>
<path fill-rule="evenodd" clip-rule="evenodd" d="M50.8135 124.008H28.9794C27.8536 124.008 26.9404 123.095 26.9404 121.969C26.9409 120.843 27.8536 119.93 28.9793 119.93L50.8135 119.93C51.9383 119.93 52.8516 120.843 52.8516 121.969C52.852 123.095 51.9383 124.008 50.8135 124.008Z" fill="#0087C7"/>
<path fill-rule="evenodd" clip-rule="evenodd" d="M21.7586 116.792C18.9037 116.792 16.5797 119.116 16.5797 121.972C16.5803 124.828 18.9033 127.152 21.7578 127.152C24.6172 127.151 26.9401 124.828 26.9401 121.972C26.9406 119.116 24.6166 116.793 21.7586 116.792ZM21.7586 131.229C16.6567 131.229 12.502 127.076 12.502 121.972C12.5021 116.867 16.6563 112.715 21.7578 112.715C26.8641 112.715 31.0178 116.868 31.0178 121.972C31.0187 127.076 26.8636 131.229 21.7586 131.229Z" fill="#0087C7"/>
<path fill-rule="evenodd" clip-rule="evenodd" d="M100.002 48.4526C98.877 48.4526 97.9629 47.5398 97.9629 46.4138L97.9633 23.0867C97.9633 21.9603 98.8762 21.0479 100.002 21.0479C101.128 21.0475 102.041 21.9608 102.041 23.0868L102.041 46.4135C102.041 47.5398 101.127 48.4527 100.002 48.4526Z" fill="#0087C7"/>
<path fill-rule="evenodd" clip-rule="evenodd" d="M100.002 10.6894C97.1483 10.6894 94.824 13.013 94.824 15.8689C94.8249 18.7244 97.1476 21.0482 100.002 21.0482C102.857 21.0478 105.18 18.7246 105.18 15.8689C105.18 13.0128 102.856 10.6895 100.002 10.6894ZM100.002 25.126C94.8965 25.126 90.7461 20.973 90.7461 15.8689C90.7466 10.764 94.8963 6.61133 100.002 6.61133C105.109 6.61133 109.258 10.7643 109.258 15.8689C109.258 20.9729 105.108 25.126 100.002 25.126Z" fill="#0087C7"/>
<path fill-rule="evenodd" clip-rule="evenodd" d="M100.002 178.95C98.877 178.95 97.9629 178.036 97.9629 176.911L97.9633 153.583C97.9633 152.458 98.8762 151.545 100.002 151.545C101.128 151.544 102.041 152.458 102.041 153.584L102.041 176.91C102.041 178.036 101.127 178.95 100.002 178.95Z" fill="#0087C7"/>
<path fill-rule="evenodd" clip-rule="evenodd" d="M100.002 178.95C97.1483 178.95 94.824 181.274 94.824 184.128C94.8249 186.987 97.1476 189.31 100.002 189.31C102.857 189.31 105.18 186.987 105.18 184.128C105.18 181.273 102.856 178.95 100.002 178.95ZM100.002 193.388C94.8965 193.388 90.7461 189.234 90.7461 184.128C90.7466 179.026 94.8963 174.872 100.002 174.872C105.109 174.872 109.258 179.026 109.258 184.128C109.258 189.234 105.108 193.388 100.002 193.388Z" fill="#0087C7"/>
<path fill-rule="evenodd" clip-rule="evenodd" d="M74.6802 128.046C75.1513 128.046 75.6183 128.209 75.9966 128.526C79.3699 131.368 83.171 133.568 87.2999 135.064C88.1075 135.356 88.6421 136.123 88.6421 136.981L88.6426 146.669C88.6426 149.358 90.8297 151.545 93.5185 151.545L106.484 151.544C109.172 151.544 111.359 149.358 111.359 146.669L111.36 136.981C111.36 136.123 111.894 135.356 112.701 135.064C116.827 133.569 120.632 131.37 124.005 128.526C124.664 127.973 125.593 127.89 126.341 128.32L134.739 133.169C135.86 133.817 137.173 133.987 138.439 133.649C139.7 133.31 140.753 132.507 141.399 131.386L147.882 120.158C148.531 119.037 148.701 117.724 148.361 116.461C148.022 115.198 147.219 114.146 146.097 113.499L137.704 108.652C136.96 108.224 136.565 107.376 136.714 106.532C137.092 104.386 137.287 102.188 137.287 99.9994C137.288 97.8097 137.092 95.6119 136.714 93.4664C136.565 92.6215 136.96 91.7746 137.704 91.3459L146.097 86.4995C147.219 85.852 148.022 84.8001 148.361 83.5373C148.701 82.2737 148.531 80.9609 147.881 79.84L141.4 68.6127C140.754 67.4912 139.7 66.6877 138.439 66.3491C137.173 66.0108 135.86 66.181 134.739 66.8283L126.341 71.6788C125.598 72.1075 124.663 72.025 124.005 71.4719C120.632 68.628 116.826 66.4289 112.701 64.9347C111.895 64.6417 111.359 63.8757 111.359 63.0172L111.36 53.3285C111.36 50.6405 109.171 48.4534 106.483 48.4534L93.5188 48.4533C90.8303 48.4533 88.6421 50.6405 88.6421 53.3285L88.6426 63.0168C88.6426 63.8755 88.107 64.642 87.2999 64.9347C83.1758 66.4288 79.3692 68.6285 75.9966 71.4719C75.3387 72.0252 74.408 72.1078 73.6645 71.6788L65.2633 66.8284C64.1412 66.181 62.8286 66.0107 61.5627 66.3491C60.3019 66.6874 59.2477 67.4913 58.602 68.6127L52.1208 79.8399C50.778 82.1677 51.5763 85.1557 53.904 86.4996L62.2976 91.3457C63.0411 91.7748 63.436 92.6223 63.2874 93.4664C62.9092 95.6117 62.7139 97.8097 62.7139 99.9994C62.7141 102.191 62.9092 104.388 63.2874 106.532C63.4368 107.376 63.041 108.224 62.2976 108.653L53.9041 113.498C52.7832 114.146 51.9797 115.198 51.6399 116.461C51.3045 117.724 51.4743 119.038 52.1199 120.158L58.6026 131.386C59.2477 132.507 60.3011 133.311 61.5627 133.649C62.829 133.988 64.1412 133.817 65.2625 133.17L73.6651 128.319C73.9796 128.136 74.3316 128.046 74.6802 128.046ZM106.484 155.623H93.5188C88.5834 155.623 84.5642 151.607 84.5642 146.669L84.5644 138.384C80.946 136.927 77.564 134.972 74.4844 132.554L67.3017 136.701C65.2374 137.893 62.8242 138.208 60.5092 137.588C58.1945 136.967 56.2615 135.489 55.0722 133.425L48.5903 122.197C47.3965 120.133 47.0822 117.721 47.7023 115.406C48.3226 113.09 49.8008 111.159 51.8651 109.967L59.0442 105.822C58.7766 103.899 58.6359 101.947 58.6359 99.9994C58.6361 98.053 58.7763 96.1008 59.0438 94.1765L51.8656 90.031C47.5924 87.5627 46.1222 82.0761 48.59 77.8011L55.0722 66.5738C56.262 64.5093 58.1942 63.0308 60.5092 62.4103C62.825 61.7897 65.237 62.1049 67.3014 63.2972L74.4852 67.4444C77.5684 65.0244 80.9451 63.0695 84.5642 61.6143L84.5644 53.3285C84.5644 48.3917 88.5827 44.3755 93.5185 44.3755L106.484 44.375C111.419 44.375 115.437 48.3917 115.437 53.3285L115.438 61.6139C119.056 63.0695 122.437 65.0248 125.517 67.4446L132.701 63.2965C134.765 62.1046 137.177 61.7904 139.492 62.4103C141.808 63.0308 143.74 64.5094 144.933 66.5739L151.416 77.8009C153.884 82.0764 152.414 87.5629 148.136 90.0312L140.958 94.1765C141.226 96.1009 141.365 98.0532 141.365 99.9994C141.365 101.945 141.225 103.897 140.957 105.822L148.137 109.967C150.201 111.159 151.679 113.091 152.299 115.406C152.919 117.721 152.605 120.133 151.415 122.197L144.934 133.424C143.74 135.489 141.807 136.967 139.492 137.588C137.177 138.208 134.764 137.893 132.7 136.701L125.517 132.553C122.438 134.973 119.056 136.929 115.437 138.384L115.438 146.669C115.438 151.606 111.418 155.623 106.484 155.623Z" fill="#0087C7"/>
<path fill-rule="evenodd" clip-rule="evenodd" d="M100.001 73.8981C85.6108 73.8981 73.9031 85.6064 73.9031 99.9981C73.9039 114.389 85.6099 126.097 100.001 126.097C114.393 126.097 126.099 114.389 126.099 99.9981C126.1 85.606 114.393 73.8981 100.001 73.8981ZM100.001 130.175C83.3638 130.175 69.8252 116.638 69.8252 99.9981C69.8256 83.3575 83.3629 69.8203 100.001 69.8203C116.64 69.8199 130.177 83.3579 130.177 99.9981C130.178 116.638 116.64 130.175 100.001 130.175Z" fill="#0087C7"/>
<path fill-rule="evenodd" clip-rule="evenodd" d="M93.6435 88.5408C91.8638 88.5408 90.4148 89.9901 90.4148 91.7711C90.415 91.8143 90.4148 91.8582 90.4148 91.9016C90.458 92.977 89.6585 93.8997 88.5841 94.0089C86.936 94.1769 85.6914 95.5578 85.6914 97.2214C85.6917 99.0024 87.1398 100.451 88.9196 100.451H111.085C112.864 100.451 114.313 99.0024 114.313 97.2214C114.313 95.5578 113.068 94.177 111.42 94.0089C110.35 93.8993 109.547 92.9771 109.589 91.9016C109.59 91.8578 109.589 91.8144 109.589 91.7711C109.59 89.9898 108.141 88.541 106.361 88.541C106.068 88.5408 105.775 88.5806 105.494 88.6583C104.471 88.9422 103.4 88.3924 103.035 87.3947C102.572 86.1266 101.353 85.275 100.002 85.275C98.6516 85.2746 97.432 86.1266 96.9689 87.3947C96.6043 88.3918 95.5333 88.9416 94.5096 88.6583C94.2293 88.5806 93.9362 88.541 93.6435 88.5408ZM111.085 104.529H88.9202C84.8888 104.529 81.6133 101.251 81.6133 97.2214C81.6134 94.0517 83.6142 91.3344 86.477 90.3286C87.1483 86.9873 90.1089 84.4633 93.6431 84.4633C93.7323 84.4632 93.8214 84.4649 93.9107 84.4683C95.2453 82.4619 97.5255 81.1973 100.002 81.1973C102.479 81.197 104.759 82.4622 106.093 84.4683C106.183 84.4647 106.272 84.4633 106.361 84.4633C109.9 84.4632 112.856 86.9877 113.527 90.3286C116.39 91.3346 118.395 94.0521 118.395 97.2214C118.395 101.25 115.115 104.529 111.085 104.529Z" fill="#0087C7"/>
<path fill-rule="evenodd" clip-rule="evenodd" d="M91.7436 112.386C90.6187 112.386 89.7046 111.473 89.7046 110.347L89.705 102.489C89.705 101.363 90.6179 100.45 91.7436 100.45C92.8694 100.45 93.7825 101.363 93.7825 102.489L93.7831 110.347C93.7831 111.473 92.8691 112.386 91.7436 112.386Z" fill="#0087C7"/>
<path fill-rule="evenodd" clip-rule="evenodd" d="M108.26 112.386C107.135 112.386 106.221 111.473 106.221 110.347L106.221 102.489C106.221 101.363 107.134 100.45 108.26 100.45C109.386 100.45 110.299 101.363 110.299 102.489L110.3 110.347C110.3 111.473 109.386 112.386 108.26 112.386Z" fill="#0087C7"/>
<path fill-rule="evenodd" clip-rule="evenodd" d="M91.7442 112.386C90.7589 112.386 89.9601 113.187 89.9601 114.171C89.9609 115.154 90.7587 115.955 91.7442 115.955C92.7298 115.955 93.5282 115.154 93.5282 114.171C93.5286 113.186 92.7298 112.386 91.7442 112.386ZM91.7442 120.032C88.512 120.032 85.8823 117.403 85.8823 114.171C85.8827 110.938 88.5117 108.309 91.7442 108.309C94.9776 108.308 97.6062 110.938 97.6062 114.171C97.6069 117.403 94.9768 120.032 91.7442 120.032Z" fill="#0087C7"/>
<path fill-rule="evenodd" clip-rule="evenodd" d="M108.259 112.386C107.279 112.386 106.475 113.187 106.475 114.171C106.476 115.154 107.278 115.955 108.259 115.955C109.245 115.955 110.043 115.154 110.043 114.171C110.043 113.186 109.245 112.386 108.259 112.386ZM108.259 120.032C105.027 120.032 102.397 117.403 102.397 114.171C102.397 110.938 105.026 108.309 108.259 108.309C111.492 108.308 114.121 110.938 114.121 114.171C114.122 117.403 111.492 120.032 108.259 120.032Z" fill="#0087C7"/>
</svg>
