<svg width="200" height="200" viewBox="0 0 200 200" fill="none" xmlns="http://www.w3.org/2000/svg">
<path d="M97.2017 171.692V133.606C97.2017 132.059 98.4555 130.806 100.002 130.806C101.549 130.806 102.803 132.059 102.803 133.606V171.692L102.799 171.837C102.724 173.316 101.5 174.493 100.002 174.493C98.5038 174.493 97.2805 173.316 97.2054 171.837L97.2017 171.692Z" fill="#0087C7"/>
<path d="M153.398 30.3633C154.944 30.3633 156.198 31.6171 156.198 33.1638V45.1126C156.198 46.6592 154.944 47.9131 153.398 47.9131H46.9797C45.4331 47.9131 44.1793 46.6592 44.1792 45.1126V33.1638L44.183 33.0195C44.258 31.5399 45.4814 30.3633 46.9797 30.3633H153.398ZM49.7801 42.3121H150.597V35.9642H49.7801V42.3121Z" fill="#0087C7"/>
<path d="M172.814 42.3115C178.098 42.3115 181.727 47.386 181.198 52.1422C181.197 52.1532 181.196 52.1644 181.195 52.1754L171.86 127.975L171.859 127.974C171.31 132.766 167.106 136.407 162.359 136.407H38.0181C33.2705 136.407 29.0668 132.766 28.5172 127.974V127.975L19.1928 52.2564C18.1487 46.6372 22.6958 42.3116 27.5628 42.3115H172.814ZM27.5628 47.9125C25.745 47.9125 24.3505 49.4963 24.708 51.2838C24.7217 51.3524 24.7329 51.4216 24.7415 51.491L34.0761 127.29L34.0802 127.323C34.2928 129.237 36.0552 130.806 38.0181 130.806H162.359C164.322 130.806 166.084 129.237 166.297 127.323C166.298 127.312 166.299 127.301 166.301 127.29L175.632 51.5166C175.846 49.5549 174.25 47.9125 172.814 47.9125H27.5628Z" fill="#0087C7"/>
<path d="M82.6386 18.9739C82.6386 17.1601 81.2787 15.8002 79.4648 15.8002H39.138C37.3242 15.8002 35.9643 17.1601 35.9642 18.9739V42.3113H164.039V26.0684C164.039 25.8767 164.025 25.7422 164.011 25.6524C163.766 25.5847 163.355 25.5272 162.663 25.5071C161.906 25.4852 161.161 25.5085 160.119 25.5085H85.4391C83.8925 25.5084 82.6386 24.2546 82.6386 22.708V18.9739ZM88.2396 19.9075H160.119C160.943 19.9075 161.972 19.8838 162.825 19.9086C163.7 19.9339 164.728 20.0113 165.703 20.3113C166.732 20.6281 167.83 21.2337 168.619 22.3771C169.385 23.4862 169.64 24.7834 169.64 26.0684V45.1118C169.64 46.6584 168.386 47.9122 166.84 47.9123H33.1638C31.6171 47.9123 30.3633 46.6584 30.3633 45.1118V18.9739C30.3633 14.0668 34.2308 10.1993 39.138 10.1992H79.4648C84.372 10.1992 88.2395 14.0668 88.2396 18.9739V19.9075Z" fill="#0087C7"/>
<path d="M80.5397 97.3898C81.1564 98.8082 80.5066 100.458 79.0882 101.075C77.6699 101.691 76.0201 101.041 75.4034 99.6232L80.5397 97.3898ZM81.219 70.0152C89.1146 62.1195 100.794 59.9999 110.453 64.1995C111.872 64.8162 112.522 66.466 111.905 67.8844C111.289 69.3027 109.639 69.9525 108.22 69.3359C100.712 66.0712 91.4932 67.6786 85.2002 73.9547C78.8582 80.6536 77.2852 89.9043 80.5397 97.3898L75.4034 99.6232C71.195 89.9439 73.346 78.3009 81.1687 70.0664L81.219 70.0152Z" fill="#0087C7"/>
<path d="M120.916 77.2681C122.334 76.6514 123.984 77.3015 124.6 78.7199C128.809 88.3992 126.658 100.042 118.835 108.276C118.819 108.294 118.802 108.311 118.785 108.328C110.889 116.223 99.2096 118.343 89.5505 114.143C88.1321 113.527 87.4819 111.877 88.0986 110.458C88.7153 109.04 90.3651 108.39 91.7835 109.007C99.2908 112.271 108.507 110.665 114.8 104.391C121.045 97.797 122.669 88.7288 119.613 81.3057L119.464 80.9529L119.41 80.8196C118.888 79.4327 119.542 77.8655 120.916 77.2681Z" fill="#0087C7"/>
<path d="M104.835 59.5584C106.096 58.7482 107.761 59.0764 108.625 60.2804L108.706 60.3997L112.066 65.6273C112.903 66.9283 112.526 68.6611 111.225 69.4975L105.997 72.8579C104.696 73.6942 102.964 73.3176 102.127 72.0166C101.291 70.7156 101.668 68.9828 102.969 68.1464L105.84 66.3001L103.994 63.4285L103.919 63.3054C103.182 62.0202 103.575 60.3686 104.835 59.5584Z" fill="#0087C7"/>
<path d="M94.3798 105.487C95.6808 104.651 97.4135 105.027 98.2499 106.328C99.0862 107.629 98.7095 109.362 97.4086 110.199L94.5363 112.045L96.3827 114.916C97.219 116.217 96.8424 117.95 95.5414 118.787C94.2404 119.623 92.5076 119.246 91.6712 117.945L88.3108 112.718C87.4745 111.417 87.8511 109.684 89.1521 108.848L94.3798 105.487Z" fill="#0087C7"/>
<path d="M145.369 156.76V152.839H136.781V156.76C136.781 158.307 135.527 159.56 133.981 159.56C132.434 159.56 131.18 158.307 131.18 156.76V150.039C131.18 148.492 132.434 147.238 133.981 147.238H148.17C149.716 147.238 150.97 148.492 150.97 150.039V156.76C150.97 158.307 149.716 159.56 148.17 159.56C146.623 159.56 145.369 158.307 145.369 156.76Z" fill="#0087C7"/>
<path d="M175.614 164.602C175.614 161.668 173.508 159.561 170.573 159.561H134.354C131.42 159.561 129.313 161.668 129.313 164.602V179.164C129.313 182.098 131.42 184.205 134.354 184.205H170.573C173.134 184.205 175.614 181.725 175.614 179.164V164.602ZM181.215 179.164C181.215 184.818 176.227 189.806 170.573 189.806H134.354C128.327 189.806 123.712 185.192 123.712 179.164V164.602C123.712 158.574 128.327 153.96 134.354 153.96H170.573C176.601 153.96 181.215 158.574 181.215 164.602V179.164Z" fill="#0087C7"/>
<path d="M40.4449 156.76V152.839H31.8568V156.76C31.8568 158.307 30.603 159.56 29.0563 159.56C27.5097 159.56 26.2559 158.307 26.2559 156.76V150.039C26.2559 148.492 27.5097 147.238 29.0563 147.238H43.2453C44.792 147.238 46.0458 148.492 46.0458 150.039V156.76C46.0458 158.307 44.792 159.56 43.2453 159.56C41.6987 159.56 40.4449 158.307 40.4449 156.76Z" fill="#0087C7"/>
<path d="M70.6901 164.602C70.6901 161.668 68.5832 159.561 65.6491 159.561H29.43C26.4959 159.561 24.389 161.668 24.389 164.602V179.164C24.389 182.098 26.4959 184.205 29.43 184.205H65.6491C67.977 184.205 70.3688 181.955 70.6901 179.023V164.602ZM76.2911 179.164C76.2911 179.249 76.2871 179.334 76.2794 179.418C75.804 184.647 71.5062 189.806 65.6491 189.806H29.43C23.4026 189.806 18.7881 185.192 18.7881 179.164V164.602C18.7881 158.574 23.4026 153.96 29.43 153.96H65.6491C71.6765 153.96 76.2911 158.574 76.2911 164.602V179.164Z" fill="#0087C7"/>
<path d="M147.424 168.894L147.568 168.897C149.048 168.972 150.224 170.196 150.224 171.694C150.224 173.192 149.048 174.416 147.568 174.491L147.424 174.495H52.5812C51.0346 174.495 49.7808 173.241 49.7808 171.694C49.7808 170.147 51.0346 168.894 52.5812 168.894H147.424Z" fill="#0087C7"/>
<path d="M49.7806 171.693C49.7806 170.353 48.6942 169.266 47.3538 169.266C46.0134 169.266 44.9266 170.353 44.9266 171.693C44.9267 173.034 46.0134 174.12 47.3538 174.12C48.6942 174.12 49.7806 173.034 49.7806 171.693ZM55.3816 171.693C55.3815 176.127 51.7875 179.721 47.3538 179.721C42.9201 179.721 39.3257 176.127 39.3257 171.693C39.3257 167.259 42.92 163.665 47.3538 163.665C51.7875 163.665 55.3816 167.259 55.3816 171.693Z" fill="#0087C7"/>
<path d="M154.704 171.693C154.704 170.353 153.618 169.266 152.277 169.266C150.937 169.266 149.85 170.353 149.85 171.693C149.85 173.034 150.937 174.12 152.277 174.12C153.618 174.12 154.704 173.034 154.704 171.693ZM160.305 171.693C160.305 176.127 156.711 179.721 152.277 179.721C147.843 179.721 144.249 176.127 144.249 171.693C144.249 167.259 147.843 163.665 152.277 163.665C156.711 163.665 160.305 167.259 160.305 171.693Z" fill="#0087C7"/>
</svg>
