<svg width="200" height="200" viewBox="0 0 200 200" fill="none" xmlns="http://www.w3.org/2000/svg">
<path d="M106.372 142.655C107.838 142.655 109.027 141.466 109.027 140C109.027 138.533 107.838 137.345 106.372 137.345H93.6277C92.1614 137.345 90.9727 138.533 90.9727 140C90.9727 141.466 92.1614 142.655 93.6277 142.655H106.372Z" fill="#0087C7"/>
<path d="M182.66 23.7073H127.867C120.07 17.93 110.428 14.5078 100 14.5078C89.5725 14.5078 79.9301 17.93 72.1332 23.7073H17.3401C12.948 23.7073 9.375 27.2806 9.375 31.6724V141.932C9.375 147.3 13.742 151.667 19.1101 151.667H44.7754C46.2417 151.667 47.4304 150.479 47.4304 149.012C47.4304 147.545 46.2417 146.357 44.7754 146.357H19.1101C16.67 146.357 14.6851 144.372 14.6851 141.932V134.073H185.315V141.932C185.315 144.372 183.33 146.357 180.89 146.357H57.1655C55.6992 146.357 54.5105 147.545 54.5105 149.012C54.5105 150.479 55.6992 151.667 57.1655 151.667H81.9971V170.449H69.2017C65.7859 170.449 63.0066 173.228 63.0066 176.644V179.297C63.0066 182.712 65.7859 185.492 69.2017 185.492H130.798C134.214 185.492 136.993 182.712 136.993 179.297V176.644C136.993 173.228 134.214 170.449 130.798 170.449H118.003V151.667H180.89C186.258 151.667 190.625 147.3 190.625 141.932V31.6724C190.625 27.2806 187.052 23.7073 182.66 23.7073ZM87.3072 151.667H112.693V170.449H87.3072V151.667ZM130.798 175.759C131.286 175.759 131.683 176.156 131.683 176.644V179.297C131.683 179.785 131.286 180.182 130.798 180.182H69.2017C68.7138 180.182 68.3167 179.785 68.3167 179.297V176.644C68.3167 176.156 68.7138 175.759 69.2017 175.759H130.798ZM100 19.8179C122.936 19.8179 141.595 38.4774 141.595 61.4133C141.595 65.6628 140.952 69.7643 139.762 73.6286C138.587 73.4102 137.383 73.2902 136.159 73.2771C137.388 69.542 138.055 65.5545 138.055 61.4133C138.055 40.4297 120.984 23.3579 99.9996 23.3579C79.2171 23.3579 62.2752 40.1041 61.952 60.8112C61.9492 60.8618 61.9442 60.9114 61.9442 60.9627C61.9442 60.9931 61.9478 61.0229 61.9488 61.0533C61.9478 61.1733 61.9442 61.293 61.9442 61.4137C61.9442 71.614 65.9792 80.8896 72.5357 87.7293C72.6079 87.8241 72.6847 87.9169 72.7714 88.0036C72.8454 88.0776 72.9233 88.1449 73.0033 88.2082C79.7701 95.0256 89.0931 99.3006 99.3971 99.4617C99.4474 99.4645 99.4977 99.4691 99.5486 99.4691C99.5791 99.4691 99.6088 99.4656 99.6393 99.4645C99.7596 99.4656 99.8793 99.4691 99.9996 99.4691C105.384 99.4691 110.509 98.3395 115.156 96.3128C115.281 97.5324 115.517 98.7186 115.844 99.867C110.958 101.888 105.608 103.009 99.9996 103.009C77.0637 103.009 58.4042 84.3492 58.4042 61.4133C58.4042 38.4774 77.0641 19.8179 100 19.8179ZM131.342 64.519H132.597C132.279 67.8792 131.45 71.0918 130.191 74.081C122.668 76.2355 116.872 82.5081 115.409 90.2954C111.425 92.4301 106.952 93.7622 102.204 94.0797V92.7547C102.204 91.2881 101.015 90.0997 99.549 90.0997C98.0827 90.0997 96.894 91.2881 96.894 92.7547V94.01C89.8758 93.3466 83.496 90.4597 78.4681 86.0619L79.3966 85.1334C80.4335 84.0965 80.4335 82.4153 79.3966 81.3788C78.3597 80.3419 76.6786 80.3416 75.6421 81.3784L74.7641 82.2564C70.5147 77.1205 67.8019 70.6705 67.3307 63.617H68.6586C70.1249 63.617 71.3136 62.4286 71.3136 60.962C71.3136 59.4953 70.1249 58.3069 68.6586 58.3069H67.4033C68.0667 51.2888 70.9536 44.9086 75.3514 39.8807L76.28 40.8092C76.7982 41.3275 77.4779 41.5866 78.1573 41.5866C78.8366 41.5866 79.5163 41.3275 80.0349 40.8089C81.0718 39.772 81.0714 38.0908 80.0349 37.0543L79.157 36.1767C84.8228 31.4887 92.088 28.668 100 28.668C108.236 28.668 115.771 31.7255 121.532 36.764L120.603 37.6926C119.566 38.7295 119.566 40.4106 120.603 41.4472C121.122 41.9658 121.801 42.2249 122.481 42.2249C123.16 42.2249 123.84 41.9658 124.358 41.4475L125.236 40.5696C129.485 45.7055 132.198 52.1554 132.669 59.2089H131.341C129.875 59.2089 128.686 60.3973 128.686 61.864C128.686 63.3306 129.875 64.519 131.342 64.519ZM185.315 128.763H14.6851V31.6724C14.6851 30.2082 15.8759 29.0174 17.3401 29.0174H66.1105C64.8846 30.2996 63.7319 31.6519 62.6561 33.0661H23.1585C20.7183 33.0661 18.7334 35.051 18.7334 37.4912V120.29C18.7334 122.73 20.7183 124.715 23.1585 124.715H176.842C179.282 124.715 181.267 122.73 181.267 120.29V61.0593C181.267 59.5927 180.078 58.4043 178.612 58.4043C177.145 58.4043 175.956 59.5927 175.956 61.0593V119.404H24.0435V38.3762H59.1547C55.2992 45.1847 53.0945 53.0461 53.0945 61.4133C53.0945 87.2772 74.1361 108.319 100 108.319C106.352 108.319 112.411 107.048 117.941 104.75C121.578 110.905 128.279 115.045 135.931 115.045C144.507 115.045 152.34 109.667 155.423 101.662C155.95 100.294 155.268 98.7572 153.9 98.2301C152.531 97.7037 150.995 98.3851 150.468 99.7534C148.168 105.724 142.326 109.735 135.931 109.735C127.343 109.735 120.355 102.748 120.355 94.1587C120.355 85.5698 127.343 78.5825 135.931 78.5825C142.615 78.5825 148.545 82.8366 150.686 89.1679C151.156 90.5574 152.664 91.3022 154.051 90.8325C155.441 90.3631 156.186 88.8561 155.716 87.467C153.853 81.9562 149.848 77.621 144.816 75.2559C146.171 70.8783 146.906 66.2303 146.906 61.4133C146.906 53.0461 144.701 45.1847 140.845 38.3762H175.956V48.6692C175.956 50.1358 177.145 51.3242 178.612 51.3242C180.078 51.3242 181.267 50.1358 181.267 48.6692V37.4912C181.267 35.051 179.282 33.0661 176.842 33.0661H137.344C136.268 31.6522 135.116 30.2996 133.89 29.0174H182.66C184.124 29.0174 185.315 30.2082 185.315 31.6724V128.763Z" fill="#0087C7"/>
<path d="M123.718 58.7578H122.317C121.102 48.4818 112.931 40.311 102.655 39.0957V34.5085C102.655 33.0419 101.466 31.8535 99.9998 31.8535C98.5335 31.8535 97.3447 33.0419 97.3447 34.5085V39.0957C86.1971 40.4144 77.5205 49.9166 77.5205 61.4128C77.5205 73.8079 87.6047 83.8921 99.9998 83.8921C111.496 83.8921 120.999 75.2155 122.317 64.0679H123.718C125.184 64.0679 126.373 62.8795 126.373 61.4128C126.373 59.9462 125.184 58.7578 123.718 58.7578ZM99.9998 78.582C90.5326 78.582 82.8306 70.88 82.8306 61.4128C82.8306 52.8484 89.134 45.7298 97.3447 44.4497V61.4128C97.3447 62.8795 98.5335 64.0679 99.9998 64.0679H116.963C115.683 72.2786 108.564 78.582 99.9998 78.582ZM102.655 58.7578V44.4497C110 45.5949 115.818 51.4126 116.963 58.7578H102.655Z" fill="#0087C7"/>
<path d="M141.73 88.9244L134.917 95.7372L130.132 90.9517C129.095 89.9152 127.414 89.9152 126.378 90.9517C125.341 91.989 125.341 93.6698 126.378 94.7067L133.04 101.369C133.538 101.867 134.213 102.146 134.917 102.146C135.622 102.146 136.297 101.867 136.795 101.369L145.485 92.6782C146.522 91.6413 146.522 89.9602 145.485 88.9237C144.448 87.8875 142.767 87.8871 141.73 88.9244Z" fill="#0087C7"/>
</svg>
