<svg width="46" height="46" viewBox="0 0 46 46" fill="none" xmlns="http://www.w3.org/2000/svg">
<path d="M10.4569 15.9447H11.7066C12.5314 15.9447 13.2025 15.2735 13.2025 14.4488V11.7741C13.2025 10.9494 12.5314 10.2782 11.7066 10.2782H10.4569C9.63215 10.2782 8.96102 10.9494 8.96102 11.7741V14.4488C8.96102 15.2744 9.63215 15.9447 10.4569 15.9447ZM10.0391 11.775C10.0391 11.545 10.226 11.3572 10.4569 11.3572H11.7066C11.9366 11.3572 12.1244 11.5441 12.1244 11.775V14.4497C12.1244 14.6797 11.9375 14.8674 11.7066 14.8674H10.4569C10.2269 14.8674 10.0391 14.6806 10.0391 14.4497V11.775ZM16.1611 15.9447H17.4108C18.2356 15.9447 18.9067 15.2735 18.9067 14.4488V11.7741C18.9067 10.9494 18.2356 10.2782 17.4108 10.2782H16.1611C15.3363 10.2782 14.6652 10.9494 14.6652 11.7741V14.4488C14.6652 15.2744 15.3363 15.9447 16.1611 15.9447ZM15.7433 11.775C15.7433 11.545 15.9302 11.3572 16.1611 11.3572H17.4108C17.6408 11.3572 17.8286 11.5441 17.8286 11.775V14.4497C17.8286 14.6797 17.6417 14.8674 17.4108 14.8674H16.1611C15.9311 14.8674 15.7433 14.6806 15.7433 14.4497V11.775ZM21.8644 15.9447H23.1141C23.9389 15.9447 24.61 15.2735 24.61 14.4488V11.7741C24.61 10.9494 23.9389 10.2782 23.1141 10.2782H21.8644C21.0396 10.2782 20.3685 10.9494 20.3685 11.7741V14.4488C20.3694 15.2744 21.0405 15.9447 21.8644 15.9447ZM21.4475 11.775C21.4475 11.545 21.6344 11.3572 21.8653 11.3572H23.115C23.345 11.3572 23.5328 11.5441 23.5328 11.775V14.4497C23.5328 14.6797 23.3459 14.8674 23.115 14.8674H21.8653C21.6353 14.8674 21.4475 14.6806 21.4475 14.4497V11.775ZM13.2025 22.8501V20.1754C13.2025 19.3506 12.5314 18.6795 11.7066 18.6795H10.4569C9.63215 18.6795 8.96102 19.3506 8.96102 20.1754V22.8501C8.96102 23.6748 9.63215 24.346 10.4569 24.346H11.7066C12.5314 24.346 13.2025 23.6748 13.2025 22.8501ZM10.0391 22.8501V20.1754C10.0391 19.9454 10.226 19.7576 10.4569 19.7576H11.7066C11.9366 19.7576 12.1244 19.9445 12.1244 20.1754V22.8501C12.1244 23.0801 11.9375 23.2678 11.7066 23.2678H10.4569C10.2269 23.2678 10.0391 23.081 10.0391 22.8501ZM16.1611 24.346H17.4108C18.2356 24.346 18.9067 23.6748 18.9067 22.8501V20.1754C18.9067 19.3506 18.2356 18.6795 17.4108 18.6795H16.1611C15.3363 18.6795 14.6652 19.3506 14.6652 20.1754V22.8501C14.6652 23.6748 15.3363 24.346 16.1611 24.346ZM15.7433 20.1754C15.7433 19.9454 15.9302 19.7576 16.1611 19.7576H17.4108C17.6408 19.7576 17.8286 19.9445 17.8286 20.1754V22.8501C17.8286 23.0801 17.6417 23.2678 17.4108 23.2678H16.1611C15.9311 23.2678 15.7433 23.081 15.7433 22.8501V20.1754ZM21.8644 24.346H23.1141C23.9389 24.346 24.61 23.6748 24.61 22.8501V20.1754C24.61 19.3506 23.9389 18.6795 23.1141 18.6795H21.8644C21.0396 18.6795 20.3685 19.3506 20.3685 20.1754V22.8501C20.3694 23.6748 21.0405 24.346 21.8644 24.346ZM21.4475 20.1754C21.4475 19.9454 21.6344 19.7576 21.8653 19.7576H23.115C23.345 19.7576 23.5328 19.9445 23.5328 20.1754V22.8501C23.5328 23.0801 23.3459 23.2678 23.115 23.2678H21.8653C21.6353 23.2678 21.4475 23.081 21.4475 22.8501V20.1754ZM44.1133 41.1081H42.0496C42.1367 40.8997 42.1852 40.6715 42.1852 40.4316V30.4652C42.1852 29.4976 41.3982 28.7106 40.4306 28.7106H37.8332V26.9847C37.8332 26.1635 37.1531 25.4951 36.3175 25.4951H29.7778C28.9423 25.4951 28.263 26.1635 28.263 26.9847V28.7106H27.582V8.75537H28.5937C28.8911 8.75537 29.1327 8.51369 29.1327 8.21631V4.35303C29.1327 4.05564 28.8911 3.81396 28.5937 3.81396H4.97824C4.68086 3.81396 4.43918 4.05564 4.43918 4.35303V8.21631C4.43918 8.51369 4.68086 8.75537 4.97824 8.75537H5.98988V31.9395C4.76082 32.4049 4.0268 33.9898 3.8525 35.4084C3.73031 36.4003 3.89922 37.279 4.32598 37.8845C4.60629 38.2825 5.11391 38.7425 5.98988 38.8791V41.1072H1.88672C1.58934 41.1072 1.34766 41.3489 1.34766 41.6463C1.34766 41.9437 1.58934 42.1853 1.88672 42.1853H44.1133C44.4107 42.1853 44.6523 41.9437 44.6523 41.6463C44.6523 41.3489 44.4107 41.1081 44.1133 41.1081ZM41.108 30.4652V32.7248C41.108 32.9871 40.9777 33.2935 40.6911 33.3456L35.1118 34.3617V33.3142C35.1118 32.8604 34.7426 32.4912 34.2889 32.4912H31.8074C31.3537 32.4912 30.9844 32.8604 30.9844 33.3142V34.3617L25.4051 33.3456C25.1185 33.2935 24.9882 32.9871 24.9882 32.7248V30.4652C24.9882 30.0924 25.2919 29.7887 25.6648 29.7887H40.4315C40.8043 29.7887 41.108 30.0924 41.108 30.4652ZM34.0337 33.5693V35.9367C34.0337 36.4803 33.5917 36.9214 33.0481 36.9214C32.5046 36.9214 32.0634 36.4794 32.0634 35.9367V33.5693H34.0337ZM35.0606 28.7106H31.0365V28.1697H35.0606V28.7106ZM29.3412 26.9847C29.3412 26.7619 29.5415 26.5732 29.7778 26.5732H36.3175C36.5547 26.5732 36.7551 26.7619 36.7551 26.9847V28.7106H36.1379V27.6306C36.1379 27.3333 35.8962 27.0916 35.5988 27.0916H30.4966C30.1992 27.0916 29.9575 27.3333 29.9575 27.6306V28.7106H29.3403V26.9847H29.3412ZM5.5173 4.89209H28.0537V7.67725H5.5173V4.89209ZM5.20734 37.2637C4.93871 36.8828 4.83539 36.2547 4.92254 35.5405C5.06809 34.3572 5.70418 33.0716 6.52895 32.9018C7.35371 33.0716 7.9898 34.3572 8.13535 35.5405C8.2234 36.2547 8.11918 36.8837 7.85055 37.2637C7.57922 37.6482 7.13629 37.8432 6.53434 37.8432C6.53254 37.8432 6.52984 37.8432 6.52805 37.8432C6.52625 37.8432 6.52535 37.8432 6.52355 37.8432C5.9216 37.8423 5.47867 37.6482 5.20734 37.2637ZM7.06801 38.88C7.94309 38.7434 8.4507 38.2834 8.73191 37.8854C9.15957 37.2799 9.32758 36.4003 9.20539 35.4093C9.03109 33.9898 8.29707 32.4049 7.06801 31.9404V8.75537H26.5039V28.7106H25.6657C24.698 28.7106 23.911 29.4976 23.911 30.4652V40.4316C23.911 40.6715 23.9595 40.8997 24.0467 41.1081H21.6586V29.0511H22.195C22.4924 29.0511 22.7341 28.8094 22.7341 28.512C22.7341 28.2146 22.4924 27.9729 22.195 27.9729H11.3769C11.0795 27.9729 10.8379 28.2146 10.8379 28.512C10.8379 28.8094 11.0795 29.0511 11.3769 29.0511H11.9133V41.1081H7.06801V38.88ZM16.2464 29.0511V34.5405H15.5969C15.2995 34.5405 15.0578 34.7822 15.0578 35.0796C15.0578 35.377 15.2995 35.6187 15.5969 35.6187H16.2464V41.1081H12.9905V29.0511H16.2464ZM17.3246 35.6187H17.9741C18.2715 35.6187 18.5132 35.377 18.5132 35.0796C18.5132 34.7822 18.2715 34.5405 17.9741 34.5405H17.3246V29.0511H20.5805V41.1081H17.3246V35.6187ZM25.6657 41.1081C25.2928 41.1081 24.9891 40.8044 24.9891 40.4316V34.3456C25.061 34.3707 25.1356 34.3914 25.2129 34.4058L30.9853 35.4578V35.9367C30.9853 37.0741 31.9107 37.9995 33.0481 37.9995C34.1855 37.9995 35.1118 37.0741 35.1118 35.9367V35.4578L40.8843 34.4058C40.9616 34.3914 41.0352 34.3707 41.108 34.3456V40.4316C41.108 40.8044 40.8043 41.1081 40.4315 41.1081H25.6657ZM32.5091 35.6438C32.5091 35.3464 32.7507 35.1047 33.0481 35.1047C33.3455 35.1047 33.5872 35.3464 33.5872 35.6438C33.5872 35.9412 33.3455 36.1829 33.0481 36.1829C32.7507 36.1829 32.5091 35.9412 32.5091 35.6438Z" fill="black"/>
</svg>
