<svg width="47" height="46" viewBox="0 0 47 46" fill="none" xmlns="http://www.w3.org/2000/svg">
<path d="M35.3693 34.26C33.9318 34.26 32.7617 35.4301 32.7617 36.8676C32.7617 38.3051 33.9318 39.4753 35.3693 39.4753C36.8068 39.4753 37.977 38.3051 37.977 36.8676C37.977 35.4301 36.8068 34.26 35.3693 34.26ZM35.3693 38.0378C34.7246 38.0378 34.1992 37.5131 34.1992 36.8676C34.1992 36.2222 34.7239 35.6975 35.3693 35.6975C36.0148 35.6975 36.5395 36.2222 36.5395 36.8676C36.5395 37.5131 36.0148 38.0378 35.3693 38.0378Z" fill="black"/>
<path d="M43.9693 12.3689C42.9458 9.51759 41.1496 7.04365 38.777 5.2094C38.7756 5.20797 38.7734 5.20653 38.772 5.20509C38.7612 5.19647 38.7512 5.18712 38.7404 5.1785C34.4509 1.87081 28.8425 0.983154 23.7394 2.80519C21.9446 3.45134 20.3145 4.38715 18.8943 5.58747C18.872 5.60256 18.8497 5.61909 18.8296 5.63634C16.9321 7.25065 15.4457 9.30197 14.4919 11.5905C14.1656 11.543 13.8335 11.5114 13.4742 11.5114C9.48655 11.5423 6.24211 14.8083 6.24211 18.7916C6.24211 21.5078 7.7752 23.907 10.0199 25.1547C9.11064 25.4365 8.24311 25.8232 7.44458 26.3184C6.43473 26.92 5.51833 27.6854 4.7658 28.5494C4.61558 28.6931 4.48117 28.8541 4.34533 29.0173L4.26698 29.1129C2.6347 31.2167 1.77148 33.7229 1.77148 36.3615V43.4009C1.77148 43.7984 2.09277 44.1197 2.49023 44.1197H27.129C27.1347 44.1197 27.1398 44.1168 27.1455 44.1168H39.7215C40.0449 44.1168 40.3288 43.9004 40.4144 43.5892L44.0124 30.5238C44.0721 30.3074 44.0275 30.076 43.8917 29.897C43.7558 29.7188 43.5445 29.6138 43.3195 29.6138H39.4584C44.3315 25.3941 46.196 18.599 43.9686 12.3667L43.9693 12.3689ZM42.6159 12.854C44.0706 16.9236 43.6013 21.2562 41.5845 24.7989C40.9354 24.5675 39.9817 24.0708 39.2888 23.0251C39.0466 22.6599 38.2804 21.3533 38.5815 19.8769C38.698 19.3055 38.9071 19.0324 39.1709 18.6867C39.485 18.2763 39.8746 17.7652 40.0291 16.7985C40.0672 16.5628 40.3597 14.4511 39.0574 12.9547C38.6211 12.4537 38.2344 12.2855 37.9253 12.1518C37.6896 12.049 37.5336 11.9815 37.3115 11.7457C36.6035 10.9896 36.3599 9.66565 36.7193 8.52644C37.0355 7.52594 37.7413 6.9229 38.22 6.61384C40.2138 8.25187 41.7325 10.3959 42.6152 12.8547L42.6159 12.854ZM19.4233 7.03719C20.0112 7.33619 20.5057 7.7394 20.8974 8.26409C21.182 8.63928 21.9375 9.63547 21.742 10.6453C21.6751 10.9932 21.5364 11.1513 21.3071 11.4115C21.0318 11.7249 20.6897 12.1137 20.4719 12.8418C20.1348 13.9695 20.2829 15.3057 20.8572 16.3277C21.4408 17.3678 22.2458 17.7077 22.9559 18.0075C23.5388 18.2533 24.0412 18.466 24.4595 19.077C24.9483 19.7928 25.2998 20.9824 24.916 21.906C24.6874 22.4659 24.2418 22.7498 23.7271 23.0783C23.1011 23.4779 22.322 23.9752 22.0668 25.0426C21.9044 25.7117 22.0496 26.2084 22.1552 26.5721C22.2465 26.8862 22.2875 27.0472 22.225 27.2916C22.1603 27.5417 21.9957 27.7767 21.752 27.9974C21.1044 27.3598 20.3821 26.7935 19.6001 26.3241C18.7728 25.8174 17.8981 25.43 17.0025 25.1569C19.222 23.9451 20.6725 21.6637 20.7716 19.1072C20.7803 18.9957 20.781 18.9023 20.781 18.7923C20.781 15.6298 18.7987 12.9122 15.9057 11.9297C16.7143 10.0732 17.9182 8.40209 19.424 7.03647L19.4233 7.03719ZM7.68033 18.7923C7.68033 15.5961 10.2844 12.9748 13.5151 12.9496C13.8522 12.9496 14.1764 12.9805 14.5401 13.0488C14.6069 13.0582 14.6745 13.0725 14.7823 13.102C17.4675 13.6942 19.3435 16.0345 19.3435 18.7923C19.3435 18.8649 19.3435 18.926 19.337 19.0245C19.245 21.3748 17.7615 23.4254 15.5578 24.2505C15.5291 24.2613 15.501 24.2735 15.4745 24.2886C14.893 24.4963 14.2871 24.6099 13.669 24.6272C13.6553 24.6257 13.6345 24.6264 13.6201 24.6257C13.5655 24.6207 13.5072 24.62 13.4454 24.6221C13.4052 24.6221 13.3656 24.6236 13.3268 24.6264C10.2082 24.5251 7.68033 21.9182 7.68033 18.7923ZM16.6122 39.9531V42.6836H13.9263C14.1139 42.3213 14.2296 41.9167 14.2296 41.4811C14.2296 40.7768 13.955 40.1148 13.4569 39.6174C12.9588 39.1193 12.2969 38.8447 11.5932 38.8447H7.43955C7.04208 38.8447 6.7208 39.166 6.7208 39.5635C6.7208 39.961 7.04208 40.2822 7.43955 40.2822H11.5932C11.9123 40.2822 12.2135 40.4073 12.4413 40.6344C12.667 40.8601 12.7921 41.1606 12.7921 41.4811C12.7921 42.1424 12.2545 42.6807 11.5932 42.6807C11.5882 42.6807 11.5839 42.6836 11.5795 42.6836H3.2097V36.3629C3.2097 34.0464 3.9687 31.8448 5.38752 30.0156L5.45364 29.9351C5.55355 29.8151 5.65058 29.6943 5.80511 29.5427C6.50086 28.7485 7.30011 28.0793 8.19136 27.5482C9.71367 26.6037 11.5041 26.0912 13.3592 26.0654H13.6337C14.4632 26.0654 15.284 26.1725 16.0875 26.3888C17.0478 26.626 17.9771 27.0163 18.8533 27.5539C19.5649 27.9816 20.2189 28.4919 20.799 29.0712C20.9053 29.1783 21.0196 29.2904 21.1677 29.4643C21.1777 29.4773 21.223 29.5348 21.2338 29.5456C21.8922 30.2902 22.4391 31.1268 22.8596 32.0332C23.4928 33.3959 23.8134 34.8521 23.8134 36.3629V39.2343H17.3303C16.9328 39.2343 16.6122 39.5556 16.6122 39.9531ZM27.5279 39.2343H25.2509V36.3629C25.2509 35.1727 25.064 34.0148 24.7176 32.8978C26.1342 33.3046 27.612 33.5159 29.0876 33.5159H29.1027L27.5279 39.2343ZM18.0497 40.6718H27.1319L26.5777 42.6836H18.049L18.0497 40.6718ZM39.1759 42.6807H28.0749L28.7735 40.1443C28.7749 40.1392 28.7735 40.1349 28.7735 40.1299L31.2704 31.0535H37.3079C37.3158 31.0535 37.323 31.0564 37.3309 31.0564C37.3374 31.0564 37.3439 31.0535 37.3503 31.0535H42.3773L39.1752 42.6814L39.1759 42.6807ZM30.7249 29.6153C30.4022 29.6153 30.1183 29.8309 30.032 30.1414L29.5016 32.0669C27.6429 32.1237 25.7634 31.8089 24.024 31.1527C23.6581 30.4145 23.2175 29.7188 22.7051 29.0712C23.1665 28.6572 23.4777 28.1842 23.6164 27.6509C23.781 27.0127 23.6445 26.5455 23.5352 26.1689C23.449 25.8727 23.3922 25.6765 23.4641 25.3775C23.5791 24.896 23.9154 24.6617 24.4998 24.2886C25.0985 23.9062 25.8439 23.4312 26.2449 22.4522C26.835 21.0312 26.37 19.3257 25.6462 18.2648C24.9885 17.3038 24.1713 16.9588 23.5144 16.6821C22.8991 16.4219 22.4528 16.2336 22.1107 15.6219C21.7261 14.9384 21.6234 14.0076 21.849 13.2515C21.977 12.8246 22.1574 12.6197 22.386 12.3602C22.6655 12.0433 23.0134 11.648 23.1536 10.9156C23.4713 9.27681 22.396 7.85872 22.0316 7.37859C21.6435 6.85822 21.1634 6.42697 20.6157 6.07047C21.7096 5.27337 22.9164 4.62722 24.2238 4.15572C28.5363 2.61831 33.2434 3.20984 37.0183 5.71397C36.4095 6.19769 35.7073 6.95956 35.3493 8.09087C34.8333 9.72819 35.2005 11.5912 36.2636 12.7254C36.6884 13.1789 37.0571 13.3392 37.3532 13.4671C37.6012 13.5742 37.7507 13.6396 37.9735 13.8962C38.8619 14.9168 38.6204 16.5024 38.6103 16.5692C38.5125 17.178 38.3099 17.444 38.0288 17.812C37.7284 18.2044 37.3554 18.6939 37.1735 19.5873C36.761 21.607 37.7715 23.3356 38.0906 23.8178C38.8978 25.0354 39.9694 25.6823 40.796 26.028C39.8128 27.4051 38.5779 28.6263 37.1045 29.6146H30.7242L30.7249 29.6153Z" fill="black"/>
</svg>
