<svg width="42" height="46" viewBox="0 0 42 46" fill="none" xmlns="http://www.w3.org/2000/svg">
<path d="M2.78239 39.1087C2.55706 39.0206 2.44601 38.7663 2.53415 38.5408C2.92874 37.5343 3.67552 36.7044 4.63694 36.2041C4.85203 36.0933 5.11626 36.1763 5.22793 36.3912C5.33961 36.6056 5.25596 36.8705 5.04133 36.9822C4.26804 37.3841 3.66735 38.0512 3.35029 38.8609C3.26233 39.0845 3.00915 39.1976 2.78239 39.1087Z" fill="black"/>
<path d="M16.3464 21.2868C16.1043 21.2868 15.9081 21.0907 15.9081 20.8485V20.0234C15.9081 19.8616 15.7765 19.7298 15.6148 19.7298H13.0066C12.7646 19.7298 12.5684 19.5337 12.5684 19.2915C12.5684 19.0493 12.7646 18.8533 13.0066 18.8533H15.6148C16.2599 18.8533 16.7846 19.378 16.7846 20.0233V20.8484C16.7846 21.0908 16.5884 21.2868 16.3464 21.2868Z" fill="black"/>
<path d="M24.2293 39.1391C24.1758 39.1391 24.1218 39.1292 24.0693 39.1087C23.8441 39.0206 23.7329 38.7663 23.8215 38.5408C24.2161 37.5338 24.9629 36.704 25.9245 36.2041C26.1393 36.0933 26.4038 36.1763 26.5154 36.3912C26.6267 36.6056 26.5433 36.8705 26.3284 36.9822C25.5555 37.3841 24.9547 38.0512 24.6371 38.8609C24.5695 39.0338 24.4043 39.1391 24.2293 39.1391Z" fill="black"/>
<path d="M37.633 21.2868C37.3908 21.2868 37.1948 21.0907 37.1948 20.8485V20.0234C37.1948 19.8616 37.0634 19.7298 36.9016 19.7298H34.2937C34.0515 19.7298 33.8555 19.5337 33.8555 19.2915C33.8555 19.0493 34.0515 18.8533 34.2937 18.8533H36.9017C37.5466 18.8533 38.0713 19.378 38.0713 20.0233V20.8484C38.0713 21.0908 37.8753 21.2868 37.633 21.2868Z" fill="black"/>
<path d="M14.3554 34.2587H12.5898V33.6478C14.8571 32.8455 16.5368 30.791 16.7807 28.3153C17.6028 28.23 18.2523 27.5827 18.3412 26.7616C18.4344 26.5793 18.3696 26.928 18.3898 20.0234C18.3898 18.4935 17.1448 17.2485 15.6147 17.2485H7.46551C6.53707 17.2485 5.75749 17.8986 5.55786 18.7673H5.39524C3.94364 18.7673 2.76264 19.9481 2.76264 21.3998V25.8755C2.66956 26.0898 2.61673 26.3253 2.61673 26.5734C2.61673 27.4823 3.31159 28.2235 4.19628 28.3154C4.44254 30.8151 6.15227 32.8868 8.45325 33.6722V34.2587H6.68755C3.43189 34.2587 0.783203 36.9074 0.783203 40.1629V42.0986C0.783203 43.8913 2.24173 45.3498 4.03438 45.3498H17.0084C18.8009 45.3498 20.2594 43.8912 20.2594 42.0986V40.1629C20.2594 36.9073 17.6108 34.2587 14.3554 34.2587ZM16.8122 27.4314V25.7158C17.1974 25.8107 17.4837 26.1591 17.4837 26.5734C17.4837 26.9877 17.1975 27.3364 16.8122 27.4314ZM5.39515 19.6439H5.94661C6.18865 19.6439 6.38487 19.4478 6.38487 19.2056C6.38487 18.6098 6.86958 18.125 7.46551 18.125H15.6147C16.6617 18.125 17.5134 18.9766 17.5134 20.0234V25.0763C17.3041 24.9482 17.0669 24.866 16.8124 24.8349V23.0683C16.9063 22.9948 17.0013 22.9268 17.0942 22.8489C17.2796 22.6935 17.3038 22.4171 17.148 22.2317C16.9925 22.046 16.7164 22.0225 16.5307 22.1778C15.1359 23.3488 13.3447 24.069 11.4183 23.9477C10.033 23.8451 8.5625 23.329 6.99653 22.4031C6.85799 22.3189 6.71981 22.2372 6.57992 22.1461C6.56959 22.1393 6.55683 22.1392 6.54605 22.1333C6.28694 21.969 6.02541 21.7941 5.76109 21.6078C5.56298 21.4687 5.28968 21.5158 5.15042 21.7135C5.01089 21.9112 5.05842 22.1846 5.25616 22.3242C5.42956 22.4464 5.60062 22.5547 5.7725 22.6681C5.44097 23.2231 5.08654 23.2058 4.749 23.086C4.61486 23.0389 4.46608 23.0594 4.34991 23.1416C4.23392 23.2238 4.16483 23.3573 4.16483 23.4993V24.835C3.97921 24.8577 3.80258 24.905 3.63934 24.981V21.3998C3.63907 20.4317 4.42691 19.6439 5.39515 19.6439ZM3.49307 26.5733C3.49307 26.1595 3.7794 25.8111 4.16456 25.7157V27.4313C3.7794 27.336 3.49307 26.9876 3.49307 26.5733ZM5.04099 27.6907C5.04099 27.5345 5.04099 23.8149 5.04099 24.027C5.51366 24.0423 6.06871 23.8614 6.51227 23.1394C7.97978 24.0339 9.51682 24.6516 11.2313 24.8048C12.8744 24.9359 14.3888 24.6339 15.9358 23.6849C15.9358 23.7687 15.9358 27.9028 15.9358 27.6908C15.9358 30.6942 13.4921 33.1379 10.4885 33.1379C7.48465 33.1379 5.04099 30.6942 5.04099 27.6907ZM10.4885 34.0143C10.9077 34.0143 11.3168 33.9712 11.7133 33.893V36.0925C11.7133 36.7498 11.1786 37.2843 10.5215 37.2843C9.86434 37.2843 9.32959 36.7498 9.32959 36.0925V33.9031C9.70586 33.9731 10.0923 34.0143 10.4885 34.0143ZM19.383 42.0984C19.383 43.408 18.3178 44.4732 17.0084 44.4732H4.03447C2.72509 44.4732 1.65972 43.408 1.65972 42.0984V40.1627C1.65972 37.3904 3.91525 35.1351 6.68764 35.1351H8.45316V36.0925C8.45316 37.2329 9.38098 38.1607 10.5215 38.1607C11.6619 38.1607 12.5898 37.2329 12.5898 36.0925V35.1351H14.3553C17.1276 35.1351 19.3829 37.3904 19.3829 40.1627V42.0984H19.383Z" fill="black"/>
<path d="M35.6423 34.2587H33.8769V33.6479C36.1442 32.8456 37.8236 30.791 38.0675 28.3154C38.8887 28.2302 39.5379 27.5845 39.6282 26.7649C39.7214 26.576 39.6564 26.9285 39.6766 20.0234C39.6766 18.4935 38.4317 17.2485 36.9017 17.2485H28.7525C27.8238 17.2485 27.0445 17.8986 26.8451 18.7673H26.6821C25.2305 18.7673 24.0497 19.9481 24.0497 21.3998V25.8755C23.9566 26.0898 23.9038 26.3253 23.9038 26.5734C23.9038 27.4823 24.5987 28.2237 25.4833 28.3154C25.7296 30.8152 27.4393 32.8867 29.7403 33.6721V34.2587H27.9745C24.719 34.2587 22.0703 36.9073 22.0703 40.1628V42.0985C22.0703 43.8913 23.5288 45.3497 25.3215 45.3497H38.2956C40.0883 45.3497 41.5467 43.8912 41.5467 42.0985V40.1628C41.5468 36.9074 38.8982 34.2587 35.6423 34.2587ZM38.0992 27.4315V25.7159C38.4844 25.8108 38.7712 26.1592 38.7712 26.5735C38.7712 26.9878 38.4844 27.3365 38.0992 27.4315ZM26.6821 19.6439H27.2337C27.4759 19.6439 27.672 19.4479 27.672 19.2057C27.672 18.6099 28.1569 18.1251 28.7526 18.1251H36.9018C37.9486 18.1251 38.8002 18.9767 38.8002 20.0234V25.0762C38.591 24.9481 38.3538 24.866 38.0992 24.8349V23.0683C38.193 22.9949 38.288 22.9269 38.3808 22.8489C38.5665 22.6936 38.5905 22.4172 38.4347 22.2318C38.2802 22.0465 38.0029 22.0221 37.8176 22.1779C37.6615 22.3089 37.5035 22.4278 37.3451 22.5445C35.8597 23.5905 34.3099 24.0554 32.6726 23.9448C30.6625 23.7868 28.6822 22.7601 27.048 21.6078C26.8503 21.4688 26.5772 21.5158 26.4373 21.7136C26.2978 21.9113 26.3453 22.1847 26.5431 22.3243C26.7165 22.4465 26.8876 22.5548 27.0594 22.6681C26.728 23.2231 26.3742 23.2058 26.0359 23.086C25.902 23.0389 25.753 23.059 25.6371 23.1416C25.5207 23.2238 25.4518 23.3573 25.4518 23.4993V24.835C25.2662 24.8577 25.0894 24.905 24.9263 24.981V21.3999C24.9262 20.4318 25.7141 19.6439 26.6821 19.6439ZM24.7803 26.5734C24.7803 26.1591 25.0666 25.8108 25.4518 25.7158V27.4314C25.0666 27.3365 24.7803 26.9877 24.7803 26.5734ZM26.3282 27.6908C26.3282 27.5346 26.3282 23.815 26.3282 24.0271C26.8045 24.0424 27.3562 23.8615 27.7995 23.1395C29.2716 24.0368 30.8007 24.6495 32.5226 24.805C34.163 24.9352 35.6758 24.634 37.2227 23.6848C37.2227 23.7686 37.2227 27.9028 37.2227 27.6908C37.2227 30.6942 34.7791 33.1379 31.7757 33.1379C28.7718 33.1379 26.3282 30.6943 26.3282 27.6908ZM31.7757 34.0144C32.1949 34.0144 32.604 33.9712 33.0005 33.8931V36.0925C33.0005 36.7499 32.466 37.2844 31.8087 37.2844C31.1513 37.2844 30.6168 36.7499 30.6168 36.0925V33.9031C30.9931 33.9732 31.3794 34.0144 31.7757 34.0144ZM40.6704 42.0985C40.6704 43.4081 39.6052 44.4733 38.2956 44.4733H25.3217C24.0121 44.4733 22.9469 43.4081 22.9469 42.0985V40.1628C22.9469 37.3905 25.2023 35.1352 27.9746 35.1352H29.7404V36.0925C29.7404 37.233 30.6682 38.1608 31.8087 38.1608C32.9491 38.1608 33.8769 37.233 33.8769 36.0925V35.1352H35.6423C38.4146 35.1352 40.6704 37.3905 40.6704 40.1628V42.0985Z" fill="black"/>
<path d="M22.2871 14.5074C22.5747 14.4723 22.8593 14.4171 23.1392 14.3422L23.541 14.9499C23.8419 15.4035 24.4552 15.528 24.9093 15.228L26.5565 14.1381C26.7764 13.9925 26.9266 13.7701 26.9793 13.5115C27.0319 13.253 26.9805 12.9898 26.8351 12.7703L26.4332 12.163C26.6121 11.9345 26.7747 11.6939 26.9194 11.4432L27.6315 11.5878C28.1549 11.697 28.6867 11.3614 28.7964 10.8183L29.1905 8.88435C29.2997 8.35068 28.9534 7.8277 28.4197 7.71899H28.4193L27.7072 7.57389C27.6721 7.28675 27.6165 7.00212 27.5416 6.72136L28.1484 6.31994C28.6019 6.02004 28.7302 5.40847 28.4275 4.95171L27.3375 3.30361C27.0366 2.85044 26.4233 2.72502 25.9697 3.02546L25.362 3.42733C25.1339 3.2489 24.8934 3.08628 24.6426 2.94163L24.7882 2.22863C24.896 1.69541 24.5503 1.17288 24.0166 1.06417L22.0826 0.669576C21.5481 0.561764 21.0269 0.907932 20.9186 1.4416L20.7735 2.1537C20.4859 2.18883 20.2009 2.244 19.921 2.31929L19.5196 1.71248C19.2179 1.25653 18.6065 1.13299 18.1513 1.43343L16.504 2.52368C16.0499 2.82322 15.9236 3.43533 16.2253 3.89146L16.6271 4.49872C16.4484 4.72728 16.2861 4.96779 16.1414 5.2181L15.4273 5.073C14.9007 4.96303 14.3731 5.30417 14.2635 5.84458L13.8695 7.77855C13.761 8.31177 14.1065 8.83386 14.6394 8.94221L15.3532 9.08776C15.3885 9.37534 15.444 9.66033 15.5188 9.93983L14.9113 10.3417C14.4574 10.6421 14.3327 11.2559 14.6329 11.7099L15.7227 13.3571C16.0259 13.8155 16.6391 13.9345 17.0906 13.6357L17.6979 13.2339C17.9264 13.4127 18.167 13.5754 18.4177 13.72L18.2726 14.4321C18.1634 14.9643 18.5062 15.4887 19.0425 15.597L20.9768 15.9916C21.5162 16.1002 22.0344 15.7486 22.1417 15.22L22.2871 14.5074ZM21.893 13.6648C21.6961 13.6781 21.5326 13.8214 21.4932 14.0148L21.2835 15.0448C21.2711 15.1056 21.2146 15.1441 21.1513 15.1326L19.2173 14.7385C19.1573 14.7259 19.119 14.6671 19.1313 14.6071L19.3415 13.5771C19.3813 13.3836 19.2863 13.1876 19.1104 13.0982C18.7171 12.8992 18.3486 12.6506 18.0157 12.3595C17.8668 12.2293 17.6498 12.2154 17.4854 12.324L16.607 12.9048C16.5551 12.9394 16.4871 12.9237 16.4538 12.8735L15.364 11.2263C15.3302 11.1754 15.3443 11.1065 15.3953 11.0727L16.2734 10.4919C16.438 10.3832 16.5094 10.1774 16.448 9.98997C16.3104 9.57058 16.2256 9.13402 16.1959 8.6937C16.1826 8.49685 16.0395 8.33334 15.8462 8.29399L14.8142 8.08384C14.7547 8.07144 14.7161 8.01322 14.7284 7.9533L15.1223 6.01932C15.1348 5.9576 15.1927 5.92031 15.2524 5.93163L16.2842 6.14178C16.4768 6.18158 16.6734 6.08662 16.7626 5.9107C16.9618 5.51737 17.2105 5.14937 17.5015 4.8164C17.6314 4.66789 17.646 4.45092 17.537 4.28615L16.956 3.40801C16.9226 3.35752 16.9357 3.28897 16.9873 3.25483L18.6348 2.16485C18.6854 2.13178 18.7534 2.14373 18.788 2.19611L19.3692 3.07424C19.4783 3.23857 19.6837 3.30963 19.8711 3.24881C20.2905 3.11099 20.7266 3.02627 21.1674 2.99671C21.3642 2.98341 21.5277 2.84011 21.5671 2.64668L21.7768 1.61662C21.7896 1.55624 21.8496 1.52031 21.9078 1.52893L23.8413 1.92308C23.9017 1.93547 23.941 1.9945 23.929 2.05443L23.7188 3.08494C23.679 3.27837 23.774 3.47441 23.9499 3.5638C24.3433 3.76281 24.7117 4.0114 25.0447 4.3025C25.1936 4.43259 25.4106 4.4476 25.5749 4.33799L26.4531 3.75679C26.5036 3.72337 26.5725 3.73756 26.6062 3.78805L27.6962 5.43615C27.7307 5.48754 27.7155 5.55555 27.665 5.58897L26.7868 6.17017C26.6221 6.27888 26.5506 6.48426 26.6123 6.67213C26.7501 7.09322 26.8348 7.52933 26.8639 7.96803C26.8772 8.16488 27.0205 8.32884 27.214 8.3682L28.244 8.57789C28.3056 8.59074 28.3442 8.64851 28.3317 8.71014L27.9376 10.6441C27.9249 10.7048 27.8652 10.742 27.8058 10.7297L26.7757 10.52C26.5818 10.4802 26.3862 10.5757 26.2973 10.7511C26.0983 11.1445 25.8497 11.5129 25.5586 11.8459C25.4289 11.9944 25.4144 12.2114 25.5231 12.3761L26.1038 13.2547C26.1383 13.3061 26.1231 13.3741 26.0726 13.4075L24.4254 14.4975C24.374 14.5317 24.3055 14.5167 24.2717 14.4663L23.691 13.5881C23.5823 13.4238 23.3769 13.3506 23.189 13.4136C22.7694 13.5506 22.3333 13.6353 21.893 13.6648Z" fill="black"/>
<path d="M25.3184 8.6096C25.472 6.52154 23.898 4.69762 21.81 4.54444C19.731 4.39161 17.898 5.96442 17.7448 8.05284C17.5907 10.1468 19.1587 11.9639 21.2532 12.118C23.3055 12.2752 25.1619 10.7368 25.3184 8.6096ZM21.3174 11.2442C19.7066 11.1255 18.5 9.72797 18.6186 8.11707C18.7317 6.58326 20.0155 5.41062 21.5297 5.41062C21.6011 5.41062 21.6734 5.41323 21.7457 5.41835C23.3519 5.53649 24.5626 6.93931 24.4445 8.54545C24.3259 10.1546 22.9317 11.3605 21.3174 11.2442Z" fill="black"/>
<path d="M12.1511 9.21343C12.3931 9.21343 12.5893 9.01739 12.5893 8.77517C12.5893 8.53295 12.3931 8.33691 12.1511 8.33691H10.4881C10.246 8.33691 10.0498 8.53295 10.0498 8.77517V12.6344L9.38669 11.9712C9.21554 11.8 8.93819 11.8 8.76704 11.9712C8.59588 12.1423 8.59588 12.4197 8.76704 12.5908L10.1782 14.0023C10.2604 14.0845 10.3718 14.1307 10.4881 14.1307C10.6043 14.1307 10.7157 14.0845 10.798 14.0023L12.2091 12.5908C12.3803 12.4197 12.3803 12.1423 12.2091 11.9712C12.038 11.8 11.7606 11.8 11.5895 11.9712L10.9263 12.6344V9.21343H12.1511Z" fill="black"/>
<path d="M32.5739 8.33716H30.9109C30.6687 8.33716 30.4727 8.5332 30.4727 8.77542C30.4727 9.01764 30.6687 9.21367 30.9109 9.21367H32.1358V12.6347L31.4724 11.9714C31.3013 11.8003 31.0239 11.8003 30.8528 11.9714C30.6816 12.1426 30.6816 12.4199 30.8528 12.5911L32.2642 14.0025C32.3464 14.0847 32.4577 14.1309 32.5741 14.1309C32.6905 14.1309 32.8018 14.0847 32.884 14.0025L34.295 12.5911C34.4661 12.4199 34.4661 12.1426 34.295 11.9714C34.1238 11.8003 33.8465 11.8003 33.6753 11.9714L33.0124 12.6346V8.77542C33.0122 8.5332 32.8161 8.33716 32.5739 8.33716Z" fill="black"/>
</svg>
