<svg width="46" height="46" viewBox="0 0 46 46" fill="none" xmlns="http://www.w3.org/2000/svg">
<path d="M14.7345 3.18091C15.0085 2.92908 15.4348 2.94702 15.6866 3.22101C15.9385 3.49499 15.9205 3.92122 15.6466 4.17305L15.5708 4.24333C13.9899 5.72558 12.9035 7.67217 12.5519 9.84277C12.4924 10.2101 12.1464 10.4598 11.7791 10.4003C11.4117 10.3408 11.1622 9.99464 11.2217 9.62729C11.63 7.10625 12.9034 4.86397 14.7345 3.18091Z" fill="black"/>
<path d="M23.0009 0C29.0254 6.49023e-07 34.044 4.27724 34.8181 9.87702C34.8691 10.2457 34.6116 10.5859 34.2429 10.6368C33.8743 10.6878 33.5342 10.4302 33.4832 10.0616C32.8069 5.16911 28.3943 1.34766 23.0009 1.34766C21.1475 1.34766 19.4084 1.79966 17.8969 2.59196C17.5673 2.76471 17.1601 2.63755 16.9873 2.30795C16.8145 1.97834 16.9417 1.57113 17.2713 1.39837C18.9733 0.506284 20.9266 0 23.0009 0Z" fill="black"/>
<path d="M30.7291 16.0393V12.0765C30.7291 7.81028 27.2691 4.35134 23.0003 4.35132C18.7316 4.35132 15.2715 7.81027 15.2715 12.0765V16.0393C15.2715 18.2143 16.1698 20.4705 17.6295 22.1642L17.6995 22.2445L17.7217 22.2711C17.9436 22.5501 17.9101 22.9571 17.6397 23.1955C17.3693 23.4339 16.9612 23.4163 16.7122 23.1612L16.6886 23.1358L16.6095 23.045C14.9567 21.1276 13.9238 18.5647 13.9238 16.0393V12.0765C13.9238 7.06542 17.9879 3.00366 23.0003 3.00366C28.0128 3.00368 32.0767 7.06543 32.0767 12.0765V16.0393C32.0767 18.7918 30.8496 21.5917 28.9244 23.5523C28.6637 23.8178 28.2371 23.8217 27.9716 23.5609C27.706 23.3002 27.7021 22.8736 27.9629 22.608C29.6591 20.8807 30.7291 18.413 30.7291 16.0393Z" fill="black"/>
<path d="M14.5582 9.2998C14.9304 9.29981 15.2321 9.60149 15.2321 9.97363V17.2783C15.2321 17.6504 14.9304 17.9521 14.5582 17.9521H11.8822C10.6603 17.9521 9.66992 16.9615 9.66992 15.7398V11.5121C9.66992 10.2902 10.6605 9.2998 11.8822 9.2998H14.5582ZM11.0176 15.7398C11.0176 16.2173 11.4047 16.6044 11.8822 16.6044H13.8844V10.6475H11.8822C11.4047 10.6475 11.0176 11.0345 11.0176 11.5121V15.7398Z" fill="black"/>
<path d="M34.984 11.5121C34.984 11.0346 34.5969 10.6475 34.1194 10.6475H32.1172V16.6044H34.1194C34.5969 16.6044 34.984 16.2173 34.984 15.7398V11.5121ZM36.3317 15.7398C36.3317 16.9615 35.3413 17.9521 34.1194 17.9521H31.4434C31.0712 17.9521 30.7695 17.6504 30.7695 17.2783V9.97363C30.7695 9.60149 31.0712 9.2998 31.4434 9.2998H34.1194C35.3411 9.29981 36.3317 10.2902 36.3317 11.5121V15.7398Z" fill="black"/>
<path d="M33.5733 18.2104V17.2786C33.5733 16.9064 33.875 16.6047 34.2471 16.6047C34.6193 16.6048 34.921 16.9064 34.921 17.2786V18.2104C34.921 19.693 33.719 20.895 32.2364 20.895H24.6543C24.2822 20.895 23.9805 20.5933 23.9805 20.2211C23.9805 19.849 24.2822 19.5473 24.6543 19.5473H32.2364C32.9747 19.5473 33.5733 18.9488 33.5733 18.2104Z" fill="black"/>
<path d="M37.8329 40.4949V25.1807C37.8329 24.3924 37.1939 23.7534 36.4057 23.7534H9.59716C8.80892 23.7534 8.16994 24.3925 8.16992 25.1807V40.4949C8.16992 40.867 7.86824 41.1687 7.49609 41.1687C7.12395 41.1687 6.82227 40.867 6.82227 40.4949V25.1807C6.82228 23.6482 8.06459 22.4058 9.59716 22.4058H36.4057C37.9382 22.4058 39.1806 23.6481 39.1806 25.1807V40.4949C39.1806 40.867 38.8789 41.1687 38.5068 41.1687C38.1346 41.1687 37.8329 40.867 37.8329 40.4949Z" fill="black"/>
<path d="M40.275 42.5247V41.5437C40.275 41.3357 40.1063 41.167 39.8982 41.167H6.10331C5.89524 41.167 5.72656 41.3357 5.72656 41.5437V42.5247C5.72658 43.6998 6.67909 44.6523 7.85412 44.6523H30.3509L30.3856 44.6532C30.7416 44.6712 31.0248 44.9656 31.0248 45.3261C31.0248 45.6866 30.7416 45.981 30.3856 45.9991L30.3509 46H7.85412C5.9348 45.9999 4.37892 44.4441 4.37891 42.5247V41.5437C4.37891 40.5914 5.15095 39.8193 6.10331 39.8193H39.8982C40.8506 39.8193 41.6227 40.5914 41.6227 41.5437V42.5247C41.6226 44.4441 40.0668 45.9999 38.1474 46H33.5364C33.1643 46 32.8626 45.6983 32.8626 45.3261C32.8626 44.954 33.1643 44.6523 33.5364 44.6523H38.1474C39.3225 44.6523 40.275 43.6998 40.275 42.5247Z" fill="black"/>
<path d="M24.6652 31.7875C24.6652 30.8681 23.9199 30.1228 23.0006 30.1228C22.0812 30.1228 21.3359 30.8681 21.3359 31.7875C21.336 32.7068 22.0813 33.452 23.0006 33.452C23.9199 33.452 24.6651 32.7068 24.6652 31.7875ZM26.0128 31.7875C26.0128 33.4511 24.6642 34.7997 23.0006 34.7997C21.337 34.7997 19.9883 33.4511 19.9883 31.7875C19.9883 30.1238 21.337 28.7751 23.0006 28.7751C24.6642 28.7752 26.0128 30.1238 26.0128 31.7875Z" fill="black"/>
<path d="M31.3964 11.0947L31.4311 11.0956C31.7871 11.1136 32.0702 11.408 32.0702 11.7686C32.0702 12.1291 31.7871 12.4235 31.4311 12.4415L31.3964 12.4424H14.6035C14.2314 12.4424 13.9297 12.1407 13.9297 11.7686C13.9297 11.3964 14.2314 11.0947 14.6035 11.0947H31.3964Z" fill="black"/>
</svg>
