<svg width="644" height="371" viewBox="0 0 644 371" fill="none" xmlns="http://www.w3.org/2000/svg">
<rect y="0.559082" width="644" height="370" rx="24" fill="white"/>
<path d="M414.5 260L414.5 259.137C414.5 258.861 414.724 258.637 415 258.637C415.276 258.637 415.5 258.861 415.5 259.137L415.5 260C415.5 260.276 415.276 260.5 415 260.5C414.724 260.5 414.5 260.276 414.5 260ZM414.5 257.41L414.5 255.684C414.5 255.407 414.724 255.184 415 255.184C415.276 255.184 415.5 255.407 415.5 255.684L415.5 257.41C415.5 257.686 415.276 257.91 415 257.91C414.724 257.91 414.5 257.686 414.5 257.41ZM414.5 253.957L414.5 252.229C414.5 251.954 414.724 251.729 415 251.729C415.276 251.729 415.5 251.954 415.5 252.229L415.5 253.957C415.5 254.233 415.276 254.457 415 254.457C414.724 254.457 414.5 254.233 414.5 253.957ZM414.5 250.503L414.5 248.748C414.5 248.472 414.724 248.248 415 248.248C415.276 248.248 415.5 248.473 415.5 248.749L415.5 250.503C415.5 250.779 415.276 251.003 415 251.003C414.724 251.003 414.5 250.779 414.5 250.503ZM415.045 244.688C415.321 244.696 415.539 244.925 415.532 245.201C415.518 245.749 415.51 246.337 415.506 246.971L415.495 247.072C415.447 247.3 415.243 247.469 415.002 247.468C414.726 247.466 414.504 247.24 414.506 246.964C414.51 246.326 414.518 245.732 414.532 245.176C414.539 244.9 414.769 244.681 415.045 244.688ZM415.387 241.148C415.659 241.193 415.843 241.45 415.799 241.723C415.714 242.239 415.653 242.807 415.609 243.444C415.59 243.72 415.352 243.928 415.076 243.909C414.801 243.89 414.593 243.651 414.612 243.376C414.658 242.717 414.722 242.115 414.812 241.561C414.857 241.288 415.114 241.104 415.387 241.148ZM416.047 238.153C416.191 237.918 416.499 237.844 416.734 237.988C416.97 238.132 417.044 238.44 416.9 238.676C416.771 238.887 416.648 239.105 416.535 239.327C416.412 239.569 416.304 239.82 416.208 240.086L416.164 240.178C416.043 240.376 415.796 240.469 415.568 240.387C415.309 240.293 415.174 240.007 415.268 239.747L415.443 239.302C415.506 239.156 415.573 239.013 415.645 238.873C415.77 238.627 415.904 238.387 416.047 238.153ZM418.181 235.655C418.391 235.476 418.706 235.501 418.886 235.711C419.065 235.921 419.04 236.237 418.83 236.416C418.452 236.739 418.099 237.091 417.776 237.47L417.703 237.54C417.52 237.683 417.255 237.682 417.071 237.525C416.861 237.346 416.836 237.03 417.016 236.82C417.373 236.402 417.762 236.012 418.181 235.655ZM420.036 235.54C419.801 235.684 419.493 235.61 419.349 235.375C419.204 235.14 419.278 234.832 419.514 234.688L420.036 235.54ZM421.276 234.378L421.446 234.848C421.181 234.943 420.929 235.053 420.687 235.176C420.465 235.289 420.248 235.41 420.036 235.54L419.775 235.113L419.514 234.688C419.747 234.544 419.988 234.409 420.233 234.284C420.514 234.141 420.804 234.017 421.107 233.907L421.276 234.378ZM421.107 233.907C421.367 233.814 421.653 233.948 421.747 234.208C421.841 234.468 421.706 234.754 421.446 234.848L421.107 233.907ZM423.082 234.439C422.81 234.484 422.552 234.299 422.508 234.026C422.463 233.754 422.648 233.497 422.921 233.452L423.082 234.439ZM424.736 233.252C425.012 233.233 425.251 233.441 425.27 233.717C425.288 233.992 425.08 234.231 424.805 234.25C424.167 234.294 423.598 234.355 423.082 234.439L423.002 233.945L422.921 233.452C423.476 233.361 424.077 233.297 424.736 233.252ZM428.425 233.155C428.653 233.2 428.826 233.401 428.828 233.643C428.83 233.919 428.607 234.144 428.331 234.146C428.014 234.148 427.709 234.151 427.414 234.155L426.562 234.172L426.46 234.164C426.231 234.123 426.055 233.926 426.049 233.685C426.042 233.409 426.26 233.179 426.536 233.172L427.399 233.155C427.697 233.151 428.005 233.148 428.324 233.146L428.425 233.155ZM431.917 233.14C432.193 233.14 432.417 233.364 432.417 233.64C432.417 233.916 432.193 234.139 431.917 234.14L430.108 234.14C429.832 234.14 429.609 233.917 429.608 233.641C429.608 233.364 429.832 233.14 430.108 233.14L431.917 233.14ZM435.583 233.14C435.859 233.14 436.083 233.364 436.083 233.64C436.083 233.916 435.859 234.14 435.583 234.14L433.75 234.14C433.474 234.14 433.25 233.916 433.25 233.64C433.25 233.364 433.474 233.14 433.75 233.14L435.583 233.14ZM439.25 233.14C439.526 233.14 439.75 233.364 439.75 233.64C439.75 233.916 439.526 234.14 439.25 234.14L437.417 234.14C437.141 234.14 436.917 233.916 436.917 233.64C436.917 233.364 437.141 233.14 437.417 233.14L439.25 233.14ZM442.892 233.14C443.168 233.14 443.391 233.364 443.392 233.64C443.392 233.916 443.168 234.139 442.892 234.14L441.083 234.14C440.807 234.139 440.583 233.916 440.583 233.64C440.583 233.364 440.807 233.14 441.083 233.14L442.892 233.14ZM446.54 233.115C446.769 233.156 446.945 233.353 446.951 233.595C446.958 233.871 446.74 234.1 446.464 234.107C445.908 234.122 445.313 234.129 444.676 234.134C444.4 234.136 444.174 233.914 444.172 233.638C444.17 233.362 444.393 233.136 444.669 233.134L445.586 233.125C445.881 233.121 446.165 233.115 446.438 233.108L446.54 233.115ZM449.918 232.841C450.19 232.796 450.447 232.981 450.492 233.253C450.537 233.525 450.352 233.783 450.079 233.828C449.663 233.896 449.221 233.949 448.748 233.99L448.264 234.028L448.163 234.024C447.932 233.994 447.747 233.805 447.73 233.563C447.712 233.288 447.92 233.049 448.195 233.03L448.661 232.994C449.114 232.955 449.531 232.904 449.918 232.841ZM451.893 233.373C451.633 233.467 451.347 233.332 451.253 233.072C451.159 232.812 451.294 232.525 451.554 232.432L451.893 233.373ZM452.964 231.74C453.199 231.596 453.507 231.67 453.651 231.905C453.796 232.141 453.722 232.449 453.486 232.593C453.253 232.736 453.012 232.87 452.767 232.995C452.486 233.138 452.196 233.264 451.893 233.373L451.724 232.902L451.554 232.432C451.819 232.336 452.071 232.228 452.312 232.104C452.535 231.991 452.752 231.87 452.964 231.74ZM455.224 229.81C455.403 229.6 455.719 229.575 455.929 229.754C456.139 229.933 456.164 230.249 455.984 230.459C455.627 230.877 455.238 231.267 454.819 231.624L454.736 231.682C454.533 231.794 454.271 231.752 454.114 231.568C453.935 231.358 453.96 231.044 454.17 230.864L454.448 230.616C454.722 230.363 454.981 230.094 455.224 229.81ZM456.792 227.193C456.886 226.934 457.172 226.799 457.432 226.893C457.691 226.986 457.826 227.272 457.732 227.532C457.623 227.836 457.498 228.127 457.355 228.407C457.23 228.653 457.096 228.892 456.953 229.126L456.892 229.207C456.733 229.377 456.472 229.417 456.266 229.291C456.03 229.147 455.955 228.839 456.1 228.604C456.229 228.392 456.352 228.175 456.465 227.953C456.588 227.711 456.696 227.459 456.792 227.193ZM457.924 223.371C458.199 223.39 458.407 223.629 458.388 223.904L458.351 224.388C458.309 224.861 458.256 225.304 458.187 225.72C458.143 225.992 457.886 226.176 457.613 226.132C457.341 226.087 457.157 225.83 457.201 225.558C457.286 225.042 457.347 224.473 457.391 223.835L457.407 223.735C457.469 223.511 457.683 223.355 457.924 223.371ZM457.998 219.813C458.274 219.815 458.496 220.04 458.494 220.315C458.49 220.953 458.482 221.548 458.468 222.104L458.455 222.204C458.403 222.431 458.197 222.597 457.955 222.591C457.679 222.584 457.461 222.354 457.468 222.078C457.482 221.53 457.49 220.942 457.494 220.309C457.496 220.033 457.722 219.811 457.998 219.813ZM458.5 218.532C458.5 218.808 458.276 219.031 458 219.031C457.724 219.031 457.5 218.807 457.5 218.531L458.5 218.532ZM457.5 216.662C457.5 216.386 457.724 216.162 458 216.162C458.276 216.162 458.5 216.386 458.5 216.662L458.5 218.532L458 218.531L457.5 218.531L457.5 216.662ZM457.5 214.707L457.5 212.753C457.5 212.477 457.724 212.253 458 212.253C458.276 212.253 458.5 212.477 458.5 212.753L458.5 214.707C458.5 214.983 458.276 215.207 458 215.207C457.724 215.207 457.5 214.983 457.5 214.707ZM457.5 210.798L457.5 208.843C457.5 208.567 457.724 208.343 458 208.343C458.276 208.343 458.5 208.567 458.5 208.843L458.5 210.798C458.5 211.074 458.276 211.298 458 211.298C457.724 211.298 457.5 211.074 457.5 210.798ZM457.5 206.888L457.5 204.933C457.5 204.656 457.724 204.433 458 204.433C458.276 204.433 458.5 204.656 458.5 204.933L458.5 206.888C458.5 207.164 458.276 207.388 458 207.388C457.724 207.388 457.5 207.164 457.5 206.888ZM457.5 202.978L457.5 202C457.5 201.724 457.724 201.5 458 201.5C458.276 201.5 458.5 201.724 458.5 202L458.5 202.978C458.5 203.254 458.276 203.478 458 203.478C457.724 203.478 457.5 203.254 457.5 202.978Z" fill="#FF9000"/>
<path d="M415 261.5C415.133 261.5 415.26 261.447 415.353 261.354L421.353 255.354L421.418 255.275C421.546 255.081 421.524 254.817 421.353 254.646C421.183 254.476 420.919 254.454 420.725 254.582L420.646 254.646L415 260.293L409.353 254.646C409.158 254.451 408.842 254.451 408.646 254.646C408.451 254.842 408.451 255.158 408.646 255.354L414.646 261.354L414.723 261.416C414.804 261.47 414.901 261.5 415 261.5Z" fill="#FF9000"/>
<path d="M458 200.5C457.867 200.5 457.74 200.553 457.647 200.646L451.647 206.646L451.582 206.725C451.454 206.919 451.476 207.183 451.647 207.354C451.817 207.524 452.081 207.546 452.275 207.418L452.354 207.354L458 201.707L463.647 207.354C463.842 207.549 464.158 207.549 464.354 207.354C464.549 207.158 464.549 206.842 464.354 206.646L458.354 200.646L458.277 200.584C458.196 200.53 458.099 200.5 458 200.5Z" fill="#FF9000"/>
<path d="M502.5 260L502.5 259.137C502.5 258.861 502.276 258.637 502 258.637C501.724 258.637 501.5 258.861 501.5 259.137L501.5 260C501.5 260.276 501.724 260.5 502 260.5C502.276 260.5 502.5 260.276 502.5 260ZM502.5 257.41L502.5 255.684C502.5 255.407 502.276 255.184 502 255.184C501.724 255.184 501.5 255.407 501.5 255.684L501.5 257.41C501.5 257.686 501.724 257.91 502 257.91C502.276 257.91 502.5 257.686 502.5 257.41ZM502.5 253.957L502.5 252.229C502.5 251.954 502.276 251.729 502 251.729C501.724 251.729 501.5 251.954 501.5 252.229L501.5 253.957C501.5 254.233 501.724 254.457 502 254.457C502.276 254.457 502.5 254.233 502.5 253.957ZM502.5 250.503L502.5 248.748C502.5 248.472 502.276 248.248 502 248.248C501.724 248.248 501.5 248.473 501.5 248.749L501.5 250.503C501.5 250.779 501.724 251.003 502 251.003C502.276 251.003 502.5 250.779 502.5 250.503ZM501.955 244.688C501.679 244.696 501.461 244.925 501.468 245.201C501.482 245.749 501.49 246.337 501.494 246.971L501.505 247.072C501.553 247.3 501.757 247.469 501.998 247.468C502.274 247.466 502.496 247.24 502.494 246.964C502.49 246.326 502.482 245.732 502.468 245.176C502.461 244.9 502.231 244.681 501.955 244.688ZM501.613 241.148C501.341 241.193 501.157 241.45 501.201 241.723C501.286 242.239 501.347 242.807 501.391 243.444C501.41 243.72 501.648 243.928 501.924 243.909C502.199 243.89 502.407 243.651 502.388 243.376C502.342 242.717 502.278 242.115 502.188 241.561C502.143 241.288 501.886 241.104 501.613 241.148ZM500.953 238.153C500.809 237.918 500.501 237.844 500.266 237.988C500.03 238.132 499.956 238.44 500.1 238.676C500.229 238.887 500.352 239.105 500.465 239.327C500.588 239.569 500.696 239.82 500.792 240.086L500.836 240.178C500.957 240.376 501.204 240.469 501.432 240.387C501.691 240.293 501.826 240.007 501.732 239.747L501.557 239.302C501.494 239.156 501.427 239.013 501.355 238.873C501.23 238.627 501.096 238.387 500.953 238.153ZM498.819 235.655C498.609 235.476 498.294 235.501 498.114 235.711C497.935 235.921 497.96 236.237 498.17 236.416C498.548 236.739 498.901 237.091 499.224 237.47L499.297 237.54C499.48 237.683 499.745 237.682 499.929 237.525C500.139 237.346 500.164 237.03 499.984 236.82C499.627 236.402 499.238 236.012 498.819 235.655ZM496.964 235.54C497.199 235.684 497.507 235.61 497.651 235.375C497.796 235.14 497.722 234.832 497.486 234.688L496.964 235.54ZM495.724 234.378L495.554 234.848C495.819 234.943 496.071 235.053 496.313 235.176C496.535 235.289 496.752 235.41 496.964 235.54L497.225 235.113L497.486 234.688C497.253 234.544 497.012 234.409 496.767 234.284C496.486 234.141 496.196 234.017 495.893 233.907L495.724 234.378ZM495.893 233.907C495.633 233.814 495.347 233.948 495.253 234.208C495.159 234.468 495.294 234.754 495.554 234.848L495.893 233.907ZM493.918 234.439C494.19 234.484 494.448 234.299 494.492 234.026C494.537 233.754 494.352 233.497 494.079 233.452L493.918 234.439ZM492.264 233.252C491.988 233.233 491.749 233.441 491.73 233.717C491.712 233.992 491.92 234.231 492.195 234.25C492.833 234.294 493.402 234.355 493.918 234.439L493.998 233.945L494.079 233.452C493.524 233.361 492.923 233.297 492.264 233.252ZM488.575 233.155C488.347 233.2 488.174 233.401 488.172 233.643C488.17 233.919 488.393 234.144 488.669 234.146C488.986 234.148 489.291 234.151 489.586 234.155L490.438 234.172L490.54 234.164C490.769 234.123 490.945 233.926 490.951 233.685C490.958 233.409 490.74 233.179 490.464 233.172L489.601 233.155C489.303 233.151 488.995 233.148 488.676 233.146L488.575 233.155ZM485 233.14C484.724 233.14 484.5 233.364 484.5 233.64C484.5 233.916 484.724 234.14 485 234.14L486.892 234.14C487.168 234.14 487.391 233.917 487.392 233.641C487.392 233.364 487.168 233.14 486.892 233.14L485 233.14ZM481 233.14C480.724 233.14 480.5 233.364 480.5 233.64C480.5 233.916 480.724 234.14 481 234.14L483 234.14C483.276 234.14 483.5 233.916 483.5 233.64C483.5 233.364 483.276 233.14 483 233.14L481 233.14ZM477 233.14C476.724 233.14 476.5 233.364 476.5 233.64C476.5 233.916 476.724 234.14 477 234.14L479 234.14C479.276 234.14 479.5 233.916 479.5 233.64C479.5 233.364 479.276 233.14 479 233.14L477 233.14ZM473.108 233.14C472.832 233.14 472.609 233.364 472.608 233.64C472.608 233.916 472.832 234.139 473.108 234.14L475 234.14C475.276 234.14 475.5 233.916 475.5 233.64C475.5 233.364 475.276 233.14 475 233.14L473.108 233.14ZM469.46 233.115C469.231 233.156 469.055 233.353 469.049 233.595C469.042 233.871 469.26 234.1 469.536 234.107C470.092 234.122 470.687 234.129 471.324 234.134C471.6 234.136 471.826 233.914 471.828 233.638C471.83 233.362 471.607 233.136 471.331 233.134L470.414 233.125C470.119 233.121 469.835 233.115 469.562 233.108L469.46 233.115ZM466.082 232.841C465.81 232.796 465.553 232.981 465.508 233.253C465.463 233.525 465.648 233.783 465.921 233.828C466.337 233.896 466.779 233.949 467.252 233.99L467.736 234.028L467.837 234.024C468.068 233.994 468.253 233.805 468.27 233.563C468.288 233.288 468.08 233.049 467.805 233.03L467.339 232.994C466.886 232.955 466.469 232.904 466.082 232.841ZM464.107 233.373C464.367 233.467 464.653 233.332 464.747 233.072C464.841 232.812 464.706 232.525 464.446 232.432L464.107 233.373ZM463.036 231.74C462.801 231.596 462.493 231.67 462.349 231.905C462.204 232.141 462.278 232.449 462.514 232.593C462.747 232.736 462.988 232.87 463.233 232.995C463.514 233.138 463.804 233.264 464.107 233.373L464.276 232.902L464.446 232.432C464.181 232.336 463.929 232.228 463.688 232.104C463.465 231.991 463.248 231.87 463.036 231.74ZM460.776 229.81C460.597 229.6 460.281 229.575 460.071 229.754C459.861 229.933 459.836 230.249 460.016 230.459C460.373 230.877 460.762 231.267 461.181 231.624L461.264 231.682C461.467 231.794 461.729 231.752 461.886 231.568C462.065 231.358 462.04 231.044 461.83 230.864L461.552 230.616C461.278 230.363 461.019 230.094 460.776 229.81ZM459.208 227.193C459.114 226.934 458.828 226.799 458.568 226.893C458.309 226.986 458.174 227.272 458.268 227.532C458.377 227.836 458.502 228.127 458.645 228.407C458.77 228.653 458.904 228.892 459.047 229.126L459.108 229.207C459.267 229.377 459.528 229.417 459.734 229.291C459.97 229.147 460.045 228.839 459.9 228.604C459.771 228.392 459.648 228.175 459.535 227.953C459.412 227.711 459.304 227.459 459.208 227.193ZM458.076 223.371C457.801 223.39 457.593 223.629 457.612 223.904L457.649 224.388C457.691 224.861 457.744 225.304 457.813 225.72C457.857 225.992 458.114 226.176 458.387 226.132C458.659 226.087 458.843 225.83 458.799 225.558C458.714 225.042 458.653 224.473 458.609 223.835L458.593 223.735C458.531 223.511 458.317 223.355 458.076 223.371ZM458.002 219.813C457.726 219.815 457.504 220.04 457.506 220.315C457.51 220.953 457.518 221.548 457.532 222.104L457.545 222.204C457.597 222.431 457.803 222.597 458.045 222.591C458.321 222.584 458.539 222.354 458.532 222.078C458.518 221.53 458.51 220.942 458.506 220.309C458.504 220.033 458.278 219.811 458.002 219.813ZM457.5 218.532C457.5 218.808 457.724 219.031 458 219.031C458.276 219.031 458.5 218.807 458.5 218.531L457.5 218.532ZM458.5 216.662C458.5 216.386 458.276 216.162 458 216.162C457.724 216.162 457.5 216.386 457.5 216.662L457.5 218.532L458 218.531L458.5 218.531L458.5 216.662ZM458.5 214.707L458.5 212.753C458.5 212.477 458.276 212.253 458 212.253C457.724 212.253 457.5 212.477 457.5 212.753L457.5 214.707C457.5 214.983 457.724 215.207 458 215.207C458.276 215.207 458.5 214.983 458.5 214.707ZM458.5 210.798L458.5 208.843C458.5 208.567 458.276 208.343 458 208.343C457.724 208.343 457.5 208.567 457.5 208.843L457.5 210.798C457.5 211.074 457.724 211.298 458 211.298C458.276 211.298 458.5 211.074 458.5 210.798ZM458.5 206.888L458.5 204.933C458.5 204.656 458.276 204.433 458 204.433C457.724 204.433 457.5 204.656 457.5 204.933L457.5 206.888C457.5 207.164 457.724 207.388 458 207.388C458.276 207.388 458.5 207.164 458.5 206.888ZM458.5 202.978L458.5 202C458.5 201.724 458.276 201.5 458 201.5C457.724 201.5 457.5 201.724 457.5 202L457.5 202.978C457.5 203.254 457.724 203.478 458 203.478C458.276 203.478 458.5 203.254 458.5 202.978Z" fill="#FF9000"/>
<path d="M502 261.5C501.867 261.5 501.74 261.447 501.647 261.354L495.647 255.354L495.582 255.275C495.454 255.081 495.476 254.817 495.647 254.646C495.817 254.476 496.081 254.454 496.275 254.582L496.354 254.646L502 260.293L507.647 254.646C507.842 254.451 508.158 254.451 508.354 254.646C508.549 254.842 508.549 255.158 508.354 255.354L502.354 261.354L502.277 261.416C502.196 261.47 502.099 261.5 502 261.5Z" fill="#FF9000"/>
<path d="M458 200.5C458.133 200.5 458.26 200.553 458.353 200.646L464.353 206.646L464.418 206.725C464.546 206.919 464.524 207.183 464.353 207.354C464.183 207.524 463.919 207.546 463.725 207.418L463.646 207.354L458 201.707L452.353 207.354C452.158 207.549 451.842 207.549 451.646 207.354C451.451 207.158 451.451 206.842 451.646 206.646L457.646 200.646L457.723 200.584C457.804 200.53 457.901 200.5 458 200.5Z" fill="#FF9000"/>
<path d="M416 268C400.589 268 389 273.463 389 280.706V323.294C389 330.537 400.589 336 416 336C431.411 336 443 330.537 443 323.294V280.706C443 273.463 431.411 268 416 268ZM438.846 309.098C438.846 313.237 429.085 317.665 416 317.665C402.915 317.665 393.154 313.237 393.154 309.098V301.855C400.011 306.029 407.976 308.035 416 307.608C424.024 308.035 431.989 306.029 438.846 301.855V309.098ZM438.846 294.902C438.846 299.041 429.085 303.469 416 303.469C402.915 303.469 393.154 298.958 393.154 294.902V287.659C400.011 291.833 407.976 293.839 416 293.412C424.024 293.839 431.989 291.833 438.846 287.659V294.902ZM416 272.139C429.085 272.139 438.846 276.691 438.846 280.706C438.846 284.721 429.085 289.273 416 289.273C402.915 289.273 393.154 284.762 393.154 280.706C393.154 276.65 402.915 272.139 416 272.139ZM416 331.861C402.915 331.861 393.154 327.35 393.154 323.294V316.051C400.011 320.225 407.976 322.231 416 321.804C424.024 322.231 431.989 320.225 438.846 316.051V323.294C438.846 327.35 429.085 331.861 416 331.861Z" fill="black"/>
<path d="M500 268C484.589 268 473 273.463 473 280.706V323.294C473 330.537 484.589 336 500 336C515.411 336 527 330.537 527 323.294V280.706C527 273.463 515.411 268 500 268ZM522.846 309.098C522.846 313.237 513.085 317.665 500 317.665C486.915 317.665 477.154 313.237 477.154 309.098V301.855C484.011 306.029 491.976 308.035 500 307.608C508.024 308.035 515.989 306.029 522.846 301.855V309.098ZM522.846 294.902C522.846 299.041 513.085 303.469 500 303.469C486.915 303.469 477.154 298.958 477.154 294.902V287.659C484.011 291.833 491.976 293.839 500 293.412C508.024 293.839 515.989 291.833 522.846 287.659V294.902ZM500 272.139C513.085 272.139 522.846 276.691 522.846 280.706C522.846 284.721 513.085 289.273 500 289.273C486.915 289.273 477.154 284.762 477.154 280.706C477.154 276.65 486.915 272.139 500 272.139ZM500 331.861C486.915 331.861 477.154 327.35 477.154 323.294V316.051C484.011 320.225 491.976 322.231 500 321.804C508.024 322.231 515.989 320.225 522.846 316.051V323.294C522.846 327.35 513.085 331.861 500 331.861Z" fill="black"/>
<path d="M265.732 307.144C265.036 307.144 264.428 306.98 263.908 306.652C263.396 306.316 263.044 305.864 262.852 305.296L264.028 304.732C264.196 305.1 264.428 305.388 264.724 305.596C265.028 305.804 265.364 305.908 265.732 305.908C266.02 305.908 266.248 305.844 266.416 305.716C266.584 305.588 266.668 305.42 266.668 305.212C266.668 305.084 266.632 304.98 266.56 304.9C266.496 304.812 266.404 304.74 266.284 304.684C266.172 304.62 266.048 304.568 265.912 304.528L264.844 304.228C264.292 304.068 263.872 303.824 263.584 303.496C263.304 303.168 263.164 302.78 263.164 302.332C263.164 301.932 263.264 301.584 263.464 301.288C263.672 300.984 263.956 300.748 264.316 300.58C264.684 300.412 265.104 300.328 265.576 300.328C266.192 300.328 266.736 300.476 267.208 300.772C267.68 301.068 268.016 301.484 268.216 302.02L267.016 302.584C266.904 302.288 266.716 302.052 266.452 301.876C266.188 301.7 265.892 301.612 265.564 301.612C265.3 301.612 265.092 301.672 264.94 301.792C264.788 301.912 264.712 302.068 264.712 302.26C264.712 302.38 264.744 302.484 264.808 302.572C264.872 302.66 264.96 302.732 265.072 302.788C265.192 302.844 265.328 302.896 265.48 302.944L266.524 303.256C267.06 303.416 267.472 303.656 267.76 303.976C268.056 304.296 268.204 304.688 268.204 305.152C268.204 305.544 268.1 305.892 267.892 306.196C267.684 306.492 267.396 306.724 267.028 306.892C266.66 307.06 266.228 307.144 265.732 307.144Z" fill="black"/>
<path d="M258.996 307.144C258.324 307.144 257.736 306.992 257.232 306.688C256.728 306.384 256.336 305.972 256.056 305.452C255.776 304.932 255.636 304.356 255.636 303.724C255.636 303.068 255.776 302.488 256.056 301.984C256.344 301.472 256.732 301.068 257.22 300.772C257.716 300.476 258.268 300.328 258.876 300.328C259.388 300.328 259.836 300.412 260.22 300.58C260.612 300.748 260.944 300.98 261.216 301.276C261.488 301.572 261.696 301.912 261.84 302.296C261.984 302.672 262.056 303.08 262.056 303.52C262.056 303.632 262.048 303.748 262.032 303.868C262.024 303.988 262.004 304.092 261.972 304.18H256.932V302.98H261.084L260.34 303.544C260.412 303.176 260.392 302.848 260.28 302.56C260.176 302.272 260 302.044 259.752 301.876C259.512 301.708 259.22 301.624 258.876 301.624C258.548 301.624 258.256 301.708 258 301.876C257.744 302.036 257.548 302.276 257.412 302.596C257.284 302.908 257.236 303.288 257.268 303.736C257.236 304.136 257.288 304.492 257.424 304.804C257.568 305.108 257.776 305.344 258.048 305.512C258.328 305.68 258.648 305.764 259.008 305.764C259.368 305.764 259.672 305.688 259.92 305.536C260.176 305.384 260.376 305.18 260.52 304.924L261.792 305.548C261.664 305.86 261.464 306.136 261.192 306.376C260.92 306.616 260.596 306.804 260.22 306.94C259.852 307.076 259.444 307.144 258.996 307.144Z" fill="black"/>
<path d="M252.22 307.144C251.524 307.144 250.916 306.98 250.396 306.652C249.884 306.316 249.532 305.864 249.34 305.296L250.516 304.732C250.684 305.1 250.916 305.388 251.212 305.596C251.516 305.804 251.852 305.908 252.22 305.908C252.508 305.908 252.736 305.844 252.904 305.716C253.072 305.588 253.156 305.42 253.156 305.212C253.156 305.084 253.12 304.98 253.048 304.9C252.984 304.812 252.892 304.74 252.772 304.684C252.66 304.62 252.536 304.568 252.4 304.528L251.332 304.228C250.78 304.068 250.36 303.824 250.072 303.496C249.792 303.168 249.652 302.78 249.652 302.332C249.652 301.932 249.752 301.584 249.952 301.288C250.16 300.984 250.444 300.748 250.804 300.58C251.172 300.412 251.592 300.328 252.064 300.328C252.68 300.328 253.224 300.476 253.696 300.772C254.168 301.068 254.504 301.484 254.704 302.02L253.504 302.584C253.392 302.288 253.204 302.052 252.94 301.876C252.676 301.7 252.38 301.612 252.052 301.612C251.788 301.612 251.58 301.672 251.428 301.792C251.276 301.912 251.2 302.068 251.2 302.26C251.2 302.38 251.232 302.484 251.296 302.572C251.36 302.66 251.448 302.732 251.56 302.788C251.68 302.844 251.816 302.896 251.968 302.944L253.012 303.256C253.548 303.416 253.96 303.656 254.248 303.976C254.544 304.296 254.692 304.688 254.692 305.152C254.692 305.544 254.588 305.892 254.38 306.196C254.172 306.492 253.884 306.724 253.516 306.892C253.148 307.06 252.716 307.144 252.22 307.144Z" fill="black"/>
<path d="M244.755 307.144C244.299 307.144 243.903 307.068 243.567 306.916C243.231 306.764 242.971 306.548 242.787 306.268C242.603 305.98 242.511 305.648 242.511 305.272C242.511 304.912 242.591 304.592 242.751 304.312C242.911 304.024 243.159 303.784 243.495 303.592C243.831 303.4 244.255 303.264 244.767 303.184L246.903 302.836V304.036L245.067 304.348C244.755 304.404 244.523 304.504 244.371 304.648C244.219 304.792 244.143 304.98 244.143 305.212C244.143 305.436 244.227 305.616 244.395 305.752C244.571 305.88 244.787 305.944 245.043 305.944C245.371 305.944 245.659 305.876 245.907 305.74C246.163 305.596 246.359 305.4 246.495 305.152C246.639 304.904 246.711 304.632 246.711 304.336V302.656C246.711 302.376 246.599 302.144 246.375 301.96C246.159 301.768 245.871 301.672 245.511 301.672C245.175 301.672 244.875 301.764 244.611 301.948C244.355 302.124 244.167 302.36 244.047 302.656L242.763 302.032C242.891 301.688 243.091 301.392 243.363 301.144C243.643 300.888 243.971 300.688 244.347 300.544C244.723 300.4 245.131 300.328 245.571 300.328C246.107 300.328 246.579 300.428 246.987 300.628C247.395 300.82 247.711 301.092 247.935 301.444C248.167 301.788 248.283 302.192 248.283 302.656V307H246.795V305.884L247.131 305.86C246.963 306.14 246.763 306.376 246.531 306.568C246.299 306.752 246.035 306.896 245.739 307C245.443 307.096 245.115 307.144 244.755 307.144Z" fill="black"/>
<path d="M238.276 307.144C237.804 307.144 237.368 307.052 236.968 306.868C236.576 306.676 236.264 306.404 236.032 306.052L236.188 305.74V307H234.712V297.916H236.284V301.768L236.044 301.444C236.268 301.092 236.572 300.82 236.956 300.628C237.34 300.428 237.784 300.328 238.288 300.328C238.904 300.328 239.46 300.48 239.956 300.784C240.452 301.088 240.844 301.496 241.132 302.008C241.428 302.52 241.576 303.096 241.576 303.736C241.576 304.368 241.432 304.944 241.144 305.464C240.856 305.984 240.464 306.396 239.968 306.7C239.472 306.996 238.908 307.144 238.276 307.144ZM238.096 305.704C238.456 305.704 238.776 305.62 239.056 305.452C239.336 305.284 239.552 305.052 239.704 304.756C239.864 304.46 239.944 304.12 239.944 303.736C239.944 303.352 239.864 303.016 239.704 302.728C239.552 302.432 239.336 302.2 239.056 302.032C238.776 301.856 238.456 301.768 238.096 301.768C237.752 301.768 237.44 301.852 237.16 302.02C236.888 302.188 236.672 302.424 236.512 302.728C236.36 303.024 236.284 303.36 236.284 303.736C236.284 304.12 236.36 304.46 236.512 304.756C236.672 305.052 236.888 305.284 237.16 305.452C237.44 305.62 237.752 305.704 238.096 305.704Z" fill="black"/>
<path d="M229.731 307.144C229.275 307.144 228.879 307.068 228.543 306.916C228.207 306.764 227.947 306.548 227.763 306.268C227.579 305.98 227.487 305.648 227.487 305.272C227.487 304.912 227.567 304.592 227.727 304.312C227.887 304.024 228.135 303.784 228.471 303.592C228.807 303.4 229.231 303.264 229.743 303.184L231.879 302.836V304.036L230.043 304.348C229.731 304.404 229.499 304.504 229.347 304.648C229.195 304.792 229.119 304.98 229.119 305.212C229.119 305.436 229.203 305.616 229.371 305.752C229.547 305.88 229.763 305.944 230.019 305.944C230.347 305.944 230.635 305.876 230.883 305.74C231.139 305.596 231.335 305.4 231.471 305.152C231.615 304.904 231.687 304.632 231.687 304.336V302.656C231.687 302.376 231.575 302.144 231.351 301.96C231.135 301.768 230.847 301.672 230.487 301.672C230.151 301.672 229.851 301.764 229.587 301.948C229.331 302.124 229.143 302.36 229.023 302.656L227.739 302.032C227.867 301.688 228.067 301.392 228.339 301.144C228.619 300.888 228.947 300.688 229.323 300.544C229.699 300.4 230.107 300.328 230.547 300.328C231.083 300.328 231.555 300.428 231.963 300.628C232.371 300.82 232.687 301.092 232.911 301.444C233.143 301.788 233.259 302.192 233.259 302.656V307H231.771V305.884L232.107 305.86C231.939 306.14 231.739 306.376 231.507 306.568C231.275 306.752 231.011 306.896 230.715 307C230.419 307.096 230.091 307.144 229.731 307.144Z" fill="black"/>
<path d="M225.794 307.072C225.058 307.072 224.486 306.872 224.078 306.472C223.678 306.064 223.478 305.492 223.478 304.756V301.876H222.35V300.472H222.47C222.79 300.472 223.038 300.388 223.214 300.22C223.39 300.052 223.478 299.808 223.478 299.488V298.984H225.05V300.472H226.55V301.876H225.05V304.672C225.05 304.888 225.086 305.072 225.158 305.224C225.238 305.376 225.358 305.492 225.518 305.572C225.686 305.652 225.898 305.692 226.154 305.692C226.21 305.692 226.274 305.688 226.346 305.68C226.426 305.672 226.502 305.664 226.574 305.656V307C226.462 307.016 226.334 307.032 226.19 307.048C226.046 307.064 225.914 307.072 225.794 307.072Z" fill="black"/>
<path d="M217.954 307.144C217.498 307.144 217.102 307.068 216.766 306.916C216.43 306.764 216.17 306.548 215.986 306.268C215.802 305.98 215.71 305.648 215.71 305.272C215.71 304.912 215.79 304.592 215.95 304.312C216.11 304.024 216.358 303.784 216.694 303.592C217.03 303.4 217.454 303.264 217.966 303.184L220.102 302.836V304.036L218.266 304.348C217.954 304.404 217.722 304.504 217.57 304.648C217.418 304.792 217.342 304.98 217.342 305.212C217.342 305.436 217.426 305.616 217.594 305.752C217.77 305.88 217.986 305.944 218.242 305.944C218.57 305.944 218.858 305.876 219.106 305.74C219.362 305.596 219.558 305.4 219.694 305.152C219.838 304.904 219.91 304.632 219.91 304.336V302.656C219.91 302.376 219.798 302.144 219.574 301.96C219.358 301.768 219.07 301.672 218.71 301.672C218.374 301.672 218.074 301.764 217.81 301.948C217.554 302.124 217.366 302.36 217.246 302.656L215.962 302.032C216.09 301.688 216.29 301.392 216.562 301.144C216.842 300.888 217.17 300.688 217.546 300.544C217.922 300.4 218.33 300.328 218.77 300.328C219.306 300.328 219.778 300.428 220.186 300.628C220.594 300.82 220.91 301.092 221.134 301.444C221.366 301.788 221.482 302.192 221.482 302.656V307H219.994V305.884L220.33 305.86C220.162 306.14 219.962 306.376 219.73 306.568C219.498 306.752 219.234 306.896 218.938 307C218.642 307.096 218.314 307.144 217.954 307.144Z" fill="black"/>
<path d="M207.247 307V298.06H210.163C211.107 298.06 211.927 298.252 212.623 298.636C213.327 299.012 213.871 299.536 214.255 300.208C214.639 300.872 214.831 301.644 214.831 302.524C214.831 303.396 214.639 304.172 214.255 304.852C213.871 305.524 213.327 306.052 212.623 306.436C211.927 306.812 211.107 307 210.163 307H207.247ZM208.879 305.56H210.199C210.807 305.56 211.331 305.436 211.771 305.188C212.219 304.932 212.567 304.58 212.815 304.132C213.063 303.676 213.187 303.14 213.187 302.524C213.187 301.9 213.063 301.364 212.815 300.916C212.567 300.468 212.219 300.12 211.771 299.872C211.331 299.624 210.807 299.5 210.199 299.5H208.879V305.56Z" fill="black"/>
<path d="M200.494 307V300.472H201.97V301.924L201.85 301.708C202.002 301.22 202.238 300.88 202.558 300.688C202.886 300.496 203.278 300.4 203.734 300.4H204.118V301.792H203.554C203.106 301.792 202.746 301.932 202.474 302.212C202.202 302.484 202.066 302.868 202.066 303.364V307H200.494Z" fill="black"/>
<path d="M195.709 307.144C195.205 307.144 194.765 307.032 194.389 306.808C194.021 306.584 193.737 306.272 193.537 305.872C193.345 305.472 193.249 305.004 193.249 304.468V300.472H194.821V304.336C194.821 304.608 194.873 304.848 194.977 305.056C195.089 305.256 195.245 305.416 195.445 305.536C195.653 305.648 195.885 305.704 196.141 305.704C196.397 305.704 196.625 305.648 196.825 305.536C197.025 305.416 197.181 305.252 197.293 305.044C197.405 304.836 197.461 304.588 197.461 304.3V300.472H199.033V307H197.545V305.716L197.677 305.944C197.525 306.344 197.273 306.644 196.921 306.844C196.577 307.044 196.173 307.144 195.709 307.144Z" fill="black"/>
<path d="M188.744 307.144C188.104 307.144 187.52 306.996 186.992 306.7C186.472 306.404 186.056 306 185.744 305.488C185.44 304.976 185.288 304.392 185.288 303.736C185.288 303.08 185.44 302.496 185.744 301.984C186.056 301.472 186.472 301.068 186.992 300.772C187.512 300.476 188.096 300.328 188.744 300.328C189.384 300.328 189.964 300.476 190.484 300.772C191.004 301.068 191.416 301.472 191.72 301.984C192.032 302.488 192.188 303.072 192.188 303.736C192.188 304.392 192.032 304.976 191.72 305.488C191.408 306 190.992 306.404 190.472 306.7C189.952 306.996 189.376 307.144 188.744 307.144ZM188.744 305.704C189.096 305.704 189.404 305.62 189.668 305.452C189.94 305.284 190.152 305.052 190.304 304.756C190.464 304.452 190.544 304.112 190.544 303.736C190.544 303.352 190.464 303.016 190.304 302.728C190.152 302.432 189.94 302.2 189.668 302.032C189.404 301.856 189.096 301.768 188.744 301.768C188.384 301.768 188.068 301.856 187.796 302.032C187.524 302.2 187.308 302.432 187.148 302.728C186.996 303.016 186.92 303.352 186.92 303.736C186.92 304.112 186.996 304.452 187.148 304.756C187.308 305.052 187.524 305.284 187.796 305.452C188.068 305.62 188.384 305.704 188.744 305.704Z" fill="black"/>
<path d="M181.144 307V303.04L178.132 298.06H179.992L182.296 301.948H181.636L183.928 298.06H185.788L182.788 303.028V307H181.144Z" fill="black"/>
<path d="M83 155C83 150.582 86.5817 147 91 147H265C269.418 147 273 150.582 273 155V180C273 184.418 269.418 188 265 188H91C86.5817 188 83 184.418 83 180V155Z" fill="white"/>
<path d="M265 186V188H91V186H265ZM271 180V155C271 151.686 268.314 149 265 149H91C87.6863 149 85 151.686 85 155V180C85 183.314 87.6863 186 91 186V188L90.5879 187.989C86.3611 187.775 83 184.28 83 180V155C83 150.582 86.5817 147 91 147H265C269.418 147 273 150.582 273 155V180C273 184.418 269.418 188 265 188V186C268.314 186 271 183.314 271 180Z" fill="#4BCD6B"/>
<path d="M78 160C78 155.582 81.5817 152 86 152H270C274.418 152 278 155.582 278 160V185C278 189.418 274.418 193 270 193H86C81.5817 193 78 189.418 78 185V160Z" fill="white"/>
<path d="M270 191V193H86V191H270ZM276 185V160C276 156.686 273.314 154 270 154H86C82.6863 154 80 156.686 80 160V185C80 188.314 82.6863 191 86 191V193C81.5817 193 78 189.418 78 185V160C78 155.72 81.3611 152.225 85.5879 152.011L86 152H270L270.412 152.011C274.639 152.225 278 155.72 278 160V185C278 189.418 274.418 193 270 193V191C273.314 191 276 188.314 276 185Z" fill="#4BCD6B"/>
<path d="M97 172.5C97 173.881 95.8807 175 94.5 175C93.1193 175 92 173.881 92 172.5C92 171.119 93.1193 170 94.5 170C95.8807 170 97 171.119 97 172.5Z" fill="#4BCD6B"/>
<path d="M108 172.5C108 173.881 106.881 175 105.5 175C104.119 175 103 173.881 103 172.5C103 171.119 104.119 170 105.5 170C106.881 170 108 171.119 108 172.5Z" fill="#4BCD6B"/>
<path d="M119 172.5C119 173.881 117.881 175 116.5 175C115.119 175 114 173.881 114 172.5C114 171.119 115.119 170 116.5 170C117.881 170 119 171.119 119 172.5Z" fill="#4BCD6B"/>
<path d="M130 172.5C130 171.672 130.672 171 131.5 171H154.5C155.328 171 156 171.672 156 172.5C156 173.328 155.328 174 154.5 174H131.5C130.672 174 130 173.328 130 172.5Z" fill="#4BCD6B"/>
<path d="M237.855 177.168C237.127 177.168 236.479 176.995 235.909 176.65C235.34 176.305 234.892 175.833 234.565 175.236C234.239 174.629 234.075 173.953 234.075 173.206C234.075 172.45 234.234 171.778 234.551 171.19C234.878 170.602 235.317 170.14 235.867 169.804C236.427 169.459 237.053 169.286 237.743 169.286C238.303 169.286 238.798 169.389 239.227 169.594C239.666 169.79 240.035 170.061 240.333 170.406C240.641 170.742 240.875 171.129 241.033 171.568C241.201 171.997 241.285 172.445 241.285 172.912C241.285 173.015 241.276 173.131 241.257 173.262C241.248 173.383 241.234 173.5 241.215 173.612H235.027V172.492H240.459L239.843 172.996C239.927 172.511 239.881 172.077 239.703 171.694C239.526 171.311 239.265 171.008 238.919 170.784C238.574 170.56 238.182 170.448 237.743 170.448C237.305 170.448 236.903 170.56 236.539 170.784C236.175 171.008 235.891 171.33 235.685 171.75C235.489 172.161 235.41 172.651 235.447 173.22C235.41 173.771 235.494 174.256 235.699 174.676C235.914 175.087 236.213 175.409 236.595 175.642C236.987 175.866 237.412 175.978 237.869 175.978C238.373 175.978 238.798 175.861 239.143 175.628C239.489 175.395 239.769 175.096 239.983 174.732L241.075 175.292C240.926 175.637 240.693 175.955 240.375 176.244C240.067 176.524 239.699 176.748 239.269 176.916C238.849 177.084 238.378 177.168 237.855 177.168Z" fill="#4BCD6B"/>
<path d="M231.061 177V166.402H232.363V177H231.061Z" fill="#4BCD6B"/>
<path d="M225.485 177.168C224.757 177.168 224.099 177 223.511 176.664C222.923 176.319 222.456 175.847 222.111 175.25C221.765 174.653 221.593 173.976 221.593 173.22C221.593 172.464 221.761 171.792 222.097 171.204C222.442 170.616 222.909 170.149 223.497 169.804C224.085 169.459 224.747 169.286 225.485 169.286C226.213 169.286 226.871 169.459 227.459 169.804C228.047 170.14 228.509 170.602 228.845 171.19C229.19 171.778 229.363 172.455 229.363 173.22C229.363 173.985 229.185 174.667 228.831 175.264C228.476 175.852 228.005 176.319 227.417 176.664C226.838 177 226.194 177.168 225.485 177.168ZM225.485 175.908C225.951 175.908 226.371 175.791 226.745 175.558C227.127 175.325 227.426 175.003 227.641 174.592C227.865 174.181 227.977 173.724 227.977 173.22C227.977 172.707 227.865 172.254 227.641 171.862C227.426 171.461 227.127 171.143 226.745 170.91C226.371 170.667 225.951 170.546 225.485 170.546C225.009 170.546 224.579 170.667 224.197 170.91C223.823 171.143 223.525 171.461 223.301 171.862C223.077 172.254 222.965 172.707 222.965 173.22C222.965 173.724 223.077 174.181 223.301 174.592C223.525 175.003 223.823 175.325 224.197 175.558C224.579 175.791 225.009 175.908 225.485 175.908Z" fill="#4BCD6B"/>
<path d="M217.452 177.168C216.696 177.168 216.038 176.981 215.478 176.608C214.918 176.235 214.521 175.731 214.288 175.096L215.324 174.592C215.539 175.04 215.833 175.395 216.206 175.656C216.579 175.917 216.995 176.048 217.452 176.048C217.863 176.048 218.203 175.95 218.474 175.754C218.745 175.558 218.88 175.301 218.88 174.984C218.88 174.76 218.815 174.583 218.684 174.452C218.563 174.312 218.413 174.205 218.236 174.13C218.059 174.046 217.895 173.985 217.746 173.948L216.612 173.626C215.931 173.43 215.431 173.15 215.114 172.786C214.806 172.422 214.652 171.997 214.652 171.512C214.652 171.064 214.764 170.677 214.988 170.35C215.221 170.014 215.534 169.753 215.926 169.566C216.327 169.379 216.775 169.286 217.27 169.286C217.933 169.286 218.525 169.454 219.048 169.79C219.58 170.126 219.958 170.597 220.182 171.204L219.118 171.694C218.95 171.302 218.698 170.994 218.362 170.77C218.026 170.537 217.648 170.42 217.228 170.42C216.845 170.42 216.542 170.518 216.318 170.714C216.094 170.901 215.982 171.139 215.982 171.428C215.982 171.643 216.038 171.82 216.15 171.96C216.262 172.091 216.397 172.193 216.556 172.268C216.715 172.333 216.869 172.389 217.018 172.436L218.25 172.8C218.866 172.977 219.342 173.253 219.678 173.626C220.023 173.999 220.196 174.447 220.196 174.97C220.196 175.39 220.079 175.768 219.846 176.104C219.613 176.44 219.291 176.701 218.88 176.888C218.469 177.075 217.993 177.168 217.452 177.168Z" fill="#4BCD6B"/>
<path d="M206.629 177V169.454H207.903V170.924L207.693 170.798C207.88 170.322 208.178 169.953 208.589 169.692C209.009 169.421 209.499 169.286 210.059 169.286C210.6 169.286 211.081 169.407 211.501 169.65C211.93 169.893 212.266 170.229 212.509 170.658C212.761 171.087 212.887 171.573 212.887 172.114V177H211.571V172.534C211.571 172.114 211.496 171.759 211.347 171.47C211.198 171.181 210.983 170.957 210.703 170.798C210.432 170.63 210.12 170.546 209.765 170.546C209.41 170.546 209.093 170.63 208.813 170.798C208.542 170.957 208.328 171.185 208.169 171.484C208.01 171.773 207.931 172.123 207.931 172.534V177H206.629Z" fill="#4BCD6B"/>
<path d="M201.053 177.168C200.325 177.168 199.667 177 199.079 176.664C198.491 176.319 198.024 175.847 197.679 175.25C197.334 174.653 197.161 173.976 197.161 173.22C197.161 172.464 197.329 171.792 197.665 171.204C198.01 170.616 198.477 170.149 199.065 169.804C199.653 169.459 200.316 169.286 201.053 169.286C201.781 169.286 202.439 169.459 203.027 169.804C203.615 170.14 204.077 170.602 204.413 171.19C204.758 171.778 204.931 172.455 204.931 173.22C204.931 173.985 204.754 174.667 204.399 175.264C204.044 175.852 203.573 176.319 202.985 176.664C202.406 177 201.762 177.168 201.053 177.168ZM201.053 175.908C201.52 175.908 201.94 175.791 202.313 175.558C202.696 175.325 202.994 175.003 203.209 174.592C203.433 174.181 203.545 173.724 203.545 173.22C203.545 172.707 203.433 172.254 203.209 171.862C202.994 171.461 202.696 171.143 202.313 170.91C201.94 170.667 201.52 170.546 201.053 170.546C200.577 170.546 200.148 170.667 199.765 170.91C199.392 171.143 199.093 171.461 198.869 171.862C198.645 172.254 198.533 172.707 198.533 173.22C198.533 173.724 198.645 174.181 198.869 174.592C199.093 175.003 199.392 175.325 199.765 175.558C200.148 175.791 200.577 175.908 201.053 175.908Z" fill="#4BCD6B"/>
<path d="M192.534 177.168C191.796 177.168 191.138 176.995 190.56 176.65C189.99 176.305 189.542 175.833 189.216 175.236C188.889 174.639 188.726 173.967 188.726 173.22C188.726 172.464 188.889 171.792 189.216 171.204C189.542 170.616 189.99 170.149 190.56 169.804C191.138 169.459 191.796 169.286 192.534 169.286C193.028 169.286 193.49 169.375 193.92 169.552C194.349 169.729 194.727 169.967 195.054 170.266C195.38 170.565 195.618 170.915 195.768 171.316L194.606 171.876C194.428 171.484 194.158 171.167 193.794 170.924C193.43 170.672 193.01 170.546 192.534 170.546C192.076 170.546 191.661 170.663 191.288 170.896C190.924 171.129 190.634 171.447 190.42 171.848C190.205 172.249 190.098 172.711 190.098 173.234C190.098 173.738 190.205 174.195 190.42 174.606C190.634 175.007 190.924 175.325 191.288 175.558C191.661 175.791 192.076 175.908 192.534 175.908C193.01 175.908 193.43 175.787 193.794 175.544C194.158 175.292 194.428 174.961 194.606 174.55L195.768 175.138C195.618 175.53 195.38 175.88 195.054 176.188C194.727 176.487 194.349 176.725 193.92 176.902C193.49 177.079 193.028 177.168 192.534 177.168Z" fill="#4BCD6B"/>
<path d="M364 156C364 151.582 367.582 148 372 148H546C550.418 148 554 151.582 554 156V183C554 187.418 550.418 191 546 191H372C367.582 191 364 187.418 364 183V156Z" fill="white"/>
<path d="M546 189V191H372V189H546ZM552 183V156C552 152.686 549.314 150 546 150H372C368.686 150 366 152.686 366 156V183C366 186.314 368.686 189 372 189V191L371.588 190.989C367.361 190.775 364 187.28 364 183V156C364 151.582 367.582 148 372 148H546C550.418 148 554 151.582 554 156V183C554 187.418 550.418 191 546 191V189C549.314 189 552 186.314 552 183Z" fill="#0087C7"/>
<path d="M359 161C359 156.582 362.582 153 367 153H551C555.418 153 559 156.582 559 161V186C559 190.418 555.418 194 551 194H367C362.582 194 359 190.418 359 186V161Z" fill="white"/>
<path d="M551 192V194H367V192H551ZM557 186V161C557 157.686 554.314 155 551 155H367C363.686 155 361 157.686 361 161V186C361 189.314 363.686 192 367 192V194C362.582 194 359 190.418 359 186V161C359 156.72 362.361 153.225 366.588 153.011L367 153H551L551.412 153.011C555.639 153.225 559 156.72 559 161V186C559 190.418 555.418 194 551 194V192C554.314 192 557 189.314 557 186Z" fill="#0087C7"/>
<path d="M386 173.5C386 174.881 384.881 176 383.5 176C382.119 176 381 174.881 381 173.5C381 172.119 382.119 171 383.5 171C384.881 171 386 172.119 386 173.5Z" fill="#0087C7"/>
<path d="M396 173.5C396 174.881 394.881 176 393.5 176C392.119 176 391 174.881 391 173.5C391 172.119 392.119 171 393.5 171C394.881 171 396 172.119 396 173.5Z" fill="#0087C7"/>
<path d="M406 173.5C406 174.881 404.881 176 403.5 176C402.119 176 401 174.881 401 173.5C401 172.119 402.119 171 403.5 171C404.881 171 406 172.119 406 173.5Z" fill="#0087C7"/>
<path d="M417 173.5C417 172.672 417.672 172 418.5 172H441.5C442.328 172 443 172.672 443 173.5C443 174.328 442.328 175 441.5 175H418.5C417.672 175 417 174.328 417 173.5Z" fill="#0087C7"/>
<path d="M523.938 178V170.454H525.212V171.84L525.071 171.644C525.249 171.215 525.519 170.897 525.883 170.692C526.247 170.477 526.691 170.37 527.214 170.37H527.675V171.602H527.018C526.486 171.602 526.056 171.77 525.729 172.106C525.403 172.433 525.24 172.899 525.24 173.506V178H523.938Z" fill="#0087C7"/>
<path d="M518.81 178.168C518.082 178.168 517.434 177.995 516.864 177.65C516.295 177.305 515.847 176.833 515.52 176.236C515.194 175.629 515.03 174.953 515.03 174.206C515.03 173.45 515.189 172.778 515.506 172.19C515.833 171.602 516.272 171.14 516.822 170.804C517.382 170.459 518.008 170.286 518.698 170.286C519.258 170.286 519.753 170.389 520.182 170.594C520.621 170.79 520.99 171.061 521.288 171.406C521.596 171.742 521.83 172.129 521.988 172.568C522.156 172.997 522.24 173.445 522.24 173.912C522.24 174.015 522.231 174.131 522.212 174.262C522.203 174.383 522.189 174.5 522.17 174.612H515.982V173.492H521.414L520.798 173.996C520.882 173.511 520.836 173.077 520.658 172.694C520.481 172.311 520.22 172.008 519.874 171.784C519.529 171.56 519.137 171.448 518.698 171.448C518.26 171.448 517.858 171.56 517.494 171.784C517.13 172.008 516.846 172.33 516.64 172.75C516.444 173.161 516.365 173.651 516.402 174.22C516.365 174.771 516.449 175.256 516.654 175.676C516.869 176.087 517.168 176.409 517.55 176.642C517.942 176.866 518.367 176.978 518.824 176.978C519.328 176.978 519.753 176.861 520.098 176.628C520.444 176.395 520.724 176.096 520.938 175.732L522.03 176.292C521.881 176.637 521.648 176.955 521.33 177.244C521.022 177.524 520.654 177.748 520.224 177.916C519.804 178.084 519.333 178.168 518.81 178.168Z" fill="#0087C7"/>
<path d="M507.668 178V167.402H508.97V174.668L508.438 174.542L512.442 170.454H514.108L511.21 173.492L514.304 178H512.764L509.936 173.912L510.748 173.87L508.55 176.166L508.97 175.214V178H507.668Z" fill="#0087C7"/>
<path d="M502.773 178V170.454H504.047V171.84L503.907 171.644C504.085 171.215 504.355 170.897 504.719 170.692C505.083 170.477 505.527 170.37 506.049 170.37H506.511V171.602H505.853C505.321 171.602 504.892 171.77 504.565 172.106C504.239 172.433 504.075 172.899 504.075 173.506V178H502.773Z" fill="#0087C7"/>
<path d="M497.198 178.168C496.47 178.168 495.812 178 495.224 177.664C494.636 177.319 494.169 176.847 493.824 176.25C493.478 175.653 493.306 174.976 493.306 174.22C493.306 173.464 493.474 172.792 493.81 172.204C494.155 171.616 494.622 171.149 495.21 170.804C495.798 170.459 496.46 170.286 497.198 170.286C497.926 170.286 498.584 170.459 499.172 170.804C499.76 171.14 500.222 171.602 500.558 172.19C500.903 172.778 501.076 173.455 501.076 174.22C501.076 174.985 500.898 175.667 500.544 176.264C500.189 176.852 499.718 177.319 499.13 177.664C498.551 178 497.907 178.168 497.198 178.168ZM497.198 176.908C497.664 176.908 498.084 176.791 498.458 176.558C498.84 176.325 499.139 176.003 499.354 175.592C499.578 175.181 499.69 174.724 499.69 174.22C499.69 173.707 499.578 173.254 499.354 172.862C499.139 172.461 498.84 172.143 498.458 171.91C498.084 171.667 497.664 171.546 497.198 171.546C496.722 171.546 496.292 171.667 495.91 171.91C495.536 172.143 495.238 172.461 495.014 172.862C494.79 173.254 494.678 173.707 494.678 174.22C494.678 174.724 494.79 175.181 495.014 175.592C495.238 176.003 495.536 176.325 495.91 176.558C496.292 176.791 496.722 176.908 497.198 176.908Z" fill="#0087C7"/>
<path d="M483.92 178L481.33 170.454H482.772L484.83 176.768L484.326 176.754L486.342 170.454H487.574L489.59 176.754L489.086 176.768L491.158 170.454H492.586L489.996 178H488.75L486.762 171.7H487.154L485.166 178H483.92Z" fill="#0087C7"/>
<path d="M391.6 220V209.402H392.902V216.668L392.37 216.542L396.374 212.454H398.04L395.142 215.492L398.236 220H396.696L393.868 215.912L394.68 215.87L392.482 218.166L392.902 217.214V220H391.6Z" fill="black"/>
<path d="M386.705 220V212.454H387.979V213.84L387.839 213.644C388.016 213.215 388.287 212.897 388.651 212.692C389.015 212.477 389.458 212.37 389.981 212.37H390.443V213.602H389.785C389.253 213.602 388.824 213.77 388.497 214.106C388.17 214.433 388.007 214.899 388.007 215.506V220H386.705Z" fill="black"/>
<path d="M381.129 220.168C380.401 220.168 379.743 220 379.155 219.664C378.567 219.319 378.101 218.847 377.755 218.25C377.41 217.653 377.237 216.976 377.237 216.22C377.237 215.464 377.405 214.792 377.741 214.204C378.087 213.616 378.553 213.149 379.141 212.804C379.729 212.459 380.392 212.286 381.129 212.286C381.857 212.286 382.515 212.459 383.103 212.804C383.691 213.14 384.153 213.602 384.489 214.19C384.835 214.778 385.007 215.455 385.007 216.22C385.007 216.985 384.83 217.667 384.475 218.264C384.121 218.852 383.649 219.319 383.061 219.664C382.483 220 381.839 220.168 381.129 220.168ZM381.129 218.908C381.596 218.908 382.016 218.791 382.389 218.558C382.772 218.325 383.071 218.003 383.285 217.592C383.509 217.181 383.621 216.724 383.621 216.22C383.621 215.707 383.509 215.254 383.285 214.862C383.071 214.461 382.772 214.143 382.389 213.91C382.016 213.667 381.596 213.546 381.129 213.546C380.653 213.546 380.224 213.667 379.841 213.91C379.468 214.143 379.169 214.461 378.945 214.862C378.721 215.254 378.609 215.707 378.609 216.22C378.609 216.724 378.721 217.181 378.945 217.592C379.169 218.003 379.468 218.325 379.841 218.558C380.224 218.791 380.653 218.908 381.129 218.908Z" fill="black"/>
<path d="M367.851 220L365.261 212.454H366.703L368.761 218.768L368.257 218.754L370.273 212.454H371.505L373.521 218.754L373.017 218.768L375.089 212.454H376.517L373.927 220H372.681L370.693 213.7H371.085L369.097 220H367.851Z" fill="black"/>
<path d="M363.631 220.084C362.894 220.084 362.324 219.874 361.923 219.454C361.531 219.034 361.335 218.441 361.335 217.676V213.7H359.963V212.454H360.243C360.579 212.454 360.845 212.351 361.041 212.146C361.237 211.94 361.335 211.67 361.335 211.334V210.718H362.637V212.454H364.331V213.7H362.637V217.634C362.637 217.886 362.674 218.105 362.749 218.292C362.833 218.478 362.968 218.628 363.155 218.74C363.342 218.842 363.589 218.894 363.897 218.894C363.962 218.894 364.042 218.889 364.135 218.88C364.238 218.87 364.331 218.861 364.415 218.852V220C364.294 220.028 364.158 220.046 364.009 220.056C363.86 220.074 363.734 220.084 363.631 220.084Z" fill="black"/>
<path d="M355.437 220.168C354.709 220.168 354.061 219.995 353.491 219.65C352.922 219.305 352.474 218.833 352.147 218.236C351.821 217.629 351.657 216.953 351.657 216.206C351.657 215.45 351.816 214.778 352.133 214.19C352.46 213.602 352.899 213.14 353.449 212.804C354.009 212.459 354.635 212.286 355.325 212.286C355.885 212.286 356.38 212.389 356.809 212.594C357.248 212.79 357.617 213.061 357.915 213.406C358.223 213.742 358.457 214.129 358.615 214.568C358.783 214.997 358.867 215.445 358.867 215.912C358.867 216.015 358.858 216.131 358.839 216.262C358.83 216.383 358.816 216.5 358.797 216.612H352.609V215.492H358.041L357.425 215.996C357.509 215.511 357.463 215.077 357.285 214.694C357.108 214.311 356.847 214.008 356.501 213.784C356.156 213.56 355.764 213.448 355.325 213.448C354.887 213.448 354.485 213.56 354.121 213.784C353.757 214.008 353.473 214.33 353.267 214.75C353.071 215.161 352.992 215.651 353.029 216.22C352.992 216.771 353.076 217.256 353.281 217.676C353.496 218.087 353.795 218.409 354.177 218.642C354.569 218.866 354.994 218.978 355.451 218.978C355.955 218.978 356.38 218.861 356.725 218.628C357.071 218.395 357.351 218.096 357.565 217.732L358.657 218.292C358.508 218.637 358.275 218.955 357.957 219.244C357.649 219.524 357.281 219.748 356.851 219.916C356.431 220.084 355.96 220.168 355.437 220.168Z" fill="black"/>
<path d="M341.783 220V209.57H342.931L348.923 217.998L348.405 218.054V209.57H349.791V220H348.643L342.679 211.516L343.155 211.46V220H341.783Z" fill="black"/>
<path d="M335.887 220V209.402H337.189V220H335.887Z" fill="black"/>
<path d="M330.046 220.168C329.552 220.168 329.113 220.079 328.73 219.902C328.357 219.715 328.063 219.463 327.848 219.146C327.634 218.819 327.526 218.446 327.526 218.026C327.526 217.625 327.61 217.265 327.778 216.948C327.956 216.621 328.226 216.346 328.59 216.122C328.964 215.898 329.43 215.739 329.99 215.646L332.79 215.184V216.276L330.284 216.696C329.799 216.78 329.444 216.934 329.22 217.158C329.006 217.382 328.898 217.657 328.898 217.984C328.898 218.292 329.02 218.549 329.262 218.754C329.514 218.959 329.827 219.062 330.2 219.062C330.676 219.062 331.087 218.964 331.432 218.768C331.787 218.563 332.062 218.287 332.258 217.942C332.464 217.597 332.566 217.214 332.566 216.794V214.876C332.566 214.465 332.412 214.134 332.104 213.882C331.806 213.621 331.409 213.49 330.914 213.49C330.485 213.49 330.102 213.602 329.766 213.826C329.44 214.041 329.197 214.33 329.038 214.694L327.904 214.106C328.044 213.761 328.268 213.453 328.576 213.182C328.884 212.902 329.244 212.683 329.654 212.524C330.065 212.365 330.494 212.286 330.942 212.286C331.521 212.286 332.03 212.398 332.468 212.622C332.907 212.837 333.248 213.14 333.49 213.532C333.742 213.915 333.868 214.363 333.868 214.876V220H332.594V218.572L332.832 218.656C332.674 218.955 332.459 219.216 332.188 219.44C331.918 219.664 331.6 219.841 331.236 219.972C330.872 220.103 330.476 220.168 330.046 220.168Z" fill="black"/>
<path d="M319.713 220V212.454H320.987V213.924L320.777 213.798C320.964 213.322 321.262 212.953 321.673 212.692C322.093 212.421 322.583 212.286 323.143 212.286C323.684 212.286 324.165 212.407 324.585 212.65C325.014 212.893 325.35 213.229 325.593 213.658C325.845 214.087 325.971 214.573 325.971 215.114V220H324.655V215.534C324.655 215.114 324.58 214.759 324.431 214.47C324.282 214.181 324.067 213.957 323.787 213.798C323.516 213.63 323.204 213.546 322.849 213.546C322.494 213.546 322.177 213.63 321.897 213.798C321.626 213.957 321.412 214.185 321.253 214.484C321.094 214.773 321.015 215.123 321.015 215.534V220H319.713Z" fill="black"/>
<path d="M313.873 220.168C313.378 220.168 312.939 220.079 312.557 219.902C312.183 219.715 311.889 219.463 311.675 219.146C311.46 218.819 311.353 218.446 311.353 218.026C311.353 217.625 311.437 217.265 311.605 216.948C311.782 216.621 312.053 216.346 312.417 216.122C312.79 215.898 313.257 215.739 313.817 215.646L316.617 215.184V216.276L314.111 216.696C313.625 216.78 313.271 216.934 313.047 217.158C312.832 217.382 312.725 217.657 312.725 217.984C312.725 218.292 312.846 218.549 313.089 218.754C313.341 218.959 313.653 219.062 314.027 219.062C314.503 219.062 314.913 218.964 315.259 218.768C315.613 218.563 315.889 218.287 316.085 217.942C316.29 217.597 316.393 217.214 316.393 216.794V214.876C316.393 214.465 316.239 214.134 315.931 213.882C315.632 213.621 315.235 213.49 314.741 213.49C314.311 213.49 313.929 213.602 313.593 213.826C313.266 214.041 313.023 214.33 312.865 214.694L311.731 214.106C311.871 213.761 312.095 213.453 312.403 213.182C312.711 212.902 313.07 212.683 313.481 212.524C313.891 212.365 314.321 212.286 314.769 212.286C315.347 212.286 315.856 212.398 316.295 212.622C316.733 212.837 317.074 213.14 317.317 213.532C317.569 213.915 317.695 214.363 317.695 214.876V220H316.421V218.572L316.659 218.656C316.5 218.955 316.285 219.216 316.015 219.44C315.744 219.664 315.427 219.841 315.063 219.972C314.699 220.103 314.302 220.168 313.873 220.168Z" fill="black"/>
<path d="M305.843 220.168C305.106 220.168 304.424 220.037 303.799 219.776C303.183 219.505 302.642 219.127 302.175 218.642C301.718 218.157 301.363 217.587 301.111 216.934C300.859 216.281 300.733 215.567 300.733 214.792C300.733 214.008 300.859 213.289 301.111 212.636C301.363 211.983 301.718 211.413 302.175 210.928C302.632 210.443 303.174 210.069 303.799 209.808C304.424 209.537 305.106 209.402 305.843 209.402C306.562 209.402 307.206 209.528 307.775 209.78C308.354 210.032 308.839 210.359 309.231 210.76C309.632 211.161 309.917 211.591 310.085 212.048L308.825 212.622C308.582 212.043 308.204 211.577 307.691 211.222C307.178 210.858 306.562 210.676 305.843 210.676C305.115 210.676 304.466 210.849 303.897 211.194C303.337 211.539 302.898 212.02 302.581 212.636C302.264 213.252 302.105 213.971 302.105 214.792C302.105 215.604 302.264 216.318 302.581 216.934C302.898 217.55 303.337 218.031 303.897 218.376C304.466 218.721 305.115 218.894 305.843 218.894C306.562 218.894 307.178 218.717 307.691 218.362C308.204 217.998 308.582 217.527 308.825 216.948L310.085 217.522C309.917 217.979 309.632 218.409 309.231 218.81C308.839 219.211 308.354 219.538 307.775 219.79C307.206 220.042 306.562 220.168 305.843 220.168Z" fill="black"/>
<path d="M294.952 220.168C294.243 220.168 293.603 219.995 293.034 219.65C292.474 219.305 292.031 218.833 291.704 218.236C291.377 217.639 291.214 216.971 291.214 216.234C291.214 215.478 291.377 214.806 291.704 214.218C292.031 213.621 292.474 213.149 293.034 212.804C293.603 212.459 294.243 212.286 294.952 212.286C295.577 212.286 296.133 212.421 296.618 212.692C297.103 212.953 297.486 213.308 297.766 213.756L297.556 214.078V209.402H298.872V220H297.598V218.39L297.766 218.614C297.505 219.109 297.122 219.491 296.618 219.762C296.123 220.033 295.568 220.168 294.952 220.168ZM295.064 218.908C295.54 218.908 295.965 218.791 296.338 218.558C296.711 218.325 297.005 218.007 297.22 217.606C297.444 217.195 297.556 216.738 297.556 216.234C297.556 215.721 297.444 215.263 297.22 214.862C297.005 214.451 296.711 214.129 296.338 213.896C295.965 213.663 295.54 213.546 295.064 213.546C294.597 213.546 294.173 213.667 293.79 213.91C293.417 214.143 293.123 214.461 292.908 214.862C292.693 215.254 292.586 215.711 292.586 216.234C292.586 216.738 292.693 217.195 292.908 217.606C293.123 218.007 293.417 218.325 293.79 218.558C294.163 218.791 294.588 218.908 295.064 218.908Z" fill="black"/>
<path d="M286.075 220.168C285.533 220.168 285.043 220.042 284.605 219.79C284.175 219.538 283.839 219.188 283.597 218.74C283.363 218.283 283.247 217.76 283.247 217.172V212.454H284.549V217.032C284.549 217.405 284.623 217.732 284.773 218.012C284.931 218.292 285.146 218.511 285.417 218.67C285.697 218.829 286.014 218.908 286.369 218.908C286.723 218.908 287.036 218.829 287.307 218.67C287.587 218.511 287.801 218.283 287.951 217.984C288.109 217.685 288.189 217.331 288.189 216.92V212.454H289.505V220H288.231V218.53L288.441 218.656C288.263 219.132 287.96 219.505 287.531 219.776C287.111 220.037 286.625 220.168 286.075 220.168Z" fill="black"/>
<path d="M277.825 220.168C277.097 220.168 276.439 220 275.851 219.664C275.263 219.319 274.796 218.847 274.451 218.25C274.105 217.653 273.933 216.976 273.933 216.22C273.933 215.464 274.101 214.792 274.437 214.204C274.782 213.616 275.249 213.149 275.837 212.804C276.425 212.459 277.087 212.286 277.825 212.286C278.553 212.286 279.211 212.459 279.799 212.804C280.387 213.14 280.849 213.602 281.185 214.19C281.53 214.778 281.703 215.455 281.703 216.22C281.703 216.985 281.525 217.667 281.171 218.264C280.816 218.852 280.345 219.319 279.757 219.664C279.178 220 278.534 220.168 277.825 220.168ZM277.825 218.908C278.291 218.908 278.711 218.791 279.085 218.558C279.467 218.325 279.766 218.003 279.981 217.592C280.205 217.181 280.317 216.724 280.317 216.22C280.317 215.707 280.205 215.254 279.981 214.862C279.766 214.461 279.467 214.143 279.085 213.91C278.711 213.667 278.291 213.546 277.825 213.546C277.349 213.546 276.919 213.667 276.537 213.91C276.163 214.143 275.865 214.461 275.641 214.862C275.417 215.254 275.305 215.707 275.305 216.22C275.305 216.724 275.417 217.181 275.641 217.592C275.865 218.003 276.163 218.325 276.537 218.558C276.919 218.791 277.349 218.908 277.825 218.908Z" fill="black"/>
<path d="M270.918 220V209.402H272.22V220H270.918Z" fill="black"/>
<path d="M264.964 220.168C264.227 220.168 263.545 220.037 262.92 219.776C262.304 219.505 261.763 219.127 261.296 218.642C260.839 218.157 260.484 217.587 260.232 216.934C259.98 216.281 259.854 215.567 259.854 214.792C259.854 214.008 259.98 213.289 260.232 212.636C260.484 211.983 260.839 211.413 261.296 210.928C261.753 210.443 262.295 210.069 262.92 209.808C263.545 209.537 264.227 209.402 264.964 209.402C265.683 209.402 266.327 209.528 266.896 209.78C267.475 210.032 267.96 210.359 268.352 210.76C268.753 211.161 269.038 211.591 269.206 212.048L267.946 212.622C267.703 212.043 267.325 211.577 266.812 211.222C266.299 210.858 265.683 210.676 264.964 210.676C264.236 210.676 263.587 210.849 263.018 211.194C262.458 211.539 262.019 212.02 261.702 212.636C261.385 213.252 261.226 213.971 261.226 214.792C261.226 215.604 261.385 216.318 261.702 216.934C262.019 217.55 262.458 218.031 263.018 218.376C263.587 218.721 264.236 218.894 264.964 218.894C265.683 218.894 266.299 218.717 266.812 218.362C267.325 217.998 267.703 217.527 267.946 216.948L269.206 217.522C269.038 217.979 268.753 218.409 268.352 218.81C267.96 219.211 267.475 219.538 266.896 219.79C266.327 220.042 265.683 220.168 264.964 220.168Z" fill="black"/>
<path d="M166.88 98.7858V71.9658H175.628C178.46 71.9658 180.92 72.5418 183.008 73.6938C185.12 74.8218 186.752 76.3938 187.904 78.4098C189.056 80.4018 189.632 82.7178 189.632 85.3578C189.632 87.9738 189.056 90.3018 187.904 92.3418C186.752 94.3578 185.12 95.9418 183.008 97.0938C180.92 98.2218 178.46 98.7858 175.628 98.7858H166.88ZM171.776 94.4658H175.736C177.56 94.4658 179.132 94.0938 180.452 93.3498C181.796 92.5818 182.84 91.5258 183.584 90.1818C184.328 88.8138 184.7 87.2058 184.7 85.3578C184.7 83.4858 184.328 81.8778 183.584 80.5338C182.84 79.1898 181.796 78.1458 180.452 77.4018C179.132 76.6578 177.56 76.2858 175.736 76.2858H171.776V94.4658Z" fill="black"/>
<path d="M152.092 99.2178C150.028 99.2178 148.192 98.7858 146.584 97.9218C145 97.0578 143.752 95.8698 142.84 94.3578C141.928 92.8458 141.472 91.1298 141.472 89.2098V71.9658H146.368V88.9578C146.368 90.0618 146.608 91.0578 147.088 91.9458C147.592 92.8338 148.276 93.5298 149.14 94.0338C150.004 94.5138 150.988 94.7538 152.092 94.7538C153.22 94.7538 154.204 94.5138 155.044 94.0338C155.908 93.5298 156.58 92.8338 157.06 91.9458C157.564 91.0578 157.816 90.0618 157.816 88.9578V71.9658H162.712V89.2098C162.712 91.1298 162.256 92.8458 161.344 94.3578C160.432 95.8698 159.172 97.0578 157.564 97.9218C155.98 98.7858 154.156 99.2178 152.092 99.2178Z" fill="black"/>
<path d="M124.087 99.2177C122.119 99.2177 120.283 98.8697 118.579 98.1737C116.875 97.4777 115.387 96.5057 114.115 95.2577C112.843 94.0097 111.847 92.5457 111.127 90.8657C110.431 89.1617 110.083 87.3257 110.083 85.3577C110.083 83.3657 110.431 81.5297 111.127 79.8497C111.823 78.1697 112.807 76.7057 114.079 75.4577C115.351 74.2097 116.839 73.2497 118.543 72.5777C120.247 71.8817 122.095 71.5337 124.087 71.5337C126.079 71.5337 127.927 71.8817 129.631 72.5777C131.335 73.2737 132.823 74.2457 134.095 75.4937C135.367 76.7177 136.351 78.1697 137.047 79.8497C137.767 81.5297 138.127 83.3657 138.127 85.3577C138.127 87.3257 137.767 89.1617 137.047 90.8657C136.327 92.5457 135.331 94.0097 134.059 95.2577C132.787 96.5057 131.299 97.4777 129.595 98.1737C127.915 98.8697 126.079 99.2177 124.087 99.2177ZM124.087 94.7537C125.407 94.7537 126.619 94.5257 127.723 94.0697C128.827 93.5897 129.787 92.9297 130.603 92.0897C131.443 91.2497 132.079 90.2537 132.511 89.1017C132.967 87.9497 133.195 86.7017 133.195 85.3577C133.195 84.0137 132.967 82.7777 132.511 81.6497C132.079 80.4977 131.443 79.5017 130.603 78.6617C129.787 77.7977 128.827 77.1377 127.723 76.6817C126.619 76.2257 125.407 75.9977 124.087 75.9977C122.791 75.9977 121.591 76.2257 120.487 76.6817C119.383 77.1377 118.411 77.7977 117.571 78.6617C116.755 79.5017 116.119 80.4977 115.663 81.6497C115.207 82.7777 114.979 84.0137 114.979 85.3577C114.979 86.7017 115.207 87.9497 115.663 89.1017C116.119 90.2537 116.755 91.2497 117.571 92.0897C118.411 92.9297 119.383 93.5897 120.487 94.0697C121.591 94.5257 122.791 94.7537 124.087 94.7537Z" fill="black"/>
<path d="M92.751 98.7858V71.9658H97.647V94.4658H109.131V98.7858H92.751Z" fill="black"/>
<path d="M78.1918 99.2177C76.2718 99.2177 74.4958 98.8697 72.8638 98.1737C71.2558 97.4777 69.8398 96.5057 68.6158 95.2577C67.4158 94.0097 66.4798 92.5457 65.8078 90.8657C65.1358 89.1857 64.7998 87.3497 64.7998 85.3577C64.7998 83.3657 65.1238 81.5297 65.7718 79.8497C66.4438 78.1457 67.3798 76.6817 68.5798 75.4577C69.8038 74.2097 71.2318 73.2497 72.8638 72.5777C74.4958 71.8817 76.2718 71.5337 78.1918 71.5337C80.1118 71.5337 81.8278 71.8577 83.3398 72.5057C84.8758 73.1537 86.1718 74.0177 87.2278 75.0977C88.2838 76.1537 89.0398 77.3177 89.4958 78.5897L85.1038 80.6417C84.5998 79.2977 83.7478 78.1937 82.5478 77.3297C81.3478 76.4417 79.8958 75.9977 78.1918 75.9977C76.5118 75.9977 75.0238 76.3937 73.7278 77.1857C72.4558 77.9777 71.4598 79.0697 70.7398 80.4617C70.0438 81.8537 69.6958 83.4857 69.6958 85.3577C69.6958 87.2297 70.0438 88.8737 70.7398 90.2897C71.4598 91.6817 72.4558 92.7737 73.7278 93.5657C75.0238 94.3577 76.5118 94.7537 78.1918 94.7537C79.8958 94.7537 81.3478 94.3217 82.5478 93.4577C83.7478 92.5697 84.5998 91.4537 85.1038 90.1097L89.4958 92.1617C89.0398 93.4337 88.2838 94.6097 87.2278 95.6897C86.1718 96.7457 84.8758 97.5977 83.3398 98.2457C81.8278 98.8937 80.1118 99.2177 78.1918 99.2177Z" fill="black"/>
<path d="M72.1162 229.957C72.4067 229.985 72.7015 230 73 230V231L72.4854 230.987C72.3291 230.979 72.1739 230.966 72.0195 230.951L72.0264 230.885L72.1162 229.957ZM74.0029 230V231H73V230H74.0029ZM78.0107 230V231H76.0068V230H78.0107ZM82.0195 230V231H80.0156V230H82.0195ZM86.0273 230V231H84.0234V230H86.0273ZM90.0352 230V231H88.0312V230H90.0352ZM94.0439 230V231H92.04V230H94.0439ZM98.0518 230V231H96.0479V230H98.0518ZM102.06 230V231H100.056V230H102.06ZM106.068 230V231H104.064V230H106.068ZM110.076 230V231H108.072V230H110.076ZM114.084 230V231H112.08V230H114.084ZM118.093 230V231H116.088V230H118.093ZM122.101 230V231H120.097V230H122.101ZM126.108 230V231H124.104V230H126.108ZM130.117 230V231H128.112V230H130.117ZM134.125 230V231H132.121V230H134.125ZM138.133 230V231H136.129V230H138.133ZM142.141 230V231H140.137V230H142.141ZM146.149 230V231H144.146V230H146.149ZM150.157 230V231H148.153V230H150.157ZM154.165 230V231H152.161V230H154.165ZM158.174 230V231H156.17V230H158.174ZM162.182 230V231H160.178V230H162.182ZM166.189 230V231H164.186V230H166.189ZM170.198 230V231H168.193V230H170.198ZM174.206 230V231H172.202V230H174.206ZM178.214 230V231H176.21V230H178.214ZM182.223 230V231H180.218V230H182.223ZM186.23 230V231H184.227V230H186.23ZM190.238 230V231H188.234V230H190.238ZM194.247 230V231H192.242V230H194.247ZM198.255 230V231H196.251V230H198.255ZM202.263 230V231H200.259V230H202.263ZM206.271 230V231H204.267V230H206.271ZM210.279 230V231H208.275V230H210.279ZM214.287 230V231H212.283V230H214.287ZM218.295 230V231H216.291V230H218.295ZM222.304 230V231H220.3V230H222.304ZM226.312 230V231H224.308V230H226.312ZM230.319 230V231H228.315V230H230.319ZM234.328 230V231H232.323V230H234.328ZM238.336 230V231H236.332V230H238.336ZM242.344 230V231H240.34V230H242.344ZM246.353 230V231H244.348V230H246.353ZM250.36 230V231H248.356V230H250.36ZM254.368 230V231H252.364V230H254.368ZM258.377 230V231H256.372V230H258.377ZM262.385 230V231H260.381V230H262.385ZM266.393 230V231H264.389V230H266.393ZM270.4 230V231H268.396V230H270.4ZM274.409 230V231H272.405V230H274.409ZM278.417 230V231H276.413V230H278.417ZM282.425 230V231H280.421V230H282.425ZM286.434 230V231H284.43V230H286.434ZM290.441 230V231H288.438V230H290.441ZM294.449 230V231H292.445V230H294.449ZM298.458 230V231H296.454V230H298.458ZM302.466 230V231H300.462V230H302.466ZM306.474 230V231H304.47V230H306.474ZM310.482 230V231H308.478V230H310.482ZM314.49 230V231H312.486V230H314.49ZM318.498 230V231H316.494V230H318.498ZM322.507 230V231H320.502V230H322.507ZM326.515 230V231H324.511V230H326.515ZM330.522 230V231H328.519V230H330.522ZM334.53 230V231H332.526V230H334.53ZM338.539 230V231H336.535V230H338.539ZM342.547 230V231H340.543V230H342.547ZM346.555 230V231H344.551V230H346.555ZM350.563 230V231H348.56V230H350.563ZM354.571 230V231H352.567V230H354.571ZM358.579 230V231H356.575V230H358.579ZM362.588 230V231H360.584V230H362.588ZM366.596 230V231H364.592V230H366.596ZM370.604 230V231H368.6V230H370.604ZM374.612 230V231H372.607V230H374.612ZM378.62 230V231H376.616V230H378.62ZM382.628 230V231H380.624V230H382.628ZM386.637 230V231H384.632V230H386.637ZM390.645 230V231H388.641V230H390.645ZM394.652 230V231H392.648V230H394.652ZM398.66 230V231H396.656V230H398.66ZM402.669 230V231H400.665V230H402.669ZM406.677 230V231H404.673V230H406.677ZM410.685 230V231H408.681V230H410.685ZM414.693 230V231H412.689V230H414.693ZM418.701 230V231H416.697V230H418.701ZM422.709 230V231H420.705V230H422.709ZM426.718 230V231H424.714V230H426.718ZM430.726 230V231H428.722V230H430.726ZM434.733 230V231H432.729V230H434.733ZM438.742 230V231H436.737V230H438.742ZM442.75 230V231H440.746V230H442.75ZM446.758 230V231H444.754V230H446.758ZM450.767 230V231H448.762V230H450.767ZM454.774 230V231H452.771V230H454.774ZM458.782 230V231H456.778V230H458.782ZM462.791 230V231H460.786V230H462.791ZM466.799 230V231H464.795V230H466.799ZM470.807 230V231H468.803V230H470.807ZM474.815 230V231H472.811V230H474.815ZM478.823 230V231H476.819V230H478.823ZM482.831 230V231H480.827V230H482.831ZM486.84 230V231H484.835V230H486.84ZM490.848 230V231H488.844V230H490.848ZM494.855 230V231H492.852V230H494.855ZM498.864 230V231H496.859V230H498.864ZM502.872 230V231H500.868V230H502.872ZM506.88 230V231H504.876V230H506.88ZM510.889 230V231H508.884V230H510.889ZM514.896 230V231H512.893V230H514.896ZM518.904 230V231H516.9V230H518.904ZM522.913 230V231H520.908V230H522.913ZM526.921 230V231H524.917V230H526.921ZM530.929 230V231H528.925V230H530.929ZM534.937 230V231H532.933V230H534.937ZM538.945 230V231H536.941V230H538.945ZM542.953 230V231H540.949V230H542.953ZM546.961 230V231H544.957V230H546.961ZM550.97 230V231H548.966V230H550.97ZM554.978 230V231H552.974V230H554.978ZM558.985 230V231H556.981V230H558.985ZM562.994 230V231H560.99V230H562.994ZM566 230V231H564.998V230H566ZM566.974 230.885L566.979 230.951C566.825 230.966 566.671 230.979 566.515 230.987L566 231V230C566.298 230 566.593 229.985 566.884 229.957L566.974 230.885ZM68.7578 228.939C69.2728 229.215 69.8173 229.443 70.3857 229.615L70.2402 230.093L70.1025 230.551L70.0957 230.57C69.4633 230.379 68.8577 230.126 68.2852 229.819L68.7578 228.939ZM570.714 229.819C570.141 230.126 569.536 230.379 568.903 230.57L568.759 230.094L568.614 229.615C569.183 229.443 569.727 229.215 570.242 228.939L570.714 229.819ZM66.042 226.709C66.4164 227.165 66.8353 227.584 67.291 227.958L66.6553 228.73C66.1491 228.315 65.6844 227.85 65.2686 227.344L65.6562 227.026L66.042 226.709ZM573.344 227.026L573.73 227.344C573.315 227.85 572.85 228.315 572.344 228.73L571.709 227.958C572.165 227.584 572.584 227.165 572.958 226.709L573.344 227.026ZM64.3848 223.614C64.557 224.183 64.7847 224.727 65.0605 225.242L64.6191 225.478L64.6201 225.479L64.1797 225.714C63.873 225.141 63.6203 224.536 63.4287 223.903L64.3848 223.614ZM575.57 223.903C575.379 224.536 575.126 225.141 574.819 225.714L574.38 225.479L573.939 225.242C574.215 224.727 574.443 224.183 574.615 223.614L575.57 223.903ZM63 221V220H64V221C64 221.298 64.0147 221.593 64.043 221.884L63.0479 221.979C63.0329 221.826 63.0206 221.671 63.0127 221.515L63 221ZM575.987 221.515C575.979 221.671 575.966 221.825 575.951 221.979L574.957 221.884C574.985 221.593 575 221.298 575 221V220H576V221L575.987 221.515ZM64 216V218H63V216H64ZM576 216V218H575V216H576ZM64 212V214H63V212H64ZM576 212V214H575V212H576ZM64 208V210H63V208H64ZM576 208V210H575V208H576ZM64 204V206H63V204H64ZM576 204V206H575V204H576ZM64 200V202H63V200H64ZM576 200V202H575V200H576ZM64 196V198H63V196H64ZM576 196V198H575V196H576ZM64 192V194H63V192H64ZM576 192V194H575V192H576ZM64 188V190H63V188H64ZM576 188V190H575V188H576ZM64 184V186H63V184H64ZM576 184V186H575V184H576ZM64 180V182H63V180H64ZM576 180V182H575V180H576ZM64 176V178H63V176H64ZM576 176V178H575V176H576ZM64 172V174H63V172H64ZM576 172V174H575V172H576ZM64 168V170H63V168H64ZM576 168V170H575V168H576ZM64 164V166H63V164H64ZM576 164V166H575V164H576ZM64 160V162H63V160H64ZM576 160V162H575V160H576ZM64 156V158H63V156H64ZM576 156V158H575V156H576ZM64 152V154H63V152H64ZM576 152V154H575V152H576ZM64 148V150H63V148H64ZM576 148V150H575V148H576ZM64 144V146H63V144H64ZM576 144V146H575V144H576ZM64 140V142H63V140H64ZM576 140V142H575V140H576ZM63 137C63 136.669 63.0165 136.342 63.0479 136.02L64.043 136.116C64.0147 136.407 64 136.702 64 137V138H63V137ZM576 138H575V137C575 136.702 574.985 136.407 574.957 136.116L575.951 136.02C575.983 136.342 576 136.669 576 137V138ZM64.6201 132.521L65.0605 132.758C64.7847 133.273 64.557 133.817 64.3848 134.386L63.9062 134.24L63.4287 134.096C63.6203 133.463 63.873 132.858 64.1797 132.285L64.6201 132.521ZM574.819 132.285C575.126 132.858 575.379 133.463 575.57 134.096L575.094 134.241L575.093 134.24L574.615 134.386C574.443 133.817 574.215 133.273 573.939 132.758L574.819 132.285ZM66.6562 129.27L67.291 130.042C66.8353 130.416 66.4164 130.835 66.042 131.291L65.2695 130.656L65.2686 130.655C65.6844 130.149 66.1491 129.684 66.6553 129.269L66.6562 129.27ZM572.344 129.269C572.85 129.684 573.315 130.149 573.73 130.655L572.958 131.291C572.584 130.835 572.165 130.416 571.709 130.042L572.344 129.269ZM70.3857 128.385C69.8173 128.557 69.2728 128.785 68.7578 129.061L68.2852 128.18C68.8577 127.873 69.4634 127.62 70.0957 127.429L70.3857 128.385ZM568.903 127.429C569.536 127.62 570.141 127.873 570.714 128.18L570.591 128.411L570.242 129.061C569.727 128.785 569.183 128.557 568.614 128.385L568.796 127.786L568.903 127.429ZM74.002 127V128H73C72.7015 128 72.4067 128.015 72.1162 128.043L72.0195 127.048C72.3421 127.016 72.6692 127 73 127H74.002ZM566 127C566.331 127 566.657 127.017 566.979 127.048L566.884 128.043C566.593 128.015 566.298 128 566 128H564.997V127H566ZM78.0098 127V128H76.0059V127H78.0098ZM82.0186 127V128H80.0146V127H82.0186ZM86.0264 127V128H84.0225V127H86.0264ZM90.0342 127V128H88.0303V127H90.0342ZM94.043 127V128H92.0391V127H94.043ZM98.0508 127V128H96.0469V127H98.0508ZM102.059 127V128H100.055V127H102.059ZM106.067 127V128H104.063V127H106.067ZM110.075 127V128H108.071V127H110.075ZM114.083 127V128H112.079V127H114.083ZM118.092 127V128H116.087V127H118.092ZM122.1 127V128H120.096V127H122.1ZM126.107 127V128H124.104V127H126.107ZM130.116 127V128H128.111V127H130.116ZM134.124 127V128H132.12V127H134.124ZM138.132 127V128H136.128V127H138.132ZM142.141 127V128H140.136V127H142.141ZM146.148 127V128H144.145V127H146.148ZM150.156 127V128H148.152V127H150.156ZM154.165 127V128H152.16V127H154.165ZM158.173 127V128H156.169V127H158.173ZM162.181 127V128H160.177V127H162.181ZM166.189 127V128H164.185V127H166.189ZM170.197 127V128H168.193V127H170.197ZM174.205 127V128H172.201V127H174.205ZM178.214 127V128H176.209V127H178.214ZM182.222 127V128H180.218V127H182.222ZM186.229 127V128H184.226V127H186.229ZM190.238 127V128H188.233V127H190.238ZM194.246 127V128H192.242V127H194.246ZM198.254 127V128H196.25V127H198.254ZM202.263 127V128H200.258V127H202.263ZM206.271 127V128H204.267V127H206.271ZM210.278 127V128H208.274V127H210.278ZM214.286 127V128H212.282V127H214.286ZM218.295 127V128H216.291V127H218.295ZM222.303 127V128H220.299V127H222.303ZM226.311 127V128H224.307V127H226.311ZM230.319 127V128H228.315V127H230.319ZM234.327 127V128H232.323V127H234.327ZM238.335 127V128H236.331V127H238.335ZM242.344 127V128H240.34V127H242.344ZM246.352 127V128H244.348V127H246.352ZM250.359 127V128H248.355V127H250.359ZM254.368 127V128H252.363V127H254.368ZM258.376 127V128H256.372V127H258.376ZM262.384 127V128H260.38V127H262.384ZM266.393 127V128H264.388V127H266.393ZM270.4 127V128H268.396V127H270.4ZM274.408 127V128H272.404V127H274.408ZM278.416 127V128H276.412V127H278.416ZM282.425 127V128H280.421V127H282.425ZM286.433 127V128H284.429V127H286.433ZM290.44 127V128H288.437V127H290.44ZM294.449 127V128H292.445V127H294.449ZM298.457 127V128H296.453V127H298.457ZM302.465 127V128H300.461V127H302.465ZM306.474 127V128H304.47V127H306.474ZM310.481 127V128H308.478V127H310.481ZM314.489 127V128H312.485V127H314.489ZM318.498 127V128H316.493V127H318.498ZM322.506 127V128H320.502V127H322.506ZM326.514 127V128H324.51V127H326.514ZM330.522 127V128H328.518V127H330.522ZM334.53 127V128H332.526V127H334.53ZM338.538 127V128H336.534V127H338.538ZM342.546 127V128H340.542V127H342.546ZM346.555 127V128H344.551V127H346.555ZM350.562 127V128H348.559V127H350.562ZM354.57 127V128H352.566V127H354.57ZM358.579 127V128H356.575V127H358.579ZM362.587 127V128H360.583V127H362.587ZM366.595 127V128H364.591V127H366.595ZM370.604 127V128H368.6V127H370.604ZM374.611 127V128H372.607V127H374.611ZM378.619 127V128H376.615V127H378.619ZM382.628 127V128H380.623V127H382.628ZM386.636 127V128H384.632V127H386.636ZM390.644 127V128H388.64V127H390.644ZM394.652 127V128H392.647V127H394.652ZM398.66 127V128H396.656V127H398.66ZM402.668 127V128H400.664V127H402.668ZM406.677 127V128H404.672V127H406.677ZM410.685 127V128H408.681V127H410.685ZM414.692 127V128H412.688V127H414.692ZM418.7 127V128H416.696V127H418.7ZM422.709 127V128H420.705V127H422.709ZM426.717 127V128H424.713V127H426.717ZM430.725 127V128H428.721V127H430.725ZM434.733 127V128H432.729V127H434.733ZM438.741 127V128H436.737V127H438.741ZM442.749 127V128H440.745V127H442.749ZM446.758 127V128H444.753V127H446.758ZM450.766 127V128H448.762V127H450.766ZM454.773 127V128H452.77V127H454.773ZM458.782 127V128H456.777V127H458.782ZM462.79 127V128H460.786V127H462.79ZM466.798 127V128H464.794V127H466.798ZM470.807 127V128H468.802V127H470.807ZM474.814 127V128H472.811V127H474.814ZM478.822 127V128H476.818V127H478.822ZM482.83 127V128H480.826V127H482.83ZM486.839 127V128H484.835V127H486.839ZM490.847 127V128H488.843V127H490.847ZM494.854 127V128H492.851V127H494.854ZM498.863 127V128H496.859V127H498.863ZM502.871 127V128H500.867V127H502.871ZM506.879 127V128H504.875V127H506.879ZM510.888 127V128H508.883V127H510.888ZM514.896 127V128H512.892V127H514.896ZM518.903 127V128H516.899V127H518.903ZM522.912 127V128H520.907V127H522.912ZM526.92 127V128H524.916V127H526.92ZM530.928 127V128H528.924V127H530.928ZM534.936 127V128H532.932V127H534.936ZM538.944 127V128H536.94V127H538.944ZM542.952 127V128H540.948V127H542.952ZM546.96 127V128H544.956V127H546.96ZM550.969 127V128H548.965V127H550.969ZM554.977 127V128H552.973V127H554.977ZM558.984 127V128H556.98V127H558.984ZM562.993 127V128H560.989V127H562.993Z" fill="black" fill-opacity="0.6"/>
<path d="M72.1162 345.957C72.4067 345.985 72.7015 346 73 346V347L72.4854 346.987C72.3291 346.979 72.1739 346.966 72.0195 346.951L72.0264 346.885L72.1162 345.957ZM74.0029 346V347H73V346H74.0029ZM78.0107 346V347H76.0068V346H78.0107ZM82.0195 346V347H80.0156V346H82.0195ZM86.0273 346V347H84.0234V346H86.0273ZM90.0352 346V347H88.0312V346H90.0352ZM94.0439 346V347H92.04V346H94.0439ZM98.0518 346V347H96.0479V346H98.0518ZM102.06 346V347H100.056V346H102.06ZM106.068 346V347H104.064V346H106.068ZM110.076 346V347H108.072V346H110.076ZM114.084 346V347H112.08V346H114.084ZM118.093 346V347H116.088V346H118.093ZM122.101 346V347H120.097V346H122.101ZM126.108 346V347H124.104V346H126.108ZM130.117 346V347H128.112V346H130.117ZM134.125 346V347H132.121V346H134.125ZM138.133 346V347H136.129V346H138.133ZM142.141 346V347H140.137V346H142.141ZM146.149 346V347H144.146V346H146.149ZM150.157 346V347H148.153V346H150.157ZM154.165 346V347H152.161V346H154.165ZM158.174 346V347H156.17V346H158.174ZM162.182 346V347H160.178V346H162.182ZM166.189 346V347H164.186V346H166.189ZM170.198 346V347H168.193V346H170.198ZM174.206 346V347H172.202V346H174.206ZM178.214 346V347H176.21V346H178.214ZM182.223 346V347H180.218V346H182.223ZM186.23 346V347H184.227V346H186.23ZM190.238 346V347H188.234V346H190.238ZM194.247 346V347H192.242V346H194.247ZM198.255 346V347H196.251V346H198.255ZM202.263 346V347H200.259V346H202.263ZM206.271 346V347H204.267V346H206.271ZM210.279 346V347H208.275V346H210.279ZM214.287 346V347H212.283V346H214.287ZM218.295 346V347H216.291V346H218.295ZM222.304 346V347H220.3V346H222.304ZM226.312 346V347H224.308V346H226.312ZM230.319 346V347H228.315V346H230.319ZM234.328 346V347H232.323V346H234.328ZM238.336 346V347H236.332V346H238.336ZM242.344 346V347H240.34V346H242.344ZM246.353 346V347H244.348V346H246.353ZM250.36 346V347H248.356V346H250.36ZM254.368 346V347H252.364V346H254.368ZM258.377 346V347H256.372V346H258.377ZM262.385 346V347H260.381V346H262.385ZM266.393 346V347H264.389V346H266.393ZM270.4 346V347H268.396V346H270.4ZM274.409 346V347H272.405V346H274.409ZM278.417 346V347H276.413V346H278.417ZM282.425 346V347H280.421V346H282.425ZM286.434 346V347H284.43V346H286.434ZM290.441 346V347H288.438V346H290.441ZM294.449 346V347H292.445V346H294.449ZM298.458 346V347H296.454V346H298.458ZM302.466 346V347H300.462V346H302.466ZM306.474 346V347H304.47V346H306.474ZM310.482 346V347H308.478V346H310.482ZM314.49 346V347H312.486V346H314.49ZM318.498 346V347H316.494V346H318.498ZM322.507 346V347H320.502V346H322.507ZM326.515 346V347H324.511V346H326.515ZM330.522 346V347H328.519V346H330.522ZM334.53 346V347H332.526V346H334.53ZM338.539 346V347H336.535V346H338.539ZM342.547 346V347H340.543V346H342.547ZM346.555 346V347H344.551V346H346.555ZM350.563 346V347H348.56V346H350.563ZM354.571 346V347H352.567V346H354.571ZM358.579 346V347H356.575V346H358.579ZM362.588 346V347H360.584V346H362.588ZM366.596 346V347H364.592V346H366.596ZM370.604 346V347H368.6V346H370.604ZM374.612 346V347H372.607V346H374.612ZM378.62 346V347H376.616V346H378.62ZM382.628 346V347H380.624V346H382.628ZM386.637 346V347H384.632V346H386.637ZM390.645 346V347H388.641V346H390.645ZM394.652 346V347H392.648V346H394.652ZM398.66 346V347H396.656V346H398.66ZM402.669 346V347H400.665V346H402.669ZM406.677 346V347H404.673V346H406.677ZM410.685 346V347H408.681V346H410.685ZM414.693 346V347H412.689V346H414.693ZM418.701 346V347H416.697V346H418.701ZM422.709 346V347H420.705V346H422.709ZM426.718 346V347H424.714V346H426.718ZM430.726 346V347H428.722V346H430.726ZM434.733 346V347H432.729V346H434.733ZM438.742 346V347H436.737V346H438.742ZM442.75 346V347H440.746V346H442.75ZM446.758 346V347H444.754V346H446.758ZM450.767 346V347H448.762V346H450.767ZM454.774 346V347H452.771V346H454.774ZM458.782 346V347H456.778V346H458.782ZM462.791 346V347H460.786V346H462.791ZM466.799 346V347H464.795V346H466.799ZM470.807 346V347H468.803V346H470.807ZM474.815 346V347H472.811V346H474.815ZM478.823 346V347H476.819V346H478.823ZM482.831 346V347H480.827V346H482.831ZM486.84 346V347H484.835V346H486.84ZM490.848 346V347H488.844V346H490.848ZM494.855 346V347H492.852V346H494.855ZM498.864 346V347H496.859V346H498.864ZM502.872 346V347H500.868V346H502.872ZM506.88 346V347H504.876V346H506.88ZM510.889 346V347H508.884V346H510.889ZM514.896 346V347H512.893V346H514.896ZM518.904 346V347H516.9V346H518.904ZM522.913 346V347H520.908V346H522.913ZM526.921 346V347H524.917V346H526.921ZM530.929 346V347H528.925V346H530.929ZM534.937 346V347H532.933V346H534.937ZM538.945 346V347H536.941V346H538.945ZM542.953 346V347H540.949V346H542.953ZM546.961 346V347H544.957V346H546.961ZM550.97 346V347H548.966V346H550.97ZM554.978 346V347H552.974V346H554.978ZM558.985 346V347H556.981V346H558.985ZM562.994 346V347H560.99V346H562.994ZM566 346V347H564.998V346H566ZM566.974 346.885L566.979 346.951C566.825 346.966 566.671 346.979 566.515 346.987L566 347V346C566.298 346 566.593 345.985 566.884 345.957L566.974 346.885ZM68.7578 344.939C69.2728 345.215 69.8173 345.443 70.3857 345.615L70.2402 346.093L70.1025 346.551L70.0957 346.57C69.4633 346.379 68.8577 346.126 68.2852 345.819L68.7578 344.939ZM570.714 345.819C570.141 346.126 569.536 346.379 568.903 346.57L568.759 346.094L568.614 345.615C569.183 345.443 569.727 345.215 570.242 344.939L570.714 345.819ZM66.042 342.709C66.4164 343.165 66.8353 343.584 67.291 343.958L66.6553 344.73C66.1491 344.315 65.6844 343.85 65.2686 343.344L65.6562 343.026L66.042 342.709ZM573.344 343.026L573.73 343.344C573.315 343.85 572.85 344.315 572.344 344.73L571.709 343.958C572.165 343.584 572.584 343.165 572.958 342.709L573.344 343.026ZM64.3848 339.614C64.557 340.183 64.7847 340.727 65.0605 341.242L64.6191 341.478L64.6201 341.479L64.1797 341.714C63.873 341.141 63.6203 340.536 63.4287 339.903L64.3848 339.614ZM575.57 339.903C575.379 340.536 575.126 341.141 574.819 341.714L574.38 341.479L573.939 341.242C574.215 340.727 574.443 340.183 574.615 339.614L575.57 339.903ZM63 337V336.023H64V337C64 337.298 64.0147 337.593 64.043 337.884L63.0479 337.979C63.0329 337.826 63.0206 337.671 63.0127 337.515L63 337ZM576 337C576 337.331 575.983 337.657 575.951 337.979L574.957 337.884C574.985 337.593 575 337.298 575 337V336.023H576V337ZM64 332.119V334.071H63V332.119H64ZM576 332.119V334.071H575V332.119H576ZM64 328.214V330.167H63V328.214H64ZM576 328.214V330.167H575V328.214H576ZM64 324.31V326.262H63V324.31H64ZM576 324.31V326.262H575V324.31H576ZM64 320.404V322.357H63V320.404H64ZM576 320.404V322.357H575V320.404H576ZM64 316.5V318.452H63V316.5H64ZM576 316.5V318.452H575V316.5H576ZM64 312.596V314.548H63V312.596H64ZM576 312.596V314.548H575V312.596H576ZM64 308.69V310.643H63V308.69H64ZM576 308.69V310.643H575V308.69H576ZM64 304.786V306.738H63V304.786H64ZM576 304.786V306.738H575V304.786H576ZM64 300.881V302.833H63V300.881H64ZM576 300.881V302.833H575V300.881H576ZM64 296.977V298.929H63V296.977H64ZM576 296.977V298.929H575V296.977H576ZM64 293.071V295.023H63V293.071H64ZM576 293.071V295.023H575V293.071H576ZM64 289.167V291.119H63V289.167H64ZM576 289.167V291.119H575V289.167H576ZM64 285.262V287.214H63V285.262H64ZM576 285.262V287.214H575V285.262H576ZM64 281.357V283.31H63V281.357H64ZM576 281.357V283.31H575V281.357H576ZM64 277.452V279.404H63V277.452H64ZM576 277.452V279.404H575V277.452H576ZM64 273.548V275.5H63V273.548H64ZM576 273.548V275.5H575V273.548H576ZM64 269.643V271.596H63V269.643H64ZM576 269.643V271.596H575V269.643H576ZM64 265.738V267.69H63V265.738H64ZM576 265.738V267.69H575V265.738H576ZM64 261.833V263.786H63V261.833H64ZM576 261.833V263.786H575V261.833H576ZM64 257.929V259.881H63V257.929H64ZM576 257.929V259.881H575V257.929H576ZM63 255C63 254.669 63.0165 254.342 63.0479 254.02L64.043 254.116C64.0147 254.407 64 254.702 64 255V255.977H63V255ZM576 255.977H575V255C575 254.702 574.985 254.407 574.957 254.116L575.951 254.02C575.983 254.342 576 254.669 576 255V255.977ZM64.6201 250.521L65.0605 250.758C64.7847 251.273 64.557 251.817 64.3848 252.386L63.9062 252.24L63.4287 252.096C63.6203 251.463 63.873 250.858 64.1797 250.285L64.6201 250.521ZM574.819 250.285C575.126 250.858 575.379 251.463 575.57 252.096L575.094 252.241L575.093 252.24L574.615 252.386C574.443 251.817 574.215 251.273 573.939 250.758L574.819 250.285ZM66.6562 247.27L67.291 248.042C66.8353 248.416 66.4164 248.835 66.042 249.291L65.2695 248.656L65.2686 248.655C65.6844 248.149 66.1491 247.684 66.6553 247.269L66.6562 247.27ZM572.344 247.269C572.85 247.684 573.315 248.149 573.73 248.655L572.958 249.291C572.584 248.835 572.165 248.416 571.709 248.042L572.344 247.269ZM70.3857 246.385C69.8173 246.557 69.2728 246.785 68.7578 247.061L68.2852 246.18C68.8577 245.873 69.4634 245.62 70.0957 245.429L70.3857 246.385ZM568.903 245.429C569.536 245.62 570.141 245.873 570.714 246.18L570.591 246.411L570.242 247.061C569.727 246.785 569.183 246.557 568.614 246.385L568.796 245.786L568.903 245.429ZM74.002 245V246H73C72.7015 246 72.4067 246.015 72.1162 246.043L72.0195 245.048C72.3421 245.016 72.6692 245 73 245H74.002ZM566 245C566.331 245 566.657 245.017 566.979 245.048L566.884 246.043C566.593 246.015 566.298 246 566 246H564.997V245H566ZM78.0098 245V246H76.0059V245H78.0098ZM82.0186 245V246H80.0146V245H82.0186ZM86.0264 245V246H84.0225V245H86.0264ZM90.0342 245V246H88.0303V245H90.0342ZM94.043 245V246H92.0391V245H94.043ZM98.0508 245V246H96.0469V245H98.0508ZM102.059 245V246H100.055V245H102.059ZM106.067 245V246H104.063V245H106.067ZM110.075 245V246H108.071V245H110.075ZM114.083 245V246H112.079V245H114.083ZM118.092 245V246H116.087V245H118.092ZM122.1 245V246H120.096V245H122.1ZM126.107 245V246H124.104V245H126.107ZM130.116 245V246H128.111V245H130.116ZM134.124 245V246H132.12V245H134.124ZM138.132 245V246H136.128V245H138.132ZM142.141 245V246H140.136V245H142.141ZM146.148 245V246H144.145V245H146.148ZM150.156 245V246H148.152V245H150.156ZM154.165 245V246H152.16V245H154.165ZM158.173 245V246H156.169V245H158.173ZM162.181 245V246H160.177V245H162.181ZM166.189 245V246H164.185V245H166.189ZM170.197 245V246H168.193V245H170.197ZM174.205 245V246H172.201V245H174.205ZM178.214 245V246H176.209V245H178.214ZM182.222 245V246H180.218V245H182.222ZM186.229 245V246H184.226V245H186.229ZM190.238 245V246H188.233V245H190.238ZM194.246 245V246H192.242V245H194.246ZM198.254 245V246H196.25V245H198.254ZM202.263 245V246H200.258V245H202.263ZM206.271 245V246H204.267V245H206.271ZM210.278 245V246H208.274V245H210.278ZM214.286 245V246H212.282V245H214.286ZM218.295 245V246H216.291V245H218.295ZM222.303 245V246H220.299V245H222.303ZM226.311 245V246H224.307V245H226.311ZM230.319 245V246H228.315V245H230.319ZM234.327 245V246H232.323V245H234.327ZM238.335 245V246H236.331V245H238.335ZM242.344 245V246H240.34V245H242.344ZM246.352 245V246H244.348V245H246.352ZM250.359 245V246H248.355V245H250.359ZM254.368 245V246H252.363V245H254.368ZM258.376 245V246H256.372V245H258.376ZM262.384 245V246H260.38V245H262.384ZM266.393 245V246H264.388V245H266.393ZM270.4 245V246H268.396V245H270.4ZM274.408 245V246H272.404V245H274.408ZM278.416 245V246H276.412V245H278.416ZM282.425 245V246H280.421V245H282.425ZM286.433 245V246H284.429V245H286.433ZM290.44 245V246H288.437V245H290.44ZM294.449 245V246H292.445V245H294.449ZM298.457 245V246H296.453V245H298.457ZM302.465 245V246H300.461V245H302.465ZM306.474 245V246H304.47V245H306.474ZM310.481 245V246H308.478V245H310.481ZM314.489 245V246H312.485V245H314.489ZM318.498 245V246H316.493V245H318.498ZM322.506 245V246H320.502V245H322.506ZM326.514 245V246H324.51V245H326.514ZM330.522 245V246H328.518V245H330.522ZM334.53 245V246H332.526V245H334.53ZM338.538 245V246H336.534V245H338.538ZM342.546 245V246H340.542V245H342.546ZM346.555 245V246H344.551V245H346.555ZM350.562 245V246H348.559V245H350.562ZM354.57 245V246H352.566V245H354.57ZM358.579 245V246H356.575V245H358.579ZM362.587 245V246H360.583V245H362.587ZM366.595 245V246H364.591V245H366.595ZM370.604 245V246H368.6V245H370.604ZM374.611 245V246H372.607V245H374.611ZM378.619 245V246H376.615V245H378.619ZM382.628 245V246H380.623V245H382.628ZM386.636 245V246H384.632V245H386.636ZM390.644 245V246H388.64V245H390.644ZM394.652 245V246H392.647V245H394.652ZM398.66 245V246H396.656V245H398.66ZM402.668 245V246H400.664V245H402.668ZM406.677 245V246H404.672V245H406.677ZM410.685 245V246H408.681V245H410.685ZM414.692 245V246H412.688V245H414.692ZM418.7 245V246H416.696V245H418.7ZM422.709 245V246H420.705V245H422.709ZM426.717 245V246H424.713V245H426.717ZM430.725 245V246H428.721V245H430.725ZM434.733 245V246H432.729V245H434.733ZM438.741 245V246H436.737V245H438.741ZM442.749 245V246H440.745V245H442.749ZM446.758 245V246H444.753V245H446.758ZM450.766 245V246H448.762V245H450.766ZM454.773 245V246H452.77V245H454.773ZM458.782 245V246H456.777V245H458.782ZM462.79 245V246H460.786V245H462.79ZM466.798 245V246H464.794V245H466.798ZM470.807 245V246H468.802V245H470.807ZM474.814 245V246H472.811V245H474.814ZM478.822 245V246H476.818V245H478.822ZM482.83 245V246H480.826V245H482.83ZM486.839 245V246H484.835V245H486.839ZM490.847 245V246H488.843V245H490.847ZM494.854 245V246H492.851V245H494.854ZM498.863 245V246H496.859V245H498.863ZM502.871 245V246H500.867V245H502.871ZM506.879 245V246H504.875V245H506.879ZM510.888 245V246H508.883V245H510.888ZM514.896 245V246H512.892V245H514.896ZM518.903 245V246H516.899V245H518.903ZM522.912 245V246H520.907V245H522.912ZM526.92 245V246H524.916V245H526.92ZM530.928 245V246H528.924V245H530.928ZM534.936 245V246H532.932V245H534.936ZM538.944 245V246H536.94V245H538.944ZM542.952 245V246H540.948V245H542.952ZM546.96 245V246H544.956V245H546.96ZM550.969 245V246H548.965V245H550.969ZM554.977 245V246H552.973V245H554.977ZM558.984 245V246H556.98V245H558.984ZM562.993 245V246H560.989V245H562.993Z" fill="black" fill-opacity="0.6"/>
<path d="M357.5 170C357.5 170.133 357.447 170.26 357.354 170.353L351.354 176.353C351.158 176.549 350.842 176.549 350.646 176.353C350.451 176.158 350.451 175.842 350.646 175.646L356.293 170L350.646 164.353C350.451 164.158 350.451 163.842 350.646 163.646C350.842 163.451 351.158 163.451 351.354 163.646L357.354 169.646L357.416 169.723C357.47 169.804 357.5 169.901 357.5 170Z" fill="black"/>
<path d="M279.501 171.023C279.495 170.882 279.547 170.746 279.647 170.647L285.647 164.647C285.842 164.451 286.158 164.451 286.354 164.647C286.549 164.842 286.549 165.158 286.354 165.354L280.74 170.967L286.32 175.616C286.532 175.793 286.561 176.108 286.384 176.321C286.207 176.532 285.892 176.561 285.68 176.384L279.68 171.384L279.607 171.31C279.543 171.228 279.506 171.128 279.501 171.023Z" fill="black"/>
<path d="M356 170.5L354.969 170.5C354.693 170.5 354.469 170.724 354.469 171C354.469 171.276 354.693 171.5 354.969 171.5L356 171.5C356.276 171.5 356.5 171.276 356.5 171C356.5 170.724 356.276 170.5 356 170.5ZM352.906 170.5L350.844 170.5C350.568 170.5 350.344 170.724 350.344 171C350.344 171.276 350.568 171.5 350.844 171.5L352.906 171.5C353.182 171.5 353.406 171.276 353.406 171C353.406 170.724 353.182 170.5 352.906 170.5ZM348.781 170.5L346.719 170.5C346.443 170.5 346.219 170.724 346.219 171C346.219 171.276 346.443 171.5 346.719 171.5L348.781 171.5C349.057 171.5 349.281 171.276 349.281 171C349.281 170.724 349.057 170.5 348.781 170.5ZM344.656 170.5L342.594 170.5C342.318 170.5 342.094 170.724 342.094 171C342.094 171.276 342.318 171.5 342.594 171.5L344.656 171.5C344.932 171.5 345.156 171.276 345.156 171C345.156 170.724 344.932 170.5 344.656 170.5ZM340.531 170.5L338.469 170.5C338.193 170.5 337.969 170.724 337.969 171C337.969 171.276 338.193 171.5 338.469 171.5L340.531 171.5C340.807 171.5 341.031 171.276 341.031 171C341.031 170.724 340.807 170.5 340.531 170.5ZM336.406 170.5L334.344 170.5C334.068 170.5 333.844 170.724 333.844 171C333.844 171.276 334.068 171.5 334.344 171.5L336.406 171.5C336.682 171.5 336.906 171.276 336.906 171C336.906 170.724 336.682 170.5 336.406 170.5ZM332.281 170.5L330.219 170.5C329.943 170.5 329.719 170.724 329.719 171C329.719 171.276 329.943 171.5 330.219 171.5L332.281 171.5C332.557 171.5 332.781 171.276 332.781 171C332.781 170.724 332.557 170.5 332.281 170.5ZM328.156 170.5L326.094 170.5C325.818 170.5 325.594 170.724 325.594 171C325.594 171.276 325.818 171.5 326.094 171.5L328.156 171.5C328.432 171.5 328.656 171.276 328.656 171C328.656 170.724 328.432 170.5 328.156 170.5ZM324.031 170.5L323 170.5L323 170.501C322.73 170.508 322.514 170.728 322.514 171C322.514 171.272 322.73 171.492 323 171.499L323 171.5L324.031 171.5C324.307 171.5 324.531 171.276 324.531 171C324.531 170.724 324.307 170.5 324.031 170.5ZM321.06 170.5L319.105 170.5C318.829 170.5 318.605 170.724 318.605 171C318.605 171.276 318.829 171.5 319.105 171.5L321.06 171.5C321.336 171.5 321.56 171.276 321.56 171C321.56 170.724 321.336 170.5 321.06 170.5ZM317.151 170.5L315.197 170.5C314.921 170.5 314.697 170.724 314.697 171C314.697 171.276 314.921 171.5 315.197 171.5L317.151 171.5C317.427 171.5 317.651 171.276 317.651 171C317.651 170.724 317.427 170.5 317.151 170.5ZM313.243 170.5L311.289 170.5C311.013 170.5 310.789 170.724 310.789 171C310.789 171.276 311.013 171.5 311.289 171.5L313.243 171.5C313.519 171.5 313.743 171.276 313.743 171C313.743 170.724 313.519 170.5 313.243 170.5ZM309.335 170.5L307.381 170.5C307.105 170.5 306.881 170.724 306.881 171C306.881 171.276 307.105 171.5 307.381 171.5L309.335 171.5C309.611 171.5 309.835 171.276 309.835 171C309.835 170.724 309.611 170.5 309.335 170.5ZM305.427 170.5L303.473 170.5C303.197 170.5 302.973 170.724 302.973 171C302.973 171.276 303.197 171.5 303.473 171.5L305.427 171.5C305.703 171.5 305.927 171.276 305.927 171C305.927 170.724 305.703 170.5 305.427 170.5ZM301.519 170.5L299.564 170.5C299.288 170.5 299.064 170.724 299.064 171C299.064 171.276 299.288 171.5 299.564 171.5L301.519 171.5C301.795 171.5 302.019 171.276 302.019 171C302.019 170.724 301.795 170.5 301.519 170.5ZM297.61 170.5L295.656 170.5C295.38 170.5 295.156 170.724 295.156 171C295.156 171.276 295.38 171.5 295.656 171.5L297.61 171.5C297.886 171.5 298.11 171.276 298.11 171C298.11 170.724 297.886 170.5 297.61 170.5ZM293.702 170.5L291.748 170.5C291.472 170.5 291.248 170.724 291.248 171C291.248 171.276 291.472 171.5 291.748 171.5L293.702 171.5C293.978 171.5 294.202 171.276 294.202 171C294.202 170.724 293.978 170.5 293.702 170.5ZM289.794 170.5L287.84 170.5C287.564 170.5 287.34 170.724 287.34 171C287.34 171.276 287.564 171.5 287.84 171.5L289.794 171.5C290.07 171.5 290.294 171.276 290.294 171C290.294 170.724 290.07 170.5 289.794 170.5ZM285.886 170.5L283.932 170.5C283.656 170.5 283.432 170.724 283.432 171C283.432 171.276 283.655 171.5 283.932 171.5L285.886 171.5C286.162 171.5 286.386 171.276 286.386 171C286.386 170.724 286.162 170.5 285.886 170.5ZM281.978 170.5L281 170.5C280.724 170.5 280.5 170.724 280.5 171C280.5 171.276 280.724 171.5 281 171.5L281.978 171.5C282.253 171.5 282.478 171.276 282.478 171C282.478 170.724 282.253 170.5 281.978 170.5Z" fill="black"/>
</svg>
