<svg width="644" height="371" viewBox="0 0 644 371" fill="none" xmlns="http://www.w3.org/2000/svg">
<rect y="0.773438" width="644" height="370" rx="24" fill="white"/>
<path d="M419.144 302V298.04L416.132 293.06H417.992L420.296 296.948H419.636L421.928 293.06H423.788L420.788 298.028V302H419.144ZM426.744 302.144C426.104 302.144 425.52 301.996 424.992 301.7C424.472 301.404 424.056 301 423.744 300.488C423.44 299.976 423.288 299.392 423.288 298.736C423.288 298.08 423.44 297.496 423.744 296.984C424.056 296.472 424.472 296.068 424.992 295.772C425.512 295.476 426.096 295.328 426.744 295.328C427.384 295.328 427.964 295.476 428.484 295.772C429.004 296.068 429.416 296.472 429.72 296.984C430.032 297.488 430.188 298.072 430.188 298.736C430.188 299.392 430.032 299.976 429.72 300.488C429.408 301 428.992 301.404 428.472 301.7C427.952 301.996 427.376 302.144 426.744 302.144ZM426.744 300.704C427.096 300.704 427.404 300.62 427.668 300.452C427.94 300.284 428.152 300.052 428.304 299.756C428.464 299.452 428.544 299.112 428.544 298.736C428.544 298.352 428.464 298.016 428.304 297.728C428.152 297.432 427.94 297.2 427.668 297.032C427.404 296.856 427.096 296.768 426.744 296.768C426.384 296.768 426.068 296.856 425.796 297.032C425.524 297.2 425.308 297.432 425.148 297.728C424.996 298.016 424.92 298.352 424.92 298.736C424.92 299.112 424.996 299.452 425.148 299.756C425.308 300.052 425.524 300.284 425.796 300.452C426.068 300.62 426.384 300.704 426.744 300.704ZM433.708 302.144C433.204 302.144 432.764 302.032 432.388 301.808C432.02 301.584 431.736 301.272 431.536 300.872C431.344 300.472 431.248 300.004 431.248 299.468V295.472H432.82V299.336C432.82 299.608 432.872 299.848 432.976 300.056C433.088 300.256 433.244 300.416 433.444 300.536C433.652 300.648 433.884 300.704 434.14 300.704C434.396 300.704 434.624 300.648 434.824 300.536C435.024 300.416 435.18 300.252 435.292 300.044C435.404 299.836 435.46 299.588 435.46 299.3V295.472H437.032V302H435.544V300.716L435.676 300.944C435.524 301.344 435.272 301.644 434.92 301.844C434.576 302.044 434.172 302.144 433.708 302.144ZM438.494 302V295.472H439.97V296.924L439.85 296.708C440.002 296.22 440.238 295.88 440.558 295.688C440.886 295.496 441.278 295.4 441.734 295.4H442.118V296.792H441.554C441.106 296.792 440.746 296.932 440.474 297.212C440.202 297.484 440.066 297.868 440.066 298.364V302H438.494ZM445.247 302V293.06H448.163C449.107 293.06 449.927 293.252 450.623 293.636C451.327 294.012 451.871 294.536 452.255 295.208C452.639 295.872 452.831 296.644 452.831 297.524C452.831 298.396 452.639 299.172 452.255 299.852C451.871 300.524 451.327 301.052 450.623 301.436C449.927 301.812 449.107 302 448.163 302H445.247ZM446.879 300.56H448.199C448.807 300.56 449.331 300.436 449.771 300.188C450.219 299.932 450.567 299.58 450.815 299.132C451.063 298.676 451.187 298.14 451.187 297.524C451.187 296.9 451.063 296.364 450.815 295.916C450.567 295.468 450.219 295.12 449.771 294.872C449.331 294.624 448.807 294.5 448.199 294.5H446.879V300.56ZM455.954 302.144C455.498 302.144 455.102 302.068 454.766 301.916C454.43 301.764 454.17 301.548 453.986 301.268C453.802 300.98 453.71 300.648 453.71 300.272C453.71 299.912 453.79 299.592 453.95 299.312C454.11 299.024 454.358 298.784 454.694 298.592C455.03 298.4 455.454 298.264 455.966 298.184L458.102 297.836V299.036L456.266 299.348C455.954 299.404 455.722 299.504 455.57 299.648C455.418 299.792 455.342 299.98 455.342 300.212C455.342 300.436 455.426 300.616 455.594 300.752C455.77 300.88 455.986 300.944 456.242 300.944C456.57 300.944 456.858 300.876 457.106 300.74C457.362 300.596 457.558 300.4 457.694 300.152C457.838 299.904 457.91 299.632 457.91 299.336V297.656C457.91 297.376 457.798 297.144 457.574 296.96C457.358 296.768 457.07 296.672 456.71 296.672C456.374 296.672 456.074 296.764 455.81 296.948C455.554 297.124 455.366 297.36 455.246 297.656L453.962 297.032C454.09 296.688 454.29 296.392 454.562 296.144C454.842 295.888 455.17 295.688 455.546 295.544C455.922 295.4 456.33 295.328 456.77 295.328C457.306 295.328 457.778 295.428 458.186 295.628C458.594 295.82 458.91 296.092 459.134 296.444C459.366 296.788 459.482 297.192 459.482 297.656V302H457.994V300.884L458.33 300.86C458.162 301.14 457.962 301.376 457.73 301.568C457.498 301.752 457.234 301.896 456.938 302C456.642 302.096 456.314 302.144 455.954 302.144ZM463.794 302.072C463.058 302.072 462.486 301.872 462.078 301.472C461.678 301.064 461.478 300.492 461.478 299.756V296.876H460.35V295.472H460.47C460.79 295.472 461.038 295.388 461.214 295.22C461.39 295.052 461.478 294.808 461.478 294.488V293.984H463.05V295.472H464.55V296.876H463.05V299.672C463.05 299.888 463.086 300.072 463.158 300.224C463.238 300.376 463.358 300.492 463.518 300.572C463.686 300.652 463.898 300.692 464.154 300.692C464.21 300.692 464.274 300.688 464.346 300.68C464.426 300.672 464.502 300.664 464.574 300.656V302C464.462 302.016 464.334 302.032 464.19 302.048C464.046 302.064 463.914 302.072 463.794 302.072ZM467.732 302.144C467.276 302.144 466.88 302.068 466.544 301.916C466.208 301.764 465.948 301.548 465.764 301.268C465.58 300.98 465.488 300.648 465.488 300.272C465.488 299.912 465.568 299.592 465.728 299.312C465.888 299.024 466.136 298.784 466.472 298.592C466.808 298.4 467.232 298.264 467.744 298.184L469.88 297.836V299.036L468.044 299.348C467.732 299.404 467.5 299.504 467.348 299.648C467.196 299.792 467.12 299.98 467.12 300.212C467.12 300.436 467.204 300.616 467.372 300.752C467.548 300.88 467.764 300.944 468.02 300.944C468.348 300.944 468.636 300.876 468.884 300.74C469.14 300.596 469.336 300.4 469.472 300.152C469.616 299.904 469.688 299.632 469.688 299.336V297.656C469.688 297.376 469.576 297.144 469.352 296.96C469.136 296.768 468.848 296.672 468.488 296.672C468.152 296.672 467.852 296.764 467.588 296.948C467.332 297.124 467.144 297.36 467.024 297.656L465.74 297.032C465.868 296.688 466.068 296.392 466.34 296.144C466.62 295.888 466.948 295.688 467.324 295.544C467.7 295.4 468.108 295.328 468.548 295.328C469.084 295.328 469.556 295.428 469.964 295.628C470.372 295.82 470.688 296.092 470.912 296.444C471.144 296.788 471.26 297.192 471.26 297.656V302H469.772V300.884L470.108 300.86C469.94 301.14 469.74 301.376 469.508 301.568C469.276 301.752 469.012 301.896 468.716 302C468.42 302.096 468.092 302.144 467.732 302.144ZM476.276 302.144C475.804 302.144 475.368 302.052 474.968 301.868C474.576 301.676 474.264 301.404 474.032 301.052L474.188 300.74V302H472.712V292.916H474.284V296.768L474.044 296.444C474.268 296.092 474.572 295.82 474.956 295.628C475.34 295.428 475.784 295.328 476.288 295.328C476.904 295.328 477.46 295.48 477.956 295.784C478.452 296.088 478.844 296.496 479.132 297.008C479.428 297.52 479.576 298.096 479.576 298.736C479.576 299.368 479.432 299.944 479.144 300.464C478.856 300.984 478.464 301.396 477.968 301.7C477.472 301.996 476.908 302.144 476.276 302.144ZM476.096 300.704C476.456 300.704 476.776 300.62 477.056 300.452C477.336 300.284 477.552 300.052 477.704 299.756C477.864 299.46 477.944 299.12 477.944 298.736C477.944 298.352 477.864 298.016 477.704 297.728C477.552 297.432 477.336 297.2 477.056 297.032C476.776 296.856 476.456 296.768 476.096 296.768C475.752 296.768 475.44 296.852 475.16 297.02C474.888 297.188 474.672 297.424 474.512 297.728C474.36 298.024 474.284 298.36 474.284 298.736C474.284 299.12 474.36 299.46 474.512 299.756C474.672 300.052 474.888 300.284 475.16 300.452C475.44 300.62 475.752 300.704 476.096 300.704ZM482.755 302.144C482.299 302.144 481.903 302.068 481.567 301.916C481.231 301.764 480.971 301.548 480.787 301.268C480.603 300.98 480.511 300.648 480.511 300.272C480.511 299.912 480.591 299.592 480.751 299.312C480.911 299.024 481.159 298.784 481.495 298.592C481.831 298.4 482.255 298.264 482.767 298.184L484.903 297.836V299.036L483.067 299.348C482.755 299.404 482.523 299.504 482.371 299.648C482.219 299.792 482.143 299.98 482.143 300.212C482.143 300.436 482.227 300.616 482.395 300.752C482.571 300.88 482.787 300.944 483.043 300.944C483.371 300.944 483.659 300.876 483.907 300.74C484.163 300.596 484.359 300.4 484.495 300.152C484.639 299.904 484.711 299.632 484.711 299.336V297.656C484.711 297.376 484.599 297.144 484.375 296.96C484.159 296.768 483.871 296.672 483.511 296.672C483.175 296.672 482.875 296.764 482.611 296.948C482.355 297.124 482.167 297.36 482.047 297.656L480.763 297.032C480.891 296.688 481.091 296.392 481.363 296.144C481.643 295.888 481.971 295.688 482.347 295.544C482.723 295.4 483.131 295.328 483.571 295.328C484.107 295.328 484.579 295.428 484.987 295.628C485.395 295.82 485.711 296.092 485.935 296.444C486.167 296.788 486.283 297.192 486.283 297.656V302H484.795V300.884L485.131 300.86C484.963 301.14 484.763 301.376 484.531 301.568C484.299 301.752 484.035 301.896 483.739 302C483.443 302.096 483.115 302.144 482.755 302.144ZM490.22 302.144C489.524 302.144 488.916 301.98 488.396 301.652C487.884 301.316 487.532 300.864 487.34 300.296L488.516 299.732C488.684 300.1 488.916 300.388 489.212 300.596C489.516 300.804 489.852 300.908 490.22 300.908C490.508 300.908 490.736 300.844 490.904 300.716C491.072 300.588 491.156 300.42 491.156 300.212C491.156 300.084 491.12 299.98 491.048 299.9C490.984 299.812 490.892 299.74 490.772 299.684C490.66 299.62 490.536 299.568 490.4 299.528L489.332 299.228C488.78 299.068 488.36 298.824 488.072 298.496C487.792 298.168 487.652 297.78 487.652 297.332C487.652 296.932 487.752 296.584 487.952 296.288C488.16 295.984 488.444 295.748 488.804 295.58C489.172 295.412 489.592 295.328 490.064 295.328C490.68 295.328 491.224 295.476 491.696 295.772C492.168 296.068 492.504 296.484 492.704 297.02L491.504 297.584C491.392 297.288 491.204 297.052 490.94 296.876C490.676 296.7 490.38 296.612 490.052 296.612C489.788 296.612 489.58 296.672 489.428 296.792C489.276 296.912 489.2 297.068 489.2 297.26C489.2 297.38 489.232 297.484 489.296 297.572C489.36 297.66 489.448 297.732 489.56 297.788C489.68 297.844 489.816 297.896 489.968 297.944L491.012 298.256C491.548 298.416 491.96 298.656 492.248 298.976C492.544 299.296 492.692 299.688 492.692 300.152C492.692 300.544 492.588 300.892 492.38 301.196C492.172 301.492 491.884 301.724 491.516 301.892C491.148 302.06 490.716 302.144 490.22 302.144ZM496.996 302.144C496.324 302.144 495.736 301.992 495.232 301.688C494.728 301.384 494.336 300.972 494.056 300.452C493.776 299.932 493.636 299.356 493.636 298.724C493.636 298.068 493.776 297.488 494.056 296.984C494.344 296.472 494.732 296.068 495.22 295.772C495.716 295.476 496.268 295.328 496.876 295.328C497.388 295.328 497.836 295.412 498.22 295.58C498.612 295.748 498.944 295.98 499.216 296.276C499.488 296.572 499.696 296.912 499.84 297.296C499.984 297.672 500.056 298.08 500.056 298.52C500.056 298.632 500.048 298.748 500.032 298.868C500.024 298.988 500.004 299.092 499.972 299.18H494.932V297.98H499.084L498.34 298.544C498.412 298.176 498.392 297.848 498.28 297.56C498.176 297.272 498 297.044 497.752 296.876C497.512 296.708 497.22 296.624 496.876 296.624C496.548 296.624 496.256 296.708 496 296.876C495.744 297.036 495.548 297.276 495.412 297.596C495.284 297.908 495.236 298.288 495.268 298.736C495.236 299.136 495.288 299.492 495.424 299.804C495.568 300.108 495.776 300.344 496.048 300.512C496.328 300.68 496.648 300.764 497.008 300.764C497.368 300.764 497.672 300.688 497.92 300.536C498.176 300.384 498.376 300.18 498.52 299.924L499.792 300.548C499.664 300.86 499.464 301.136 499.192 301.376C498.92 301.616 498.596 301.804 498.22 301.94C497.852 302.076 497.444 302.144 496.996 302.144ZM503.732 302.144C503.036 302.144 502.428 301.98 501.908 301.652C501.396 301.316 501.044 300.864 500.852 300.296L502.028 299.732C502.196 300.1 502.428 300.388 502.724 300.596C503.028 300.804 503.364 300.908 503.732 300.908C504.02 300.908 504.248 300.844 504.416 300.716C504.584 300.588 504.668 300.42 504.668 300.212C504.668 300.084 504.632 299.98 504.56 299.9C504.496 299.812 504.404 299.74 504.284 299.684C504.172 299.62 504.048 299.568 503.912 299.528L502.844 299.228C502.292 299.068 501.872 298.824 501.584 298.496C501.304 298.168 501.164 297.78 501.164 297.332C501.164 296.932 501.264 296.584 501.464 296.288C501.672 295.984 501.956 295.748 502.316 295.58C502.684 295.412 503.104 295.328 503.576 295.328C504.192 295.328 504.736 295.476 505.208 295.772C505.68 296.068 506.016 296.484 506.216 297.02L505.016 297.584C504.904 297.288 504.716 297.052 504.452 296.876C504.188 296.7 503.892 296.612 503.564 296.612C503.3 296.612 503.092 296.672 502.94 296.792C502.788 296.912 502.712 297.068 502.712 297.26C502.712 297.38 502.744 297.484 502.808 297.572C502.872 297.66 502.96 297.732 503.072 297.788C503.192 297.844 503.328 297.896 503.48 297.944L504.524 298.256C505.06 298.416 505.472 298.656 505.76 298.976C506.056 299.296 506.204 299.688 506.204 300.152C506.204 300.544 506.1 300.892 505.892 301.196C505.684 301.492 505.396 301.724 505.028 301.892C504.66 302.06 504.228 302.144 503.732 302.144Z" fill="black"/>
<path d="M71.766 119.773V114.999L68.154 109.343H69.708L72.732 114.089H72.172L75.182 109.343H76.736L73.152 114.999V119.773H71.766ZM80.1252 119.941C79.3972 119.941 78.7392 119.773 78.1512 119.437C77.5632 119.092 77.0965 118.621 76.7512 118.023C76.4059 117.426 76.2332 116.749 76.2332 115.993C76.2332 115.237 76.4012 114.565 76.7372 113.977C77.0825 113.389 77.5492 112.923 78.1372 112.577C78.7252 112.232 79.3879 112.059 80.1252 112.059C80.8532 112.059 81.5112 112.232 82.0992 112.577C82.6872 112.913 83.1492 113.375 83.4852 113.963C83.8305 114.551 84.0032 115.228 84.0032 115.993C84.0032 116.759 83.8259 117.44 83.4712 118.037C83.1165 118.625 82.6452 119.092 82.0572 119.437C81.4785 119.773 80.8345 119.941 80.1252 119.941ZM80.1252 118.681C80.5919 118.681 81.0119 118.565 81.3852 118.331C81.7679 118.098 82.0665 117.776 82.2812 117.365C82.5052 116.955 82.6172 116.497 82.6172 115.993C82.6172 115.48 82.5052 115.027 82.2812 114.635C82.0665 114.234 81.7679 113.917 81.3852 113.683C81.0119 113.441 80.5919 113.319 80.1252 113.319C79.6492 113.319 79.2199 113.441 78.8372 113.683C78.4639 113.917 78.1652 114.234 77.9412 114.635C77.7172 115.027 77.6052 115.48 77.6052 115.993C77.6052 116.497 77.7172 116.955 77.9412 117.365C78.1652 117.776 78.4639 118.098 78.8372 118.331C79.2199 118.565 79.6492 118.681 80.1252 118.681ZM88.3754 119.941C87.834 119.941 87.344 119.815 86.9054 119.563C86.476 119.311 86.14 118.961 85.8974 118.513C85.664 118.056 85.5474 117.533 85.5474 116.945V112.227H86.8494V116.805C86.8494 117.179 86.924 117.505 87.0734 117.785C87.232 118.065 87.4467 118.285 87.7174 118.443C87.9974 118.602 88.3147 118.681 88.6694 118.681C89.024 118.681 89.3367 118.602 89.6074 118.443C89.8874 118.285 90.102 118.056 90.2514 117.757C90.41 117.459 90.4894 117.104 90.4894 116.693V112.227H91.8054V119.773H90.5314V118.303L90.7414 118.429C90.564 118.905 90.2607 119.279 89.8314 119.549C89.4114 119.811 88.926 119.941 88.3754 119.941ZM93.8225 119.773V112.227H95.0965V113.613L94.9565 113.417C95.1338 112.988 95.4045 112.671 95.7685 112.465C96.1325 112.251 96.5758 112.143 97.0985 112.143H97.5605V113.375H96.9025C96.3705 113.375 95.9411 113.543 95.6145 113.879C95.2878 114.206 95.1245 114.673 95.1245 115.279V119.773H93.8225ZM101.291 119.773V109.343H102.439L108.431 117.771L107.913 117.827V109.343H109.299V119.773H108.151L102.187 111.289L102.663 111.233V119.773H101.291ZM114.945 119.941C114.217 119.941 113.568 119.769 112.999 119.423C112.43 119.078 111.982 118.607 111.655 118.009C111.328 117.403 111.165 116.726 111.165 115.979C111.165 115.223 111.324 114.551 111.641 113.963C111.968 113.375 112.406 112.913 112.957 112.577C113.517 112.232 114.142 112.059 114.833 112.059C115.393 112.059 115.888 112.162 116.317 112.367C116.756 112.563 117.124 112.834 117.423 113.179C117.731 113.515 117.964 113.903 118.123 114.341C118.291 114.771 118.375 115.219 118.375 115.685C118.375 115.788 118.366 115.905 118.347 116.035C118.338 116.157 118.324 116.273 118.305 116.385H112.117V115.265H117.549L116.933 115.769C117.017 115.284 116.97 114.85 116.793 114.467C116.616 114.085 116.354 113.781 116.009 113.557C115.664 113.333 115.272 113.221 114.833 113.221C114.394 113.221 113.993 113.333 113.629 113.557C113.265 113.781 112.98 114.103 112.775 114.523C112.579 114.934 112.5 115.424 112.537 115.993C112.5 116.544 112.584 117.029 112.789 117.449C113.004 117.86 113.302 118.182 113.685 118.415C114.077 118.639 114.502 118.751 114.959 118.751C115.463 118.751 115.888 118.635 116.233 118.401C116.578 118.168 116.858 117.869 117.073 117.505L118.165 118.065C118.016 118.411 117.782 118.728 117.465 119.017C117.157 119.297 116.788 119.521 116.359 119.689C115.939 119.857 115.468 119.941 114.945 119.941ZM123.138 119.857C122.401 119.857 121.832 119.647 121.43 119.227C121.038 118.807 120.842 118.215 120.842 117.449V113.473H119.47V112.227H119.75C120.086 112.227 120.352 112.125 120.548 111.919C120.744 111.714 120.842 111.443 120.842 111.107V110.491H122.144V112.227H123.838V113.473H122.144V117.407C122.144 117.659 122.182 117.879 122.256 118.065C122.34 118.252 122.476 118.401 122.662 118.513C122.849 118.616 123.096 118.667 123.404 118.667C123.47 118.667 123.549 118.663 123.642 118.653C123.745 118.644 123.838 118.635 123.922 118.625V119.773C123.801 119.801 123.666 119.82 123.516 119.829C123.367 119.848 123.241 119.857 123.138 119.857ZM127.359 119.773L124.769 112.227H126.211L128.269 118.541L127.765 118.527L129.781 112.227H131.013L133.029 118.527L132.525 118.541L134.597 112.227H136.025L133.435 119.773H132.189L130.201 113.473H130.593L128.605 119.773H127.359ZM140.637 119.941C139.909 119.941 139.251 119.773 138.663 119.437C138.075 119.092 137.608 118.621 137.263 118.023C136.918 117.426 136.745 116.749 136.745 115.993C136.745 115.237 136.913 114.565 137.249 113.977C137.594 113.389 138.061 112.923 138.649 112.577C139.237 112.232 139.9 112.059 140.637 112.059C141.365 112.059 142.023 112.232 142.611 112.577C143.199 112.913 143.661 113.375 143.997 113.963C144.342 114.551 144.515 115.228 144.515 115.993C144.515 116.759 144.338 117.44 143.983 118.037C143.628 118.625 143.157 119.092 142.569 119.437C141.99 119.773 141.346 119.941 140.637 119.941ZM140.637 118.681C141.104 118.681 141.524 118.565 141.897 118.331C142.28 118.098 142.578 117.776 142.793 117.365C143.017 116.955 143.129 116.497 143.129 115.993C143.129 115.48 143.017 115.027 142.793 114.635C142.578 114.234 142.28 113.917 141.897 113.683C141.524 113.441 141.104 113.319 140.637 113.319C140.161 113.319 139.732 113.441 139.349 113.683C138.976 113.917 138.677 114.234 138.453 114.635C138.229 115.027 138.117 115.48 138.117 115.993C138.117 116.497 138.229 116.955 138.453 117.365C138.677 117.776 138.976 118.098 139.349 118.331C139.732 118.565 140.161 118.681 140.637 118.681ZM146.213 119.773V112.227H147.487V113.613L147.347 113.417C147.524 112.988 147.795 112.671 148.159 112.465C148.523 112.251 148.966 112.143 149.489 112.143H149.951V113.375H149.293C148.761 113.375 148.332 113.543 148.005 113.879C147.678 114.206 147.515 114.673 147.515 115.279V119.773H146.213ZM151.108 119.773V109.175H152.41V116.441L151.878 116.315L155.882 112.227H157.548L154.65 115.265L157.744 119.773H156.204L153.376 115.685L154.188 115.643L151.99 117.939L152.41 116.987V119.773H151.108Z" fill="black"/>
<path d="M77.048 95.384C75.2987 95.384 73.6667 95.0747 72.152 94.456C70.6373 93.8373 69.3147 92.9733 68.184 91.864C67.0533 90.7547 66.168 89.4533 65.528 87.96C64.9093 86.4453 64.6 84.8133 64.6 83.064C64.6 81.2933 64.9093 79.6613 65.528 78.168C66.1467 76.6747 67.0213 75.3733 68.152 74.264C69.2827 73.1547 70.6053 72.3013 72.12 71.704C73.6347 71.0853 75.2773 70.776 77.048 70.776C78.8187 70.776 80.4613 71.0853 81.976 71.704C83.4907 72.3227 84.8133 73.1867 85.944 74.296C87.0747 75.384 87.9493 76.6747 88.568 78.168C89.208 79.6613 89.528 81.2933 89.528 83.064C89.528 84.8133 89.208 86.4453 88.568 87.96C87.928 89.4533 87.0427 90.7547 85.912 91.864C84.7813 92.9733 83.4587 93.8373 81.944 94.456C80.4507 95.0747 78.8187 95.384 77.048 95.384ZM77.048 91.416C78.2213 91.416 79.2987 91.2133 80.28 90.808C81.2613 90.3813 82.1147 89.7947 82.84 89.048C83.5867 88.3013 84.152 87.416 84.536 86.392C84.9413 85.368 85.144 84.2587 85.144 83.064C85.144 81.8693 84.9413 80.7707 84.536 79.768C84.152 78.744 83.5867 77.8587 82.84 77.112C82.1147 76.344 81.2613 75.7573 80.28 75.352C79.2987 74.9467 78.2213 74.744 77.048 74.744C75.896 74.744 74.8293 74.9467 73.848 75.352C72.8667 75.7573 72.0027 76.344 71.256 77.112C70.5307 77.8587 69.9653 78.744 69.56 79.768C69.1547 80.7707 68.952 81.8693 68.952 83.064C68.952 84.2587 69.1547 85.368 69.56 86.392C69.9653 87.416 70.5307 88.3013 71.256 89.048C72.0027 89.7947 72.8667 90.3813 73.848 90.808C74.8293 91.2133 75.896 91.416 77.048 91.416ZM93.3978 95V71.16H96.7898L109.91 88.824L108.15 89.176V71.16H112.502V95H109.078L96.1498 77.208L97.7498 76.856V95H93.3978ZM117.629 88.152V84.472H131.229V88.152H117.629ZM136.304 95V71.16H145.2C146.821 71.16 148.251 71.4587 149.488 72.056C150.747 72.632 151.728 73.4853 152.432 74.616C153.136 75.7253 153.488 77.08 153.488 78.68C153.488 80.2587 153.125 81.6133 152.4 82.744C151.696 83.8533 150.725 84.7067 149.488 85.304C148.251 85.9013 146.821 86.2 145.2 86.2H140.656V95H136.304ZM140.656 82.36H145.264C146.053 82.36 146.736 82.2107 147.312 81.912C147.888 81.592 148.336 81.1547 148.656 80.6C148.976 80.0453 149.136 79.4053 149.136 78.68C149.136 77.9333 148.976 77.2933 148.656 76.76C148.336 76.2053 147.888 75.7787 147.312 75.48C146.736 75.16 146.053 75 145.264 75H140.656V82.36ZM157.054 95V71.16H165.918C167.539 71.16 168.969 71.4587 170.206 72.056C171.465 72.632 172.446 73.4853 173.15 74.616C173.854 75.7253 174.206 77.08 174.206 78.68C174.206 80.3227 173.811 81.72 173.022 82.872C172.254 84.024 171.209 84.8773 169.886 85.432L175.358 95H170.43L164.574 84.536L167.39 86.2H161.406V95H157.054ZM161.406 82.36H165.982C166.771 82.36 167.454 82.2107 168.03 81.912C168.606 81.592 169.054 81.1547 169.374 80.6C169.694 80.0453 169.854 79.4053 169.854 78.68C169.854 77.9333 169.694 77.2933 169.374 76.76C169.054 76.2053 168.606 75.7787 168.03 75.48C167.454 75.16 166.771 75 165.982 75H161.406V82.36ZM178.21 95V71.16H194.05V75H182.562V81.112H193.41V84.952H182.562V91.16H194.05V95H178.21ZM197.242 95V71.16H201.402L210.33 83.288H208.346L217.082 71.16H221.242V95H216.858V76.12L218.554 76.536L209.498 88.6H208.986L200.154 76.536L201.594 76.12V95H197.242ZM225.804 95V71.16H230.156V95H225.804ZM243.254 95.384C241.739 95.384 240.331 95.1067 239.03 94.552C237.75 93.9973 236.64 93.2293 235.702 92.248C234.784 91.2453 234.112 90.0827 233.686 88.76L237.302 87.192C237.878 88.5573 238.71 89.6347 239.798 90.424C240.886 91.192 242.112 91.576 243.478 91.576C244.246 91.576 244.907 91.4587 245.462 91.224C246.038 90.968 246.475 90.6267 246.774 90.2C247.094 89.7733 247.254 89.2613 247.254 88.664C247.254 87.96 247.04 87.384 246.614 86.936C246.208 86.4667 245.59 86.104 244.758 85.848L240.182 84.376C238.326 83.8 236.928 82.936 235.99 81.784C235.051 80.632 234.582 79.2773 234.582 77.72C234.582 76.3547 234.912 75.1493 235.574 74.104C236.256 73.0587 237.195 72.248 238.39 71.672C239.606 71.0747 240.992 70.776 242.55 70.776C243.979 70.776 245.291 71.032 246.486 71.544C247.68 72.0347 248.704 72.728 249.558 73.624C250.432 74.4987 251.083 75.5333 251.51 76.728L247.926 78.328C247.456 77.1333 246.752 76.216 245.814 75.576C244.875 74.9147 243.787 74.584 242.55 74.584C241.824 74.584 241.184 74.712 240.63 74.968C240.075 75.2027 239.638 75.544 239.318 75.992C239.019 76.4187 238.87 76.9307 238.87 77.528C238.87 78.1893 239.083 78.776 239.51 79.288C239.936 79.7787 240.587 80.1627 241.462 80.44L245.846 81.816C247.744 82.4347 249.163 83.288 250.102 84.376C251.062 85.464 251.542 86.808 251.542 88.408C251.542 89.7733 251.19 90.9787 250.486 92.024C249.782 93.0693 248.811 93.8907 247.574 94.488C246.336 95.0853 244.896 95.384 243.254 95.384ZM255.46 95V71.16H271.3V75H259.812V81.112H270.66V84.952H259.812V91.16H271.3V95H255.46Z" fill="black"/>
<path d="M466 149L466 164.64C466 170.24 466 173.041 464.91 175.18C463.951 177.061 462.422 178.591 460.54 179.55C458.401 180.64 455.601 180.64 450 180.64L439 180.64C433.399 180.64 430.599 180.64 428.46 181.73C426.578 182.689 425.049 184.218 424.09 186.1C423 188.239 423 191.039 423 196.64L423 207" stroke="#FF9000" stroke-linecap="round" stroke-dasharray="2 2"/>
<path d="M417 202L423 208L429 202" stroke="#FF9000" stroke-linecap="round" stroke-linejoin="round"/>
<path d="M472 154L466 148L460 154" stroke="#FF9000" stroke-linecap="round" stroke-linejoin="round"/>
<path d="M466 149L466 164.64C466 170.24 466 173.041 467.09 175.18C468.049 177.061 469.578 178.591 471.46 179.55C473.599 180.64 476.399 180.64 482 180.64L494 180.64C499.601 180.64 502.401 180.64 504.54 181.73C506.422 182.689 507.951 184.218 508.91 186.1C510 188.239 510 191.039 510 196.64L510 207" stroke="#FF9000" stroke-linecap="round" stroke-dasharray="2 2"/>
<path d="M516 202L510 208L504 202" stroke="#FF9000" stroke-linecap="round" stroke-linejoin="round"/>
<path d="M460 154L466 148L472 154" stroke="#FF9000" stroke-linecap="round" stroke-linejoin="round"/>
<path d="M424 211C408.589 211 397 216.463 397 223.706V266.294C397 273.537 408.589 279 424 279C439.411 279 451 273.537 451 266.294V223.706C451 216.463 439.411 211 424 211ZM446.846 252.098C446.846 256.237 437.085 260.665 424 260.665C410.915 260.665 401.154 256.237 401.154 252.098V244.855C408.011 249.029 415.976 251.035 424 250.608C432.024 251.035 439.989 249.029 446.846 244.855V252.098ZM446.846 237.902C446.846 242.041 437.085 246.469 424 246.469C410.915 246.469 401.154 241.958 401.154 237.902V230.659C408.011 234.833 415.976 236.839 424 236.412C432.024 236.839 439.989 234.833 446.846 230.659V237.902ZM424 215.139C437.085 215.139 446.846 219.691 446.846 223.706C446.846 227.721 437.085 232.273 424 232.273C410.915 232.273 401.154 227.762 401.154 223.706C401.154 219.65 410.915 215.139 424 215.139ZM424 274.861C410.915 274.861 401.154 270.35 401.154 266.294V259.051C408.011 263.225 415.976 265.231 424 264.804C432.024 265.231 439.989 263.225 446.846 259.051V266.294C446.846 270.35 437.085 274.861 424 274.861Z" fill="black"/>
<path d="M508 211C492.589 211 481 216.463 481 223.706V266.294C481 273.537 492.589 279 508 279C523.411 279 535 273.537 535 266.294V223.706C535 216.463 523.411 211 508 211ZM530.846 252.098C530.846 256.237 521.085 260.665 508 260.665C494.915 260.665 485.154 256.237 485.154 252.098V244.855C492.011 249.029 499.976 251.035 508 250.608C516.024 251.035 523.989 249.029 530.846 244.855V252.098ZM530.846 237.902C530.846 242.041 521.085 246.469 508 246.469C494.915 246.469 485.154 241.958 485.154 237.902V230.659C492.011 234.833 499.976 236.839 508 236.412C516.024 236.839 523.989 234.833 530.846 230.659V237.902ZM508 215.139C521.085 215.139 530.846 219.691 530.846 223.706C530.846 227.721 521.085 232.273 508 232.273C494.915 232.273 485.154 227.762 485.154 223.706C485.154 219.65 494.915 215.139 508 215.139ZM508 274.861C494.915 274.861 485.154 270.35 485.154 266.294V259.051C492.011 263.225 499.976 265.231 508 264.804C516.024 265.231 523.989 263.225 530.846 259.051V266.294C530.846 270.35 521.085 274.861 508 274.861Z" fill="black"/>
<rect x="84" y="192" width="188" height="39" rx="7" fill="white" stroke="#4BCD6B" stroke-width="2"/>
<rect x="79" y="197" width="198" height="39" rx="7" fill="white" stroke="#4BCD6B" stroke-width="2"/>
<circle cx="102.5" cy="216.5" r="2.5" fill="#4BCD6B"/>
<circle cx="113.5" cy="216.5" r="2.5" fill="#4BCD6B"/>
<circle cx="124.5" cy="216.5" r="2.5" fill="#4BCD6B"/>
<rect x="138" y="215" width="26" height="3" rx="1.5" fill="#4BCD6B"/>
<path d="M200.533 221.168C199.796 221.168 199.138 220.995 198.559 220.65C197.99 220.305 197.542 219.833 197.215 219.236C196.889 218.639 196.725 217.967 196.725 217.22C196.725 216.464 196.889 215.792 197.215 215.204C197.542 214.616 197.99 214.149 198.559 213.804C199.138 213.459 199.796 213.286 200.533 213.286C201.028 213.286 201.49 213.375 201.919 213.552C202.349 213.729 202.727 213.967 203.053 214.266C203.38 214.565 203.618 214.915 203.767 215.316L202.605 215.876C202.428 215.484 202.157 215.167 201.793 214.924C201.429 214.672 201.009 214.546 200.533 214.546C200.076 214.546 199.661 214.663 199.287 214.896C198.923 215.129 198.634 215.447 198.419 215.848C198.205 216.249 198.097 216.711 198.097 217.234C198.097 217.738 198.205 218.195 198.419 218.606C198.634 219.007 198.923 219.325 199.287 219.558C199.661 219.791 200.076 219.908 200.533 219.908C201.009 219.908 201.429 219.787 201.793 219.544C202.157 219.292 202.428 218.961 202.605 218.55L203.767 219.138C203.618 219.53 203.38 219.88 203.053 220.188C202.727 220.487 202.349 220.725 201.919 220.902C201.49 221.079 201.028 221.168 200.533 221.168ZM209.053 221.168C208.325 221.168 207.667 221 207.079 220.664C206.491 220.319 206.024 219.847 205.679 219.25C205.334 218.653 205.161 217.976 205.161 217.22C205.161 216.464 205.329 215.792 205.665 215.204C206.01 214.616 206.477 214.149 207.065 213.804C207.653 213.459 208.316 213.286 209.053 213.286C209.781 213.286 210.439 213.459 211.027 213.804C211.615 214.14 212.077 214.602 212.413 215.19C212.758 215.778 212.931 216.455 212.931 217.22C212.931 217.985 212.754 218.667 212.399 219.264C212.044 219.852 211.573 220.319 210.985 220.664C210.406 221 209.762 221.168 209.053 221.168ZM209.053 219.908C209.52 219.908 209.94 219.791 210.313 219.558C210.696 219.325 210.994 219.003 211.209 218.592C211.433 218.181 211.545 217.724 211.545 217.22C211.545 216.707 211.433 216.254 211.209 215.862C210.994 215.461 210.696 215.143 210.313 214.91C209.94 214.667 209.52 214.546 209.053 214.546C208.577 214.546 208.148 214.667 207.765 214.91C207.392 215.143 207.093 215.461 206.869 215.862C206.645 216.254 206.533 216.707 206.533 217.22C206.533 217.724 206.645 218.181 206.869 218.592C207.093 219.003 207.392 219.325 207.765 219.558C208.148 219.791 208.577 219.908 209.053 219.908ZM214.629 221V213.454H215.903V214.924L215.693 214.798C215.88 214.322 216.178 213.953 216.589 213.692C217.009 213.421 217.499 213.286 218.059 213.286C218.6 213.286 219.081 213.407 219.501 213.65C219.93 213.893 220.266 214.229 220.509 214.658C220.761 215.087 220.887 215.573 220.887 216.114V221H219.571V216.534C219.571 216.114 219.496 215.759 219.347 215.47C219.198 215.181 218.983 214.957 218.703 214.798C218.432 214.63 218.12 214.546 217.765 214.546C217.41 214.546 217.093 214.63 216.813 214.798C216.542 214.957 216.328 215.185 216.169 215.484C216.01 215.773 215.931 216.123 215.931 216.534V221H214.629ZM225.452 221.168C224.696 221.168 224.038 220.981 223.478 220.608C222.918 220.235 222.522 219.731 222.288 219.096L223.324 218.592C223.539 219.04 223.833 219.395 224.206 219.656C224.58 219.917 224.995 220.048 225.452 220.048C225.863 220.048 226.204 219.95 226.474 219.754C226.745 219.558 226.88 219.301 226.88 218.984C226.88 218.76 226.815 218.583 226.684 218.452C226.563 218.312 226.414 218.205 226.236 218.13C226.059 218.046 225.896 217.985 225.746 217.948L224.612 217.626C223.931 217.43 223.432 217.15 223.114 216.786C222.806 216.422 222.652 215.997 222.652 215.512C222.652 215.064 222.764 214.677 222.988 214.35C223.222 214.014 223.534 213.753 223.926 213.566C224.328 213.379 224.776 213.286 225.27 213.286C225.933 213.286 226.526 213.454 227.048 213.79C227.58 214.126 227.958 214.597 228.182 215.204L227.118 215.694C226.95 215.302 226.698 214.994 226.362 214.77C226.026 214.537 225.648 214.42 225.228 214.42C224.846 214.42 224.542 214.518 224.318 214.714C224.094 214.901 223.982 215.139 223.982 215.428C223.982 215.643 224.038 215.82 224.15 215.96C224.262 216.091 224.398 216.193 224.556 216.268C224.715 216.333 224.869 216.389 225.018 216.436L226.25 216.8C226.866 216.977 227.342 217.253 227.678 217.626C228.024 217.999 228.196 218.447 228.196 218.97C228.196 219.39 228.08 219.768 227.846 220.104C227.613 220.44 227.291 220.701 226.88 220.888C226.47 221.075 225.994 221.168 225.452 221.168ZM233.485 221.168C232.757 221.168 232.099 221 231.511 220.664C230.923 220.319 230.456 219.847 230.111 219.25C229.765 218.653 229.593 217.976 229.593 217.22C229.593 216.464 229.761 215.792 230.097 215.204C230.442 214.616 230.909 214.149 231.497 213.804C232.085 213.459 232.747 213.286 233.485 213.286C234.213 213.286 234.871 213.459 235.459 213.804C236.047 214.14 236.509 214.602 236.845 215.19C237.19 215.778 237.363 216.455 237.363 217.22C237.363 217.985 237.185 218.667 236.831 219.264C236.476 219.852 236.005 220.319 235.417 220.664C234.838 221 234.194 221.168 233.485 221.168ZM233.485 219.908C233.951 219.908 234.371 219.791 234.745 219.558C235.127 219.325 235.426 219.003 235.641 218.592C235.865 218.181 235.977 217.724 235.977 217.22C235.977 216.707 235.865 216.254 235.641 215.862C235.426 215.461 235.127 215.143 234.745 214.91C234.371 214.667 233.951 214.546 233.485 214.546C233.009 214.546 232.579 214.667 232.197 214.91C231.823 215.143 231.525 215.461 231.301 215.862C231.077 216.254 230.965 216.707 230.965 217.22C230.965 217.724 231.077 218.181 231.301 218.592C231.525 219.003 231.823 219.325 232.197 219.558C232.579 219.791 233.009 219.908 233.485 219.908ZM239.061 221V210.402H240.363V221H239.061ZM245.855 221.168C245.127 221.168 244.478 220.995 243.909 220.65C243.34 220.305 242.892 219.833 242.565 219.236C242.238 218.629 242.075 217.953 242.075 217.206C242.075 216.45 242.234 215.778 242.551 215.19C242.878 214.602 243.316 214.14 243.867 213.804C244.427 213.459 245.052 213.286 245.743 213.286C246.303 213.286 246.798 213.389 247.227 213.594C247.666 213.79 248.034 214.061 248.333 214.406C248.641 214.742 248.874 215.129 249.033 215.568C249.201 215.997 249.285 216.445 249.285 216.912C249.285 217.015 249.276 217.131 249.257 217.262C249.248 217.383 249.234 217.5 249.215 217.612H243.027V216.492H248.459L247.843 216.996C247.927 216.511 247.88 216.077 247.703 215.694C247.526 215.311 247.264 215.008 246.919 214.784C246.574 214.56 246.182 214.448 245.743 214.448C245.304 214.448 244.903 214.56 244.539 214.784C244.175 215.008 243.89 215.33 243.685 215.75C243.489 216.161 243.41 216.651 243.447 217.22C243.41 217.771 243.494 218.256 243.699 218.676C243.914 219.087 244.212 219.409 244.595 219.642C244.987 219.866 245.412 219.978 245.869 219.978C246.373 219.978 246.798 219.861 247.143 219.628C247.488 219.395 247.768 219.096 247.983 218.732L249.075 219.292C248.926 219.637 248.692 219.955 248.375 220.244C248.067 220.524 247.698 220.748 247.269 220.916C246.849 221.084 246.378 221.168 245.855 221.168Z" fill="#4BCD6B"/>
<rect x="365" y="102" width="188" height="41" rx="7" fill="white" stroke="#0087C7" stroke-width="2"/>
<rect x="360" y="107" width="198" height="39" rx="7" fill="white" stroke="#0087C7" stroke-width="2"/>
<circle cx="383.5" cy="126.5" r="2.5" fill="#0087C7"/>
<circle cx="393.5" cy="126.5" r="2.5" fill="#0087C7"/>
<circle cx="403.5" cy="126.5" r="2.5" fill="#0087C7"/>
<rect x="417" y="125" width="26" height="3" rx="1.5" fill="#0087C7"/>
<path d="M483.92 131L481.33 123.454H482.772L484.83 129.768L484.326 129.754L486.342 123.454H487.574L489.59 129.754L489.086 129.768L491.158 123.454H492.586L489.996 131H488.75L486.762 124.7H487.154L485.166 131H483.92ZM497.197 131.168C496.469 131.168 495.811 131 495.223 130.664C494.635 130.319 494.169 129.847 493.823 129.25C493.478 128.653 493.305 127.976 493.305 127.22C493.305 126.464 493.473 125.792 493.809 125.204C494.155 124.616 494.621 124.149 495.209 123.804C495.797 123.459 496.46 123.286 497.197 123.286C497.925 123.286 498.583 123.459 499.171 123.804C499.759 124.14 500.221 124.602 500.557 125.19C500.903 125.778 501.075 126.455 501.075 127.22C501.075 127.985 500.898 128.667 500.543 129.264C500.189 129.852 499.717 130.319 499.129 130.664C498.551 131 497.907 131.168 497.197 131.168ZM497.197 129.908C497.664 129.908 498.084 129.791 498.457 129.558C498.84 129.325 499.139 129.003 499.353 128.592C499.577 128.181 499.689 127.724 499.689 127.22C499.689 126.707 499.577 126.254 499.353 125.862C499.139 125.461 498.84 125.143 498.457 124.91C498.084 124.667 497.664 124.546 497.197 124.546C496.721 124.546 496.292 124.667 495.909 124.91C495.536 125.143 495.237 125.461 495.013 125.862C494.789 126.254 494.677 126.707 494.677 127.22C494.677 127.724 494.789 128.181 495.013 128.592C495.237 129.003 495.536 129.325 495.909 129.558C496.292 129.791 496.721 129.908 497.197 129.908ZM502.774 131V123.454H504.048V124.84L503.908 124.644C504.085 124.215 504.356 123.897 504.72 123.692C505.084 123.477 505.527 123.37 506.05 123.37H506.512V124.602H505.854C505.322 124.602 504.892 124.77 504.566 125.106C504.239 125.433 504.076 125.899 504.076 126.506V131H502.774ZM507.668 131V120.402H508.97V127.668L508.438 127.542L512.442 123.454H514.108L511.21 126.492L514.304 131H512.764L509.936 126.912L510.748 126.87L508.55 129.166L508.97 128.214V131H507.668ZM518.81 131.168C518.082 131.168 517.433 130.995 516.864 130.65C516.295 130.305 515.847 129.833 515.52 129.236C515.193 128.629 515.03 127.953 515.03 127.206C515.03 126.45 515.189 125.778 515.506 125.19C515.833 124.602 516.271 124.14 516.822 123.804C517.382 123.459 518.007 123.286 518.698 123.286C519.258 123.286 519.753 123.389 520.182 123.594C520.621 123.79 520.989 124.061 521.288 124.406C521.596 124.742 521.829 125.129 521.988 125.568C522.156 125.997 522.24 126.445 522.24 126.912C522.24 127.015 522.231 127.131 522.212 127.262C522.203 127.383 522.189 127.5 522.17 127.612H515.982V126.492H521.414L520.798 126.996C520.882 126.511 520.835 126.077 520.658 125.694C520.481 125.311 520.219 125.008 519.874 124.784C519.529 124.56 519.137 124.448 518.698 124.448C518.259 124.448 517.858 124.56 517.494 124.784C517.13 125.008 516.845 125.33 516.64 125.75C516.444 126.161 516.365 126.651 516.402 127.22C516.365 127.771 516.449 128.256 516.654 128.676C516.869 129.087 517.167 129.409 517.55 129.642C517.942 129.866 518.367 129.978 518.824 129.978C519.328 129.978 519.753 129.861 520.098 129.628C520.443 129.395 520.723 129.096 520.938 128.732L522.03 129.292C521.881 129.637 521.647 129.955 521.33 130.244C521.022 130.524 520.653 130.748 520.224 130.916C519.804 131.084 519.333 131.168 518.81 131.168ZM523.938 131V123.454H525.212V124.84L525.072 124.644C525.249 124.215 525.52 123.897 525.884 123.692C526.248 123.477 526.691 123.37 527.214 123.37H527.676V124.602H527.018C526.486 124.602 526.056 124.77 525.73 125.106C525.403 125.433 525.24 125.899 525.24 126.506V131H523.938Z" fill="#0087C7"/>
<path d="M281 215L305.914 215C311.514 215 314.315 215 316.454 213.91C318.335 212.951 319.865 211.422 320.824 209.54C321.914 207.401 321.914 204.601 321.914 199L321.914 140C321.914 134.399 321.914 131.599 323.004 129.46C323.962 127.578 325.492 126.049 327.374 125.09C329.513 124 332.313 124 337.914 124L356 124" stroke="black" stroke-linecap="round" stroke-dasharray="2 2"/>
<path d="M351 118L357 124L351 130" stroke="black" stroke-linecap="round" stroke-linejoin="round"/>
<path d="M286 221L280 215L286 209" stroke="black" stroke-linecap="round" stroke-linejoin="round"/>
</svg>
