<svg width="158" height="33" viewBox="0 0 158 33" fill="none" xmlns="http://www.w3.org/2000/svg">
<path d="M136.807 22.6895C136.832 22.6895 136.856 22.6994 136.874 22.7172C136.892 22.735 136.902 22.7591 136.903 22.7844C136.906 24.9717 136.906 26.4561 136.901 27.2375C136.898 27.8836 136.952 28.3229 137.063 28.5553C137.43 29.3228 138.226 29.5297 139.06 29.5765C139.1 29.5791 141.223 29.5808 145.427 29.5817C146.381 29.583 147.378 29.2499 147.805 28.3523C147.927 28.0965 148.022 27.7803 148.092 27.4039C148.272 26.4248 148.393 25.5749 148.454 24.8542C148.456 24.8407 148.46 24.8276 148.467 24.8162C148.474 24.8048 148.484 24.7954 148.496 24.7888C148.508 24.7821 148.521 24.7783 148.534 24.778C148.548 24.7776 148.561 24.7805 148.573 24.7865C149.506 25.2557 150.451 25.6186 151.408 25.8753C151.421 25.879 151.432 25.8875 151.44 25.8992C151.447 25.911 151.45 25.9252 151.448 25.9391C151.274 26.9677 151.048 27.9625 150.769 28.9235C150.534 29.7369 150.253 30.3527 149.926 30.7707C148.952 32.0183 147.44 32.4607 145.909 32.4698C143.833 32.4828 141.258 32.4806 138.185 32.4633C135.584 32.449 133.765 31.092 133.768 28.3263C133.769 26.4417 133.769 24.5845 133.769 22.7545C133.769 22.7373 133.776 22.7206 133.788 22.7084C133.8 22.6962 133.817 22.6895 133.834 22.6895H136.807Z" fill="black"/>
<path d="M21.7528 1.86693C21.7846 1.86694 21.8157 1.87545 21.843 1.89145C21.8703 1.90746 21.8928 1.93043 21.908 1.95802C24.421 6.57625 26.4189 10.2305 27.9017 12.9208C28.7707 14.4988 29.9566 15.9715 31.4347 16.7937C33.1675 17.7589 35.5132 17.9177 37.4464 17.9281C39.037 17.9367 40.6332 17.9367 42.235 17.9281C42.4949 17.9255 42.5479 17.8591 42.6992 18.1362C46.7554 25.5687 49.1741 29.9984 49.9551 31.4251C50.0198 31.5439 50.0733 31.668 50.1155 31.7972C50.1186 31.8068 50.1193 31.817 50.1176 31.8269C50.116 31.8369 50.1121 31.8462 50.1062 31.8544C50.1002 31.8625 50.0925 31.8692 50.0835 31.8737C50.0746 31.8782 50.0646 31.8805 50.0546 31.8804C41.4224 31.8804 34.601 31.8769 29.5905 31.87C28.4327 31.8683 27.2362 31.8076 26.0008 31.6879C22.5774 31.354 19.52 30.1805 16.8285 28.1676C13.6499 25.7908 11.268 22.5242 9.3218 18.9961C5.95961 12.9035 2.85512 7.22668 0.00846509 1.96577C0.00280204 1.95563 -0.000124366 1.94412 4.05173e-06 1.93249C0.000142028 1.92086 0.00333514 1.90946 0.0092228 1.89946C0.0151192 1.88945 0.0235164 1.88115 0.0335956 1.87544C0.0436817 1.86973 0.0551085 1.86681 0.0666821 1.86693H21.7528Z" fill="black"/>
<path d="M69.0032 17.893C69.013 17.893 69.0226 17.8956 69.031 17.9006C69.0394 17.9057 69.0463 17.9129 69.0509 17.9216L76.6262 31.7985C76.6307 31.8068 76.633 31.8162 76.6328 31.8257C76.6326 31.8351 76.6299 31.8443 76.6251 31.8525C76.6203 31.8606 76.6134 31.8674 76.6052 31.872C76.5971 31.8767 76.5878 31.8792 76.5784 31.8791H53.1414C53.1316 31.8792 53.1219 31.8764 53.1135 31.8714C53.1051 31.8663 53.0982 31.8591 53.0935 31.8504L45.5182 17.9735C45.5138 17.9652 45.5115 17.9559 45.5117 17.9465C45.5119 17.937 45.5146 17.9277 45.5194 17.9195C45.5242 17.9114 45.531 17.9046 45.5392 17.9C45.5474 17.8953 45.5567 17.893 45.5661 17.893H69.0032Z" fill="black"/>
<path fill-rule="evenodd" clip-rule="evenodd" d="M117.708 1.70178C117.717 1.70178 117.726 1.70352 117.735 1.70699C117.743 1.71044 117.75 1.71547 117.757 1.72185C117.763 1.72825 117.768 1.73597 117.772 1.74434C117.775 1.75268 117.777 1.76161 117.777 1.77063V18.4315C117.777 18.4406 117.775 18.4496 117.772 18.458C117.768 18.4663 117.763 18.4739 117.757 18.4803C117.75 18.4867 117.743 18.4917 117.735 18.4952C117.726 18.4986 117.717 18.5005 117.708 18.5005H109.915C109.896 18.5005 109.879 18.5078 109.866 18.5207C109.853 18.5336 109.846 18.5511 109.846 18.5694V22.2653C109.846 22.2836 109.853 22.3012 109.866 22.3141C109.879 22.327 109.896 22.3343 109.915 22.3343H116.693C116.705 22.3343 116.717 22.3376 116.728 22.3438C116.738 22.35 116.747 22.3588 116.753 22.3693L118.12 24.8723C118.126 24.8829 118.129 24.8949 118.128 24.907C118.128 24.9192 118.125 24.931 118.119 24.9415C118.113 24.9519 118.104 24.9604 118.093 24.9664C118.083 24.9723 118.071 24.9753 118.059 24.9751H109.913C109.904 24.9751 109.895 24.9769 109.887 24.9803C109.879 24.9838 109.871 24.9889 109.865 24.9953C109.858 25.0017 109.853 25.0093 109.85 25.0177C109.846 25.026 109.845 25.0351 109.845 25.0441V29.0223C109.845 29.0406 109.852 29.0582 109.865 29.0711C109.878 29.084 109.895 29.0912 109.913 29.0912H118.007C118.019 29.0912 118.031 29.0945 118.042 29.1007C118.052 29.1069 118.061 29.1158 118.067 29.1264L119.496 31.7438C119.501 31.7544 119.505 31.7664 119.504 31.7785C119.504 31.7906 119.501 31.8025 119.495 31.8129C119.489 31.8234 119.48 31.8319 119.469 31.8378C119.459 31.8438 119.447 31.8468 119.435 31.8466H98.2284C98.2163 31.8466 98.2044 31.8433 98.1939 31.8371C98.1835 31.8309 98.1748 31.822 98.1689 31.8114L96.74 29.1954C96.7341 29.1848 96.731 29.1728 96.7312 29.1607C96.7313 29.1486 96.7346 29.1367 96.7408 29.1262C96.7469 29.1158 96.7558 29.1073 96.7663 29.1013C96.7768 29.0954 96.7887 29.0924 96.8007 29.0926H106.761C106.779 29.0926 106.796 29.0853 106.809 29.0724C106.822 29.0595 106.829 29.0419 106.829 29.0236V25.0441C106.829 25.0351 106.827 25.026 106.824 25.0177C106.82 25.0093 106.815 25.0017 106.809 24.9953C106.803 24.9889 106.795 24.9838 106.787 24.9803C106.779 24.9769 106.77 24.9751 106.761 24.9751H98.6706C98.6525 24.9751 98.635 24.9678 98.6221 24.9549C98.6093 24.942 98.6021 24.9244 98.6021 24.9061V22.4033C98.6021 22.385 98.6093 22.3674 98.6221 22.3545C98.635 22.3416 98.6525 22.3343 98.6706 22.3343H106.761C106.779 22.3343 106.796 22.327 106.809 22.3141C106.822 22.3012 106.829 22.2836 106.829 22.2653V18.5694C106.829 18.5511 106.822 18.5336 106.809 18.5207C106.796 18.5078 106.779 18.5005 106.761 18.5005H99.0922C99.074 18.5005 99.0566 18.4932 99.0438 18.4803C99.031 18.4674 99.0237 18.4498 99.0237 18.4315V1.77063C99.0237 1.75236 99.031 1.73477 99.0438 1.72185C99.0566 1.70897 99.074 1.70179 99.0922 1.70178H117.708ZM101.986 11.1762C101.977 11.1762 101.968 11.1781 101.96 11.1816C101.952 11.185 101.944 11.1901 101.938 11.1964C101.931 11.2028 101.926 11.2105 101.923 11.2188C101.92 11.2272 101.918 11.2362 101.918 11.2452V15.8557C101.918 15.874 101.925 15.8915 101.938 15.9044C101.951 15.9173 101.968 15.9246 101.986 15.9246H106.993C107.002 15.9246 107.011 15.9229 107.02 15.9194C107.028 15.9159 107.036 15.9108 107.042 15.9044C107.048 15.898 107.053 15.8904 107.057 15.882C107.06 15.8737 107.062 15.8648 107.062 15.8557V11.2452C107.062 11.2362 107.06 11.2272 107.057 11.2188C107.053 11.2105 107.048 11.2028 107.042 11.1964C107.036 11.1901 107.028 11.185 107.02 11.1816C107.011 11.1781 107.002 11.1762 106.993 11.1762H101.986ZM109.797 11.1762C109.777 11.1763 109.759 11.1841 109.745 11.198C109.731 11.2119 109.723 11.2308 109.723 11.2504V15.8505C109.723 15.8702 109.731 15.889 109.745 15.9029C109.759 15.9168 109.777 15.9246 109.797 15.9246H114.804C114.823 15.9246 114.842 15.9168 114.856 15.9029C114.87 15.889 114.878 15.8702 114.878 15.8505V11.2504C114.878 11.2308 114.87 11.2119 114.856 11.198C114.842 11.1841 114.823 11.1762 114.804 11.1762H109.797ZM109.793 4.2871C109.783 4.28712 109.774 4.28907 109.765 4.29281C109.756 4.29656 109.748 4.30206 109.741 4.30895C109.734 4.31585 109.729 4.32409 109.725 4.33309C109.721 4.34208 109.719 4.3517 109.719 4.36142L109.727 8.82621C109.727 8.83593 109.729 8.84556 109.733 8.85454C109.736 8.86353 109.742 8.87168 109.749 8.87855C109.756 8.88541 109.764 8.89085 109.773 8.89456C109.782 8.89827 109.791 8.90017 109.801 8.90015L114.808 8.89138C114.818 8.89137 114.827 8.8894 114.836 8.88566C114.845 8.88192 114.853 8.87643 114.86 8.86953C114.867 8.86265 114.872 8.8545 114.876 8.84552C114.88 8.83652 114.882 8.8268 114.882 8.81706L114.874 4.3524C114.874 4.34266 114.872 4.33293 114.868 4.32394C114.864 4.31496 114.859 4.3068 114.852 4.29993C114.845 4.29306 114.837 4.28763 114.828 4.28392C114.819 4.28022 114.81 4.27832 114.8 4.27833L109.793 4.2871ZM101.99 4.28138C101.981 4.28139 101.971 4.28332 101.962 4.28697C101.954 4.29063 101.946 4.29598 101.939 4.30272C101.932 4.30948 101.927 4.31752 101.923 4.32635C101.92 4.33519 101.918 4.34474 101.918 4.3543V8.8243C101.918 8.83384 101.92 8.84331 101.923 8.85213C101.927 8.86096 101.932 8.86899 101.939 8.87576C101.946 8.88251 101.954 8.88785 101.962 8.89151C101.971 8.89516 101.981 8.89709 101.99 8.8971H106.989C107.009 8.8971 107.027 8.88942 107.041 8.87576C107.054 8.86211 107.062 8.84359 107.062 8.8243V4.3543C107.062 4.33498 107.054 4.31639 107.041 4.30272C107.027 4.28906 107.009 4.28138 106.989 4.28138H101.99Z" fill="black"/>
<path d="M128.577 22.5819C128.593 22.5807 128.609 22.5828 128.624 22.588L131.272 23.4726C131.31 23.4851 131.341 23.5119 131.359 23.5472C131.376 23.5825 131.38 23.6235 131.368 23.6612C130.583 26.1781 129.56 28.5856 128.301 30.8839C128.289 30.905 128.269 30.9206 128.246 30.9275C128.223 30.9343 128.198 30.9317 128.176 30.9203C127.322 30.4537 126.457 30.109 125.581 29.8861C125.575 29.8845 125.569 29.8815 125.564 29.8773C125.559 29.8732 125.555 29.8679 125.553 29.8621C125.55 29.8562 125.549 29.8498 125.549 29.8434C125.549 29.837 125.551 29.8307 125.554 29.825C126.741 27.557 127.714 25.1711 128.471 22.6673C128.476 22.6518 128.483 22.6374 128.494 22.625C128.504 22.6125 128.517 22.6023 128.531 22.5949C128.545 22.5875 128.561 22.5831 128.577 22.5819Z" fill="black"/>
<path d="M154.145 22.2224C154.171 22.2113 154.2 22.2101 154.226 22.2189C154.253 22.2278 154.275 22.2462 154.289 22.2705L157.985 28.7101C157.993 28.7241 157.998 28.7398 157.999 28.7559C158.001 28.772 157.999 28.7883 157.994 28.8037C157.989 28.8191 157.981 28.8332 157.97 28.8451C157.959 28.857 157.945 28.8664 157.93 28.8727L155.293 30.0006C155.267 30.0114 155.238 30.0122 155.211 30.0028C155.185 29.9935 155.162 29.9746 155.149 29.9499L151.599 23.4478C151.592 23.4338 151.587 23.4184 151.586 23.4025C151.585 23.3865 151.587 23.3705 151.592 23.3555C151.597 23.3404 151.605 23.3266 151.616 23.3149C151.627 23.3033 151.64 23.2941 151.655 23.2879L154.145 22.2224Z" fill="black"/>
<path d="M96.1904 2.66578C96.2062 2.66578 96.2213 2.67198 96.2325 2.68318C96.2436 2.69441 96.2499 2.70974 96.2499 2.72562V5.50175C96.2499 5.51761 96.2436 5.53285 96.2325 5.54406C96.2213 5.55527 96.2062 5.56159 96.1904 5.56159H92.4726C92.4648 5.56159 92.4571 5.56316 92.4499 5.56616C92.4427 5.56917 92.4361 5.57357 92.4305 5.57912C92.425 5.58468 92.4207 5.5913 92.4177 5.59856C92.4147 5.60581 92.4131 5.61358 92.4131 5.62143V14.175C92.4131 14.1828 92.4147 14.1906 92.4177 14.1978C92.4207 14.2051 92.425 14.2117 92.4305 14.2173C92.4361 14.2228 92.4427 14.2272 92.4499 14.2302C92.4571 14.2332 92.4648 14.2348 92.4726 14.2348H96.0495C96.0573 14.2348 96.065 14.2364 96.0722 14.2394C96.0794 14.2424 96.086 14.2468 96.0915 14.2523C96.097 14.2579 96.1014 14.2645 96.1044 14.2718C96.1074 14.279 96.109 14.2868 96.109 14.2946V16.9277C96.109 16.9356 96.1074 16.9433 96.1044 16.9506C96.1014 16.9579 96.0971 16.9645 96.0915 16.97C96.086 16.9756 96.0794 16.98 96.0722 16.983C96.065 16.986 96.0573 16.9876 96.0495 16.9876H92.4713C92.4556 16.9876 92.4404 16.9939 92.4293 17.0051C92.4181 17.0163 92.4119 17.0315 92.4119 17.0474V25.5853C92.4119 25.5941 92.4138 25.6029 92.4175 25.6108C92.4213 25.6188 92.4268 25.6258 92.4336 25.6314C92.4404 25.637 92.4484 25.6411 92.4569 25.6432C92.4655 25.6454 92.4744 25.6456 92.483 25.6439L96.2059 24.9011C96.2141 24.8996 96.2226 24.8998 96.2307 24.9018C96.2388 24.9038 96.2463 24.9075 96.2529 24.9126C96.2595 24.9178 96.2649 24.9243 96.2688 24.9317C96.2728 24.9391 96.2752 24.9473 96.2758 24.9557L96.4516 27.6616C96.4525 27.676 96.4481 27.6904 96.4393 27.7018C96.4305 27.7133 96.4178 27.7211 96.4037 27.7239L86.6354 29.6728C86.623 29.6752 86.6101 29.6736 86.5988 29.6682C86.5874 29.6628 86.578 29.6539 86.572 29.6428L85.2115 27.1542C85.2071 27.1459 85.2047 27.1366 85.2044 27.1272C85.2042 27.1178 85.2062 27.1085 85.2103 27.1C85.2143 27.0916 85.2203 27.0842 85.2277 27.0784C85.2351 27.0727 85.2437 27.0688 85.2529 27.067L89.3535 26.2475C89.367 26.2448 89.3791 26.2374 89.3879 26.2267C89.3966 26.2161 89.4013 26.2027 89.4014 26.1889V17.0487C89.4014 17.0328 89.3951 17.0176 89.3839 17.0064C89.3728 16.9951 89.3577 16.9888 89.3419 16.9888H85.7702C85.7544 16.9888 85.7393 16.9825 85.7281 16.9713C85.717 16.9601 85.7107 16.9449 85.7107 16.929V14.2934C85.7107 14.2775 85.717 14.2623 85.7281 14.2511C85.7393 14.2398 85.7544 14.2335 85.7702 14.2335H89.3419C89.3577 14.2335 89.3728 14.2272 89.3839 14.216C89.3951 14.2048 89.4014 14.1895 89.4014 14.1737V5.6227C89.4014 5.60683 89.3951 5.59161 89.3839 5.58039C89.3728 5.56918 89.3577 5.56287 89.3419 5.56286H85.6344C85.6187 5.56286 85.6035 5.55654 85.5924 5.54533C85.5812 5.53411 85.575 5.51889 85.575 5.50302V2.72562C85.575 2.70974 85.5812 2.69441 85.5924 2.68318C85.6035 2.67199 85.6187 2.66578 85.6344 2.66578H96.1904Z" fill="black"/>
<path d="M141.567 21.2899C141.608 21.2915 141.646 21.3081 141.676 21.3365C142.956 22.5672 144.217 23.885 145.459 25.2899C145.469 25.3006 145.476 25.313 145.48 25.3265C145.485 25.34 145.486 25.3543 145.485 25.3684C145.484 25.3826 145.48 25.3965 145.474 25.4091C145.467 25.4217 145.459 25.433 145.448 25.4421L143.298 27.2179C143.285 27.2289 143.27 27.2369 143.254 27.2416C143.237 27.2463 143.22 27.2476 143.203 27.2453C143.186 27.2429 143.17 27.237 143.155 27.2281C143.14 27.2191 143.127 27.2073 143.117 27.1932C142.356 26.0961 141.521 25.0749 140.613 24.1295C140.464 23.9752 140.106 23.5996 139.539 23.0029C139.533 22.9965 139.528 22.9887 139.525 22.9803C139.522 22.9718 139.521 22.9628 139.522 22.9537C139.522 22.9447 139.525 22.9358 139.529 22.9277C139.533 22.9196 139.539 22.9124 139.546 22.9066L141.456 21.3273C141.487 21.3015 141.527 21.2882 141.567 21.2899Z" fill="black"/>
<path d="M133.56 0.186157C133.584 0.186157 133.608 0.196033 133.626 0.213598C133.643 0.231153 133.653 0.254973 133.653 0.279788V5.02166C133.653 5.05648 133.667 5.08989 133.691 5.11453C133.715 5.13915 133.748 5.15301 133.782 5.15302H138.072C138.097 5.15303 138.122 5.16332 138.14 5.18161C138.158 5.19989 138.169 5.22473 138.169 5.25059V7.79653C138.169 7.82135 138.159 7.84516 138.141 7.86272C138.124 7.88028 138.1 7.89016 138.075 7.89016H133.723C133.704 7.89017 133.686 7.89772 133.672 7.91112C133.659 7.92452 133.652 7.94273 133.652 7.96168V11.2765C133.652 11.2857 133.655 11.2947 133.66 11.3023C133.665 11.3098 133.673 11.3157 133.681 11.319C133.69 11.3224 133.699 11.3231 133.708 11.3211C133.717 11.3191 133.725 11.3144 133.732 11.3077L134.664 10.3008C134.687 10.2762 134.718 10.2612 134.751 10.259C134.785 10.2568 134.818 10.2676 134.844 10.2891L138.617 13.4255C138.632 13.4381 138.645 13.4536 138.653 13.471C138.662 13.4885 138.668 13.5076 138.669 13.527C138.67 13.5465 138.668 13.566 138.661 13.5843C138.655 13.6027 138.645 13.6195 138.631 13.6338L136.879 15.5292C136.869 15.5406 136.856 15.5498 136.842 15.5559C136.827 15.5621 136.812 15.5652 136.796 15.5651C136.781 15.5649 136.765 15.5616 136.751 15.5552C136.737 15.5488 136.724 15.5394 136.714 15.5278C135.829 14.5391 134.821 13.5708 133.69 12.6229C133.687 12.6199 133.683 12.6178 133.678 12.6172C133.674 12.6165 133.669 12.6173 133.665 12.6192C133.661 12.6211 133.657 12.6242 133.655 12.6281C133.653 12.632 133.651 12.6366 133.652 12.6412V20.7628C133.652 20.7811 133.644 20.7986 133.632 20.8116C133.619 20.8244 133.601 20.8317 133.583 20.8318H130.844C130.828 20.8317 130.813 20.8253 130.802 20.8138C130.791 20.8024 130.785 20.7868 130.785 20.7706V12.2288C130.785 12.221 130.782 12.2133 130.777 12.2072C130.772 12.2011 130.765 12.1968 130.758 12.195C130.75 12.1932 130.742 12.194 130.735 12.1973C130.728 12.2006 130.722 12.2062 130.719 12.2132C129.499 14.5379 128.156 16.6831 126.451 18.6436C126.443 18.6538 126.431 18.6618 126.419 18.6668C126.406 18.6718 126.393 18.6738 126.379 18.6724C126.366 18.671 126.353 18.6663 126.342 18.6588C126.33 18.6513 126.321 18.6411 126.314 18.6292L124.938 16.1068C124.925 16.0833 124.92 16.0563 124.923 16.0297C124.926 16.003 124.938 15.9781 124.956 15.9585C127.15 13.616 128.941 10.9517 130.327 7.96562C130.33 7.95834 130.332 7.95031 130.332 7.94225C130.331 7.93416 130.329 7.92625 130.324 7.91938C130.32 7.91251 130.314 7.90682 130.307 7.90286C130.3 7.8989 130.292 7.89672 130.284 7.89664H125.685C125.658 7.89664 125.632 7.88576 125.612 7.86627C125.593 7.84676 125.582 7.82019 125.582 7.79259V5.22594C125.582 5.2049 125.591 5.18467 125.606 5.16979C125.62 5.15494 125.64 5.14655 125.661 5.14654H130.712C130.732 5.14653 130.751 5.1387 130.764 5.12482C130.778 5.11091 130.786 5.09202 130.786 5.07235V0.244724C130.786 0.237036 130.787 0.22934 130.79 0.222237C130.793 0.215156 130.798 0.208732 130.803 0.203308C130.808 0.197872 130.815 0.193546 130.822 0.190604C130.829 0.187671 130.837 0.186161 130.844 0.186157H133.56Z" fill="black"/>
<path fill-rule="evenodd" clip-rule="evenodd" d="M156.764 1.16451C156.783 1.16452 156.8 1.17181 156.813 1.18497C156.827 1.19813 156.834 1.21603 156.834 1.23464V19.869C156.834 19.8876 156.827 19.9055 156.813 19.9187C156.8 19.9319 156.783 19.9393 156.764 19.9393H141.161C141.142 19.9393 141.125 19.9319 141.112 19.9187C141.098 19.9055 141.091 19.8876 141.091 19.869V1.23464C141.091 1.21603 141.098 1.19813 141.112 1.18497C141.125 1.17181 141.142 1.16451 141.161 1.16451H156.764ZM144.069 14.3414C144.045 14.3414 144.022 14.3512 144.004 14.3685C143.987 14.3858 143.977 14.4094 143.977 14.4339V17.4494C143.977 17.4739 143.987 17.4973 144.004 17.5147C144.022 17.532 144.045 17.5417 144.069 17.5417H153.739C153.764 17.5417 153.787 17.532 153.804 17.5147C153.822 17.4974 153.831 17.4738 153.831 17.4494V14.4339C153.831 14.4094 153.822 14.3858 153.804 14.3685C153.787 14.3511 153.764 14.3414 153.739 14.3414H144.069ZM144.065 8.88414C144.054 8.88414 144.042 8.88644 144.032 8.89087C144.021 8.89532 144.011 8.90184 144.003 8.91006C143.995 8.91827 143.989 8.92804 143.984 8.93877C143.98 8.94949 143.977 8.96096 143.977 8.97256V12.0037C143.977 12.0271 143.987 12.0497 144.003 12.0663C144.02 12.0829 144.042 12.0922 144.065 12.0922H153.741C153.764 12.0922 153.786 12.0829 153.803 12.0663C153.819 12.0497 153.829 12.0271 153.829 12.0037V8.97256C153.829 8.96096 153.826 8.94949 153.822 8.93877C153.818 8.92804 153.811 8.91827 153.803 8.91006C153.795 8.90184 153.785 8.89532 153.774 8.89087C153.764 8.88643 153.752 8.88414 153.741 8.88414H144.065ZM144.074 3.566C144.049 3.566 144.024 3.5762 144.006 3.59446C143.988 3.61276 143.977 3.6377 143.977 3.66357V6.66597C143.977 6.69185 143.988 6.71679 144.006 6.73509C144.024 6.75335 144.049 6.76354 144.074 6.76354H153.732C153.757 6.76354 153.782 6.75336 153.8 6.73509C153.818 6.71679 153.829 6.69185 153.829 6.66597V3.66357C153.829 3.6377 153.818 3.61276 153.8 3.59446C153.782 3.57619 153.757 3.566 153.732 3.566H144.074Z" fill="black"/>
<path d="M60.1762 1.74853C60.1896 1.74849 60.2029 1.75209 60.2144 1.75895C60.226 1.76581 60.2356 1.77568 60.2421 1.78753L67.7553 15.5526C67.7616 15.5641 67.7648 15.5771 67.7646 15.5902C67.7644 15.6033 67.7608 15.6162 67.7541 15.6274C67.7475 15.6387 67.7379 15.6481 67.7266 15.6546C67.7152 15.6611 67.7024 15.6645 67.6893 15.6644H44.2962C44.2828 15.6645 44.2695 15.6609 44.2579 15.654C44.2463 15.6471 44.2368 15.6373 44.2303 15.6254L36.7171 1.86045C36.7108 1.84896 36.7076 1.83597 36.7078 1.82285C36.708 1.80971 36.7116 1.7968 36.7183 1.7855C36.7249 1.7742 36.7344 1.7648 36.7458 1.75831C36.7571 1.75184 36.77 1.74848 36.783 1.74853H60.1762Z" fill="black"/>
</svg>
