<svg width="33" height="9" viewBox="0 0 33 9" fill="none" xmlns="http://www.w3.org/2000/svg">
<path d="M32.3536 4.85355C32.5488 4.65829 32.5488 4.34171 32.3536 4.14645L29.1716 0.964466C28.9763 0.769204 28.6597 0.769204 28.4645 0.964466C28.2692 1.15973 28.2692 1.47631 28.4645 1.67157L31.2929 4.5L28.4645 7.32843C28.2692 7.52369 28.2692 7.84027 28.4645 8.03553C28.6597 8.2308 28.9763 8.2308 29.1716 8.03553L32.3536 4.85355ZM0 4.5V5H2V4.5V4H0V4.5ZM6 4.5V5H10V4.5V4H6V4.5ZM14 4.5V5H18V4.5V4H14V4.5ZM22 4.5V5H26V4.5V4H22V4.5ZM30 4.5V5H32V4.5V4H30V4.5ZM32.3536 4.85355C32.5488 4.65829 32.5488 4.34171 32.3536 4.14645L29.1716 0.964466C28.9763 0.769204 28.6597 0.769204 28.4645 0.964466C28.2692 1.15973 28.2692 1.47631 28.4645 1.67157L31.2929 4.5L28.4645 7.32843C28.2692 7.52369 28.2692 7.84027 28.4645 8.03553C28.6597 8.2308 28.9763 8.2308 29.1716 8.03553L32.3536 4.85355ZM0 4.5V5H2V4.5V4H0V4.5ZM6 4.5V5H10V4.5V4H6V4.5ZM14 4.5V5H18V4.5V4H14V4.5ZM22 4.5V5H26V4.5V4H22V4.5ZM30 4.5V5H32V4.5V4H30V4.5Z" fill="black"/>
</svg>
