<svg width="46" height="27" viewBox="0 0 46 27" fill="none" xmlns="http://www.w3.org/2000/svg">
<g clip-path="url(#clip0_19835_6934)">
<path d="M13.1128 9.8059C13.1128 10.3615 13.1728 10.812 13.2777 11.1424C13.3977 11.4728 13.5476 11.8332 13.7575 12.2236C13.8324 12.3437 13.8624 12.4639 13.8624 12.569C13.8624 12.7191 13.7725 12.8693 13.5776 13.0195L12.6331 13.6502C12.4981 13.7403 12.3632 13.7853 12.2433 13.7853C12.0933 13.7853 11.9434 13.7102 11.7935 13.5751C11.5836 13.3498 11.4037 13.1096 11.2538 12.8693C11.1039 12.614 10.9539 12.3287 10.789 11.9833C9.61962 13.3649 8.15039 14.0556 6.3813 14.0556C5.12196 14.0556 4.11748 13.6952 3.38286 12.9744C2.64824 12.2536 2.27344 11.2926 2.27344 10.0912C2.27344 8.8148 2.7232 7.77865 3.63773 6.99778C4.55225 6.21691 5.76662 5.82648 7.31082 5.82648C7.82056 5.82648 8.34528 5.87153 8.9 5.94661C9.45471 6.02169 10.0244 6.14183 10.6241 6.27698V5.18076C10.6241 4.03949 10.3842 3.2436 9.91947 2.77809C9.43972 2.31257 8.63014 2.08732 7.47574 2.08732C6.95101 2.08732 6.41129 2.14739 5.85658 2.28254C5.30186 2.41769 4.76215 2.58287 4.23742 2.7931C3.99754 2.89822 3.81764 2.95829 3.71269 2.98832C3.60774 3.01835 3.53278 3.03337 3.47281 3.03337C3.26292 3.03337 3.15798 2.8832 3.15798 2.56785V1.83204C3.15798 1.59177 3.18796 1.41157 3.26292 1.30645C3.33788 1.20134 3.47281 1.09622 3.68271 0.991101C4.20743 0.720801 4.83711 0.495551 5.57172 0.31535C6.30634 0.120133 7.08594 0.0300334 7.91051 0.0300334C9.69458 0.0300334 10.9989 0.435484 11.8385 1.24638C12.663 2.05729 13.0828 3.28866 13.0828 4.94049V9.8059H13.1128ZM7.02597 12.0884C7.52071 12.0884 8.03045 11.9983 8.57017 11.8181C9.10989 11.6379 9.58964 11.3076 9.99443 10.8571C10.2343 10.5717 10.4142 10.2564 10.5042 9.896C10.5941 9.5356 10.6541 9.10011 10.6541 8.58955V7.95884C10.2193 7.85373 9.75455 7.76363 9.2748 7.70356C8.79505 7.6435 8.33029 7.61346 7.86553 7.61346C6.86106 7.61346 6.12644 7.80868 5.63169 8.21413C5.13695 8.61958 4.89708 9.19021 4.89708 9.94105C4.89708 10.6468 5.07698 11.1724 5.45179 11.5328C5.8116 11.9082 6.33633 12.0884 7.02597 12.0884ZM19.0647 13.7102C18.7949 13.7102 18.615 13.6652 18.495 13.5601C18.3751 13.47 18.2701 13.2597 18.1802 12.9744L14.657 1.36652C14.5671 1.06618 14.5221 0.870968 14.5221 0.765851C14.5221 0.525584 14.642 0.390434 14.8819 0.390434H16.3511C16.636 0.390434 16.8309 0.435484 16.9358 0.540601C17.0558 0.630701 17.1457 0.840935 17.2357 1.12625L19.7544 11.0673L22.0931 1.12625C22.1681 0.825918 22.2581 0.630701 22.378 0.540601C22.4979 0.450501 22.7078 0.390434 22.9777 0.390434H24.1771C24.4619 0.390434 24.6568 0.435484 24.7768 0.540601C24.8967 0.630701 25.0016 0.840935 25.0616 1.12625L27.4304 11.1874L30.024 1.12625C30.114 0.825918 30.2189 0.630701 30.3239 0.540601C30.4438 0.450501 30.6387 0.390434 30.9086 0.390434H32.3028C32.5427 0.390434 32.6776 0.510567 32.6776 0.765851C32.6776 0.840935 32.6627 0.916018 32.6477 1.00612C32.6327 1.09622 32.6027 1.21635 32.5427 1.38154L28.9296 12.9894C28.8396 13.2898 28.7347 13.485 28.6148 13.5751C28.4948 13.6652 28.2999 13.7253 28.0451 13.7253H26.7557C26.4709 13.7253 26.276 13.6802 26.156 13.5751C26.0361 13.47 25.9312 13.2748 25.8712 12.9744L23.5474 3.28865L21.2386 12.9594C21.1636 13.2597 21.0737 13.455 20.9537 13.5601C20.8338 13.6652 20.6239 13.7102 20.354 13.7102H19.0647ZM38.3297 14.1157C37.5501 14.1157 36.7705 14.0256 36.0209 13.8454C35.2713 13.6652 34.6866 13.47 34.2968 13.2447C34.0569 13.1096 33.892 12.9594 33.8321 12.8243C33.7721 12.6891 33.7421 12.5389 33.7421 12.4038V11.6379C33.7421 11.3226 33.862 11.1724 34.0869 11.1724C34.1769 11.1724 34.2668 11.1874 34.3568 11.2175C34.4467 11.2475 34.5817 11.3076 34.7316 11.3676C35.2413 11.5929 35.796 11.7731 36.3807 11.8932C36.9804 12.0134 37.5651 12.0734 38.1648 12.0734C39.1093 12.0734 39.8439 11.9082 40.3537 11.5779C40.8634 11.2475 41.1333 10.767 41.1333 10.1513C41.1333 9.73081 40.9983 9.38543 40.7285 9.10011C40.4586 8.8148 39.9489 8.55951 39.2143 8.31925L37.0404 7.64349C35.9459 7.29811 35.1364 6.78754 34.6416 6.11179C34.1469 5.45106 33.892 4.71524 33.892 3.93437C33.892 3.30367 34.0269 2.74805 34.2968 2.26752C34.5667 1.78699 34.9265 1.36652 35.3762 1.03615C35.826 0.690768 36.3358 0.435484 36.9354 0.255284C37.5351 0.0750834 38.1648 0 38.8245 0C39.1543 0 39.4991 0.0150167 39.8289 0.0600667C40.1738 0.105117 40.4886 0.165184 40.8034 0.22525C41.1033 0.300334 41.3881 0.375417 41.658 0.465517C41.9278 0.555617 42.1377 0.645718 42.2877 0.735818C42.4975 0.855951 42.6475 0.976085 42.7374 1.11123C42.8274 1.23137 42.8724 1.39655 42.8724 1.60679V2.31257C42.8724 2.62792 42.7524 2.7931 42.5275 2.7931C42.4076 2.7931 42.2127 2.73304 41.9578 2.6129C41.1033 2.22247 40.1438 2.02725 39.0793 2.02725C38.2248 2.02725 37.5501 2.1624 37.0854 2.44772C36.6206 2.73304 36.3807 3.16852 36.3807 3.78421C36.3807 4.20467 36.5306 4.56507 36.8305 4.85039C37.1303 5.13571 37.685 5.42102 38.4796 5.67631L40.6085 6.35206C41.688 6.69744 42.4676 7.17798 42.9323 7.79366C43.3971 8.40935 43.622 9.11513 43.622 9.896C43.622 10.5417 43.487 11.1274 43.2322 11.6379C42.9623 12.1485 42.6025 12.599 42.1377 12.9594C41.673 13.3348 41.1183 13.6051 40.4736 13.8003C39.799 14.0106 39.0943 14.1157 38.3297 14.1157Z" fill="#252F3E"/>
<path fill-rule="evenodd" clip-rule="evenodd" d="M41.1638 21.4138C36.2314 25.0628 29.0651 27 22.9033 27C14.2678 27 6.4868 23.8014 0.609855 18.4855C0.145096 18.0651 0.564878 17.4944 1.11959 17.8248C7.47629 21.5189 15.3172 23.7564 23.428 23.7564C28.9002 23.7564 34.912 22.6151 40.4442 20.2725C41.2687 19.8971 41.9734 20.8131 41.1638 21.4138Z" fill="#FF9900"/>
<path fill-rule="evenodd" clip-rule="evenodd" d="M43.2179 19.0712C42.5882 18.2603 39.05 18.6808 37.4459 18.876C36.9661 18.9361 36.8911 18.5156 37.3259 18.2002C40.1445 16.218 44.7771 16.7887 45.3168 17.4494C45.8565 18.1251 45.1668 22.7653 42.5282 24.9878C42.1234 25.3332 41.7336 25.153 41.9135 24.7025C42.5132 23.2158 43.8475 19.8671 43.2179 19.0712Z" fill="#FF9900"/>
</g>
<defs>
<clipPath id="clip0_19835_6934">
<rect width="46" height="27" fill="white"/>
</clipPath>
</defs>
</svg>
