<svg width="876" height="413" viewBox="0 0 876 413" fill="none" xmlns="http://www.w3.org/2000/svg">
<mask id="mask0_19857_5107" style="mask-type:alpha" maskUnits="userSpaceOnUse" x="-77" y="0" width="953" height="413">
<rect x="-77" width="953" height="413" fill="url(#paint0_radial_19857_5107)"/>
</mask>
<g mask="url(#mask0_19857_5107)">
<g style="mix-blend-mode:overlay">
<path fill-rule="evenodd" clip-rule="evenodd" d="M-181.482 0.469727L-181.482 -80H-180.093L-180.093 0.469727H-98.1868V-80H-96.7985V0.469727H-14.8919V-80H-13.5037V0.469727H68.403V-80H69.7912V0.469727H151.698V-80H153.086V0.469727H234.993V-80H236.381V0.469727H318.288V-80H319.676V0.469727H401.582V-80H402.971V0.469727H484.877V-80H486.265V0.469727H568.172V-80H569.56V0.469727H651.467V-80H652.855V0.469727H734.762V-80H736.15V0.469727H818.057V-80H819.445V0.469727H901.351V-80H902.74V0.469727H984.646V-80H986.035V0.469727H1061V1.85714H986.035V83.7143H1061V85.1017H986.035V166.959H1061V168.346H986.035V250.203H1061V251.591H986.035V333.448H1061V334.835H986.035V416.692H1061V418.08H986.035V493H984.646V418.08H902.74V493H901.351V418.08H819.445V493H818.057V418.08H736.15V493H734.762V418.08H652.855V493H651.467V418.08H569.56V493H568.172V418.08H486.265V493H484.877V418.08H402.971V493H401.582V418.08H319.676V493H318.287V418.08H236.381V493H234.993V418.08H153.086V493H151.698V418.08H69.7912V493H68.4029V418.08H-13.5037V493H-14.8919V418.08H-96.7985V493H-98.1868V418.08H-180.093L-180.093 493H-181.482V418.08H-262V416.692H-181.482V334.835H-262V333.448H-181.482L-181.482 251.591H-262V250.203H-181.482L-181.482 168.346H-262V166.959H-181.482V85.1017H-262V83.7143H-181.482V1.85714H-262V0.469727H-181.482ZM-180.093 1.85714V83.7143H-98.1868V1.85714H-180.093ZM-96.7985 1.85714L-96.7985 83.7143H-14.8919V1.85714H-96.7985ZM-13.5037 1.85714V83.7143H68.403V1.85714H-13.5037ZM69.7912 1.85714V83.7143H151.698V1.85714H69.7912ZM153.086 1.85714V83.7143H234.993V1.85714H153.086ZM236.381 1.85714V83.7143H318.288V1.85714H236.381ZM319.676 1.85714V83.7143H401.582V1.85714H319.676ZM402.971 1.85714V83.7143H484.877V1.85714H402.971ZM486.265 1.85714V83.7143H568.172V1.85714H486.265ZM569.56 1.85714V83.7143H651.467V1.85714H569.56ZM652.855 1.85714V83.7143H734.762V1.85714H652.855ZM736.15 1.85714V83.7143H818.057V1.85714H736.15ZM819.445 1.85714V83.7143H901.351V1.85714H819.445ZM902.74 1.85714V83.7143H984.646V1.85714H902.74ZM984.646 85.1017H902.74V166.959H984.646V85.1017ZM984.646 168.346H902.74V250.203H984.646V168.346ZM984.646 251.591H902.74V333.448H984.646V251.591ZM984.646 334.835H902.74V416.692H984.646V334.835ZM901.351 416.692V334.835H819.445V416.692H901.351ZM818.057 416.692V334.835H736.15V416.692H818.057ZM734.762 416.692V334.835H652.855V416.692H734.762ZM651.467 416.692V334.835H569.56V416.692H651.467ZM568.172 416.692V334.835H486.265V416.692H568.172ZM484.877 416.692V334.835H402.971V416.692H484.877ZM401.582 416.692V334.835H319.676V416.692H401.582ZM318.287 416.692V334.835H236.381V416.692H318.287ZM234.993 416.692V334.835H153.086V416.692H234.993ZM151.698 416.692V334.835H69.7912V416.692H151.698ZM68.4029 416.692V334.835H-13.5037V416.692H68.4029ZM-14.8919 416.692V334.835H-96.7985L-96.7985 416.692H-14.8919ZM-98.1868 416.692L-98.1868 334.835H-180.093V416.692H-98.1868ZM-180.093 333.448H-98.1868V251.591H-180.093V333.448ZM-180.093 250.203H-98.1868V168.346H-180.093L-180.093 250.203ZM-180.093 166.959H-98.1868V85.1017H-180.093L-180.093 166.959ZM-96.7985 85.1017V166.959H-14.8919V85.1017H-96.7985ZM-13.5037 85.1017V166.959H68.403V85.1017H-13.5037ZM69.7912 85.1017V166.959H151.698V85.1017H69.7912ZM153.086 85.1017V166.959H234.993V85.1017H153.086ZM236.381 85.1017V166.959H318.288V85.1017H236.381ZM319.676 85.1017V166.959H401.582V85.1017H319.676ZM402.971 85.1017V166.959H484.877V85.1017H402.971ZM486.265 85.1017V166.959H568.172V85.1017H486.265ZM569.56 85.1017V166.959H651.467V85.1017H569.56ZM652.855 85.1017V166.959H734.762V85.1017H652.855ZM736.15 85.1017V166.959H818.057V85.1017H736.15ZM819.445 85.1017V166.959H901.351V85.1017H819.445ZM901.351 168.346H819.445V250.203H901.351V168.346ZM901.351 251.591H819.445V333.448H901.351V251.591ZM818.057 333.448V251.591H736.15V333.448H818.057ZM734.762 333.448V251.591H652.855V333.448H734.762ZM651.467 333.448V251.591H569.56V333.448H651.467ZM568.172 333.448V251.591H486.265V333.448H568.172ZM484.877 333.448V251.591H402.971V333.448H484.877ZM401.582 333.448V251.591H319.676V333.448H401.582ZM318.287 333.448V251.591H236.381V333.448H318.287ZM234.993 333.448V251.591H153.086V333.448H234.993ZM151.698 333.448V251.591H69.7912V333.448H151.698ZM68.4029 333.448V251.591H-13.5037V333.448H68.4029ZM-14.8919 333.448V251.591H-96.7985V333.448H-14.8919ZM-96.7985 250.203H-14.8919L-14.8919 168.346H-96.7985V250.203ZM-13.5037 168.346L-13.5037 250.203H68.4029L68.403 168.346H-13.5037ZM69.7912 168.346L69.7912 250.203H151.698V168.346H69.7912ZM153.086 168.346V250.203H234.993L234.993 168.346H153.086ZM236.381 168.346L236.381 250.203H318.287L318.288 168.346H236.381ZM319.676 168.346L319.676 250.203H401.582L401.582 168.346H319.676ZM402.971 168.346L402.971 250.203H484.877V168.346H402.971ZM486.265 168.346V250.203H568.172V168.346H486.265ZM569.56 168.346V250.203H651.467V168.346H569.56ZM652.855 168.346V250.203H734.762V168.346H652.855ZM736.15 168.346V250.203H818.057V168.346H736.15Z" fill="white" fill-opacity="0.5"/>
</g>
<rect x="153" y="85" width="82" height="82" fill="white" fill-opacity="0.05"/>
<rect x="403" y="85" width="82" height="82" fill="white" fill-opacity="0.1"/>
<rect x="320" y="2" width="82" height="82" fill="white" fill-opacity="0.05"/>
<line x1="236.5" y1="2" x2="236.5" y2="206" stroke="url(#paint1_linear_19857_5107)"/>
<line x1="568.5" y1="127" x2="568.5" y2="250" stroke="url(#paint2_linear_19857_5107)"/>
<line x1="735.5" y1="17" x2="735.5" y2="153" stroke="url(#paint3_linear_19857_5107)"/>
</g>
<defs>
<radialGradient id="paint0_radial_19857_5107" cx="0" cy="0" r="1" gradientUnits="userSpaceOnUse" gradientTransform="translate(400 206) rotate(90) scale(174.5 402.66)">
<stop stop-color="white"/>
<stop offset="1" stop-color="white" stop-opacity="0"/>
</radialGradient>
<linearGradient id="paint1_linear_19857_5107" x1="235.5" y1="2" x2="235.5" y2="206" gradientUnits="userSpaceOnUse">
<stop stop-color="white" stop-opacity="0"/>
<stop offset="0.5" stop-color="white"/>
<stop offset="1" stop-color="white" stop-opacity="0"/>
</linearGradient>
<linearGradient id="paint2_linear_19857_5107" x1="567.5" y1="127" x2="567.5" y2="250" gradientUnits="userSpaceOnUse">
<stop stop-color="white" stop-opacity="0"/>
<stop offset="0.5" stop-color="white"/>
<stop offset="1" stop-color="white" stop-opacity="0"/>
</linearGradient>
<linearGradient id="paint3_linear_19857_5107" x1="734.5" y1="17" x2="734.5" y2="153" gradientUnits="userSpaceOnUse">
<stop stop-color="white" stop-opacity="0"/>
<stop offset="0.5" stop-color="white"/>
<stop offset="1" stop-color="white" stop-opacity="0"/>
</linearGradient>
</defs>
</svg>
